<?xml version="1.0" encoding="utf-8"?>
<svg xmlns="http://www.w3.org/2000/svg" xmlns:xlink="http://www.w3.org/1999/xlink" width="600" height="400" viewBox="0 0 2400 1600">
<defs>
  <clipPath id="clip680">
    <rect x="0" y="0" width="2400" height="1600"/>
  </clipPath>
</defs>
<path clip-path="url(#clip680)" d="M0 1600 L2400 1600 L2400 0 L0 0  Z" fill="#ffffff" fill-rule="evenodd" fill-opacity="1"/>
<defs>
  <clipPath id="clip681">
    <rect x="214" y="47" width="2139" height="1440"/>
  </clipPath>
</defs>
<path clip-path="url(#clip680)" d="M214.839 1486.45 L2352.76 1486.45 L2352.76 47.2441 L214.839 47.2441  Z" fill="#ffffff" fill-rule="evenodd" fill-opacity="1"/>
<polyline clip-path="url(#clip681)" style="stroke:#000000; stroke-linecap:round; stroke-linejoin:round; stroke-width:2; stroke-opacity:0.1; fill:none" points="275.346,1486.45 275.346,47.2441 "/>
<polyline clip-path="url(#clip681)" style="stroke:#000000; stroke-linecap:round; stroke-linejoin:round; stroke-width:2; stroke-opacity:0.1; fill:none" points="779.572,1486.45 779.572,47.2441 "/>
<polyline clip-path="url(#clip681)" style="stroke:#000000; stroke-linecap:round; stroke-linejoin:round; stroke-width:2; stroke-opacity:0.1; fill:none" points="1283.8,1486.45 1283.8,47.2441 "/>
<polyline clip-path="url(#clip681)" style="stroke:#000000; stroke-linecap:round; stroke-linejoin:round; stroke-width:2; stroke-opacity:0.1; fill:none" points="1788.02,1486.45 1788.02,47.2441 "/>
<polyline clip-path="url(#clip681)" style="stroke:#000000; stroke-linecap:round; stroke-linejoin:round; stroke-width:2; stroke-opacity:0.1; fill:none" points="2292.25,1486.45 2292.25,47.2441 "/>
<polyline clip-path="url(#clip681)" style="stroke:#000000; stroke-linecap:round; stroke-linejoin:round; stroke-width:2; stroke-opacity:0.1; fill:none" points="214.839,1316.05 2352.76,1316.05 "/>
<polyline clip-path="url(#clip681)" style="stroke:#000000; stroke-linecap:round; stroke-linejoin:round; stroke-width:2; stroke-opacity:0.1; fill:none" points="214.839,1008.99 2352.76,1008.99 "/>
<polyline clip-path="url(#clip681)" style="stroke:#000000; stroke-linecap:round; stroke-linejoin:round; stroke-width:2; stroke-opacity:0.1; fill:none" points="214.839,701.919 2352.76,701.919 "/>
<polyline clip-path="url(#clip681)" style="stroke:#000000; stroke-linecap:round; stroke-linejoin:round; stroke-width:2; stroke-opacity:0.1; fill:none" points="214.839,394.852 2352.76,394.852 "/>
<polyline clip-path="url(#clip681)" style="stroke:#000000; stroke-linecap:round; stroke-linejoin:round; stroke-width:2; stroke-opacity:0.1; fill:none" points="214.839,87.7849 2352.76,87.7849 "/>
<polyline clip-path="url(#clip680)" style="stroke:#000000; stroke-linecap:round; stroke-linejoin:round; stroke-width:4; stroke-opacity:1; fill:none" points="214.839,1486.45 2352.76,1486.45 "/>
<polyline clip-path="url(#clip680)" style="stroke:#000000; stroke-linecap:round; stroke-linejoin:round; stroke-width:4; stroke-opacity:1; fill:none" points="275.346,1486.45 275.346,1467.55 "/>
<polyline clip-path="url(#clip680)" style="stroke:#000000; stroke-linecap:round; stroke-linejoin:round; stroke-width:4; stroke-opacity:1; fill:none" points="779.572,1486.45 779.572,1467.55 "/>
<polyline clip-path="url(#clip680)" style="stroke:#000000; stroke-linecap:round; stroke-linejoin:round; stroke-width:4; stroke-opacity:1; fill:none" points="1283.8,1486.45 1283.8,1467.55 "/>
<polyline clip-path="url(#clip680)" style="stroke:#000000; stroke-linecap:round; stroke-linejoin:round; stroke-width:4; stroke-opacity:1; fill:none" points="1788.02,1486.45 1788.02,1467.55 "/>
<polyline clip-path="url(#clip680)" style="stroke:#000000; stroke-linecap:round; stroke-linejoin:round; stroke-width:4; stroke-opacity:1; fill:none" points="2292.25,1486.45 2292.25,1467.55 "/>
<path clip-path="url(#clip680)" d="M275.346 1517.37 Q271.735 1517.37 269.906 1520.93 Q268.1 1524.47 268.1 1531.6 Q268.1 1538.71 269.906 1542.27 Q271.735 1545.82 275.346 1545.82 Q278.98 1545.82 280.786 1542.27 Q282.614 1538.71 282.614 1531.6 Q282.614 1524.47 280.786 1520.93 Q278.98 1517.37 275.346 1517.37 M275.346 1513.66 Q281.156 1513.66 284.211 1518.27 Q287.29 1522.85 287.29 1531.6 Q287.29 1540.33 284.211 1544.94 Q281.156 1549.52 275.346 1549.52 Q269.536 1549.52 266.457 1544.94 Q263.401 1540.33 263.401 1531.6 Q263.401 1522.85 266.457 1518.27 Q269.536 1513.66 275.346 1513.66 Z" fill="#000000" fill-rule="nonzero" fill-opacity="1" /><path clip-path="url(#clip680)" d="M769.849 1514.29 L788.206 1514.29 L788.206 1518.22 L774.132 1518.22 L774.132 1526.7 Q775.15 1526.35 776.169 1526.19 Q777.187 1526 778.206 1526 Q783.993 1526 787.372 1529.17 Q790.752 1532.34 790.752 1537.76 Q790.752 1543.34 787.28 1546.44 Q783.808 1549.52 777.488 1549.52 Q775.312 1549.52 773.044 1549.15 Q770.798 1548.78 768.391 1548.04 L768.391 1543.34 Q770.474 1544.47 772.697 1545.03 Q774.919 1545.58 777.396 1545.58 Q781.4 1545.58 783.738 1543.48 Q786.076 1541.37 786.076 1537.76 Q786.076 1534.15 783.738 1532.04 Q781.4 1529.94 777.396 1529.94 Q775.521 1529.94 773.646 1530.35 Q771.794 1530.77 769.849 1531.65 L769.849 1514.29 Z" fill="#000000" fill-rule="nonzero" fill-opacity="1" /><path clip-path="url(#clip680)" d="M1258.48 1544.91 L1266.12 1544.91 L1266.12 1518.55 L1257.81 1520.21 L1257.81 1515.95 L1266.08 1514.29 L1270.75 1514.29 L1270.75 1544.91 L1278.39 1544.91 L1278.39 1548.85 L1258.48 1548.85 L1258.48 1544.91 Z" fill="#000000" fill-rule="nonzero" fill-opacity="1" /><path clip-path="url(#clip680)" d="M1297.84 1517.37 Q1294.23 1517.37 1292.4 1520.93 Q1290.59 1524.47 1290.59 1531.6 Q1290.59 1538.71 1292.4 1542.27 Q1294.23 1545.82 1297.84 1545.82 Q1301.47 1545.82 1303.28 1542.27 Q1305.11 1538.71 1305.11 1531.6 Q1305.11 1524.47 1303.28 1520.93 Q1301.47 1517.37 1297.84 1517.37 M1297.84 1513.66 Q1303.65 1513.66 1306.7 1518.27 Q1309.78 1522.85 1309.78 1531.6 Q1309.78 1540.33 1306.7 1544.94 Q1303.65 1549.52 1297.84 1549.52 Q1292.03 1549.52 1288.95 1544.94 Q1285.89 1540.33 1285.89 1531.6 Q1285.89 1522.85 1288.95 1518.27 Q1292.03 1513.66 1297.84 1513.66 Z" fill="#000000" fill-rule="nonzero" fill-opacity="1" /><path clip-path="url(#clip680)" d="M1763.21 1544.91 L1770.85 1544.91 L1770.85 1518.55 L1762.54 1520.21 L1762.54 1515.95 L1770.8 1514.29 L1775.48 1514.29 L1775.48 1544.91 L1783.12 1544.91 L1783.12 1548.85 L1763.21 1548.85 L1763.21 1544.91 Z" fill="#000000" fill-rule="nonzero" fill-opacity="1" /><path clip-path="url(#clip680)" d="M1792.61 1514.29 L1810.96 1514.29 L1810.96 1518.22 L1796.89 1518.22 L1796.89 1526.7 Q1797.91 1526.35 1798.93 1526.19 Q1799.94 1526 1800.96 1526 Q1806.75 1526 1810.13 1529.17 Q1813.51 1532.34 1813.51 1537.76 Q1813.51 1543.34 1810.04 1546.44 Q1806.56 1549.52 1800.25 1549.52 Q1798.07 1549.52 1795.8 1549.15 Q1793.56 1548.78 1791.15 1548.04 L1791.15 1543.34 Q1793.23 1544.47 1795.45 1545.03 Q1797.68 1545.58 1800.15 1545.58 Q1804.16 1545.58 1806.5 1543.48 Q1808.83 1541.37 1808.83 1537.76 Q1808.83 1534.15 1806.5 1532.04 Q1804.16 1529.94 1800.15 1529.94 Q1798.28 1529.94 1796.4 1530.35 Q1794.55 1530.77 1792.61 1531.65 L1792.61 1514.29 Z" fill="#000000" fill-rule="nonzero" fill-opacity="1" /><path clip-path="url(#clip680)" d="M2271.02 1544.91 L2287.34 1544.91 L2287.34 1548.85 L2265.4 1548.85 L2265.4 1544.91 Q2268.06 1542.16 2272.64 1537.53 Q2277.25 1532.88 2278.43 1531.53 Q2280.67 1529.01 2281.55 1527.27 Q2282.46 1525.51 2282.46 1523.82 Q2282.46 1521.07 2280.51 1519.33 Q2278.59 1517.6 2275.49 1517.6 Q2273.29 1517.6 2270.84 1518.36 Q2268.41 1519.13 2265.63 1520.68 L2265.63 1515.95 Q2268.45 1514.82 2270.91 1514.24 Q2273.36 1513.66 2275.4 1513.66 Q2280.77 1513.66 2283.96 1516.35 Q2287.16 1519.03 2287.16 1523.52 Q2287.16 1525.65 2286.35 1527.57 Q2285.56 1529.47 2283.45 1532.07 Q2282.87 1532.74 2279.77 1535.95 Q2276.67 1539.15 2271.02 1544.91 Z" fill="#000000" fill-rule="nonzero" fill-opacity="1" /><path clip-path="url(#clip680)" d="M2307.16 1517.37 Q2303.55 1517.37 2301.72 1520.93 Q2299.91 1524.47 2299.91 1531.6 Q2299.91 1538.71 2301.72 1542.27 Q2303.55 1545.82 2307.16 1545.82 Q2310.79 1545.82 2312.6 1542.27 Q2314.42 1538.71 2314.42 1531.6 Q2314.42 1524.47 2312.6 1520.93 Q2310.79 1517.37 2307.16 1517.37 M2307.16 1513.66 Q2312.97 1513.66 2316.02 1518.27 Q2319.1 1522.85 2319.1 1531.6 Q2319.1 1540.33 2316.02 1544.94 Q2312.97 1549.52 2307.16 1549.52 Q2301.35 1549.52 2298.27 1544.94 Q2295.21 1540.33 2295.21 1531.6 Q2295.21 1522.85 2298.27 1518.27 Q2301.35 1513.66 2307.16 1513.66 Z" fill="#000000" fill-rule="nonzero" fill-opacity="1" /><polyline clip-path="url(#clip680)" style="stroke:#000000; stroke-linecap:round; stroke-linejoin:round; stroke-width:4; stroke-opacity:1; fill:none" points="214.839,1486.45 214.839,47.2441 "/>
<polyline clip-path="url(#clip680)" style="stroke:#000000; stroke-linecap:round; stroke-linejoin:round; stroke-width:4; stroke-opacity:1; fill:none" points="214.839,1316.05 233.736,1316.05 "/>
<polyline clip-path="url(#clip680)" style="stroke:#000000; stroke-linecap:round; stroke-linejoin:round; stroke-width:4; stroke-opacity:1; fill:none" points="214.839,1008.99 233.736,1008.99 "/>
<polyline clip-path="url(#clip680)" style="stroke:#000000; stroke-linecap:round; stroke-linejoin:round; stroke-width:4; stroke-opacity:1; fill:none" points="214.839,701.919 233.736,701.919 "/>
<polyline clip-path="url(#clip680)" style="stroke:#000000; stroke-linecap:round; stroke-linejoin:round; stroke-width:4; stroke-opacity:1; fill:none" points="214.839,394.852 233.736,394.852 "/>
<polyline clip-path="url(#clip680)" style="stroke:#000000; stroke-linecap:round; stroke-linejoin:round; stroke-width:4; stroke-opacity:1; fill:none" points="214.839,87.7849 233.736,87.7849 "/>
<path clip-path="url(#clip680)" d="M53.7467 1329.4 L61.3856 1329.4 L61.3856 1303.03 L53.0754 1304.7 L53.0754 1300.44 L61.3393 1298.77 L66.0152 1298.77 L66.0152 1329.4 L73.654 1329.4 L73.654 1333.33 L53.7467 1333.33 L53.7467 1329.4 Z" fill="#000000" fill-rule="nonzero" fill-opacity="1" /><path clip-path="url(#clip680)" d="M83.0984 1327.45 L87.9827 1327.45 L87.9827 1333.33 L83.0984 1333.33 L83.0984 1327.45 Z" fill="#000000" fill-rule="nonzero" fill-opacity="1" /><path clip-path="url(#clip680)" d="M108.168 1301.85 Q104.557 1301.85 102.728 1305.42 Q100.922 1308.96 100.922 1316.09 Q100.922 1323.2 102.728 1326.76 Q104.557 1330.3 108.168 1330.3 Q111.802 1330.3 113.608 1326.76 Q115.436 1323.2 115.436 1316.09 Q115.436 1308.96 113.608 1305.42 Q111.802 1301.85 108.168 1301.85 M108.168 1298.15 Q113.978 1298.15 117.033 1302.76 Q120.112 1307.34 120.112 1316.09 Q120.112 1324.82 117.033 1329.42 Q113.978 1334.01 108.168 1334.01 Q102.358 1334.01 99.2789 1329.42 Q96.2234 1324.82 96.2234 1316.09 Q96.2234 1307.34 99.2789 1302.76 Q102.358 1298.15 108.168 1298.15 Z" fill="#000000" fill-rule="nonzero" fill-opacity="1" /><path clip-path="url(#clip680)" d="M138.33 1301.85 Q134.719 1301.85 132.89 1305.42 Q131.084 1308.96 131.084 1316.09 Q131.084 1323.2 132.89 1326.76 Q134.719 1330.3 138.33 1330.3 Q141.964 1330.3 143.769 1326.76 Q145.598 1323.2 145.598 1316.09 Q145.598 1308.96 143.769 1305.42 Q141.964 1301.85 138.33 1301.85 M138.33 1298.15 Q144.14 1298.15 147.195 1302.76 Q150.274 1307.34 150.274 1316.09 Q150.274 1324.82 147.195 1329.42 Q144.14 1334.01 138.33 1334.01 Q132.519 1334.01 129.441 1329.42 Q126.385 1324.82 126.385 1316.09 Q126.385 1307.34 129.441 1302.76 Q132.519 1298.15 138.33 1298.15 Z" fill="#000000" fill-rule="nonzero" fill-opacity="1" /><path clip-path="url(#clip680)" d="M162.519 1329.4 L178.839 1329.4 L178.839 1333.33 L156.894 1333.33 L156.894 1329.4 Q159.556 1326.64 164.14 1322.01 Q168.746 1317.36 169.927 1316.02 Q172.172 1313.5 173.052 1311.76 Q173.954 1310 173.954 1308.31 Q173.954 1305.56 172.01 1303.82 Q170.089 1302.08 166.987 1302.08 Q164.788 1302.08 162.334 1302.85 Q159.904 1303.61 157.126 1305.16 L157.126 1300.44 Q159.95 1299.31 162.404 1298.73 Q164.857 1298.15 166.894 1298.15 Q172.265 1298.15 175.459 1300.83 Q178.653 1303.52 178.653 1308.01 Q178.653 1310.14 177.843 1312.06 Q177.056 1313.96 174.95 1316.55 Q174.371 1317.22 171.269 1320.44 Q168.167 1323.63 162.519 1329.4 Z" fill="#000000" fill-rule="nonzero" fill-opacity="1" /><path clip-path="url(#clip680)" d="M51.6634 1022.33 L59.3023 1022.33 L59.3023 995.966 L50.9921 997.633 L50.9921 993.373 L59.256 991.707 L63.9319 991.707 L63.9319 1022.33 L71.5707 1022.33 L71.5707 1026.27 L51.6634 1026.27 L51.6634 1022.33 Z" fill="#000000" fill-rule="nonzero" fill-opacity="1" /><path clip-path="url(#clip680)" d="M81.0151 1020.39 L85.8993 1020.39 L85.8993 1026.27 L81.0151 1026.27 L81.0151 1020.39 Z" fill="#000000" fill-rule="nonzero" fill-opacity="1" /><path clip-path="url(#clip680)" d="M106.084 994.785 Q102.473 994.785 100.645 998.35 Q98.8391 1001.89 98.8391 1009.02 Q98.8391 1016.13 100.645 1019.69 Q102.473 1023.23 106.084 1023.23 Q109.719 1023.23 111.524 1019.69 Q113.353 1016.13 113.353 1009.02 Q113.353 1001.89 111.524 998.35 Q109.719 994.785 106.084 994.785 M106.084 991.082 Q111.895 991.082 114.95 995.688 Q118.029 1000.27 118.029 1009.02 Q118.029 1017.75 114.95 1022.35 Q111.895 1026.94 106.084 1026.94 Q100.274 1026.94 97.1956 1022.35 Q94.14 1017.75 94.14 1009.02 Q94.14 1000.27 97.1956 995.688 Q100.274 991.082 106.084 991.082 Z" fill="#000000" fill-rule="nonzero" fill-opacity="1" /><path clip-path="url(#clip680)" d="M136.246 994.785 Q132.635 994.785 130.807 998.35 Q129.001 1001.89 129.001 1009.02 Q129.001 1016.13 130.807 1019.69 Q132.635 1023.23 136.246 1023.23 Q139.881 1023.23 141.686 1019.69 Q143.515 1016.13 143.515 1009.02 Q143.515 1001.89 141.686 998.35 Q139.881 994.785 136.246 994.785 M136.246 991.082 Q142.056 991.082 145.112 995.688 Q148.191 1000.27 148.191 1009.02 Q148.191 1017.75 145.112 1022.35 Q142.056 1026.94 136.246 1026.94 Q130.436 1026.94 127.357 1022.35 Q124.302 1017.75 124.302 1009.02 Q124.302 1000.27 127.357 995.688 Q130.436 991.082 136.246 991.082 Z" fill="#000000" fill-rule="nonzero" fill-opacity="1" /><path clip-path="url(#clip680)" d="M169.255 995.781 L157.45 1014.23 L169.255 1014.23 L169.255 995.781 M168.029 991.707 L173.908 991.707 L173.908 1014.23 L178.839 1014.23 L178.839 1018.12 L173.908 1018.12 L173.908 1026.27 L169.255 1026.27 L169.255 1018.12 L153.654 1018.12 L153.654 1013.6 L168.029 991.707 Z" fill="#000000" fill-rule="nonzero" fill-opacity="1" /><path clip-path="url(#clip680)" d="M51.9875 715.264 L59.6263 715.264 L59.6263 688.899 L51.3162 690.565 L51.3162 686.306 L59.58 684.639 L64.2559 684.639 L64.2559 715.264 L71.8948 715.264 L71.8948 719.199 L51.9875 719.199 L51.9875 715.264 Z" fill="#000000" fill-rule="nonzero" fill-opacity="1" /><path clip-path="url(#clip680)" d="M81.3392 713.32 L86.2234 713.32 L86.2234 719.199 L81.3392 719.199 L81.3392 713.32 Z" fill="#000000" fill-rule="nonzero" fill-opacity="1" /><path clip-path="url(#clip680)" d="M106.408 687.718 Q102.797 687.718 100.969 691.283 Q99.1632 694.825 99.1632 701.954 Q99.1632 709.061 100.969 712.625 Q102.797 716.167 106.408 716.167 Q110.043 716.167 111.848 712.625 Q113.677 709.061 113.677 701.954 Q113.677 694.825 111.848 691.283 Q110.043 687.718 106.408 687.718 M106.408 684.014 Q112.219 684.014 115.274 688.621 Q118.353 693.204 118.353 701.954 Q118.353 710.681 115.274 715.287 Q112.219 719.871 106.408 719.871 Q100.598 719.871 97.5197 715.287 Q94.4641 710.681 94.4641 701.954 Q94.4641 693.204 97.5197 688.621 Q100.598 684.014 106.408 684.014 Z" fill="#000000" fill-rule="nonzero" fill-opacity="1" /><path clip-path="url(#clip680)" d="M136.57 687.718 Q132.959 687.718 131.131 691.283 Q129.325 694.825 129.325 701.954 Q129.325 709.061 131.131 712.625 Q132.959 716.167 136.57 716.167 Q140.205 716.167 142.01 712.625 Q143.839 709.061 143.839 701.954 Q143.839 694.825 142.01 691.283 Q140.205 687.718 136.57 687.718 M136.57 684.014 Q142.381 684.014 145.436 688.621 Q148.515 693.204 148.515 701.954 Q148.515 710.681 145.436 715.287 Q142.381 719.871 136.57 719.871 Q130.76 719.871 127.682 715.287 Q124.626 710.681 124.626 701.954 Q124.626 693.204 127.682 688.621 Q130.76 684.014 136.57 684.014 Z" fill="#000000" fill-rule="nonzero" fill-opacity="1" /><path clip-path="url(#clip680)" d="M167.311 700.056 Q164.163 700.056 162.311 702.209 Q160.482 704.362 160.482 708.112 Q160.482 711.838 162.311 714.014 Q164.163 716.167 167.311 716.167 Q170.459 716.167 172.288 714.014 Q174.14 711.838 174.14 708.112 Q174.14 704.362 172.288 702.209 Q170.459 700.056 167.311 700.056 M176.593 685.403 L176.593 689.663 Q174.834 688.829 173.029 688.389 Q171.246 687.95 169.487 687.95 Q164.857 687.95 162.404 691.075 Q159.973 694.2 159.626 700.519 Q160.992 698.505 163.052 697.44 Q165.112 696.352 167.589 696.352 Q172.797 696.352 175.806 699.524 Q178.839 702.672 178.839 708.112 Q178.839 713.436 175.691 716.653 Q172.542 719.871 167.311 719.871 Q161.316 719.871 158.144 715.287 Q154.973 710.681 154.973 701.954 Q154.973 693.76 158.862 688.899 Q162.751 684.014 169.302 684.014 Q171.061 684.014 172.843 684.362 Q174.649 684.709 176.593 685.403 Z" fill="#000000" fill-rule="nonzero" fill-opacity="1" /><path clip-path="url(#clip680)" d="M52.2421 408.197 L59.881 408.197 L59.881 381.831 L51.5708 383.498 L51.5708 379.239 L59.8347 377.572 L64.5106 377.572 L64.5106 408.197 L72.1494 408.197 L72.1494 412.132 L52.2421 412.132 L52.2421 408.197 Z" fill="#000000" fill-rule="nonzero" fill-opacity="1" /><path clip-path="url(#clip680)" d="M81.5938 406.253 L86.478 406.253 L86.478 412.132 L81.5938 412.132 L81.5938 406.253 Z" fill="#000000" fill-rule="nonzero" fill-opacity="1" /><path clip-path="url(#clip680)" d="M106.663 380.651 Q103.052 380.651 101.223 384.216 Q99.4178 387.757 99.4178 394.887 Q99.4178 401.993 101.223 405.558 Q103.052 409.1 106.663 409.1 Q110.297 409.1 112.103 405.558 Q113.932 401.993 113.932 394.887 Q113.932 387.757 112.103 384.216 Q110.297 380.651 106.663 380.651 M106.663 376.947 Q112.473 376.947 115.529 381.554 Q118.608 386.137 118.608 394.887 Q118.608 403.614 115.529 408.22 Q112.473 412.803 106.663 412.803 Q100.853 412.803 97.7743 408.22 Q94.7187 403.614 94.7187 394.887 Q94.7187 386.137 97.7743 381.554 Q100.853 376.947 106.663 376.947 Z" fill="#000000" fill-rule="nonzero" fill-opacity="1" /><path clip-path="url(#clip680)" d="M136.825 380.651 Q133.214 380.651 131.385 384.216 Q129.58 387.757 129.58 394.887 Q129.58 401.993 131.385 405.558 Q133.214 409.1 136.825 409.1 Q140.459 409.1 142.265 405.558 Q144.093 401.993 144.093 394.887 Q144.093 387.757 142.265 384.216 Q140.459 380.651 136.825 380.651 M136.825 376.947 Q142.635 376.947 145.691 381.554 Q148.769 386.137 148.769 394.887 Q148.769 403.614 145.691 408.22 Q142.635 412.803 136.825 412.803 Q131.015 412.803 127.936 408.22 Q124.881 403.614 124.881 394.887 Q124.881 386.137 127.936 381.554 Q131.015 376.947 136.825 376.947 Z" fill="#000000" fill-rule="nonzero" fill-opacity="1" /><path clip-path="url(#clip680)" d="M166.987 395.72 Q163.654 395.72 161.732 397.503 Q159.834 399.285 159.834 402.41 Q159.834 405.535 161.732 407.317 Q163.654 409.1 166.987 409.1 Q170.32 409.1 172.241 407.317 Q174.163 405.512 174.163 402.41 Q174.163 399.285 172.241 397.503 Q170.343 395.72 166.987 395.72 M162.311 393.73 Q159.302 392.989 157.612 390.929 Q155.945 388.868 155.945 385.905 Q155.945 381.762 158.885 379.355 Q161.848 376.947 166.987 376.947 Q172.149 376.947 175.089 379.355 Q178.028 381.762 178.028 385.905 Q178.028 388.868 176.339 390.929 Q174.672 392.989 171.686 393.73 Q175.066 394.517 176.941 396.808 Q178.839 399.1 178.839 402.41 Q178.839 407.433 175.76 410.118 Q172.704 412.803 166.987 412.803 Q161.269 412.803 158.191 410.118 Q155.135 407.433 155.135 402.41 Q155.135 399.1 157.033 396.808 Q158.931 394.517 162.311 393.73 M160.598 386.345 Q160.598 389.03 162.265 390.535 Q163.954 392.04 166.987 392.04 Q169.996 392.04 171.686 390.535 Q173.399 389.03 173.399 386.345 Q173.399 383.66 171.686 382.155 Q169.996 380.651 166.987 380.651 Q163.954 380.651 162.265 382.155 Q160.598 383.66 160.598 386.345 Z" fill="#000000" fill-rule="nonzero" fill-opacity="1" /><path clip-path="url(#clip680)" d="M52.1495 101.13 L59.7884 101.13 L59.7884 74.7642 L51.4782 76.4308 L51.4782 72.1716 L59.7421 70.5049 L64.418 70.5049 L64.418 101.13 L72.0568 101.13 L72.0568 105.065 L52.1495 105.065 L52.1495 101.13 Z" fill="#000000" fill-rule="nonzero" fill-opacity="1" /><path clip-path="url(#clip680)" d="M81.5012 99.1853 L86.3855 99.1853 L86.3855 105.065 L81.5012 105.065 L81.5012 99.1853 Z" fill="#000000" fill-rule="nonzero" fill-opacity="1" /><path clip-path="url(#clip680)" d="M106.571 73.5836 Q102.959 73.5836 101.131 77.1484 Q99.3252 80.6901 99.3252 87.8197 Q99.3252 94.9261 101.131 98.4909 Q102.959 102.033 106.571 102.033 Q110.205 102.033 112.01 98.4909 Q113.839 94.9261 113.839 87.8197 Q113.839 80.6901 112.01 77.1484 Q110.205 73.5836 106.571 73.5836 M106.571 69.8799 Q112.381 69.8799 115.436 74.4864 Q118.515 79.0697 118.515 87.8197 Q118.515 96.5465 115.436 101.153 Q112.381 105.736 106.571 105.736 Q100.76 105.736 97.6817 101.153 Q94.6262 96.5465 94.6262 87.8197 Q94.6262 79.0697 97.6817 74.4864 Q100.76 69.8799 106.571 69.8799 Z" fill="#000000" fill-rule="nonzero" fill-opacity="1" /><path clip-path="url(#clip680)" d="M127.543 101.13 L135.181 101.13 L135.181 74.7642 L126.871 76.4308 L126.871 72.1716 L135.135 70.5049 L139.811 70.5049 L139.811 101.13 L147.45 101.13 L147.45 105.065 L127.543 105.065 L127.543 101.13 Z" fill="#000000" fill-rule="nonzero" fill-opacity="1" /><path clip-path="url(#clip680)" d="M166.894 73.5836 Q163.283 73.5836 161.454 77.1484 Q159.649 80.6901 159.649 87.8197 Q159.649 94.9261 161.454 98.4909 Q163.283 102.033 166.894 102.033 Q170.529 102.033 172.334 98.4909 Q174.163 94.9261 174.163 87.8197 Q174.163 80.6901 172.334 77.1484 Q170.529 73.5836 166.894 73.5836 M166.894 69.8799 Q172.704 69.8799 175.76 74.4864 Q178.839 79.0697 178.839 87.8197 Q178.839 96.5465 175.76 101.153 Q172.704 105.736 166.894 105.736 Q161.084 105.736 158.005 101.153 Q154.95 96.5465 154.95 87.8197 Q154.95 79.0697 158.005 74.4864 Q161.084 69.8799 166.894 69.8799 Z" fill="#000000" fill-rule="nonzero" fill-opacity="1" /><polyline clip-path="url(#clip681)" style="stroke:#009af9; stroke-linecap:round; stroke-linejoin:round; stroke-width:4; stroke-opacity:1; fill:none" points="275.346,87.9763 276.354,87.9763 277.363,87.9763 278.371,87.9763 279.38,87.9763 280.388,87.9763 281.396,87.9763 282.405,87.9763 283.413,87.9763 284.422,87.9763 285.43,87.9763 286.439,87.9763 287.447,87.9763 288.456,87.9763 289.464,87.9763 290.473,87.9763 291.481,87.9763 292.489,87.9763 293.498,87.9763 294.506,87.9763 295.515,87.9763 296.523,87.9763 297.532,87.9763 298.54,87.9763 299.549,87.9763 300.557,87.9763 301.565,87.9763 302.574,87.9763 303.582,87.9763 304.591,87.9763 305.599,87.9763 306.608,87.9763 307.616,87.9763 308.625,87.9763 309.633,87.9763 310.642,87.9763 311.65,87.9763 312.658,87.9763 313.667,87.9763 314.675,87.9763 315.684,87.9763 316.692,87.9763 317.701,87.9763 318.709,87.9763 319.718,87.9763 320.726,87.9763 321.735,87.9763 322.743,87.9763 323.751,87.9763 324.76,87.9763 325.768,87.9763 326.777,87.9763 327.785,87.9763 328.794,87.9763 329.802,87.9763 330.811,87.9763 331.819,87.9763 332.827,87.9763 333.836,87.9763 334.844,87.9763 335.853,87.9763 336.861,87.9763 337.87,87.9763 338.878,87.9763 339.887,87.9763 340.895,87.9763 341.904,87.9763 342.912,87.9763 343.92,87.9763 344.929,87.9763 345.937,87.9763 346.946,87.9763 347.954,87.9763 348.963,87.9763 349.971,87.9763 350.98,87.9763 351.988,87.9763 352.997,87.9763 354.005,87.9763 355.013,87.9763 356.022,87.9763 357.03,87.9763 358.039,87.9763 359.047,87.9763 360.056,87.9763 361.064,87.9763 362.073,87.9763 363.081,87.9763 364.089,87.9763 365.098,87.9763 366.106,87.9763 367.115,87.9763 368.123,87.9763 369.132,87.9763 370.14,87.9763 371.149,87.9763 372.157,87.9763 373.166,87.9763 374.174,87.9763 375.182,87.9763 376.191,87.9763 377.199,1445.72 378.208,509.425 379.216,906.117 380.225,946.072 381.233,965.612 382.242,979.845 383.25,989.979 384.259,996.85 385.267,1001.14 386.275,1003.36 387.284,1003.88 388.292,1003.04 389.301,1001.06 390.309,998.129 391.318,994.4 392.326,990.009 393.335,985.043 394.343,979.587 395.351,973.723 396.36,967.518 397.368,961.017 398.377,954.27 399.385,947.318 400.394,940.206 401.402,932.97 402.411,925.642 403.419,918.253 404.428,910.827 405.436,903.388 406.444,895.96 407.453,888.562 408.461,881.227 409.47,873.971 410.478,866.803 411.487,859.735 412.495,852.776 413.504,845.939 414.512,839.25 415.521,832.718 416.529,826.345 417.537,820.132 418.546,814.08 419.554,808.192 420.563,802.483 421.571,796.962 422.58,791.626 423.588,786.473 424.597,781.499 425.605,776.703 426.613,772.085 427.622,767.654 428.63,763.404 429.639,759.334 430.647,755.44 431.656,751.721 432.664,748.173 433.673,744.797 434.681,741.591 435.69,738.546 436.698,735.662 437.706,732.939 438.715,730.375 439.723,727.968 440.732,725.719 441.74,723.619 442.749,721.661 443.757,719.841 444.766,718.159 445.774,716.612 446.783,715.2 447.791,713.92 448.799,712.763 449.808,711.721 450.816,710.789 451.825,709.961 452.833,709.23 453.842,708.588 454.85,708.03 455.859,707.55 456.867,707.132 457.875,706.775 458.884,706.468 459.892,706.198 460.901,705.952 461.909,705.718 462.918,705.484 463.926,705.238 464.935,704.97 465.943,704.674 466.952,704.335 467.96,703.937 468.968,703.467 469.977,702.908 470.985,702.247 471.994,701.469 473.002,700.575 474.011,699.548 475.019,698.376 476.028,697.048 477.036,695.551 478.045,693.873 479.053,692.002 480.061,689.929 481.07,687.657 482.078,685.171 483.087,682.465 484.095,679.534 485.104,676.373 486.112,672.976 487.121,669.337 488.129,665.453 489.137,661.333 490.146,656.967 491.154,652.36 492.163,647.512 493.171,642.426 494.18,637.105 495.188,631.551 496.197,625.766 497.205,619.764 498.214,613.549 499.222,607.13 500.23,600.516 501.239,593.716 502.247,586.741 503.256,579.598 504.264,572.299 505.273,564.859 506.281,557.295 507.29,549.619 508.298,541.846 509.307,533.993 510.315,526.074 511.323,518.105 512.332,510.1 513.34,502.079 514.349,494.06 515.357,486.062 516.366,478.101 517.374,470.197 518.383,462.368 519.391,454.633 520.399,447.01 521.408,439.517 522.416,432.167 523.425,424.98 524.433,417.97 525.442,411.155 526.45,404.551 527.459,398.176 528.467,392.046 529.476,386.177 530.484,380.566 531.492,375.231 532.501,370.18 533.509,365.42 534.518,360.961 535.526,356.812 536.535,352.979 537.543,349.473 538.552,346.28 539.56,343.405 540.569,340.846 541.577,338.599 542.585,336.66 543.594,335.024 544.602,333.687 545.611,332.644 546.619,331.882 547.628,331.386 548.636,331.148 549.645,331.152 550.653,331.381 551.661,331.818 552.67,332.448 553.678,333.253 554.687,334.217 555.695,335.319 556.704,336.543 557.712,337.868 558.721,339.271 559.729,340.73 560.738,342.222 561.746,343.724 562.754,345.216 563.763,346.685 564.771,348.109 565.78,349.468 566.788,350.741 567.797,351.91 568.805,352.954 569.814,353.855 570.822,354.591 571.831,355.156 572.839,355.539 573.847,355.72 574.856,355.689 575.864,355.437 576.873,354.953 577.881,354.227 578.89,353.25 579.898,352.012 580.907,350.526 581.915,348.775 582.923,346.761 583.932,344.486 584.94,341.952 585.949,339.16 586.957,336.113 587.966,332.812 588.974,329.27 589.983,325.493 590.991,321.49 592,317.273 593.008,312.853 594.016,308.243 595.025,303.454 596.033,298.499 597.042,293.39 598.05,288.15 599.059,282.793 600.067,277.337 601.076,271.8 602.084,266.2 603.093,260.554 604.101,254.881 605.109,249.198 606.118,243.524 607.126,237.88 608.135,232.285 609.143,226.758 610.152,221.317 611.16,215.979 612.169,210.763 613.177,205.687 614.185,200.767 615.194,196.015 616.202,191.449 617.211,187.08 618.219,182.922 619.228,178.988 620.236,175.291 621.245,171.843 622.253,168.658 623.262,165.737 624.27,163.082 625.278,160.7 626.287,158.595 627.295,156.769 628.304,155.225 629.312,153.967 630.321,152.996 631.329,152.317 632.338,151.91 633.346,151.775 634.354,151.905 635.363,152.293 636.371,152.929 637.38,153.805 638.388,154.912 639.397,156.244 640.405,157.79 641.414,159.524 642.422,161.443 643.431,163.529 644.439,165.765 645.447,168.136 646.456,170.623 647.464,173.212 648.473,175.885 649.481,178.627 650.49,181.422 651.498,184.254 652.507,187.106 653.515,189.958 654.524,192.794 655.532,195.594 656.54,198.341 657.549,201.017 658.557,203.611 659.566,206.115 660.574,208.512 661.583,210.787 662.591,212.929 663.6,214.925 664.608,216.76 665.616,218.424 666.625,219.901 667.633,221.198 668.642,222.303 669.65,223.209 670.659,223.911 671.667,224.406 672.676,224.69 673.684,224.761 674.693,224.615 675.701,224.247 676.709,223.668 677.718,222.878 678.726,221.876 679.735,220.667 680.743,219.258 681.752,217.655 682.76,215.865 683.769,213.893 684.777,211.745 685.786,209.431 686.794,206.962 687.802,204.346 688.811,201.593 689.819,198.717 690.828,195.728 691.836,192.639 692.845,189.463 693.853,186.211 694.862,182.895 695.87,179.527 696.878,176.121 697.887,172.691 698.895,169.25 699.904,165.81 700.912,162.384 701.921,158.986 702.929,155.628 703.938,152.323 704.946,149.077 705.955,145.908 706.963,142.825 707.971,139.84 708.98,136.96 709.988,134.196 710.997,131.556 712.005,129.051 713.014,126.691 714.022,124.475 715.031,122.415 716.039,120.518 717.048,118.786 718.056,117.223 719.064,115.833 720.073,114.619 721.081,113.585 722.09,112.734 723.098,112.066 724.107,111.577 725.115,111.271 726.124,111.144 727.132,111.193 728.14,111.416 729.149,111.809 730.157,112.371 731.166,113.096 732.174,113.983 733.183,115.023 734.191,116.209 735.2,117.536 736.208,118.995 737.217,120.58 738.225,122.282 739.233,124.094 740.242,126.007 741.25,128.015 742.259,130.108 743.267,132.278 744.276,134.514 745.284,136.808 746.293,139.151 747.301,141.532 748.31,143.943 749.318,146.374 750.326,148.816 751.335,151.259 752.343,153.696 753.352,156.12 754.36,158.521 755.369,160.891 756.377,163.223 757.386,165.508 758.394,167.739 759.402,169.909 760.411,172.009 761.419,174.032 762.428,175.979 763.436,177.842 764.445,179.615 765.453,181.295 766.462,182.877 767.47,184.36 768.479,185.738 769.487,187.008 770.495,188.167 771.504,189.211 772.512,190.147 773.521,190.97 774.529,191.679 775.538,192.276 776.546,192.762 777.555,193.138 778.563,193.405 779.572,193.563 780.58,193.615 781.588,193.561 782.597,193.409 783.605,193.161 784.614,192.82 785.622,192.39 786.631,191.877 787.639,191.284 788.648,190.617 789.656,189.88 790.664,189.078 791.673,188.215 792.681,187.298 793.69,186.333 794.698,185.326 795.707,184.282 796.715,183.208 797.724,182.11 798.732,180.994 799.741,179.865 800.749,178.731 801.757,177.596 802.766,176.466 803.774,175.346 804.783,174.244 805.791,173.163 806.8,172.11 807.808,171.09 808.817,170.108 809.825,169.17 810.834,168.281 811.842,167.446 812.85,166.665 813.859,165.944 814.867,165.286 815.876,164.696 816.884,164.176 817.893,163.728 818.901,163.355 819.91,163.06 820.918,162.847 821.926,162.717 822.935,162.671 823.943,162.705 824.952,162.824 825.96,163.026 826.969,163.312 827.977,163.681 828.986,164.132 829.994,164.665 831.003,165.278 832.011,165.972 833.019,166.745 834.028,167.59 835.036,168.508 836.045,169.495 837.053,170.547 838.062,171.662 839.07,172.835 840.079,174.064 841.087,175.344 842.096,176.671 843.104,178.043 844.112,179.454 845.121,180.899 846.129,182.375 847.138,183.875 848.146,185.395 849.155,186.931 850.163,188.477 851.172,190.028 852.18,191.579 853.188,193.125 854.197,194.663 855.205,196.189 856.214,197.696 857.222,199.181 858.231,200.639 859.239,202.066 860.248,203.458 861.256,204.81 862.265,206.119 863.273,207.38 864.281,208.588 865.29,209.746 866.298,210.849 867.307,211.892 868.315,212.875 869.324,213.795 870.332,214.651 871.341,215.441 872.349,216.163 873.358,216.816 874.366,217.397 875.374,217.906 876.383,218.349 877.391,218.721 878.4,219.023 879.408,219.257 880.417,219.423 881.425,219.524 882.434,219.561 883.442,219.534 884.45,219.446 885.459,219.297 886.467,219.091 887.476,218.832 888.484,218.522 889.493,218.165 890.501,217.763 891.51,217.321 892.518,216.842 893.527,216.33 894.535,215.788 895.543,215.22 896.552,214.63 897.56,214.021 898.569,213.398 899.577,212.766 900.586,212.128 901.594,211.489 902.603,210.852 903.611,210.223 904.62,209.604 905.628,209.001 906.636,208.417 907.645,207.857 908.653,207.321 909.662,206.814 910.67,206.339 911.679,205.9 912.687,205.499 913.696,205.139 914.704,204.822 915.712,204.551 916.721,204.328 917.729,204.157 918.738,204.04 919.746,203.976 920.755,203.963 921.763,204.006 922.772,204.104 923.78,204.258 924.789,204.466 925.797,204.729 926.805,205.047 927.814,205.419 928.822,205.846 929.831,206.327 930.839,206.86 931.848,207.44 932.856,208.068 933.865,208.742 934.873,209.459 935.882,210.215 936.89,211.009 937.898,211.837 938.907,212.698 939.915,213.588 940.924,214.504 941.932,215.444 942.941,216.403 943.949,217.379 944.958,218.368 945.966,219.366 946.974,220.37 947.983,221.375 948.991,222.379 950,223.378 951.008,224.367 952.017,225.345 953.025,226.306 954.034,227.251 955.042,228.175 956.051,229.075 957.059,229.949 958.067,230.793 959.076,231.605 960.084,232.383 961.093,233.124 962.101,233.827 963.11,234.487 964.118,235.104 965.127,235.674 966.135,236.204 967.144,236.687 968.152,237.123 969.16,237.512 970.169,237.854 971.177,238.149 972.186,238.397 973.194,238.599 974.203,238.753 975.211,238.861 976.22,238.921 977.228,238.936 978.236,238.911 979.245,238.844 980.253,238.737 981.262,238.593 982.27,238.413 983.279,238.2 984.287,237.957 985.296,237.685 986.304,237.387 987.313,237.066 988.321,236.722 989.329,236.36 990.338,235.983 991.346,235.592 992.355,235.192 993.363,234.785 994.372,234.375 995.38,233.963 996.389,233.554 997.397,233.151 998.406,232.755 999.414,232.371 1000.42,232.001 1001.43,231.647 1002.44,231.309 1003.45,230.992 1004.46,230.699 1005.46,230.431 1006.47,230.189 1007.48,229.976 1008.49,229.794 1009.5,229.644 1010.51,229.528 1011.52,229.448 1012.52,229.405 1013.53,229.403 1014.54,229.436 1015.55,229.507 1016.56,229.617 1017.57,229.766 1018.57,229.954 1019.58,230.18 1020.59,230.443 1021.6,230.744 1022.61,231.082 1023.62,231.457 1024.63,231.867 1025.63,232.313 1026.64,232.794 1027.65,233.304 1028.66,233.844 1029.67,234.413 1030.68,235.008 1031.68,235.628 1032.69,236.269 1033.7,236.93 1034.71,237.609 1035.72,238.303 1036.73,239.01 1037.74,239.728 1038.74,240.456 1039.75,241.189 1040.76,241.928 1041.77,242.668 1042.78,243.407 1043.79,244.142 1044.79,244.872 1045.8,245.594 1046.81,246.306 1047.82,247.005 1048.83,247.689 1049.84,248.355 1050.84,249.001 1051.85,249.625 1052.86,250.227 1053.87,250.806 1054.88,251.359 1055.89,251.885 1056.9,252.382 1057.9,252.849 1058.91,253.286 1059.92,253.691 1060.93,254.064 1061.94,254.403 1062.95,254.708 1063.95,254.978 1064.96,255.212 1065.97,255.408 1066.98,255.572 1067.99,255.702 1069,255.796 1070.01,255.857 1071.01,255.884 1072.02,255.88 1073.03,255.844 1074.04,255.777 1075.05,255.682 1076.06,255.558 1077.06,255.406 1078.07,255.229 1079.08,255.025 1080.09,254.797 1081.1,254.549 1082.11,254.28 1083.12,253.994 1084.12,253.69 1085.13,253.372 1086.14,253.042 1087.15,252.701 1088.16,252.352 1089.17,251.995 1090.17,251.634 1091.18,251.271 1092.19,250.906 1093.2,250.543 1094.21,250.181 1095.22,249.823 1096.23,249.471 1097.23,249.127 1098.24,248.792 1099.25,248.468 1100.26,248.157 1101.27,247.859 1102.28,247.577 1103.28,247.312 1104.29,247.064 1105.3,246.837 1106.31,246.63 1107.32,246.447 1108.33,246.287 1109.34,246.146 1110.34,246.03 1111.35,245.938 1112.36,245.87 1113.37,245.827 1114.38,245.808 1115.39,245.814 1116.39,245.845 1117.4,245.9 1118.41,245.98 1119.42,246.085 1120.43,246.214 1121.44,246.368 1122.45,246.546 1123.45,246.747 1124.46,246.968 1125.47,247.21 1126.48,247.473 1127.49,247.755 1128.5,248.055 1129.5,248.371 1130.51,248.702 1131.52,249.048 1132.53,249.406 1133.54,249.776 1134.55,250.157 1135.55,250.547 1136.56,250.944 1137.57,251.349 1138.58,251.76 1139.59,252.174 1140.6,252.59 1141.61,253.007 1142.61,253.424 1143.62,253.839 1144.63,254.251 1145.64,254.659 1146.65,255.06 1147.66,255.454 1148.66,255.839 1149.67,256.215 1150.68,256.579 1151.69,256.93 1152.7,257.269 1153.71,257.596 1154.72,257.908 1155.72,258.204 1156.73,258.484 1157.74,258.748 1158.75,258.994 1159.76,259.223 1160.77,259.434 1161.77,259.627 1162.78,259.801 1163.79,259.955 1164.8,260.09 1165.81,260.205 1166.82,260.299 1167.83,260.372 1168.83,260.427 1169.84,260.464 1170.85,260.482 1171.86,260.481 1172.87,260.462 1173.88,260.426 1174.88,260.373 1175.89,260.305 1176.9,260.221 1177.91,260.122 1178.92,260.01 1179.93,259.885 1180.94,259.746 1181.94,259.596 1182.95,259.435 1183.96,259.264 1184.97,259.083 1185.98,258.895 1186.99,258.7 1187.99,258.499 1189,258.293 1190.01,258.083 1191.02,257.871 1192.03,257.657 1193.04,257.442 1194.05,257.227 1195.05,257.014 1196.06,256.803 1197.07,256.596 1198.08,256.393 1199.09,256.195 1200.1,256.003 1201.1,255.815 1202.11,255.635 1203.12,255.464 1204.13,255.3 1205.14,255.146 1206.15,255.001 1207.15,254.866 1208.16,254.741 1209.17,254.628 1210.18,254.525 1211.19,254.434 1212.2,254.355 1213.21,254.288 1214.21,254.235 1215.22,254.195 1216.23,254.169 1217.24,254.152 1218.25,254.148 1219.26,254.157 1220.26,254.178 1221.27,254.21 1222.28,254.254 1223.29,254.309 1224.3,254.374 1225.31,254.449 1226.32,254.534 1227.32,254.628 1228.33,254.73 1229.34,254.841 1230.35,254.96 1231.36,255.086 1232.37,255.219 1233.37,255.359 1234.38,255.503 1235.39,255.653 1236.4,255.806 1237.41,255.963 1238.42,256.122 1239.43,256.283 1240.43,256.445 1241.44,256.608 1242.45,256.77 1243.46,256.932 1244.47,257.092 1245.48,257.25 1246.48,257.405 1247.49,257.556 1248.5,257.703 1249.51,257.845 1250.52,257.982 1251.53,258.115 1252.54,258.242 1253.54,258.363 1254.55,258.477 1255.56,258.584 1256.57,258.684 1257.58,258.776 1258.59,258.862 1259.59,258.939 1260.6,259.009 1261.61,259.071 1262.62,259.124 1263.63,259.17 1264.64,259.206 1265.65,259.234 1266.65,259.253 1267.66,259.263 1268.67,259.267 1269.68,259.263 1270.69,259.251 1271.7,259.231 1272.7,259.205 1273.71,259.172 1274.72,259.133 1275.73,259.088 1276.74,259.038 1277.75,258.982 1278.76,258.922 1279.76,258.858 1280.77,258.79 1281.78,258.719 1282.79,258.645 1283.8,258.568 1284.81,258.489 1285.81,258.408 1286.82,258.325 1287.83,258.242 1288.84,258.159 1289.85,258.076 1290.86,257.993 1291.86,257.912 1292.87,257.832 1293.88,257.754 1294.89,257.678 1295.9,257.604 1296.91,257.534 1297.92,257.467 1298.92,257.403 1299.93,257.344 1300.94,257.289 1301.95,257.239 1302.96,257.195 1303.97,257.156 1304.97,257.12 1305.98,257.089 1306.99,257.064 1308,257.044 1309.01,257.03 1310.02,257.021 1311.03,257.017 1312.03,257.018 1313.04,257.023 1314.05,257.034 1315.06,257.049 1316.07,257.069 1317.08,257.093 1318.08,257.122 1319.09,257.155 1320.1,257.192 1321.11,257.233 1322.12,257.277 1323.13,257.326 1324.14,257.377 1325.14,257.43 1326.15,257.486 1327.16,257.544 1328.17,257.603 1329.18,257.664 1330.19,257.726 1331.19,257.788 1332.2,257.851 1333.21,257.913 1334.22,257.974 1335.23,258.035 1336.24,258.095 1337.25,258.153 1338.25,258.209 1339.26,258.263 1340.27,258.314 1341.28,258.362 1342.29,258.406 1343.3,258.45 1344.3,258.49 1345.31,258.525 1346.32,258.557 1347.33,258.584 1348.34,258.608 1349.35,258.627 1350.36,258.642 1351.36,258.653 1352.37,258.659 1353.38,258.661 1354.39,258.658 1355.4,258.651 1356.41,258.639 1357.41,258.623 1358.42,258.602 1359.43,258.576 1360.44,258.545 1361.45,258.509 1362.46,258.469 1363.46,258.425 1364.47,258.377 1365.48,258.325 1366.49,258.27 1367.5,258.211 1368.51,258.149 1369.52,258.084 1370.52,258.016 1371.53,257.946 1372.54,257.874 1373.55,257.8 1374.56,257.724 1375.57,257.647 1376.57,257.569 1377.58,257.491 1378.59,257.412 1379.6,257.332 1380.61,257.253 1381.62,257.174 1382.63,257.096 1383.63,257.019 1384.64,256.941 1385.65,256.865 1386.66,256.79 1387.67,256.718 1388.68,256.648 1389.68,256.58 1390.69,256.514 1391.7,256.45 1392.71,256.39 1393.72,256.332 1394.73,256.276 1395.74,256.224 1396.74,256.175 1397.75,256.13 1398.76,256.088 1399.77,256.049 1400.78,256.014 1401.79,255.983 1402.79,255.956 1403.8,255.933 1404.81,255.914 1405.82,255.9 1406.83,255.888 1407.84,255.88 1408.85,255.875 1409.85,255.874 1410.86,255.877 1411.87,255.883 1412.88,255.891 1413.89,255.903 1414.9,255.918 1415.9,255.935 1416.91,255.955 1417.92,255.977 1418.93,256.001 1419.94,256.027 1420.95,256.055 1421.96,256.084 1422.96,256.114 1423.97,256.146 1424.98,256.179 1425.99,256.213 1427,256.247 1428.01,256.282 1429.01,256.318 1430.02,256.354 1431.03,256.389 1432.04,256.424 1433.05,256.459 1434.06,256.493 1435.07,256.525 1436.07,256.557 1437.08,256.587 1438.09,256.616 1439.1,256.644 1440.11,256.669 1441.12,256.693 1442.12,256.715 1443.13,256.735 1444.14,256.753 1445.15,256.768 1446.16,256.781 1447.17,256.791 1448.17,256.798 1449.18,256.802 1450.19,256.803 1451.2,256.8 1452.21,256.794 1453.22,256.786 1454.23,256.776 1455.23,256.762 1456.24,256.746 1457.25,256.726 1458.26,256.704 1459.27,256.678 1460.28,256.65 1461.28,256.619 1462.29,256.585 1463.3,256.55 1464.31,256.511 1465.32,256.471 1466.33,256.428 1467.34,256.383 1468.34,256.336 1469.35,256.287 1470.36,256.237 1471.37,256.185 1472.38,256.131 1473.39,256.076 1474.39,256.019 1475.4,255.961 1476.41,255.902 1477.42,255.841 1478.43,255.78 1479.44,255.718 1480.45,255.656 1481.45,255.594 1482.46,255.531 1483.47,255.469 1484.48,255.406 1485.49,255.344 1486.5,255.282 1487.5,255.221 1488.51,255.16 1489.52,255.1 1490.53,255.041 1491.54,254.982 1492.55,254.925 1493.56,254.87 1494.56,254.815 1495.57,254.762 1496.58,254.711 1497.59,254.662 1498.6,254.614 1499.61,254.568 1500.61,254.525 1501.62,254.484 1502.63,254.445 1503.64,254.408 1504.65,254.372 1505.66,254.339 1506.67,254.308 1507.67,254.279 1508.68,254.252 1509.69,254.228 1510.7,254.206 1511.71,254.186 1512.72,254.168 1513.72,254.152 1514.73,254.139 1515.74,254.127 1516.75,254.118 1517.76,254.11 1518.77,254.105 1519.77,254.101 1520.78,254.099 1521.79,254.099 1522.8,254.1 1523.81,254.104 1524.82,254.109 1525.83,254.116 1526.83,254.124 1527.84,254.134 1528.85,254.145 1529.86,254.158 1530.87,254.172 1531.88,254.188 1532.88,254.204 1533.89,254.221 1534.9,254.239 1535.91,254.257 1536.92,254.276 1537.93,254.296 1538.94,254.316 1539.94,254.337 1540.95,254.358 1541.96,254.379 1542.97,254.4 1543.98,254.421 1544.99,254.442 1545.99,254.463 1547,254.484 1548.01,254.504 1549.02,254.524 1550.03,254.544 1551.04,254.562 1552.05,254.581 1553.05,254.598 1554.06,254.614 1555.07,254.63 1556.08,254.644 1557.09,254.657 1558.1,254.67 1559.1,254.682 1560.11,254.693 1561.12,254.703 1562.13,254.711 1563.14,254.718 1564.15,254.724 1565.16,254.729 1566.16,254.732 1567.17,254.735 1568.18,254.736 1569.19,254.735 1570.2,254.734 1571.21,254.731 1572.21,254.727 1573.22,254.722 1574.23,254.715 1575.24,254.707 1576.25,254.698 1577.26,254.688 1578.27,254.676 1579.27,254.663 1580.28,254.649 1581.29,254.634 1582.3,254.617 1583.31,254.599 1584.32,254.579 1585.32,254.559 1586.33,254.537 1587.34,254.515 1588.35,254.492 1589.36,254.467 1590.37,254.442 1591.38,254.416 1592.38,254.389 1593.39,254.361 1594.4,254.333 1595.41,254.304 1596.42,254.274 1597.43,254.244 1598.43,254.213 1599.44,254.181 1600.45,254.15 1601.46,254.118 1602.47,254.085 1603.48,254.053 1604.48,254.02 1605.49,253.987 1606.5,253.954 1607.51,253.92 1608.52,253.887 1609.53,253.854 1610.54,253.821 1611.54,253.788 1612.55,253.756 1613.56,253.723 1614.57,253.691 1615.58,253.659 1616.59,253.627 1617.59,253.595 1618.6,253.564 1619.61,253.534 1620.62,253.504 1621.63,253.474 1622.64,253.445 1623.65,253.417 1624.65,253.389 1625.66,253.362 1626.67,253.336 1627.68,253.31 1628.69,253.285 1629.7,253.261 1630.7,253.237 1631.71,253.215 1632.72,253.193 1633.73,253.172 1634.74,253.152 1635.75,253.133 1636.76,253.114 1637.76,253.097 1638.77,253.081 1639.78,253.066 1640.79,253.051 1641.8,253.038 1642.81,253.026 1643.81,253.015 1644.82,253.005 1645.83,252.996 1646.84,252.987 1647.85,252.98 1648.86,252.973 1649.87,252.968 1650.87,252.963 1651.88,252.959 1652.89,252.957 1653.9,252.955 1654.91,252.954 1655.92,252.954 1656.92,252.954 1657.93,252.955 1658.94,252.957 1659.95,252.96 1660.96,252.963 1661.97,252.967 1662.98,252.972 1663.98,252.977 1664.99,252.983 1666,252.989 1667.01,252.996 1668.02,253.003 1669.03,253.01 1670.03,253.018 1671.04,253.027 1672.05,253.035 1673.06,253.044 1674.07,253.054 1675.08,253.063 1676.08,253.073 1677.09,253.083 1678.1,253.093 1679.11,253.103 1680.12,253.113 1681.13,253.123 1682.14,253.133 1683.14,253.143 1684.15,253.152 1685.16,253.162 1686.17,253.171 1687.18,253.18 1688.19,253.188 1689.19,253.197 1690.2,253.205 1691.21,253.212 1692.22,253.22 1693.23,253.226 1694.24,253.233 1695.25,253.239 1696.25,253.244 1697.26,253.249 1698.27,253.253 1699.28,253.257 1700.29,253.26 1701.3,253.262 1702.3,253.264 1703.31,253.265 1704.32,253.265 1705.33,253.265 1706.34,253.263 1707.35,253.262 1708.36,253.26 1709.36,253.257 1710.37,253.254 1711.38,253.249 1712.39,253.245 1713.4,253.239 1714.41,253.233 1715.41,253.227 1716.42,253.22 1717.43,253.212 1718.44,253.204 1719.45,253.196 1720.46,253.187 1721.47,253.178 1722.47,253.168 1723.48,253.158 1724.49,253.148 1725.5,253.137 1726.51,253.126 1727.52,253.115 1728.52,253.104 1729.53,253.093 1730.54,253.081 1731.55,253.07 1732.56,253.058 1733.57,253.047 1734.58,253.035 1735.58,253.023 1736.59,253.011 1737.6,253 1738.61,252.988 1739.62,252.977 1740.63,252.965 1741.63,252.954 1742.64,252.942 1743.65,252.932 1744.66,252.921 1745.67,252.911 1746.68,252.901 1747.68,252.891 1748.69,252.882 1749.7,252.873 1750.71,252.864 1751.72,252.856 1752.73,252.848 1753.74,252.84 1754.74,252.833 1755.75,252.826 1756.76,252.819 1757.77,252.813 1758.78,252.807 1759.79,252.801 1760.79,252.796 1761.8,252.791 1762.81,252.787 1763.82,252.783 1764.83,252.779 1765.84,252.775 1766.85,252.772 1767.85,252.77 1768.86,252.767 1769.87,252.765 1770.88,252.764 1771.89,252.763 1772.9,252.762 1773.9,252.761 1774.91,252.761 1775.92,252.761 1776.93,252.76 1777.94,252.76 1778.95,252.76 1779.96,252.761 1780.96,252.761 1781.97,252.761 1782.98,252.762 1783.99,252.763 1785,252.763 1786.01,252.764 1787.01,252.765 1788.02,252.765 1789.03,252.766 1790.04,252.767 1791.05,252.768 1792.06,252.769 1793.07,252.77 1794.07,252.77 1795.08,252.771 1796.09,252.772 1797.1,252.772 1798.11,252.773 1799.12,252.773 1800.12,252.774 1801.13,252.774 1802.14,252.774 1803.15,252.774 1804.16,252.774 1805.17,252.774 1806.18,252.773 1807.18,252.773 1808.19,252.773 1809.2,252.772 1810.21,252.772 1811.22,252.772 1812.23,252.772 1813.23,252.771 1814.24,252.771 1815.25,252.771 1816.26,252.771 1817.27,252.771 1818.28,252.771 1819.29,252.772 1820.29,252.772 1821.3,252.773 1822.31,252.773 1823.32,252.774 1824.33,252.775 1825.34,252.777 1826.34,252.778 1827.35,252.78 1828.36,252.782 1829.37,252.784 1830.38,252.786 1831.39,252.789 1832.39,252.792 1833.4,252.795 1834.41,252.799 1835.42,252.803 1836.43,252.807 1837.44,252.812 1838.45,252.817 1839.45,252.822 1840.46,252.828 1841.47,252.834 1842.48,252.84 1843.49,252.846 1844.5,252.853 1845.5,252.859 1846.51,252.867 1847.52,252.874 1848.53,252.882 1849.54,252.89 1850.55,252.898 1851.56,252.906 1852.56,252.914 1853.57,252.922 1854.58,252.931 1855.59,252.939 1856.6,252.948 1857.61,252.956 1858.61,252.965 1859.62,252.973 1860.63,252.981 1861.64,252.989 1862.65,252.997 1863.66,253.005 1864.67,253.012 1865.67,253.019 1866.68,253.026 1867.69,253.033 1868.7,253.039 1869.71,253.045 1870.72,253.051 1871.72,253.056 1872.73,253.061 1873.74,253.065 1874.75,253.069 1875.76,253.072 1876.77,253.076 1877.78,253.079 1878.78,253.082 1879.79,253.083 1880.8,253.084 1881.81,253.085 1882.82,253.085 1883.83,253.084 1884.83,253.083 1885.84,253.081 1886.85,253.079 1887.86,253.076 1888.87,253.072 1889.88,253.068 1890.89,253.064 1891.89,253.059 1892.9,253.054 1893.91,253.049 1894.92,253.043 1895.93,253.037 1896.94,253.03 1897.94,253.023 1898.95,253.016 1899.96,253.009 1900.97,253.001 1901.98,252.993 1902.99,252.985 1903.99,252.977 1905,252.968 1906.01,252.96 1907.02,252.951 1908.03,252.942 1909.04,252.933 1910.05,252.924 1911.05,252.915 1912.06,252.906 1913.07,252.897 1914.08,252.887 1915.09,252.878 1916.1,252.869 1917.1,252.861 1918.11,252.853 1919.12,252.846 1920.13,252.838 1921.14,252.832 1922.15,252.825 1923.16,252.819 1924.16,252.814 1925.17,252.809 1926.18,252.805 1927.19,252.801 1928.2,252.797 1929.21,252.794 1930.21,252.792 1931.22,252.79 1932.23,252.788 1933.24,252.788 1934.25,252.787 1935.26,252.788 1936.27,252.788 1937.27,252.79 1938.28,252.792 1939.29,252.795 1940.3,252.798 1941.31,252.802 1942.32,252.807 1943.32,252.812 1944.33,252.818 1945.34,252.825 1946.35,252.833 1947.36,252.841 1948.37,252.85 1949.38,252.859 1950.38,252.869 1951.39,252.879 1952.4,252.89 1953.41,252.901 1954.42,252.912 1955.43,252.924 1956.43,252.936 1957.44,252.948 1958.45,252.96 1959.46,252.973 1960.47,252.985 1961.48,252.998 1962.49,253.011 1963.49,253.024 1964.5,253.037 1965.51,253.049 1966.52,253.062 1967.53,253.075 1968.54,253.087 1969.54,253.1 1970.55,253.112 1971.56,253.124 1972.57,253.135 1973.58,253.147 1974.59,253.158 1975.6,253.168 1976.6,253.178 1977.61,253.188 1978.62,253.198 1979.63,253.207 1980.64,253.215 1981.65,253.223 1982.65,253.23 1983.66,253.236 1984.67,253.242 1985.68,253.248 1986.69,253.252 1987.7,253.256 1988.7,253.259 1989.71,253.261 1990.72,253.262 1991.73,253.264 1992.74,253.265 1993.75,253.266 1994.76,253.265 1995.76,253.265 1996.77,253.263 1997.78,253.261 1998.79,253.258 1999.8,253.255 2000.81,253.251 2001.81,253.247 2002.82,253.242 2003.83,253.237 2004.84,253.231 2005.85,253.225 2006.86,253.219 2007.87,253.213 2008.87,253.206 2009.88,253.199 2010.89,253.192 2011.9,253.184 2012.91,253.177 2013.92,253.169 2014.92,253.161 2015.93,253.154 2016.94,253.146 2017.95,253.138 2018.96,253.13 2019.97,253.123 2020.98,253.115 2021.98,253.108 2022.99,253.101 2024,253.094 2025.01,253.087 2026.02,253.081 2027.03,253.075 2028.03,253.069 2029.04,253.064 2030.05,253.059 2031.06,253.054 2032.07,253.05 2033.08,253.047 2034.09,253.043 2035.09,253.039 2036.1,253.035 2037.11,253.033 2038.12,253.031 2039.13,253.029 2040.14,253.028 2041.14,253.028 2042.15,253.028 2043.16,253.029 2044.17,253.03 2045.18,253.032 2046.19,253.034 2047.2,253.037 2048.2,253.04 2049.21,253.044 2050.22,253.048 2051.23,253.052 2052.24,253.057 2053.25,253.062 2054.25,253.067 2055.26,253.073 2056.27,253.079 2057.28,253.085 2058.29,253.092 2059.3,253.099 2060.3,253.106 2061.31,253.113 2062.32,253.12 2063.33,253.128 2064.34,253.135 2065.35,253.143 2066.36,253.151 2067.36,253.159 2068.37,253.167 2069.38,253.175 2070.39,253.183 2071.4,253.191 2072.41,253.199 2073.41,253.207 2074.42,253.215 2075.43,253.223 2076.44,253.23 2077.45,253.238 2078.46,253.247 2079.47,253.255 2080.47,253.263 2081.48,253.27 2082.49,253.277 2083.5,253.284 2084.51,253.29 2085.52,253.296 2086.52,253.301 2087.53,253.306 2088.54,253.311 2089.55,253.316 2090.56,253.32 2091.57,253.323 2092.58,253.327 2093.58,253.33 2094.59,253.333 2095.6,253.335 2096.61,253.338 2097.62,253.339 2098.63,253.341 2099.63,253.342 2100.64,253.343 2101.65,253.344 2102.66,253.345 2103.67,253.345 2104.68,253.345 2105.69,253.345 2106.69,253.345 2107.7,253.344 2108.71,253.343 2109.72,253.342 2110.73,253.341 2111.74,253.339 2112.74,253.337 2113.75,253.335 2114.76,253.333 2115.77,253.331 2116.78,253.329 2117.79,253.326 2118.8,253.323 2119.8,253.32 2120.81,253.317 2121.82,253.314 2122.83,253.311 2123.84,253.307 2124.85,253.303 2125.85,253.299 2126.86,253.296 2127.87,253.293 2128.88,253.289 2129.89,253.286 2130.9,253.283 2131.91,253.281 2132.91,253.278 2133.92,253.276 2134.93,253.273 2135.94,253.271 2136.95,253.269 2137.96,253.267 2138.96,253.266 2139.97,253.264 2140.98,253.263 2141.99,253.262 2143,253.261 2144.01,253.26 2145.01,253.259 2146.02,253.258 2147.03,253.258 2148.04,253.257 2149.05,253.257 2150.06,253.257 2151.07,253.257 2152.07,253.257 2153.08,253.258 2154.09,253.258 2155.1,253.259 2156.11,253.26 2157.12,253.26 2158.12,253.261 2159.13,253.263 2160.14,253.264 2161.15,253.265 2162.16,253.267 2163.17,253.268 2164.18,253.27 2165.18,253.272 2166.19,253.274 2167.2,253.276 2168.21,253.279 2169.22,253.281 2170.23,253.284 2171.23,253.287 2172.24,253.289 2173.25,253.292 2174.26,253.294 2175.27,253.296 2176.28,253.298 2177.29,253.3 2178.29,253.302 2179.3,253.304 2180.31,253.305 2181.32,253.307 2182.33,253.308 2183.34,253.31 2184.34,253.311 2185.35,253.312 2186.36,253.313 2187.37,253.314 2188.38,253.315 2189.39,253.316 2190.4,253.317 2191.4,253.317 2192.41,253.318 2193.42,253.318 2194.43,253.319 2195.44,253.319 2196.45,253.319 2197.45,253.319 2198.46,253.319 2199.47,253.319 2200.48,253.319 2201.49,253.319 2202.5,253.319 2203.51,253.319 2204.51,253.318 2205.52,253.318 2206.53,253.317 2207.54,253.317 2208.55,253.316 2209.56,253.316 2210.56,253.315 2211.57,253.314 2212.58,253.314 2213.59,253.313 2214.6,253.312 2215.61,253.311 2216.61,253.31 2217.62,253.309 2218.63,253.308 2219.64,253.307 2220.65,253.306 2221.66,253.305 2222.67,253.304 2223.67,253.304 2224.68,253.303 2225.69,253.303 2226.7,253.303 2227.71,253.304 2228.72,253.304 2229.72,253.304 2230.73,253.305 2231.74,253.306 2232.75,253.306 2233.76,253.307 2234.77,253.309 2235.78,253.31 2236.78,253.311 2237.79,253.313 2238.8,253.314 2239.81,253.316 2240.82,253.317 2241.83,253.319 2242.83,253.321 2243.84,253.323 2244.85,253.325 2245.86,253.327 2246.87,253.329 2247.88,253.332 2248.89,253.334 2249.89,253.336 2250.9,253.339 2251.91,253.341 2252.92,253.343 2253.93,253.346 2254.94,253.348 2255.94,253.351 2256.95,253.353 2257.96,253.356 2258.97,253.359 2259.98,253.361 2260.99,253.364 2262,253.366 2263,253.369 2264.01,253.371 2265.02,253.374 2266.03,253.376 2267.04,253.379 2268.05,253.381 2269.05,253.384 2270.06,253.386 2271.07,253.389 2272.08,253.391 2273.09,253.393 2274.1,253.395 2275.11,253.397 2276.11,253.399 2277.12,253.4 2278.13,253.402 2279.14,253.403 2280.15,253.404 2281.16,253.405 2282.16,253.405 2283.17,253.406 2284.18,253.406 2285.19,253.406 2286.2,253.406 2287.21,253.405 2288.22,253.404 2289.22,253.404 2290.23,253.402 2291.24,253.401 2292.25,253.399 "/>
<polyline clip-path="url(#clip681)" style="stroke:#e26f46; stroke-linecap:round; stroke-linejoin:round; stroke-width:4; stroke-opacity:1; fill:none" points="275.346,87.9763 275.447,87.9763 275.547,87.9763 275.749,87.9763 276.153,87.9763 276.959,87.9763 277.968,87.9763 278.976,87.9763 279.985,87.9763 280.993,87.9763 282.002,87.9763 283.01,87.9763 284.018,87.9763 285.027,87.9763 286.035,87.9763 287.044,87.9763 288.052,87.9763 289.061,87.9763 290.069,87.9763 291.078,87.9763 292.086,87.9763 293.095,87.9763 294.103,87.9763 295.111,87.9763 296.12,87.9763 297.128,87.9763 298.137,87.9763 299.145,87.9763 300.154,87.9763 301.162,87.9763 302.171,87.9763 303.179,87.9763 304.187,87.9763 305.196,87.9763 306.204,87.9763 307.213,87.9763 308.221,87.9763 309.23,87.9763 310.238,87.9763 311.247,87.9763 312.255,87.9763 313.264,87.9763 314.272,87.9763 315.28,87.9763 316.289,87.9763 317.297,87.9763 318.306,87.9763 319.314,87.9763 320.323,87.9763 321.331,87.9763 322.34,87.9763 323.348,87.9763 324.356,87.9763 325.365,87.9763 326.373,87.9763 327.382,87.9763 328.39,87.9763 329.399,87.9763 330.407,87.9763 331.416,87.9763 332.424,87.9763 333.433,87.9763 334.441,87.9763 335.449,87.9763 336.458,87.9763 337.466,87.9763 338.475,87.9763 339.483,87.9763 340.492,87.9763 341.5,87.9763 342.509,87.9763 343.517,87.9763 344.526,87.9763 345.534,87.9763 346.542,87.9763 347.551,87.9763 348.559,87.9763 349.568,87.9763 350.576,87.9763 351.585,87.9763 352.593,87.9763 353.602,87.9763 354.61,87.9763 355.618,87.9763 356.627,87.9763 357.635,87.9763 358.644,87.9763 359.652,87.9763 360.661,87.9763 361.669,87.9763 362.678,87.9763 363.686,87.9763 364.695,87.9763 365.703,87.9763 366.711,87.9763 367.72,87.9763 368.728,87.9763 369.737,87.9763 370.745,87.9763 371.754,87.9763 372.762,87.9763 373.771,87.9763 374.779,87.9763 375.788,87.9763 376.191,87.9763 376.204,776.461 376.207,776.683 376.209,776.844 376.214,777.166 376.223,777.808 376.241,779.086 376.278,781.616 376.351,786.575 376.498,796.101 376.644,805.252 376.791,814.041 377.084,830.814 377.377,846.373 377.963,874.002 378.55,897.471 379.136,917.338 379.722,934.11 380.309,948.156 380.895,959.9 381.904,975.65 382.912,987.192 383.92,995.226 384.929,1000.42 385.937,1003.33 386.946,1004.32 387.954,1003.81 388.963,1002.09 389.971,999.386 390.98,995.864 391.988,991.659 392.996,986.864 394.005,981.559 395.013,975.82 396.022,969.714 397.03,963.3 398.039,956.626 399.047,949.735 400.056,942.672 401.064,935.475 402.073,928.17 403.081,920.789 404.089,913.373 405.098,905.94 406.106,898.485 407.115,891.065 408.123,883.761 409.132,876.479 410.14,869.126 411.149,862.034 412.157,855.256 413.166,848.297 414.174,841.281 415.182,834.921 416.191,828.811 417.199,822.235 418.208,815.927 419.216,810.195 420.225,804.48 421.233,798.739 422.242,793.344 423.25,788.316 424.258,783.159 425.267,778.04 426.275,773.624 427.284,769.423 428.292,764.625 429.301,760.238 430.309,756.887 431.318,753.225 432.326,748.754 433.335,745.537 434.343,742.749 435.351,739.037 436.36,735.901 437.368,734.093 438.377,731.567 439.385,728.576 440.394,726.62 441.402,724.944 442.411,721.974 443.419,719.559 444.428,719.361 445.436,717.133 446.444,714.911 447.453,714.328 448.461,713.477 449.47,711.847 450.478,710.821 451.487,710.26 452.495,709.257 453.504,708.311 454.512,708.345 455.52,708.148 456.529,706.755 457.537,706.806 458.546,706.964 459.554,706.203 460.563,705.733 461.571,705.846 462.58,705.646 463.588,705.221 464.597,705.128 465.605,705.015 466.613,704.291 467.622,703.729 468.63,703.898 469.639,703.087 470.647,702.154 471.656,701.735 472.664,701.023 473.673,699.817 474.681,698.678 475.69,697.524 476.698,695.977 477.706,694.253 478.715,692.712 479.723,690.826 480.732,688.223 481.74,685.998 482.749,683.57 483.757,680.512 484.766,677.34 485.774,674.171 486.782,670.626 487.791,666.619 488.799,662.674 489.808,658.49 490.816,653.767 491.825,649.002 492.833,644.37 493.842,639.022 494.85,633.419 495.859,627.757 496.867,621.844 497.875,615.641 498.884,609.288 499.892,602.813 500.901,596.036 501.909,589.009 502.918,582.009 503.926,574.886 504.935,567.319 505.943,559.76 506.952,552.252 507.96,544.501 508.968,536.592 509.977,528.72 510.985,520.805 511.994,512.733 513.002,504.694 514.011,496.813 515.019,488.8 516.028,480.625 517.036,472.78 518.044,465.008 519.053,457.187 520.061,449.502 521.07,442.007 522.078,434.605 523.087,427.329 524.095,420.282 525.104,413.432 526.112,406.7 527.121,400.216 528.129,394.094 529.137,388.14 530.146,382.294 531.154,376.901 532.163,371.85 533.171,366.951 534.18,362.35 535.188,358.143 536.197,354.224 537.205,350.531 538.214,347.24 539.222,344.369 540.23,341.651 541.239,339.257 542.247,337.33 543.256,335.558 544.264,334.032 545.273,332.929 546.281,332.117 547.29,331.496 548.298,331.155 549.306,331.144 550.315,331.29 551.323,331.558 552.332,332.173 553.34,332.971 554.349,333.793 555.357,334.929 556.366,336.176 557.374,337.406 558.383,338.761 559.391,340.247 560.399,341.731 561.408,343.174 562.416,344.711 563.425,346.222 564.433,347.603 565.442,348.994 566.45,350.413 567.459,351.578 568.467,352.626 569.475,353.591 570.484,354.391 571.492,355.002 572.501,355.45 573.509,355.724 574.518,355.752 575.526,355.543 576.535,355.166 577.543,354.553 578.552,353.602 579.56,352.426 580.568,351.096 581.577,349.448 582.585,347.419 583.594,345.257 584.602,342.865 585.611,340.082 586.619,337.093 587.628,333.992 588.636,330.54 589.645,326.775 590.653,322.888 591.661,318.797 592.67,314.326 593.678,309.708 594.687,305.115 595.695,300.247 596.704,295.087 597.712,289.908 598.721,284.7 599.729,279.162 600.737,273.494 601.746,268.061 602.754,262.506 603.763,256.728 604.771,251.027 605.78,245.423 606.788,239.755 607.797,234.049 608.805,228.56 609.814,223.112 610.822,217.619 611.83,212.397 612.839,207.468 613.847,202.359 614.856,197.448 615.864,192.93 616.873,188.527 617.881,184.218 618.89,180.214 619.898,176.548 620.907,172.959 621.915,169.64 622.923,166.742 623.932,163.974 624.94,161.291 625.949,159.223 626.957,157.413 627.966,155.666 628.974,154.283 629.983,153.305 630.991,152.524 631.999,151.913 633.008,151.746 634.016,151.834 635.025,152.021 636.033,152.597 637.042,153.615 638.05,154.527 639.059,155.684 640.067,157.277 641.076,158.99 642.084,160.765 643.092,162.797 644.101,165.027 645.109,167.309 646.118,169.733 647.126,172.399 648.135,175.075 649.143,177.647 650.152,180.513 651.16,183.414 652.169,186.177 653.177,188.997 654.185,191.897 655.194,194.711 656.202,197.447 657.211,200.183 658.219,202.838 659.228,205.307 660.236,207.718 661.245,210.141 662.253,212.271 663.261,214.258 664.27,216.199 665.278,217.941 666.287,219.446 667.295,220.806 668.304,221.998 669.312,222.951 670.321,223.702 671.329,224.312 672.338,224.68 673.346,224.744 674.354,224.701 675.363,224.444 676.371,223.898 677.38,223.16 678.388,222.255 679.397,221.116 680.405,219.734 681.414,218.211 682.422,216.496 683.431,214.542 684.439,212.449 685.447,210.256 686.456,207.815 687.464,205.2 688.473,202.512 689.481,199.695 690.49,196.721 691.498,193.655 692.507,190.537 693.515,187.299 694.523,183.947 695.532,180.619 696.54,177.29 697.549,173.804 698.557,170.356 699.566,166.948 700.574,163.503 701.583,160.07 702.591,156.71 703.6,153.394 704.608,150.101 705.616,146.905 706.625,143.838 707.633,140.807 708.642,137.83 709.65,135.066 710.659,132.463 711.667,129.856 712.676,127.398 713.684,125.177 714.693,123.081 715.701,121.096 716.709,119.309 717.718,117.734 718.726,116.267 719.735,114.937 720.743,113.9 721.752,113.06 722.76,112.227 723.769,111.615 724.777,111.387 725.785,111.24 726.794,111.131 727.802,111.311 728.811,111.769 729.819,112.179 730.828,112.692 731.836,113.658 732.845,114.677 733.853,115.762 734.862,117.073 735.87,118.532 736.878,120.052 737.887,121.699 738.895,123.527 739.904,125.411 740.912,127.307 741.921,129.398 742.929,131.656 743.938,133.796 744.946,136.042 745.955,138.413 746.963,140.776 747.971,143.146 748.98,145.582 749.988,148.04 750.997,150.456 752.005,152.889 753.014,155.374 754.022,157.783 755.031,160.085 756.039,162.459 757.047,164.863 758.056,167.05 759.064,169.173 760.073,171.345 761.081,173.422 762.09,175.356 763.098,177.243 764.107,179.103 765.115,180.791 766.124,182.322 767.132,183.895 768.14,185.404 769.149,186.583 770.157,187.785 771.166,188.97 772.174,189.838 773.183,190.699 774.191,191.633 775.2,192.165 776.208,192.403 777.217,193.033 778.225,193.657 779.233,193.558 780.242,193.592 781.25,193.691 782.259,193.501 783.267,193.193 784.276,192.94 785.284,192.577 786.293,191.978 787.301,191.415 788.309,190.857 789.318,190.098 790.326,189.243 791.335,188.529 792.343,187.713 793.352,186.592 794.36,185.544 795.369,184.641 796.377,183.568 797.386,182.324 798.394,181.328 799.402,180.417 800.411,179.122 801.419,177.94 802.428,176.872 803.436,175.715 804.445,174.552 805.453,173.492 806.462,172.454 807.47,171.397 808.479,170.395 809.487,169.484 810.495,168.567 811.504,167.647 812.512,166.881 813.521,166.221 814.529,165.462 815.538,164.76 816.546,164.312 817.555,163.893 818.563,163.433 819.571,163.105 820.58,162.912 821.588,162.747 822.597,162.616 823.605,162.661 824.614,162.823 825.622,162.918 826.631,163.102 827.639,163.591 828.648,163.969 829.656,164.407 830.664,165.063 831.673,165.768 832.681,166.465 833.69,167.28 834.698,168.247 835.707,169.185 836.715,170.111 837.724,171.281 838.732,172.465 839.741,173.543 840.749,174.872 841.757,176.298 842.766,177.607 843.774,178.959 844.783,180.444 845.791,181.928 846.8,183.341 847.808,184.873 848.817,186.531 849.825,188.011 850.833,189.517 851.842,191.199 852.85,192.7 853.859,194.133 854.867,195.708 855.876,197.272 856.884,198.721 857.893,200.168 858.901,201.683 859.91,203.074 860.918,204.317 861.926,205.693 862.935,207.019 863.943,208.132 864.952,209.349 865.96,210.569 866.969,211.596 867.977,212.553 868.986,213.531 869.994,214.425 871.003,215.166 872.011,215.916 873.019,216.699 874.028,217.258 875.036,217.745 876.045,218.308 877.053,218.668 878.062,218.905 879.07,219.19 880.079,219.417 881.087,219.504 882.095,219.541 883.104,219.59 884.112,219.512 885.121,219.285 886.129,219.133 887.138,219.014 888.146,218.62 889.155,218.252 890.163,217.919 891.172,217.473 892.18,216.964 893.188,216.477 894.197,215.961 895.205,215.357 896.214,214.765 897.222,214.233 898.231,213.602 899.239,212.871 900.248,212.287 901.256,211.775 902.265,211.05 903.273,210.337 904.281,209.78 905.29,209.198 906.298,208.554 907.307,207.981 908.315,207.507 909.324,206.956 910.332,206.369 911.341,206.001 912.349,205.607 913.357,205.09 914.366,204.833 915.374,204.665 916.383,204.372 917.391,204.137 918.4,204.055 919.408,203.989 920.417,203.875 921.425,203.922 922.434,204.136 923.442,204.202 924.45,204.35 925.459,204.741 926.467,204.933 927.476,205.206 928.484,205.713 929.493,206.209 930.501,206.658 931.51,207.226 932.518,207.931 933.527,208.544 934.535,209.125 935.543,209.983 936.552,210.784 937.56,211.413 938.569,212.428 939.577,213.425 940.586,214.207 941.594,215.105 942.603,216.153 943.611,217.121 944.619,217.987 945.628,219.051 946.636,220.099 947.645,220.972 948.653,222.002 949.662,223.24 950.67,224.089 951.679,224.954 952.687,226.056 953.696,227.049 954.704,227.886 955.712,228.795 956.721,229.802 957.729,230.588 958.738,231.358 959.746,232.279 960.755,233.01 961.763,233.48 962.772,234.297 963.78,235.047 964.788,235.5 965.797,235.999 966.805,236.592 967.814,237.041 968.822,237.316 969.831,237.739 970.839,238.098 971.848,238.223 972.856,238.453 973.865,238.863 974.873,238.836 975.881,238.788 976.89,238.952 977.898,238.981 978.907,238.828 979.915,238.733 980.924,238.728 981.932,238.489 982.941,238.231 983.949,238.131 984.958,237.846 985.966,237.306 986.974,237.135 987.983,236.918 988.991,236.424 990,236.005 991.008,235.716 992.017,235.317 993.025,234.781 994.034,234.44 995.042,234.083 996.05,233.535 997.059,233.148 998.067,232.998 999.076,232.461 1000.08,231.961 1001.09,231.738 1002.1,231.439 1003.11,231.017 1004.12,230.717 1005.13,230.573 1006.14,230.255 1007.14,229.981 1008.15,229.93 1009.16,229.754 1010.17,229.378 1011.18,229.439 1012.19,229.51 1013.19,229.356 1014.2,229.333 1015.21,229.493 1016.22,229.591 1017.23,229.597 1018.24,229.844 1019.24,230.115 1020.25,230.23 1021.26,230.542 1022.27,231.126 1023.28,231.342 1024.29,231.62 1025.3,232.196 1026.3,232.713 1027.31,233.114 1028.32,233.648 1029.33,234.343 1030.34,234.861 1031.35,235.419 1032.35,236.196 1033.36,236.833 1034.37,237.253 1035.38,238.097 1036.39,238.929 1037.4,239.506 1038.41,240.187 1039.41,241.022 1040.42,241.759 1041.43,242.364 1042.44,243.175 1043.45,243.968 1044.46,244.658 1045.46,245.375 1046.47,246.125 1047.48,246.825 1048.49,247.49 1049.5,248.17 1050.51,248.844 1051.52,249.454 1052.52,250.04 1053.53,250.67 1054.54,251.251 1055.55,251.713 1056.56,252.227 1057.57,252.752 1058.57,253.181 1059.58,253.567 1060.59,253.966 1061.6,254.323 1062.61,254.601 1063.62,254.881 1064.63,255.181 1065.63,255.37 1066.64,255.468 1067.65,255.662 1068.66,255.857 1069.67,255.852 1070.68,255.833 1071.68,255.891 1072.69,255.878 1073.7,255.778 1074.71,255.69 1075.72,255.625 1076.73,255.449 1077.74,255.204 1078.74,255.074 1079.75,254.934 1080.76,254.562 1081.77,254.334 1082.78,254.114 1083.79,253.76 1084.79,253.413 1085.8,253.128 1086.81,252.798 1087.82,252.388 1088.83,252.055 1089.84,251.788 1090.84,251.363 1091.85,250.971 1092.86,250.72 1093.87,250.305 1094.88,249.852 1095.89,249.54 1096.9,249.235 1097.9,248.857 1098.91,248.516 1099.92,248.269 1100.93,247.955 1101.94,247.564 1102.95,247.348 1103.95,247.137 1104.96,246.798 1105.97,246.628 1106.98,246.528 1107.99,246.325 1109,246.137 1110.01,246.051 1111.01,245.969 1112.02,245.831 1113.03,245.791 1114.04,245.868 1115.05,245.825 1116.06,245.809 1117.06,245.955 1118.07,245.997 1119.08,246.015 1120.09,246.169 1121.1,246.356 1122.11,246.495 1123.12,246.674 1124.12,246.946 1125.13,247.177 1126.14,247.344 1127.15,247.657 1128.16,248.07 1129.17,248.286 1130.17,248.592 1131.18,248.989 1132.19,249.33 1133.2,249.66 1134.21,250.058 1135.22,250.465 1136.23,250.845 1137.23,251.242 1138.24,251.68 1139.25,252.088 1140.26,252.459 1141.27,252.897 1142.28,253.372 1143.28,253.735 1144.29,254.08 1145.3,254.553 1146.31,254.994 1147.32,255.345 1148.33,255.723 1149.34,256.133 1150.34,256.497 1151.35,256.813 1152.36,257.182 1153.37,257.565 1154.38,257.824 1155.39,258.067 1156.39,258.454 1157.4,258.731 1158.41,258.906 1159.42,259.15 1160.43,259.407 1161.44,259.582 1162.44,259.737 1163.45,259.914 1164.46,260.06 1165.47,260.145 1166.48,260.249 1167.49,260.382 1168.5,260.419 1169.5,260.391 1170.51,260.473 1171.52,260.556 1172.53,260.467 1173.54,260.388 1174.55,260.391 1175.55,260.337 1176.56,260.218 1177.57,260.126 1178.58,260.063 1179.59,259.909 1180.6,259.709 1181.61,259.627 1182.61,259.537 1183.62,259.246 1184.63,259.105 1185.64,258.978 1186.65,258.731 1187.66,258.502 1188.66,258.338 1189.67,258.136 1190.68,257.865 1191.69,257.673 1192.7,257.548 1193.71,257.274 1194.72,257.037 1195.72,256.86 1196.73,256.647 1197.74,256.416 1198.75,256.225 1199.76,256.044 1200.77,255.847 1201.77,255.659 1202.78,255.504 1203.79,255.338 1204.8,255.152 1205.81,255.016 1206.82,254.919 1207.83,254.765 1208.83,254.602 1209.84,254.539 1210.85,254.476 1211.86,254.368 1212.87,254.292 1213.88,254.258 1214.88,254.215 1215.89,254.156 1216.9,254.154 1217.91,254.186 1218.92,254.156 1219.93,254.132 1220.94,254.229 1221.94,254.281 1222.95,254.284 1223.96,254.352 1224.97,254.455 1225.98,254.527 1226.99,254.605 1227.99,254.719 1229,254.836 1230.01,254.933 1231.02,255.061 1232.03,255.229 1233.04,255.353 1234.05,255.45 1235.05,255.636 1236.06,255.844 1237.07,255.95 1238.08,256.075 1239.09,256.27 1240.1,256.44 1241.1,256.576 1242.11,256.74 1243.12,256.933 1244.13,257.074 1245.14,257.188 1246.15,257.386 1247.15,257.586 1248.16,257.653 1249.17,257.787 1250.18,257.985 1251.19,258.111 1252.2,258.204 1253.21,258.341 1254.21,258.474 1255.22,258.566 1256.23,258.66 1257.24,258.779 1258.25,258.861 1259.26,258.896 1260.26,258.984 1261.27,259.1 1262.28,259.107 1263.29,259.088 1264.3,259.183 1265.31,259.25 1266.32,259.229 1267.32,259.231 1268.33,259.266 1269.34,259.26 1270.35,259.211 1271.36,259.216 1272.37,259.242 1273.37,259.158 1274.38,259.063 1275.39,259.115 1276.4,259.076 1277.41,258.951 1278.42,258.9 1279.43,258.877 1280.43,258.79 1281.44,258.697 1282.45,258.641 1283.46,258.572 1284.47,258.461 1285.48,258.385 1286.48,258.353 1287.49,258.249 1288.5,258.101 1289.51,258.073 1290.52,258.067 1291.53,257.916 1292.54,257.792 1293.54,257.763 1294.55,257.699 1295.56,257.59 1296.57,257.524 1297.58,257.503 1298.59,257.413 1299.59,257.294 1300.6,257.301 1301.61,257.318 1302.62,257.159 1303.63,257.106 1304.64,257.154 1305.65,257.112 1306.65,257.039 1307.66,257.041 1308.67,257.051 1309.68,257.02 1310.69,257.006 1311.7,257.044 1312.7,257.045 1313.71,256.997 1314.72,257.038 1315.73,257.136 1316.74,257.096 1317.75,257.113 1318.75,257.184 1319.76,257.211 1320.77,257.227 1321.78,257.285 1322.79,257.345 1323.8,257.384 1324.81,257.434 1325.81,257.509 1326.82,257.563 1327.83,257.591 1328.84,257.667 1329.85,257.767 1330.86,257.803 1331.86,257.841 1332.87,257.922 1333.88,257.992 1334.89,258.037 1335.9,258.096 1336.91,258.175 1337.92,258.221 1338.92,258.244 1339.93,258.32 1340.94,258.405 1341.95,258.403 1342.96,258.434 1343.97,258.51 1344.97,258.544 1345.98,258.553 1346.99,258.589 1348,258.625 1349.01,258.635 1350.02,258.645 1351.03,258.671 1352.03,258.676 1353.04,258.651 1354.05,258.656 1355.06,258.683 1356.07,258.644 1357.08,258.583 1358.08,258.596 1359.09,258.595 1360.1,258.539 1361.11,258.496 1362.12,258.475 1363.13,258.43 1364.14,258.357 1365.14,258.319 1366.15,258.298 1367.16,258.208 1368.17,258.108 1369.18,258.103 1370.19,258.045 1371.19,257.93 1372.2,257.863 1373.21,257.815 1374.22,257.729 1375.23,257.638 1376.24,257.571 1377.25,257.498 1378.25,257.399 1379.26,257.322 1380.27,257.274 1381.28,257.182 1382.29,257.061 1383.3,257.008 1384.3,256.958 1385.31,256.862 1386.32,256.779 1387.33,256.722 1388.34,256.654 1389.35,256.563 1390.36,256.506 1391.36,256.476 1392.37,256.392 1393.38,256.295 1394.39,256.29 1395.4,256.28 1396.41,256.178 1397.41,256.112 1398.42,256.106 1399.43,256.07 1400.44,256.013 1401.45,255.989 1402.46,255.976 1403.46,255.946 1404.47,255.92 1405.48,255.912 1406.49,255.903 1407.5,255.884 1408.51,255.882 1409.52,255.898 1410.52,255.891 1411.53,255.875 1412.54,255.905 1413.55,255.94 1414.56,255.93 1415.57,255.933 1416.57,255.97 1417.58,255.994 1418.59,256.006 1419.6,256.034 1420.61,256.077 1421.62,256.097 1422.63,256.109 1423.63,256.163 1424.64,256.216 1425.65,256.227 1426.66,256.25 1427.67,256.301 1428.68,256.338 1429.68,256.363 1430.69,256.4 1431.7,256.448 1432.71,256.472 1433.72,256.49 1434.73,256.542 1435.74,256.59 1436.74,256.585 1437.75,256.612 1438.76,256.665 1439.77,256.685 1440.78,256.694 1441.79,256.722 1442.79,256.748 1443.8,256.757 1444.81,256.769 1445.82,256.792 1446.83,256.798 1447.84,256.787 1448.85,256.799 1449.85,256.822 1450.86,256.799 1451.87,256.768 1452.88,256.786 1453.89,256.79 1454.9,256.759 1455.9,256.739 1456.91,256.732 1457.92,256.708 1458.93,256.667 1459.94,256.65 1460.95,256.639 1461.96,256.584 1462.96,256.526 1463.97,256.528 1464.98,256.49 1465.99,256.418 1467,256.377 1468.01,256.347 1469.01,256.289 1470.02,256.23 1471.03,256.185 1472.04,256.134 1473.05,256.065 1474.06,256.01 1475.06,255.973 1476.07,255.904 1477.08,255.817 1478.09,255.773 1479.1,255.729 1480.11,255.654 1481.12,255.586 1482.12,255.534 1483.13,255.472 1484.14,255.395 1485.15,255.34 1486.16,255.3 1487.17,255.223 1488.17,255.137 1489.18,255.111 1490.19,255.061 1491.2,254.979 1492.21,254.923 1493.22,254.884 1494.23,254.825 1495.23,254.764 1496.24,254.72 1497.25,254.675 1498.26,254.623 1499.27,254.577 1500.28,254.54 1501.28,254.497 1502.29,254.446 1503.3,254.416 1504.31,254.394 1505.32,254.346 1506.33,254.301 1507.34,254.289 1508.34,254.27 1509.35,254.234 1510.36,254.211 1511.37,254.199 1512.38,254.179 1513.39,254.155 1514.39,254.148 1515.4,254.148 1516.41,254.124 1517.42,254.105 1518.43,254.125 1519.44,254.122 1520.45,254.103 1521.45,254.106 1522.46,254.118 1523.47,254.117 1524.48,254.118 1525.49,254.129 1526.5,254.14 1527.5,254.142 1528.51,254.155 1529.52,254.18 1530.53,254.187 1531.54,254.186 1532.55,254.217 1533.56,254.251 1534.56,254.25 1535.57,254.258 1536.58,254.289 1537.59,254.311 1538.6,254.321 1539.61,254.343 1540.61,254.374 1541.62,254.387 1542.63,254.393 1543.64,254.43 1544.65,254.465 1545.66,254.457 1546.67,254.475 1547.67,254.516 1548.68,254.532 1549.69,254.539 1550.7,254.563 1551.71,254.586 1552.72,254.598 1553.72,254.612 1554.73,254.636 1555.74,254.649 1556.75,254.648 1557.76,254.667 1558.77,254.698 1559.77,254.697 1560.78,254.694 1561.79,254.712 1562.8,254.723 1563.81,254.721 1564.82,254.726 1565.83,254.739 1566.83,254.737 1567.84,254.723 1568.85,254.734 1569.86,254.75 1570.87,254.732 1571.88,254.717 1572.88,254.723 1573.89,254.719 1574.9,254.702 1575.91,254.693 1576.92,254.693 1577.93,254.675 1578.94,254.648 1579.94,254.647 1580.95,254.647 1581.96,254.605 1582.97,254.584 1583.98,254.584 1584.99,254.561 1585.99,254.529 1587,254.512 1588.01,254.495 1589.02,254.466 1590.03,254.439 1591.04,254.421 1592.05,254.394 1593.05,254.353 1594.06,254.33 1595.07,254.319 1596.08,254.276 1597.09,254.225 1598.1,254.213 1599.1,254.195 1600.11,254.15 1601.12,254.115 1602.13,254.093 1603.14,254.06 1604.15,254.015 1605.16,253.989 1606.16,253.973 1607.17,253.928 1608.18,253.885 1609.19,253.86 1610.2,253.83 1611.21,253.791 1612.21,253.758 1613.22,253.734 1614.23,253.697 1615.24,253.652 1616.25,253.628 1617.26,253.605 1618.27,253.568 1619.27,253.534 1620.28,253.509 1621.29,253.48 1622.3,253.444 1623.31,253.418 1624.32,253.4 1625.32,253.366 1626.33,253.327 1627.34,253.312 1628.35,253.294 1629.36,253.262 1630.37,253.237 1631.37,253.22 1632.38,253.198 1633.39,253.17 1634.4,253.154 1635.41,253.144 1636.42,253.117 1637.43,253.089 1638.43,253.09 1639.44,253.077 1640.45,253.05 1641.46,253.038 1642.47,253.033 1643.48,253.019 1644.48,253.005 1645.49,252.998 1646.5,252.992 1647.51,252.978 1648.52,252.973 1649.53,252.976 1650.54,252.968 1651.54,252.952 1652.55,252.957 1653.56,252.963 1654.57,252.956 1655.58,252.953 1656.59,252.958 1657.59,252.96 1658.6,252.956 1659.61,252.962 1660.62,252.975 1661.63,252.974 1662.64,252.973 1663.65,252.983 1664.65,252.992 1665.66,252.995 1666.67,253.002 1667.68,253.015 1668.69,253.021 1669.7,253.022 1670.7,253.036 1671.71,253.055 1672.72,253.057 1673.73,253.061 1674.74,253.076 1675.75,253.088 1676.76,253.094 1677.76,253.104 1678.77,253.12 1679.78,253.127 1680.79,253.13 1681.8,253.146 1682.81,253.164 1683.81,253.166 1684.82,253.17 1685.83,253.185 1686.84,253.195 1687.85,253.199 1688.86,253.207 1689.87,253.22 1690.87,253.224 1691.88,253.224 1692.89,253.237 1693.9,253.249 1694.91,253.247 1695.92,253.247 1696.92,253.256 1697.93,253.26 1698.94,253.259 1699.95,253.262 1700.96,253.268 1701.97,253.265 1702.98,253.26 1703.98,253.266 1704.99,253.27 1706,253.261 1707.01,253.256 1708.02,253.257 1709.03,253.254 1710.03,253.246 1711.04,253.242 1712.05,253.24 1713.06,253.231 1714.07,253.22 1715.08,253.219 1716.08,253.216 1717.09,253.197 1718.1,253.189 1719.11,253.187 1720.12,253.176 1721.13,253.162 1722.14,253.155 1723.14,253.146 1724.15,253.133 1725.16,253.122 1726.17,253.114 1727.18,253.102 1728.19,253.085 1729.19,253.076 1730.2,253.071 1731.21,253.053 1732.22,253.034 1733.23,253.03 1734.24,253.023 1735.25,253.006 1736.25,252.994 1737.26,252.986 1738.27,252.975 1739.28,252.96 1740.29,252.952 1741.3,252.947 1742.3,252.933 1743.31,252.919 1744.32,252.913 1745.33,252.905 1746.34,252.893 1747.35,252.885 1748.36,252.88 1749.36,252.87 1750.37,252.858 1751.38,252.855 1752.39,252.853 1753.4,252.842 1754.41,252.833 1755.41,252.831 1756.42,252.826 1757.43,252.819 1758.44,252.815 1759.45,252.814 1760.46,252.808 1761.47,252.8 1762.47,252.802 1763.48,252.804 1764.49,252.793 1765.5,252.79 1766.51,252.794 1767.52,252.791 1768.52,252.786 1769.53,252.787 1770.54,252.787 1771.55,252.785 1772.56,252.784 1773.57,252.786 1774.58,252.785 1775.58,252.78 1776.59,252.782 1777.6,252.787 1778.61,252.782 1779.62,252.775 1780.63,252.781 1781.63,252.785 1782.64,252.78 1783.65,252.779 1784.66,252.782 1785.67,252.781 1786.68,252.777 1787.68,252.779 1788.69,252.783 1789.7,252.778 1790.71,252.771 1791.72,252.777 1792.73,252.779 1793.74,252.774 1794.74,252.772 1795.75,252.774 1796.76,252.772 1797.77,252.767 1798.78,252.768 1799.79,252.771 1800.79,252.764 1801.8,252.758 1802.81,252.762 1803.82,252.763 1804.83,252.758 1805.84,252.756 1806.85,252.757 1807.85,252.755 1808.86,252.75 1809.87,252.751 1810.88,252.753 1811.89,252.748 1812.9,252.743 1813.9,252.75 1814.91,252.75 1815.92,252.743 1816.93,252.744 1817.94,252.747 1818.95,252.746 1819.96,252.745 1820.96,252.747 1821.97,252.749 1822.98,252.748 1823.99,252.75 1825,252.756 1826.01,252.756 1827.01,252.754 1828.02,252.762 1829.03,252.772 1830.04,252.769 1831.05,252.77 1832.06,252.779 1833.07,252.785 1834.07,252.787 1835.08,252.794 1836.09,252.803 1837.1,252.807 1838.11,252.81 1839.12,252.822 1840.12,252.834 1841.13,252.836 1842.14,252.842 1843.15,252.854 1844.16,252.863 1845.17,252.869 1846.18,252.879 1847.18,252.891 1848.19,252.898 1849.2,252.904 1850.21,252.918 1851.22,252.932 1852.23,252.933 1853.23,252.942 1854.24,252.958 1855.25,252.967 1856.26,252.973 1857.27,252.984 1858.28,252.995 1859.29,253.002 1860.29,253.01 1861.3,253.022 1862.31,253.029 1863.32,253.033 1864.33,253.043 1865.34,253.055 1866.34,253.059 1867.35,253.062 1868.36,253.07 1869.37,253.077 1870.38,253.08 1871.39,253.084 1872.39,253.091 1873.4,253.093 1874.41,253.091 1875.42,253.096 1876.43,253.1 1877.44,253.099 1878.45,253.099 1879.45,253.1 1880.46,253.099 1881.47,253.095 1882.48,253.094 1883.49,253.095 1884.5,253.089 1885.5,253.081 1886.51,253.08 1887.52,253.077 1888.53,253.069 1889.54,253.063 1890.55,253.058 1891.56,253.051 1892.56,253.041 1893.57,253.034 1894.58,253.029 1895.59,253.017 1896.6,253.005 1897.61,252.999 1898.61,252.991 1899.62,252.979 1900.63,252.969 1901.64,252.96 1902.65,252.95 1903.66,252.937 1904.67,252.928 1905.67,252.921 1906.68,252.908 1907.69,252.894 1908.7,252.89 1909.71,252.88 1910.72,252.867 1911.72,252.858 1912.73,252.851 1913.74,252.841 1914.75,252.832 1915.76,252.825 1916.77,252.818 1917.78,252.809 1918.78,252.802 1919.79,252.799 1920.8,252.792 1921.81,252.784 1922.82,252.782 1923.83,252.78 1924.83,252.775 1925.84,252.772 1926.85,252.772 1927.86,252.771 1928.87,252.768 1929.88,252.77 1930.89,252.774 1931.89,252.774 1932.9,252.774 1933.91,252.779 1934.92,252.783 1935.93,252.787 1936.94,252.792 1937.94,252.799 1938.95,252.805 1939.96,252.81 1940.97,252.819 1941.98,252.83 1942.99,252.837 1943.99,252.844 1945,252.856 1946.01,252.867 1947.02,252.876 1948.03,252.887 1949.04,252.9 1950.05,252.911 1951.05,252.921 1952.06,252.936 1953.07,252.951 1954.08,252.96 1955.09,252.972 1956.1,252.988 1957.1,253.001 1958.11,253.012 1959.12,253.026 1960.13,253.04 1961.14,253.052 1962.15,253.064 1963.16,253.078 1964.16,253.09 1965.17,253.1 1966.18,253.113 1967.19,253.127 1968.2,253.136 1969.21,253.145 1970.21,253.157 1971.22,253.167 1972.23,253.176 1973.24,253.184 1974.25,253.194 1975.26,253.201 1976.27,253.206 1977.27,253.214 1978.28,253.222 1979.29,253.226 1980.3,253.231 1981.31,253.236 1982.32,253.239 1983.32,253.241 1984.33,253.244 1985.34,253.248 1986.35,253.248 1987.36,253.246 1988.37,253.249 1989.38,253.25 1990.38,253.246 1991.39,253.243 1992.4,253.243 1993.41,253.24 1994.42,253.235 1995.43,253.232 1996.43,253.229 1997.44,253.223 1998.45,253.217 1999.46,253.213 2000.47,253.209 2001.48,253.199 2002.49,253.193 2003.49,253.189 2004.5,253.182 2005.51,253.173 2006.52,253.167 2007.53,253.161 2008.54,253.152 2009.54,253.145 2010.55,253.139 2011.56,253.131 2012.57,253.122 2013.58,253.115 2014.59,253.111 2015.59,253.102 2016.6,253.094 2017.61,253.089 2018.62,253.083 2019.63,253.076 2020.64,253.07 2021.65,253.066 2022.65,253.06 2023.66,253.053 2024.67,253.05 2025.68,253.047 2026.69,253.043 2027.7,253.039 2028.7,253.037 2029.71,253.035 2030.72,253.032 2031.73,253.031 2032.74,253.032 2033.75,253.03 2034.76,253.028 2035.76,253.031 2036.77,253.034 2037.78,253.033 2038.79,253.034 2039.8,253.038 2040.81,253.041 2041.81,253.043 2042.82,253.047 2043.83,253.051 2044.84,253.055 2045.85,253.06 2046.86,253.065 2047.87,253.071 2048.87,253.076 2049.88,253.082 2050.89,253.089 2051.9,253.096 2052.91,253.101 2053.92,253.109 2054.92,253.118 2055.93,253.124 2056.94,253.131 2057.95,253.139 2058.96,253.147 2059.97,253.154 2060.98,253.162 2061.98,253.17 2062.99,253.178 2064,253.184 2065.01,253.193 2066.02,253.202 2067.03,253.207 2068.03,253.214 2069.04,253.223 2070.05,253.23 2071.06,253.236 2072.07,253.243 2073.08,253.249 2074.09,253.255 2075.09,253.261 2076.1,253.267 2077.11,253.272 2078.12,253.276 2079.13,253.281 2080.14,253.287 2081.14,253.29 2082.15,253.292 2083.16,253.297 2084.17,253.301 2085.18,253.303 2086.19,253.305 2087.2,253.308 2088.2,253.31 2089.21,253.311 2090.22,253.313 2091.23,253.315 2092.24,253.314 2093.25,253.314 2094.25,253.316 2095.26,253.316 2096.27,253.314 2097.28,253.314 2098.29,253.314 2099.3,253.313 2100.3,253.311 2101.31,253.31 2102.32,253.309 2103.33,253.307 2104.34,253.305 2105.35,253.305 2106.36,253.302 2107.36,253.299 2108.37,253.298 2109.38,253.298 2110.39,253.294 2111.4,253.291 2112.41,253.29 2113.41,253.288 2114.42,253.285 2115.43,253.283 2116.44,253.282 2117.45,253.28 2118.46,253.277 2119.47,253.276 2120.47,253.276 2121.48,253.273 2122.49,253.271 2123.5,253.271 2124.51,253.27 2125.52,253.268 2126.52,253.268 2127.53,253.268 2128.54,253.267 2129.55,253.266 2130.56,253.267 2131.57,253.268 2132.58,253.266 2133.58,253.266 2134.59,253.268 2135.6,253.268 2136.61,253.268 2137.62,253.27 2138.63,253.271 2139.63,253.272 2140.64,253.273 2141.65,253.275 2142.66,253.277 2143.67,253.277 2144.68,253.279 2145.69,253.282 2146.69,253.283 2147.7,253.283 2148.71,253.287 2149.72,253.289 2150.73,253.29 2151.74,253.292 2152.74,253.295 2153.75,253.297 2154.76,253.297 2155.77,253.3 2156.78,253.303 2157.79,253.304 2158.8,253.305 2159.8,253.307 2160.81,253.309 2161.82,253.31 2162.83,253.311 2163.84,253.313 2164.85,253.314 2165.85,253.313 2166.86,253.315 2167.87,253.317 2168.88,253.317 2169.89,253.316 2170.9,253.317 2171.9,253.318 2172.91,253.317 2173.92,253.317 2174.93,253.317 2175.94,253.317 2176.95,253.315 2177.96,253.315 2178.96,253.316 2179.97,253.313 2180.98,253.311 2181.99,253.312 2183,253.31 2184.01,253.308 2185.01,253.307 2186.02,253.306 2187.03,253.304 2188.04,253.302 2189.05,253.301 2190.06,253.299 2191.07,253.296 2192.07,253.295 2193.08,253.294 2194.09,253.291 2195.1,253.288 2196.11,253.288 2197.12,253.287 2198.12,253.284 2199.13,253.282 2200.14,253.281 2201.15,253.28 2202.16,253.278 2203.17,253.277 2204.18,253.277 2205.18,253.275 2206.19,253.274 2207.2,253.273 2208.21,253.273 2209.22,253.272 2210.23,253.272 2211.23,253.273 2212.24,253.272 2213.25,253.272 2214.26,253.273 2215.27,253.274 2216.28,253.275 2217.29,253.276 2218.29,253.277 2219.3,253.279 2220.31,253.28 2221.32,253.282 2222.33,253.285 2223.34,253.286 2224.34,253.288 2225.35,253.291 2226.36,253.295 2227.37,253.297 2228.38,253.3 2229.39,253.303 2230.4,253.307 2231.4,253.31 2232.41,253.314 2233.42,253.318 2234.43,253.321 2235.44,253.324 2236.45,253.329 2237.45,253.334 2238.46,253.337 2239.47,253.341 2240.48,253.345 2241.49,253.349 2242.5,253.353 2243.51,253.357 2244.51,253.362 2245.52,253.365 2246.53,253.369 2247.54,253.373 2248.55,253.377 2249.56,253.38 2250.56,253.384 2251.57,253.388 2252.58,253.39 2253.59,253.393 2254.6,253.397 2255.61,253.399 2256.61,253.401 2257.62,253.404 2258.63,253.407 2259.64,253.408 2260.65,253.41 2261.66,253.412 2262.67,253.413 2263.67,253.414 2264.68,253.415 2265.69,253.416 2266.7,253.416 2267.71,253.415 2268.72,253.416 2269.72,253.416 2270.73,253.415 2271.74,253.414 2272.75,253.413 2273.76,253.412 2274.77,253.41 2275.78,253.408 2276.78,253.407 2277.79,253.404 2278.8,253.401 2279.81,253.399 2280.82,253.397 2281.83,253.394 2282.83,253.39 2283.84,253.388 2284.85,253.384 2285.86,253.381 2286.87,253.377 2287.88,253.374 2288.89,253.37 2289.89,253.366 2290.9,253.362 2291.91,253.359 2292.25,253.357 "/>
<path clip-path="url(#clip680)" d="M1876.41 1438.47 L2281.49 1438.47 L2281.49 1282.95 L1876.41 1282.95  Z" fill="#ffffff" fill-rule="evenodd" fill-opacity="1"/>
<polyline clip-path="url(#clip680)" style="stroke:#000000; stroke-linecap:round; stroke-linejoin:round; stroke-width:4; stroke-opacity:1; fill:none" points="1876.41,1438.47 2281.49,1438.47 2281.49,1282.95 1876.41,1282.95 1876.41,1438.47 "/>
<polyline clip-path="url(#clip680)" style="stroke:#009af9; stroke-linecap:round; stroke-linejoin:round; stroke-width:4; stroke-opacity:1; fill:none" points="1900.16,1334.79 2042.69,1334.79 "/>
<path clip-path="url(#clip680)" d="M2082.83 1335.87 Q2084.34 1336.38 2085.75 1338.05 Q2087.18 1339.71 2088.62 1342.63 L2093.36 1352.07 L2088.34 1352.07 L2083.92 1343.21 Q2082.21 1339.74 2080.59 1338.6 Q2078.99 1337.47 2076.21 1337.47 L2071.12 1337.47 L2071.12 1352.07 L2066.44 1352.07 L2066.44 1317.51 L2077 1317.51 Q2082.92 1317.51 2085.84 1319.99 Q2088.76 1322.47 2088.76 1327.47 Q2088.76 1330.73 2087.23 1332.88 Q2085.72 1335.04 2082.83 1335.87 M2071.12 1321.36 L2071.12 1333.63 L2077 1333.63 Q2080.38 1333.63 2082.09 1332.07 Q2083.83 1330.5 2083.83 1327.47 Q2083.83 1324.44 2082.09 1322.91 Q2080.38 1321.36 2077 1321.36 L2071.12 1321.36 Z" fill="#000000" fill-rule="nonzero" fill-opacity="1" /><path clip-path="url(#clip680)" d="M2113.41 1320.69 Q2108.32 1320.69 2105.31 1324.48 Q2102.32 1328.28 2102.32 1334.83 Q2102.32 1341.36 2105.31 1345.15 Q2108.32 1348.95 2113.41 1348.95 Q2118.5 1348.95 2121.46 1345.15 Q2124.45 1341.36 2124.45 1334.83 Q2124.45 1328.28 2121.46 1324.48 Q2118.5 1320.69 2113.41 1320.69 M2113.41 1316.89 Q2120.68 1316.89 2125.03 1321.77 Q2129.38 1326.63 2129.38 1334.83 Q2129.38 1343 2125.03 1347.88 Q2120.68 1352.75 2113.41 1352.75 Q2106.12 1352.75 2101.74 1347.88 Q2097.39 1343.02 2097.39 1334.83 Q2097.39 1326.63 2101.74 1321.77 Q2106.12 1316.89 2113.41 1316.89 Z" fill="#000000" fill-rule="nonzero" fill-opacity="1" /><path clip-path="url(#clip680)" d="M2141.37 1321.36 L2141.37 1348.23 L2147.02 1348.23 Q2154.17 1348.23 2157.48 1344.99 Q2160.82 1341.75 2160.82 1334.76 Q2160.82 1327.82 2157.48 1324.6 Q2154.17 1321.36 2147.02 1321.36 L2141.37 1321.36 M2136.7 1317.51 L2146.3 1317.51 Q2156.35 1317.51 2161.05 1321.7 Q2165.75 1325.87 2165.75 1334.76 Q2165.75 1343.69 2161.02 1347.88 Q2156.3 1352.07 2146.3 1352.07 L2136.7 1352.07 L2136.7 1317.51 Z" fill="#000000" fill-rule="nonzero" fill-opacity="1" /><path clip-path="url(#clip680)" d="M2183.92 1322.12 L2177.58 1339.32 L2190.28 1339.32 L2183.92 1322.12 M2181.28 1317.51 L2186.58 1317.51 L2199.75 1352.07 L2194.89 1352.07 L2191.74 1343.21 L2176.16 1343.21 L2173.02 1352.07 L2168.09 1352.07 L2181.28 1317.51 Z" fill="#000000" fill-rule="nonzero" fill-opacity="1" /><path clip-path="url(#clip680)" d="M2225.52 1318.65 L2225.52 1323.21 Q2222.85 1321.94 2220.49 1321.31 Q2218.13 1320.69 2215.93 1320.69 Q2212.11 1320.69 2210.03 1322.17 Q2207.97 1323.65 2207.97 1326.38 Q2207.97 1328.67 2209.33 1329.85 Q2210.72 1331.01 2214.57 1331.73 L2217.39 1332.31 Q2222.62 1333.3 2225.1 1335.82 Q2227.6 1338.32 2227.6 1342.54 Q2227.6 1347.56 2224.22 1350.15 Q2220.86 1352.75 2214.36 1352.75 Q2211.9 1352.75 2209.13 1352.19 Q2206.37 1351.63 2203.41 1350.55 L2203.41 1345.73 Q2206.26 1347.33 2208.99 1348.14 Q2211.72 1348.95 2214.36 1348.95 Q2218.36 1348.95 2220.54 1347.38 Q2222.71 1345.8 2222.71 1342.88 Q2222.71 1340.34 2221.14 1338.9 Q2219.59 1337.47 2216.02 1336.75 L2213.18 1336.19 Q2207.95 1335.15 2205.61 1332.93 Q2203.27 1330.71 2203.27 1326.75 Q2203.27 1322.17 2206.49 1319.53 Q2209.73 1316.89 2215.4 1316.89 Q2217.83 1316.89 2220.35 1317.33 Q2222.88 1317.77 2225.52 1318.65 Z" fill="#000000" fill-rule="nonzero" fill-opacity="1" /><path clip-path="url(#clip680)" d="M2248.15 1321.59 L2236.35 1340.04 L2248.15 1340.04 L2248.15 1321.59 M2246.93 1317.51 L2252.81 1317.51 L2252.81 1340.04 L2257.74 1340.04 L2257.74 1343.93 L2252.81 1343.93 L2252.81 1352.07 L2248.15 1352.07 L2248.15 1343.93 L2232.55 1343.93 L2232.55 1339.41 L2246.93 1317.51 Z" fill="#000000" fill-rule="nonzero" fill-opacity="1" /><polyline clip-path="url(#clip680)" style="stroke:#e26f46; stroke-linecap:round; stroke-linejoin:round; stroke-width:4; stroke-opacity:1; fill:none" points="1900.16,1386.63 2042.69,1386.63 "/>
<path clip-path="url(#clip680)" d="M2066.44 1369.35 L2071.12 1369.35 L2071.12 1403.91 L2066.44 1403.91 L2066.44 1369.35 Z" fill="#000000" fill-rule="nonzero" fill-opacity="1" /><path clip-path="url(#clip680)" d="M2085.1 1373.2 L2085.1 1400.07 L2090.75 1400.07 Q2097.9 1400.07 2101.21 1396.83 Q2104.54 1393.59 2104.54 1386.6 Q2104.54 1379.66 2101.21 1376.44 Q2097.9 1373.2 2090.75 1373.2 L2085.1 1373.2 M2080.42 1369.35 L2090.03 1369.35 Q2100.08 1369.35 2104.78 1373.54 Q2109.47 1377.71 2109.47 1386.6 Q2109.47 1395.53 2104.75 1399.72 Q2100.03 1403.91 2090.03 1403.91 L2080.42 1403.91 L2080.42 1369.35 Z" fill="#000000" fill-rule="nonzero" fill-opacity="1" /><path clip-path="url(#clip680)" d="M2127.65 1373.96 L2121.3 1391.16 L2134.01 1391.16 L2127.65 1373.96 M2125.01 1369.35 L2130.31 1369.35 L2143.48 1403.91 L2138.62 1403.91 L2135.47 1395.05 L2119.89 1395.05 L2116.74 1403.91 L2111.81 1403.91 L2125.01 1369.35 Z" fill="#000000" fill-rule="nonzero" fill-opacity="1" /></svg>
