<?xml version="1.0" encoding="utf-8"?>
<svg xmlns="http://www.w3.org/2000/svg" xmlns:xlink="http://www.w3.org/1999/xlink" width="600" height="400" viewBox="0 0 2400 1600">
<defs>
  <clipPath id="clip650">
    <rect x="0" y="0" width="2400" height="1600"/>
  </clipPath>
</defs>
<path clip-path="url(#clip650)" d="M0 1600 L2400 1600 L2400 0 L0 0  Z" fill="#ffffff" fill-rule="evenodd" fill-opacity="1"/>
<defs>
  <clipPath id="clip651">
    <rect x="214" y="47" width="2139" height="1440"/>
  </clipPath>
</defs>
<path clip-path="url(#clip650)" d="M214.839 1486.45 L2352.76 1486.45 L2352.76 47.2441 L214.839 47.2441  Z" fill="#ffffff" fill-rule="evenodd" fill-opacity="1"/>
<polyline clip-path="url(#clip651)" style="stroke:#000000; stroke-linecap:round; stroke-linejoin:round; stroke-width:2; stroke-opacity:0.1; fill:none" points="275.346,1486.45 275.346,47.2441 "/>
<polyline clip-path="url(#clip651)" style="stroke:#000000; stroke-linecap:round; stroke-linejoin:round; stroke-width:2; stroke-opacity:0.1; fill:none" points="779.572,1486.45 779.572,47.2441 "/>
<polyline clip-path="url(#clip651)" style="stroke:#000000; stroke-linecap:round; stroke-linejoin:round; stroke-width:2; stroke-opacity:0.1; fill:none" points="1283.8,1486.45 1283.8,47.2441 "/>
<polyline clip-path="url(#clip651)" style="stroke:#000000; stroke-linecap:round; stroke-linejoin:round; stroke-width:2; stroke-opacity:0.1; fill:none" points="1788.02,1486.45 1788.02,47.2441 "/>
<polyline clip-path="url(#clip651)" style="stroke:#000000; stroke-linecap:round; stroke-linejoin:round; stroke-width:2; stroke-opacity:0.1; fill:none" points="2292.25,1486.45 2292.25,47.2441 "/>
<polyline clip-path="url(#clip651)" style="stroke:#000000; stroke-linecap:round; stroke-linejoin:round; stroke-width:2; stroke-opacity:0.1; fill:none" points="214.839,1452.63 2352.76,1452.63 "/>
<polyline clip-path="url(#clip651)" style="stroke:#000000; stroke-linecap:round; stroke-linejoin:round; stroke-width:2; stroke-opacity:0.1; fill:none" points="214.839,1225.14 2352.76,1225.14 "/>
<polyline clip-path="url(#clip651)" style="stroke:#000000; stroke-linecap:round; stroke-linejoin:round; stroke-width:2; stroke-opacity:0.1; fill:none" points="214.839,997.648 2352.76,997.648 "/>
<polyline clip-path="url(#clip651)" style="stroke:#000000; stroke-linecap:round; stroke-linejoin:round; stroke-width:2; stroke-opacity:0.1; fill:none" points="214.839,770.159 2352.76,770.159 "/>
<polyline clip-path="url(#clip651)" style="stroke:#000000; stroke-linecap:round; stroke-linejoin:round; stroke-width:2; stroke-opacity:0.1; fill:none" points="214.839,542.67 2352.76,542.67 "/>
<polyline clip-path="url(#clip651)" style="stroke:#000000; stroke-linecap:round; stroke-linejoin:round; stroke-width:2; stroke-opacity:0.1; fill:none" points="214.839,315.182 2352.76,315.182 "/>
<polyline clip-path="url(#clip651)" style="stroke:#000000; stroke-linecap:round; stroke-linejoin:round; stroke-width:2; stroke-opacity:0.1; fill:none" points="214.839,87.6928 2352.76,87.6928 "/>
<polyline clip-path="url(#clip650)" style="stroke:#000000; stroke-linecap:round; stroke-linejoin:round; stroke-width:4; stroke-opacity:1; fill:none" points="214.839,1486.45 2352.76,1486.45 "/>
<polyline clip-path="url(#clip650)" style="stroke:#000000; stroke-linecap:round; stroke-linejoin:round; stroke-width:4; stroke-opacity:1; fill:none" points="275.346,1486.45 275.346,1467.55 "/>
<polyline clip-path="url(#clip650)" style="stroke:#000000; stroke-linecap:round; stroke-linejoin:round; stroke-width:4; stroke-opacity:1; fill:none" points="779.572,1486.45 779.572,1467.55 "/>
<polyline clip-path="url(#clip650)" style="stroke:#000000; stroke-linecap:round; stroke-linejoin:round; stroke-width:4; stroke-opacity:1; fill:none" points="1283.8,1486.45 1283.8,1467.55 "/>
<polyline clip-path="url(#clip650)" style="stroke:#000000; stroke-linecap:round; stroke-linejoin:round; stroke-width:4; stroke-opacity:1; fill:none" points="1788.02,1486.45 1788.02,1467.55 "/>
<polyline clip-path="url(#clip650)" style="stroke:#000000; stroke-linecap:round; stroke-linejoin:round; stroke-width:4; stroke-opacity:1; fill:none" points="2292.25,1486.45 2292.25,1467.55 "/>
<path clip-path="url(#clip650)" d="M275.346 1517.37 Q271.735 1517.37 269.906 1520.93 Q268.1 1524.47 268.1 1531.6 Q268.1 1538.71 269.906 1542.27 Q271.735 1545.82 275.346 1545.82 Q278.98 1545.82 280.786 1542.27 Q282.614 1538.71 282.614 1531.6 Q282.614 1524.47 280.786 1520.93 Q278.98 1517.37 275.346 1517.37 M275.346 1513.66 Q281.156 1513.66 284.211 1518.27 Q287.29 1522.85 287.29 1531.6 Q287.29 1540.33 284.211 1544.94 Q281.156 1549.52 275.346 1549.52 Q269.536 1549.52 266.457 1544.94 Q263.401 1540.33 263.401 1531.6 Q263.401 1522.85 266.457 1518.27 Q269.536 1513.66 275.346 1513.66 Z" fill="#000000" fill-rule="nonzero" fill-opacity="1" /><path clip-path="url(#clip650)" d="M769.849 1514.29 L788.206 1514.29 L788.206 1518.22 L774.132 1518.22 L774.132 1526.7 Q775.15 1526.35 776.169 1526.19 Q777.187 1526 778.206 1526 Q783.993 1526 787.372 1529.17 Q790.752 1532.34 790.752 1537.76 Q790.752 1543.34 787.28 1546.44 Q783.808 1549.52 777.488 1549.52 Q775.312 1549.52 773.044 1549.15 Q770.798 1548.78 768.391 1548.04 L768.391 1543.34 Q770.474 1544.47 772.697 1545.03 Q774.919 1545.58 777.396 1545.58 Q781.4 1545.58 783.738 1543.48 Q786.076 1541.37 786.076 1537.76 Q786.076 1534.15 783.738 1532.04 Q781.4 1529.94 777.396 1529.94 Q775.521 1529.94 773.646 1530.35 Q771.794 1530.77 769.849 1531.65 L769.849 1514.29 Z" fill="#000000" fill-rule="nonzero" fill-opacity="1" /><path clip-path="url(#clip650)" d="M1258.48 1544.91 L1266.12 1544.91 L1266.12 1518.55 L1257.81 1520.21 L1257.81 1515.95 L1266.08 1514.29 L1270.75 1514.29 L1270.75 1544.91 L1278.39 1544.91 L1278.39 1548.85 L1258.48 1548.85 L1258.48 1544.91 Z" fill="#000000" fill-rule="nonzero" fill-opacity="1" /><path clip-path="url(#clip650)" d="M1297.84 1517.37 Q1294.23 1517.37 1292.4 1520.93 Q1290.59 1524.47 1290.59 1531.6 Q1290.59 1538.71 1292.4 1542.27 Q1294.23 1545.82 1297.84 1545.82 Q1301.47 1545.82 1303.28 1542.27 Q1305.11 1538.71 1305.11 1531.6 Q1305.11 1524.47 1303.28 1520.93 Q1301.47 1517.37 1297.84 1517.37 M1297.84 1513.66 Q1303.65 1513.66 1306.7 1518.27 Q1309.78 1522.85 1309.78 1531.6 Q1309.78 1540.33 1306.7 1544.94 Q1303.65 1549.52 1297.84 1549.52 Q1292.03 1549.52 1288.95 1544.94 Q1285.89 1540.33 1285.89 1531.6 Q1285.89 1522.85 1288.95 1518.27 Q1292.03 1513.66 1297.84 1513.66 Z" fill="#000000" fill-rule="nonzero" fill-opacity="1" /><path clip-path="url(#clip650)" d="M1763.21 1544.91 L1770.85 1544.91 L1770.85 1518.55 L1762.54 1520.21 L1762.54 1515.95 L1770.8 1514.29 L1775.48 1514.29 L1775.48 1544.91 L1783.12 1544.91 L1783.12 1548.85 L1763.21 1548.85 L1763.21 1544.91 Z" fill="#000000" fill-rule="nonzero" fill-opacity="1" /><path clip-path="url(#clip650)" d="M1792.61 1514.29 L1810.96 1514.29 L1810.96 1518.22 L1796.89 1518.22 L1796.89 1526.7 Q1797.91 1526.35 1798.93 1526.19 Q1799.94 1526 1800.96 1526 Q1806.75 1526 1810.13 1529.17 Q1813.51 1532.34 1813.51 1537.76 Q1813.51 1543.34 1810.04 1546.44 Q1806.56 1549.52 1800.25 1549.52 Q1798.07 1549.52 1795.8 1549.15 Q1793.56 1548.78 1791.15 1548.04 L1791.15 1543.34 Q1793.23 1544.47 1795.45 1545.03 Q1797.68 1545.58 1800.15 1545.58 Q1804.16 1545.58 1806.5 1543.48 Q1808.83 1541.37 1808.83 1537.76 Q1808.83 1534.15 1806.5 1532.04 Q1804.16 1529.94 1800.15 1529.94 Q1798.28 1529.94 1796.4 1530.35 Q1794.55 1530.77 1792.61 1531.65 L1792.61 1514.29 Z" fill="#000000" fill-rule="nonzero" fill-opacity="1" /><path clip-path="url(#clip650)" d="M2271.02 1544.91 L2287.34 1544.91 L2287.34 1548.85 L2265.4 1548.85 L2265.4 1544.91 Q2268.06 1542.16 2272.64 1537.53 Q2277.25 1532.88 2278.43 1531.53 Q2280.67 1529.01 2281.55 1527.27 Q2282.46 1525.51 2282.46 1523.82 Q2282.46 1521.07 2280.51 1519.33 Q2278.59 1517.6 2275.49 1517.6 Q2273.29 1517.6 2270.84 1518.36 Q2268.41 1519.13 2265.63 1520.68 L2265.63 1515.95 Q2268.45 1514.82 2270.91 1514.24 Q2273.36 1513.66 2275.4 1513.66 Q2280.77 1513.66 2283.96 1516.35 Q2287.16 1519.03 2287.16 1523.52 Q2287.16 1525.65 2286.35 1527.57 Q2285.56 1529.47 2283.45 1532.07 Q2282.87 1532.74 2279.77 1535.95 Q2276.67 1539.15 2271.02 1544.91 Z" fill="#000000" fill-rule="nonzero" fill-opacity="1" /><path clip-path="url(#clip650)" d="M2307.16 1517.37 Q2303.55 1517.37 2301.72 1520.93 Q2299.91 1524.47 2299.91 1531.6 Q2299.91 1538.71 2301.72 1542.27 Q2303.55 1545.82 2307.16 1545.82 Q2310.79 1545.82 2312.6 1542.27 Q2314.42 1538.71 2314.42 1531.6 Q2314.42 1524.47 2312.6 1520.93 Q2310.79 1517.37 2307.16 1517.37 M2307.16 1513.66 Q2312.97 1513.66 2316.02 1518.27 Q2319.1 1522.85 2319.1 1531.6 Q2319.1 1540.33 2316.02 1544.94 Q2312.97 1549.52 2307.16 1549.52 Q2301.35 1549.52 2298.27 1544.94 Q2295.21 1540.33 2295.21 1531.6 Q2295.21 1522.85 2298.27 1518.27 Q2301.35 1513.66 2307.16 1513.66 Z" fill="#000000" fill-rule="nonzero" fill-opacity="1" /><polyline clip-path="url(#clip650)" style="stroke:#000000; stroke-linecap:round; stroke-linejoin:round; stroke-width:4; stroke-opacity:1; fill:none" points="214.839,1486.45 214.839,47.2441 "/>
<polyline clip-path="url(#clip650)" style="stroke:#000000; stroke-linecap:round; stroke-linejoin:round; stroke-width:4; stroke-opacity:1; fill:none" points="214.839,1452.63 233.736,1452.63 "/>
<polyline clip-path="url(#clip650)" style="stroke:#000000; stroke-linecap:round; stroke-linejoin:round; stroke-width:4; stroke-opacity:1; fill:none" points="214.839,1225.14 233.736,1225.14 "/>
<polyline clip-path="url(#clip650)" style="stroke:#000000; stroke-linecap:round; stroke-linejoin:round; stroke-width:4; stroke-opacity:1; fill:none" points="214.839,997.648 233.736,997.648 "/>
<polyline clip-path="url(#clip650)" style="stroke:#000000; stroke-linecap:round; stroke-linejoin:round; stroke-width:4; stroke-opacity:1; fill:none" points="214.839,770.159 233.736,770.159 "/>
<polyline clip-path="url(#clip650)" style="stroke:#000000; stroke-linecap:round; stroke-linejoin:round; stroke-width:4; stroke-opacity:1; fill:none" points="214.839,542.67 233.736,542.67 "/>
<polyline clip-path="url(#clip650)" style="stroke:#000000; stroke-linecap:round; stroke-linejoin:round; stroke-width:4; stroke-opacity:1; fill:none" points="214.839,315.182 233.736,315.182 "/>
<polyline clip-path="url(#clip650)" style="stroke:#000000; stroke-linecap:round; stroke-linejoin:round; stroke-width:4; stroke-opacity:1; fill:none" points="214.839,87.6928 233.736,87.6928 "/>
<path clip-path="url(#clip650)" d="M51.6634 1465.97 L59.3023 1465.97 L59.3023 1439.6 L50.9921 1441.27 L50.9921 1437.01 L59.256 1435.35 L63.9319 1435.35 L63.9319 1465.97 L71.5707 1465.97 L71.5707 1469.91 L51.6634 1469.91 L51.6634 1465.97 Z" fill="#000000" fill-rule="nonzero" fill-opacity="1" /><path clip-path="url(#clip650)" d="M81.0151 1464.03 L85.8993 1464.03 L85.8993 1469.91 L81.0151 1469.91 L81.0151 1464.03 Z" fill="#000000" fill-rule="nonzero" fill-opacity="1" /><path clip-path="url(#clip650)" d="M106.084 1438.42 Q102.473 1438.42 100.645 1441.99 Q98.8391 1445.53 98.8391 1452.66 Q98.8391 1459.77 100.645 1463.33 Q102.473 1466.87 106.084 1466.87 Q109.719 1466.87 111.524 1463.33 Q113.353 1459.77 113.353 1452.66 Q113.353 1445.53 111.524 1441.99 Q109.719 1438.42 106.084 1438.42 M106.084 1434.72 Q111.895 1434.72 114.95 1439.33 Q118.029 1443.91 118.029 1452.66 Q118.029 1461.39 114.95 1465.99 Q111.895 1470.58 106.084 1470.58 Q100.274 1470.58 97.1956 1465.99 Q94.14 1461.39 94.14 1452.66 Q94.14 1443.91 97.1956 1439.33 Q100.274 1434.72 106.084 1434.72 Z" fill="#000000" fill-rule="nonzero" fill-opacity="1" /><path clip-path="url(#clip650)" d="M136.246 1438.42 Q132.635 1438.42 130.807 1441.99 Q129.001 1445.53 129.001 1452.66 Q129.001 1459.77 130.807 1463.33 Q132.635 1466.87 136.246 1466.87 Q139.881 1466.87 141.686 1463.33 Q143.515 1459.77 143.515 1452.66 Q143.515 1445.53 141.686 1441.99 Q139.881 1438.42 136.246 1438.42 M136.246 1434.72 Q142.056 1434.72 145.112 1439.33 Q148.191 1443.91 148.191 1452.66 Q148.191 1461.39 145.112 1465.99 Q142.056 1470.58 136.246 1470.58 Q130.436 1470.58 127.357 1465.99 Q124.302 1461.39 124.302 1452.66 Q124.302 1443.91 127.357 1439.33 Q130.436 1434.72 136.246 1434.72 Z" fill="#000000" fill-rule="nonzero" fill-opacity="1" /><path clip-path="url(#clip650)" d="M169.255 1439.42 L157.45 1457.87 L169.255 1457.87 L169.255 1439.42 M168.029 1435.35 L173.908 1435.35 L173.908 1457.87 L178.839 1457.87 L178.839 1461.76 L173.908 1461.76 L173.908 1469.91 L169.255 1469.91 L169.255 1461.76 L153.654 1461.76 L153.654 1457.24 L168.029 1435.35 Z" fill="#000000" fill-rule="nonzero" fill-opacity="1" /><path clip-path="url(#clip650)" d="M53.1449 1238.48 L60.7837 1238.48 L60.7837 1212.12 L52.4736 1213.78 L52.4736 1209.52 L60.7374 1207.86 L65.4133 1207.86 L65.4133 1238.48 L73.0522 1238.48 L73.0522 1242.42 L53.1449 1242.42 L53.1449 1238.48 Z" fill="#000000" fill-rule="nonzero" fill-opacity="1" /><path clip-path="url(#clip650)" d="M82.4966 1236.54 L87.3808 1236.54 L87.3808 1242.42 L82.4966 1242.42 L82.4966 1236.54 Z" fill="#000000" fill-rule="nonzero" fill-opacity="1" /><path clip-path="url(#clip650)" d="M107.566 1210.94 Q103.955 1210.94 102.126 1214.5 Q100.321 1218.04 100.321 1225.17 Q100.321 1232.28 102.126 1235.84 Q103.955 1239.38 107.566 1239.38 Q111.2 1239.38 113.006 1235.84 Q114.834 1232.28 114.834 1225.17 Q114.834 1218.04 113.006 1214.5 Q111.2 1210.94 107.566 1210.94 M107.566 1207.23 Q113.376 1207.23 116.432 1211.84 Q119.51 1216.42 119.51 1225.17 Q119.51 1233.9 116.432 1238.5 Q113.376 1243.09 107.566 1243.09 Q101.756 1243.09 98.6771 1238.5 Q95.6215 1233.9 95.6215 1225.17 Q95.6215 1216.42 98.6771 1211.84 Q101.756 1207.23 107.566 1207.23 Z" fill="#000000" fill-rule="nonzero" fill-opacity="1" /><path clip-path="url(#clip650)" d="M137.728 1210.94 Q134.117 1210.94 132.288 1214.5 Q130.482 1218.04 130.482 1225.17 Q130.482 1232.28 132.288 1235.84 Q134.117 1239.38 137.728 1239.38 Q141.362 1239.38 143.168 1235.84 Q144.996 1232.28 144.996 1225.17 Q144.996 1218.04 143.168 1214.5 Q141.362 1210.94 137.728 1210.94 M137.728 1207.23 Q143.538 1207.23 146.593 1211.84 Q149.672 1216.42 149.672 1225.17 Q149.672 1233.9 146.593 1238.5 Q143.538 1243.09 137.728 1243.09 Q131.918 1243.09 128.839 1238.5 Q125.783 1233.9 125.783 1225.17 Q125.783 1216.42 128.839 1211.84 Q131.918 1207.23 137.728 1207.23 Z" fill="#000000" fill-rule="nonzero" fill-opacity="1" /><path clip-path="url(#clip650)" d="M157.936 1207.86 L176.292 1207.86 L176.292 1211.79 L162.218 1211.79 L162.218 1220.26 Q163.237 1219.92 164.255 1219.75 Q165.274 1219.57 166.292 1219.57 Q172.079 1219.57 175.459 1222.74 Q178.839 1225.91 178.839 1231.33 Q178.839 1236.91 175.366 1240.01 Q171.894 1243.09 165.575 1243.09 Q163.399 1243.09 161.13 1242.72 Q158.885 1242.35 156.478 1241.61 L156.478 1236.91 Q158.561 1238.04 160.783 1238.6 Q163.005 1239.15 165.482 1239.15 Q169.487 1239.15 171.825 1237.05 Q174.163 1234.94 174.163 1231.33 Q174.163 1227.72 171.825 1225.61 Q169.487 1223.5 165.482 1223.5 Q163.607 1223.5 161.732 1223.92 Q159.88 1224.34 157.936 1225.22 L157.936 1207.86 Z" fill="#000000" fill-rule="nonzero" fill-opacity="1" /><path clip-path="url(#clip650)" d="M51.9875 1010.99 L59.6263 1010.99 L59.6263 984.627 L51.3162 986.294 L51.3162 982.035 L59.58 980.368 L64.2559 980.368 L64.2559 1010.99 L71.8948 1010.99 L71.8948 1014.93 L51.9875 1014.93 L51.9875 1010.99 Z" fill="#000000" fill-rule="nonzero" fill-opacity="1" /><path clip-path="url(#clip650)" d="M81.3392 1009.05 L86.2234 1009.05 L86.2234 1014.93 L81.3392 1014.93 L81.3392 1009.05 Z" fill="#000000" fill-rule="nonzero" fill-opacity="1" /><path clip-path="url(#clip650)" d="M106.408 983.447 Q102.797 983.447 100.969 987.011 Q99.1632 990.553 99.1632 997.683 Q99.1632 1004.79 100.969 1008.35 Q102.797 1011.9 106.408 1011.9 Q110.043 1011.9 111.848 1008.35 Q113.677 1004.79 113.677 997.683 Q113.677 990.553 111.848 987.011 Q110.043 983.447 106.408 983.447 M106.408 979.743 Q112.219 979.743 115.274 984.349 Q118.353 988.933 118.353 997.683 Q118.353 1006.41 115.274 1011.02 Q112.219 1015.6 106.408 1015.6 Q100.598 1015.6 97.5197 1011.02 Q94.4641 1006.41 94.4641 997.683 Q94.4641 988.933 97.5197 984.349 Q100.598 979.743 106.408 979.743 Z" fill="#000000" fill-rule="nonzero" fill-opacity="1" /><path clip-path="url(#clip650)" d="M136.57 983.447 Q132.959 983.447 131.131 987.011 Q129.325 990.553 129.325 997.683 Q129.325 1004.79 131.131 1008.35 Q132.959 1011.9 136.57 1011.9 Q140.205 1011.9 142.01 1008.35 Q143.839 1004.79 143.839 997.683 Q143.839 990.553 142.01 987.011 Q140.205 983.447 136.57 983.447 M136.57 979.743 Q142.381 979.743 145.436 984.349 Q148.515 988.933 148.515 997.683 Q148.515 1006.41 145.436 1011.02 Q142.381 1015.6 136.57 1015.6 Q130.76 1015.6 127.682 1011.02 Q124.626 1006.41 124.626 997.683 Q124.626 988.933 127.682 984.349 Q130.76 979.743 136.57 979.743 Z" fill="#000000" fill-rule="nonzero" fill-opacity="1" /><path clip-path="url(#clip650)" d="M167.311 995.784 Q164.163 995.784 162.311 997.937 Q160.482 1000.09 160.482 1003.84 Q160.482 1007.57 162.311 1009.74 Q164.163 1011.9 167.311 1011.9 Q170.459 1011.9 172.288 1009.74 Q174.14 1007.57 174.14 1003.84 Q174.14 1000.09 172.288 997.937 Q170.459 995.784 167.311 995.784 M176.593 981.132 L176.593 985.391 Q174.834 984.558 173.029 984.118 Q171.246 983.678 169.487 983.678 Q164.857 983.678 162.404 986.803 Q159.973 989.928 159.626 996.247 Q160.992 994.234 163.052 993.169 Q165.112 992.081 167.589 992.081 Q172.797 992.081 175.806 995.252 Q178.839 998.4 178.839 1003.84 Q178.839 1009.16 175.691 1012.38 Q172.542 1015.6 167.311 1015.6 Q161.316 1015.6 158.144 1011.02 Q154.973 1006.41 154.973 997.683 Q154.973 989.488 158.862 984.627 Q162.751 979.743 169.302 979.743 Q171.061 979.743 172.843 980.09 Q174.649 980.437 176.593 981.132 Z" fill="#000000" fill-rule="nonzero" fill-opacity="1" /><path clip-path="url(#clip650)" d="M53.0523 783.504 L60.6911 783.504 L60.6911 757.138 L52.381 758.805 L52.381 754.546 L60.6449 752.879 L65.3208 752.879 L65.3208 783.504 L72.9596 783.504 L72.9596 787.439 L53.0523 787.439 L53.0523 783.504 Z" fill="#000000" fill-rule="nonzero" fill-opacity="1" /><path clip-path="url(#clip650)" d="M82.404 781.559 L87.2882 781.559 L87.2882 787.439 L82.404 787.439 L82.404 781.559 Z" fill="#000000" fill-rule="nonzero" fill-opacity="1" /><path clip-path="url(#clip650)" d="M107.473 755.958 Q103.862 755.958 102.034 759.523 Q100.228 763.064 100.228 770.194 Q100.228 777.3 102.034 780.865 Q103.862 784.407 107.473 784.407 Q111.108 784.407 112.913 780.865 Q114.742 777.3 114.742 770.194 Q114.742 763.064 112.913 759.523 Q111.108 755.958 107.473 755.958 M107.473 752.254 Q113.283 752.254 116.339 756.861 Q119.418 761.444 119.418 770.194 Q119.418 778.921 116.339 783.527 Q113.283 788.11 107.473 788.11 Q101.663 788.11 98.5845 783.527 Q95.5289 778.921 95.5289 770.194 Q95.5289 761.444 98.5845 756.861 Q101.663 752.254 107.473 752.254 Z" fill="#000000" fill-rule="nonzero" fill-opacity="1" /><path clip-path="url(#clip650)" d="M137.635 755.958 Q134.024 755.958 132.195 759.523 Q130.39 763.064 130.39 770.194 Q130.39 777.3 132.195 780.865 Q134.024 784.407 137.635 784.407 Q141.269 784.407 143.075 780.865 Q144.904 777.3 144.904 770.194 Q144.904 763.064 143.075 759.523 Q141.269 755.958 137.635 755.958 M137.635 752.254 Q143.445 752.254 146.501 756.861 Q149.58 761.444 149.58 770.194 Q149.58 778.921 146.501 783.527 Q143.445 788.11 137.635 788.11 Q131.825 788.11 128.746 783.527 Q125.691 778.921 125.691 770.194 Q125.691 761.444 128.746 756.861 Q131.825 752.254 137.635 752.254 Z" fill="#000000" fill-rule="nonzero" fill-opacity="1" /><path clip-path="url(#clip650)" d="M156.617 752.879 L178.839 752.879 L178.839 754.87 L166.292 787.439 L161.408 787.439 L173.214 756.814 L156.617 756.814 L156.617 752.879 Z" fill="#000000" fill-rule="nonzero" fill-opacity="1" /><path clip-path="url(#clip650)" d="M52.2421 556.015 L59.881 556.015 L59.881 529.65 L51.5708 531.316 L51.5708 527.057 L59.8347 525.39 L64.5106 525.39 L64.5106 556.015 L72.1494 556.015 L72.1494 559.95 L52.2421 559.95 L52.2421 556.015 Z" fill="#000000" fill-rule="nonzero" fill-opacity="1" /><path clip-path="url(#clip650)" d="M81.5938 554.071 L86.478 554.071 L86.478 559.95 L81.5938 559.95 L81.5938 554.071 Z" fill="#000000" fill-rule="nonzero" fill-opacity="1" /><path clip-path="url(#clip650)" d="M106.663 528.469 Q103.052 528.469 101.223 532.034 Q99.4178 535.575 99.4178 542.705 Q99.4178 549.811 101.223 553.376 Q103.052 556.918 106.663 556.918 Q110.297 556.918 112.103 553.376 Q113.932 549.811 113.932 542.705 Q113.932 535.575 112.103 532.034 Q110.297 528.469 106.663 528.469 M106.663 524.765 Q112.473 524.765 115.529 529.372 Q118.608 533.955 118.608 542.705 Q118.608 551.432 115.529 556.038 Q112.473 560.622 106.663 560.622 Q100.853 560.622 97.7743 556.038 Q94.7187 551.432 94.7187 542.705 Q94.7187 533.955 97.7743 529.372 Q100.853 524.765 106.663 524.765 Z" fill="#000000" fill-rule="nonzero" fill-opacity="1" /><path clip-path="url(#clip650)" d="M136.825 528.469 Q133.214 528.469 131.385 532.034 Q129.58 535.575 129.58 542.705 Q129.58 549.811 131.385 553.376 Q133.214 556.918 136.825 556.918 Q140.459 556.918 142.265 553.376 Q144.093 549.811 144.093 542.705 Q144.093 535.575 142.265 532.034 Q140.459 528.469 136.825 528.469 M136.825 524.765 Q142.635 524.765 145.691 529.372 Q148.769 533.955 148.769 542.705 Q148.769 551.432 145.691 556.038 Q142.635 560.622 136.825 560.622 Q131.015 560.622 127.936 556.038 Q124.881 551.432 124.881 542.705 Q124.881 533.955 127.936 529.372 Q131.015 524.765 136.825 524.765 Z" fill="#000000" fill-rule="nonzero" fill-opacity="1" /><path clip-path="url(#clip650)" d="M166.987 543.538 Q163.654 543.538 161.732 545.321 Q159.834 547.103 159.834 550.228 Q159.834 553.353 161.732 555.136 Q163.654 556.918 166.987 556.918 Q170.32 556.918 172.241 555.136 Q174.163 553.33 174.163 550.228 Q174.163 547.103 172.241 545.321 Q170.343 543.538 166.987 543.538 M162.311 541.548 Q159.302 540.807 157.612 538.747 Q155.945 536.687 155.945 533.724 Q155.945 529.58 158.885 527.173 Q161.848 524.765 166.987 524.765 Q172.149 524.765 175.089 527.173 Q178.028 529.58 178.028 533.724 Q178.028 536.687 176.339 538.747 Q174.672 540.807 171.686 541.548 Q175.066 542.335 176.941 544.626 Q178.839 546.918 178.839 550.228 Q178.839 555.251 175.76 557.936 Q172.704 560.622 166.987 560.622 Q161.269 560.622 158.191 557.936 Q155.135 555.251 155.135 550.228 Q155.135 546.918 157.033 544.626 Q158.931 542.335 162.311 541.548 M160.598 534.163 Q160.598 536.849 162.265 538.353 Q163.954 539.858 166.987 539.858 Q169.996 539.858 171.686 538.353 Q173.399 536.849 173.399 534.163 Q173.399 531.478 171.686 529.974 Q169.996 528.469 166.987 528.469 Q163.954 528.469 162.265 529.974 Q160.598 531.478 160.598 534.163 Z" fill="#000000" fill-rule="nonzero" fill-opacity="1" /><path clip-path="url(#clip650)" d="M52.3347 328.526 L59.9736 328.526 L59.9736 302.161 L51.6634 303.827 L51.6634 299.568 L59.9273 297.902 L64.6032 297.902 L64.6032 328.526 L72.242 328.526 L72.242 332.462 L52.3347 332.462 L52.3347 328.526 Z" fill="#000000" fill-rule="nonzero" fill-opacity="1" /><path clip-path="url(#clip650)" d="M81.6864 326.582 L86.5706 326.582 L86.5706 332.462 L81.6864 332.462 L81.6864 326.582 Z" fill="#000000" fill-rule="nonzero" fill-opacity="1" /><path clip-path="url(#clip650)" d="M106.756 300.98 Q103.145 300.98 101.316 304.545 Q99.5104 308.087 99.5104 315.216 Q99.5104 322.323 101.316 325.888 Q103.145 329.429 106.756 329.429 Q110.39 329.429 112.196 325.888 Q114.024 322.323 114.024 315.216 Q114.024 308.087 112.196 304.545 Q110.39 300.98 106.756 300.98 M106.756 297.277 Q112.566 297.277 115.621 301.883 Q118.7 306.466 118.7 315.216 Q118.7 323.943 115.621 328.55 Q112.566 333.133 106.756 333.133 Q100.946 333.133 97.8669 328.55 Q94.8113 323.943 94.8113 315.216 Q94.8113 306.466 97.8669 301.883 Q100.946 297.277 106.756 297.277 Z" fill="#000000" fill-rule="nonzero" fill-opacity="1" /><path clip-path="url(#clip650)" d="M136.918 300.98 Q133.306 300.98 131.478 304.545 Q129.672 308.087 129.672 315.216 Q129.672 322.323 131.478 325.888 Q133.306 329.429 136.918 329.429 Q140.552 329.429 142.357 325.888 Q144.186 322.323 144.186 315.216 Q144.186 308.087 142.357 304.545 Q140.552 300.98 136.918 300.98 M136.918 297.277 Q142.728 297.277 145.783 301.883 Q148.862 306.466 148.862 315.216 Q148.862 323.943 145.783 328.55 Q142.728 333.133 136.918 333.133 Q131.107 333.133 128.029 328.55 Q124.973 323.943 124.973 315.216 Q124.973 306.466 128.029 301.883 Q131.107 297.277 136.918 297.277 Z" fill="#000000" fill-rule="nonzero" fill-opacity="1" /><path clip-path="url(#clip650)" d="M157.218 331.744 L157.218 327.485 Q158.978 328.318 160.783 328.758 Q162.589 329.198 164.325 329.198 Q168.954 329.198 171.385 326.096 Q173.839 322.971 174.186 316.628 Q172.843 318.619 170.783 319.684 Q168.723 320.749 166.223 320.749 Q161.038 320.749 158.005 317.624 Q154.996 314.476 154.996 309.036 Q154.996 303.712 158.144 300.494 Q161.292 297.277 166.524 297.277 Q172.519 297.277 175.667 301.883 Q178.839 306.466 178.839 315.216 Q178.839 323.388 174.95 328.272 Q171.084 333.133 164.533 333.133 Q162.774 333.133 160.968 332.786 Q159.163 332.438 157.218 331.744 M166.524 317.091 Q169.672 317.091 171.501 314.938 Q173.353 312.786 173.353 309.036 Q173.353 305.309 171.501 303.156 Q169.672 300.98 166.524 300.98 Q163.376 300.98 161.524 303.156 Q159.695 305.309 159.695 309.036 Q159.695 312.786 161.524 314.938 Q163.376 317.091 166.524 317.091 Z" fill="#000000" fill-rule="nonzero" fill-opacity="1" /><path clip-path="url(#clip650)" d="M52.1495 101.038 L59.7884 101.038 L59.7884 74.672 L51.4782 76.3387 L51.4782 72.0794 L59.7421 70.4128 L64.418 70.4128 L64.418 101.038 L72.0568 101.038 L72.0568 104.973 L52.1495 104.973 L52.1495 101.038 Z" fill="#000000" fill-rule="nonzero" fill-opacity="1" /><path clip-path="url(#clip650)" d="M81.5012 99.0932 L86.3855 99.0932 L86.3855 104.973 L81.5012 104.973 L81.5012 99.0932 Z" fill="#000000" fill-rule="nonzero" fill-opacity="1" /><path clip-path="url(#clip650)" d="M106.571 73.4915 Q102.959 73.4915 101.131 77.0563 Q99.3252 80.5979 99.3252 87.7275 Q99.3252 94.8339 101.131 98.3987 Q102.959 101.94 106.571 101.94 Q110.205 101.94 112.01 98.3987 Q113.839 94.8339 113.839 87.7275 Q113.839 80.5979 112.01 77.0563 Q110.205 73.4915 106.571 73.4915 M106.571 69.7878 Q112.381 69.7878 115.436 74.3942 Q118.515 78.9775 118.515 87.7275 Q118.515 96.4543 115.436 101.061 Q112.381 105.644 106.571 105.644 Q100.76 105.644 97.6817 101.061 Q94.6262 96.4543 94.6262 87.7275 Q94.6262 78.9775 97.6817 74.3942 Q100.76 69.7878 106.571 69.7878 Z" fill="#000000" fill-rule="nonzero" fill-opacity="1" /><path clip-path="url(#clip650)" d="M127.543 101.038 L135.181 101.038 L135.181 74.672 L126.871 76.3387 L126.871 72.0794 L135.135 70.4128 L139.811 70.4128 L139.811 101.038 L147.45 101.038 L147.45 104.973 L127.543 104.973 L127.543 101.038 Z" fill="#000000" fill-rule="nonzero" fill-opacity="1" /><path clip-path="url(#clip650)" d="M166.894 73.4915 Q163.283 73.4915 161.454 77.0563 Q159.649 80.5979 159.649 87.7275 Q159.649 94.8339 161.454 98.3987 Q163.283 101.94 166.894 101.94 Q170.529 101.94 172.334 98.3987 Q174.163 94.8339 174.163 87.7275 Q174.163 80.5979 172.334 77.0563 Q170.529 73.4915 166.894 73.4915 M166.894 69.7878 Q172.704 69.7878 175.76 74.3942 Q178.839 78.9775 178.839 87.7275 Q178.839 96.4543 175.76 101.061 Q172.704 105.644 166.894 105.644 Q161.084 105.644 158.005 101.061 Q154.95 96.4543 154.95 87.7275 Q154.95 78.9775 158.005 74.3942 Q161.084 69.7878 166.894 69.7878 Z" fill="#000000" fill-rule="nonzero" fill-opacity="1" /><polyline clip-path="url(#clip651)" style="stroke:#009af9; stroke-linecap:round; stroke-linejoin:round; stroke-width:4; stroke-opacity:1; fill:none" points="275.346,87.9763 275.447,87.9763 275.547,87.9763 275.749,87.9763 276.153,87.9763 276.959,87.9763 277.968,87.9763 278.976,87.9763 279.985,87.9763 280.993,87.9763 282.002,87.9763 283.01,87.9763 284.018,87.9763 285.027,87.9763 286.035,87.9763 287.044,87.9763 288.052,87.9763 289.061,87.9763 290.069,87.9763 291.078,87.9763 292.086,87.9763 293.095,87.9763 294.103,87.9763 295.111,87.9763 296.12,87.9763 297.128,87.9763 298.137,87.9763 299.145,87.9763 300.154,87.9763 301.162,87.9763 302.171,87.9763 303.179,87.9763 304.187,87.9763 305.196,87.9763 306.204,87.9763 307.213,87.9763 308.221,87.9763 309.23,87.9763 310.238,87.9763 311.247,87.9763 312.255,87.9763 313.264,87.9763 314.272,87.9763 315.28,87.9763 316.289,87.9763 317.297,87.9763 318.306,87.9763 319.314,87.9763 320.323,87.9763 321.331,87.9763 322.34,87.9763 323.348,87.9763 324.356,87.9763 325.365,87.9763 326.373,87.9763 327.382,87.9763 328.39,87.9763 329.399,87.9763 330.407,87.9763 331.416,87.9763 332.424,87.9763 333.433,87.9763 334.441,87.9763 335.449,87.9763 336.458,87.9763 337.466,87.9763 338.475,87.9763 339.483,87.9763 340.492,87.9763 341.5,87.9763 342.509,87.9763 343.517,87.9763 344.526,87.9763 345.534,87.9763 346.542,87.9763 347.551,87.9763 348.559,87.9763 349.568,87.9763 350.576,87.9763 351.585,87.9763 352.593,87.9763 353.602,87.9763 354.61,87.9763 355.618,87.9763 356.627,87.9763 357.635,87.9763 358.644,87.9763 359.652,87.9763 360.661,87.9763 361.669,87.9763 362.678,87.9763 363.686,87.9763 364.695,87.9763 365.703,87.9763 366.711,87.9763 367.72,87.9763 368.728,87.9763 369.737,87.9763 370.745,87.9763 371.754,87.9763 372.762,87.9763 373.771,87.9763 374.779,87.9763 375.788,87.9763 376.191,87.9763 376.204,1108.09 376.207,1108.42 376.209,1108.66 376.214,1109.14 376.223,1110.09 376.241,1111.98 376.278,1115.73 376.351,1123.08 376.498,1137.2 376.644,1150.75 376.791,1163.78 377.084,1188.63 377.377,1211.68 377.963,1252.62 378.55,1287.39 379.136,1316.83 379.722,1341.68 380.309,1362.49 380.895,1379.89 381.904,1403.23 382.912,1420.33 383.92,1432.24 384.929,1439.93 385.937,1444.24 386.946,1445.72 387.954,1444.96 388.963,1442.41 389.971,1438.4 390.98,1433.18 391.988,1426.95 392.996,1419.85 394.005,1411.99 395.013,1403.48 396.022,1394.43 397.03,1384.93 398.039,1375.04 399.047,1364.83 400.056,1354.37 401.064,1343.7 402.073,1332.88 403.081,1321.94 404.089,1310.96 405.098,1299.94 406.106,1288.9 407.115,1277.9 408.123,1267.08 409.132,1256.29 410.14,1245.4 411.149,1234.89 412.157,1224.84 413.166,1214.53 414.174,1204.14 415.182,1194.72 416.191,1185.66 417.199,1175.92 418.208,1166.57 419.216,1158.08 420.225,1149.61 421.233,1141.1 422.242,1133.11 423.25,1125.66 424.258,1118.02 425.267,1110.43 426.275,1103.89 427.284,1097.67 428.292,1090.56 429.301,1084.06 430.309,1079.09 431.318,1073.67 432.326,1067.04 433.335,1062.28 434.343,1058.14 435.351,1052.64 436.36,1048 437.368,1045.32 438.377,1041.58 439.385,1037.14 440.394,1034.25 441.402,1031.76 442.411,1027.36 443.419,1023.78 444.428,1023.49 445.436,1020.19 446.444,1016.9 447.453,1016.03 448.461,1014.77 449.47,1012.36 450.478,1010.84 451.487,1010.01 452.495,1008.52 453.504,1007.12 454.512,1007.17 455.52,1006.88 456.529,1004.81 457.537,1004.89 458.546,1005.12 459.554,1003.99 460.563,1003.3 461.571,1003.47 462.58,1003.17 463.588,1002.54 464.597,1002.4 465.605,1002.23 466.613,1001.16 467.622,1000.33 468.63,1000.58 469.639,999.378 470.647,997.996 471.656,997.375 472.664,996.32 473.673,994.533 474.681,992.845 475.69,991.135 476.698,988.843 477.706,986.288 478.715,984.005 479.723,981.212 480.732,977.354 481.74,974.058 482.749,970.46 483.757,965.929 484.766,961.229 485.774,956.534 486.782,951.28 487.791,945.344 488.799,939.498 489.808,933.299 490.816,926.3 491.825,919.241 492.833,912.377 493.842,904.453 494.85,896.151 495.859,887.762 496.867,879.001 497.875,869.81 498.884,860.397 499.892,850.803 500.901,840.762 501.909,830.35 502.918,819.978 503.926,809.424 504.935,798.213 505.943,787.012 506.952,775.887 507.96,764.403 508.968,752.685 509.977,741.02 510.985,729.294 511.994,717.333 513.002,705.422 514.011,693.744 515.019,681.871 516.028,669.759 517.036,658.136 518.044,646.619 519.053,635.031 520.061,623.644 521.07,612.538 522.078,601.572 523.087,590.79 524.095,580.349 525.104,570.2 526.112,560.225 527.121,550.618 528.129,541.547 529.137,532.725 530.146,524.062 531.154,516.073 532.163,508.588 533.171,501.329 534.18,494.512 535.188,488.279 536.197,482.471 537.205,477 538.214,472.124 539.222,467.871 540.23,463.843 541.239,460.296 542.247,457.44 543.256,454.815 544.264,452.555 545.273,450.919 546.281,449.716 547.29,448.796 548.298,448.291 549.306,448.274 550.315,448.492 551.323,448.888 552.332,449.8 553.34,450.982 554.349,452.2 555.357,453.883 556.366,455.731 557.374,457.552 558.383,459.561 559.391,461.763 560.399,463.961 561.408,466.1 562.416,468.377 563.425,470.616 564.433,472.662 565.442,474.723 566.45,476.825 567.459,478.552 568.467,480.104 569.475,481.535 570.484,482.72 571.492,483.624 572.501,484.289 573.509,484.695 574.518,484.737 575.526,484.427 576.535,483.867 577.543,482.96 578.552,481.551 579.56,479.809 580.568,477.838 581.577,475.395 582.585,472.389 583.594,469.186 584.602,465.641 585.611,461.518 586.619,457.089 587.628,452.494 588.636,447.379 589.645,441.802 590.653,436.041 591.661,429.98 592.67,423.355 593.678,416.513 594.687,409.708 595.695,402.495 596.704,394.849 597.712,387.176 598.721,379.459 599.729,371.254 600.737,362.856 601.746,354.805 602.754,346.575 603.763,338.013 604.771,329.566 605.78,321.263 606.788,312.865 607.797,304.411 608.805,296.277 609.814,288.205 610.822,280.066 611.83,272.329 612.839,265.025 613.847,257.456 614.856,250.179 615.864,243.485 616.873,236.961 617.881,230.576 618.89,224.644 619.898,219.212 620.907,213.893 621.915,208.977 622.923,204.683 623.932,200.581 624.94,196.605 625.949,193.541 626.957,190.859 627.966,188.272 628.974,186.223 629.983,184.773 630.991,183.616 631.999,182.71 633.008,182.463 634.016,182.593 635.025,182.87 636.033,183.724 637.042,185.232 638.05,186.583 639.059,188.299 640.067,190.659 641.076,193.196 642.084,195.827 643.092,198.838 644.101,202.141 645.109,205.523 646.118,209.114 647.126,213.064 648.135,217.03 649.143,220.84 650.152,225.087 651.16,229.385 652.169,233.48 653.177,237.658 654.185,241.954 655.194,246.123 656.202,250.177 657.211,254.232 658.219,258.166 659.228,261.823 660.236,265.395 661.245,268.986 662.253,272.142 663.261,275.086 664.27,277.962 665.278,280.544 666.287,282.773 667.295,284.788 668.304,286.554 669.312,287.966 670.321,289.08 671.329,289.983 672.338,290.528 673.346,290.623 674.354,290.56 675.363,290.178 676.371,289.369 677.38,288.277 678.388,286.935 679.397,285.247 680.405,283.201 681.414,280.943 682.422,278.402 683.431,275.507 684.439,272.407 685.447,269.156 686.456,265.539 687.464,261.665 688.473,257.682 689.481,253.509 690.49,249.102 691.498,244.559 692.507,239.94 693.515,235.141 694.523,230.175 695.532,225.243 696.54,220.312 697.549,215.146 698.557,210.037 699.566,204.988 700.574,199.883 701.583,194.797 702.591,189.818 703.6,184.905 704.608,180.025 705.616,175.29 706.625,170.746 707.633,166.255 708.642,161.843 709.65,157.749 710.659,153.891 711.667,150.028 712.676,146.387 713.684,143.096 714.693,139.99 715.701,137.05 716.709,134.401 717.718,132.069 718.726,129.894 719.735,127.924 720.743,126.387 721.752,125.142 722.76,123.909 723.769,123.001 724.777,122.663 725.785,122.446 726.794,122.284 727.802,122.552 728.811,123.23 729.819,123.838 730.828,124.597 731.836,126.028 732.845,127.539 733.853,129.147 734.862,131.088 735.87,133.25 736.878,135.502 737.887,137.943 738.895,140.652 739.904,143.443 740.912,146.252 741.921,149.35 742.929,152.696 743.938,155.867 744.946,159.195 745.955,162.708 746.963,166.21 747.971,169.72 748.98,173.33 749.988,176.971 750.997,180.551 752.005,184.156 753.014,187.839 754.022,191.408 755.031,194.819 756.039,198.337 757.047,201.898 758.056,205.139 759.064,208.284 760.073,211.502 761.081,214.579 762.09,217.446 763.098,220.242 764.107,222.998 765.115,225.499 766.124,227.767 767.132,230.098 768.14,232.333 769.149,234.081 770.157,235.862 771.166,237.618 772.174,238.903 773.183,240.179 774.191,241.563 775.2,242.352 776.208,242.704 777.217,243.638 778.225,244.562 779.233,244.416 780.242,244.465 781.25,244.612 782.259,244.331 783.267,243.875 784.276,243.5 785.284,242.962 786.293,242.075 787.301,241.24 788.309,240.414 789.318,239.289 790.326,238.022 791.335,236.964 792.343,235.755 793.352,234.095 794.36,232.541 795.369,231.203 796.377,229.613 797.386,227.77 798.394,226.294 799.402,224.944 800.411,223.025 801.419,221.275 802.428,219.692 803.436,217.977 804.445,216.254 805.453,214.684 806.462,213.146 807.47,211.58 808.479,210.095 809.487,208.745 810.495,207.387 811.504,206.024 812.512,204.889 813.521,203.91 814.529,202.786 815.538,201.746 816.546,201.082 817.555,200.461 818.563,199.779 819.571,199.293 820.58,199.007 821.588,198.763 822.597,198.569 823.605,198.636 824.614,198.876 825.622,199.016 826.631,199.289 827.639,200.014 828.648,200.574 829.656,201.222 830.664,202.195 831.673,203.239 832.681,204.272 833.69,205.479 834.698,206.913 835.707,208.302 836.715,209.675 837.724,211.409 838.732,213.163 839.741,214.759 840.749,216.729 841.757,218.841 842.766,220.78 843.774,222.784 844.783,224.984 845.791,227.183 846.8,229.277 847.808,231.548 848.817,234.003 849.825,236.196 850.833,238.427 851.842,240.921 852.85,243.143 853.859,245.268 854.867,247.6 855.876,249.918 856.884,252.065 857.893,254.21 858.901,256.453 859.91,258.515 860.918,260.356 861.926,262.396 862.935,264.361 863.943,266.01 864.952,267.813 865.96,269.621 866.969,271.143 867.977,272.559 868.986,274.009 869.994,275.334 871.003,276.432 872.011,277.543 873.019,278.703 874.028,279.532 875.036,280.253 876.045,281.087 877.053,281.621 878.062,281.972 879.07,282.393 880.079,282.73 881.087,282.859 882.095,282.914 883.104,282.986 884.112,282.871 885.121,282.535 886.129,282.309 887.138,282.133 888.146,281.549 889.155,281.004 890.163,280.511 891.172,279.85 892.18,279.095 893.188,278.374 894.197,277.609 895.205,276.715 896.214,275.838 897.222,275.049 898.231,274.114 899.239,273.031 900.248,272.165 901.256,271.407 902.265,270.332 903.273,269.276 904.281,268.451 905.29,267.588 906.298,266.634 907.307,265.785 908.315,265.083 909.324,264.267 910.332,263.398 911.341,262.852 912.349,262.269 913.357,261.503 914.366,261.122 915.374,260.872 916.383,260.438 917.391,260.09 918.4,259.969 919.408,259.871 920.417,259.702 921.425,259.772 922.434,260.088 923.442,260.186 924.45,260.405 925.459,260.985 926.467,261.269 927.476,261.673 928.484,262.425 929.493,263.16 930.501,263.826 931.51,264.667 932.518,265.711 933.527,266.619 934.535,267.48 935.543,268.751 936.552,269.939 937.56,270.871 938.569,272.374 939.577,273.852 940.586,275.01 941.594,276.342 942.603,277.894 943.611,279.328 944.619,280.611 945.628,282.188 946.636,283.741 947.645,285.034 948.653,286.561 949.662,288.395 950.67,289.653 951.679,290.935 952.687,292.567 953.696,294.039 954.704,295.278 955.712,296.626 956.721,298.118 957.729,299.282 958.738,300.423 959.746,301.788 960.755,302.87 961.763,303.567 962.772,304.777 963.78,305.889 964.788,306.561 965.797,307.3 966.805,308.178 967.814,308.844 968.822,309.251 969.831,309.877 970.839,310.41 971.848,310.594 972.856,310.936 973.865,311.544 974.873,311.504 975.881,311.432 976.89,311.675 977.898,311.719 978.907,311.492 979.915,311.35 980.924,311.343 981.932,310.989 982.941,310.607 983.949,310.458 984.958,310.037 985.966,309.236 986.974,308.983 987.983,308.662 988.991,307.93 990,307.309 991.008,306.88 992.017,306.29 993.025,305.496 994.034,304.99 995.042,304.46 996.05,303.649 997.059,303.075 998.067,302.853 999.076,302.058 1000.08,301.317 1001.09,300.985 1002.1,300.543 1003.11,299.918 1004.12,299.474 1005.13,299.26 1006.14,298.789 1007.14,298.382 1008.15,298.307 1009.16,298.046 1010.17,297.49 1011.18,297.579 1012.19,297.686 1013.19,297.457 1014.2,297.423 1015.21,297.66 1016.22,297.806 1017.23,297.814 1018.24,298.18 1019.24,298.581 1020.25,298.752 1021.26,299.214 1022.27,300.079 1023.28,300.4 1024.29,300.811 1025.3,301.665 1026.3,302.43 1027.31,303.026 1028.32,303.816 1029.33,304.846 1030.34,305.613 1031.35,306.44 1032.35,307.591 1033.36,308.536 1034.37,309.158 1035.38,310.408 1036.39,311.641 1037.4,312.496 1038.41,313.504 1039.41,314.742 1040.42,315.835 1041.43,316.731 1042.44,317.933 1043.45,319.107 1044.46,320.13 1045.46,321.191 1046.47,322.304 1047.48,323.34 1048.49,324.326 1049.5,325.333 1050.51,326.333 1051.52,327.235 1052.52,328.104 1053.53,329.037 1054.54,329.898 1055.55,330.582 1056.56,331.344 1057.57,332.122 1058.57,332.757 1059.58,333.33 1060.59,333.921 1061.6,334.451 1062.61,334.862 1063.62,335.277 1064.63,335.721 1065.63,336.002 1066.64,336.147 1067.65,336.434 1068.66,336.723 1069.67,336.715 1070.68,336.688 1071.68,336.774 1072.69,336.755 1073.7,336.606 1074.71,336.476 1075.72,336.379 1076.73,336.118 1077.74,335.755 1078.74,335.563 1079.75,335.355 1080.76,334.804 1081.77,334.466 1082.78,334.141 1083.79,333.616 1084.79,333.102 1085.8,332.68 1086.81,332.191 1087.82,331.583 1088.83,331.089 1089.84,330.694 1090.84,330.064 1091.85,329.484 1092.86,329.111 1093.87,328.497 1094.88,327.826 1095.89,327.364 1096.9,326.911 1097.9,326.351 1098.91,325.845 1099.92,325.48 1100.93,325.015 1101.94,324.436 1102.95,324.116 1103.95,323.802 1104.96,323.3 1105.97,323.048 1106.98,322.901 1107.99,322.599 1109,322.321 1110.01,322.194 1111.01,322.072 1112.02,321.868 1113.03,321.808 1114.04,321.922 1115.05,321.858 1116.06,321.835 1117.06,322.051 1118.07,322.114 1119.08,322.14 1120.09,322.368 1121.1,322.645 1122.11,322.852 1123.12,323.116 1124.12,323.52 1125.13,323.862 1126.14,324.109 1127.15,324.573 1128.16,325.185 1129.17,325.505 1130.17,325.958 1131.18,326.547 1132.19,327.052 1133.2,327.542 1134.21,328.131 1135.22,328.734 1136.23,329.297 1137.23,329.885 1138.24,330.535 1139.25,331.139 1140.26,331.688 1141.27,332.337 1142.28,333.041 1143.28,333.578 1144.29,334.09 1145.3,334.79 1146.31,335.444 1147.32,335.964 1148.33,336.524 1149.34,337.132 1150.34,337.672 1151.35,338.139 1152.36,338.686 1153.37,339.253 1154.38,339.637 1155.39,339.997 1156.39,340.571 1157.4,340.982 1158.41,341.241 1159.42,341.602 1160.43,341.984 1161.44,342.243 1162.44,342.472 1163.45,342.734 1164.46,342.951 1165.47,343.077 1166.48,343.231 1167.49,343.428 1168.5,343.482 1169.5,343.441 1170.51,343.562 1171.52,343.686 1172.53,343.553 1173.54,343.436 1174.55,343.441 1175.55,343.361 1176.56,343.185 1177.57,343.048 1178.58,342.955 1179.59,342.727 1180.6,342.431 1181.61,342.309 1182.61,342.175 1183.62,341.745 1184.63,341.536 1185.64,341.348 1186.65,340.981 1187.66,340.641 1188.66,340.398 1189.67,340.1 1190.68,339.698 1191.69,339.414 1192.7,339.228 1193.71,338.822 1194.72,338.471 1195.72,338.209 1196.73,337.894 1197.74,337.552 1198.75,337.268 1199.76,337.001 1200.77,336.708 1201.77,336.43 1202.78,336.2 1203.79,335.954 1204.8,335.679 1205.81,335.477 1206.82,335.334 1207.83,335.105 1208.83,334.864 1209.84,334.77 1210.85,334.677 1211.86,334.517 1212.87,334.405 1213.88,334.354 1214.88,334.289 1215.89,334.203 1216.9,334.199 1217.91,334.246 1218.92,334.203 1219.93,334.167 1220.94,334.311 1221.94,334.388 1222.95,334.392 1223.96,334.493 1224.97,334.646 1225.98,334.752 1226.99,334.867 1227.99,335.037 1229,335.211 1230.01,335.353 1231.02,335.543 1232.03,335.793 1233.04,335.977 1234.05,336.12 1235.05,336.396 1236.06,336.703 1237.07,336.861 1238.08,337.047 1239.09,337.335 1240.1,337.587 1241.1,337.789 1242.11,338.031 1243.12,338.318 1244.13,338.526 1245.14,338.695 1246.15,338.989 1247.15,339.285 1248.16,339.384 1249.17,339.582 1250.18,339.876 1251.19,340.063 1252.2,340.2 1253.21,340.403 1254.21,340.6 1255.22,340.737 1256.23,340.876 1257.24,341.053 1258.25,341.175 1259.26,341.226 1260.26,341.356 1261.27,341.528 1262.28,341.539 1263.29,341.51 1264.3,341.651 1265.31,341.75 1266.32,341.719 1267.32,341.723 1268.33,341.774 1269.34,341.765 1270.35,341.692 1271.36,341.7 1272.37,341.738 1273.37,341.614 1274.38,341.473 1275.39,341.551 1276.4,341.493 1277.41,341.307 1278.42,341.232 1279.43,341.197 1280.43,341.069 1281.44,340.932 1282.45,340.848 1283.46,340.746 1284.47,340.582 1285.48,340.469 1286.48,340.422 1287.49,340.268 1288.5,340.048 1289.51,340.007 1290.52,339.998 1291.53,339.774 1292.54,339.589 1293.54,339.547 1294.55,339.452 1295.56,339.291 1296.57,339.193 1297.58,339.162 1298.59,339.028 1299.59,338.852 1300.6,338.863 1301.61,338.887 1302.62,338.652 1303.63,338.573 1304.64,338.645 1305.65,338.583 1306.65,338.474 1307.66,338.477 1308.67,338.492 1309.68,338.446 1310.69,338.425 1311.7,338.482 1312.7,338.483 1313.71,338.411 1314.72,338.473 1315.73,338.618 1316.74,338.559 1317.75,338.584 1318.75,338.689 1319.76,338.728 1320.77,338.753 1321.78,338.838 1322.79,338.928 1323.8,338.986 1324.81,339.059 1325.81,339.17 1326.82,339.25 1327.83,339.293 1328.84,339.405 1329.85,339.553 1330.86,339.607 1331.86,339.663 1332.87,339.783 1333.88,339.887 1334.89,339.953 1335.9,340.04 1336.91,340.158 1337.92,340.226 1338.92,340.26 1339.93,340.373 1340.94,340.499 1341.95,340.495 1342.96,340.541 1343.97,340.653 1344.97,340.704 1345.98,340.718 1346.99,340.771 1348,340.824 1349.01,340.84 1350.02,340.854 1351.03,340.893 1352.03,340.9 1353.04,340.862 1354.05,340.87 1355.06,340.91 1356.07,340.852 1357.08,340.763 1358.08,340.782 1359.09,340.78 1360.1,340.696 1361.11,340.633 1362.12,340.602 1363.13,340.536 1364.14,340.428 1365.14,340.372 1366.15,340.34 1367.16,340.206 1368.17,340.058 1369.18,340.051 1370.19,339.965 1371.19,339.795 1372.2,339.695 1373.21,339.625 1374.22,339.497 1375.23,339.362 1376.24,339.263 1377.25,339.155 1378.25,339.008 1379.26,338.893 1380.27,338.822 1381.28,338.686 1382.29,338.508 1383.3,338.428 1384.3,338.354 1385.31,338.213 1386.32,338.088 1387.33,338.005 1388.34,337.904 1389.35,337.769 1390.36,337.685 1391.36,337.641 1392.37,337.516 1393.38,337.372 1394.39,337.365 1395.4,337.349 1396.41,337.199 1397.41,337.101 1398.42,337.092 1399.43,337.039 1400.44,336.954 1401.45,336.918 1402.46,336.899 1403.46,336.855 1404.47,336.817 1405.48,336.805 1406.49,336.791 1407.5,336.763 1408.51,336.76 1409.52,336.783 1410.52,336.773 1411.53,336.75 1412.54,336.794 1413.55,336.846 1414.56,336.831 1415.57,336.836 1416.57,336.89 1417.58,336.926 1418.59,336.944 1419.6,336.986 1420.61,337.049 1421.62,337.078 1422.63,337.096 1423.63,337.176 1424.64,337.256 1425.65,337.271 1426.66,337.306 1427.67,337.381 1428.68,337.436 1429.68,337.472 1430.69,337.528 1431.7,337.598 1432.71,337.634 1433.72,337.66 1434.73,337.738 1435.74,337.809 1436.74,337.801 1437.75,337.842 1438.76,337.92 1439.77,337.949 1440.78,337.963 1441.79,338.005 1442.79,338.043 1443.8,338.057 1444.81,338.074 1445.82,338.108 1446.83,338.118 1447.84,338.101 1448.85,338.119 1449.85,338.153 1450.86,338.119 1451.87,338.073 1452.88,338.1 1453.89,338.106 1454.9,338.059 1455.9,338.03 1456.91,338.02 1457.92,337.984 1458.93,337.924 1459.94,337.898 1460.95,337.882 1461.96,337.8 1462.96,337.714 1463.97,337.717 1464.98,337.661 1465.99,337.554 1467,337.494 1468.01,337.449 1469.01,337.364 1470.02,337.275 1471.03,337.209 1472.04,337.133 1473.05,337.031 1474.06,336.95 1475.06,336.894 1476.07,336.792 1477.08,336.664 1478.09,336.599 1479.1,336.533 1480.11,336.422 1481.12,336.321 1482.12,336.244 1483.13,336.153 1484.14,336.039 1485.15,335.957 1486.16,335.897 1487.17,335.783 1488.17,335.657 1489.18,335.618 1490.19,335.543 1491.2,335.422 1492.21,335.339 1493.22,335.281 1494.23,335.194 1495.23,335.104 1496.24,335.038 1497.25,334.971 1498.26,334.894 1499.27,334.826 1500.28,334.772 1501.28,334.707 1502.29,334.633 1503.3,334.588 1504.31,334.555 1505.32,334.484 1506.33,334.417 1507.34,334.399 1508.34,334.372 1509.35,334.319 1510.36,334.284 1511.37,334.266 1512.38,334.237 1513.39,334.201 1514.39,334.191 1515.4,334.19 1516.41,334.156 1517.42,334.127 1518.43,334.156 1519.44,334.152 1520.45,334.123 1521.45,334.129 1522.46,334.147 1523.47,334.145 1524.48,334.146 1525.49,334.163 1526.5,334.179 1527.5,334.181 1528.51,334.201 1529.52,334.238 1530.53,334.249 1531.54,334.247 1532.55,334.292 1533.56,334.344 1534.56,334.342 1535.57,334.354 1536.58,334.4 1537.59,334.432 1538.6,334.448 1539.61,334.479 1540.61,334.525 1541.62,334.545 1542.63,334.554 1543.64,334.608 1544.65,334.661 1545.66,334.649 1546.67,334.676 1547.67,334.735 1548.68,334.759 1549.69,334.77 1550.7,334.805 1551.71,334.84 1552.72,334.857 1553.72,334.878 1554.73,334.914 1555.74,334.933 1556.75,334.932 1557.76,334.96 1558.77,335.005 1559.77,335.004 1560.78,335 1561.79,335.026 1562.8,335.043 1563.81,335.04 1564.82,335.047 1565.83,335.067 1566.83,335.064 1567.84,335.043 1568.85,335.06 1569.86,335.083 1570.87,335.056 1571.88,335.034 1572.88,335.042 1573.89,335.036 1574.9,335.012 1575.91,334.999 1576.92,334.998 1577.93,334.972 1578.94,334.932 1579.94,334.93 1580.95,334.931 1581.96,334.868 1582.97,334.836 1583.98,334.836 1584.99,334.803 1585.99,334.756 1587,334.73 1588.01,334.704 1589.02,334.662 1590.03,334.622 1591.04,334.596 1592.05,334.555 1593.05,334.494 1594.06,334.461 1595.07,334.444 1596.08,334.38 1597.09,334.305 1598.1,334.287 1599.1,334.26 1600.11,334.194 1601.12,334.142 1602.13,334.109 1603.14,334.06 1604.15,333.993 1605.16,333.956 1606.16,333.931 1607.17,333.865 1608.18,333.801 1609.19,333.764 1610.2,333.72 1611.21,333.661 1612.21,333.612 1613.22,333.578 1614.23,333.523 1615.24,333.456 1616.25,333.421 1617.26,333.386 1618.27,333.331 1619.27,333.281 1620.28,333.244 1621.29,333.201 1622.3,333.147 1623.31,333.109 1624.32,333.083 1625.32,333.032 1626.33,332.974 1627.34,332.951 1628.35,332.925 1629.36,332.878 1630.37,332.841 1631.37,332.815 1632.38,332.783 1633.39,332.741 1634.4,332.718 1635.41,332.704 1636.42,332.663 1637.43,332.622 1638.43,332.623 1639.44,332.604 1640.45,332.564 1641.46,332.547 1642.47,332.539 1643.48,332.518 1644.48,332.497 1645.49,332.487 1646.5,332.477 1647.51,332.458 1648.52,332.449 1649.53,332.455 1650.54,332.442 1651.54,332.419 1652.55,332.426 1653.56,332.434 1654.57,332.424 1655.58,332.42 1656.59,332.428 1657.59,332.431 1658.6,332.425 1659.61,332.433 1660.62,332.453 1661.63,332.451 1662.64,332.45 1663.65,332.465 1664.65,332.478 1665.66,332.482 1666.67,332.493 1667.68,332.512 1668.69,332.521 1669.7,332.523 1670.7,332.544 1671.71,332.571 1672.72,332.574 1673.73,332.58 1674.74,332.603 1675.75,332.62 1676.76,332.629 1677.76,332.644 1678.77,332.667 1679.78,332.678 1680.79,332.682 1681.8,332.707 1682.81,332.733 1683.81,332.735 1684.82,332.742 1685.83,332.764 1686.84,332.778 1687.85,332.784 1688.86,332.797 1689.87,332.815 1690.87,332.821 1691.88,332.821 1692.89,332.841 1693.9,332.859 1694.91,332.855 1695.92,332.856 1696.92,332.869 1697.93,332.875 1698.94,332.874 1699.95,332.878 1700.96,332.886 1701.97,332.883 1702.98,332.875 1703.98,332.884 1704.99,332.89 1706,332.877 1707.01,332.869 1708.02,332.871 1709.03,332.866 1710.03,332.855 1711.04,332.848 1712.05,332.846 1713.06,332.832 1714.07,332.816 1715.08,332.814 1716.08,332.81 1717.09,332.782 1718.1,332.769 1719.11,332.767 1720.12,332.751 1721.13,332.73 1722.14,332.719 1723.14,332.706 1724.15,332.687 1725.16,332.67 1726.17,332.659 1727.18,332.641 1728.19,332.616 1729.19,332.603 1730.2,332.596 1731.21,332.569 1732.22,332.541 1733.23,332.535 1734.24,332.524 1735.25,332.499 1736.25,332.481 1737.26,332.47 1738.27,332.453 1739.28,332.43 1740.29,332.418 1741.3,332.412 1742.3,332.39 1743.31,332.37 1744.32,332.361 1745.33,332.348 1746.34,332.332 1747.35,332.319 1748.36,332.312 1749.36,332.297 1750.37,332.279 1751.38,332.275 1752.39,332.273 1753.4,332.256 1754.41,332.242 1755.41,332.239 1756.42,332.233 1757.43,332.222 1758.44,332.215 1759.45,332.214 1760.46,332.205 1761.47,332.194 1762.47,332.196 1763.48,332.199 1764.49,332.183 1765.5,332.179 1766.51,332.184 1767.52,332.181 1768.52,332.173 1769.53,332.174 1770.54,332.175 1771.55,332.171 1772.56,332.169 1773.57,332.172 1774.58,332.171 1775.58,332.164 1776.59,332.166 1777.6,332.174 1778.61,332.167 1779.62,332.157 1780.63,332.166 1781.63,332.171 1782.64,332.164 1783.65,332.163 1784.66,332.167 1785.67,332.166 1786.68,332.16 1787.68,332.162 1788.69,332.169 1789.7,332.16 1790.71,332.151 1791.72,332.159 1792.73,332.162 1793.74,332.154 1794.74,332.152 1795.75,332.154 1796.76,332.152 1797.77,332.145 1798.78,332.146 1799.79,332.15 1800.79,332.14 1801.8,332.131 1802.81,332.137 1803.82,332.139 1804.83,332.131 1805.84,332.128 1806.85,332.129 1807.85,332.126 1808.86,332.12 1809.87,332.121 1810.88,332.124 1811.89,332.116 1812.9,332.109 1813.9,332.12 1814.91,332.119 1815.92,332.109 1816.93,332.111 1817.94,332.116 1818.95,332.113 1819.96,332.112 1820.96,332.115 1821.97,332.118 1822.98,332.116 1823.99,332.119 1825,332.128 1826.01,332.129 1827.01,332.125 1828.02,332.137 1829.03,332.151 1830.04,332.148 1831.05,332.15 1832.06,332.162 1833.07,332.171 1834.07,332.175 1835.08,332.184 1836.09,332.198 1837.1,332.204 1838.11,332.208 1839.12,332.226 1840.12,332.244 1841.13,332.247 1842.14,332.255 1843.15,332.273 1844.16,332.287 1845.17,332.296 1846.18,332.31 1847.18,332.328 1848.19,332.339 1849.2,332.347 1850.21,332.368 1851.22,332.389 1852.23,332.39 1853.23,332.405 1854.24,332.428 1855.25,332.44 1856.26,332.449 1857.27,332.466 1858.28,332.482 1859.29,332.493 1860.29,332.505 1861.3,332.522 1862.31,332.533 1863.32,332.539 1864.33,332.553 1865.34,332.572 1866.34,332.577 1867.35,332.581 1868.36,332.594 1869.37,332.604 1870.38,332.608 1871.39,332.614 1872.39,332.624 1873.4,332.627 1874.41,332.625 1875.42,332.632 1876.43,332.638 1877.44,332.637 1878.45,332.636 1879.45,332.638 1880.46,332.637 1881.47,332.631 1882.48,332.629 1883.49,332.63 1884.5,332.622 1885.5,332.61 1886.51,332.608 1887.52,332.605 1888.53,332.593 1889.54,332.583 1890.55,332.576 1891.56,332.565 1892.56,332.55 1893.57,332.54 1894.58,332.533 1895.59,332.515 1896.6,332.497 1897.61,332.488 1898.61,332.477 1899.62,332.459 1900.63,332.443 1901.64,332.431 1902.65,332.416 1903.66,332.397 1904.67,332.384 1905.67,332.373 1906.68,332.353 1907.69,332.333 1908.7,332.327 1909.71,332.313 1910.72,332.292 1911.72,332.279 1912.73,332.269 1913.74,332.254 1914.75,332.24 1915.76,332.23 1916.77,332.219 1917.78,332.206 1918.78,332.197 1919.79,332.192 1920.8,332.182 1921.81,332.169 1922.82,332.166 1923.83,332.164 1924.83,332.157 1925.84,332.152 1926.85,332.152 1927.86,332.15 1928.87,332.147 1929.88,332.148 1930.89,332.155 1931.89,332.154 1932.9,332.155 1933.91,332.162 1934.92,332.169 1935.93,332.174 1936.94,332.181 1937.94,332.192 1938.95,332.201 1939.96,332.208 1940.97,332.222 1941.98,332.238 1942.99,332.248 1943.99,332.259 1945,332.276 1946.01,332.292 1947.02,332.306 1948.03,332.323 1949.04,332.342 1950.05,332.358 1951.05,332.373 1952.06,332.394 1953.07,332.417 1954.08,332.43 1955.09,332.448 1956.1,332.472 1957.1,332.491 1958.11,332.507 1959.12,332.528 1960.13,332.548 1961.14,332.566 1962.15,332.585 1963.16,332.605 1964.16,332.623 1965.17,332.638 1966.18,332.657 1967.19,332.678 1968.2,332.692 1969.21,332.705 1970.21,332.722 1971.22,332.738 1972.23,332.75 1973.24,332.763 1974.25,332.778 1975.26,332.788 1976.27,332.796 1977.27,332.807 1978.28,332.818 1979.29,332.825 1980.3,332.831 1981.31,332.839 1982.32,332.845 1983.32,332.847 1984.33,332.852 1985.34,332.857 1986.35,332.857 1987.36,332.854 1988.37,332.858 1989.38,332.86 1990.38,332.854 1991.39,332.85 1992.4,332.849 1993.41,332.845 1994.42,332.839 1995.43,332.833 1996.43,332.829 1997.44,332.821 1998.45,332.811 1999.46,332.806 2000.47,332.8 2001.48,332.785 2002.49,332.776 2003.49,332.77 2004.5,332.759 2005.51,332.746 2006.52,332.737 2007.53,332.728 2008.54,332.716 2009.54,332.704 2010.55,332.695 2011.56,332.684 2012.57,332.67 2013.58,332.661 2014.59,332.654 2015.59,332.641 2016.6,332.629 2017.61,332.621 2018.62,332.612 2019.63,332.602 2020.64,332.593 2021.65,332.587 2022.65,332.579 2023.66,332.569 2024.67,332.564 2025.68,332.56 2026.69,332.553 2027.7,332.548 2028.7,332.545 2029.71,332.541 2030.72,332.537 2031.73,332.536 2032.74,332.537 2033.75,332.534 2034.76,332.532 2035.76,332.536 2036.77,332.54 2037.78,332.538 2038.79,332.54 2039.8,332.546 2040.81,332.55 2041.81,332.553 2042.82,332.559 2043.83,332.566 2044.84,332.572 2045.85,332.578 2046.86,332.586 2047.87,332.595 2048.87,332.602 2049.88,332.612 2050.89,332.622 2051.9,332.631 2052.91,332.64 2053.92,332.652 2054.92,332.664 2055.93,332.673 2056.94,332.684 2057.95,332.696 2058.96,332.708 2059.97,332.718 2060.98,332.73 2061.98,332.742 2062.99,332.753 2064,332.763 2065.01,332.776 2066.02,332.789 2067.03,332.797 2068.03,332.807 2069.04,332.82 2070.05,332.83 2071.06,332.839 2072.07,332.849 2073.08,332.859 2074.09,332.868 2075.09,332.876 2076.1,332.885 2077.11,332.893 2078.12,332.899 2079.13,332.907 2080.14,332.915 2081.14,332.919 2082.15,332.923 2083.16,332.93 2084.17,332.936 2085.18,332.939 2086.19,332.942 2087.2,332.947 2088.2,332.949 2089.21,332.95 2090.22,332.953 2091.23,332.956 2092.24,332.956 2093.25,332.955 2094.25,332.958 2095.26,332.958 2096.27,332.956 2097.28,332.955 2098.29,332.955 2099.3,332.953 2100.3,332.951 2101.31,332.95 2102.32,332.948 2103.33,332.944 2104.34,332.942 2105.35,332.941 2106.36,332.938 2107.36,332.933 2108.37,332.931 2109.38,332.931 2110.39,332.925 2111.4,332.921 2112.41,332.919 2113.41,332.917 2114.42,332.912 2115.43,332.909 2116.44,332.908 2117.45,332.904 2118.46,332.9 2119.47,332.899 2120.47,332.899 2121.48,332.895 2122.49,332.892 2123.5,332.891 2124.51,332.89 2125.52,332.887 2126.52,332.887 2127.53,332.887 2128.54,332.885 2129.55,332.883 2130.56,332.885 2131.57,332.887 2132.58,332.883 2133.58,332.884 2134.59,332.887 2135.6,332.888 2136.61,332.887 2137.62,332.889 2138.63,332.892 2139.63,332.893 2140.64,332.894 2141.65,332.897 2142.66,332.899 2143.67,332.9 2144.68,332.903 2145.69,332.908 2146.69,332.909 2147.7,332.909 2148.71,332.914 2149.72,332.919 2150.73,332.92 2151.74,332.922 2152.74,332.927 2153.75,332.929 2154.76,332.93 2155.77,332.934 2156.78,332.939 2157.79,332.94 2158.8,332.941 2159.8,332.945 2160.81,332.947 2161.82,332.949 2162.83,332.95 2163.84,332.953 2164.85,332.954 2165.85,332.954 2166.86,332.957 2167.87,332.96 2168.88,332.959 2169.89,332.958 2170.9,332.96 2171.9,332.961 2172.91,332.96 2173.92,332.959 2174.93,332.96 2175.94,332.959 2176.95,332.956 2177.96,332.957 2178.96,332.957 2179.97,332.953 2180.98,332.951 2181.99,332.952 2183,332.949 2184.01,332.946 2185.01,332.944 2186.02,332.943 2187.03,332.94 2188.04,332.937 2189.05,332.935 2190.06,332.933 2191.07,332.928 2192.07,332.926 2193.08,332.926 2194.09,332.921 2195.1,332.916 2196.11,332.916 2197.12,332.915 2198.12,332.911 2199.13,332.908 2200.14,332.907 2201.15,332.904 2202.16,332.901 2203.17,332.9 2204.18,332.9 2205.18,332.898 2206.19,332.895 2207.2,332.895 2208.21,332.895 2209.22,332.893 2210.23,332.893 2211.23,332.894 2212.24,332.894 2213.25,332.893 2214.26,332.894 2215.27,332.896 2216.28,332.897 2217.29,332.898 2218.29,332.9 2219.3,332.903 2220.31,332.904 2221.32,332.907 2222.33,332.912 2223.34,332.914 2224.34,332.916 2225.35,332.921 2226.36,332.926 2227.37,332.93 2228.38,332.934 2229.39,332.939 2230.4,332.944 2231.4,332.949 2232.41,332.954 2233.42,332.961 2234.43,332.966 2235.44,332.97 2236.45,332.978 2237.45,332.984 2238.46,332.989 2239.47,332.995 2240.48,333.002 2241.49,333.007 2242.5,333.013 2243.51,333.019 2244.51,333.025 2245.52,333.031 2246.53,333.037 2247.54,333.043 2248.55,333.048 2249.56,333.052 2250.56,333.058 2251.57,333.064 2252.58,333.068 2253.59,333.073 2254.6,333.077 2255.61,333.082 2256.61,333.085 2257.62,333.088 2258.63,333.093 2259.64,333.095 2260.65,333.097 2261.66,333.1 2262.67,333.102 2263.67,333.103 2264.68,333.104 2265.69,333.106 2266.7,333.106 2267.71,333.105 2268.72,333.106 2269.72,333.106 2270.73,333.104 2271.74,333.102 2272.75,333.102 2273.76,333.1 2274.77,333.097 2275.78,333.095 2276.78,333.092 2277.79,333.089 2278.8,333.084 2279.81,333.081 2280.82,333.078 2281.83,333.073 2282.83,333.068 2283.84,333.064 2284.85,333.059 2285.86,333.054 2286.87,333.049 2287.88,333.044 2288.89,333.038 2289.89,333.032 2290.9,333.027 2291.91,333.022 2292.25,333.019 "/>
<path clip-path="url(#clip650)" d="M2015.27 1438.47 L2281.49 1438.47 L2281.49 1334.79 L2015.27 1334.79  Z" fill="#ffffff" fill-rule="evenodd" fill-opacity="1"/>
<polyline clip-path="url(#clip650)" style="stroke:#000000; stroke-linecap:round; stroke-linejoin:round; stroke-width:4; stroke-opacity:1; fill:none" points="2015.27,1438.47 2281.49,1438.47 2281.49,1334.79 2015.27,1334.79 2015.27,1438.47 "/>
<polyline clip-path="url(#clip650)" style="stroke:#009af9; stroke-linecap:round; stroke-linejoin:round; stroke-width:4; stroke-opacity:1; fill:none" points="2039.02,1386.63 2181.55,1386.63 "/>
<path clip-path="url(#clip650)" d="M2219.15 1406.32 Q2217.34 1410.95 2215.63 1412.36 Q2213.92 1413.78 2211.05 1413.78 L2207.65 1413.78 L2207.65 1410.21 L2210.15 1410.21 Q2211.9 1410.21 2212.88 1409.38 Q2213.85 1408.54 2215.03 1405.44 L2215.79 1403.5 L2205.31 1377.99 L2209.82 1377.99 L2217.92 1398.27 L2226.02 1377.99 L2230.54 1377.99 L2219.15 1406.32 Z" fill="#000000" fill-rule="nonzero" fill-opacity="1" /><path clip-path="url(#clip650)" d="M2237.83 1399.98 L2245.47 1399.98 L2245.47 1373.61 L2237.16 1375.28 L2237.16 1371.02 L2245.42 1369.35 L2250.1 1369.35 L2250.1 1399.98 L2257.74 1399.98 L2257.74 1403.91 L2237.83 1403.91 L2237.83 1399.98 Z" fill="#000000" fill-rule="nonzero" fill-opacity="1" /></svg>
