<?xml version="1.0" encoding="utf-8"?>
<svg xmlns="http://www.w3.org/2000/svg" xmlns:xlink="http://www.w3.org/1999/xlink" width="600" height="400" viewBox="0 0 2400 1600">
<defs>
  <clipPath id="clip030">
    <rect x="0" y="0" width="2400" height="1600"/>
  </clipPath>
</defs>
<path clip-path="url(#clip030)" d="M0 1600 L2400 1600 L2400 0 L0 0  Z" fill="#ffffff" fill-rule="evenodd" fill-opacity="1"/>
<defs>
  <clipPath id="clip031">
    <rect x="249" y="47" width="2104" height="1377"/>
  </clipPath>
</defs>
<path clip-path="url(#clip030)" d="M249.542 1423.18 L2352.76 1423.18 L2352.76 47.2441 L249.542 47.2441  Z" fill="#ffffff" fill-rule="evenodd" fill-opacity="1"/>
<polyline clip-path="url(#clip031)" style="stroke:#000000; stroke-linecap:round; stroke-linejoin:round; stroke-width:2; stroke-opacity:0.1; fill:none" points="309.067,1423.18 309.067,47.2441 "/>
<polyline clip-path="url(#clip031)" style="stroke:#000000; stroke-linecap:round; stroke-linejoin:round; stroke-width:2; stroke-opacity:0.1; fill:none" points="970.455,1423.18 970.455,47.2441 "/>
<polyline clip-path="url(#clip031)" style="stroke:#000000; stroke-linecap:round; stroke-linejoin:round; stroke-width:2; stroke-opacity:0.1; fill:none" points="1631.84,1423.18 1631.84,47.2441 "/>
<polyline clip-path="url(#clip031)" style="stroke:#000000; stroke-linecap:round; stroke-linejoin:round; stroke-width:2; stroke-opacity:0.1; fill:none" points="2293.23,1423.18 2293.23,47.2441 "/>
<polyline clip-path="url(#clip031)" style="stroke:#000000; stroke-linecap:round; stroke-linejoin:round; stroke-width:2; stroke-opacity:0.1; fill:none" points="249.542,1341.69 2352.76,1341.69 "/>
<polyline clip-path="url(#clip031)" style="stroke:#000000; stroke-linecap:round; stroke-linejoin:round; stroke-width:2; stroke-opacity:0.1; fill:none" points="249.542,1053.29 2352.76,1053.29 "/>
<polyline clip-path="url(#clip031)" style="stroke:#000000; stroke-linecap:round; stroke-linejoin:round; stroke-width:2; stroke-opacity:0.1; fill:none" points="249.542,764.889 2352.76,764.889 "/>
<polyline clip-path="url(#clip031)" style="stroke:#000000; stroke-linecap:round; stroke-linejoin:round; stroke-width:2; stroke-opacity:0.1; fill:none" points="249.542,476.487 2352.76,476.487 "/>
<polyline clip-path="url(#clip031)" style="stroke:#000000; stroke-linecap:round; stroke-linejoin:round; stroke-width:2; stroke-opacity:0.1; fill:none" points="249.542,188.085 2352.76,188.085 "/>
<polyline clip-path="url(#clip030)" style="stroke:#000000; stroke-linecap:round; stroke-linejoin:round; stroke-width:4; stroke-opacity:1; fill:none" points="249.542,1423.18 2352.76,1423.18 "/>
<polyline clip-path="url(#clip030)" style="stroke:#000000; stroke-linecap:round; stroke-linejoin:round; stroke-width:4; stroke-opacity:1; fill:none" points="309.067,1423.18 309.067,1404.28 "/>
<polyline clip-path="url(#clip030)" style="stroke:#000000; stroke-linecap:round; stroke-linejoin:round; stroke-width:4; stroke-opacity:1; fill:none" points="970.455,1423.18 970.455,1404.28 "/>
<polyline clip-path="url(#clip030)" style="stroke:#000000; stroke-linecap:round; stroke-linejoin:round; stroke-width:4; stroke-opacity:1; fill:none" points="1631.84,1423.18 1631.84,1404.28 "/>
<polyline clip-path="url(#clip030)" style="stroke:#000000; stroke-linecap:round; stroke-linejoin:round; stroke-width:4; stroke-opacity:1; fill:none" points="2293.23,1423.18 2293.23,1404.28 "/>
<path clip-path="url(#clip030)" d="M309.067 1454.1 Q305.456 1454.1 303.627 1457.66 Q301.822 1461.2 301.822 1468.33 Q301.822 1475.44 303.627 1479.01 Q305.456 1482.55 309.067 1482.55 Q312.701 1482.55 314.507 1479.01 Q316.335 1475.44 316.335 1468.33 Q316.335 1461.2 314.507 1457.66 Q312.701 1454.1 309.067 1454.1 M309.067 1450.39 Q314.877 1450.39 317.933 1455 Q321.011 1459.58 321.011 1468.33 Q321.011 1477.06 317.933 1481.67 Q314.877 1486.25 309.067 1486.25 Q303.257 1486.25 300.178 1481.67 Q297.123 1477.06 297.123 1468.33 Q297.123 1459.58 300.178 1455 Q303.257 1450.39 309.067 1450.39 Z" fill="#000000" fill-rule="nonzero" fill-opacity="1" /><path clip-path="url(#clip030)" d="M945.143 1481.64 L952.781 1481.64 L952.781 1455.28 L944.471 1456.95 L944.471 1452.69 L952.735 1451.02 L957.411 1451.02 L957.411 1481.64 L965.05 1481.64 L965.05 1485.58 L945.143 1485.58 L945.143 1481.64 Z" fill="#000000" fill-rule="nonzero" fill-opacity="1" /><path clip-path="url(#clip030)" d="M984.494 1454.1 Q980.883 1454.1 979.054 1457.66 Q977.249 1461.2 977.249 1468.33 Q977.249 1475.44 979.054 1479.01 Q980.883 1482.55 984.494 1482.55 Q988.128 1482.55 989.934 1479.01 Q991.763 1475.44 991.763 1468.33 Q991.763 1461.2 989.934 1457.66 Q988.128 1454.1 984.494 1454.1 M984.494 1450.39 Q990.304 1450.39 993.36 1455 Q996.439 1459.58 996.439 1468.33 Q996.439 1477.06 993.36 1481.67 Q990.304 1486.25 984.494 1486.25 Q978.684 1486.25 975.605 1481.67 Q972.55 1477.06 972.55 1468.33 Q972.55 1459.58 975.605 1455 Q978.684 1450.39 984.494 1450.39 Z" fill="#000000" fill-rule="nonzero" fill-opacity="1" /><path clip-path="url(#clip030)" d="M1610.62 1481.64 L1626.94 1481.64 L1626.94 1485.58 L1604.99 1485.58 L1604.99 1481.64 Q1607.65 1478.89 1612.24 1474.26 Q1616.84 1469.61 1618.02 1468.27 Q1620.27 1465.74 1621.15 1464.01 Q1622.05 1462.25 1622.05 1460.56 Q1622.05 1457.8 1620.11 1456.07 Q1618.19 1454.33 1615.08 1454.33 Q1612.88 1454.33 1610.43 1455.09 Q1608 1455.86 1605.22 1457.41 L1605.22 1452.69 Q1608.05 1451.55 1610.5 1450.97 Q1612.95 1450.39 1614.99 1450.39 Q1620.36 1450.39 1623.56 1453.08 Q1626.75 1455.77 1626.75 1460.26 Q1626.75 1462.39 1625.94 1464.31 Q1625.15 1466.2 1623.05 1468.8 Q1622.47 1469.47 1619.37 1472.69 Q1616.26 1475.88 1610.62 1481.64 Z" fill="#000000" fill-rule="nonzero" fill-opacity="1" /><path clip-path="url(#clip030)" d="M1646.75 1454.1 Q1643.14 1454.1 1641.31 1457.66 Q1639.5 1461.2 1639.5 1468.33 Q1639.5 1475.44 1641.31 1479.01 Q1643.14 1482.55 1646.75 1482.55 Q1650.38 1482.55 1652.19 1479.01 Q1654.02 1475.44 1654.02 1468.33 Q1654.02 1461.2 1652.19 1457.66 Q1650.38 1454.1 1646.75 1454.1 M1646.75 1450.39 Q1652.56 1450.39 1655.62 1455 Q1658.69 1459.58 1658.69 1468.33 Q1658.69 1477.06 1655.62 1481.67 Q1652.56 1486.25 1646.75 1486.25 Q1640.94 1486.25 1637.86 1481.67 Q1634.81 1477.06 1634.81 1468.33 Q1634.81 1459.58 1637.86 1455 Q1640.94 1450.39 1646.75 1450.39 Z" fill="#000000" fill-rule="nonzero" fill-opacity="1" /><path clip-path="url(#clip030)" d="M2282.07 1466.95 Q2285.43 1467.66 2287.31 1469.93 Q2289.2 1472.2 2289.2 1475.53 Q2289.2 1480.65 2285.68 1483.45 Q2282.17 1486.25 2275.68 1486.25 Q2273.51 1486.25 2271.19 1485.81 Q2268.9 1485.39 2266.45 1484.54 L2266.45 1480.02 Q2268.39 1481.16 2270.71 1481.74 Q2273.02 1482.32 2275.55 1482.32 Q2279.94 1482.32 2282.24 1480.58 Q2284.55 1478.84 2284.55 1475.53 Q2284.55 1472.48 2282.4 1470.77 Q2280.27 1469.03 2276.45 1469.03 L2272.42 1469.03 L2272.42 1465.19 L2276.63 1465.19 Q2280.08 1465.19 2281.91 1463.82 Q2283.74 1462.43 2283.74 1459.84 Q2283.74 1457.18 2281.84 1455.77 Q2279.97 1454.33 2276.45 1454.33 Q2274.53 1454.33 2272.33 1454.75 Q2270.13 1455.16 2267.49 1456.04 L2267.49 1451.88 Q2270.15 1451.14 2272.47 1450.77 Q2274.81 1450.39 2276.87 1450.39 Q2282.19 1450.39 2285.29 1452.83 Q2288.39 1455.23 2288.39 1459.35 Q2288.39 1462.22 2286.75 1464.21 Q2285.11 1466.18 2282.07 1466.95 Z" fill="#000000" fill-rule="nonzero" fill-opacity="1" /><path clip-path="url(#clip030)" d="M2308.07 1454.1 Q2304.46 1454.1 2302.63 1457.66 Q2300.82 1461.2 2300.82 1468.33 Q2300.82 1475.44 2302.63 1479.01 Q2304.46 1482.55 2308.07 1482.55 Q2311.7 1482.55 2313.51 1479.01 Q2315.34 1475.44 2315.34 1468.33 Q2315.34 1461.2 2313.51 1457.66 Q2311.7 1454.1 2308.07 1454.1 M2308.07 1450.39 Q2313.88 1450.39 2316.93 1455 Q2320.01 1459.58 2320.01 1468.33 Q2320.01 1477.06 2316.93 1481.67 Q2313.88 1486.25 2308.07 1486.25 Q2302.26 1486.25 2299.18 1481.67 Q2296.12 1477.06 2296.12 1468.33 Q2296.12 1459.58 2299.18 1455 Q2302.26 1450.39 2308.07 1450.39 Z" fill="#000000" fill-rule="nonzero" fill-opacity="1" /><path clip-path="url(#clip030)" d="M1240.31 1522.27 L1240.31 1532.4 L1252.37 1532.4 L1252.37 1536.95 L1240.31 1536.95 L1240.31 1556.3 Q1240.31 1560.66 1241.49 1561.9 Q1242.7 1563.14 1246.36 1563.14 L1252.37 1563.14 L1252.37 1568.04 L1246.36 1568.04 Q1239.58 1568.04 1237 1565.53 Q1234.42 1562.98 1234.42 1556.3 L1234.42 1536.95 L1230.12 1536.95 L1230.12 1532.4 L1234.42 1532.4 L1234.42 1522.27 L1240.31 1522.27 Z" fill="#000000" fill-rule="nonzero" fill-opacity="1" /><path clip-path="url(#clip030)" d="M1260.07 1532.4 L1265.93 1532.4 L1265.93 1568.04 L1260.07 1568.04 L1260.07 1532.4 M1260.07 1518.52 L1265.93 1518.52 L1265.93 1525.93 L1260.07 1525.93 L1260.07 1518.52 Z" fill="#000000" fill-rule="nonzero" fill-opacity="1" /><path clip-path="url(#clip030)" d="M1305.94 1539.24 Q1308.14 1535.29 1311.19 1533.41 Q1314.25 1531.54 1318.38 1531.54 Q1323.95 1531.54 1326.98 1535.45 Q1330 1539.33 1330 1546.53 L1330 1568.04 L1324.11 1568.04 L1324.11 1546.72 Q1324.11 1541.59 1322.3 1539.11 Q1320.48 1536.63 1316.76 1536.63 Q1312.21 1536.63 1309.57 1539.65 Q1306.93 1542.68 1306.93 1547.9 L1306.93 1568.04 L1301.04 1568.04 L1301.04 1546.72 Q1301.04 1541.56 1299.22 1539.11 Q1297.41 1536.63 1293.62 1536.63 Q1289.13 1536.63 1286.49 1539.68 Q1283.85 1542.71 1283.85 1547.9 L1283.85 1568.04 L1277.96 1568.04 L1277.96 1532.4 L1283.85 1532.4 L1283.85 1537.93 Q1285.86 1534.66 1288.66 1533.1 Q1291.46 1531.54 1295.31 1531.54 Q1299.19 1531.54 1301.9 1533.51 Q1304.63 1535.48 1305.94 1539.24 Z" fill="#000000" fill-rule="nonzero" fill-opacity="1" /><path clip-path="url(#clip030)" d="M1372.17 1548.76 L1372.17 1551.62 L1345.25 1551.62 Q1345.63 1557.67 1348.88 1560.85 Q1352.15 1564 1357.98 1564 Q1361.35 1564 1364.5 1563.17 Q1367.69 1562.35 1370.81 1560.69 L1370.81 1566.23 Q1367.65 1567.57 1364.34 1568.27 Q1361.03 1568.97 1357.63 1568.97 Q1349.1 1568.97 1344.1 1564 Q1339.14 1559.04 1339.14 1550.57 Q1339.14 1541.82 1343.85 1536.69 Q1348.59 1531.54 1356.61 1531.54 Q1363.8 1531.54 1367.97 1536.18 Q1372.17 1540.8 1372.17 1548.76 M1366.32 1547.04 Q1366.25 1542.23 1363.61 1539.37 Q1361 1536.5 1356.67 1536.5 Q1351.77 1536.5 1348.81 1539.27 Q1345.88 1542.04 1345.44 1547.07 L1366.32 1547.04 Z" fill="#000000" fill-rule="nonzero" fill-opacity="1" /><polyline clip-path="url(#clip030)" style="stroke:#000000; stroke-linecap:round; stroke-linejoin:round; stroke-width:4; stroke-opacity:1; fill:none" points="249.542,1423.18 249.542,47.2441 "/>
<polyline clip-path="url(#clip030)" style="stroke:#000000; stroke-linecap:round; stroke-linejoin:round; stroke-width:4; stroke-opacity:1; fill:none" points="249.542,1341.69 268.44,1341.69 "/>
<polyline clip-path="url(#clip030)" style="stroke:#000000; stroke-linecap:round; stroke-linejoin:round; stroke-width:4; stroke-opacity:1; fill:none" points="249.542,1053.29 268.44,1053.29 "/>
<polyline clip-path="url(#clip030)" style="stroke:#000000; stroke-linecap:round; stroke-linejoin:round; stroke-width:4; stroke-opacity:1; fill:none" points="249.542,764.889 268.44,764.889 "/>
<polyline clip-path="url(#clip030)" style="stroke:#000000; stroke-linecap:round; stroke-linejoin:round; stroke-width:4; stroke-opacity:1; fill:none" points="249.542,476.487 268.44,476.487 "/>
<polyline clip-path="url(#clip030)" style="stroke:#000000; stroke-linecap:round; stroke-linejoin:round; stroke-width:4; stroke-opacity:1; fill:none" points="249.542,188.085 268.44,188.085 "/>
<path clip-path="url(#clip030)" d="M127.107 1327.49 Q123.496 1327.49 121.668 1331.06 Q119.862 1334.6 119.862 1341.73 Q119.862 1348.83 121.668 1352.4 Q123.496 1355.94 127.107 1355.94 Q130.742 1355.94 132.547 1352.4 Q134.376 1348.83 134.376 1341.73 Q134.376 1334.6 132.547 1331.06 Q130.742 1327.49 127.107 1327.49 M127.107 1323.79 Q132.917 1323.79 135.973 1328.39 Q139.052 1332.98 139.052 1341.73 Q139.052 1350.45 135.973 1355.06 Q132.917 1359.64 127.107 1359.64 Q121.297 1359.64 118.218 1355.06 Q115.163 1350.45 115.163 1341.73 Q115.163 1332.98 118.218 1328.39 Q121.297 1323.79 127.107 1323.79 Z" fill="#000000" fill-rule="nonzero" fill-opacity="1" /><path clip-path="url(#clip030)" d="M147.269 1353.09 L152.153 1353.09 L152.153 1358.97 L147.269 1358.97 L147.269 1353.09 Z" fill="#000000" fill-rule="nonzero" fill-opacity="1" /><path clip-path="url(#clip030)" d="M163.149 1355.04 L170.788 1355.04 L170.788 1328.67 L162.477 1330.34 L162.477 1326.08 L170.741 1324.41 L175.417 1324.41 L175.417 1355.04 L183.056 1355.04 L183.056 1358.97 L163.149 1358.97 L163.149 1355.04 Z" fill="#000000" fill-rule="nonzero" fill-opacity="1" /><path clip-path="url(#clip030)" d="M191.32 1324.41 L213.542 1324.41 L213.542 1326.4 L200.996 1358.97 L196.112 1358.97 L207.917 1328.35 L191.32 1328.35 L191.32 1324.41 Z" fill="#000000" fill-rule="nonzero" fill-opacity="1" /><path clip-path="url(#clip030)" d="M126.297 1039.09 Q122.686 1039.09 120.857 1042.65 Q119.052 1046.2 119.052 1053.33 Q119.052 1060.43 120.857 1064 Q122.686 1067.54 126.297 1067.54 Q129.931 1067.54 131.737 1064 Q133.566 1060.43 133.566 1053.33 Q133.566 1046.2 131.737 1042.65 Q129.931 1039.09 126.297 1039.09 M126.297 1035.39 Q132.107 1035.39 135.163 1039.99 Q138.242 1044.58 138.242 1053.33 Q138.242 1062.05 135.163 1066.66 Q132.107 1071.24 126.297 1071.24 Q120.487 1071.24 117.408 1066.66 Q114.353 1062.05 114.353 1053.33 Q114.353 1044.58 117.408 1039.99 Q120.487 1035.39 126.297 1035.39 Z" fill="#000000" fill-rule="nonzero" fill-opacity="1" /><path clip-path="url(#clip030)" d="M146.459 1064.69 L151.343 1064.69 L151.343 1070.57 L146.459 1070.57 L146.459 1064.69 Z" fill="#000000" fill-rule="nonzero" fill-opacity="1" /><path clip-path="url(#clip030)" d="M162.339 1066.64 L169.977 1066.64 L169.977 1040.27 L161.667 1041.94 L161.667 1037.68 L169.931 1036.01 L174.607 1036.01 L174.607 1066.64 L182.246 1066.64 L182.246 1070.57 L162.339 1070.57 L162.339 1066.64 Z" fill="#000000" fill-rule="nonzero" fill-opacity="1" /><path clip-path="url(#clip030)" d="M201.69 1054.16 Q198.357 1054.16 196.436 1055.94 Q194.538 1057.72 194.538 1060.85 Q194.538 1063.97 196.436 1065.76 Q198.357 1067.54 201.69 1067.54 Q205.024 1067.54 206.945 1065.76 Q208.866 1063.95 208.866 1060.85 Q208.866 1057.72 206.945 1055.94 Q205.047 1054.16 201.69 1054.16 M197.014 1052.17 Q194.005 1051.43 192.315 1049.37 Q190.649 1047.31 190.649 1044.34 Q190.649 1040.2 193.588 1037.79 Q196.551 1035.39 201.69 1035.39 Q206.852 1035.39 209.792 1037.79 Q212.732 1040.2 212.732 1044.34 Q212.732 1047.31 211.042 1049.37 Q209.375 1051.43 206.389 1052.17 Q209.769 1052.95 211.644 1055.25 Q213.542 1057.54 213.542 1060.85 Q213.542 1065.87 210.463 1068.56 Q207.408 1071.24 201.69 1071.24 Q195.973 1071.24 192.894 1068.56 Q189.838 1065.87 189.838 1060.85 Q189.838 1057.54 191.737 1055.25 Q193.635 1052.95 197.014 1052.17 M195.301 1044.78 Q195.301 1047.47 196.968 1048.97 Q198.658 1050.48 201.69 1050.48 Q204.699 1050.48 206.389 1048.97 Q208.102 1047.47 208.102 1044.78 Q208.102 1042.1 206.389 1040.59 Q204.699 1039.09 201.69 1039.09 Q198.658 1039.09 196.968 1040.59 Q195.301 1042.1 195.301 1044.78 Z" fill="#000000" fill-rule="nonzero" fill-opacity="1" /><path clip-path="url(#clip030)" d="M126.39 750.687 Q122.779 750.687 120.95 754.252 Q119.144 757.794 119.144 764.923 Q119.144 772.03 120.95 775.595 Q122.779 779.136 126.39 779.136 Q130.024 779.136 131.83 775.595 Q133.658 772.03 133.658 764.923 Q133.658 757.794 131.83 754.252 Q130.024 750.687 126.39 750.687 M126.39 746.984 Q132.2 746.984 135.255 751.59 Q138.334 756.173 138.334 764.923 Q138.334 773.65 135.255 778.257 Q132.2 782.84 126.39 782.84 Q120.58 782.84 117.501 778.257 Q114.445 773.65 114.445 764.923 Q114.445 756.173 117.501 751.59 Q120.58 746.984 126.39 746.984 Z" fill="#000000" fill-rule="nonzero" fill-opacity="1" /><path clip-path="url(#clip030)" d="M146.552 776.289 L151.436 776.289 L151.436 782.169 L146.552 782.169 L146.552 776.289 Z" fill="#000000" fill-rule="nonzero" fill-opacity="1" /><path clip-path="url(#clip030)" d="M162.431 778.233 L170.07 778.233 L170.07 751.868 L161.76 753.535 L161.76 749.275 L170.024 747.609 L174.7 747.609 L174.7 778.233 L182.338 778.233 L182.338 782.169 L162.431 782.169 L162.431 778.233 Z" fill="#000000" fill-rule="nonzero" fill-opacity="1" /><path clip-path="url(#clip030)" d="M191.922 781.451 L191.922 777.192 Q193.681 778.025 195.487 778.465 Q197.292 778.905 199.028 778.905 Q203.658 778.905 206.088 775.803 Q208.542 772.678 208.889 766.335 Q207.547 768.326 205.487 769.391 Q203.426 770.456 200.926 770.456 Q195.741 770.456 192.709 767.331 Q189.7 764.183 189.7 758.743 Q189.7 753.419 192.848 750.201 Q195.996 746.984 201.227 746.984 Q207.223 746.984 210.371 751.59 Q213.542 756.173 213.542 764.923 Q213.542 773.095 209.653 777.979 Q205.787 782.84 199.237 782.84 Q197.477 782.84 195.672 782.493 Q193.866 782.145 191.922 781.451 M201.227 766.798 Q204.375 766.798 206.204 764.646 Q208.056 762.493 208.056 758.743 Q208.056 755.016 206.204 752.863 Q204.375 750.687 201.227 750.687 Q198.079 750.687 196.227 752.863 Q194.399 755.016 194.399 758.743 Q194.399 762.493 196.227 764.646 Q198.079 766.798 201.227 766.798 Z" fill="#000000" fill-rule="nonzero" fill-opacity="1" /><path clip-path="url(#clip030)" d="M126.205 462.286 Q122.593 462.286 120.765 465.85 Q118.959 469.392 118.959 476.522 Q118.959 483.628 120.765 487.193 Q122.593 490.734 126.205 490.734 Q129.839 490.734 131.644 487.193 Q133.473 483.628 133.473 476.522 Q133.473 469.392 131.644 465.85 Q129.839 462.286 126.205 462.286 M126.205 458.582 Q132.015 458.582 135.07 463.188 Q138.149 467.772 138.149 476.522 Q138.149 485.248 135.07 489.855 Q132.015 494.438 126.205 494.438 Q120.394 494.438 117.316 489.855 Q114.26 485.248 114.26 476.522 Q114.26 467.772 117.316 463.188 Q120.394 458.582 126.205 458.582 Z" fill="#000000" fill-rule="nonzero" fill-opacity="1" /><path clip-path="url(#clip030)" d="M146.366 487.887 L151.251 487.887 L151.251 493.767 L146.366 493.767 L146.366 487.887 Z" fill="#000000" fill-rule="nonzero" fill-opacity="1" /><path clip-path="url(#clip030)" d="M165.464 489.832 L181.783 489.832 L181.783 493.767 L159.839 493.767 L159.839 489.832 Q162.501 487.077 167.084 482.447 Q171.69 477.795 172.871 476.452 Q175.116 473.929 175.996 472.193 Q176.899 470.434 176.899 468.744 Q176.899 465.989 174.954 464.253 Q173.033 462.517 169.931 462.517 Q167.732 462.517 165.278 463.281 Q162.848 464.045 160.07 465.596 L160.07 460.874 Q162.894 459.739 165.348 459.161 Q167.802 458.582 169.839 458.582 Q175.209 458.582 178.403 461.267 Q181.598 463.952 181.598 468.443 Q181.598 470.573 180.788 472.494 Q180.001 474.392 177.894 476.985 Q177.315 477.656 174.214 480.873 Q171.112 484.068 165.464 489.832 Z" fill="#000000" fill-rule="nonzero" fill-opacity="1" /><path clip-path="url(#clip030)" d="M201.598 462.286 Q197.987 462.286 196.158 465.85 Q194.352 469.392 194.352 476.522 Q194.352 483.628 196.158 487.193 Q197.987 490.734 201.598 490.734 Q205.232 490.734 207.037 487.193 Q208.866 483.628 208.866 476.522 Q208.866 469.392 207.037 465.85 Q205.232 462.286 201.598 462.286 M201.598 458.582 Q207.408 458.582 210.463 463.188 Q213.542 467.772 213.542 476.522 Q213.542 485.248 210.463 489.855 Q207.408 494.438 201.598 494.438 Q195.787 494.438 192.709 489.855 Q189.653 485.248 189.653 476.522 Q189.653 467.772 192.709 463.188 Q195.787 458.582 201.598 458.582 Z" fill="#000000" fill-rule="nonzero" fill-opacity="1" /><path clip-path="url(#clip030)" d="M127.431 173.884 Q123.82 173.884 121.992 177.449 Q120.186 180.99 120.186 188.12 Q120.186 195.226 121.992 198.791 Q123.82 202.333 127.431 202.333 Q131.066 202.333 132.871 198.791 Q134.7 195.226 134.7 188.12 Q134.7 180.99 132.871 177.449 Q131.066 173.884 127.431 173.884 M127.431 170.18 Q133.242 170.18 136.297 174.787 Q139.376 179.37 139.376 188.12 Q139.376 196.847 136.297 201.453 Q133.242 206.036 127.431 206.036 Q121.621 206.036 118.543 201.453 Q115.487 196.847 115.487 188.12 Q115.487 179.37 118.543 174.787 Q121.621 170.18 127.431 170.18 Z" fill="#000000" fill-rule="nonzero" fill-opacity="1" /><path clip-path="url(#clip030)" d="M147.593 199.486 L152.478 199.486 L152.478 205.365 L147.593 205.365 L147.593 199.486 Z" fill="#000000" fill-rule="nonzero" fill-opacity="1" /><path clip-path="url(#clip030)" d="M166.69 201.43 L183.01 201.43 L183.01 205.365 L161.065 205.365 L161.065 201.43 Q163.727 198.675 168.311 194.046 Q172.917 189.393 174.098 188.05 Q176.343 185.527 177.223 183.791 Q178.126 182.032 178.126 180.342 Q178.126 177.587 176.181 175.851 Q174.26 174.115 171.158 174.115 Q168.959 174.115 166.505 174.879 Q164.075 175.643 161.297 177.194 L161.297 172.472 Q164.121 171.338 166.575 170.759 Q169.028 170.18 171.065 170.18 Q176.436 170.18 179.63 172.865 Q182.825 175.55 182.825 180.041 Q182.825 182.171 182.014 184.092 Q181.227 185.99 179.121 188.583 Q178.542 189.254 175.44 192.472 Q172.339 195.666 166.69 201.43 Z" fill="#000000" fill-rule="nonzero" fill-opacity="1" /><path clip-path="url(#clip030)" d="M193.635 201.43 L201.274 201.43 L201.274 175.064 L192.963 176.731 L192.963 172.472 L201.227 170.805 L205.903 170.805 L205.903 201.43 L213.542 201.43 L213.542 205.365 L193.635 205.365 L193.635 201.43 Z" fill="#000000" fill-rule="nonzero" fill-opacity="1" /><path clip-path="url(#clip030)" d="M33.8307 977.952 Q33.2578 978.939 33.0032 980.117 Q32.7167 981.262 32.7167 982.663 Q32.7167 987.628 35.9632 990.302 Q39.1779 992.944 45.2253 992.944 L64.0042 992.944 L64.0042 998.832 L28.3562 998.832 L28.3562 992.944 L33.8944 992.944 Q30.6479 991.097 29.0883 988.137 Q27.4968 985.177 27.4968 980.944 Q27.4968 980.339 27.5923 979.607 Q27.656 978.875 27.8151 977.984 L33.8307 977.952 Z" fill="#000000" fill-rule="nonzero" fill-opacity="1" /><path clip-path="url(#clip030)" d="M32.4621 959.428 Q32.4621 964.139 36.1542 966.876 Q39.8145 969.613 46.212 969.613 Q52.6095 969.613 56.3017 966.908 Q59.9619 964.171 59.9619 959.428 Q59.9619 954.749 56.2698 952.012 Q52.5777 949.275 46.212 949.275 Q39.8781 949.275 36.186 952.012 Q32.4621 954.749 32.4621 959.428 M27.4968 959.428 Q27.4968 951.789 32.4621 947.429 Q37.4273 943.068 46.212 943.068 Q54.9649 943.068 59.9619 947.429 Q64.9272 951.789 64.9272 959.428 Q64.9272 967.099 59.9619 971.459 Q54.9649 975.788 46.212 975.788 Q37.4273 975.788 32.4621 971.459 Q27.4968 967.099 27.4968 959.428 Z" fill="#000000" fill-rule="nonzero" fill-opacity="1" /><path clip-path="url(#clip030)" d="M18.2347 927.568 L28.3562 927.568 L28.3562 915.505 L32.9077 915.505 L32.9077 927.568 L52.2594 927.568 Q56.6199 927.568 57.8613 926.39 Q59.1026 925.181 59.1026 921.52 L59.1026 915.505 L64.0042 915.505 L64.0042 921.52 Q64.0042 928.3 61.4897 930.878 Q58.9434 933.456 52.2594 933.456 L32.9077 933.456 L32.9077 937.753 L28.3562 937.753 L28.3562 933.456 L18.2347 933.456 L18.2347 927.568 Z" fill="#000000" fill-rule="nonzero" fill-opacity="1" /><path clip-path="url(#clip030)" d="M32.4621 893.989 Q32.4621 898.699 36.1542 901.436 Q39.8145 904.174 46.212 904.174 Q52.6095 904.174 56.3017 901.468 Q59.9619 898.731 59.9619 893.989 Q59.9619 889.31 56.2698 886.573 Q52.5777 883.835 46.212 883.835 Q39.8781 883.835 36.186 886.573 Q32.4621 889.31 32.4621 893.989 M27.4968 893.989 Q27.4968 886.35 32.4621 881.989 Q37.4273 877.629 46.212 877.629 Q54.9649 877.629 59.9619 881.989 Q64.9272 886.35 64.9272 893.989 Q64.9272 901.659 59.9619 906.02 Q54.9649 910.348 46.212 910.348 Q37.4273 910.348 32.4621 906.02 Q27.4968 901.659 27.4968 893.989 Z" fill="#000000" fill-rule="nonzero" fill-opacity="1" /><path clip-path="url(#clip030)" d="M33.8307 847.264 Q33.2578 848.251 33.0032 849.429 Q32.7167 850.574 32.7167 851.975 Q32.7167 856.94 35.9632 859.614 Q39.1779 862.256 45.2253 862.256 L64.0042 862.256 L64.0042 868.144 L28.3562 868.144 L28.3562 862.256 L33.8944 862.256 Q30.6479 860.41 29.0883 857.449 Q27.4968 854.489 27.4968 850.256 Q27.4968 849.651 27.5923 848.919 Q27.656 848.187 27.8151 847.296 L33.8307 847.264 Z" fill="#000000" fill-rule="nonzero" fill-opacity="1" /><path clip-path="url(#clip030)" d="M46.0847 804.2 Q46.0847 811.298 47.7079 814.035 Q49.3312 816.773 53.2461 816.773 Q56.3653 816.773 58.2114 814.736 Q60.0256 812.667 60.0256 809.134 Q60.0256 804.264 56.5881 801.336 Q53.1188 798.376 47.3897 798.376 L46.0847 798.376 L46.0847 804.2 M43.6657 792.519 L64.0042 792.519 L64.0042 798.376 L58.5933 798.376 Q61.8398 800.381 63.3994 803.373 Q64.9272 806.365 64.9272 810.693 Q64.9272 816.168 61.8716 819.414 Q58.7843 822.629 53.6281 822.629 Q47.6125 822.629 44.5569 818.619 Q41.5014 814.576 41.5014 806.587 L41.5014 798.376 L40.9285 798.376 Q36.8862 798.376 34.6901 801.049 Q32.4621 803.691 32.4621 808.497 Q32.4621 811.553 33.1941 814.449 Q33.9262 817.345 35.3903 820.019 L29.9795 820.019 Q28.7381 816.804 28.1334 813.781 Q27.4968 810.757 27.4968 807.892 Q27.4968 800.158 31.5072 796.339 Q35.5176 792.519 43.6657 792.519 Z" fill="#000000" fill-rule="nonzero" fill-opacity="1" /><path clip-path="url(#clip030)" d="M42.4881 750.824 L64.0042 750.824 L64.0042 756.68 L42.679 756.68 Q37.6183 756.68 35.1038 758.654 Q32.5894 760.627 32.5894 764.574 Q32.5894 769.316 35.6131 772.053 Q38.6368 774.791 43.8567 774.791 L64.0042 774.791 L64.0042 780.679 L28.3562 780.679 L28.3562 774.791 L33.8944 774.791 Q30.6797 772.69 29.0883 769.857 Q27.4968 766.993 27.4968 763.269 Q27.4968 757.126 31.3163 753.975 Q35.1038 750.824 42.4881 750.824 Z" fill="#000000" fill-rule="nonzero" fill-opacity="1" /><path clip-path="url(#clip030)" d="M45.7664 715.685 Q39.4007 715.685 35.8996 718.327 Q32.3984 720.937 32.3984 725.679 Q32.3984 730.39 35.8996 733.032 Q39.4007 735.642 45.7664 735.642 Q52.1003 735.642 55.6014 733.032 Q59.1026 730.39 59.1026 725.679 Q59.1026 720.937 55.6014 718.327 Q52.1003 715.685 45.7664 715.685 M59.58 709.829 Q68.683 709.829 73.1071 713.871 Q77.5631 717.913 77.5631 726.252 Q77.5631 729.34 77.0857 732.077 Q76.6401 734.814 75.6852 737.392 L69.9879 737.392 Q71.3884 734.814 72.0568 732.3 Q72.7252 729.785 72.7252 727.175 Q72.7252 721.414 69.7015 718.55 Q66.7096 715.685 60.6303 715.685 L57.7339 715.685 Q60.885 717.499 62.4446 720.332 Q64.0042 723.165 64.0042 727.112 Q64.0042 733.668 59.0071 737.679 Q54.01 741.689 45.7664 741.689 Q37.491 741.689 32.4939 737.679 Q27.4968 733.668 27.4968 727.112 Q27.4968 723.165 29.0564 720.332 Q30.616 717.499 33.7671 715.685 L28.3562 715.685 L28.3562 709.829 L59.58 709.829 Z" fill="#000000" fill-rule="nonzero" fill-opacity="1" /><path clip-path="url(#clip030)" d="M14.479 697.766 L14.479 691.909 L64.0042 691.909 L64.0042 697.766 L14.479 697.766 Z" fill="#000000" fill-rule="nonzero" fill-opacity="1" /><path clip-path="url(#clip030)" d="M44.7161 649.164 L47.5806 649.164 L47.5806 676.09 Q53.6281 675.709 56.8109 672.462 Q59.9619 669.184 59.9619 663.359 Q59.9619 659.985 59.1344 656.834 Q58.3069 653.651 56.6518 650.532 L62.1899 650.532 Q63.5267 653.683 64.227 656.993 Q64.9272 660.304 64.9272 663.709 Q64.9272 672.239 59.9619 677.236 Q54.9967 682.202 46.5303 682.202 Q37.7774 682.202 32.6531 677.491 Q27.4968 672.748 27.4968 664.728 Q27.4968 657.534 32.1438 653.365 Q36.7589 649.164 44.7161 649.164 M42.9973 655.02 Q38.1912 655.084 35.3266 657.725 Q32.4621 660.335 32.4621 664.664 Q32.4621 669.566 35.2312 672.526 Q38.0002 675.454 43.0292 675.899 L42.9973 655.02 Z" fill="#000000" fill-rule="nonzero" fill-opacity="1" /><path clip-path="url(#clip030)" d="M14.479 619.372 L14.479 605.877 L19.0304 605.877 L19.0304 613.516 L68.0464 613.516 L68.0464 605.877 L72.5979 605.877 L72.5979 619.372 L14.479 619.372 Z" fill="#000000" fill-rule="nonzero" fill-opacity="1" /><path clip-path="url(#clip030)" d="M33.8307 572.743 Q33.2578 573.73 33.0032 574.908 Q32.7167 576.053 32.7167 577.454 Q32.7167 582.419 35.9632 585.093 Q39.1779 587.734 45.2253 587.734 L64.0042 587.734 L64.0042 593.623 L28.3562 593.623 L28.3562 587.734 L33.8944 587.734 Q30.6479 585.888 29.0883 582.928 Q27.4968 579.968 27.4968 575.735 Q27.4968 575.13 27.5923 574.398 Q27.656 573.666 27.8151 572.775 L33.8307 572.743 Z" fill="#000000" fill-rule="nonzero" fill-opacity="1" /><path clip-path="url(#clip030)" d="M46.0847 550.4 Q46.0847 557.497 47.7079 560.235 Q49.3312 562.972 53.2461 562.972 Q56.3653 562.972 58.2114 560.935 Q60.0256 558.866 60.0256 555.333 Q60.0256 550.463 56.5881 547.535 Q53.1188 544.575 47.3897 544.575 L46.0847 544.575 L46.0847 550.4 M43.6657 538.719 L64.0042 538.719 L64.0042 544.575 L58.5933 544.575 Q61.8398 546.58 63.3994 549.572 Q64.9272 552.564 64.9272 556.893 Q64.9272 562.367 61.8716 565.614 Q58.7843 568.828 53.6281 568.828 Q47.6125 568.828 44.5569 564.818 Q41.5014 560.776 41.5014 552.787 L41.5014 544.575 L40.9285 544.575 Q36.8862 544.575 34.6901 547.249 Q32.4621 549.89 32.4621 554.696 Q32.4621 557.752 33.1941 560.648 Q33.9262 563.545 35.3903 566.218 L29.9795 566.218 Q28.7381 563.004 28.1334 559.98 Q27.4968 556.956 27.4968 554.092 Q27.4968 546.357 31.5072 542.538 Q35.5176 538.719 43.6657 538.719 Z" fill="#000000" fill-rule="nonzero" fill-opacity="1" /><path clip-path="url(#clip030)" d="M33.7671 503.198 L14.479 503.198 L14.479 497.341 L64.0042 497.341 L64.0042 503.198 L58.657 503.198 Q61.8398 505.044 63.3994 507.877 Q64.9272 510.678 64.9272 514.624 Q64.9272 521.086 59.771 525.16 Q54.6147 529.202 46.212 529.202 Q37.8093 529.202 32.6531 525.16 Q27.4968 521.086 27.4968 514.624 Q27.4968 510.678 29.0564 507.877 Q30.5842 505.044 33.7671 503.198 M46.212 523.154 Q52.6732 523.154 56.3653 520.513 Q60.0256 517.839 60.0256 513.192 Q60.0256 508.545 56.3653 505.871 Q52.6732 503.198 46.212 503.198 Q39.7508 503.198 36.0905 505.871 Q32.3984 508.545 32.3984 513.192 Q32.3984 517.839 36.0905 520.513 Q39.7508 523.154 46.212 523.154 Z" fill="#000000" fill-rule="nonzero" fill-opacity="1" /><path clip-path="url(#clip030)" d="M14.479 471.592 L72.5979 471.592 L72.5979 485.087 L68.0464 485.087 L68.0464 477.48 L19.0304 477.48 L19.0304 485.087 L14.479 485.087 L14.479 471.592 Z" fill="#000000" fill-rule="nonzero" fill-opacity="1" /><polyline clip-path="url(#clip031)" style="stroke:#009af9; stroke-linecap:round; stroke-linejoin:round; stroke-width:4; stroke-opacity:1; fill:none" points="309.067,1384.24 309.133,1384.24 309.199,1384.24 309.332,1384.24 309.596,1384.24 310.125,1384.24 311.183,1384.24 312.506,1384.24 313.829,1384.24 315.152,1384.24 316.474,1384.24 317.797,1384.24 319.12,1384.24 320.443,1384.24 321.766,1384.24 323.088,1384.24 324.411,1384.24 325.734,1384.24 327.057,1384.24 328.379,1384.24 329.702,1384.24 331.025,1384.24 332.348,1384.24 333.671,1384.24 334.993,1384.24 336.316,1384.24 337.639,1384.24 338.962,1384.24 340.284,1384.24 341.607,1384.24 342.93,1384.24 344.253,1384.24 345.576,1384.24 346.898,1384.24 348.221,1384.24 349.544,1384.24 350.867,1384.24 352.189,1384.24 353.512,1384.24 354.835,1384.24 356.158,1384.24 357.481,1384.24 358.803,1384.24 360.126,1384.24 361.449,1384.24 362.772,1384.24 364.094,1384.24 365.417,1384.24 366.74,1384.24 368.063,1384.24 369.386,1384.24 370.708,1384.24 372.031,1384.24 373.354,1384.24 374.677,1384.24 375.206,1384.24 375.207,1384.24 375.207,1384.24 375.207,1384.24 375.207,1384.24 375.207,1384.24 375.208,1384.24 375.208,1384.24 375.21,1384.24 375.213,1384.24 375.22,1384.23 375.234,1384.23 375.26,1384.19 375.314,1384.05 375.421,1383.48 375.635,1381.21 376.064,1372.24 376.493,1358.92 376.921,1341.38 377.778,1296.85 378.635,1238.18 379.493,1165.7 380.815,1032.45 382.138,879.704 383.461,716.491 384.784,552.421 386.106,405.252 387.124,306.258 388.041,230.797 388.865,175.115 389.607,135.566 390.349,108.261 391.017,91.8589 391.685,86.1857 392.353,89.456 393.675,114.939 394.998,171.082 396.321,255.868 397.644,364.605 398.966,492.162 400.289,630.661 401.612,771.866 402.935,907.118 404.258,1028.22 405.58,1127.83 406.903,1199.63 408.226,1239.39 409.549,1244.66 410.871,1215.44 412.194,1153.63 413.517,1063.33 414.84,950.161 416.163,821.26 417.485,684.535 418.808,548.513 420.131,421.219 421.454,310.225 422.776,222.088 424.099,162.034 425.422,133.95 426.745,139.495 428.068,178.039 429.39,246.98 430.713,341.904 432.036,456.87 433.359,584.678 434.681,717.492 436.004,847.119 437.327,965.807 438.65,1066.42 439.973,1142.99 441.295,1190.9 442.618,1207.38 443.941,1191.56 445.264,1144.6 446.586,1069.84 447.909,971.998 449.232,856.975 450.555,731.718 451.878,603.81 453.2,480.994 454.523,370.696 455.846,279.554 457.169,213.304 458.491,175.829 459.814,169.424 461.137,194.187 462.46,248.509 463.783,328.801 465.105,430.082 466.428,545.998 467.751,669.306 469.074,792.507 470.396,908.219 471.719,1009.41 473.042,1089.99 474.365,1145.1 475.687,1171.5 477.01,1167.95 478.333,1135.01 479.656,1074.68 480.979,990.694 482.301,888.185 483.624,773.429 484.947,653.354 486.27,535.363 487.592,426.805 488.915,334.329 490.238,263.577 491.561,218.675 492.884,202.007 494.206,214.248 495.529,254.618 496.852,320.607 498.175,408.171 499.497,511.95 500.82,625.739 502.143,742.498 503.466,854.948 504.789,956.14 506.111,1039.86 507.434,1101.13 508.757,1136.49 510.08,1144.13 511.402,1123.66 512.725,1076.4 514.048,1005.28 515.371,914.69 516.694,810.029 518.016,697.815 519.339,585.054 520.662,478.755 521.985,385.445 523.307,310.716 524.63,258.872 525.953,232.715 527.276,233.756 528.599,261.83 529.921,315.17 531.244,390.469 532.567,483.315 533.89,587.905 535.212,697.715 536.535,805.878 537.858,905.731 539.181,991.222 540.504,1057.31 541.826,1100.3 543.149,1117.66 544.472,1108.45 545.795,1073.3 547.117,1014.98 548.44,937.345 549.763,845.213 551.086,744.129 552.409,639.006 553.731,536.495 555.054,442.837 556.377,363.835 557.7,304.27 559.022,267.981 560.345,257.041 561.668,272.099 562.991,311.967 564.313,374.121 565.636,454.553 566.959,548.304 568.282,649.54 569.605,752.083 570.927,849.606 572.25,936.398 573.573,1007.29 574.896,1058.1 576.218,1085.82 577.541,1088.56 578.864,1066.32 580.187,1020.51 581.51,954.205 582.832,871.554 584.155,777.783 585.478,678.646 586.801,580.294 588.123,488.711 589.446,409.512 590.769,347.314 592.092,305.844 593.415,287.331 594.737,292.877 596.06,321.915 597.383,372.346 598.706,441.011 600.028,523.828 601.351,615.816 602.674,711.415 603.997,804.833 605.32,890.409 606.642,962.972 607.965,1017.96 609.288,1052.11 610.611,1063.3 611.933,1051.08 613.256,1016.24 614.579,961.139 615.902,889.223 617.225,805.036 618.547,713.753 619.87,621.052 621.193,532.622 622.516,453.733 623.838,389.14 625.161,342.67 626.484,317.073 627.807,313.785 629.13,332.711 630.452,372.487 631.775,430.713 633.098,503.842 634.421,587.432 635.743,676.394 637.066,765.331 638.389,848.786 639.712,921.56 641.035,979.226 642.357,1018.27 643.68,1036.46 645.003,1032.96 646.326,1008.23 647.648,963.768 648.971,902.32 650.294,827.642 651.617,744.187 652.939,657.137 654.262,571.921 655.585,493.816 656.908,427.611 658.231,377.247 659.553,345.694 660.876,334.739 662.199,344.889 663.522,375.241 664.844,423.807 666.167,487.673 667.49,562.977 668.813,645.152 670.136,729.206 671.458,810.012 672.781,882.631 674.104,942.539 675.427,986.13 676.749,1010.76 678.072,1015.08 679.395,999.117 680.718,964.025 682.041,911.937 683.363,846.035 684.686,770.335 686.009,689.454 687.332,608.299 688.654,531.852 689.977,464.867 691.3,411.415 692.623,374.745 693.946,356.947 695.268,358.85 696.591,380.127 697.914,419.478 699.237,474.488 700.559,541.799 701.882,617.303 703.205,696.451 704.528,774.365 705.851,846.189 707.173,907.515 708.496,954.589 709.819,984.65 711.142,995.939 712.464,987.869 713.787,961.122 715.11,917.434 716.433,859.603 717.756,791.196 719.078,716.471 720.401,639.993 721.724,566.495 723.047,500.455 724.369,445.783 725.692,405.665 727.015,382.321 728.338,377.125 729.66,390.322 730.983,421.065 732.306,466.98 733.629,525.138 734.952,591.99 736.274,663.536 737.597,736.305 738.92,805.682 740.243,867.422 741.565,917.683 742.888,953.412 744.211,972.269 745.534,973.204 746.857,956.177 748.179,922.426 749.502,874.082 750.825,814.249 752.148,746.616 753.47,675.387 754.793,604.905 756.116,539.491 757.439,482.953 758.762,438.647 760.084,409.17 761.407,396.251 762.73,400.813 764.053,422.46 765.375,459.828 766.698,510.453 768.021,571.181 769.344,638.202 770.667,707.416 771.989,774.538 773.312,835.625 774.635,887.042 775.958,925.749 777.28,949.451 778.603,956.572 779.926,946.786 781.249,920.72 782.572,880.148 783.894,827.612 785.217,766.447 786.54,700.414 787.863,633.59 789.185,570.038 790.508,513.617 791.831,467.58 793.154,434.654 794.477,416.753 795.799,414.909 797.122,429.368 798.445,459.134 799.768,502.341 801.09,556.182 802.413,617.313 803.736,681.923 805.059,746.069 806.382,805.818 807.704,857.688 809.027,898.595 810.35,926.134 811.673,938.684 812.995,935.35 814.318,916.446 815.641,883.165 816.964,837.712 818.286,782.924 819.609,722.249 820.932,659.405 822.255,598.283 823.578,542.474 824.9,495.296 826.223,459.531 827.546,437.296 828.869,430.06 830.191,438.164 831.514,461.089 832.837,497.274 834.16,544.456 835.483,599.645 836.805,659.452 838.128,720.136 839.451,778.101 840.774,829.893 842.096,872.44 843.419,903.205 844.742,920.196 846.065,922.39 847.388,909.78 848.71,883.254 850.033,844.531 851.356,796.059 852.679,740.896 854.001,682.432 855.324,624.281 856.647,569.936 857.97,522.633 859.293,485.208 860.615,459.9 861.938,448.197 863.261,450.748 864.584,467.312 865.906,496.768 867.229,537.258 868.552,586.235 869.875,640.687 871.198,697.249 872.52,752.475 873.843,802.964 875.166,845.657 876.489,878.049 877.811,898.218 879.134,905.01 880.457,898.174 881.78,878.258 883.103,846.473 884.425,804.765 885.748,755.679 887.071,702.211 888.394,647.598 889.716,595.198 891.039,548.273 892.362,509.686 893.685,481.789 895.007,466.191 896.33,463.679 897.653,474.257 898.976,497.273 900.299,531.306 901.621,574.275 902.944,623.551 904.267,676.175 905.59,728.897 906.912,778.43 908.235,821.726 909.558,856.132 910.881,879.619 912.204,890.897 913.526,889.432 914.849,875.335 916.172,849.497 917.495,813.511 918.817,769.59 920.14,720.357 921.463,668.868 922.786,618.337 924.109,571.892 925.431,532.383 926.754,502.166 928.077,482.96 929.4,475.777 930.722,481.024 932.045,498.34 933.368,526.649 934.691,564.2 936.014,608.777 937.336,657.599 938.659,707.622 939.982,755.726 941.305,798.951 942.627,834.691 943.95,860.859 945.273,876.017 946.596,879.277 947.919,870.489 949.241,850.218 950.564,819.732 951.887,780.811 953.21,735.901 954.532,687.809 955.855,639.552 957.178,594.105 958.501,554.227 959.824,522.279 961.146,500.056 962.469,488.867 963.792,489.336 965.115,501.403 966.437,524.103 967.76,555.881 969.083,594.75 970.406,638.364 971.729,684.603 973.051,730.549 974.374,773.412 975.697,810.54 977.02,839.679 978.342,858.945 979.665,867.166 980.988,863.934 982.311,849.535 983.633,824.926 984.956,791.678 986.279,751.897 987.602,708.042 988.925,662.833 990.247,618.994 991.57,579.219 992.893,545.865 994.216,520.891 995.538,505.771 996.861,501.388 998.184,507.961 999.507,525.036 1000.83,551.508 1002.15,585.707 1003.48,625.423 1004.8,668.25 1006.12,711.628 1007.44,752.963 1008.77,789.771 1010.09,819.84 1011.41,841.366 1012.73,852.959 1014.06,853.972 1015.38,844.354 1016.7,824.802 1018.03,796.552 1019.35,761.415 1020.67,721.613 1021.99,679.578 1023.32,637.843 1024.64,598.954 1025.96,565.264 1027.29,538.815 1028.61,521.178 1029.93,513.385 1031.25,515.842 1032.58,528.326 1033.9,549.93 1035.22,579.29 1036.54,614.644 1037.87,653.862 1039.19,694.571 1040.51,734.303 1041.84,770.618 1043.16,801.31 1044.48,824.47 1045.8,838.728 1047.13,843.231 1048.45,837.791 1049.77,822.876 1051.1,799.47 1052.42,768.985 1053.74,733.271 1055.06,694.497 1056.39,655.018 1057.71,617.245 1059.03,583.484 1060.35,555.833 1061.68,535.951 1063,525.042 1064.32,523.69 1065.65,531.85 1066.97,548.935 1068.29,573.913 1069.61,605.261 1070.94,641.074 1072.26,679.17 1073.58,717.237 1074.91,752.941 1076.23,784.058 1077.55,808.696 1078.87,825.355 1080.2,833.085 1081.52,831.534 1082.84,820.896 1084.16,801.821 1085.49,775.483 1086.81,743.49 1088.13,707.798 1089.46,670.56 1090.78,634.073 1092.1,600.609 1093.42,572.217 1094.75,550.632 1096.07,537.114 1097.39,532.45 1098.72,536.873 1100.04,550.027 1101.36,571.061 1102.68,598.636 1104.01,631.054 1105.33,666.302 1106.65,702.227 1107.97,736.609 1109.3,767.352 1110.62,792.637 1111.94,810.988 1113.27,821.388 1114.59,823.225 1115.91,816.419 1117.23,801.405 1118.56,779.344 1119.88,751.637 1121.2,719.975 1122.52,686.25 1123.85,652.101 1125.17,619.693 1126.49,591.011 1127.82,567.837 1129.14,551.577 1130.46,543.296 1131.78,543.451 1133.11,552.021 1134.43,568.392 1135.75,591.533 1137.08,619.964 1138.4,651.933 1139.72,685.46 1141.04,718.5 1142.37,749.028 1143.69,775.267 1145.01,795.659 1146.33,809.005 1147.66,814.522 1148.98,811.808 1150.3,801.085 1151.63,783.029 1152.95,758.831 1154.27,729.999 1155.59,698.346 1156.92,665.808 1158.24,634.397 1159.56,605.955 1160.89,582.174 1162.21,564.455 1163.53,553.847 1164.85,551.067 1166.18,556.264 1167.5,569.047 1168.82,588.565 1170.14,613.581 1171.47,642.528 1172.79,673.599 1174.11,704.895 1175.44,734.498 1176.76,760.648 1178.08,781.755 1179.4,796.587 1180.73,804.292 1182.05,804.438 1183.37,797.044 1184.7,782.597 1186.02,762.013 1187.34,736.589 1188.66,707.906 1189.99,677.738 1191.31,647.934 1192.63,620.318 1193.95,596.497 1195.28,577.886 1196.6,565.577 1197.92,560.292 1199.25,562.411 1200.57,571.756 1201.89,587.736 1203.21,609.299 1204.54,635.099 1205.86,663.519 1207.18,692.818 1208.51,721.183 1209.83,746.95 1211.15,768.586 1212.47,784.812 1213.8,794.667 1215.12,797.497 1216.44,793.173 1217.76,781.974 1219.09,764.659 1220.41,742.313 1221.73,716.352 1223.06,688.372 1224.38,660.121 1225.7,633.273 1227.02,609.425 1228.35,589.99 1229.67,576.125 1230.99,568.649 1232.32,568.072 1233.64,574.384 1234.96,587.186 1236.28,605.621 1237.61,628.538 1238.93,654.492 1240.25,681.892 1241.57,709.033 1242.9,734.315 1244.22,756.232 1245.54,773.489 1246.87,785.057 1248.19,790.185 1249.51,788.599 1250.83,780.406 1252.16,766.176 1253.48,746.803 1254.8,723.523 1256.13,697.768 1257.45,671.16 1258.77,645.279 1260.09,621.667 1261.42,601.727 1262.74,586.646 1264.06,577.321 1265.38,574.369 1266.71,577.93 1268.03,587.775 1269.35,603.234 1270.68,623.339 1272,646.816 1273.32,672.222 1274.64,697.969 1275.97,722.531 1277.29,744.445 1278.61,762.413 1279.94,775.362 1281.26,782.461 1282.58,783.313 1283.9,777.87 1285.23,766.53 1286.55,750.008 1287.87,729.366 1289.19,705.876 1290.52,681.026 1291.84,656.298 1293.16,633.168 1294.49,613.01 1295.81,597.029 1297.13,586.238 1298.45,581.295 1299.78,582.456 1301.1,589.608 1302.42,602.273 1303.75,619.641 1305.07,640.631 1306.39,663.929 1307.71,688.104 1309.04,711.66 1310.36,733.182 1311.68,751.389 1313,765.192 1314.33,773.769 1315.65,776.656 1316.97,773.743 1318.3,765.212 1319.62,751.594 1320.94,733.726 1322.26,712.704 1323.59,689.788 1324.91,666.397 1326.23,643.989 1327.56,623.946 1328.88,607.498 1330.2,595.618 1331.52,588.972 1332.85,587.892 1334.17,592.434 1335.49,602.307 1336.81,616.898 1338.14,635.31 1339.46,656.449 1340.78,679 1342.11,701.557 1343.43,722.717 1344.75,741.182 1346.07,755.842 1347.4,765.853 1348.72,770.676 1350.04,770.031 1351.37,763.977 1352.69,752.895 1354.01,737.473 1355.33,718.619 1356.66,697.513 1357.98,675.471 1359.3,653.873 1360.62,634.049 1361.95,617.196 1363.27,604.305 1364.59,596.091 1365.92,593.038 1367.24,595.307 1368.56,602.747 1369.88,614.776 1371.21,630.604 1372.53,649.257 1373.85,669.614 1375.18,690.685 1376.5,711.139 1377.82,729.727 1379.14,745.296 1380.47,756.902 1381.79,763.783 1383.11,765.528 1384.43,762.074 1385.76,753.677 1387.08,740.883 1388.4,724.504 1389.73,705.571 1391.05,685.25 1392.37,664.798 1393.69,645.441 1395.02,628.366 1396.34,614.582 1397.66,604.895 1398.99,599.872 1400.31,599.801 1401.63,604.666 1402.95,614.144 1404.28,627.629 1405.6,644.275 1406.92,663.014 1408.24,682.717 1409.57,702.205 1410.89,720.315 1412.21,735.96 1413.54,748.203 1414.86,756.312 1416.18,759.754 1417.5,758.35 1418.83,752.193 1420.15,741.71 1421.47,727.559 1422.8,710.642 1424.12,692.023 1425.44,672.837 1426.76,654.238 1428.09,637.355 1429.41,623.21 1430.73,612.657 1432.05,606.319 1433.38,604.562 1434.7,607.459 1436.02,614.804 1437.35,626.082 1438.67,640.589 1439.99,657.455 1441.31,675.664 1442.64,694.117 1443.96,711.696 1445.28,727.317 1446.61,740.036 1447.93,749.061 1449.25,753.867 1450.57,754.169 1451.9,749.99 1453.22,741.646 1454.54,729.676 1455.86,714.799 1457.19,697.916 1458.51,680.051 1459.83,662.287 1461.16,645.713 1462.48,631.337 1463.8,620.052 1465.12,612.531 1466.45,609.227 1467.77,610.302 1469.09,615.633 1470.42,624.858 1471.74,637.42 1473.06,652.556 1474.38,669.348 1475.71,686.772 1477.03,703.77 1478.35,719.3 1479.67,732.395 1481,742.266 1482.32,748.313 1483.64,750.199 1484.97,747.827 1486.29,741.371 1487.61,731.263 1488.93,718.136 1490.26,702.815 1491.58,686.235 1492.9,669.422 1494.23,653.395 1495.55,639.14 1496.87,627.517 1498.19,619.205 1499.52,614.667 1500.84,614.132 1502.16,617.628 1503.48,624.931 1504.81,635.593 1506.13,648.803 1507.45,663.783 1508.78,679.643 1510.1,695.448 1511.42,709.568 1512.74,721.689 1514.07,730.984 1515.39,737.512 1516.71,740.733 1518.04,740.437 1519.36,736.654 1520.68,729.63 1522,719.704 1523.33,707.486 1524.65,693.689 1525.97,679.153 1527.29,664.758 1528.62,651.378 1529.94,639.822 1531.26,630.815 1532.59,624.914 1533.91,622.454 1535.23,623.566 1536.55,628.158 1537.88,635.928 1539.2,646.383 1540.52,658.859 1541.84,672.575 1543.17,686.689 1544.49,700.348 1545.81,712.725 1547.14,723.085 1548.46,730.793 1549.78,735.405 1551.1,736.66 1552.43,734.505 1553.75,729.085 1555.07,720.75 1556.4,710.02 1557.72,697.568 1559.04,684.181 1560.36,670.661 1561.69,657.814 1563.01,646.406 1564.33,637.119 1565.65,630.508 1566.98,627 1568.3,626.79 1569.62,629.887 1570.95,636.068 1572.27,644.943 1573.59,655.944 1574.91,668.393 1576.24,681.513 1577.56,694.495 1578.88,706.562 1580.21,716.981 1581.53,725.132 1582.85,730.525 1584.17,732.848 1585.5,731.975 1586.82,727.982 1588.14,721.132 1589.46,711.861 1590.79,700.747 1592.11,688.479 1593.43,675.81 1594.76,663.523 1596.08,652.369 1597.4,643.008 1598.72,635.988 1600.05,631.701 1601.37,630.401 1602.69,632.154 1604.02,636.847 1605.34,644.113 1606.66,653.484 1607.98,664.385 1609.31,676.161 1610.63,688.241 1611.95,699.861 1613.27,710.309 1614.6,718.937 1615.92,725.222 1617.24,728.75 1618.57,729.309 1619.89,726.893 1621.21,721.675 1622.53,713.992 1623.86,704.331 1625.18,693.294 1626.5,681.567 1627.83,669.864 1629.15,658.894 1630.47,649.319 1631.79,641.718 1633.12,636.542 1634.44,634.09 1635.76,634.493 1637.08,637.703 1638.41,643.505 1639.73,651.517 1641.05,661.243 1642.38,672.102 1643.7,683.442 1645.02,694.578 1646.34,704.837 1647.67,713.599 1648.99,720.338 1650.31,724.624 1651.64,726.21 1652.96,725 1654.28,721.096 1655.6,714.746 1656.93,706.362 1658.25,696.462 1659.57,685.667 1660.89,674.646 1662.22,664.06 1663.54,654.555 1664.86,646.7 1666.19,640.967 1667.51,637.693 1668.83,637.067 1670.15,639.107 1671.48,643.672 1672.8,650.446 1674.12,659.007 1675.45,668.841 1676.77,679.357 1678.09,689.919 1679.41,699.888 1680.74,708.65 1682.06,715.673 1683.38,720.523 1684.7,722.919 1686.03,722.718 1687.35,719.959 1688.67,714.818 1690,707.632 1691.32,698.867 1692.64,689.057 1693.96,678.789 1695.29,668.68 1696.61,659.336 1697.93,651.322 1699.26,645.138 1700.58,641.152 1701.9,639.61 1703.22,640.585 1704.55,644.01 1705.87,649.652 1707.19,657.136 1708.51,666 1709.84,675.715 1711.16,685.695 1712.48,695.339 1713.81,704.064 1715.13,711.329 1716.45,716.698 1717.77,719.837 1719.1,720.573 1720.42,718.867 1721.74,714.846 1723.07,708.765 1724.39,701.01 1725.71,692.073 1727.03,682.498 1728.36,672.876 1729.68,663.787 1731,655.787 1732.32,649.355 1733.65,644.878 1734.97,642.618 1736.29,642.693 1737.62,645.066 1738.94,649.573 1740.26,655.945 1741.58,663.792 1742.91,672.64 1744.23,681.948 1745.55,691.151 1746.88,699.685 1748.2,707.02 1749.52,712.71 1750.84,716.409 1752.17,717.909 1753.49,717.148 1754.81,714.195 1756.13,709.231 1757.46,702.559 1758.78,694.587 1760.1,685.802 1761.43,676.735 1762.75,667.942 1764.07,659.973 1765.39,653.315 1766.72,648.373 1768.04,645.436 1769.36,644.656 1770.69,646.054 1772.01,649.545 1773.33,654.91 1774.65,661.823 1775.98,669.859 1777.3,678.535 1778.62,687.316 1779.94,695.655 1781.27,703.036 1782.59,709.009 1783.91,713.219 1785.24,715.433 1786.56,715.543 1787.88,713.545 1789.2,709.567 1790.53,703.854 1791.85,696.758 1793.17,688.702 1794.5,680.186 1795.82,671.741 1797.14,663.892 1798.46,657.12 1799.79,651.831 1801.11,648.327 1802.43,646.797 1803.75,647.327 1805.08,649.878 1806.4,654.291 1807.72,660.293 1809.05,667.529 1810.37,675.547 1811.69,683.848 1813.01,691.912 1814.34,699.243 1815.66,705.4 1816.98,710.02 1818.31,712.849 1819.63,713.72 1820.95,712.59 1822.27,709.531 1823.6,704.782 1824.92,698.651 1826.24,691.514 1827.56,683.798 1828.89,675.879 1830.21,668.258 1831.53,661.4 1832.86,655.732 1834.18,651.597 1835.5,649.267 1836.82,648.882 1838.15,650.447 1839.47,653.85 1840.79,658.871 1842.12,665.192 1843.44,672.419 1844.76,680.103 1846.08,687.776 1847.41,694.965 1848.73,701.241 1850.05,706.233 1851.37,709.646 1852.7,711.278 1854.02,711.038 1855.34,708.949 1856.67,705.165 1857.99,699.929 1859.31,693.556 1860.63,686.431 1861.96,678.986 1863.28,671.672 1864.6,664.937 1865.93,659.201 1867.25,654.809 1868.57,652.03 1869.89,651.019 1871.22,651.823 1872.54,654.384 1873.86,658.535 1875.18,664.015 1876.51,670.483 1877.83,677.537 1879.15,684.745 1880.48,691.659 1881.8,697.861 1883.12,702.984 1884.44,706.728 1885.77,708.886 1887.09,709.33 1888.41,708.04 1889.74,705.098 1891.06,700.732 1892.38,695.22 1893.7,688.899 1895.03,682.147 1896.35,675.292 1897.67,668.768 1898.99,662.975 1900.32,658.272 1901.64,654.946 1902.96,653.216 1904.29,653.186 1905.61,654.842 1906.93,658.066 1908.25,662.652 1909.58,668.311 1910.9,674.69 1912.22,681.393 1913.55,688.013 1914.87,694.142 1916.19,699.415 1917.51,703.521 1918.84,706.218 1920.16,707.347 1921.48,706.847 1922.8,704.755 1924.13,701.222 1925.45,696.474 1926.77,690.795 1928.1,684.529 1929.42,678.055 1930.74,671.766 1932.06,666.047 1933.39,661.254 1934.71,657.675 1936.03,655.529 1937.36,654.933 1938.68,655.911 1940,658.396 1941.32,662.227 1942.65,667.164 1943.97,672.899 1945.29,679.079 1946.61,685.323 1947.94,691.245 1949.26,696.486 1950.58,700.737 1951.91,703.751 1953.23,705.362 1954.55,705.476 1955.87,704.089 1957.2,701.292 1958.52,697.298 1959.84,692.358 1961.16,686.773 1962.49,680.876 1963.81,674.953 1965.13,669.38 1966.46,664.5 1967.78,660.615 1969.1,657.962 1970.42,656.718 1971.75,656.956 1973.07,658.648 1974.39,661.676 1975.72,665.847 1977.04,670.899 1978.36,676.517 1979.68,682.353 1981.01,688.053 1982.33,693.266 1983.65,697.682 1984.97,701.042 1986.3,703.148 1987.62,703.876 1988.94,703.19 1990.27,701.135 1991.59,697.86 1992.91,693.569 1994.23,688.522 1995.56,683.023 1996.88,677.405 1998.2,672.006 1999.53,667.165 2000.85,663.177 2002.17,660.286 2003.49,658.66 2004.82,658.393 2006.14,659.489 2007.46,661.864 2008.78,665.362 2010.11,669.774 2011.43,674.832 2012.75,680.23 2014.08,685.64 2015.4,690.732 2016.72,695.194 2018.04,698.75 2019.37,701.186 2020.69,702.357 2022.01,702.201 2023.34,700.734 2024.66,698.055 2025.98,694.338 2027.3,689.814 2028.63,684.766 2029.95,679.501 2031.27,674.344 2032.59,669.605 2033.92,665.576 2035.24,662.498 2036.56,660.549 2037.89,659.842 2039.21,660.411 2040.53,662.206 2041.85,665.108 2043.18,668.942 2044.5,673.475 2045.82,678.432 2047.15,683.511 2048.47,688.404 2049.79,692.811 2051.11,696.457 2052.44,699.123 2053.76,700.649 2055.08,700.95 2056.4,700.025 2057.73,697.942 2059.05,694.827 2060.37,690.87 2061.7,686.313 2063.02,681.425 2064.34,676.514 2065.66,671.883 2066.99,667.823 2068.31,664.576 2069.63,662.336 2070.96,661.232 2072.28,661.315 2073.6,662.568 2074.92,664.914 2076.25,668.209 2077.57,672.252 2078.89,676.805 2080.21,681.581 2081.54,686.283 2082.86,690.616 2084.18,694.318 2085.51,697.166 2086.83,698.995 2088.15,699.706 2089.47,699.269 2090.8,697.713 2092.12,695.134 2093.44,691.69 2094.77,687.594 2096.09,683.09 2097.41,678.457 2098.73,673.984 2100.06,669.948 2101.38,666.596 2102.7,664.127 2104.02,662.68 2105.35,662.329 2106.67,663.094 2107.99,664.924 2109.32,667.706 2110.64,671.281 2111.96,675.423 2113.28,679.87 2114.61,684.341 2115.93,688.564 2117.25,692.281 2118.58,695.271 2119.9,697.36 2121.22,698.436 2122.54,698.435 2123.87,697.362 2125.19,695.284 2126.51,692.361 2127.83,688.775 2129.16,684.744 2130.48,680.509 2131.8,676.274 2133.13,672.308 2134.45,668.856 2135.77,666.132 2137.09,664.302 2138.42,663.488 2139.74,663.739 2141.06,665.027 2142.39,667.266 2143.71,670.312 2145.03,673.973 2146.35,678.022 2147.68,682.208 2149,686.278 2150.32,689.98 2151.64,693.096 2152.97,695.442 2154.29,696.88 2155.61,697.326 2156.94,696.758 2158.26,695.214 2159.58,692.804 2160.9,689.68 2162.23,686.029 2163.55,682.071 2164.87,678.046 2166.2,674.197 2167.52,670.765 2168.84,667.959 2170.16,665.951 2171.49,664.857 2172.81,664.739 2174.13,665.597 2175.45,667.366 2176.78,669.93 2178.1,673.135 2179.42,676.788 2180.75,680.668 2182.07,684.538 2183.39,688.162 2184.71,691.318 2186.04,693.812 2187.36,695.494 2188.68,696.263 2190.01,696.079 2191.33,694.959 2192.65,692.977 2193.97,690.262 2195.3,686.983 2196.62,683.344 2197.94,679.566 2199.26,675.883 2200.59,672.516 2201.91,669.673 2203.23,667.523 2204.56,666.19 2205.88,665.751 2207.2,666.228 2208.52,667.579 2209.85,669.715 2211.17,672.508 2212.49,675.789 2213.82,679.357 2215.14,682.997 2216.46,686.486 2217.78,689.611 2219.11,692.177 2220.43,694.031 2221.75,695.06 2223.07,695.209 2224.4,694.481 2225.72,692.927 2227.04,690.643 2228.37,687.767 2229.69,684.475 2231.01,680.961 2232.33,677.448 2233.66,674.152 2234.98,671.278 2236.3,669 2237.63,667.453 2238.95,666.724 2240.27,666.849 2241.59,667.809 2242.92,669.547 2244.24,671.955 2245.56,674.888 2246.88,678.171 2248.21,681.599 2249.53,684.957 2250.85,688.036 2252.18,690.65 2253.5,692.641 2254.82,693.894 2256.14,694.342 2257.47,693.966 2258.79,692.792 2260.11,690.891 2261.44,688.382 2262.76,685.416 2264.08,682.173 2265.4,678.853 2266.73,675.663 2268.05,672.8 2269.37,670.439 2270.69,668.721 2272.02,667.741 2273.34,667.551 2274.66,668.158 2275.99,669.525 2277.31,671.567 2278.63,674.167 2279.95,677.158 2281.28,680.355 2282.6,683.554 2283.92,686.563 2285.25,689.195 2286.57,691.295 2287.89,692.747 2289.21,693.46 2290.54,693.402 2291.86,692.575 2293.18,691.034 2293.23,690.964 "/>
<path clip-path="url(#clip030)" d="M1818.02 196.789 L2282.65 196.789 L2282.65 93.1086 L1818.02 93.1086  Z" fill="#ffffff" fill-rule="evenodd" fill-opacity="1"/>
<polyline clip-path="url(#clip030)" style="stroke:#000000; stroke-linecap:round; stroke-linejoin:round; stroke-width:4; stroke-opacity:1; fill:none" points="1818.02,196.789 2282.65,196.789 2282.65,93.1086 1818.02,93.1086 1818.02,196.789 "/>
<polyline clip-path="url(#clip030)" style="stroke:#009af9; stroke-linecap:round; stroke-linejoin:round; stroke-width:4; stroke-opacity:1; fill:none" points="1841.39,144.949 1981.61,144.949 "/>
<path clip-path="url(#clip030)" d="M2020.16 140.284 Q2019.44 139.868 2018.59 139.682 Q2017.75 139.474 2016.73 139.474 Q2013.12 139.474 2011.18 141.835 Q2009.26 144.173 2009.26 148.571 L2009.26 162.229 L2004.98 162.229 L2004.98 136.303 L2009.26 136.303 L2009.26 140.331 Q2010.6 137.969 2012.75 136.835 Q2014.91 135.678 2017.98 135.678 Q2018.42 135.678 2018.96 135.747 Q2019.49 135.794 2020.14 135.909 L2020.16 140.284 Z" fill="#000000" fill-rule="nonzero" fill-opacity="1" /><path clip-path="url(#clip030)" d="M2033.63 139.289 Q2030.21 139.289 2028.22 141.974 Q2026.23 144.636 2026.23 149.289 Q2026.23 153.942 2028.19 156.627 Q2030.18 159.289 2033.63 159.289 Q2037.04 159.289 2039.03 156.604 Q2041.02 153.918 2041.02 149.289 Q2041.02 144.682 2039.03 141.997 Q2037.04 139.289 2033.63 139.289 M2033.63 135.678 Q2039.19 135.678 2042.36 139.289 Q2045.53 142.9 2045.53 149.289 Q2045.53 155.655 2042.36 159.289 Q2039.19 162.9 2033.63 162.9 Q2028.05 162.9 2024.88 159.289 Q2021.73 155.655 2021.73 149.289 Q2021.73 142.9 2024.88 139.289 Q2028.05 135.678 2033.63 135.678 Z" fill="#000000" fill-rule="nonzero" fill-opacity="1" /><path clip-path="url(#clip030)" d="M2056.8 128.942 L2056.8 136.303 L2065.58 136.303 L2065.58 139.613 L2056.8 139.613 L2056.8 153.687 Q2056.8 156.858 2057.66 157.761 Q2058.54 158.664 2061.2 158.664 L2065.58 158.664 L2065.58 162.229 L2061.2 162.229 Q2056.27 162.229 2054.4 160.4 Q2052.52 158.548 2052.52 153.687 L2052.52 139.613 L2049.4 139.613 L2049.4 136.303 L2052.52 136.303 L2052.52 128.942 L2056.8 128.942 Z" fill="#000000" fill-rule="nonzero" fill-opacity="1" /><path clip-path="url(#clip030)" d="M2081.23 139.289 Q2077.8 139.289 2075.81 141.974 Q2073.82 144.636 2073.82 149.289 Q2073.82 153.942 2075.79 156.627 Q2077.78 159.289 2081.23 159.289 Q2084.63 159.289 2086.62 156.604 Q2088.61 153.918 2088.61 149.289 Q2088.61 144.682 2086.62 141.997 Q2084.63 139.289 2081.23 139.289 M2081.23 135.678 Q2086.78 135.678 2089.95 139.289 Q2093.12 142.9 2093.12 149.289 Q2093.12 155.655 2089.95 159.289 Q2086.78 162.9 2081.23 162.9 Q2075.65 162.9 2072.48 159.289 Q2069.33 155.655 2069.33 149.289 Q2069.33 142.9 2072.48 139.289 Q2075.65 135.678 2081.23 135.678 Z" fill="#000000" fill-rule="nonzero" fill-opacity="1" /><path clip-path="url(#clip030)" d="M2115.21 140.284 Q2114.49 139.868 2113.63 139.682 Q2112.8 139.474 2111.78 139.474 Q2108.17 139.474 2106.22 141.835 Q2104.3 144.173 2104.3 148.571 L2104.3 162.229 L2100.02 162.229 L2100.02 136.303 L2104.3 136.303 L2104.3 140.331 Q2105.65 137.969 2107.8 136.835 Q2109.95 135.678 2113.03 135.678 Q2113.47 135.678 2114 135.747 Q2114.54 135.794 2115.18 135.909 L2115.21 140.284 Z" fill="#000000" fill-rule="nonzero" fill-opacity="1" /><path clip-path="url(#clip030)" d="M2146.53 149.196 Q2141.36 149.196 2139.37 150.377 Q2137.38 151.557 2137.38 154.405 Q2137.38 156.673 2138.86 158.016 Q2140.37 159.335 2142.94 159.335 Q2146.48 159.335 2148.61 156.835 Q2150.76 154.312 2150.76 150.145 L2150.76 149.196 L2146.53 149.196 M2155.02 147.437 L2155.02 162.229 L2150.76 162.229 L2150.76 158.293 Q2149.3 160.655 2147.13 161.789 Q2144.95 162.9 2141.8 162.9 Q2137.82 162.9 2135.46 160.678 Q2133.12 158.432 2133.12 154.682 Q2133.12 150.307 2136.04 148.085 Q2138.98 145.863 2144.79 145.863 L2150.76 145.863 L2150.76 145.446 Q2150.76 142.507 2148.82 140.909 Q2146.9 139.289 2143.4 139.289 Q2141.18 139.289 2139.07 139.821 Q2136.97 140.354 2135.02 141.419 L2135.02 137.483 Q2137.36 136.581 2139.56 136.141 Q2141.76 135.678 2143.84 135.678 Q2149.47 135.678 2152.24 138.594 Q2155.02 141.511 2155.02 147.437 Z" fill="#000000" fill-rule="nonzero" fill-opacity="1" /><path clip-path="url(#clip030)" d="M2185.34 146.581 L2185.34 162.229 L2181.09 162.229 L2181.09 146.719 Q2181.09 143.039 2179.65 141.21 Q2178.22 139.382 2175.34 139.382 Q2171.9 139.382 2169.91 141.581 Q2167.91 143.78 2167.91 147.576 L2167.91 162.229 L2163.63 162.229 L2163.63 136.303 L2167.91 136.303 L2167.91 140.331 Q2169.44 137.993 2171.5 136.835 Q2173.59 135.678 2176.29 135.678 Q2180.76 135.678 2183.05 138.456 Q2185.34 141.21 2185.34 146.581 Z" fill="#000000" fill-rule="nonzero" fill-opacity="1" /><path clip-path="url(#clip030)" d="M2210.9 148.965 Q2210.9 144.335 2208.98 141.789 Q2207.08 139.243 2203.63 139.243 Q2200.21 139.243 2198.28 141.789 Q2196.39 144.335 2196.39 148.965 Q2196.39 153.571 2198.28 156.118 Q2200.21 158.664 2203.63 158.664 Q2207.08 158.664 2208.98 156.118 Q2210.9 153.571 2210.9 148.965 M2215.16 159.011 Q2215.16 165.631 2212.22 168.849 Q2209.28 172.09 2203.22 172.09 Q2200.97 172.09 2198.98 171.742 Q2196.99 171.418 2195.11 170.724 L2195.11 166.58 Q2196.99 167.599 2198.82 168.085 Q2200.65 168.571 2202.54 168.571 Q2206.73 168.571 2208.82 166.372 Q2210.9 164.196 2210.9 159.775 L2210.9 157.668 Q2209.58 159.96 2207.52 161.094 Q2205.46 162.229 2202.59 162.229 Q2197.82 162.229 2194.91 158.594 Q2191.99 154.96 2191.99 148.965 Q2191.99 142.946 2194.91 139.312 Q2197.82 135.678 2202.59 135.678 Q2205.46 135.678 2207.52 136.812 Q2209.58 137.946 2210.9 140.238 L2210.9 136.303 L2215.16 136.303 L2215.16 159.011 Z" fill="#000000" fill-rule="nonzero" fill-opacity="1" /><path clip-path="url(#clip030)" d="M2223.93 126.21 L2228.19 126.21 L2228.19 162.229 L2223.93 162.229 L2223.93 126.21 Z" fill="#000000" fill-rule="nonzero" fill-opacity="1" /><path clip-path="url(#clip030)" d="M2259.28 148.201 L2259.28 150.284 L2239.7 150.284 Q2239.97 154.682 2242.34 156.997 Q2244.72 159.289 2248.96 159.289 Q2251.41 159.289 2253.7 158.687 Q2256.02 158.085 2258.28 156.881 L2258.28 160.909 Q2255.99 161.881 2253.59 162.391 Q2251.18 162.9 2248.7 162.9 Q2242.5 162.9 2238.86 159.289 Q2235.25 155.678 2235.25 149.52 Q2235.25 143.155 2238.68 139.428 Q2242.13 135.678 2247.96 135.678 Q2253.19 135.678 2256.22 139.057 Q2259.28 142.414 2259.28 148.201 M2255.02 146.951 Q2254.97 143.456 2253.05 141.372 Q2251.15 139.289 2248.01 139.289 Q2244.44 139.289 2242.29 141.303 Q2240.16 143.317 2239.84 146.974 L2255.02 146.951 Z" fill="#000000" fill-rule="nonzero" fill-opacity="1" /></svg>
