<?xml version="1.0" encoding="utf-8"?>
<svg xmlns="http://www.w3.org/2000/svg" xmlns:xlink="http://www.w3.org/1999/xlink" width="600" height="400" viewBox="0 0 2400 1600">
<defs>
  <clipPath id="clip730">
    <rect x="0" y="0" width="2400" height="1600"/>
  </clipPath>
</defs>
<path clip-path="url(#clip730)" d="M0 1600 L2400 1600 L2400 0 L0 0  Z" fill="#ffffff" fill-rule="evenodd" fill-opacity="1"/>
<defs>
  <clipPath id="clip731">
    <rect x="214" y="47" width="2139" height="1440"/>
  </clipPath>
</defs>
<path clip-path="url(#clip730)" d="M214.839 1486.45 L2352.76 1486.45 L2352.76 47.2441 L214.839 47.2441  Z" fill="#ffffff" fill-rule="evenodd" fill-opacity="1"/>
<polyline clip-path="url(#clip731)" style="stroke:#000000; stroke-linecap:round; stroke-linejoin:round; stroke-width:2; stroke-opacity:0.1; fill:none" points="275.346,1486.45 275.346,47.2441 "/>
<polyline clip-path="url(#clip731)" style="stroke:#000000; stroke-linecap:round; stroke-linejoin:round; stroke-width:2; stroke-opacity:0.1; fill:none" points="779.572,1486.45 779.572,47.2441 "/>
<polyline clip-path="url(#clip731)" style="stroke:#000000; stroke-linecap:round; stroke-linejoin:round; stroke-width:2; stroke-opacity:0.1; fill:none" points="1283.8,1486.45 1283.8,47.2441 "/>
<polyline clip-path="url(#clip731)" style="stroke:#000000; stroke-linecap:round; stroke-linejoin:round; stroke-width:2; stroke-opacity:0.1; fill:none" points="1788.02,1486.45 1788.02,47.2441 "/>
<polyline clip-path="url(#clip731)" style="stroke:#000000; stroke-linecap:round; stroke-linejoin:round; stroke-width:2; stroke-opacity:0.1; fill:none" points="2292.25,1486.45 2292.25,47.2441 "/>
<polyline clip-path="url(#clip731)" style="stroke:#000000; stroke-linecap:round; stroke-linejoin:round; stroke-width:2; stroke-opacity:0.1; fill:none" points="214.839,1452.63 2352.76,1452.63 "/>
<polyline clip-path="url(#clip731)" style="stroke:#000000; stroke-linecap:round; stroke-linejoin:round; stroke-width:2; stroke-opacity:0.1; fill:none" points="214.839,1225.14 2352.76,1225.14 "/>
<polyline clip-path="url(#clip731)" style="stroke:#000000; stroke-linecap:round; stroke-linejoin:round; stroke-width:2; stroke-opacity:0.1; fill:none" points="214.839,997.648 2352.76,997.648 "/>
<polyline clip-path="url(#clip731)" style="stroke:#000000; stroke-linecap:round; stroke-linejoin:round; stroke-width:2; stroke-opacity:0.1; fill:none" points="214.839,770.159 2352.76,770.159 "/>
<polyline clip-path="url(#clip731)" style="stroke:#000000; stroke-linecap:round; stroke-linejoin:round; stroke-width:2; stroke-opacity:0.1; fill:none" points="214.839,542.67 2352.76,542.67 "/>
<polyline clip-path="url(#clip731)" style="stroke:#000000; stroke-linecap:round; stroke-linejoin:round; stroke-width:2; stroke-opacity:0.1; fill:none" points="214.839,315.182 2352.76,315.182 "/>
<polyline clip-path="url(#clip731)" style="stroke:#000000; stroke-linecap:round; stroke-linejoin:round; stroke-width:2; stroke-opacity:0.1; fill:none" points="214.839,87.6928 2352.76,87.6928 "/>
<polyline clip-path="url(#clip730)" style="stroke:#000000; stroke-linecap:round; stroke-linejoin:round; stroke-width:4; stroke-opacity:1; fill:none" points="214.839,1486.45 2352.76,1486.45 "/>
<polyline clip-path="url(#clip730)" style="stroke:#000000; stroke-linecap:round; stroke-linejoin:round; stroke-width:4; stroke-opacity:1; fill:none" points="275.346,1486.45 275.346,1467.55 "/>
<polyline clip-path="url(#clip730)" style="stroke:#000000; stroke-linecap:round; stroke-linejoin:round; stroke-width:4; stroke-opacity:1; fill:none" points="779.572,1486.45 779.572,1467.55 "/>
<polyline clip-path="url(#clip730)" style="stroke:#000000; stroke-linecap:round; stroke-linejoin:round; stroke-width:4; stroke-opacity:1; fill:none" points="1283.8,1486.45 1283.8,1467.55 "/>
<polyline clip-path="url(#clip730)" style="stroke:#000000; stroke-linecap:round; stroke-linejoin:round; stroke-width:4; stroke-opacity:1; fill:none" points="1788.02,1486.45 1788.02,1467.55 "/>
<polyline clip-path="url(#clip730)" style="stroke:#000000; stroke-linecap:round; stroke-linejoin:round; stroke-width:4; stroke-opacity:1; fill:none" points="2292.25,1486.45 2292.25,1467.55 "/>
<path clip-path="url(#clip730)" d="M275.346 1517.37 Q271.735 1517.37 269.906 1520.93 Q268.1 1524.47 268.1 1531.6 Q268.1 1538.71 269.906 1542.27 Q271.735 1545.82 275.346 1545.82 Q278.98 1545.82 280.786 1542.27 Q282.614 1538.71 282.614 1531.6 Q282.614 1524.47 280.786 1520.93 Q278.98 1517.37 275.346 1517.37 M275.346 1513.66 Q281.156 1513.66 284.211 1518.27 Q287.29 1522.85 287.29 1531.6 Q287.29 1540.33 284.211 1544.94 Q281.156 1549.52 275.346 1549.52 Q269.536 1549.52 266.457 1544.94 Q263.401 1540.33 263.401 1531.6 Q263.401 1522.85 266.457 1518.27 Q269.536 1513.66 275.346 1513.66 Z" fill="#000000" fill-rule="nonzero" fill-opacity="1" /><path clip-path="url(#clip730)" d="M769.849 1514.29 L788.206 1514.29 L788.206 1518.22 L774.132 1518.22 L774.132 1526.7 Q775.15 1526.35 776.169 1526.19 Q777.187 1526 778.206 1526 Q783.993 1526 787.372 1529.17 Q790.752 1532.34 790.752 1537.76 Q790.752 1543.34 787.28 1546.44 Q783.808 1549.52 777.488 1549.52 Q775.312 1549.52 773.044 1549.15 Q770.798 1548.78 768.391 1548.04 L768.391 1543.34 Q770.474 1544.47 772.697 1545.03 Q774.919 1545.58 777.396 1545.58 Q781.4 1545.58 783.738 1543.48 Q786.076 1541.37 786.076 1537.76 Q786.076 1534.15 783.738 1532.04 Q781.4 1529.94 777.396 1529.94 Q775.521 1529.94 773.646 1530.35 Q771.794 1530.77 769.849 1531.65 L769.849 1514.29 Z" fill="#000000" fill-rule="nonzero" fill-opacity="1" /><path clip-path="url(#clip730)" d="M1258.48 1544.91 L1266.12 1544.91 L1266.12 1518.55 L1257.81 1520.21 L1257.81 1515.95 L1266.08 1514.29 L1270.75 1514.29 L1270.75 1544.91 L1278.39 1544.91 L1278.39 1548.85 L1258.48 1548.85 L1258.48 1544.91 Z" fill="#000000" fill-rule="nonzero" fill-opacity="1" /><path clip-path="url(#clip730)" d="M1297.84 1517.37 Q1294.23 1517.37 1292.4 1520.93 Q1290.59 1524.47 1290.59 1531.6 Q1290.59 1538.71 1292.4 1542.27 Q1294.23 1545.82 1297.84 1545.82 Q1301.47 1545.82 1303.28 1542.27 Q1305.11 1538.71 1305.11 1531.6 Q1305.11 1524.47 1303.28 1520.93 Q1301.47 1517.37 1297.84 1517.37 M1297.84 1513.66 Q1303.65 1513.66 1306.7 1518.27 Q1309.78 1522.85 1309.78 1531.6 Q1309.78 1540.33 1306.7 1544.94 Q1303.65 1549.52 1297.84 1549.52 Q1292.03 1549.52 1288.95 1544.94 Q1285.89 1540.33 1285.89 1531.6 Q1285.89 1522.85 1288.95 1518.27 Q1292.03 1513.66 1297.84 1513.66 Z" fill="#000000" fill-rule="nonzero" fill-opacity="1" /><path clip-path="url(#clip730)" d="M1763.21 1544.91 L1770.85 1544.91 L1770.85 1518.55 L1762.54 1520.21 L1762.54 1515.95 L1770.8 1514.29 L1775.48 1514.29 L1775.48 1544.91 L1783.12 1544.91 L1783.12 1548.85 L1763.21 1548.85 L1763.21 1544.91 Z" fill="#000000" fill-rule="nonzero" fill-opacity="1" /><path clip-path="url(#clip730)" d="M1792.61 1514.29 L1810.96 1514.29 L1810.96 1518.22 L1796.89 1518.22 L1796.89 1526.7 Q1797.91 1526.35 1798.93 1526.19 Q1799.94 1526 1800.96 1526 Q1806.75 1526 1810.13 1529.17 Q1813.51 1532.34 1813.51 1537.76 Q1813.51 1543.34 1810.04 1546.44 Q1806.56 1549.52 1800.25 1549.52 Q1798.07 1549.52 1795.8 1549.15 Q1793.56 1548.78 1791.15 1548.04 L1791.15 1543.34 Q1793.23 1544.47 1795.45 1545.03 Q1797.68 1545.58 1800.15 1545.58 Q1804.16 1545.58 1806.5 1543.48 Q1808.83 1541.37 1808.83 1537.76 Q1808.83 1534.15 1806.5 1532.04 Q1804.16 1529.94 1800.15 1529.94 Q1798.28 1529.94 1796.4 1530.35 Q1794.55 1530.77 1792.61 1531.65 L1792.61 1514.29 Z" fill="#000000" fill-rule="nonzero" fill-opacity="1" /><path clip-path="url(#clip730)" d="M2271.02 1544.91 L2287.34 1544.91 L2287.34 1548.85 L2265.4 1548.85 L2265.4 1544.91 Q2268.06 1542.16 2272.64 1537.53 Q2277.25 1532.88 2278.43 1531.53 Q2280.67 1529.01 2281.55 1527.27 Q2282.46 1525.51 2282.46 1523.82 Q2282.46 1521.07 2280.51 1519.33 Q2278.59 1517.6 2275.49 1517.6 Q2273.29 1517.6 2270.84 1518.36 Q2268.41 1519.13 2265.63 1520.68 L2265.63 1515.95 Q2268.45 1514.82 2270.91 1514.24 Q2273.36 1513.66 2275.4 1513.66 Q2280.77 1513.66 2283.96 1516.35 Q2287.16 1519.03 2287.16 1523.52 Q2287.16 1525.65 2286.35 1527.57 Q2285.56 1529.47 2283.45 1532.07 Q2282.87 1532.74 2279.77 1535.95 Q2276.67 1539.15 2271.02 1544.91 Z" fill="#000000" fill-rule="nonzero" fill-opacity="1" /><path clip-path="url(#clip730)" d="M2307.16 1517.37 Q2303.55 1517.37 2301.72 1520.93 Q2299.91 1524.47 2299.91 1531.6 Q2299.91 1538.71 2301.72 1542.27 Q2303.55 1545.82 2307.16 1545.82 Q2310.79 1545.82 2312.6 1542.27 Q2314.42 1538.71 2314.42 1531.6 Q2314.42 1524.47 2312.6 1520.93 Q2310.79 1517.37 2307.16 1517.37 M2307.16 1513.66 Q2312.97 1513.66 2316.02 1518.27 Q2319.1 1522.85 2319.1 1531.6 Q2319.1 1540.33 2316.02 1544.94 Q2312.97 1549.52 2307.16 1549.52 Q2301.35 1549.52 2298.27 1544.94 Q2295.21 1540.33 2295.21 1531.6 Q2295.21 1522.85 2298.27 1518.27 Q2301.35 1513.66 2307.16 1513.66 Z" fill="#000000" fill-rule="nonzero" fill-opacity="1" /><polyline clip-path="url(#clip730)" style="stroke:#000000; stroke-linecap:round; stroke-linejoin:round; stroke-width:4; stroke-opacity:1; fill:none" points="214.839,1486.45 214.839,47.2441 "/>
<polyline clip-path="url(#clip730)" style="stroke:#000000; stroke-linecap:round; stroke-linejoin:round; stroke-width:4; stroke-opacity:1; fill:none" points="214.839,1452.63 233.736,1452.63 "/>
<polyline clip-path="url(#clip730)" style="stroke:#000000; stroke-linecap:round; stroke-linejoin:round; stroke-width:4; stroke-opacity:1; fill:none" points="214.839,1225.14 233.736,1225.14 "/>
<polyline clip-path="url(#clip730)" style="stroke:#000000; stroke-linecap:round; stroke-linejoin:round; stroke-width:4; stroke-opacity:1; fill:none" points="214.839,997.648 233.736,997.648 "/>
<polyline clip-path="url(#clip730)" style="stroke:#000000; stroke-linecap:round; stroke-linejoin:round; stroke-width:4; stroke-opacity:1; fill:none" points="214.839,770.159 233.736,770.159 "/>
<polyline clip-path="url(#clip730)" style="stroke:#000000; stroke-linecap:round; stroke-linejoin:round; stroke-width:4; stroke-opacity:1; fill:none" points="214.839,542.67 233.736,542.67 "/>
<polyline clip-path="url(#clip730)" style="stroke:#000000; stroke-linecap:round; stroke-linejoin:round; stroke-width:4; stroke-opacity:1; fill:none" points="214.839,315.182 233.736,315.182 "/>
<polyline clip-path="url(#clip730)" style="stroke:#000000; stroke-linecap:round; stroke-linejoin:round; stroke-width:4; stroke-opacity:1; fill:none" points="214.839,87.6928 233.736,87.6928 "/>
<path clip-path="url(#clip730)" d="M51.6634 1465.97 L59.3023 1465.97 L59.3023 1439.6 L50.9921 1441.27 L50.9921 1437.01 L59.256 1435.35 L63.9319 1435.35 L63.9319 1465.97 L71.5707 1465.97 L71.5707 1469.91 L51.6634 1469.91 L51.6634 1465.97 Z" fill="#000000" fill-rule="nonzero" fill-opacity="1" /><path clip-path="url(#clip730)" d="M81.0151 1464.03 L85.8993 1464.03 L85.8993 1469.91 L81.0151 1469.91 L81.0151 1464.03 Z" fill="#000000" fill-rule="nonzero" fill-opacity="1" /><path clip-path="url(#clip730)" d="M106.084 1438.42 Q102.473 1438.42 100.645 1441.99 Q98.8391 1445.53 98.8391 1452.66 Q98.8391 1459.77 100.645 1463.33 Q102.473 1466.87 106.084 1466.87 Q109.719 1466.87 111.524 1463.33 Q113.353 1459.77 113.353 1452.66 Q113.353 1445.53 111.524 1441.99 Q109.719 1438.42 106.084 1438.42 M106.084 1434.72 Q111.895 1434.72 114.95 1439.33 Q118.029 1443.91 118.029 1452.66 Q118.029 1461.39 114.95 1465.99 Q111.895 1470.58 106.084 1470.58 Q100.274 1470.58 97.1956 1465.99 Q94.14 1461.39 94.14 1452.66 Q94.14 1443.91 97.1956 1439.33 Q100.274 1434.72 106.084 1434.72 Z" fill="#000000" fill-rule="nonzero" fill-opacity="1" /><path clip-path="url(#clip730)" d="M136.246 1438.42 Q132.635 1438.42 130.807 1441.99 Q129.001 1445.53 129.001 1452.66 Q129.001 1459.77 130.807 1463.33 Q132.635 1466.87 136.246 1466.87 Q139.881 1466.87 141.686 1463.33 Q143.515 1459.77 143.515 1452.66 Q143.515 1445.53 141.686 1441.99 Q139.881 1438.42 136.246 1438.42 M136.246 1434.72 Q142.056 1434.72 145.112 1439.33 Q148.191 1443.91 148.191 1452.66 Q148.191 1461.39 145.112 1465.99 Q142.056 1470.58 136.246 1470.58 Q130.436 1470.58 127.357 1465.99 Q124.302 1461.39 124.302 1452.66 Q124.302 1443.91 127.357 1439.33 Q130.436 1434.72 136.246 1434.72 Z" fill="#000000" fill-rule="nonzero" fill-opacity="1" /><path clip-path="url(#clip730)" d="M169.255 1439.42 L157.45 1457.87 L169.255 1457.87 L169.255 1439.42 M168.029 1435.35 L173.908 1435.35 L173.908 1457.87 L178.839 1457.87 L178.839 1461.76 L173.908 1461.76 L173.908 1469.91 L169.255 1469.91 L169.255 1461.76 L153.654 1461.76 L153.654 1457.24 L168.029 1435.35 Z" fill="#000000" fill-rule="nonzero" fill-opacity="1" /><path clip-path="url(#clip730)" d="M53.1449 1238.48 L60.7837 1238.48 L60.7837 1212.12 L52.4736 1213.78 L52.4736 1209.52 L60.7374 1207.86 L65.4133 1207.86 L65.4133 1238.48 L73.0522 1238.48 L73.0522 1242.42 L53.1449 1242.42 L53.1449 1238.48 Z" fill="#000000" fill-rule="nonzero" fill-opacity="1" /><path clip-path="url(#clip730)" d="M82.4966 1236.54 L87.3808 1236.54 L87.3808 1242.42 L82.4966 1242.42 L82.4966 1236.54 Z" fill="#000000" fill-rule="nonzero" fill-opacity="1" /><path clip-path="url(#clip730)" d="M107.566 1210.94 Q103.955 1210.94 102.126 1214.5 Q100.321 1218.04 100.321 1225.17 Q100.321 1232.28 102.126 1235.84 Q103.955 1239.38 107.566 1239.38 Q111.2 1239.38 113.006 1235.84 Q114.834 1232.28 114.834 1225.17 Q114.834 1218.04 113.006 1214.5 Q111.2 1210.94 107.566 1210.94 M107.566 1207.23 Q113.376 1207.23 116.432 1211.84 Q119.51 1216.42 119.51 1225.17 Q119.51 1233.9 116.432 1238.5 Q113.376 1243.09 107.566 1243.09 Q101.756 1243.09 98.6771 1238.5 Q95.6215 1233.9 95.6215 1225.17 Q95.6215 1216.42 98.6771 1211.84 Q101.756 1207.23 107.566 1207.23 Z" fill="#000000" fill-rule="nonzero" fill-opacity="1" /><path clip-path="url(#clip730)" d="M137.728 1210.94 Q134.117 1210.94 132.288 1214.5 Q130.482 1218.04 130.482 1225.17 Q130.482 1232.28 132.288 1235.84 Q134.117 1239.38 137.728 1239.38 Q141.362 1239.38 143.168 1235.84 Q144.996 1232.28 144.996 1225.17 Q144.996 1218.04 143.168 1214.5 Q141.362 1210.94 137.728 1210.94 M137.728 1207.23 Q143.538 1207.23 146.593 1211.84 Q149.672 1216.42 149.672 1225.17 Q149.672 1233.9 146.593 1238.5 Q143.538 1243.09 137.728 1243.09 Q131.918 1243.09 128.839 1238.5 Q125.783 1233.9 125.783 1225.17 Q125.783 1216.42 128.839 1211.84 Q131.918 1207.23 137.728 1207.23 Z" fill="#000000" fill-rule="nonzero" fill-opacity="1" /><path clip-path="url(#clip730)" d="M157.936 1207.86 L176.292 1207.86 L176.292 1211.79 L162.218 1211.79 L162.218 1220.26 Q163.237 1219.92 164.255 1219.75 Q165.274 1219.57 166.292 1219.57 Q172.079 1219.57 175.459 1222.74 Q178.839 1225.91 178.839 1231.33 Q178.839 1236.91 175.366 1240.01 Q171.894 1243.09 165.575 1243.09 Q163.399 1243.09 161.13 1242.72 Q158.885 1242.35 156.478 1241.61 L156.478 1236.91 Q158.561 1238.04 160.783 1238.6 Q163.005 1239.15 165.482 1239.15 Q169.487 1239.15 171.825 1237.05 Q174.163 1234.94 174.163 1231.33 Q174.163 1227.72 171.825 1225.61 Q169.487 1223.5 165.482 1223.5 Q163.607 1223.5 161.732 1223.92 Q159.88 1224.34 157.936 1225.22 L157.936 1207.86 Z" fill="#000000" fill-rule="nonzero" fill-opacity="1" /><path clip-path="url(#clip730)" d="M51.9875 1010.99 L59.6263 1010.99 L59.6263 984.627 L51.3162 986.294 L51.3162 982.035 L59.58 980.368 L64.2559 980.368 L64.2559 1010.99 L71.8948 1010.99 L71.8948 1014.93 L51.9875 1014.93 L51.9875 1010.99 Z" fill="#000000" fill-rule="nonzero" fill-opacity="1" /><path clip-path="url(#clip730)" d="M81.3392 1009.05 L86.2234 1009.05 L86.2234 1014.93 L81.3392 1014.93 L81.3392 1009.05 Z" fill="#000000" fill-rule="nonzero" fill-opacity="1" /><path clip-path="url(#clip730)" d="M106.408 983.447 Q102.797 983.447 100.969 987.011 Q99.1632 990.553 99.1632 997.683 Q99.1632 1004.79 100.969 1008.35 Q102.797 1011.9 106.408 1011.9 Q110.043 1011.9 111.848 1008.35 Q113.677 1004.79 113.677 997.683 Q113.677 990.553 111.848 987.011 Q110.043 983.447 106.408 983.447 M106.408 979.743 Q112.219 979.743 115.274 984.349 Q118.353 988.933 118.353 997.683 Q118.353 1006.41 115.274 1011.02 Q112.219 1015.6 106.408 1015.6 Q100.598 1015.6 97.5197 1011.02 Q94.4641 1006.41 94.4641 997.683 Q94.4641 988.933 97.5197 984.349 Q100.598 979.743 106.408 979.743 Z" fill="#000000" fill-rule="nonzero" fill-opacity="1" /><path clip-path="url(#clip730)" d="M136.57 983.447 Q132.959 983.447 131.131 987.011 Q129.325 990.553 129.325 997.683 Q129.325 1004.79 131.131 1008.35 Q132.959 1011.9 136.57 1011.9 Q140.205 1011.9 142.01 1008.35 Q143.839 1004.79 143.839 997.683 Q143.839 990.553 142.01 987.011 Q140.205 983.447 136.57 983.447 M136.57 979.743 Q142.381 979.743 145.436 984.349 Q148.515 988.933 148.515 997.683 Q148.515 1006.41 145.436 1011.02 Q142.381 1015.6 136.57 1015.6 Q130.76 1015.6 127.682 1011.02 Q124.626 1006.41 124.626 997.683 Q124.626 988.933 127.682 984.349 Q130.76 979.743 136.57 979.743 Z" fill="#000000" fill-rule="nonzero" fill-opacity="1" /><path clip-path="url(#clip730)" d="M167.311 995.784 Q164.163 995.784 162.311 997.937 Q160.482 1000.09 160.482 1003.84 Q160.482 1007.57 162.311 1009.74 Q164.163 1011.9 167.311 1011.9 Q170.459 1011.9 172.288 1009.74 Q174.14 1007.57 174.14 1003.84 Q174.14 1000.09 172.288 997.937 Q170.459 995.784 167.311 995.784 M176.593 981.132 L176.593 985.391 Q174.834 984.558 173.029 984.118 Q171.246 983.678 169.487 983.678 Q164.857 983.678 162.404 986.803 Q159.973 989.928 159.626 996.247 Q160.992 994.234 163.052 993.169 Q165.112 992.081 167.589 992.081 Q172.797 992.081 175.806 995.252 Q178.839 998.4 178.839 1003.84 Q178.839 1009.16 175.691 1012.38 Q172.542 1015.6 167.311 1015.6 Q161.316 1015.6 158.144 1011.02 Q154.973 1006.41 154.973 997.683 Q154.973 989.488 158.862 984.627 Q162.751 979.743 169.302 979.743 Q171.061 979.743 172.843 980.09 Q174.649 980.437 176.593 981.132 Z" fill="#000000" fill-rule="nonzero" fill-opacity="1" /><path clip-path="url(#clip730)" d="M53.0523 783.504 L60.6911 783.504 L60.6911 757.138 L52.381 758.805 L52.381 754.546 L60.6449 752.879 L65.3208 752.879 L65.3208 783.504 L72.9596 783.504 L72.9596 787.439 L53.0523 787.439 L53.0523 783.504 Z" fill="#000000" fill-rule="nonzero" fill-opacity="1" /><path clip-path="url(#clip730)" d="M82.404 781.559 L87.2882 781.559 L87.2882 787.439 L82.404 787.439 L82.404 781.559 Z" fill="#000000" fill-rule="nonzero" fill-opacity="1" /><path clip-path="url(#clip730)" d="M107.473 755.958 Q103.862 755.958 102.034 759.523 Q100.228 763.064 100.228 770.194 Q100.228 777.3 102.034 780.865 Q103.862 784.407 107.473 784.407 Q111.108 784.407 112.913 780.865 Q114.742 777.3 114.742 770.194 Q114.742 763.064 112.913 759.523 Q111.108 755.958 107.473 755.958 M107.473 752.254 Q113.283 752.254 116.339 756.861 Q119.418 761.444 119.418 770.194 Q119.418 778.921 116.339 783.527 Q113.283 788.11 107.473 788.11 Q101.663 788.11 98.5845 783.527 Q95.5289 778.921 95.5289 770.194 Q95.5289 761.444 98.5845 756.861 Q101.663 752.254 107.473 752.254 Z" fill="#000000" fill-rule="nonzero" fill-opacity="1" /><path clip-path="url(#clip730)" d="M137.635 755.958 Q134.024 755.958 132.195 759.523 Q130.39 763.064 130.39 770.194 Q130.39 777.3 132.195 780.865 Q134.024 784.407 137.635 784.407 Q141.269 784.407 143.075 780.865 Q144.904 777.3 144.904 770.194 Q144.904 763.064 143.075 759.523 Q141.269 755.958 137.635 755.958 M137.635 752.254 Q143.445 752.254 146.501 756.861 Q149.58 761.444 149.58 770.194 Q149.58 778.921 146.501 783.527 Q143.445 788.11 137.635 788.11 Q131.825 788.11 128.746 783.527 Q125.691 778.921 125.691 770.194 Q125.691 761.444 128.746 756.861 Q131.825 752.254 137.635 752.254 Z" fill="#000000" fill-rule="nonzero" fill-opacity="1" /><path clip-path="url(#clip730)" d="M156.617 752.879 L178.839 752.879 L178.839 754.87 L166.292 787.439 L161.408 787.439 L173.214 756.814 L156.617 756.814 L156.617 752.879 Z" fill="#000000" fill-rule="nonzero" fill-opacity="1" /><path clip-path="url(#clip730)" d="M52.2421 556.015 L59.881 556.015 L59.881 529.65 L51.5708 531.316 L51.5708 527.057 L59.8347 525.39 L64.5106 525.39 L64.5106 556.015 L72.1494 556.015 L72.1494 559.95 L52.2421 559.95 L52.2421 556.015 Z" fill="#000000" fill-rule="nonzero" fill-opacity="1" /><path clip-path="url(#clip730)" d="M81.5938 554.071 L86.478 554.071 L86.478 559.95 L81.5938 559.95 L81.5938 554.071 Z" fill="#000000" fill-rule="nonzero" fill-opacity="1" /><path clip-path="url(#clip730)" d="M106.663 528.469 Q103.052 528.469 101.223 532.034 Q99.4178 535.575 99.4178 542.705 Q99.4178 549.811 101.223 553.376 Q103.052 556.918 106.663 556.918 Q110.297 556.918 112.103 553.376 Q113.932 549.811 113.932 542.705 Q113.932 535.575 112.103 532.034 Q110.297 528.469 106.663 528.469 M106.663 524.765 Q112.473 524.765 115.529 529.372 Q118.608 533.955 118.608 542.705 Q118.608 551.432 115.529 556.038 Q112.473 560.622 106.663 560.622 Q100.853 560.622 97.7743 556.038 Q94.7187 551.432 94.7187 542.705 Q94.7187 533.955 97.7743 529.372 Q100.853 524.765 106.663 524.765 Z" fill="#000000" fill-rule="nonzero" fill-opacity="1" /><path clip-path="url(#clip730)" d="M136.825 528.469 Q133.214 528.469 131.385 532.034 Q129.58 535.575 129.58 542.705 Q129.58 549.811 131.385 553.376 Q133.214 556.918 136.825 556.918 Q140.459 556.918 142.265 553.376 Q144.093 549.811 144.093 542.705 Q144.093 535.575 142.265 532.034 Q140.459 528.469 136.825 528.469 M136.825 524.765 Q142.635 524.765 145.691 529.372 Q148.769 533.955 148.769 542.705 Q148.769 551.432 145.691 556.038 Q142.635 560.622 136.825 560.622 Q131.015 560.622 127.936 556.038 Q124.881 551.432 124.881 542.705 Q124.881 533.955 127.936 529.372 Q131.015 524.765 136.825 524.765 Z" fill="#000000" fill-rule="nonzero" fill-opacity="1" /><path clip-path="url(#clip730)" d="M166.987 543.538 Q163.654 543.538 161.732 545.321 Q159.834 547.103 159.834 550.228 Q159.834 553.353 161.732 555.136 Q163.654 556.918 166.987 556.918 Q170.32 556.918 172.241 555.136 Q174.163 553.33 174.163 550.228 Q174.163 547.103 172.241 545.321 Q170.343 543.538 166.987 543.538 M162.311 541.548 Q159.302 540.807 157.612 538.747 Q155.945 536.687 155.945 533.724 Q155.945 529.58 158.885 527.173 Q161.848 524.765 166.987 524.765 Q172.149 524.765 175.089 527.173 Q178.028 529.58 178.028 533.724 Q178.028 536.687 176.339 538.747 Q174.672 540.807 171.686 541.548 Q175.066 542.335 176.941 544.626 Q178.839 546.918 178.839 550.228 Q178.839 555.251 175.76 557.936 Q172.704 560.622 166.987 560.622 Q161.269 560.622 158.191 557.936 Q155.135 555.251 155.135 550.228 Q155.135 546.918 157.033 544.626 Q158.931 542.335 162.311 541.548 M160.598 534.163 Q160.598 536.849 162.265 538.353 Q163.954 539.858 166.987 539.858 Q169.996 539.858 171.686 538.353 Q173.399 536.849 173.399 534.163 Q173.399 531.478 171.686 529.974 Q169.996 528.469 166.987 528.469 Q163.954 528.469 162.265 529.974 Q160.598 531.478 160.598 534.163 Z" fill="#000000" fill-rule="nonzero" fill-opacity="1" /><path clip-path="url(#clip730)" d="M52.3347 328.526 L59.9736 328.526 L59.9736 302.161 L51.6634 303.827 L51.6634 299.568 L59.9273 297.902 L64.6032 297.902 L64.6032 328.526 L72.242 328.526 L72.242 332.462 L52.3347 332.462 L52.3347 328.526 Z" fill="#000000" fill-rule="nonzero" fill-opacity="1" /><path clip-path="url(#clip730)" d="M81.6864 326.582 L86.5706 326.582 L86.5706 332.462 L81.6864 332.462 L81.6864 326.582 Z" fill="#000000" fill-rule="nonzero" fill-opacity="1" /><path clip-path="url(#clip730)" d="M106.756 300.98 Q103.145 300.98 101.316 304.545 Q99.5104 308.087 99.5104 315.216 Q99.5104 322.323 101.316 325.888 Q103.145 329.429 106.756 329.429 Q110.39 329.429 112.196 325.888 Q114.024 322.323 114.024 315.216 Q114.024 308.087 112.196 304.545 Q110.39 300.98 106.756 300.98 M106.756 297.277 Q112.566 297.277 115.621 301.883 Q118.7 306.466 118.7 315.216 Q118.7 323.943 115.621 328.55 Q112.566 333.133 106.756 333.133 Q100.946 333.133 97.8669 328.55 Q94.8113 323.943 94.8113 315.216 Q94.8113 306.466 97.8669 301.883 Q100.946 297.277 106.756 297.277 Z" fill="#000000" fill-rule="nonzero" fill-opacity="1" /><path clip-path="url(#clip730)" d="M136.918 300.98 Q133.306 300.98 131.478 304.545 Q129.672 308.087 129.672 315.216 Q129.672 322.323 131.478 325.888 Q133.306 329.429 136.918 329.429 Q140.552 329.429 142.357 325.888 Q144.186 322.323 144.186 315.216 Q144.186 308.087 142.357 304.545 Q140.552 300.98 136.918 300.98 M136.918 297.277 Q142.728 297.277 145.783 301.883 Q148.862 306.466 148.862 315.216 Q148.862 323.943 145.783 328.55 Q142.728 333.133 136.918 333.133 Q131.107 333.133 128.029 328.55 Q124.973 323.943 124.973 315.216 Q124.973 306.466 128.029 301.883 Q131.107 297.277 136.918 297.277 Z" fill="#000000" fill-rule="nonzero" fill-opacity="1" /><path clip-path="url(#clip730)" d="M157.218 331.744 L157.218 327.485 Q158.978 328.318 160.783 328.758 Q162.589 329.198 164.325 329.198 Q168.954 329.198 171.385 326.096 Q173.839 322.971 174.186 316.628 Q172.843 318.619 170.783 319.684 Q168.723 320.749 166.223 320.749 Q161.038 320.749 158.005 317.624 Q154.996 314.476 154.996 309.036 Q154.996 303.712 158.144 300.494 Q161.292 297.277 166.524 297.277 Q172.519 297.277 175.667 301.883 Q178.839 306.466 178.839 315.216 Q178.839 323.388 174.95 328.272 Q171.084 333.133 164.533 333.133 Q162.774 333.133 160.968 332.786 Q159.163 332.438 157.218 331.744 M166.524 317.091 Q169.672 317.091 171.501 314.938 Q173.353 312.786 173.353 309.036 Q173.353 305.309 171.501 303.156 Q169.672 300.98 166.524 300.98 Q163.376 300.98 161.524 303.156 Q159.695 305.309 159.695 309.036 Q159.695 312.786 161.524 314.938 Q163.376 317.091 166.524 317.091 Z" fill="#000000" fill-rule="nonzero" fill-opacity="1" /><path clip-path="url(#clip730)" d="M52.1495 101.038 L59.7884 101.038 L59.7884 74.672 L51.4782 76.3387 L51.4782 72.0794 L59.7421 70.4128 L64.418 70.4128 L64.418 101.038 L72.0568 101.038 L72.0568 104.973 L52.1495 104.973 L52.1495 101.038 Z" fill="#000000" fill-rule="nonzero" fill-opacity="1" /><path clip-path="url(#clip730)" d="M81.5012 99.0932 L86.3855 99.0932 L86.3855 104.973 L81.5012 104.973 L81.5012 99.0932 Z" fill="#000000" fill-rule="nonzero" fill-opacity="1" /><path clip-path="url(#clip730)" d="M106.571 73.4915 Q102.959 73.4915 101.131 77.0563 Q99.3252 80.5979 99.3252 87.7275 Q99.3252 94.8339 101.131 98.3987 Q102.959 101.94 106.571 101.94 Q110.205 101.94 112.01 98.3987 Q113.839 94.8339 113.839 87.7275 Q113.839 80.5979 112.01 77.0563 Q110.205 73.4915 106.571 73.4915 M106.571 69.7878 Q112.381 69.7878 115.436 74.3942 Q118.515 78.9775 118.515 87.7275 Q118.515 96.4543 115.436 101.061 Q112.381 105.644 106.571 105.644 Q100.76 105.644 97.6817 101.061 Q94.6262 96.4543 94.6262 87.7275 Q94.6262 78.9775 97.6817 74.3942 Q100.76 69.7878 106.571 69.7878 Z" fill="#000000" fill-rule="nonzero" fill-opacity="1" /><path clip-path="url(#clip730)" d="M127.543 101.038 L135.181 101.038 L135.181 74.672 L126.871 76.3387 L126.871 72.0794 L135.135 70.4128 L139.811 70.4128 L139.811 101.038 L147.45 101.038 L147.45 104.973 L127.543 104.973 L127.543 101.038 Z" fill="#000000" fill-rule="nonzero" fill-opacity="1" /><path clip-path="url(#clip730)" d="M166.894 73.4915 Q163.283 73.4915 161.454 77.0563 Q159.649 80.5979 159.649 87.7275 Q159.649 94.8339 161.454 98.3987 Q163.283 101.94 166.894 101.94 Q170.529 101.94 172.334 98.3987 Q174.163 94.8339 174.163 87.7275 Q174.163 80.5979 172.334 77.0563 Q170.529 73.4915 166.894 73.4915 M166.894 69.7878 Q172.704 69.7878 175.76 74.3942 Q178.839 78.9775 178.839 87.7275 Q178.839 96.4543 175.76 101.061 Q172.704 105.644 166.894 105.644 Q161.084 105.644 158.005 101.061 Q154.95 96.4543 154.95 87.7275 Q154.95 78.9775 158.005 74.3942 Q161.084 69.7878 166.894 69.7878 Z" fill="#000000" fill-rule="nonzero" fill-opacity="1" /><polyline clip-path="url(#clip731)" style="stroke:#009af9; stroke-linecap:round; stroke-linejoin:round; stroke-width:4; stroke-opacity:1; fill:none" points="275.346,87.9763 275.447,87.9763 275.547,87.9763 275.749,87.9763 276.153,87.9763 276.959,87.9763 277.968,87.9763 278.976,87.9763 279.985,87.9763 280.993,87.9763 282.002,87.9763 283.01,87.9763 284.018,87.9763 285.027,87.9763 286.035,87.9763 287.044,87.9763 288.052,87.9763 289.061,87.9763 290.069,87.9763 291.078,87.9763 292.086,87.9763 293.095,87.9763 294.103,87.9763 295.111,87.9763 296.12,87.9763 297.128,87.9763 298.137,87.9763 299.145,87.9763 300.154,87.9763 301.162,87.9763 302.171,87.9763 303.179,87.9763 304.187,87.9763 305.196,87.9763 306.204,87.9763 307.213,87.9763 308.221,87.9763 309.23,87.9763 310.238,87.9763 311.247,87.9763 312.255,87.9763 313.264,87.9763 314.272,87.9763 315.28,87.9763 316.289,87.9763 317.297,87.9763 318.306,87.9763 319.314,87.9763 320.323,87.9763 321.331,87.9763 322.34,87.9763 323.348,87.9763 324.356,87.9763 325.365,87.9763 326.373,87.9763 327.382,87.9763 328.39,87.9763 329.399,87.9763 330.407,87.9763 331.416,87.9763 332.424,87.9763 333.433,87.9763 334.441,87.9763 335.449,87.9763 336.458,87.9763 337.466,87.9763 338.475,87.9763 339.483,87.9763 340.492,87.9763 341.5,87.9763 342.509,87.9763 343.517,87.9763 344.526,87.9763 345.534,87.9763 346.542,87.9763 347.551,87.9763 348.559,87.9763 349.568,87.9763 350.576,87.9763 351.585,87.9763 352.593,87.9763 353.602,87.9763 354.61,87.9763 355.618,87.9763 356.627,87.9763 357.635,87.9763 358.644,87.9763 359.652,87.9763 360.661,87.9763 361.669,87.9763 362.678,87.9763 363.686,87.9763 364.695,87.9763 365.703,87.9763 366.711,87.9763 367.72,87.9763 368.728,87.9763 369.737,87.9763 370.745,87.9763 371.754,87.9763 372.762,87.9763 373.771,87.9763 374.779,87.9763 375.788,87.9763 376.191,87.9763 376.204,1108.09 376.207,1108.42 376.209,1108.66 376.214,1109.14 376.223,1110.09 376.241,1111.98 376.278,1115.73 376.351,1123.08 376.498,1137.2 376.644,1150.75 376.791,1163.78 377.084,1188.63 377.377,1211.68 377.963,1252.62 378.55,1287.39 379.136,1316.83 379.722,1341.68 380.309,1362.49 380.895,1379.89 381.904,1403.23 382.912,1420.33 383.92,1432.24 384.929,1439.93 385.937,1444.24 386.946,1445.72 387.954,1444.96 388.963,1442.41 389.971,1438.4 390.98,1433.18 391.988,1426.95 392.996,1419.85 394.005,1411.99 395.013,1403.48 396.022,1394.43 397.03,1384.93 398.039,1375.04 399.047,1364.83 400.056,1354.37 401.064,1343.7 402.073,1332.88 403.081,1321.94 404.089,1310.96 405.098,1299.94 406.106,1288.9 407.115,1277.9 408.123,1267.08 409.132,1256.29 410.14,1245.4 411.149,1234.89 412.157,1224.84 413.166,1214.53 414.174,1204.14 415.182,1194.72 416.191,1185.66 417.199,1175.92 418.208,1166.57 419.216,1158.08 420.225,1149.61 421.233,1141.1 422.242,1133.11 423.25,1125.66 424.258,1118.02 425.267,1110.43 426.275,1103.89 427.284,1097.67 428.292,1090.56 429.301,1084.06 430.309,1079.09 431.318,1073.67 432.326,1067.04 433.335,1062.28 434.343,1058.14 435.351,1052.64 436.36,1048 437.368,1045.32 438.377,1041.58 439.385,1037.14 440.394,1034.25 441.402,1031.76 442.411,1027.36 443.419,1023.78 444.428,1022.46 445.436,1020.56 446.444,1017.67 447.453,1015.71 448.461,1014.43 449.47,1012.69 450.478,1010.71 451.487,1009.91 452.495,1008.85 453.504,1007.02 454.512,1006.54 455.52,1007.13 456.529,1005.53 457.537,1004.29 458.546,1004.61 459.554,1004.4 460.563,1003.45 461.571,1003.13 462.58,1003.53 463.588,1002.75 464.597,1002.11 465.605,1002.53 466.613,1001.88 467.622,999.847 468.63,1000.09 469.639,1000.03 470.647,998.293 471.656,996.953 472.664,996.286 473.673,994.827 474.681,992.876 475.69,991.313 476.698,989.376 477.706,986.242 478.715,983.412 479.723,981.534 480.732,977.691 481.74,973.568 482.749,970.249 483.757,966.24 484.766,961.25 485.774,956.319 486.782,951.623 487.791,945.719 488.799,939.48 489.808,933.708 490.816,926.96 491.825,918.834 492.833,912.023 493.842,904.779 494.85,896.09 495.859,887.44 496.867,879.074 497.875,869.975 498.884,860.008 499.892,850.59 500.901,840.836 501.909,830.002 502.918,819.566 503.926,809.885 504.935,798.315 505.943,786.644 506.952,775.903 507.96,764.624 508.968,752.605 509.977,740.898 510.985,729.665 511.994,717.526 513.002,705.417 514.011,694.117 515.019,682.177 516.028,669.298 517.036,658.18 518.044,647.065 519.053,634.969 520.061,623.417 521.07,612.659 522.078,601.688 523.087,590.392 524.095,580.208 525.104,570.244 526.112,559.766 527.121,550.283 528.129,542.141 529.137,532.67 530.146,523.687 531.154,516.224 532.163,508.79 533.171,501.172 534.18,494.424 535.188,488.338 536.197,482.274 537.205,476.76 538.214,472.39 539.222,468.094 540.23,463.371 541.239,460.298 542.247,457.669 543.256,454.693 544.264,452.415 545.273,451.027 546.281,449.77 547.29,448.498 548.298,448.216 549.306,448.285 550.315,448.11 551.323,448.69 552.332,450.29 553.34,450.978 554.349,451.966 555.357,453.948 556.366,455.846 557.374,457.467 558.383,459.507 559.391,462.036 560.399,464.03 561.408,466.095 562.416,468.735 563.425,470.886 564.433,472.279 565.442,474.769 566.45,477.069 567.459,478.443 568.467,479.916 569.475,481.619 570.484,482.8 571.492,483.341 572.501,484.21 573.509,484.744 574.518,484.393 575.526,484.184 576.535,484.329 577.543,482.926 578.552,481.231 579.56,479.947 580.568,478.004 581.577,475.243 582.585,472.393 583.594,469.547 584.602,465.708 585.611,461.53 586.619,457.553 587.628,452.729 588.636,446.843 589.645,441.81 590.653,436.364 591.661,429.803 592.67,423.212 593.678,416.768 594.687,409.75 595.695,402.334 596.704,395.001 597.712,387.403 598.721,379.147 599.729,371.019 600.737,363.396 601.746,354.829 602.754,346.2 603.763,338.09 604.771,329.779 605.78,321.149 606.788,312.76 607.797,304.731 608.805,296.362 609.814,288.122 610.822,280.446 611.83,272.631 612.839,264.497 613.847,257.428 614.856,250.562 615.864,243.409 616.873,236.736 617.881,230.681 618.89,224.745 619.898,218.873 620.907,213.788 621.915,209.051 622.923,204.289 623.932,200.254 624.94,197.121 625.949,193.555 626.957,190.455 627.966,188.331 628.974,186.434 629.983,184.65 630.991,183.495 631.999,183.034 633.008,182.552 634.016,182.5 635.025,183.247 636.033,184.036 637.042,184.694 638.05,186.551 639.059,188.688 640.067,190.581 641.076,192.966 642.084,195.935 643.092,198.944 644.101,201.905 645.109,205.504 646.118,209.255 647.126,212.754 648.135,216.725 649.143,221.303 650.152,225.108 651.16,229.026 652.169,233.539 653.177,237.861 654.185,241.856 655.194,246.024 656.202,250.408 657.211,254.269 658.219,258.05 659.228,262.112 660.236,265.678 661.245,268.569 662.253,272.127 663.261,275.418 664.27,277.914 665.278,280.366 666.287,282.871 667.295,284.887 668.304,286.515 669.312,288.074 670.321,289.289 671.329,289.856 672.338,290.313 673.346,290.908 674.354,290.584 675.363,289.952 676.371,289.407 677.38,288.416 678.388,286.882 679.397,285.187 680.405,283.404 681.414,281.019 682.422,278.359 683.431,275.723 684.439,272.606 685.447,268.872 686.456,265.402 687.464,261.72 688.473,257.659 689.481,253.445 690.49,249.131 691.498,244.598 692.507,239.851 693.515,235.103 694.523,230.32 695.532,225.253 696.54,220.101 697.549,215.211 698.557,210.224 699.566,204.88 700.574,199.732 701.583,194.853 702.591,189.823 703.6,184.7 704.608,180.046 705.616,175.577 706.625,170.734 707.633,166.216 708.642,161.989 709.65,157.781 710.659,153.737 711.667,150.006 712.676,146.465 713.684,143.022 714.693,139.898 715.701,137.154 716.709,134.459 717.718,131.866 718.726,129.864 719.735,128.032 720.743,126.335 721.752,125.001 722.76,123.98 723.769,123.146 724.777,122.573 725.785,122.354 726.794,122.356 727.802,122.503 728.811,123.016 729.819,123.916 730.828,124.853 731.836,125.902 732.845,127.485 733.853,129.292 734.862,131.099 735.87,133.155 736.878,135.518 737.887,137.993 738.895,140.525 739.904,143.36 740.912,146.444 741.921,149.394 742.929,152.541 743.938,156.027 744.946,159.302 745.955,162.665 746.963,166.207 747.971,169.771 748.98,173.324 749.988,176.942 750.997,180.616 752.005,184.206 753.014,187.74 754.022,191.376 755.031,194.979 756.039,198.33 757.047,201.721 758.056,205.142 759.064,208.376 760.073,211.47 761.081,214.533 762.09,217.487 763.098,220.234 764.107,222.895 765.115,225.528 766.124,227.908 767.132,230.014 768.14,232.168 769.149,234.152 770.157,235.883 771.166,237.482 772.174,238.957 773.183,240.229 774.191,241.314 775.2,242.275 776.208,243.065 777.217,243.625 778.225,244.052 779.233,244.407 780.242,244.529 781.25,244.396 782.259,244.257 783.267,244.006 784.276,243.507 785.284,242.881 786.293,242.193 787.301,241.361 788.309,240.35 789.318,239.302 790.326,238.225 791.335,236.927 792.343,235.488 793.352,234.185 794.36,232.719 795.369,231.13 796.377,229.577 797.386,227.997 798.394,226.325 799.402,224.64 800.411,223.005 801.419,221.319 802.428,219.562 803.436,217.919 804.445,216.379 805.453,214.694 806.462,213.094 807.47,211.608 808.479,210.128 809.487,208.685 810.495,207.352 811.504,206.1 812.512,204.885 813.521,203.778 814.529,202.825 815.538,201.915 816.546,201.036 817.555,200.37 818.563,199.882 819.571,199.351 820.58,198.934 821.588,198.746 822.597,198.656 823.605,198.629 824.614,198.76 825.622,199.074 826.631,199.437 827.639,199.868 828.648,200.558 829.656,201.405 830.664,202.161 831.673,203.162 832.681,204.364 833.69,205.481 834.698,206.811 835.707,208.422 836.715,209.852 837.724,211.204 838.732,213.134 839.741,215.242 840.749,216.838 841.757,218.739 842.766,220.868 843.774,222.874 844.783,224.914 845.791,227.145 846.8,229.394 847.808,231.532 848.817,233.807 849.825,236.18 850.833,238.436 851.842,240.669 852.85,243.095 853.859,245.353 854.867,247.563 855.876,249.859 856.884,252.103 857.893,254.238 858.901,256.36 859.91,258.498 860.918,260.501 861.926,262.372 862.935,264.321 863.943,266.167 864.952,267.802 865.96,269.51 866.969,271.173 867.977,272.619 868.986,273.974 869.994,275.309 871.003,276.522 872.011,277.558 873.019,278.568 874.028,279.561 875.036,280.303 876.045,280.953 877.053,281.636 878.062,282.077 879.07,282.37 880.079,282.679 881.087,282.895 882.095,282.941 883.104,282.911 884.112,282.863 885.121,282.66 886.129,282.286 887.138,281.966 888.146,281.567 889.155,280.969 890.163,280.423 891.172,279.861 892.18,279.138 893.188,278.354 894.197,277.59 895.205,276.771 896.214,275.851 897.222,274.96 898.231,274.126 899.239,273.158 900.248,272.177 901.256,271.304 902.265,270.334 903.273,269.33 904.281,268.429 905.29,267.558 906.298,266.656 907.307,265.797 908.315,265.034 909.324,264.263 910.332,263.471 911.341,262.831 912.349,262.314 913.357,261.687 914.366,261.181 915.374,260.803 916.383,260.443 917.391,260.136 918.4,259.95 919.408,259.842 920.417,259.787 921.425,259.82 922.434,259.963 923.442,260.163 924.45,260.414 925.459,260.799 926.467,261.296 927.476,261.788 928.484,262.347 929.493,263.087 930.501,263.885 931.51,264.69 932.518,265.594 933.527,266.598 934.535,267.64 935.543,268.713 936.552,269.896 937.56,271.155 938.569,272.376 939.577,273.64 940.586,275.071 941.594,276.465 942.603,277.821 943.611,279.27 944.619,280.765 945.628,282.225 946.636,283.693 947.645,285.199 948.653,286.695 949.662,288.153 950.67,289.629 951.679,291.128 952.687,292.546 953.696,293.902 954.704,295.329 955.712,296.737 956.721,297.985 957.729,299.211 958.738,300.469 959.746,301.644 960.755,302.726 961.763,303.785 962.772,304.818 963.78,305.729 964.788,306.548 965.797,307.403 966.805,308.194 967.814,308.765 968.822,309.39 969.831,309.963 970.839,310.376 971.848,310.737 972.856,311.083 973.865,311.333 974.873,311.461 975.881,311.587 976.89,311.699 977.898,311.631 978.907,311.529 979.915,311.473 980.924,311.235 981.932,310.911 982.941,310.64 983.949,310.32 984.958,309.895 985.966,309.449 986.974,309.03 987.983,308.516 988.991,307.905 990,307.391 991.008,306.846 992.017,306.173 993.025,305.605 994.034,305.067 995.042,304.43 996.05,303.79 997.059,303.217 998.067,302.639 999.076,302.014 1000.08,301.463 1001.09,301.006 1002.1,300.463 1003.11,299.953 1004.12,299.581 1005.13,299.147 1006.14,298.714 1007.14,298.411 1008.15,298.159 1009.16,297.901 1010.17,297.706 1011.18,297.617 1012.19,297.534 1013.19,297.441 1014.2,297.501 1015.21,297.62 1016.22,297.704 1017.23,297.93 1018.24,298.248 1019.24,298.549 1020.25,298.901 1021.26,299.355 1022.27,299.856 1023.28,300.363 1024.29,300.963 1025.3,301.672 1026.3,302.346 1027.31,303.012 1028.32,303.864 1029.33,304.711 1030.34,305.547 1031.35,306.465 1032.35,307.433 1033.36,308.395 1034.37,309.383 1035.38,310.419 1036.39,311.47 1037.4,312.514 1038.41,313.594 1039.41,314.711 1040.42,315.791 1041.43,316.85 1042.44,317.979 1043.45,319.115 1044.46,320.157 1045.46,321.204 1046.47,322.291 1047.48,323.338 1048.49,324.335 1049.5,325.332 1050.51,326.326 1051.52,327.246 1052.52,328.115 1053.53,329.021 1054.54,329.89 1055.55,330.612 1056.56,331.354 1057.57,332.108 1058.57,332.759 1059.58,333.342 1060.59,333.918 1061.6,334.446 1062.61,334.896 1063.62,335.302 1064.63,335.685 1065.63,335.99 1066.64,336.212 1067.65,336.432 1068.66,336.632 1069.67,336.697 1070.68,336.699 1071.68,336.754 1072.69,336.743 1073.7,336.621 1074.71,336.481 1075.72,336.33 1076.73,336.111 1077.74,335.823 1078.74,335.55 1079.75,335.263 1080.76,334.86 1081.77,334.424 1082.78,334.085 1083.79,333.618 1084.79,333.115 1085.8,332.666 1086.81,332.184 1087.82,331.643 1088.83,331.113 1089.84,330.618 1090.84,330.065 1091.85,329.465 1092.86,328.963 1093.87,328.44 1094.88,327.835 1095.89,327.344 1096.9,326.89 1097.9,326.363 1098.91,325.854 1099.92,325.415 1100.93,324.979 1101.94,324.514 1102.95,324.125 1103.95,323.82 1104.96,323.444 1105.97,323.106 1106.98,322.892 1107.99,322.616 1109,322.341 1110.01,322.182 1111.01,322.062 1112.02,321.929 1113.03,321.845 1114.04,321.849 1115.05,321.844 1116.06,321.817 1117.06,321.921 1118.07,322.059 1119.08,322.147 1120.09,322.353 1121.1,322.626 1122.11,322.861 1123.12,323.125 1124.12,323.465 1125.13,323.827 1126.14,324.172 1127.15,324.587 1128.16,325.082 1129.17,325.521 1130.17,325.982 1131.18,326.542 1132.19,327.052 1133.2,327.553 1134.21,328.13 1135.22,328.728 1136.23,329.299 1137.23,329.889 1138.24,330.526 1139.25,331.135 1140.26,331.701 1141.27,332.338 1142.28,333.021 1143.28,333.598 1144.29,334.167 1145.3,334.801 1146.31,335.413 1147.32,335.973 1148.33,336.544 1149.34,337.14 1150.34,337.67 1151.35,338.145 1152.36,338.692 1153.37,339.193 1154.38,339.592 1155.39,340.07 1156.39,340.546 1157.4,340.917 1158.41,341.264 1159.42,341.634 1160.43,341.959 1161.44,342.209 1162.44,342.479 1163.45,342.775 1164.46,342.947 1165.47,343.1 1166.48,343.312 1167.49,343.404 1168.5,343.437 1169.5,343.52 1170.51,343.579 1171.52,343.561 1172.53,343.53 1173.54,343.522 1174.55,343.444 1175.55,343.285 1176.56,343.193 1177.57,343.075 1178.58,342.852 1179.59,342.69 1180.6,342.539 1181.61,342.3 1182.61,342.041 1183.62,341.81 1184.63,341.555 1185.64,341.244 1186.65,340.962 1187.66,340.723 1188.66,340.398 1189.67,340.065 1190.68,339.766 1191.69,339.455 1192.7,339.124 1193.71,338.807 1194.72,338.499 1195.72,338.184 1196.73,337.866 1197.74,337.571 1198.75,337.286 1199.76,336.982 1200.77,336.692 1201.77,336.451 1202.78,336.193 1203.79,335.929 1204.8,335.703 1205.81,335.497 1206.82,335.288 1207.83,335.097 1208.83,334.94 1209.84,334.787 1210.85,334.63 1211.86,334.517 1212.87,334.447 1213.88,334.346 1214.88,334.246 1215.89,334.228 1216.9,334.224 1217.91,334.195 1218.92,334.197 1219.93,334.24 1220.94,334.284 1221.94,334.325 1222.95,334.414 1223.96,334.537 1224.97,334.621 1225.98,334.711 1226.99,334.899 1227.99,335.06 1229,335.187 1230.01,335.365 1231.02,335.574 1232.03,335.761 1233.04,335.954 1234.05,336.176 1235.05,336.401 1236.06,336.61 1237.07,336.842 1238.08,337.103 1239.09,337.331 1240.1,337.535 1241.1,337.802 1242.11,338.084 1243.12,338.286 1244.13,338.498 1245.14,338.757 1246.15,338.993 1247.15,339.199 1248.16,339.419 1249.17,339.656 1250.18,339.847 1251.19,340.012 1252.2,340.233 1253.21,340.45 1254.21,340.56 1255.22,340.712 1256.23,340.905 1257.24,341.038 1258.25,341.139 1259.26,341.265 1260.26,341.382 1261.27,341.461 1262.28,341.534 1263.29,341.62 1264.3,341.672 1265.31,341.682 1266.32,341.725 1267.32,341.784 1268.33,341.756 1269.34,341.703 1270.35,341.731 1271.36,341.732 1272.37,341.664 1273.37,341.61 1274.38,341.576 1275.39,341.509 1276.4,341.406 1277.41,341.342 1278.42,341.292 1279.43,341.158 1280.43,341.015 1281.44,340.954 1282.45,340.868 1283.46,340.723 1284.47,340.601 1285.48,340.503 1286.48,340.378 1287.49,340.229 1288.5,340.124 1289.51,340.035 1290.52,339.875 1291.53,339.72 1292.54,339.645 1293.54,339.55 1294.55,339.41 1295.56,339.3 1296.57,339.217 1297.58,339.115 1298.59,339 1299.59,338.93 1300.6,338.878 1301.61,338.768 1302.62,338.673 1303.63,338.675 1304.64,338.623 1305.65,338.533 1306.65,338.505 1307.66,338.5 1308.67,338.465 1309.68,338.438 1310.69,338.445 1311.7,338.45 1312.7,338.439 1313.71,338.46 1314.72,338.515 1315.73,338.53 1316.74,338.528 1317.75,338.61 1318.75,338.705 1319.76,338.716 1320.77,338.751 1321.78,338.849 1322.79,338.926 1323.8,338.979 1324.81,339.062 1325.81,339.172 1326.82,339.239 1327.83,339.291 1328.84,339.408 1329.85,339.521 1330.86,339.593 1331.86,339.678 1332.87,339.785 1333.88,339.876 1334.89,339.945 1335.9,340.044 1336.91,340.157 1337.92,340.223 1338.92,340.285 1339.93,340.375 1340.94,340.454 1341.95,340.511 1342.96,340.573 1343.97,340.647 1344.97,340.693 1345.98,340.718 1346.99,340.776 1348,340.837 1349.01,340.831 1350.02,340.844 1351.03,340.886 1352.03,340.893 1353.04,340.879 1354.05,340.879 1355.06,340.875 1356.07,340.85 1357.08,340.82 1358.08,340.798 1359.09,340.758 1360.1,340.692 1361.11,340.645 1362.12,340.611 1363.13,340.528 1364.14,340.426 1365.14,340.375 1366.15,340.312 1367.16,340.207 1368.17,340.11 1369.18,340.028 1370.19,339.927 1371.19,339.806 1372.2,339.709 1373.21,339.624 1374.22,339.489 1375.23,339.348 1376.24,339.26 1377.25,339.159 1378.25,339.023 1379.26,338.901 1380.27,338.797 1381.28,338.678 1382.29,338.544 1383.3,338.439 1384.3,338.347 1385.31,338.211 1386.32,338.078 1387.33,337.998 1388.34,337.907 1389.35,337.788 1390.36,337.689 1391.36,337.608 1392.37,337.516 1393.38,337.416 1394.39,337.347 1395.4,337.29 1396.41,337.196 1397.41,337.111 1398.42,337.091 1399.43,337.037 1400.44,336.958 1401.45,336.919 1402.46,336.897 1403.46,336.855 1404.47,336.819 1405.48,336.804 1406.49,336.79 1407.5,336.765 1408.51,336.761 1409.52,336.78 1410.52,336.773 1411.53,336.755 1412.54,336.792 1413.55,336.839 1414.56,336.831 1415.57,336.839 1416.57,336.888 1417.58,336.925 1418.59,336.946 1419.6,336.987 1420.61,337.046 1421.62,337.078 1422.63,337.101 1423.63,337.167 1424.64,337.23 1425.65,337.268 1426.66,337.315 1427.67,337.378 1428.68,337.43 1429.68,337.469 1430.69,337.528 1431.7,337.598 1432.71,337.638 1433.72,337.675 1434.73,337.733 1435.74,337.783 1436.74,337.82 1437.75,337.862 1438.76,337.912 1439.77,337.944 1440.78,337.964 1441.79,338.006 1442.79,338.051 1443.8,338.053 1444.81,338.068 1445.82,338.102 1446.83,338.115 1447.84,338.114 1448.85,338.122 1449.85,338.129 1450.86,338.122 1451.87,338.112 1452.88,338.107 1453.89,338.091 1454.9,338.058 1455.9,338.037 1456.91,338.025 1457.92,337.98 1458.93,337.922 1459.94,337.897 1460.95,337.864 1461.96,337.803 1462.96,337.746 1463.97,337.698 1464.98,337.638 1465.99,337.562 1467,337.502 1468.01,337.448 1469.01,337.364 1470.02,337.279 1471.03,337.208 1472.04,337.131 1473.05,337.042 1474.06,336.957 1475.06,336.88 1476.07,336.788 1477.08,336.686 1478.09,336.606 1479.1,336.53 1480.11,336.425 1481.12,336.324 1482.12,336.241 1483.13,336.151 1484.14,336.053 1485.15,335.961 1486.16,335.879 1487.17,335.784 1488.17,335.683 1489.18,335.607 1490.19,335.533 1491.2,335.426 1492.21,335.34 1493.22,335.275 1494.23,335.194 1495.23,335.107 1496.24,335.037 1497.25,334.969 1498.26,334.895 1499.27,334.826 1500.28,334.769 1501.28,334.707 1502.29,334.637 1503.3,334.587 1504.31,334.549 1505.32,334.488 1506.33,334.424 1507.34,334.398 1508.34,334.368 1509.35,334.321 1510.36,334.286 1511.37,334.264 1512.38,334.237 1513.39,334.203 1514.39,334.19 1515.4,334.186 1516.41,334.163 1517.42,334.143 1518.43,334.143 1519.44,334.14 1520.45,334.133 1521.45,334.133 1522.46,334.144 1523.47,334.146 1524.48,334.143 1525.49,334.162 1526.5,334.188 1527.5,334.191 1528.51,334.2 1529.52,334.227 1530.53,334.249 1531.54,334.265 1532.55,334.288 1533.56,334.321 1534.56,334.342 1535.57,334.359 1536.58,334.397 1537.59,334.436 1538.6,334.447 1539.61,334.474 1540.61,334.518 1541.62,334.547 1542.63,334.569 1543.64,334.603 1544.65,334.638 1545.66,334.664 1546.67,334.692 1547.67,334.728 1548.68,334.755 1549.69,334.773 1550.7,334.805 1551.71,334.843 1552.72,334.858 1553.72,334.867 1554.73,334.903 1555.74,334.934 1556.75,334.944 1557.76,334.961 1558.77,334.985 1559.77,335 1560.78,335.005 1561.79,335.023 1562.8,335.045 1563.81,335.046 1564.82,335.045 1565.83,335.057 1566.83,335.062 1567.84,335.059 1568.85,335.058 1569.86,335.063 1570.87,335.055 1571.88,335.039 1572.88,335.039 1573.89,335.04 1574.9,335.018 1575.91,334.997 1576.92,334.988 1577.93,334.972 1578.94,334.948 1579.94,334.927 1580.95,334.91 1581.96,334.881 1582.97,334.846 1583.98,334.827 1584.99,334.807 1585.99,334.759 1587,334.725 1588.01,334.703 1589.02,334.665 1590.03,334.622 1591.04,334.587 1592.05,334.551 1593.05,334.507 1594.06,334.464 1595.07,334.427 1596.08,334.383 1597.09,334.33 1598.1,334.289 1599.1,334.254 1600.11,334.201 1601.12,334.146 1602.13,334.104 1603.14,334.059 1604.15,334.006 1605.16,333.957 1606.16,333.914 1607.17,333.863 1608.18,333.805 1609.19,333.761 1610.2,333.717 1611.21,333.664 1612.21,333.614 1613.22,333.568 1614.23,333.521 1615.24,333.468 1616.25,333.423 1617.26,333.383 1618.27,333.332 1619.27,333.279 1620.28,333.241 1621.29,333.202 1622.3,333.154 1623.31,333.11 1624.32,333.073 1625.32,333.032 1626.33,332.988 1627.34,332.953 1628.35,332.922 1629.36,332.88 1630.37,332.838 1631.37,332.816 1632.38,332.786 1633.39,332.746 1634.4,332.717 1635.41,332.694 1636.42,332.665 1637.43,332.637 1638.43,332.615 1639.44,332.594 1640.45,332.569 1641.46,332.549 1642.47,332.537 1643.48,332.518 1644.48,332.495 1645.49,332.487 1646.5,332.484 1647.51,332.465 1648.52,332.449 1649.53,332.447 1650.54,332.442 1651.54,332.432 1652.55,332.428 1653.56,332.431 1654.57,332.426 1655.58,332.418 1656.59,332.425 1657.59,332.432 1658.6,332.431 1659.61,332.434 1660.62,332.443 1661.63,332.449 1662.64,332.453 1663.65,332.463 1664.65,332.478 1665.66,332.485 1666.67,332.492 1667.68,332.506 1668.69,332.52 1669.7,332.53 1670.7,332.544 1671.71,332.561 1672.72,332.573 1673.73,332.583 1674.74,332.601 1675.75,332.622 1676.76,332.629 1677.76,332.643 1678.77,332.663 1679.78,332.678 1680.79,332.69 1681.8,332.705 1682.81,332.722 1683.81,332.735 1684.82,332.747 1685.83,332.763 1686.84,332.776 1687.85,332.784 1688.86,332.797 1689.87,332.814 1690.87,332.821 1691.88,332.824 1692.89,332.838 1693.9,332.85 1694.91,332.854 1695.92,332.86 1696.92,332.868 1697.93,332.873 1698.94,332.873 1699.95,332.878 1700.96,332.885 1701.97,332.883 1702.98,332.88 1703.98,332.882 1704.99,332.881 1706,332.877 1707.01,332.873 1708.02,332.871 1709.03,332.864 1710.03,332.854 1711.04,332.85 1712.05,332.846 1713.06,332.831 1714.07,332.819 1715.08,332.814 1716.08,332.802 1717.09,332.787 1718.1,332.775 1719.11,332.764 1720.12,332.749 1721.13,332.733 1722.14,332.721 1723.14,332.705 1724.15,332.686 1725.16,332.671 1726.17,332.659 1727.18,332.639 1728.19,332.616 1729.19,332.604 1730.2,332.59 1731.21,332.569 1732.22,332.551 1733.23,332.536 1734.24,332.519 1735.25,332.499 1736.25,332.484 1737.26,332.471 1738.27,332.451 1739.28,332.43 1740.29,332.419 1741.3,332.406 1742.3,332.388 1743.31,332.372 1744.32,332.361 1745.33,332.347 1746.34,332.33 1747.35,332.32 1748.36,332.311 1749.36,332.297 1750.37,332.283 1751.38,332.275 1752.39,332.266 1753.4,332.254 1754.41,332.246 1755.41,332.24 1756.42,332.231 1757.43,332.22 1758.44,332.217 1759.45,332.214 1760.46,332.203 1761.47,332.197 1762.47,332.196 1763.48,332.192 1764.49,332.186 1765.5,332.184 1766.51,332.182 1767.52,332.178 1768.52,332.176 1769.53,332.176 1770.54,332.174 1771.55,332.17 1772.56,332.17 1773.57,332.172 1774.58,332.169 1775.58,332.164 1776.59,332.167 1777.6,332.169 1778.61,332.166 1779.62,332.165 1780.63,332.167 1781.63,332.167 1782.64,332.164 1783.65,332.165 1784.66,332.168 1785.67,332.164 1786.68,332.16 1787.68,332.163 1788.69,332.164 1789.7,332.161 1790.71,332.159 1791.72,332.16 1792.73,332.158 1793.74,332.154 1794.74,332.154 1795.75,332.156 1796.76,332.15 1797.77,332.145 1798.78,332.146 1799.79,332.146 1800.79,332.141 1801.8,332.139 1802.81,332.138 1803.82,332.135 1804.83,332.131 1805.84,332.13 1806.85,332.13 1807.85,332.125 1808.86,332.12 1809.87,332.123 1810.88,332.122 1811.89,332.116 1812.9,332.115 1813.9,332.116 1814.91,332.114 1815.92,332.112 1816.93,332.113 1817.94,332.113 1818.95,332.112 1819.96,332.113 1820.96,332.117 1821.97,332.117 1822.98,332.115 1823.99,332.121 1825,332.129 1826.01,332.128 1827.01,332.13 1828.02,332.137 1829.03,332.143 1830.04,332.147 1831.05,332.153 1832.06,332.163 1833.07,332.169 1834.07,332.173 1835.08,332.186 1836.09,332.198 1837.1,332.204 1838.11,332.212 1839.12,332.225 1840.12,332.237 1841.13,332.246 1842.14,332.259 1843.15,332.274 1844.16,332.285 1845.17,332.295 1846.18,332.312 1847.18,332.328 1848.19,332.336 1849.2,332.35 1850.21,332.369 1851.22,332.382 1852.23,332.394 1853.23,332.41 1854.24,332.425 1855.25,332.438 1856.26,332.452 1857.27,332.468 1858.28,332.481 1859.29,332.491 1860.29,332.506 1861.3,332.523 1862.31,332.531 1863.32,332.538 1864.33,332.554 1865.34,332.567 1866.34,332.574 1867.35,332.583 1868.36,332.594 1869.37,332.602 1870.38,332.607 1871.39,332.615 1872.39,332.624 1873.4,332.627 1874.41,332.628 1875.42,332.634 1876.43,332.637 1877.44,332.637 1878.45,332.637 1879.45,332.639 1880.46,332.636 1881.47,332.631 1882.48,332.63 1883.49,332.628 1884.5,332.621 1885.5,332.615 1886.51,332.609 1887.52,332.602 1888.53,332.592 1889.54,332.584 1890.55,332.576 1891.56,332.564 1892.56,332.55 1893.57,332.542 1894.58,332.531 1895.59,332.515 1896.6,332.502 1897.61,332.489 1898.61,332.475 1899.62,332.459 1900.63,332.445 1901.64,332.43 1902.65,332.414 1903.66,332.399 1904.67,332.385 1905.67,332.369 1906.68,332.352 1907.69,332.338 1908.7,332.326 1909.71,332.309 1910.72,332.293 1911.72,332.281 1912.73,332.268 1913.74,332.254 1914.75,332.241 1915.76,332.231 1916.77,332.219 1917.78,332.206 1918.78,332.198 1919.79,332.192 1920.8,332.181 1921.81,332.172 1922.82,332.168 1923.83,332.163 1924.83,332.157 1925.84,332.153 1926.85,332.152 1927.86,332.15 1928.87,332.147 1929.88,332.149 1930.89,332.152 1931.89,332.153 1932.9,332.156 1933.91,332.162 1934.92,332.168 1935.93,332.173 1936.94,332.181 1937.94,332.192 1938.95,332.2 1939.96,332.208 1940.97,332.222 1941.98,332.235 1942.99,332.247 1943.99,332.26 1945,332.276 1946.01,332.291 1947.02,332.306 1948.03,332.323 1949.04,332.342 1950.05,332.358 1951.05,332.374 1952.06,332.395 1953.07,332.414 1954.08,332.431 1955.09,332.45 1956.1,332.471 1957.1,332.49 1958.11,332.508 1959.12,332.528 1960.13,332.548 1961.14,332.566 1962.15,332.585 1963.16,332.605 1964.16,332.623 1965.17,332.638 1966.18,332.658 1967.19,332.677 1968.2,332.691 1969.21,332.706 1970.21,332.722 1971.22,332.737 1972.23,332.75 1973.24,332.763 1974.25,332.777 1975.26,332.788 1976.27,332.797 1977.27,332.808 1978.28,332.818 1979.29,332.825 1980.3,332.832 1981.31,332.839 1982.32,332.844 1983.32,332.848 1984.33,332.852 1985.34,332.856 1986.35,332.856 1987.36,332.856 1988.37,332.858 1989.38,332.858 1990.38,332.854 1991.39,332.851 1992.4,332.849 1993.41,332.845 1994.42,332.839 1995.43,332.834 1996.43,332.828 1997.44,332.82 1998.45,332.813 1999.46,332.806 2000.47,332.797 2001.48,332.786 2002.49,332.778 2003.49,332.77 2004.5,332.759 2005.51,332.747 2006.52,332.738 2007.53,332.727 2008.54,332.715 2009.54,332.704 2010.55,332.695 2011.56,332.683 2012.57,332.671 2013.58,332.661 2014.59,332.652 2015.59,332.64 2016.6,332.63 2017.61,332.621 2018.62,332.612 2019.63,332.602 2020.64,332.594 2021.65,332.587 2022.65,332.578 2023.66,332.57 2024.67,332.565 2025.68,332.559 2026.69,332.553 2027.7,332.548 2028.7,332.545 2029.71,332.541 2030.72,332.537 2031.73,332.536 2032.74,332.536 2033.75,332.534 2034.76,332.533 2035.76,332.538 2036.77,332.54 2037.78,332.537 2038.79,332.54 2039.8,332.546 2040.81,332.549 2041.81,332.553 2042.82,332.559 2043.83,332.566 2044.84,332.571 2045.85,332.578 2046.86,332.587 2047.87,332.595 2048.87,332.602 2049.88,332.612 2050.89,332.623 2051.9,332.632 2052.91,332.64 2053.92,332.652 2054.92,332.663 2055.93,332.673 2056.94,332.684 2057.95,332.697 2058.96,332.707 2059.97,332.717 2060.98,332.73 2061.98,332.744 2062.99,332.753 2064,332.763 2065.01,332.776 2066.02,332.787 2067.03,332.797 2068.03,332.808 2069.04,332.82 2070.05,332.83 2071.06,332.838 2072.07,332.849 2073.08,332.859 2074.09,332.868 2075.09,332.876 2076.1,332.885 2077.11,332.893 2078.12,332.899 2079.13,332.907 2080.14,332.914 2081.14,332.919 2082.15,332.924 2083.16,332.93 2084.17,332.936 2085.18,332.939 2086.19,332.942 2087.2,332.946 2088.2,332.949 2089.21,332.951 2090.22,332.953 2091.23,332.956 2092.24,332.956 2093.25,332.955 2094.25,332.958 2095.26,332.958 2096.27,332.956 2097.28,332.955 2098.29,332.955 2099.3,332.953 2100.3,332.951 2101.31,332.95 2102.32,332.948 2103.33,332.945 2104.34,332.942 2105.35,332.941 2106.36,332.937 2107.36,332.933 2108.37,332.931 2109.38,332.93 2110.39,332.925 2111.4,332.921 2112.41,332.919 2113.41,332.916 2114.42,332.912 2115.43,332.91 2116.44,332.908 2117.45,332.904 2118.46,332.9 2119.47,332.899 2120.47,332.899 2121.48,332.895 2122.49,332.892 2123.5,332.891 2124.51,332.89 2125.52,332.888 2126.52,332.887 2127.53,332.887 2128.54,332.885 2129.55,332.884 2130.56,332.885 2131.57,332.886 2132.58,332.885 2133.58,332.885 2134.59,332.886 2135.6,332.887 2136.61,332.888 2137.62,332.889 2138.63,332.892 2139.63,332.893 2140.64,332.894 2141.65,332.897 2142.66,332.9 2143.67,332.9 2144.68,332.903 2145.69,332.907 2146.69,332.909 2147.7,332.911 2148.71,332.914 2149.72,332.918 2150.73,332.92 2151.74,332.923 2152.74,332.927 2153.75,332.929 2154.76,332.931 2155.77,332.934 2156.78,332.938 2157.79,332.94 2158.8,332.941 2159.8,332.945 2160.81,332.947 2161.82,332.949 2162.83,332.951 2163.84,332.953 2164.85,332.954 2165.85,332.955 2166.86,332.957 2167.87,332.959 2168.88,332.959 2169.89,332.959 2170.9,332.96 2171.9,332.96 2172.91,332.96 2173.92,332.96 2174.93,332.96 2175.94,332.959 2176.95,332.957 2177.96,332.957 2178.96,332.957 2179.97,332.954 2180.98,332.952 2181.99,332.951 2183,332.949 2184.01,332.947 2185.01,332.944 2186.02,332.943 2187.03,332.94 2188.04,332.936 2189.05,332.935 2190.06,332.933 2191.07,332.929 2192.07,332.926 2193.08,332.925 2194.09,332.922 2195.1,332.918 2196.11,332.916 2197.12,332.914 2198.12,332.911 2199.13,332.908 2200.14,332.907 2201.15,332.904 2202.16,332.901 2203.17,332.9 2204.18,332.9 2205.18,332.897 2206.19,332.895 2207.2,332.895 2208.21,332.894 2209.22,332.893 2210.23,332.893 2211.23,332.894 2212.24,332.893 2213.25,332.893 2214.26,332.894 2215.27,332.896 2216.28,332.897 2217.29,332.898 2218.29,332.9 2219.3,332.903 2220.31,332.905 2221.32,332.908 2222.33,332.911 2223.34,332.914 2224.34,332.917 2225.35,332.921 2226.36,332.926 2227.37,332.93 2228.38,332.934 2229.39,332.939 2230.4,332.944 2231.4,332.949 2232.41,332.954 2233.42,332.961 2234.43,332.966 2235.44,332.97 2236.45,332.978 2237.45,332.984 2238.46,332.989 2239.47,332.995 2240.48,333.001 2241.49,333.007 2242.5,333.013 2243.51,333.019 2244.51,333.025 2245.52,333.031 2246.53,333.037 2247.54,333.043 2248.55,333.048 2249.56,333.053 2250.56,333.058 2251.57,333.064 2252.58,333.068 2253.59,333.073 2254.6,333.077 2255.61,333.081 2256.61,333.085 2257.62,333.088 2258.63,333.092 2259.64,333.095 2260.65,333.097 2261.66,333.1 2262.67,333.102 2263.67,333.103 2264.68,333.104 2265.69,333.105 2266.7,333.106 2267.71,333.105 2268.72,333.106 2269.72,333.106 2270.73,333.104 2271.74,333.103 2272.75,333.101 2273.76,333.1 2274.77,333.097 2275.78,333.095 2276.78,333.092 2277.79,333.089 2278.8,333.085 2279.81,333.081 2280.82,333.078 2281.83,333.073 2282.83,333.068 2283.84,333.064 2284.85,333.059 2285.86,333.054 2286.87,333.049 2287.88,333.044 2288.89,333.038 2289.89,333.032 2290.9,333.027 2291.91,333.022 2292.25,333.019 "/>
<path clip-path="url(#clip730)" d="M2015.27 1438.47 L2281.49 1438.47 L2281.49 1334.79 L2015.27 1334.79  Z" fill="#ffffff" fill-rule="evenodd" fill-opacity="1"/>
<polyline clip-path="url(#clip730)" style="stroke:#000000; stroke-linecap:round; stroke-linejoin:round; stroke-width:4; stroke-opacity:1; fill:none" points="2015.27,1438.47 2281.49,1438.47 2281.49,1334.79 2015.27,1334.79 2015.27,1438.47 "/>
<polyline clip-path="url(#clip730)" style="stroke:#009af9; stroke-linecap:round; stroke-linejoin:round; stroke-width:4; stroke-opacity:1; fill:none" points="2039.02,1386.63 2181.55,1386.63 "/>
<path clip-path="url(#clip730)" d="M2219.15 1406.32 Q2217.34 1410.95 2215.63 1412.36 Q2213.92 1413.78 2211.05 1413.78 L2207.65 1413.78 L2207.65 1410.21 L2210.15 1410.21 Q2211.9 1410.21 2212.88 1409.38 Q2213.85 1408.54 2215.03 1405.44 L2215.79 1403.5 L2205.31 1377.99 L2209.82 1377.99 L2217.92 1398.27 L2226.02 1377.99 L2230.54 1377.99 L2219.15 1406.32 Z" fill="#000000" fill-rule="nonzero" fill-opacity="1" /><path clip-path="url(#clip730)" d="M2237.83 1399.98 L2245.47 1399.98 L2245.47 1373.61 L2237.16 1375.28 L2237.16 1371.02 L2245.42 1369.35 L2250.1 1369.35 L2250.1 1399.98 L2257.74 1399.98 L2257.74 1403.91 L2237.83 1403.91 L2237.83 1399.98 Z" fill="#000000" fill-rule="nonzero" fill-opacity="1" /></svg>
