<?xml version="1.0" encoding="utf-8"?>
<svg xmlns="http://www.w3.org/2000/svg" xmlns:xlink="http://www.w3.org/1999/xlink" width="600" height="400" viewBox="0 0 2400 1600">
<defs>
  <clipPath id="clip070">
    <rect x="0" y="0" width="2400" height="1600"/>
  </clipPath>
</defs>
<path clip-path="url(#clip070)" d="M0 1600 L2400 1600 L2400 0 L0 0  Z" fill="#ffffff" fill-rule="evenodd" fill-opacity="1"/>
<defs>
  <clipPath id="clip071">
    <rect x="214" y="47" width="2139" height="1440"/>
  </clipPath>
</defs>
<path clip-path="url(#clip070)" d="M214.839 1486.45 L2352.76 1486.45 L2352.76 47.2441 L214.839 47.2441  Z" fill="#ffffff" fill-rule="evenodd" fill-opacity="1"/>
<polyline clip-path="url(#clip071)" style="stroke:#000000; stroke-linecap:round; stroke-linejoin:round; stroke-width:2; stroke-opacity:0.1; fill:none" points="275.346,1486.45 275.346,47.2441 "/>
<polyline clip-path="url(#clip071)" style="stroke:#000000; stroke-linecap:round; stroke-linejoin:round; stroke-width:2; stroke-opacity:0.1; fill:none" points="779.572,1486.45 779.572,47.2441 "/>
<polyline clip-path="url(#clip071)" style="stroke:#000000; stroke-linecap:round; stroke-linejoin:round; stroke-width:2; stroke-opacity:0.1; fill:none" points="1283.8,1486.45 1283.8,47.2441 "/>
<polyline clip-path="url(#clip071)" style="stroke:#000000; stroke-linecap:round; stroke-linejoin:round; stroke-width:2; stroke-opacity:0.1; fill:none" points="1788.02,1486.45 1788.02,47.2441 "/>
<polyline clip-path="url(#clip071)" style="stroke:#000000; stroke-linecap:round; stroke-linejoin:round; stroke-width:2; stroke-opacity:0.1; fill:none" points="2292.25,1486.45 2292.25,47.2441 "/>
<polyline clip-path="url(#clip071)" style="stroke:#000000; stroke-linecap:round; stroke-linejoin:round; stroke-width:2; stroke-opacity:0.1; fill:none" points="214.839,1316.38 2352.76,1316.38 "/>
<polyline clip-path="url(#clip071)" style="stroke:#000000; stroke-linecap:round; stroke-linejoin:round; stroke-width:2; stroke-opacity:0.1; fill:none" points="214.839,1009.23 2352.76,1009.23 "/>
<polyline clip-path="url(#clip071)" style="stroke:#000000; stroke-linecap:round; stroke-linejoin:round; stroke-width:2; stroke-opacity:0.1; fill:none" points="214.839,702.085 2352.76,702.085 "/>
<polyline clip-path="url(#clip071)" style="stroke:#000000; stroke-linecap:round; stroke-linejoin:round; stroke-width:2; stroke-opacity:0.1; fill:none" points="214.839,394.935 2352.76,394.935 "/>
<polyline clip-path="url(#clip071)" style="stroke:#000000; stroke-linecap:round; stroke-linejoin:round; stroke-width:2; stroke-opacity:0.1; fill:none" points="214.839,87.7849 2352.76,87.7849 "/>
<polyline clip-path="url(#clip070)" style="stroke:#000000; stroke-linecap:round; stroke-linejoin:round; stroke-width:4; stroke-opacity:1; fill:none" points="214.839,1486.45 2352.76,1486.45 "/>
<polyline clip-path="url(#clip070)" style="stroke:#000000; stroke-linecap:round; stroke-linejoin:round; stroke-width:4; stroke-opacity:1; fill:none" points="275.346,1486.45 275.346,1467.55 "/>
<polyline clip-path="url(#clip070)" style="stroke:#000000; stroke-linecap:round; stroke-linejoin:round; stroke-width:4; stroke-opacity:1; fill:none" points="779.572,1486.45 779.572,1467.55 "/>
<polyline clip-path="url(#clip070)" style="stroke:#000000; stroke-linecap:round; stroke-linejoin:round; stroke-width:4; stroke-opacity:1; fill:none" points="1283.8,1486.45 1283.8,1467.55 "/>
<polyline clip-path="url(#clip070)" style="stroke:#000000; stroke-linecap:round; stroke-linejoin:round; stroke-width:4; stroke-opacity:1; fill:none" points="1788.02,1486.45 1788.02,1467.55 "/>
<polyline clip-path="url(#clip070)" style="stroke:#000000; stroke-linecap:round; stroke-linejoin:round; stroke-width:4; stroke-opacity:1; fill:none" points="2292.25,1486.45 2292.25,1467.55 "/>
<path clip-path="url(#clip070)" d="M275.346 1517.37 Q271.735 1517.37 269.906 1520.93 Q268.1 1524.47 268.1 1531.6 Q268.1 1538.71 269.906 1542.27 Q271.735 1545.82 275.346 1545.82 Q278.98 1545.82 280.786 1542.27 Q282.614 1538.71 282.614 1531.6 Q282.614 1524.47 280.786 1520.93 Q278.98 1517.37 275.346 1517.37 M275.346 1513.66 Q281.156 1513.66 284.211 1518.27 Q287.29 1522.85 287.29 1531.6 Q287.29 1540.33 284.211 1544.94 Q281.156 1549.52 275.346 1549.52 Q269.536 1549.52 266.457 1544.94 Q263.401 1540.33 263.401 1531.6 Q263.401 1522.85 266.457 1518.27 Q269.536 1513.66 275.346 1513.66 Z" fill="#000000" fill-rule="nonzero" fill-opacity="1" /><path clip-path="url(#clip070)" d="M769.849 1514.29 L788.206 1514.29 L788.206 1518.22 L774.132 1518.22 L774.132 1526.7 Q775.15 1526.35 776.169 1526.19 Q777.187 1526 778.206 1526 Q783.993 1526 787.372 1529.17 Q790.752 1532.34 790.752 1537.76 Q790.752 1543.34 787.28 1546.44 Q783.808 1549.52 777.488 1549.52 Q775.312 1549.52 773.044 1549.15 Q770.798 1548.78 768.391 1548.04 L768.391 1543.34 Q770.474 1544.47 772.697 1545.03 Q774.919 1545.58 777.396 1545.58 Q781.4 1545.58 783.738 1543.48 Q786.076 1541.37 786.076 1537.76 Q786.076 1534.15 783.738 1532.04 Q781.4 1529.94 777.396 1529.94 Q775.521 1529.94 773.646 1530.35 Q771.794 1530.77 769.849 1531.65 L769.849 1514.29 Z" fill="#000000" fill-rule="nonzero" fill-opacity="1" /><path clip-path="url(#clip070)" d="M1258.48 1544.91 L1266.12 1544.91 L1266.12 1518.55 L1257.81 1520.21 L1257.81 1515.95 L1266.08 1514.29 L1270.75 1514.29 L1270.75 1544.91 L1278.39 1544.91 L1278.39 1548.85 L1258.48 1548.85 L1258.48 1544.91 Z" fill="#000000" fill-rule="nonzero" fill-opacity="1" /><path clip-path="url(#clip070)" d="M1297.84 1517.37 Q1294.23 1517.37 1292.4 1520.93 Q1290.59 1524.47 1290.59 1531.6 Q1290.59 1538.71 1292.4 1542.27 Q1294.23 1545.82 1297.84 1545.82 Q1301.47 1545.82 1303.28 1542.27 Q1305.11 1538.71 1305.11 1531.6 Q1305.11 1524.47 1303.28 1520.93 Q1301.47 1517.37 1297.84 1517.37 M1297.84 1513.66 Q1303.65 1513.66 1306.7 1518.27 Q1309.78 1522.85 1309.78 1531.6 Q1309.78 1540.33 1306.7 1544.94 Q1303.65 1549.52 1297.84 1549.52 Q1292.03 1549.52 1288.95 1544.94 Q1285.89 1540.33 1285.89 1531.6 Q1285.89 1522.85 1288.95 1518.27 Q1292.03 1513.66 1297.84 1513.66 Z" fill="#000000" fill-rule="nonzero" fill-opacity="1" /><path clip-path="url(#clip070)" d="M1763.21 1544.91 L1770.85 1544.91 L1770.85 1518.55 L1762.54 1520.21 L1762.54 1515.95 L1770.8 1514.29 L1775.48 1514.29 L1775.48 1544.91 L1783.12 1544.91 L1783.12 1548.85 L1763.21 1548.85 L1763.21 1544.91 Z" fill="#000000" fill-rule="nonzero" fill-opacity="1" /><path clip-path="url(#clip070)" d="M1792.61 1514.29 L1810.96 1514.29 L1810.96 1518.22 L1796.89 1518.22 L1796.89 1526.7 Q1797.91 1526.35 1798.93 1526.19 Q1799.94 1526 1800.96 1526 Q1806.75 1526 1810.13 1529.17 Q1813.51 1532.34 1813.51 1537.76 Q1813.51 1543.34 1810.04 1546.44 Q1806.56 1549.52 1800.25 1549.52 Q1798.07 1549.52 1795.8 1549.15 Q1793.56 1548.78 1791.15 1548.04 L1791.15 1543.34 Q1793.23 1544.47 1795.45 1545.03 Q1797.68 1545.58 1800.15 1545.58 Q1804.16 1545.58 1806.5 1543.48 Q1808.83 1541.37 1808.83 1537.76 Q1808.83 1534.15 1806.5 1532.04 Q1804.16 1529.94 1800.15 1529.94 Q1798.28 1529.94 1796.4 1530.35 Q1794.55 1530.77 1792.61 1531.65 L1792.61 1514.29 Z" fill="#000000" fill-rule="nonzero" fill-opacity="1" /><path clip-path="url(#clip070)" d="M2271.02 1544.91 L2287.34 1544.91 L2287.34 1548.85 L2265.4 1548.85 L2265.4 1544.91 Q2268.06 1542.16 2272.64 1537.53 Q2277.25 1532.88 2278.43 1531.53 Q2280.67 1529.01 2281.55 1527.27 Q2282.46 1525.51 2282.46 1523.82 Q2282.46 1521.07 2280.51 1519.33 Q2278.59 1517.6 2275.49 1517.6 Q2273.29 1517.6 2270.84 1518.36 Q2268.41 1519.13 2265.63 1520.68 L2265.63 1515.95 Q2268.45 1514.82 2270.91 1514.24 Q2273.36 1513.66 2275.4 1513.66 Q2280.77 1513.66 2283.96 1516.35 Q2287.16 1519.03 2287.16 1523.52 Q2287.16 1525.65 2286.35 1527.57 Q2285.56 1529.47 2283.45 1532.07 Q2282.87 1532.74 2279.77 1535.95 Q2276.67 1539.15 2271.02 1544.91 Z" fill="#000000" fill-rule="nonzero" fill-opacity="1" /><path clip-path="url(#clip070)" d="M2307.16 1517.37 Q2303.55 1517.37 2301.72 1520.93 Q2299.91 1524.47 2299.91 1531.6 Q2299.91 1538.71 2301.72 1542.27 Q2303.55 1545.82 2307.16 1545.82 Q2310.79 1545.82 2312.6 1542.27 Q2314.42 1538.71 2314.42 1531.6 Q2314.42 1524.47 2312.6 1520.93 Q2310.79 1517.37 2307.16 1517.37 M2307.16 1513.66 Q2312.97 1513.66 2316.02 1518.27 Q2319.1 1522.85 2319.1 1531.6 Q2319.1 1540.33 2316.02 1544.94 Q2312.97 1549.52 2307.16 1549.52 Q2301.35 1549.52 2298.27 1544.94 Q2295.21 1540.33 2295.21 1531.6 Q2295.21 1522.85 2298.27 1518.27 Q2301.35 1513.66 2307.16 1513.66 Z" fill="#000000" fill-rule="nonzero" fill-opacity="1" /><polyline clip-path="url(#clip070)" style="stroke:#000000; stroke-linecap:round; stroke-linejoin:round; stroke-width:4; stroke-opacity:1; fill:none" points="214.839,1486.45 214.839,47.2441 "/>
<polyline clip-path="url(#clip070)" style="stroke:#000000; stroke-linecap:round; stroke-linejoin:round; stroke-width:4; stroke-opacity:1; fill:none" points="214.839,1316.38 233.736,1316.38 "/>
<polyline clip-path="url(#clip070)" style="stroke:#000000; stroke-linecap:round; stroke-linejoin:round; stroke-width:4; stroke-opacity:1; fill:none" points="214.839,1009.23 233.736,1009.23 "/>
<polyline clip-path="url(#clip070)" style="stroke:#000000; stroke-linecap:round; stroke-linejoin:round; stroke-width:4; stroke-opacity:1; fill:none" points="214.839,702.085 233.736,702.085 "/>
<polyline clip-path="url(#clip070)" style="stroke:#000000; stroke-linecap:round; stroke-linejoin:round; stroke-width:4; stroke-opacity:1; fill:none" points="214.839,394.935 233.736,394.935 "/>
<polyline clip-path="url(#clip070)" style="stroke:#000000; stroke-linecap:round; stroke-linejoin:round; stroke-width:4; stroke-opacity:1; fill:none" points="214.839,87.7849 233.736,87.7849 "/>
<path clip-path="url(#clip070)" d="M53.7467 1329.73 L61.3856 1329.73 L61.3856 1303.36 L53.0754 1305.03 L53.0754 1300.77 L61.3393 1299.1 L66.0152 1299.1 L66.0152 1329.73 L73.654 1329.73 L73.654 1333.66 L53.7467 1333.66 L53.7467 1329.73 Z" fill="#000000" fill-rule="nonzero" fill-opacity="1" /><path clip-path="url(#clip070)" d="M83.0984 1327.78 L87.9827 1327.78 L87.9827 1333.66 L83.0984 1333.66 L83.0984 1327.78 Z" fill="#000000" fill-rule="nonzero" fill-opacity="1" /><path clip-path="url(#clip070)" d="M108.168 1302.18 Q104.557 1302.18 102.728 1305.75 Q100.922 1309.29 100.922 1316.42 Q100.922 1323.53 102.728 1327.09 Q104.557 1330.63 108.168 1330.63 Q111.802 1330.63 113.608 1327.09 Q115.436 1323.53 115.436 1316.42 Q115.436 1309.29 113.608 1305.75 Q111.802 1302.18 108.168 1302.18 M108.168 1298.48 Q113.978 1298.48 117.033 1303.09 Q120.112 1307.67 120.112 1316.42 Q120.112 1325.15 117.033 1329.75 Q113.978 1334.34 108.168 1334.34 Q102.358 1334.34 99.2789 1329.75 Q96.2234 1325.15 96.2234 1316.42 Q96.2234 1307.67 99.2789 1303.09 Q102.358 1298.48 108.168 1298.48 Z" fill="#000000" fill-rule="nonzero" fill-opacity="1" /><path clip-path="url(#clip070)" d="M138.33 1302.18 Q134.719 1302.18 132.89 1305.75 Q131.084 1309.29 131.084 1316.42 Q131.084 1323.53 132.89 1327.09 Q134.719 1330.63 138.33 1330.63 Q141.964 1330.63 143.769 1327.09 Q145.598 1323.53 145.598 1316.42 Q145.598 1309.29 143.769 1305.75 Q141.964 1302.18 138.33 1302.18 M138.33 1298.48 Q144.14 1298.48 147.195 1303.09 Q150.274 1307.67 150.274 1316.42 Q150.274 1325.15 147.195 1329.75 Q144.14 1334.34 138.33 1334.34 Q132.519 1334.34 129.441 1329.75 Q126.385 1325.15 126.385 1316.42 Q126.385 1307.67 129.441 1303.09 Q132.519 1298.48 138.33 1298.48 Z" fill="#000000" fill-rule="nonzero" fill-opacity="1" /><path clip-path="url(#clip070)" d="M162.519 1329.73 L178.839 1329.73 L178.839 1333.66 L156.894 1333.66 L156.894 1329.73 Q159.556 1326.97 164.14 1322.34 Q168.746 1317.69 169.927 1316.35 Q172.172 1313.83 173.052 1312.09 Q173.954 1310.33 173.954 1308.64 Q173.954 1305.89 172.01 1304.15 Q170.089 1302.41 166.987 1302.41 Q164.788 1302.41 162.334 1303.18 Q159.904 1303.94 157.126 1305.49 L157.126 1300.77 Q159.95 1299.64 162.404 1299.06 Q164.857 1298.48 166.894 1298.48 Q172.265 1298.48 175.459 1301.16 Q178.653 1303.85 178.653 1308.34 Q178.653 1310.47 177.843 1312.39 Q177.056 1314.29 174.95 1316.88 Q174.371 1317.55 171.269 1320.77 Q168.167 1323.97 162.519 1329.73 Z" fill="#000000" fill-rule="nonzero" fill-opacity="1" /><path clip-path="url(#clip070)" d="M51.6634 1022.58 L59.3023 1022.58 L59.3023 996.214 L50.9921 997.88 L50.9921 993.621 L59.256 991.954 L63.9319 991.954 L63.9319 1022.58 L71.5707 1022.58 L71.5707 1026.51 L51.6634 1026.51 L51.6634 1022.58 Z" fill="#000000" fill-rule="nonzero" fill-opacity="1" /><path clip-path="url(#clip070)" d="M81.0151 1020.63 L85.8993 1020.63 L85.8993 1026.51 L81.0151 1026.51 L81.0151 1020.63 Z" fill="#000000" fill-rule="nonzero" fill-opacity="1" /><path clip-path="url(#clip070)" d="M106.084 995.033 Q102.473 995.033 100.645 998.598 Q98.8391 1002.14 98.8391 1009.27 Q98.8391 1016.38 100.645 1019.94 Q102.473 1023.48 106.084 1023.48 Q109.719 1023.48 111.524 1019.94 Q113.353 1016.38 113.353 1009.27 Q113.353 1002.14 111.524 998.598 Q109.719 995.033 106.084 995.033 M106.084 991.329 Q111.895 991.329 114.95 995.936 Q118.029 1000.52 118.029 1009.27 Q118.029 1018 114.95 1022.6 Q111.895 1027.19 106.084 1027.19 Q100.274 1027.19 97.1956 1022.6 Q94.14 1018 94.14 1009.27 Q94.14 1000.52 97.1956 995.936 Q100.274 991.329 106.084 991.329 Z" fill="#000000" fill-rule="nonzero" fill-opacity="1" /><path clip-path="url(#clip070)" d="M136.246 995.033 Q132.635 995.033 130.807 998.598 Q129.001 1002.14 129.001 1009.27 Q129.001 1016.38 130.807 1019.94 Q132.635 1023.48 136.246 1023.48 Q139.881 1023.48 141.686 1019.94 Q143.515 1016.38 143.515 1009.27 Q143.515 1002.14 141.686 998.598 Q139.881 995.033 136.246 995.033 M136.246 991.329 Q142.056 991.329 145.112 995.936 Q148.191 1000.52 148.191 1009.27 Q148.191 1018 145.112 1022.6 Q142.056 1027.19 136.246 1027.19 Q130.436 1027.19 127.357 1022.6 Q124.302 1018 124.302 1009.27 Q124.302 1000.52 127.357 995.936 Q130.436 991.329 136.246 991.329 Z" fill="#000000" fill-rule="nonzero" fill-opacity="1" /><path clip-path="url(#clip070)" d="M169.255 996.028 L157.45 1014.48 L169.255 1014.48 L169.255 996.028 M168.029 991.954 L173.908 991.954 L173.908 1014.48 L178.839 1014.48 L178.839 1018.37 L173.908 1018.37 L173.908 1026.51 L169.255 1026.51 L169.255 1018.37 L153.654 1018.37 L153.654 1013.85 L168.029 991.954 Z" fill="#000000" fill-rule="nonzero" fill-opacity="1" /><path clip-path="url(#clip070)" d="M51.9875 715.429 L59.6263 715.429 L59.6263 689.064 L51.3162 690.73 L51.3162 686.471 L59.58 684.805 L64.2559 684.805 L64.2559 715.429 L71.8948 715.429 L71.8948 719.365 L51.9875 719.365 L51.9875 715.429 Z" fill="#000000" fill-rule="nonzero" fill-opacity="1" /><path clip-path="url(#clip070)" d="M81.3392 713.485 L86.2234 713.485 L86.2234 719.365 L81.3392 719.365 L81.3392 713.485 Z" fill="#000000" fill-rule="nonzero" fill-opacity="1" /><path clip-path="url(#clip070)" d="M106.408 687.883 Q102.797 687.883 100.969 691.448 Q99.1632 694.99 99.1632 702.119 Q99.1632 709.226 100.969 712.79 Q102.797 716.332 106.408 716.332 Q110.043 716.332 111.848 712.79 Q113.677 709.226 113.677 702.119 Q113.677 694.99 111.848 691.448 Q110.043 687.883 106.408 687.883 M106.408 684.18 Q112.219 684.18 115.274 688.786 Q118.353 693.369 118.353 702.119 Q118.353 710.846 115.274 715.452 Q112.219 720.036 106.408 720.036 Q100.598 720.036 97.5197 715.452 Q94.4641 710.846 94.4641 702.119 Q94.4641 693.369 97.5197 688.786 Q100.598 684.18 106.408 684.18 Z" fill="#000000" fill-rule="nonzero" fill-opacity="1" /><path clip-path="url(#clip070)" d="M136.57 687.883 Q132.959 687.883 131.131 691.448 Q129.325 694.99 129.325 702.119 Q129.325 709.226 131.131 712.79 Q132.959 716.332 136.57 716.332 Q140.205 716.332 142.01 712.79 Q143.839 709.226 143.839 702.119 Q143.839 694.99 142.01 691.448 Q140.205 687.883 136.57 687.883 M136.57 684.18 Q142.381 684.18 145.436 688.786 Q148.515 693.369 148.515 702.119 Q148.515 710.846 145.436 715.452 Q142.381 720.036 136.57 720.036 Q130.76 720.036 127.682 715.452 Q124.626 710.846 124.626 702.119 Q124.626 693.369 127.682 688.786 Q130.76 684.18 136.57 684.18 Z" fill="#000000" fill-rule="nonzero" fill-opacity="1" /><path clip-path="url(#clip070)" d="M167.311 700.221 Q164.163 700.221 162.311 702.374 Q160.482 704.527 160.482 708.277 Q160.482 712.003 162.311 714.179 Q164.163 716.332 167.311 716.332 Q170.459 716.332 172.288 714.179 Q174.14 712.003 174.14 708.277 Q174.14 704.527 172.288 702.374 Q170.459 700.221 167.311 700.221 M176.593 685.568 L176.593 689.828 Q174.834 688.994 173.029 688.554 Q171.246 688.115 169.487 688.115 Q164.857 688.115 162.404 691.24 Q159.973 694.365 159.626 700.684 Q160.992 698.67 163.052 697.605 Q165.112 696.517 167.589 696.517 Q172.797 696.517 175.806 699.689 Q178.839 702.837 178.839 708.277 Q178.839 713.601 175.691 716.818 Q172.542 720.036 167.311 720.036 Q161.316 720.036 158.144 715.452 Q154.973 710.846 154.973 702.119 Q154.973 693.925 158.862 689.064 Q162.751 684.18 169.302 684.18 Q171.061 684.18 172.843 684.527 Q174.649 684.874 176.593 685.568 Z" fill="#000000" fill-rule="nonzero" fill-opacity="1" /><path clip-path="url(#clip070)" d="M52.2421 408.28 L59.881 408.28 L59.881 381.914 L51.5708 383.581 L51.5708 379.321 L59.8347 377.655 L64.5106 377.655 L64.5106 408.28 L72.1494 408.28 L72.1494 412.215 L52.2421 412.215 L52.2421 408.28 Z" fill="#000000" fill-rule="nonzero" fill-opacity="1" /><path clip-path="url(#clip070)" d="M81.5938 406.335 L86.478 406.335 L86.478 412.215 L81.5938 412.215 L81.5938 406.335 Z" fill="#000000" fill-rule="nonzero" fill-opacity="1" /><path clip-path="url(#clip070)" d="M106.663 380.733 Q103.052 380.733 101.223 384.298 Q99.4178 387.84 99.4178 394.969 Q99.4178 402.076 101.223 405.641 Q103.052 409.182 106.663 409.182 Q110.297 409.182 112.103 405.641 Q113.932 402.076 113.932 394.969 Q113.932 387.84 112.103 384.298 Q110.297 380.733 106.663 380.733 M106.663 377.03 Q112.473 377.03 115.529 381.636 Q118.608 386.219 118.608 394.969 Q118.608 403.696 115.529 408.303 Q112.473 412.886 106.663 412.886 Q100.853 412.886 97.7743 408.303 Q94.7187 403.696 94.7187 394.969 Q94.7187 386.219 97.7743 381.636 Q100.853 377.03 106.663 377.03 Z" fill="#000000" fill-rule="nonzero" fill-opacity="1" /><path clip-path="url(#clip070)" d="M136.825 380.733 Q133.214 380.733 131.385 384.298 Q129.58 387.84 129.58 394.969 Q129.58 402.076 131.385 405.641 Q133.214 409.182 136.825 409.182 Q140.459 409.182 142.265 405.641 Q144.093 402.076 144.093 394.969 Q144.093 387.84 142.265 384.298 Q140.459 380.733 136.825 380.733 M136.825 377.03 Q142.635 377.03 145.691 381.636 Q148.769 386.219 148.769 394.969 Q148.769 403.696 145.691 408.303 Q142.635 412.886 136.825 412.886 Q131.015 412.886 127.936 408.303 Q124.881 403.696 124.881 394.969 Q124.881 386.219 127.936 381.636 Q131.015 377.03 136.825 377.03 Z" fill="#000000" fill-rule="nonzero" fill-opacity="1" /><path clip-path="url(#clip070)" d="M166.987 395.803 Q163.654 395.803 161.732 397.585 Q159.834 399.368 159.834 402.493 Q159.834 405.618 161.732 407.4 Q163.654 409.182 166.987 409.182 Q170.32 409.182 172.241 407.4 Q174.163 405.594 174.163 402.493 Q174.163 399.368 172.241 397.585 Q170.343 395.803 166.987 395.803 M162.311 393.812 Q159.302 393.071 157.612 391.011 Q155.945 388.951 155.945 385.988 Q155.945 381.844 158.885 379.437 Q161.848 377.03 166.987 377.03 Q172.149 377.03 175.089 379.437 Q178.028 381.844 178.028 385.988 Q178.028 388.951 176.339 391.011 Q174.672 393.071 171.686 393.812 Q175.066 394.599 176.941 396.891 Q178.839 399.182 178.839 402.493 Q178.839 407.516 175.76 410.201 Q172.704 412.886 166.987 412.886 Q161.269 412.886 158.191 410.201 Q155.135 407.516 155.135 402.493 Q155.135 399.182 157.033 396.891 Q158.931 394.599 162.311 393.812 M160.598 386.428 Q160.598 389.113 162.265 390.618 Q163.954 392.122 166.987 392.122 Q169.996 392.122 171.686 390.618 Q173.399 389.113 173.399 386.428 Q173.399 383.743 171.686 382.238 Q169.996 380.733 166.987 380.733 Q163.954 380.733 162.265 382.238 Q160.598 383.743 160.598 386.428 Z" fill="#000000" fill-rule="nonzero" fill-opacity="1" /><path clip-path="url(#clip070)" d="M52.1495 101.13 L59.7884 101.13 L59.7884 74.7641 L51.4782 76.4308 L51.4782 72.1715 L59.7421 70.5049 L64.418 70.5049 L64.418 101.13 L72.0568 101.13 L72.0568 105.065 L52.1495 105.065 L52.1495 101.13 Z" fill="#000000" fill-rule="nonzero" fill-opacity="1" /><path clip-path="url(#clip070)" d="M81.5012 99.1853 L86.3855 99.1853 L86.3855 105.065 L81.5012 105.065 L81.5012 99.1853 Z" fill="#000000" fill-rule="nonzero" fill-opacity="1" /><path clip-path="url(#clip070)" d="M106.571 73.5836 Q102.959 73.5836 101.131 77.1484 Q99.3252 80.69 99.3252 87.8196 Q99.3252 94.9261 101.131 98.4909 Q102.959 102.032 106.571 102.032 Q110.205 102.032 112.01 98.4909 Q113.839 94.9261 113.839 87.8196 Q113.839 80.69 112.01 77.1484 Q110.205 73.5836 106.571 73.5836 M106.571 69.8799 Q112.381 69.8799 115.436 74.4863 Q118.515 79.0697 118.515 87.8196 Q118.515 96.5464 115.436 101.153 Q112.381 105.736 106.571 105.736 Q100.76 105.736 97.6817 101.153 Q94.6262 96.5464 94.6262 87.8196 Q94.6262 79.0697 97.6817 74.4863 Q100.76 69.8799 106.571 69.8799 Z" fill="#000000" fill-rule="nonzero" fill-opacity="1" /><path clip-path="url(#clip070)" d="M127.543 101.13 L135.181 101.13 L135.181 74.7641 L126.871 76.4308 L126.871 72.1715 L135.135 70.5049 L139.811 70.5049 L139.811 101.13 L147.45 101.13 L147.45 105.065 L127.543 105.065 L127.543 101.13 Z" fill="#000000" fill-rule="nonzero" fill-opacity="1" /><path clip-path="url(#clip070)" d="M166.894 73.5836 Q163.283 73.5836 161.454 77.1484 Q159.649 80.69 159.649 87.8196 Q159.649 94.9261 161.454 98.4909 Q163.283 102.032 166.894 102.032 Q170.529 102.032 172.334 98.4909 Q174.163 94.9261 174.163 87.8196 Q174.163 80.69 172.334 77.1484 Q170.529 73.5836 166.894 73.5836 M166.894 69.8799 Q172.704 69.8799 175.76 74.4863 Q178.839 79.0697 178.839 87.8196 Q178.839 96.5464 175.76 101.153 Q172.704 105.736 166.894 105.736 Q161.084 105.736 158.005 101.153 Q154.95 96.5464 154.95 87.8196 Q154.95 79.0697 158.005 74.4863 Q161.084 69.8799 166.894 69.8799 Z" fill="#000000" fill-rule="nonzero" fill-opacity="1" /><polyline clip-path="url(#clip071)" style="stroke:#009af9; stroke-linecap:round; stroke-linejoin:round; stroke-width:4; stroke-opacity:1; fill:none" points="275.346,87.9763 276.354,87.9763 277.363,87.9763 278.371,87.9763 279.38,87.9763 280.388,87.9763 281.396,87.9763 282.405,87.9763 283.413,87.9763 284.422,87.9763 285.43,87.9763 286.439,87.9763 287.447,87.9763 288.456,87.9763 289.464,87.9763 290.473,87.9763 291.481,87.9763 292.489,87.9763 293.498,87.9763 294.506,87.9763 295.515,87.9763 296.523,87.9763 297.532,87.9763 298.54,87.9763 299.549,87.9763 300.557,87.9763 301.565,87.9763 302.574,87.9763 303.582,87.9763 304.591,87.9763 305.599,87.9763 306.608,87.9763 307.616,87.9763 308.625,87.9763 309.633,87.9763 310.642,87.9763 311.65,87.9763 312.658,87.9763 313.667,87.9763 314.675,87.9763 315.684,87.9763 316.692,87.9763 317.701,87.9763 318.709,87.9763 319.718,87.9763 320.726,87.9763 321.735,87.9763 322.743,87.9763 323.751,87.9763 324.76,87.9763 325.768,87.9763 326.777,87.9763 327.785,87.9763 328.794,87.9763 329.802,87.9763 330.811,87.9763 331.819,87.9763 332.827,87.9763 333.836,87.9763 334.844,87.9763 335.853,87.9763 336.861,87.9763 337.87,87.9763 338.878,87.9763 339.887,87.9763 340.895,87.9763 341.904,87.9763 342.912,87.9763 343.92,87.9763 344.929,87.9763 345.937,87.9763 346.946,87.9763 347.954,87.9763 348.963,87.9763 349.971,87.9763 350.98,87.9763 351.988,87.9763 352.997,87.9763 354.005,87.9763 355.013,87.9763 356.022,87.9763 357.03,87.9763 358.039,87.9763 359.047,87.9763 360.056,87.9763 361.064,87.9763 362.073,87.9763 363.081,87.9763 364.089,87.9763 365.098,87.9763 366.106,87.9763 367.115,87.9763 368.123,87.9763 369.132,87.9763 370.14,87.9763 371.149,87.9763 372.157,87.9763 373.166,87.9763 374.174,87.9763 375.182,87.9763 376.191,87.9763 377.199,1445.72 378.208,508.049 379.216,911.822 380.225,946.303 381.233,965.848 382.242,980.085 383.25,990.222 384.259,997.094 385.267,1001.39 386.275,1003.61 387.284,1004.13 388.292,1003.29 389.301,1001.31 390.309,998.374 391.318,994.644 392.326,990.251 393.335,985.284 394.343,979.827 395.351,973.961 396.36,967.754 397.368,961.252 398.377,954.503 399.385,947.549 400.394,940.435 401.402,933.197 402.411,925.867 403.419,918.476 404.428,911.048 405.436,903.607 406.444,896.177 407.453,888.777 408.461,881.441 409.47,874.182 410.478,867.013 411.487,859.942 412.495,852.982 413.504,846.143 414.512,839.452 415.521,832.919 416.529,826.544 417.537,820.329 418.546,814.275 419.554,808.385 420.563,802.675 421.571,797.153 422.58,791.815 423.588,786.661 424.597,781.686 425.605,776.888 426.613,772.269 427.622,767.836 428.63,763.586 429.639,759.514 430.647,755.619 431.656,751.899 432.664,748.35 433.673,744.974 434.681,741.766 435.69,738.721 436.698,735.836 437.706,733.112 438.715,730.547 439.723,728.141 440.732,725.891 441.74,723.79 442.749,721.831 443.757,720.011 444.766,718.328 445.774,716.781 446.783,715.368 447.791,714.088 448.799,712.931 449.808,711.889 450.816,710.957 451.825,710.128 452.833,709.396 453.842,708.755 454.85,708.197 455.859,707.716 456.867,707.299 457.875,706.942 458.884,706.634 459.892,706.364 460.901,706.118 461.909,705.884 462.918,705.65 463.926,705.404 464.935,705.136 465.943,704.84 466.952,704.501 467.96,704.103 468.968,703.632 469.977,703.074 470.985,702.412 471.994,701.634 473.002,700.739 474.011,699.712 475.019,698.54 476.028,697.212 477.036,695.714 478.045,694.036 479.053,692.164 480.061,690.091 481.07,687.818 482.078,685.331 483.087,682.625 484.095,679.693 485.104,676.531 486.112,673.133 487.121,669.493 488.129,665.608 489.137,661.487 490.146,657.12 491.154,652.511 492.163,647.662 493.171,642.575 494.18,637.253 495.188,631.697 496.197,625.91 497.205,619.907 498.214,613.691 499.222,607.27 500.23,600.654 501.239,593.852 502.247,586.875 503.256,579.73 504.264,572.429 505.273,564.987 506.281,557.421 507.29,549.743 508.298,541.968 509.307,534.113 510.315,526.192 511.323,518.22 512.332,510.213 513.34,502.19 514.349,494.169 515.357,486.169 516.366,478.206 517.374,470.3 518.383,462.469 519.391,454.732 520.399,447.107 521.408,439.611 522.416,432.26 523.425,425.07 524.433,418.058 525.442,411.242 526.45,404.636 527.459,398.26 528.467,392.128 529.476,386.257 530.484,380.645 531.492,375.309 532.501,370.256 533.509,365.495 534.518,361.035 535.526,356.884 536.535,353.05 537.543,349.543 538.552,346.35 539.56,343.473 540.569,340.914 541.577,338.666 542.585,336.726 543.594,335.09 544.602,333.753 545.611,332.71 546.619,331.947 547.628,331.451 548.636,331.213 549.645,331.217 550.653,331.446 551.661,331.884 552.67,332.514 553.678,333.319 554.687,334.283 555.695,335.385 556.704,336.61 557.712,337.935 558.721,339.339 559.729,340.798 560.738,342.29 561.746,343.793 562.754,345.285 563.763,346.755 564.771,348.179 565.78,349.538 566.788,350.812 567.797,351.981 568.805,353.026 569.814,353.926 570.822,354.663 571.831,355.228 572.839,355.611 573.847,355.792 574.856,355.761 575.864,355.509 576.873,355.025 577.881,354.299 578.89,353.321 579.898,352.083 580.907,350.596 581.915,348.845 582.923,346.831 583.932,344.555 584.94,342.02 585.949,339.228 586.957,336.18 587.966,332.878 588.974,329.334 589.983,325.557 590.991,321.553 592,317.335 593.008,312.914 594.016,308.302 595.025,303.512 596.033,298.556 597.042,293.446 598.05,288.204 599.059,282.845 600.067,277.388 601.076,271.849 602.084,266.248 603.093,260.601 604.101,254.926 605.109,249.241 606.118,243.565 607.126,237.92 608.135,232.324 609.143,226.795 610.152,221.352 611.16,216.013 612.169,210.796 613.177,205.719 614.185,200.798 615.194,196.045 616.202,191.476 617.211,187.107 618.219,182.948 619.228,179.013 620.236,175.315 621.245,171.866 622.253,168.68 623.262,165.758 624.27,163.102 625.278,160.72 626.287,158.614 627.295,156.787 628.304,155.243 629.312,153.985 630.321,153.014 631.329,152.334 632.338,151.928 633.346,151.792 634.354,151.923 635.363,152.31 636.371,152.946 637.38,153.822 638.388,154.93 639.397,156.262 640.405,157.808 641.414,159.544 642.422,161.463 643.431,163.549 644.439,165.786 645.447,168.157 646.456,170.645 647.464,173.235 648.473,175.909 649.481,178.651 650.49,181.447 651.498,184.28 652.507,187.132 653.515,189.986 654.524,192.822 655.532,195.623 656.54,198.371 657.549,201.047 658.557,203.642 659.566,206.147 660.574,208.544 661.583,210.82 662.591,212.963 663.6,214.959 664.608,216.795 665.616,218.459 666.625,219.937 667.633,221.234 668.642,222.339 669.65,223.245 670.659,223.947 671.667,224.443 672.676,224.727 673.684,224.798 674.693,224.651 675.701,224.283 676.709,223.705 677.718,222.914 678.726,221.912 679.735,220.703 680.743,219.293 681.752,217.69 682.76,215.899 683.769,213.926 684.777,211.778 685.786,209.464 686.794,206.994 687.802,204.377 688.811,201.624 689.819,198.747 690.828,195.757 691.836,192.668 692.845,189.49 693.853,186.238 694.862,182.921 695.87,179.552 696.878,176.145 697.887,172.714 698.895,169.272 699.904,165.831 700.912,162.404 701.921,159.005 702.929,155.646 703.938,152.341 704.946,149.093 705.955,145.923 706.963,142.84 707.971,139.854 708.98,136.973 709.988,134.208 710.997,131.568 712.005,129.063 713.014,126.701 714.022,124.485 715.031,122.424 716.039,120.526 717.048,118.794 718.056,117.231 719.064,115.84 720.073,114.626 721.081,113.592 722.09,112.741 723.098,112.073 724.107,111.584 725.115,111.277 726.124,111.15 727.132,111.199 728.14,111.422 729.149,111.816 730.157,112.377 731.166,113.103 732.174,113.99 733.183,115.03 734.191,116.217 735.2,117.544 736.208,119.004 737.217,120.589 738.225,122.291 739.233,124.104 740.242,126.018 741.25,128.026 742.259,130.12 743.267,132.29 744.276,134.527 745.284,136.822 746.293,139.165 747.301,141.547 748.31,143.958 749.318,146.39 750.326,148.832 751.335,151.276 752.343,153.714 753.352,156.138 754.36,158.54 755.369,160.911 756.377,163.243 757.386,165.529 758.394,167.76 759.402,169.931 760.411,172.031 761.419,174.055 762.428,176.003 763.436,177.866 764.445,179.639 765.453,181.32 766.462,182.903 767.47,184.386 768.479,185.764 769.487,187.035 770.495,188.194 771.504,189.238 772.512,190.174 773.521,190.997 774.529,191.707 775.538,192.304 776.546,192.79 777.555,193.166 778.563,193.433 779.572,193.592 780.58,193.643 781.588,193.589 782.597,193.438 783.605,193.189 784.614,192.848 785.622,192.418 786.631,191.905 787.639,191.312 788.648,190.645 789.656,189.908 790.664,189.105 791.673,188.242 792.681,187.325 793.69,186.36 794.698,185.352 795.707,184.308 796.715,183.234 797.724,182.135 798.732,181.019 799.741,179.89 800.749,178.755 801.757,177.621 802.766,176.49 803.774,175.37 804.783,174.267 805.791,173.186 806.8,172.133 807.808,171.113 808.817,170.131 809.825,169.192 810.834,168.302 811.842,167.467 812.85,166.686 813.859,165.965 814.867,165.307 815.876,164.717 816.884,164.196 817.893,163.748 818.901,163.375 819.91,163.081 820.918,162.867 821.926,162.738 822.935,162.691 823.943,162.725 824.952,162.844 825.96,163.047 826.969,163.333 827.977,163.702 828.986,164.153 829.994,164.685 831.003,165.299 832.011,165.993 833.019,166.767 834.028,167.612 835.036,168.529 836.045,169.517 837.053,170.569 838.062,171.685 839.07,172.858 840.079,174.087 841.087,175.367 842.096,176.695 843.104,178.068 844.112,179.479 845.121,180.924 846.129,182.4 847.138,183.901 848.146,185.422 849.155,186.958 850.163,188.504 851.172,190.055 852.18,191.607 853.188,193.153 854.197,194.692 855.205,196.218 856.214,197.726 857.222,199.211 858.231,200.669 859.239,202.097 860.248,203.489 861.256,204.842 862.265,206.151 863.273,207.412 864.281,208.62 865.29,209.779 866.298,210.882 867.307,211.925 868.315,212.908 869.324,213.829 870.332,214.685 871.341,215.475 872.349,216.197 873.358,216.85 874.366,217.432 875.374,217.941 876.383,218.384 877.391,218.756 878.4,219.058 879.408,219.292 880.417,219.459 881.425,219.56 882.434,219.596 883.442,219.57 884.45,219.481 885.459,219.332 886.467,219.126 887.476,218.867 888.484,218.557 889.493,218.2 890.501,217.798 891.51,217.356 892.518,216.877 893.527,216.364 894.535,215.822 895.543,215.254 896.552,214.664 897.56,214.055 898.569,213.432 899.577,212.799 900.586,212.161 901.594,211.522 902.603,210.885 903.611,210.256 904.62,209.637 905.628,209.034 906.636,208.45 907.645,207.889 908.653,207.353 909.662,206.846 910.67,206.371 911.679,205.932 912.687,205.531 913.696,205.17 914.704,204.853 915.712,204.582 916.721,204.36 917.729,204.189 918.738,204.072 919.746,204.007 920.755,203.994 921.763,204.037 922.772,204.135 923.78,204.289 924.789,204.497 925.797,204.76 926.805,205.078 927.814,205.451 928.822,205.878 929.831,206.359 930.839,206.892 931.848,207.472 932.856,208.101 933.865,208.775 934.873,209.491 935.882,210.248 936.89,211.042 937.898,211.871 938.907,212.731 939.915,213.621 940.924,214.538 941.932,215.478 942.941,216.438 943.949,217.414 944.958,218.403 945.966,219.401 946.974,220.405 947.983,221.411 948.991,222.415 950,223.414 951.008,224.404 952.017,225.382 953.025,226.343 954.034,227.289 955.042,228.213 956.051,229.113 957.059,229.987 958.067,230.831 959.076,231.643 960.084,232.422 961.093,233.163 962.101,233.866 963.11,234.527 964.118,235.143 965.127,235.714 966.135,236.244 967.144,236.727 968.152,237.163 969.16,237.552 970.169,237.895 971.177,238.19 972.186,238.438 973.194,238.639 974.203,238.794 975.211,238.901 976.22,238.962 977.228,238.977 978.236,238.952 979.245,238.884 980.253,238.777 981.262,238.633 982.27,238.453 983.279,238.241 984.287,237.997 985.296,237.725 986.304,237.427 987.313,237.106 988.321,236.762 989.329,236.4 990.338,236.022 991.346,235.632 992.355,235.232 993.363,234.825 994.372,234.414 995.38,234.003 996.389,233.594 997.397,233.19 998.406,232.794 999.414,232.41 1000.42,232.04 1001.43,231.685 1002.44,231.347 1003.45,231.031 1004.46,230.737 1005.46,230.469 1006.47,230.227 1007.48,230.015 1008.49,229.832 1009.5,229.682 1010.51,229.566 1011.52,229.486 1012.52,229.444 1013.53,229.441 1014.54,229.474 1015.55,229.545 1016.56,229.655 1017.57,229.804 1018.57,229.992 1019.58,230.218 1020.59,230.482 1021.6,230.783 1022.61,231.121 1023.62,231.495 1024.63,231.906 1025.63,232.352 1026.64,232.833 1027.65,233.343 1028.66,233.883 1029.67,234.452 1030.68,235.048 1031.68,235.667 1032.69,236.309 1033.7,236.97 1034.71,237.649 1035.72,238.343 1036.73,239.051 1037.74,239.769 1038.74,240.496 1039.75,241.231 1040.76,241.969 1041.77,242.709 1042.78,243.449 1043.79,244.184 1044.79,244.915 1045.8,245.637 1046.81,246.349 1047.82,247.048 1048.83,247.731 1049.84,248.398 1050.84,249.044 1051.85,249.669 1052.86,250.27 1053.87,250.85 1054.88,251.403 1055.89,251.929 1056.9,252.426 1057.9,252.893 1058.91,253.33 1059.92,253.735 1060.93,254.108 1061.94,254.448 1062.95,254.753 1063.95,255.023 1064.96,255.257 1065.97,255.453 1066.98,255.617 1067.99,255.747 1069,255.841 1070.01,255.902 1071.01,255.93 1072.02,255.925 1073.03,255.889 1074.04,255.823 1075.05,255.727 1076.06,255.603 1077.06,255.451 1078.07,255.274 1079.08,255.07 1080.09,254.842 1081.1,254.594 1082.11,254.325 1083.12,254.038 1084.12,253.735 1085.13,253.417 1086.14,253.086 1087.15,252.745 1088.16,252.396 1089.17,252.04 1090.17,251.679 1091.18,251.315 1092.19,250.95 1093.2,250.586 1094.21,250.225 1095.22,249.866 1096.23,249.514 1097.23,249.17 1098.24,248.835 1099.25,248.512 1100.26,248.2 1101.27,247.902 1102.28,247.62 1103.28,247.354 1104.29,247.107 1105.3,246.879 1106.31,246.673 1107.32,246.489 1108.33,246.33 1109.34,246.189 1110.34,246.072 1111.35,245.98 1112.36,245.913 1113.37,245.869 1114.38,245.851 1115.39,245.857 1116.39,245.887 1117.4,245.943 1118.41,246.023 1119.42,246.127 1120.43,246.256 1121.44,246.41 1122.45,246.589 1123.45,246.789 1124.46,247.011 1125.47,247.253 1126.48,247.516 1127.49,247.798 1128.5,248.098 1129.5,248.414 1130.51,248.745 1131.52,249.091 1132.53,249.449 1133.54,249.82 1134.55,250.2 1135.55,250.59 1136.56,250.988 1137.57,251.393 1138.58,251.804 1139.59,252.218 1140.6,252.634 1141.61,253.052 1142.61,253.469 1143.62,253.884 1144.63,254.296 1145.64,254.703 1146.65,255.105 1147.66,255.499 1148.66,255.885 1149.67,256.26 1150.68,256.624 1151.69,256.976 1152.7,257.314 1153.71,257.641 1154.72,257.953 1155.72,258.25 1156.73,258.53 1157.74,258.794 1158.75,259.04 1159.76,259.269 1160.77,259.48 1161.77,259.673 1162.78,259.847 1163.79,260.002 1164.8,260.137 1165.81,260.251 1166.82,260.345 1167.83,260.418 1168.83,260.474 1169.84,260.511 1170.85,260.528 1171.86,260.527 1172.87,260.508 1173.88,260.472 1174.88,260.42 1175.89,260.351 1176.9,260.267 1177.91,260.169 1178.92,260.056 1179.93,259.931 1180.94,259.793 1181.94,259.643 1182.95,259.481 1183.96,259.31 1184.97,259.129 1185.98,258.941 1186.99,258.746 1187.99,258.545 1189,258.339 1190.01,258.129 1191.02,257.917 1192.03,257.702 1193.04,257.487 1194.05,257.273 1195.05,257.059 1196.06,256.849 1197.07,256.641 1198.08,256.438 1199.09,256.241 1200.1,256.048 1201.1,255.86 1202.11,255.68 1203.12,255.509 1204.13,255.345 1205.14,255.191 1206.15,255.046 1207.15,254.911 1208.16,254.786 1209.17,254.672 1210.18,254.57 1211.19,254.478 1212.2,254.399 1213.21,254.333 1214.21,254.28 1215.22,254.24 1216.23,254.213 1217.24,254.197 1218.25,254.193 1219.26,254.202 1220.26,254.222 1221.27,254.255 1222.28,254.299 1223.29,254.354 1224.3,254.419 1225.31,254.494 1226.32,254.579 1227.32,254.672 1228.33,254.775 1229.34,254.886 1230.35,255.005 1231.36,255.131 1232.37,255.264 1233.37,255.404 1234.38,255.548 1235.39,255.698 1236.4,255.851 1237.41,256.008 1238.42,256.167 1239.43,256.328 1240.43,256.49 1241.44,256.653 1242.45,256.816 1243.46,256.978 1244.47,257.138 1245.48,257.296 1246.48,257.45 1247.49,257.602 1248.5,257.748 1249.51,257.89 1250.52,258.027 1251.53,258.161 1252.54,258.288 1253.54,258.409 1254.55,258.522 1255.56,258.63 1256.57,258.73 1257.58,258.822 1258.59,258.908 1259.59,258.985 1260.6,259.055 1261.61,259.117 1262.62,259.17 1263.63,259.216 1264.64,259.252 1265.65,259.28 1266.65,259.299 1267.66,259.309 1268.67,259.313 1269.68,259.309 1270.69,259.297 1271.7,259.277 1272.7,259.251 1273.71,259.218 1274.72,259.179 1275.73,259.134 1276.74,259.084 1277.75,259.028 1278.76,258.968 1279.76,258.904 1280.77,258.836 1281.78,258.765 1282.79,258.691 1283.8,258.614 1284.81,258.535 1285.81,258.454 1286.82,258.371 1287.83,258.288 1288.84,258.204 1289.85,258.121 1290.86,258.039 1291.86,257.958 1292.87,257.878 1293.88,257.799 1294.89,257.723 1295.9,257.65 1296.91,257.579 1297.92,257.512 1298.92,257.449 1299.93,257.39 1300.94,257.335 1301.95,257.285 1302.96,257.24 1303.97,257.201 1304.97,257.166 1305.98,257.135 1306.99,257.11 1308,257.09 1309.01,257.075 1310.02,257.066 1311.03,257.062 1312.03,257.063 1313.04,257.069 1314.05,257.079 1315.06,257.095 1316.07,257.115 1317.08,257.139 1318.08,257.167 1319.09,257.2 1320.1,257.237 1321.11,257.278 1322.12,257.323 1323.13,257.371 1324.14,257.422 1325.14,257.476 1326.15,257.532 1327.16,257.59 1328.17,257.649 1329.18,257.71 1330.19,257.772 1331.19,257.834 1332.2,257.896 1333.21,257.958 1334.22,258.02 1335.23,258.081 1336.24,258.141 1337.25,258.199 1338.25,258.255 1339.26,258.308 1340.27,258.36 1341.28,258.408 1342.29,258.452 1343.3,258.496 1344.3,258.535 1345.31,258.571 1346.32,258.603 1347.33,258.63 1348.34,258.654 1349.35,258.673 1350.36,258.688 1351.36,258.698 1352.37,258.705 1353.38,258.707 1354.39,258.704 1355.4,258.697 1356.41,258.685 1357.41,258.669 1358.42,258.648 1359.43,258.622 1360.44,258.591 1361.45,258.555 1362.46,258.515 1363.46,258.471 1364.47,258.423 1365.48,258.371 1366.49,258.316 1367.5,258.257 1368.51,258.195 1369.52,258.13 1370.52,258.062 1371.53,257.992 1372.54,257.919 1373.55,257.845 1374.56,257.77 1375.57,257.693 1376.57,257.615 1377.58,257.536 1378.59,257.457 1379.6,257.378 1380.61,257.299 1381.62,257.22 1382.63,257.142 1383.63,257.064 1384.64,256.986 1385.65,256.91 1386.66,256.836 1387.67,256.763 1388.68,256.693 1389.68,256.625 1390.69,256.559 1391.7,256.496 1392.71,256.435 1393.72,256.377 1394.73,256.322 1395.74,256.27 1396.74,256.221 1397.75,256.175 1398.76,256.133 1399.77,256.094 1400.78,256.059 1401.79,256.028 1402.79,256.001 1403.8,255.978 1404.81,255.96 1405.82,255.945 1406.83,255.934 1407.84,255.925 1408.85,255.92 1409.85,255.919 1410.86,255.922 1411.87,255.928 1412.88,255.937 1413.89,255.949 1414.9,255.963 1415.9,255.98 1416.91,256 1417.92,256.022 1418.93,256.046 1419.94,256.072 1420.95,256.1 1421.96,256.129 1422.96,256.16 1423.97,256.192 1424.98,256.224 1425.99,256.258 1427,256.292 1428.01,256.327 1429.01,256.363 1430.02,256.399 1431.03,256.435 1432.04,256.47 1433.05,256.504 1434.06,256.538 1435.07,256.571 1436.07,256.602 1437.08,256.633 1438.09,256.662 1439.1,256.689 1440.11,256.715 1441.12,256.739 1442.12,256.761 1443.13,256.781 1444.14,256.798 1445.15,256.813 1446.16,256.826 1447.17,256.836 1448.17,256.843 1449.18,256.847 1450.19,256.848 1451.2,256.846 1452.21,256.84 1453.22,256.831 1454.23,256.821 1455.23,256.808 1456.24,256.791 1457.25,256.772 1458.26,256.749 1459.27,256.723 1460.28,256.695 1461.28,256.664 1462.29,256.631 1463.3,256.595 1464.31,256.557 1465.32,256.516 1466.33,256.473 1467.34,256.428 1468.34,256.381 1469.35,256.333 1470.36,256.282 1471.37,256.23 1472.38,256.176 1473.39,256.121 1474.39,256.064 1475.4,256.006 1476.41,255.947 1477.42,255.887 1478.43,255.825 1479.44,255.763 1480.45,255.701 1481.45,255.639 1482.46,255.576 1483.47,255.514 1484.48,255.451 1485.49,255.389 1486.5,255.327 1487.5,255.265 1488.51,255.205 1489.52,255.145 1490.53,255.086 1491.54,255.027 1492.55,254.97 1493.56,254.915 1494.56,254.86 1495.57,254.807 1496.58,254.756 1497.59,254.707 1498.6,254.659 1499.61,254.613 1500.61,254.57 1501.62,254.529 1502.63,254.49 1503.64,254.453 1504.65,254.417 1505.66,254.383 1506.67,254.352 1507.67,254.323 1508.68,254.297 1509.69,254.273 1510.7,254.25 1511.71,254.231 1512.72,254.213 1513.72,254.197 1514.73,254.184 1515.74,254.172 1516.75,254.163 1517.76,254.155 1518.77,254.149 1519.77,254.145 1520.78,254.144 1521.79,254.143 1522.8,254.145 1523.81,254.148 1524.82,254.154 1525.83,254.16 1526.83,254.169 1527.84,254.179 1528.85,254.19 1529.86,254.203 1530.87,254.217 1531.88,254.232 1532.88,254.248 1533.89,254.265 1534.9,254.283 1535.91,254.302 1536.92,254.321 1537.93,254.341 1538.94,254.361 1539.94,254.382 1540.95,254.403 1541.96,254.424 1542.97,254.445 1543.98,254.466 1544.99,254.487 1545.99,254.508 1547,254.529 1548.01,254.549 1549.02,254.569 1550.03,254.588 1551.04,254.607 1552.05,254.625 1553.05,254.643 1554.06,254.659 1555.07,254.674 1556.08,254.689 1557.09,254.702 1558.1,254.715 1559.1,254.727 1560.11,254.738 1561.12,254.747 1562.13,254.756 1563.14,254.763 1564.15,254.769 1565.16,254.774 1566.16,254.777 1567.17,254.779 1568.18,254.78 1569.19,254.78 1570.2,254.779 1571.21,254.776 1572.21,254.772 1573.22,254.767 1574.23,254.76 1575.24,254.752 1576.25,254.743 1577.26,254.733 1578.27,254.721 1579.27,254.708 1580.28,254.694 1581.29,254.678 1582.3,254.662 1583.31,254.644 1584.32,254.624 1585.32,254.604 1586.33,254.582 1587.34,254.56 1588.35,254.536 1589.36,254.512 1590.37,254.487 1591.38,254.461 1592.38,254.434 1593.39,254.406 1594.4,254.377 1595.41,254.348 1596.42,254.319 1597.43,254.288 1598.43,254.257 1599.44,254.226 1600.45,254.194 1601.46,254.162 1602.47,254.13 1603.48,254.097 1604.48,254.064 1605.49,254.031 1606.5,253.998 1607.51,253.965 1608.52,253.932 1609.53,253.899 1610.54,253.866 1611.54,253.833 1612.55,253.8 1613.56,253.768 1614.57,253.735 1615.58,253.703 1616.59,253.671 1617.59,253.64 1618.6,253.609 1619.61,253.578 1620.62,253.548 1621.63,253.519 1622.64,253.49 1623.65,253.461 1624.65,253.434 1625.66,253.407 1626.67,253.38 1627.68,253.354 1628.69,253.329 1629.7,253.305 1630.7,253.282 1631.71,253.259 1632.72,253.237 1633.73,253.216 1634.74,253.196 1635.75,253.177 1636.76,253.159 1637.76,253.141 1638.77,253.125 1639.78,253.11 1640.79,253.096 1641.8,253.083 1642.81,253.071 1643.81,253.06 1644.82,253.049 1645.83,253.04 1646.84,253.031 1647.85,253.024 1648.86,253.018 1649.87,253.012 1650.87,253.007 1651.88,253.004 1652.89,253.001 1653.9,252.999 1654.91,252.998 1655.92,252.998 1656.92,252.998 1657.93,253 1658.94,253.002 1659.95,253.004 1660.96,253.008 1661.97,253.012 1662.98,253.016 1663.98,253.021 1664.99,253.027 1666,253.033 1667.01,253.04 1668.02,253.047 1669.03,253.055 1670.03,253.063 1671.04,253.071 1672.05,253.08 1673.06,253.089 1674.07,253.098 1675.08,253.108 1676.08,253.118 1677.09,253.128 1678.1,253.138 1679.11,253.148 1680.12,253.158 1681.13,253.168 1682.14,253.177 1683.14,253.187 1684.15,253.197 1685.16,253.206 1686.17,253.215 1687.18,253.224 1688.19,253.233 1689.19,253.241 1690.2,253.249 1691.21,253.257 1692.22,253.264 1693.23,253.271 1694.24,253.277 1695.25,253.283 1696.25,253.288 1697.26,253.293 1698.27,253.298 1699.28,253.301 1700.29,253.304 1701.3,253.307 1702.3,253.308 1703.31,253.309 1704.32,253.31 1705.33,253.309 1706.34,253.308 1707.35,253.306 1708.36,253.304 1709.36,253.301 1710.37,253.298 1711.38,253.294 1712.39,253.289 1713.4,253.284 1714.41,253.278 1715.41,253.271 1716.42,253.264 1717.43,253.257 1718.44,253.249 1719.45,253.24 1720.46,253.231 1721.47,253.222 1722.47,253.212 1723.48,253.202 1724.49,253.192 1725.5,253.182 1726.51,253.171 1727.52,253.16 1728.52,253.149 1729.53,253.137 1730.54,253.126 1731.55,253.114 1732.56,253.103 1733.57,253.091 1734.58,253.079 1735.58,253.068 1736.59,253.056 1737.6,253.044 1738.61,253.033 1739.62,253.021 1740.63,253.009 1741.63,252.998 1742.64,252.987 1743.65,252.976 1744.66,252.965 1745.67,252.955 1746.68,252.945 1747.68,252.935 1748.69,252.926 1749.7,252.917 1750.71,252.908 1751.72,252.9 1752.73,252.892 1753.74,252.884 1754.74,252.877 1755.75,252.87 1756.76,252.864 1757.77,252.857 1758.78,252.851 1759.79,252.846 1760.79,252.84 1761.8,252.836 1762.81,252.831 1763.82,252.827 1764.83,252.823 1765.84,252.82 1766.85,252.817 1767.85,252.814 1768.86,252.812 1769.87,252.81 1770.88,252.808 1771.89,252.807 1772.9,252.806 1773.9,252.806 1774.91,252.805 1775.92,252.805 1776.93,252.805 1777.94,252.805 1778.95,252.805 1779.96,252.805 1780.96,252.805 1781.97,252.806 1782.98,252.806 1783.99,252.807 1785,252.808 1786.01,252.808 1787.01,252.809 1788.02,252.81 1789.03,252.811 1790.04,252.811 1791.05,252.812 1792.06,252.813 1793.07,252.814 1794.07,252.815 1795.08,252.815 1796.09,252.816 1797.1,252.817 1798.11,252.817 1799.12,252.818 1800.12,252.818 1801.13,252.818 1802.14,252.818 1803.15,252.818 1804.16,252.818 1805.17,252.818 1806.18,252.818 1807.18,252.817 1808.19,252.817 1809.2,252.817 1810.21,252.817 1811.22,252.816 1812.23,252.816 1813.23,252.816 1814.24,252.816 1815.25,252.816 1816.26,252.815 1817.27,252.816 1818.28,252.816 1819.29,252.816 1820.29,252.816 1821.3,252.817 1822.31,252.818 1823.32,252.819 1824.33,252.82 1825.34,252.821 1826.34,252.822 1827.35,252.824 1828.36,252.826 1829.37,252.828 1830.38,252.831 1831.39,252.833 1832.39,252.836 1833.4,252.84 1834.41,252.843 1835.42,252.847 1836.43,252.852 1837.44,252.856 1838.45,252.861 1839.45,252.867 1840.46,252.873 1841.47,252.878 1842.48,252.884 1843.49,252.89 1844.5,252.897 1845.5,252.904 1846.51,252.911 1847.52,252.918 1848.53,252.926 1849.54,252.934 1850.55,252.942 1851.56,252.95 1852.56,252.958 1853.57,252.967 1854.58,252.975 1855.59,252.984 1856.6,252.992 1857.61,253.001 1858.61,253.009 1859.62,253.017 1860.63,253.025 1861.64,253.033 1862.65,253.041 1863.66,253.049 1864.67,253.057 1865.67,253.064 1866.68,253.071 1867.69,253.077 1868.7,253.084 1869.71,253.09 1870.72,253.095 1871.72,253.1 1872.73,253.105 1873.74,253.109 1874.75,253.113 1875.76,253.117 1876.77,253.12 1877.78,253.123 1878.78,253.126 1879.79,253.128 1880.8,253.129 1881.81,253.129 1882.82,253.129 1883.83,253.128 1884.83,253.127 1885.84,253.125 1886.85,253.123 1887.86,253.12 1888.87,253.117 1889.88,253.113 1890.89,253.109 1891.89,253.104 1892.9,253.099 1893.91,253.093 1894.92,253.087 1895.93,253.081 1896.94,253.075 1897.94,253.068 1898.95,253.06 1899.96,253.053 1900.97,253.045 1901.98,253.038 1902.99,253.029 1903.99,253.021 1905,253.013 1906.01,253.004 1907.02,252.995 1908.03,252.987 1909.04,252.978 1910.05,252.969 1911.05,252.96 1912.06,252.951 1913.07,252.941 1914.08,252.932 1915.09,252.922 1916.1,252.914 1917.1,252.905 1918.11,252.897 1919.12,252.89 1920.13,252.883 1921.14,252.876 1922.15,252.87 1923.16,252.864 1924.16,252.858 1925.17,252.853 1926.18,252.849 1927.19,252.845 1928.2,252.841 1929.21,252.838 1930.21,252.836 1931.22,252.834 1932.23,252.833 1933.24,252.832 1934.25,252.832 1935.26,252.832 1936.27,252.833 1937.27,252.834 1938.28,252.836 1939.29,252.839 1940.3,252.843 1941.31,252.847 1942.32,252.851 1943.32,252.857 1944.33,252.863 1945.34,252.869 1946.35,252.877 1947.36,252.885 1948.37,252.894 1949.38,252.904 1950.38,252.914 1951.39,252.924 1952.4,252.934 1953.41,252.945 1954.42,252.957 1955.43,252.968 1956.43,252.98 1957.44,252.992 1958.45,253.005 1959.46,253.017 1960.47,253.03 1961.48,253.043 1962.49,253.055 1963.49,253.068 1964.5,253.081 1965.51,253.094 1966.52,253.107 1967.53,253.119 1968.54,253.132 1969.54,253.144 1970.55,253.156 1971.56,253.168 1972.57,253.18 1973.58,253.191 1974.59,253.202 1975.6,253.213 1976.6,253.223 1977.61,253.233 1978.62,253.242 1979.63,253.251 1980.64,253.259 1981.65,253.267 1982.65,253.274 1983.66,253.281 1984.67,253.287 1985.68,253.292 1986.69,253.296 1987.7,253.3 1988.7,253.303 1989.71,253.305 1990.72,253.307 1991.73,253.308 1992.74,253.31 1993.75,253.31 1994.76,253.31 1995.76,253.309 1996.77,253.307 1997.78,253.305 1998.79,253.303 1999.8,253.299 2000.81,253.296 2001.81,253.291 2002.82,253.287 2003.83,253.281 2004.84,253.276 2005.85,253.27 2006.86,253.264 2007.87,253.257 2008.87,253.25 2009.88,253.243 2010.89,253.236 2011.9,253.229 2012.91,253.221 2013.92,253.213 2014.92,253.206 2015.93,253.198 2016.94,253.19 2017.95,253.183 2018.96,253.175 2019.97,253.167 2020.98,253.16 2021.98,253.152 2022.99,253.145 2024,253.138 2025.01,253.132 2026.02,253.125 2027.03,253.119 2028.03,253.114 2029.04,253.108 2030.05,253.103 2031.06,253.099 2032.07,253.095 2033.08,253.091 2034.09,253.087 2035.09,253.083 2036.1,253.08 2037.11,253.077 2038.12,253.075 2039.13,253.074 2040.14,253.073 2041.14,253.072 2042.15,253.073 2043.16,253.073 2044.17,253.075 2045.18,253.076 2046.19,253.079 2047.2,253.081 2048.2,253.085 2049.21,253.088 2050.22,253.092 2051.23,253.097 2052.24,253.101 2053.25,253.106 2054.25,253.112 2055.26,253.118 2056.27,253.124 2057.28,253.13 2058.29,253.136 2059.3,253.143 2060.3,253.15 2061.31,253.157 2062.32,253.165 2063.33,253.172 2064.34,253.18 2065.35,253.188 2066.36,253.195 2067.36,253.203 2068.37,253.211 2069.38,253.219 2070.39,253.227 2071.4,253.235 2072.41,253.243 2073.41,253.251 2074.42,253.259 2075.43,253.267 2076.44,253.275 2077.45,253.282 2078.46,253.291 2079.47,253.299 2080.47,253.307 2081.48,253.314 2082.49,253.321 2083.5,253.328 2084.51,253.334 2085.52,253.34 2086.52,253.346 2087.53,253.351 2088.54,253.356 2089.55,253.36 2090.56,253.364 2091.57,253.368 2092.58,253.371 2093.58,253.374 2094.59,253.377 2095.6,253.38 2096.61,253.382 2097.62,253.384 2098.63,253.386 2099.63,253.387 2100.64,253.388 2101.65,253.389 2102.66,253.389 2103.67,253.39 2104.68,253.39 2105.69,253.389 2106.69,253.389 2107.7,253.388 2108.71,253.387 2109.72,253.386 2110.73,253.385 2111.74,253.384 2112.74,253.382 2113.75,253.38 2114.76,253.378 2115.77,253.376 2116.78,253.373 2117.79,253.371 2118.8,253.368 2119.8,253.365 2120.81,253.362 2121.82,253.359 2122.83,253.355 2123.84,253.351 2124.85,253.348 2125.85,253.344 2126.86,253.34 2127.87,253.337 2128.88,253.334 2129.89,253.331 2130.9,253.328 2131.91,253.325 2132.91,253.323 2133.92,253.32 2134.93,253.318 2135.94,253.316 2136.95,253.314 2137.96,253.312 2138.96,253.31 2139.97,253.309 2140.98,253.307 2141.99,253.306 2143,253.305 2144.01,253.304 2145.01,253.303 2146.02,253.303 2147.03,253.302 2148.04,253.302 2149.05,253.302 2150.06,253.302 2151.07,253.302 2152.07,253.302 2153.08,253.302 2154.09,253.303 2155.1,253.303 2156.11,253.304 2157.12,253.305 2158.12,253.306 2159.13,253.307 2160.14,253.308 2161.15,253.31 2162.16,253.311 2163.17,253.313 2164.18,253.315 2165.18,253.317 2166.19,253.319 2167.2,253.321 2168.21,253.323 2169.22,253.326 2170.23,253.328 2171.23,253.331 2172.24,253.334 2173.25,253.336 2174.26,253.338 2175.27,253.341 2176.28,253.343 2177.29,253.345 2178.29,253.347 2179.3,253.348 2180.31,253.35 2181.32,253.351 2182.33,253.353 2183.34,253.354 2184.34,253.356 2185.35,253.357 2186.36,253.358 2187.37,253.359 2188.38,253.36 2189.39,253.36 2190.4,253.361 2191.4,253.362 2192.41,253.362 2193.42,253.363 2194.43,253.363 2195.44,253.363 2196.45,253.363 2197.45,253.364 2198.46,253.364 2199.47,253.364 2200.48,253.364 2201.49,253.363 2202.5,253.363 2203.51,253.363 2204.51,253.363 2205.52,253.362 2206.53,253.362 2207.54,253.361 2208.55,253.361 2209.56,253.36 2210.56,253.36 2211.57,253.359 2212.58,253.358 2213.59,253.357 2214.6,253.357 2215.61,253.356 2216.61,253.355 2217.62,253.354 2218.63,253.352 2219.64,253.351 2220.65,253.35 2221.66,253.349 2222.67,253.349 2223.67,253.348 2224.68,253.348 2225.69,253.348 2226.7,253.348 2227.71,253.348 2228.72,253.348 2229.72,253.349 2230.73,253.349 2231.74,253.35 2232.75,253.351 2233.76,253.352 2234.77,253.353 2235.78,253.354 2236.78,253.356 2237.79,253.357 2238.8,253.359 2239.81,253.36 2240.82,253.362 2241.83,253.364 2242.83,253.366 2243.84,253.368 2244.85,253.37 2245.86,253.372 2246.87,253.374 2247.88,253.376 2248.89,253.378 2249.89,253.381 2250.9,253.383 2251.91,253.385 2252.92,253.388 2253.93,253.39 2254.94,253.393 2255.94,253.395 2256.95,253.398 2257.96,253.4 2258.97,253.403 2259.98,253.406 2260.99,253.408 2262,253.411 2263,253.413 2264.01,253.416 2265.02,253.418 2266.03,253.421 2267.04,253.423 2268.05,253.426 2269.05,253.428 2270.06,253.431 2271.07,253.433 2272.08,253.435 2273.09,253.438 2274.1,253.44 2275.11,253.441 2276.11,253.443 2277.12,253.445 2278.13,253.446 2279.14,253.447 2280.15,253.448 2281.16,253.449 2282.16,253.45 2283.17,253.45 2284.18,253.45 2285.19,253.45 2286.2,253.45 2287.21,253.45 2288.22,253.449 2289.22,253.448 2290.23,253.447 2291.24,253.445 2292.25,253.444 "/>
<polyline clip-path="url(#clip071)" style="stroke:#e26f46; stroke-linecap:round; stroke-linejoin:round; stroke-width:4; stroke-opacity:1; fill:none" points="275.346,87.9763 275.447,87.9763 275.547,87.9763 275.749,87.9763 276.153,87.9763 276.959,87.9763 277.968,87.9763 278.976,87.9763 279.985,87.9763 280.993,87.9763 282.002,87.9763 283.01,87.9763 284.018,87.9763 285.027,87.9763 286.035,87.9763 287.044,87.9763 288.052,87.9763 289.061,87.9763 290.069,87.9763 291.078,87.9763 292.086,87.9763 293.095,87.9763 294.103,87.9763 295.111,87.9763 296.12,87.9763 297.128,87.9763 298.137,87.9763 299.145,87.9763 300.154,87.9763 301.162,87.9763 302.171,87.9763 303.179,87.9763 304.187,87.9763 305.196,87.9763 306.204,87.9763 307.213,87.9763 308.221,87.9763 309.23,87.9763 310.238,87.9763 311.247,87.9763 312.255,87.9763 313.264,87.9763 314.272,87.9763 315.28,87.9763 316.289,87.9763 317.297,87.9763 318.306,87.9763 319.314,87.9763 320.323,87.9763 321.331,87.9763 322.34,87.9763 323.348,87.9763 324.356,87.9763 325.365,87.9763 326.373,87.9763 327.382,87.9763 328.39,87.9763 329.399,87.9763 330.407,87.9763 331.416,87.9763 332.424,87.9763 333.433,87.9763 334.441,87.9763 335.449,87.9763 336.458,87.9763 337.466,87.9763 338.475,87.9763 339.483,87.9763 340.492,87.9763 341.5,87.9763 342.509,87.9763 343.517,87.9763 344.526,87.9763 345.534,87.9763 346.542,87.9763 347.551,87.9763 348.559,87.9763 349.568,87.9763 350.576,87.9763 351.585,87.9763 352.593,87.9763 353.602,87.9763 354.61,87.9763 355.618,87.9763 356.627,87.9763 357.635,87.9763 358.644,87.9763 359.652,87.9763 360.661,87.9763 361.669,87.9763 362.678,87.9763 363.686,87.9763 364.695,87.9763 365.703,87.9763 366.711,87.9763 367.72,87.9763 368.728,87.9763 369.737,87.9763 370.745,87.9763 371.754,87.9763 372.762,87.9763 373.771,87.9763 374.779,87.9763 375.788,87.9763 376.191,87.9763 376.204,776.646 376.207,776.868 376.209,777.029 376.214,777.351 376.223,777.994 376.241,779.272 376.278,781.803 376.351,786.763 376.498,796.292 376.644,805.445 376.791,814.236 377.084,831.014 377.377,846.577 377.963,874.214 378.55,897.688 379.136,917.561 379.722,934.337 380.309,948.387 380.895,960.135 381.904,975.889 382.912,987.434 383.92,995.47 384.929,1000.66 385.937,1003.57 386.946,1004.57 387.954,1004.06 388.963,1002.34 389.971,999.631 390.98,996.109 391.988,991.902 392.996,987.105 394.005,981.8 395.013,976.059 396.022,969.951 397.03,963.535 398.039,956.859 399.047,949.967 400.056,942.902 401.064,935.703 402.073,928.396 403.081,921.013 404.089,913.595 405.098,906.16 406.106,898.703 407.115,891.281 408.123,883.975 409.132,876.691 410.14,869.336 411.149,862.242 412.157,855.462 413.166,848.502 414.174,841.484 415.182,835.122 416.191,829.01 417.199,822.433 418.208,816.123 419.216,810.389 420.225,804.673 421.233,798.931 422.242,793.534 423.25,788.504 424.258,783.346 425.267,778.225 426.275,773.808 427.284,769.606 428.292,764.807 429.301,760.418 430.309,757.067 431.318,753.404 432.326,748.932 433.335,745.714 434.343,742.925 435.351,739.212 436.36,736.075 437.368,734.267 438.377,731.74 439.385,728.748 440.394,726.792 441.402,725.115 442.411,722.144 443.419,719.729 444.428,718.832 445.436,717.555 446.444,715.603 447.453,714.277 448.461,713.415 449.47,712.239 450.478,710.901 451.487,710.361 452.495,709.65 453.504,708.409 454.512,708.088 455.52,708.489 456.529,707.405 457.537,706.57 458.546,706.786 459.554,706.645 460.563,706.004 461.571,705.788 462.58,706.054 463.588,705.531 464.597,705.097 465.605,705.378 466.613,704.939 467.622,703.569 468.63,703.73 469.639,703.696 470.647,702.52 471.656,701.615 472.664,701.165 473.673,700.18 474.681,698.863 475.69,697.808 476.698,696.5 477.706,694.385 478.715,692.474 479.723,691.206 480.732,688.612 481.74,685.829 482.749,683.588 483.757,680.881 484.766,677.513 485.774,674.184 486.782,671.014 487.791,667.028 488.799,662.816 489.808,658.92 490.816,654.364 491.825,648.878 492.833,644.28 493.842,639.39 494.85,633.524 495.859,627.685 496.867,622.037 497.875,615.894 498.884,609.166 499.892,602.807 500.901,596.223 501.909,588.909 502.918,581.864 503.926,575.328 504.935,567.517 505.943,559.639 506.952,552.387 507.96,544.773 508.968,536.659 509.977,528.756 510.985,521.172 511.994,512.978 513.002,504.803 514.011,497.174 515.019,489.114 516.028,480.419 517.036,472.914 518.044,465.411 519.053,457.245 520.061,449.446 521.07,442.183 522.078,434.777 523.087,427.151 524.095,420.276 525.104,413.549 526.112,406.476 527.121,400.074 528.129,394.577 529.137,388.184 530.146,382.119 531.154,377.081 532.163,372.062 533.171,366.92 534.18,362.364 535.188,358.255 536.197,354.162 537.205,350.44 538.214,347.489 539.222,344.589 540.23,341.401 541.239,339.326 542.247,337.551 543.256,335.542 544.264,334.005 545.273,333.067 546.281,332.219 547.29,331.36 548.298,331.17 549.306,331.216 550.315,331.098 551.323,331.49 552.332,332.57 553.34,333.034 554.349,333.701 555.357,335.039 556.366,336.321 557.374,337.415 558.383,338.792 559.391,340.499 560.399,341.846 561.408,343.239 562.416,345.022 563.425,346.474 564.433,347.415 565.442,349.095 566.45,350.648 567.459,351.575 568.467,352.57 569.475,353.72 570.484,354.517 571.492,354.882 572.501,355.469 573.509,355.829 574.518,355.592 575.526,355.451 576.535,355.549 577.543,354.602 578.552,353.458 579.56,352.591 580.568,351.279 581.577,349.415 582.585,347.492 583.594,345.57 584.602,342.979 585.611,340.158 586.619,337.473 587.628,334.217 588.636,330.243 589.645,326.845 590.653,323.169 591.661,318.739 592.67,314.29 593.678,309.94 594.687,305.202 595.695,300.195 596.704,295.245 597.712,290.116 598.721,284.542 599.729,279.055 600.737,273.909 601.746,268.125 602.754,262.3 603.763,256.825 604.771,251.214 605.78,245.389 606.788,239.725 607.797,234.305 608.805,228.655 609.814,223.092 610.822,217.91 611.83,212.634 612.839,207.143 613.847,202.371 614.856,197.736 615.864,192.907 616.873,188.402 617.881,184.315 618.89,180.307 619.898,176.343 620.907,172.911 621.915,169.712 622.923,166.498 623.932,163.773 624.94,161.658 625.949,159.251 626.957,157.158 627.966,155.725 628.974,154.444 629.983,153.239 630.991,152.46 631.999,152.148 633.008,151.823 634.016,151.788 635.025,152.292 636.033,152.825 637.042,153.269 638.05,154.523 639.059,155.966 640.067,157.243 641.076,158.854 642.084,160.858 643.092,162.889 644.101,164.888 645.109,167.318 646.118,169.85 647.126,172.212 648.135,174.893 649.143,177.984 650.152,180.553 651.16,183.197 652.169,186.244 653.177,189.162 654.185,191.859 655.194,194.672 656.202,197.632 657.211,200.238 658.219,202.791 659.228,205.533 660.236,207.941 661.245,209.892 662.253,212.294 663.261,214.516 664.27,216.201 665.278,217.856 666.287,219.547 667.295,220.909 668.304,222.008 669.312,223.059 670.321,223.88 671.329,224.263 672.338,224.572 673.346,224.973 674.354,224.754 675.363,224.328 676.371,223.96 677.38,223.291 678.388,222.255 679.397,221.111 680.405,219.907 681.414,218.297 682.422,216.501 683.431,214.722 684.439,212.617 685.447,210.097 686.456,207.754 687.464,205.269 688.473,202.527 689.481,199.682 690.49,196.77 691.498,193.71 692.507,190.505 693.515,187.3 694.523,184.071 695.532,180.65 696.54,177.172 697.549,173.871 698.557,170.504 699.566,166.897 700.574,163.421 701.583,160.127 702.591,156.732 703.6,153.274 704.608,150.131 705.616,147.114 706.625,143.845 707.633,140.795 708.642,137.942 709.65,135.101 710.659,132.371 711.667,129.852 712.676,127.461 713.684,125.137 714.693,123.028 715.701,121.175 716.709,119.356 717.718,117.606 718.726,116.254 719.735,115.017 720.743,113.872 721.752,112.971 722.76,112.282 723.769,111.719 724.777,111.332 725.785,111.184 726.794,111.186 727.802,111.285 728.811,111.631 729.819,112.239 730.828,112.871 731.836,113.58 732.845,114.648 733.853,115.868 734.862,117.088 735.87,118.476 736.878,120.071 737.887,121.742 738.895,123.451 739.904,125.365 740.912,127.447 741.921,129.439 742.929,131.563 743.938,133.917 744.946,136.127 745.955,138.398 746.963,140.789 747.971,143.195 748.98,145.594 749.988,148.036 750.997,150.516 752.005,152.94 753.014,155.326 754.022,157.78 755.031,160.212 756.039,162.474 757.047,164.764 758.056,167.074 759.064,169.256 760.073,171.345 761.081,173.413 762.09,175.407 763.098,177.262 764.107,179.058 765.115,180.836 766.124,182.443 767.132,183.864 768.14,185.318 769.149,186.657 770.157,187.826 771.166,188.905 772.174,189.902 773.183,190.76 774.191,191.493 775.2,192.141 776.208,192.675 777.217,193.053 778.225,193.341 779.233,193.581 780.242,193.663 781.25,193.573 782.259,193.48 783.267,193.31 784.276,192.973 785.284,192.551 786.293,192.086 787.301,191.525 788.309,190.842 789.318,190.134 790.326,189.407 791.335,188.531 792.343,187.56 793.352,186.68 794.36,185.691 795.369,184.618 796.377,183.569 797.386,182.502 798.394,181.374 799.402,180.236 800.411,179.132 801.419,177.994 802.428,176.808 803.436,175.699 804.445,174.66 805.453,173.522 806.462,172.442 807.47,171.438 808.479,170.439 809.487,169.465 810.495,168.566 811.504,167.72 812.512,166.9 813.521,166.153 814.529,165.509 815.538,164.895 816.546,164.302 817.555,163.852 818.563,163.522 819.571,163.164 820.58,162.883 821.588,162.756 822.597,162.695 823.605,162.677 824.614,162.765 825.622,162.977 826.631,163.222 827.639,163.513 828.648,163.979 829.656,164.551 830.664,165.061 831.673,165.737 832.681,166.548 833.69,167.302 834.698,168.2 835.707,169.287 836.715,170.253 837.724,171.166 838.732,172.469 839.741,173.892 840.749,174.969 841.757,176.253 842.766,177.69 843.774,179.044 844.783,180.422 845.791,181.928 846.8,183.446 847.808,184.889 848.817,186.425 849.825,188.027 850.833,189.55 851.842,191.058 852.85,192.695 853.859,194.219 854.867,195.711 855.876,197.261 856.884,198.776 857.893,200.218 858.901,201.65 859.91,203.094 860.918,204.446 861.926,205.709 862.935,207.025 863.943,208.27 864.952,209.375 865.96,210.528 866.969,211.65 867.977,212.627 868.986,213.541 869.994,214.442 871.003,215.261 872.011,215.96 873.019,216.642 874.028,217.313 875.036,217.814 876.045,218.253 877.053,218.714 878.062,219.012 879.07,219.209 880.079,219.418 881.087,219.563 882.095,219.594 883.104,219.574 884.112,219.542 885.121,219.405 886.129,219.152 887.138,218.936 888.146,218.667 889.155,218.264 890.163,217.895 891.172,217.515 892.18,217.027 893.188,216.498 894.197,215.982 895.205,215.429 896.214,214.808 897.222,214.207 898.231,213.644 899.239,212.99 900.248,212.328 901.256,211.739 902.265,211.083 903.273,210.406 904.281,209.798 905.29,209.209 906.298,208.601 907.307,208.021 908.315,207.506 909.324,206.985 910.332,206.451 911.341,206.018 912.349,205.669 913.357,205.246 914.366,204.905 915.374,204.65 916.383,204.406 917.391,204.199 918.4,204.074 919.408,204.001 920.417,203.963 921.425,203.986 922.434,204.083 923.442,204.217 924.45,204.387 925.459,204.647 926.467,204.982 927.476,205.314 928.484,205.692 929.493,206.192 930.501,206.73 931.51,207.273 932.518,207.884 933.527,208.562 934.535,209.265 935.543,209.99 936.552,210.788 937.56,211.638 938.569,212.462 939.577,213.316 940.586,214.282 941.594,215.222 942.603,216.138 943.611,217.116 944.619,218.126 945.628,219.111 946.636,220.102 947.645,221.119 948.653,222.129 949.662,223.113 950.67,224.11 951.679,225.122 952.687,226.079 953.696,226.994 954.704,227.958 955.712,228.908 956.721,229.751 957.729,230.578 958.738,231.427 959.746,232.221 960.755,232.951 961.763,233.666 962.772,234.364 963.78,234.978 964.788,235.532 965.797,236.109 966.805,236.642 967.814,237.028 968.822,237.45 969.831,237.837 970.839,238.116 971.848,238.359 972.856,238.593 973.865,238.762 974.873,238.848 975.881,238.933 976.89,239.009 977.898,238.963 978.907,238.894 979.915,238.856 980.924,238.695 981.932,238.477 982.941,238.294 983.949,238.078 984.958,237.791 985.966,237.49 986.974,237.207 987.983,236.86 988.991,236.448 990,236.1 991.008,235.732 992.017,235.279 993.025,234.894 994.034,234.531 995.042,234.102 996.05,233.67 997.059,233.283 998.067,232.892 999.076,232.47 1000.08,232.099 1001.09,231.79 1002.1,231.424 1003.11,231.079 1004.12,230.828 1005.13,230.535 1006.14,230.243 1007.14,230.038 1008.15,229.868 1009.16,229.694 1010.17,229.562 1011.18,229.502 1012.19,229.446 1013.19,229.383 1014.2,229.424 1015.21,229.504 1016.22,229.561 1017.23,229.714 1018.24,229.928 1019.24,230.131 1020.25,230.369 1021.26,230.676 1022.27,231.014 1023.28,231.356 1024.29,231.761 1025.3,232.239 1026.3,232.695 1027.31,233.144 1028.32,233.72 1029.33,234.292 1030.34,234.856 1031.35,235.476 1032.35,236.129 1033.36,236.778 1034.37,237.445 1035.38,238.145 1036.39,238.854 1037.4,239.559 1038.41,240.288 1039.41,241.042 1040.42,241.771 1041.43,242.486 1042.44,243.249 1043.45,244.015 1044.46,244.719 1045.46,245.426 1046.47,246.16 1047.48,246.866 1048.49,247.539 1049.5,248.212 1050.51,248.883 1051.52,249.505 1052.52,250.091 1053.53,250.702 1054.54,251.289 1055.55,251.777 1056.56,252.278 1057.57,252.786 1058.57,253.226 1059.58,253.62 1060.59,254.009 1061.6,254.365 1062.61,254.669 1063.62,254.943 1064.63,255.201 1065.63,255.407 1066.64,255.557 1067.65,255.706 1068.66,255.841 1069.67,255.885 1070.68,255.886 1071.68,255.923 1072.69,255.916 1073.7,255.833 1074.71,255.738 1075.72,255.637 1076.73,255.489 1077.74,255.295 1078.74,255.11 1079.75,254.917 1080.76,254.644 1081.77,254.35 1082.78,254.121 1083.79,253.806 1084.79,253.466 1085.8,253.163 1086.81,252.838 1087.82,252.473 1088.83,252.115 1089.84,251.781 1090.84,251.407 1091.85,251.002 1092.86,250.663 1093.87,250.31 1094.88,249.902 1095.89,249.57 1096.9,249.264 1097.9,248.908 1098.91,248.565 1099.92,248.268 1100.93,247.974 1101.94,247.66 1102.95,247.397 1103.95,247.192 1104.96,246.938 1105.97,246.709 1106.98,246.565 1107.99,246.378 1109,246.193 1110.01,246.086 1111.01,246.005 1112.02,245.915 1113.03,245.858 1114.04,245.861 1115.05,245.857 1116.06,245.839 1117.06,245.909 1118.07,246.003 1119.08,246.062 1120.09,246.201 1121.1,246.385 1122.11,246.544 1123.12,246.722 1124.12,246.952 1125.13,247.196 1126.14,247.429 1127.15,247.709 1128.16,248.043 1129.17,248.34 1130.17,248.651 1131.18,249.029 1132.19,249.374 1133.2,249.711 1134.21,250.101 1135.22,250.505 1136.23,250.89 1137.23,251.288 1138.24,251.719 1139.25,252.13 1140.26,252.512 1141.27,252.942 1142.28,253.403 1143.28,253.793 1144.29,254.177 1145.3,254.605 1146.31,255.018 1147.32,255.396 1148.33,255.781 1149.34,256.184 1150.34,256.541 1151.35,256.862 1152.36,257.231 1153.37,257.57 1154.38,257.839 1155.39,258.161 1156.39,258.483 1157.4,258.733 1158.41,258.968 1159.42,259.217 1160.43,259.437 1161.44,259.605 1162.44,259.788 1163.45,259.988 1164.46,260.104 1165.47,260.207 1166.48,260.351 1167.49,260.412 1168.5,260.435 1169.5,260.491 1170.51,260.53 1171.52,260.519 1172.53,260.498 1173.54,260.492 1174.55,260.439 1175.55,260.332 1176.56,260.27 1177.57,260.19 1178.58,260.04 1179.59,259.93 1180.6,259.828 1181.61,259.667 1182.61,259.492 1183.62,259.336 1184.63,259.164 1185.64,258.955 1186.65,258.764 1187.66,258.603 1188.66,258.383 1189.67,258.159 1190.68,257.957 1191.69,257.747 1192.7,257.523 1193.71,257.309 1194.72,257.101 1195.72,256.889 1196.73,256.674 1197.74,256.475 1198.75,256.282 1199.76,256.077 1200.77,255.881 1201.77,255.719 1202.78,255.545 1203.79,255.366 1204.8,255.213 1205.81,255.074 1206.82,254.934 1207.83,254.804 1208.83,254.698 1209.84,254.595 1210.85,254.489 1211.86,254.413 1212.87,254.365 1213.88,254.297 1214.88,254.23 1215.89,254.218 1216.9,254.215 1217.91,254.195 1218.92,254.197 1219.93,254.226 1220.94,254.256 1221.94,254.283 1222.95,254.343 1223.96,254.426 1224.97,254.483 1225.98,254.544 1226.99,254.671 1227.99,254.779 1229,254.865 1230.01,254.986 1231.02,255.126 1232.03,255.253 1233.04,255.383 1234.05,255.533 1235.05,255.685 1236.06,255.826 1237.07,255.983 1238.08,256.159 1239.09,256.313 1240.1,256.451 1241.1,256.631 1242.11,256.821 1243.12,256.957 1244.13,257.1 1245.14,257.275 1246.15,257.435 1247.15,257.574 1248.16,257.722 1249.17,257.882 1250.18,258.011 1251.19,258.123 1252.2,258.272 1253.21,258.418 1254.21,258.492 1255.22,258.595 1256.23,258.726 1257.24,258.815 1258.25,258.883 1259.26,258.968 1260.26,259.047 1261.27,259.101 1262.28,259.15 1263.29,259.208 1264.3,259.243 1265.31,259.25 1266.32,259.279 1267.32,259.319 1268.33,259.3 1269.34,259.264 1270.35,259.283 1271.36,259.284 1272.37,259.238 1273.37,259.201 1274.38,259.178 1275.39,259.133 1276.4,259.064 1277.41,259.02 1278.42,258.986 1279.43,258.896 1280.43,258.799 1281.44,258.758 1282.45,258.7 1283.46,258.602 1284.47,258.52 1285.48,258.454 1286.48,258.369 1287.49,258.269 1288.5,258.198 1289.51,258.138 1290.52,258.03 1291.53,257.925 1292.54,257.875 1293.54,257.81 1294.55,257.716 1295.56,257.642 1296.57,257.586 1297.58,257.517 1298.59,257.439 1299.59,257.392 1300.6,257.357 1301.61,257.283 1302.62,257.218 1303.63,257.22 1304.64,257.185 1305.65,257.124 1306.65,257.105 1307.66,257.102 1308.67,257.078 1309.68,257.06 1310.69,257.064 1311.7,257.068 1312.7,257.061 1313.71,257.075 1314.72,257.112 1315.73,257.122 1316.74,257.121 1317.75,257.176 1318.75,257.24 1319.76,257.247 1320.77,257.272 1321.78,257.338 1322.79,257.389 1323.8,257.425 1324.81,257.481 1325.81,257.555 1326.82,257.601 1327.83,257.636 1328.84,257.715 1329.85,257.791 1330.86,257.839 1331.86,257.897 1332.87,257.969 1333.88,258.031 1334.89,258.077 1335.9,258.144 1336.91,258.221 1337.92,258.265 1338.92,258.307 1339.93,258.368 1340.94,258.421 1341.95,258.459 1342.96,258.501 1343.97,258.551 1344.97,258.582 1345.98,258.599 1346.99,258.638 1348,258.68 1349.01,258.675 1350.02,258.684 1351.03,258.712 1352.03,258.718 1353.04,258.708 1354.05,258.708 1355.06,258.705 1356.07,258.688 1357.08,258.668 1358.08,258.653 1359.09,258.626 1360.1,258.582 1361.11,258.55 1362.12,258.527 1363.13,258.471 1364.14,258.402 1365.14,258.367 1366.15,258.325 1367.16,258.254 1368.17,258.189 1369.18,258.133 1370.19,258.065 1371.19,257.983 1372.2,257.918 1373.21,257.861 1374.22,257.77 1375.23,257.674 1376.24,257.615 1377.25,257.547 1378.25,257.455 1379.26,257.373 1380.27,257.302 1381.28,257.222 1382.29,257.132 1383.3,257.061 1384.3,256.999 1385.31,256.907 1386.32,256.817 1387.33,256.763 1388.34,256.701 1389.35,256.621 1390.36,256.554 1391.36,256.5 1392.37,256.438 1393.38,256.37 1394.39,256.323 1395.4,256.285 1396.41,256.222 1397.41,256.164 1398.42,256.151 1399.43,256.114 1400.44,256.061 1401.45,256.035 1402.46,256.019 1403.46,255.991 1404.47,255.967 1405.48,255.957 1406.49,255.947 1407.5,255.93 1408.51,255.928 1409.52,255.94 1410.52,255.936 1411.53,255.924 1412.54,255.949 1413.55,255.98 1414.56,255.975 1415.57,255.98 1416.57,256.014 1417.58,256.038 1418.59,256.053 1419.6,256.08 1420.61,256.12 1421.62,256.142 1422.63,256.157 1423.63,256.202 1424.64,256.245 1425.65,256.27 1426.66,256.302 1427.67,256.344 1428.68,256.38 1429.68,256.406 1430.69,256.446 1431.7,256.493 1432.71,256.52 1433.72,256.545 1434.73,256.584 1435.74,256.618 1436.74,256.643 1437.75,256.671 1438.76,256.705 1439.77,256.727 1440.78,256.74 1441.79,256.769 1442.79,256.799 1443.8,256.8 1444.81,256.81 1445.82,256.833 1446.83,256.842 1447.84,256.841 1448.85,256.847 1449.85,256.851 1450.86,256.847 1451.87,256.84 1452.88,256.837 1453.89,256.826 1454.9,256.804 1455.9,256.789 1456.91,256.781 1457.92,256.751 1458.93,256.712 1459.94,256.695 1460.95,256.672 1461.96,256.631 1462.96,256.593 1463.97,256.561 1464.98,256.52 1465.99,256.469 1467,256.428 1468.01,256.391 1469.01,256.335 1470.02,256.277 1471.03,256.23 1472.04,256.178 1473.05,256.118 1474.06,256.06 1475.06,256.008 1476.07,255.946 1477.08,255.877 1478.09,255.823 1479.1,255.772 1480.11,255.701 1481.12,255.633 1482.12,255.577 1483.13,255.516 1484.14,255.45 1485.15,255.388 1486.16,255.332 1487.17,255.268 1488.17,255.2 1489.18,255.148 1490.19,255.099 1491.2,255.027 1492.21,254.969 1493.22,254.925 1494.23,254.87 1495.23,254.811 1496.24,254.764 1497.25,254.718 1498.26,254.668 1499.27,254.622 1500.28,254.583 1501.28,254.541 1502.29,254.494 1503.3,254.46 1504.31,254.435 1505.32,254.393 1506.33,254.35 1507.34,254.332 1508.34,254.313 1509.35,254.281 1510.36,254.257 1511.37,254.242 1512.38,254.224 1513.39,254.201 1514.39,254.192 1515.4,254.19 1516.41,254.174 1517.42,254.161 1518.43,254.16 1519.44,254.159 1520.45,254.153 1521.45,254.154 1522.46,254.161 1523.47,254.162 1524.48,254.16 1525.49,254.174 1526.5,254.191 1527.5,254.193 1528.51,254.199 1529.52,254.217 1530.53,254.232 1531.54,254.243 1532.55,254.259 1533.56,254.28 1534.56,254.295 1535.57,254.306 1536.58,254.332 1537.59,254.358 1538.6,254.365 1539.61,254.384 1540.61,254.414 1541.62,254.433 1542.63,254.448 1543.64,254.471 1544.65,254.494 1545.66,254.512 1546.67,254.531 1547.67,254.555 1548.68,254.574 1549.69,254.586 1550.7,254.607 1551.71,254.633 1552.72,254.643 1553.72,254.649 1554.73,254.674 1555.74,254.694 1556.75,254.701 1557.76,254.713 1558.77,254.729 1559.77,254.739 1560.78,254.742 1561.79,254.754 1562.8,254.77 1563.81,254.77 1564.82,254.77 1565.83,254.777 1566.83,254.781 1567.84,254.779 1568.85,254.778 1569.86,254.781 1570.87,254.776 1571.88,254.766 1572.88,254.765 1573.89,254.766 1574.9,254.751 1575.91,254.737 1576.92,254.731 1577.93,254.72 1578.94,254.704 1579.94,254.69 1580.95,254.678 1581.96,254.659 1582.97,254.635 1583.98,254.622 1584.99,254.609 1585.99,254.576 1587,254.553 1588.01,254.538 1589.02,254.513 1590.03,254.484 1591.04,254.46 1592.05,254.436 1593.05,254.406 1594.06,254.377 1595.07,254.352 1596.08,254.322 1597.09,254.287 1598.1,254.259 1599.1,254.235 1600.11,254.199 1601.12,254.163 1602.13,254.134 1603.14,254.104 1604.15,254.068 1605.16,254.035 1606.16,254.006 1607.17,253.971 1608.18,253.932 1609.19,253.902 1610.2,253.873 1611.21,253.837 1612.21,253.803 1613.22,253.773 1614.23,253.74 1615.24,253.705 1616.25,253.674 1617.26,253.648 1618.27,253.613 1619.27,253.577 1620.28,253.551 1621.29,253.525 1622.3,253.493 1623.31,253.463 1624.32,253.438 1625.32,253.411 1626.33,253.381 1627.34,253.357 1628.35,253.336 1629.36,253.308 1630.37,253.279 1631.37,253.265 1632.38,253.244 1633.39,253.217 1634.4,253.198 1635.41,253.182 1636.42,253.163 1637.43,253.144 1638.43,253.129 1639.44,253.115 1640.45,253.098 1641.46,253.085 1642.47,253.076 1643.48,253.063 1644.48,253.048 1645.49,253.043 1646.5,253.041 1647.51,253.027 1648.52,253.017 1649.53,253.016 1650.54,253.012 1651.54,253.005 1652.55,253.003 1653.56,253.005 1654.57,253.001 1655.58,252.996 1656.59,253 1657.59,253.005 1658.6,253.005 1659.61,253.007 1660.62,253.013 1661.63,253.017 1662.64,253.019 1663.65,253.026 1664.65,253.037 1665.66,253.041 1666.67,253.046 1667.68,253.056 1668.69,253.065 1669.7,253.072 1670.7,253.081 1671.71,253.092 1672.72,253.101 1673.73,253.107 1674.74,253.12 1675.75,253.133 1676.76,253.139 1677.76,253.148 1678.77,253.161 1679.78,253.171 1680.79,253.179 1681.8,253.19 1682.81,253.201 1683.81,253.21 1684.82,253.218 1685.83,253.229 1686.84,253.238 1687.85,253.243 1688.86,253.252 1689.87,253.263 1690.87,253.268 1691.88,253.27 1692.89,253.28 1693.9,253.288 1694.91,253.29 1695.92,253.294 1696.92,253.3 1697.93,253.303 1698.94,253.303 1699.95,253.307 1700.96,253.311 1701.97,253.31 1702.98,253.308 1703.98,253.309 1704.99,253.309 1706,253.305 1707.01,253.303 1708.02,253.302 1709.03,253.297 1710.03,253.29 1711.04,253.287 1712.05,253.285 1713.06,253.275 1714.07,253.267 1715.08,253.263 1716.08,253.255 1717.09,253.245 1718.1,253.237 1719.11,253.229 1720.12,253.219 1721.13,253.209 1722.14,253.2 1723.14,253.19 1724.15,253.177 1725.16,253.166 1726.17,253.158 1727.18,253.145 1728.19,253.13 1729.19,253.121 1730.2,253.112 1731.21,253.098 1732.22,253.086 1733.23,253.076 1734.24,253.064 1735.25,253.05 1736.25,253.04 1737.26,253.032 1738.27,253.018 1739.28,253.004 1740.29,252.996 1741.3,252.988 1742.3,252.975 1743.31,252.965 1744.32,252.957 1745.33,252.948 1746.34,252.937 1747.35,252.93 1748.36,252.924 1749.36,252.914 1750.37,252.905 1751.38,252.899 1752.39,252.893 1753.4,252.886 1754.41,252.88 1755.41,252.875 1756.42,252.869 1757.43,252.863 1758.44,252.86 1759.45,252.858 1760.46,252.851 1761.47,252.847 1762.47,252.846 1763.48,252.843 1764.49,252.839 1765.5,252.838 1766.51,252.837 1767.52,252.834 1768.52,252.832 1769.53,252.832 1770.54,252.831 1771.55,252.828 1772.56,252.828 1773.57,252.83 1774.58,252.828 1775.58,252.824 1776.59,252.827 1777.6,252.828 1778.61,252.826 1779.62,252.825 1780.63,252.827 1781.63,252.826 1782.64,252.824 1783.65,252.825 1784.66,252.827 1785.67,252.825 1786.68,252.821 1787.68,252.824 1788.69,252.825 1789.7,252.822 1790.71,252.821 1791.72,252.822 1792.73,252.821 1793.74,252.818 1794.74,252.818 1795.75,252.819 1796.76,252.815 1797.77,252.811 1798.78,252.813 1799.79,252.812 1800.79,252.809 1801.8,252.807 1802.81,252.807 1803.82,252.805 1804.83,252.802 1805.84,252.801 1806.85,252.802 1807.85,252.798 1808.86,252.794 1809.87,252.797 1810.88,252.796 1811.89,252.792 1812.9,252.791 1813.9,252.792 1814.91,252.791 1815.92,252.789 1816.93,252.79 1817.94,252.79 1818.95,252.789 1819.96,252.79 1820.96,252.793 1821.97,252.793 1822.98,252.792 1823.99,252.796 1825,252.801 1826.01,252.8 1827.01,252.801 1828.02,252.806 1829.03,252.81 1830.04,252.813 1831.05,252.817 1832.06,252.824 1833.07,252.828 1834.07,252.831 1835.08,252.839 1836.09,252.848 1837.1,252.851 1838.11,252.857 1839.12,252.866 1840.12,252.874 1841.13,252.88 1842.14,252.888 1843.15,252.898 1844.16,252.906 1845.17,252.913 1846.18,252.924 1847.18,252.935 1848.19,252.941 1849.2,252.95 1850.21,252.963 1851.22,252.972 1852.23,252.98 1853.23,252.99 1854.24,253.001 1855.25,253.01 1856.26,253.019 1857.27,253.03 1858.28,253.038 1859.29,253.045 1860.29,253.055 1861.3,253.066 1862.31,253.072 1863.32,253.077 1864.33,253.088 1865.34,253.097 1866.34,253.102 1867.35,253.108 1868.36,253.115 1869.37,253.12 1870.38,253.123 1871.39,253.129 1872.39,253.135 1873.4,253.137 1874.41,253.138 1875.42,253.142 1876.43,253.144 1877.44,253.143 1878.45,253.144 1879.45,253.145 1880.46,253.143 1881.47,253.14 1882.48,253.139 1883.49,253.137 1884.5,253.133 1885.5,253.129 1886.51,253.125 1887.52,253.12 1888.53,253.114 1889.54,253.108 1890.55,253.103 1891.56,253.095 1892.56,253.085 1893.57,253.08 1894.58,253.072 1895.59,253.061 1896.6,253.052 1897.61,253.044 1898.61,253.034 1899.62,253.024 1900.63,253.014 1901.64,253.004 1902.65,252.993 1903.66,252.983 1904.67,252.974 1905.67,252.963 1906.68,252.951 1907.69,252.942 1908.7,252.934 1909.71,252.923 1910.72,252.912 1911.72,252.903 1912.73,252.895 1913.74,252.885 1914.75,252.877 1915.76,252.87 1916.77,252.862 1917.78,252.853 1918.78,252.848 1919.79,252.843 1920.8,252.836 1921.81,252.83 1922.82,252.827 1923.83,252.823 1924.83,252.819 1925.84,252.817 1926.85,252.817 1927.86,252.815 1928.87,252.813 1929.88,252.814 1930.89,252.816 1931.89,252.817 1932.9,252.819 1933.91,252.823 1934.92,252.827 1935.93,252.831 1936.94,252.836 1937.94,252.843 1938.95,252.849 1939.96,252.854 1940.97,252.863 1941.98,252.872 1942.99,252.88 1943.99,252.889 1945,252.9 1946.01,252.91 1947.02,252.92 1948.03,252.932 1949.04,252.944 1950.05,252.955 1951.05,252.966 1952.06,252.981 1953.07,252.993 1954.08,253.005 1955.09,253.018 1956.1,253.032 1957.1,253.044 1958.11,253.057 1959.12,253.07 1960.13,253.083 1961.14,253.096 1962.15,253.109 1963.16,253.122 1964.16,253.134 1965.17,253.145 1966.18,253.158 1967.19,253.171 1968.2,253.18 1969.21,253.19 1970.21,253.201 1971.22,253.211 1972.23,253.22 1973.24,253.229 1974.25,253.238 1975.26,253.245 1976.27,253.251 1977.27,253.259 1978.28,253.266 1979.29,253.271 1980.3,253.275 1981.31,253.28 1982.32,253.284 1983.32,253.286 1984.33,253.289 1985.34,253.292 1986.35,253.292 1987.36,253.291 1988.37,253.293 1989.38,253.293 1990.38,253.29 1991.39,253.289 1992.4,253.287 1993.41,253.284 1994.42,253.28 1995.43,253.277 1996.43,253.273 1997.44,253.267 1998.45,253.262 1999.46,253.258 2000.47,253.252 2001.48,253.245 2002.49,253.239 2003.49,253.234 2004.5,253.226 2005.51,253.218 2006.52,253.212 2007.53,253.205 2008.54,253.197 2009.54,253.189 2010.55,253.183 2011.56,253.175 2012.57,253.166 2013.58,253.16 2014.59,253.154 2015.59,253.146 2016.6,253.139 2017.61,253.133 2018.62,253.127 2019.63,253.12 2020.64,253.114 2021.65,253.11 2022.65,253.104 2023.66,253.099 2024.67,253.095 2025.68,253.091 2026.69,253.087 2027.7,253.084 2028.7,253.082 2029.71,253.079 2030.72,253.077 2031.73,253.076 2032.74,253.076 2033.75,253.074 2034.76,253.073 2035.76,253.077 2036.77,253.078 2037.78,253.077 2038.79,253.078 2039.8,253.082 2040.81,253.085 2041.81,253.087 2042.82,253.091 2043.83,253.096 2044.84,253.099 2045.85,253.104 2046.86,253.11 2047.87,253.115 2048.87,253.12 2049.88,253.127 2050.89,253.135 2051.9,253.14 2052.91,253.146 2053.92,253.154 2054.92,253.161 2055.93,253.168 2056.94,253.176 2057.95,253.184 2058.96,253.191 2059.97,253.198 2060.98,253.207 2061.98,253.216 2062.99,253.222 2064,253.229 2065.01,253.238 2066.02,253.245 2067.03,253.252 2068.03,253.259 2069.04,253.267 2070.05,253.274 2071.06,253.279 2072.07,253.287 2073.08,253.294 2074.09,253.299 2075.09,253.305 2076.1,253.311 2077.11,253.316 2078.12,253.321 2079.13,253.326 2080.14,253.331 2081.14,253.334 2082.15,253.337 2083.16,253.342 2084.17,253.345 2085.18,253.348 2086.19,253.35 2087.2,253.353 2088.2,253.355 2089.21,253.356 2090.22,253.357 2091.23,253.359 2092.24,253.359 2093.25,253.359 2094.25,253.36 2095.26,253.36 2096.27,253.359 2097.28,253.359 2098.29,253.359 2099.3,253.357 2100.3,253.356 2101.31,253.355 2102.32,253.354 2103.33,253.351 2104.34,253.35 2105.35,253.349 2106.36,253.347 2107.36,253.344 2108.37,253.342 2109.38,253.342 2110.39,253.338 2111.4,253.336 2112.41,253.334 2113.41,253.332 2114.42,253.33 2115.43,253.328 2116.44,253.327 2117.45,253.324 2118.46,253.322 2119.47,253.321 2120.47,253.32 2121.48,253.318 2122.49,253.316 2123.5,253.315 2124.51,253.314 2125.52,253.313 2126.52,253.312 2127.53,253.312 2128.54,253.311 2129.55,253.31 2130.56,253.311 2131.57,253.312 2132.58,253.311 2133.58,253.311 2134.59,253.312 2135.6,253.313 2136.61,253.313 2137.62,253.314 2138.63,253.316 2139.63,253.316 2140.64,253.317 2141.65,253.319 2142.66,253.321 2143.67,253.322 2144.68,253.323 2145.69,253.326 2146.69,253.328 2147.7,253.329 2148.71,253.331 2149.72,253.333 2150.73,253.335 2151.74,253.337 2152.74,253.339 2153.75,253.341 2154.76,253.342 2155.77,253.344 2156.78,253.347 2157.79,253.348 2158.8,253.349 2159.8,253.351 2160.81,253.353 2161.82,253.354 2162.83,253.355 2163.84,253.357 2164.85,253.358 2165.85,253.358 2166.86,253.36 2167.87,253.361 2168.88,253.361 2169.89,253.361 2170.9,253.362 2171.9,253.362 2172.91,253.362 2173.92,253.361 2174.93,253.362 2175.94,253.361 2176.95,253.36 2177.96,253.36 2178.96,253.36 2179.97,253.358 2180.98,253.356 2181.99,253.356 2183,253.355 2184.01,253.353 2185.01,253.351 2186.02,253.35 2187.03,253.348 2188.04,253.346 2189.05,253.345 2190.06,253.344 2191.07,253.341 2192.07,253.339 2193.08,253.338 2194.09,253.336 2195.1,253.334 2196.11,253.332 2197.12,253.331 2198.12,253.329 2199.13,253.327 2200.14,253.326 2201.15,253.324 2202.16,253.322 2203.17,253.321 2204.18,253.321 2205.18,253.32 2206.19,253.318 2207.2,253.318 2208.21,253.318 2209.22,253.317 2210.23,253.317 2211.23,253.317 2212.24,253.317 2213.25,253.317 2214.26,253.317 2215.27,253.319 2216.28,253.319 2217.29,253.32 2218.29,253.322 2219.3,253.323 2220.31,253.324 2221.32,253.326 2222.33,253.329 2223.34,253.331 2224.34,253.333 2225.35,253.336 2226.36,253.339 2227.37,253.341 2228.38,253.344 2229.39,253.348 2230.4,253.351 2231.4,253.354 2232.41,253.358 2233.42,253.362 2234.43,253.366 2235.44,253.369 2236.45,253.374 2237.45,253.378 2238.46,253.381 2239.47,253.385 2240.48,253.39 2241.49,253.394 2242.5,253.398 2243.51,253.402 2244.51,253.406 2245.52,253.41 2246.53,253.414 2247.54,253.418 2248.55,253.421 2249.56,253.424 2250.56,253.428 2251.57,253.432 2252.58,253.435 2253.59,253.438 2254.6,253.441 2255.61,253.444 2256.61,253.446 2257.62,253.449 2258.63,253.451 2259.64,253.453 2260.65,253.454 2261.66,253.456 2262.67,253.457 2263.67,253.458 2264.68,253.459 2265.69,253.46 2266.7,253.46 2267.71,253.46 2268.72,253.46 2269.72,253.46 2270.73,253.459 2271.74,253.458 2272.75,253.457 2273.76,253.456 2274.77,253.454 2275.78,253.453 2276.78,253.451 2277.79,253.449 2278.8,253.446 2279.81,253.444 2280.82,253.442 2281.83,253.438 2282.83,253.435 2283.84,253.432 2284.85,253.429 2285.86,253.425 2286.87,253.422 2287.88,253.418 2288.89,253.414 2289.89,253.41 2290.9,253.407 2291.91,253.403 2292.25,253.402 "/>
<path clip-path="url(#clip070)" d="M1876.41 1438.47 L2281.49 1438.47 L2281.49 1282.95 L1876.41 1282.95  Z" fill="#ffffff" fill-rule="evenodd" fill-opacity="1"/>
<polyline clip-path="url(#clip070)" style="stroke:#000000; stroke-linecap:round; stroke-linejoin:round; stroke-width:4; stroke-opacity:1; fill:none" points="1876.41,1438.47 2281.49,1438.47 2281.49,1282.95 1876.41,1282.95 1876.41,1438.47 "/>
<polyline clip-path="url(#clip070)" style="stroke:#009af9; stroke-linecap:round; stroke-linejoin:round; stroke-width:4; stroke-opacity:1; fill:none" points="1900.16,1334.79 2042.69,1334.79 "/>
<path clip-path="url(#clip070)" d="M2082.83 1335.87 Q2084.34 1336.38 2085.75 1338.05 Q2087.18 1339.71 2088.62 1342.63 L2093.36 1352.07 L2088.34 1352.07 L2083.92 1343.21 Q2082.21 1339.74 2080.59 1338.6 Q2078.99 1337.47 2076.21 1337.47 L2071.12 1337.47 L2071.12 1352.07 L2066.44 1352.07 L2066.44 1317.51 L2077 1317.51 Q2082.92 1317.51 2085.84 1319.99 Q2088.76 1322.47 2088.76 1327.47 Q2088.76 1330.73 2087.23 1332.88 Q2085.72 1335.04 2082.83 1335.87 M2071.12 1321.36 L2071.12 1333.63 L2077 1333.63 Q2080.38 1333.63 2082.09 1332.07 Q2083.83 1330.5 2083.83 1327.47 Q2083.83 1324.44 2082.09 1322.91 Q2080.38 1321.36 2077 1321.36 L2071.12 1321.36 Z" fill="#000000" fill-rule="nonzero" fill-opacity="1" /><path clip-path="url(#clip070)" d="M2113.41 1320.69 Q2108.32 1320.69 2105.31 1324.48 Q2102.32 1328.28 2102.32 1334.83 Q2102.32 1341.36 2105.31 1345.15 Q2108.32 1348.95 2113.41 1348.95 Q2118.5 1348.95 2121.46 1345.15 Q2124.45 1341.36 2124.45 1334.83 Q2124.45 1328.28 2121.46 1324.48 Q2118.5 1320.69 2113.41 1320.69 M2113.41 1316.89 Q2120.68 1316.89 2125.03 1321.77 Q2129.38 1326.63 2129.38 1334.83 Q2129.38 1343 2125.03 1347.88 Q2120.68 1352.75 2113.41 1352.75 Q2106.12 1352.75 2101.74 1347.88 Q2097.39 1343.02 2097.39 1334.83 Q2097.39 1326.63 2101.74 1321.77 Q2106.12 1316.89 2113.41 1316.89 Z" fill="#000000" fill-rule="nonzero" fill-opacity="1" /><path clip-path="url(#clip070)" d="M2141.37 1321.36 L2141.37 1348.23 L2147.02 1348.23 Q2154.17 1348.23 2157.48 1344.99 Q2160.82 1341.75 2160.82 1334.76 Q2160.82 1327.82 2157.48 1324.6 Q2154.17 1321.36 2147.02 1321.36 L2141.37 1321.36 M2136.7 1317.51 L2146.3 1317.51 Q2156.35 1317.51 2161.05 1321.7 Q2165.75 1325.87 2165.75 1334.76 Q2165.75 1343.69 2161.02 1347.88 Q2156.3 1352.07 2146.3 1352.07 L2136.7 1352.07 L2136.7 1317.51 Z" fill="#000000" fill-rule="nonzero" fill-opacity="1" /><path clip-path="url(#clip070)" d="M2183.92 1322.12 L2177.58 1339.32 L2190.28 1339.32 L2183.92 1322.12 M2181.28 1317.51 L2186.58 1317.51 L2199.75 1352.07 L2194.89 1352.07 L2191.74 1343.21 L2176.16 1343.21 L2173.02 1352.07 L2168.09 1352.07 L2181.28 1317.51 Z" fill="#000000" fill-rule="nonzero" fill-opacity="1" /><path clip-path="url(#clip070)" d="M2225.52 1318.65 L2225.52 1323.21 Q2222.85 1321.94 2220.49 1321.31 Q2218.13 1320.69 2215.93 1320.69 Q2212.11 1320.69 2210.03 1322.17 Q2207.97 1323.65 2207.97 1326.38 Q2207.97 1328.67 2209.33 1329.85 Q2210.72 1331.01 2214.57 1331.73 L2217.39 1332.31 Q2222.62 1333.3 2225.1 1335.82 Q2227.6 1338.32 2227.6 1342.54 Q2227.6 1347.56 2224.22 1350.15 Q2220.86 1352.75 2214.36 1352.75 Q2211.9 1352.75 2209.13 1352.19 Q2206.37 1351.63 2203.41 1350.55 L2203.41 1345.73 Q2206.26 1347.33 2208.99 1348.14 Q2211.72 1348.95 2214.36 1348.95 Q2218.36 1348.95 2220.54 1347.38 Q2222.71 1345.8 2222.71 1342.88 Q2222.71 1340.34 2221.14 1338.9 Q2219.59 1337.47 2216.02 1336.75 L2213.18 1336.19 Q2207.95 1335.15 2205.61 1332.93 Q2203.27 1330.71 2203.27 1326.75 Q2203.27 1322.17 2206.49 1319.53 Q2209.73 1316.89 2215.4 1316.89 Q2217.83 1316.89 2220.35 1317.33 Q2222.88 1317.77 2225.52 1318.65 Z" fill="#000000" fill-rule="nonzero" fill-opacity="1" /><path clip-path="url(#clip070)" d="M2248.15 1321.59 L2236.35 1340.04 L2248.15 1340.04 L2248.15 1321.59 M2246.93 1317.51 L2252.81 1317.51 L2252.81 1340.04 L2257.74 1340.04 L2257.74 1343.93 L2252.81 1343.93 L2252.81 1352.07 L2248.15 1352.07 L2248.15 1343.93 L2232.55 1343.93 L2232.55 1339.41 L2246.93 1317.51 Z" fill="#000000" fill-rule="nonzero" fill-opacity="1" /><polyline clip-path="url(#clip070)" style="stroke:#e26f46; stroke-linecap:round; stroke-linejoin:round; stroke-width:4; stroke-opacity:1; fill:none" points="1900.16,1386.63 2042.69,1386.63 "/>
<path clip-path="url(#clip070)" d="M2066.44 1369.35 L2071.12 1369.35 L2071.12 1403.91 L2066.44 1403.91 L2066.44 1369.35 Z" fill="#000000" fill-rule="nonzero" fill-opacity="1" /><path clip-path="url(#clip070)" d="M2085.1 1373.2 L2085.1 1400.07 L2090.75 1400.07 Q2097.9 1400.07 2101.21 1396.83 Q2104.54 1393.59 2104.54 1386.6 Q2104.54 1379.66 2101.21 1376.44 Q2097.9 1373.2 2090.75 1373.2 L2085.1 1373.2 M2080.42 1369.35 L2090.03 1369.35 Q2100.08 1369.35 2104.78 1373.54 Q2109.47 1377.71 2109.47 1386.6 Q2109.47 1395.53 2104.75 1399.72 Q2100.03 1403.91 2090.03 1403.91 L2080.42 1403.91 L2080.42 1369.35 Z" fill="#000000" fill-rule="nonzero" fill-opacity="1" /><path clip-path="url(#clip070)" d="M2127.65 1373.96 L2121.3 1391.16 L2134.01 1391.16 L2127.65 1373.96 M2125.01 1369.35 L2130.31 1369.35 L2143.48 1403.91 L2138.62 1403.91 L2135.47 1395.05 L2119.89 1395.05 L2116.74 1403.91 L2111.81 1403.91 L2125.01 1369.35 Z" fill="#000000" fill-rule="nonzero" fill-opacity="1" /></svg>
