<?xml version="1.0" encoding="utf-8"?>
<svg xmlns="http://www.w3.org/2000/svg" xmlns:xlink="http://www.w3.org/1999/xlink" width="600" height="400" viewBox="0 0 2400 1600">
<defs>
  <clipPath id="clip980">
    <rect x="0" y="0" width="2400" height="1600"/>
  </clipPath>
</defs>
<path clip-path="url(#clip980)" d="M0 1600 L2400 1600 L2400 0 L0 0  Z" fill="#ffffff" fill-rule="evenodd" fill-opacity="1"/>
<defs>
  <clipPath id="clip981">
    <rect x="278" y="47" width="2076" height="1377"/>
  </clipPath>
</defs>
<path clip-path="url(#clip980)" d="M278.107 1423.18 L2352.76 1423.18 L2352.76 47.2441 L278.107 47.2441  Z" fill="#ffffff" fill-rule="evenodd" fill-opacity="1"/>
<polyline clip-path="url(#clip981)" style="stroke:#000000; stroke-linecap:round; stroke-linejoin:round; stroke-width:2; stroke-opacity:0.1; fill:none" points="336.823,1423.18 336.823,47.2441 "/>
<polyline clip-path="url(#clip981)" style="stroke:#000000; stroke-linecap:round; stroke-linejoin:round; stroke-width:2; stroke-opacity:0.1; fill:none" points="989.229,1423.18 989.229,47.2441 "/>
<polyline clip-path="url(#clip981)" style="stroke:#000000; stroke-linecap:round; stroke-linejoin:round; stroke-width:2; stroke-opacity:0.1; fill:none" points="1641.63,1423.18 1641.63,47.2441 "/>
<polyline clip-path="url(#clip981)" style="stroke:#000000; stroke-linecap:round; stroke-linejoin:round; stroke-width:2; stroke-opacity:0.1; fill:none" points="2294.04,1423.18 2294.04,47.2441 "/>
<polyline clip-path="url(#clip981)" style="stroke:#000000; stroke-linecap:round; stroke-linejoin:round; stroke-width:2; stroke-opacity:0.1; fill:none" points="278.107,1272.35 2352.76,1272.35 "/>
<polyline clip-path="url(#clip981)" style="stroke:#000000; stroke-linecap:round; stroke-linejoin:round; stroke-width:2; stroke-opacity:0.1; fill:none" points="278.107,975.808 2352.76,975.808 "/>
<polyline clip-path="url(#clip981)" style="stroke:#000000; stroke-linecap:round; stroke-linejoin:round; stroke-width:2; stroke-opacity:0.1; fill:none" points="278.107,679.268 2352.76,679.268 "/>
<polyline clip-path="url(#clip981)" style="stroke:#000000; stroke-linecap:round; stroke-linejoin:round; stroke-width:2; stroke-opacity:0.1; fill:none" points="278.107,382.727 2352.76,382.727 "/>
<polyline clip-path="url(#clip981)" style="stroke:#000000; stroke-linecap:round; stroke-linejoin:round; stroke-width:2; stroke-opacity:0.1; fill:none" points="278.107,86.1857 2352.76,86.1857 "/>
<polyline clip-path="url(#clip980)" style="stroke:#000000; stroke-linecap:round; stroke-linejoin:round; stroke-width:4; stroke-opacity:1; fill:none" points="278.107,1423.18 2352.76,1423.18 "/>
<polyline clip-path="url(#clip980)" style="stroke:#000000; stroke-linecap:round; stroke-linejoin:round; stroke-width:4; stroke-opacity:1; fill:none" points="336.823,1423.18 336.823,1404.28 "/>
<polyline clip-path="url(#clip980)" style="stroke:#000000; stroke-linecap:round; stroke-linejoin:round; stroke-width:4; stroke-opacity:1; fill:none" points="989.229,1423.18 989.229,1404.28 "/>
<polyline clip-path="url(#clip980)" style="stroke:#000000; stroke-linecap:round; stroke-linejoin:round; stroke-width:4; stroke-opacity:1; fill:none" points="1641.63,1423.18 1641.63,1404.28 "/>
<polyline clip-path="url(#clip980)" style="stroke:#000000; stroke-linecap:round; stroke-linejoin:round; stroke-width:4; stroke-opacity:1; fill:none" points="2294.04,1423.18 2294.04,1404.28 "/>
<path clip-path="url(#clip980)" d="M336.823 1454.1 Q333.212 1454.1 331.383 1457.66 Q329.578 1461.2 329.578 1468.33 Q329.578 1475.44 331.383 1479.01 Q333.212 1482.55 336.823 1482.55 Q340.457 1482.55 342.263 1479.01 Q344.092 1475.44 344.092 1468.33 Q344.092 1461.2 342.263 1457.66 Q340.457 1454.1 336.823 1454.1 M336.823 1450.39 Q342.633 1450.39 345.689 1455 Q348.768 1459.58 348.768 1468.33 Q348.768 1477.06 345.689 1481.67 Q342.633 1486.25 336.823 1486.25 Q331.013 1486.25 327.934 1481.67 Q324.879 1477.06 324.879 1468.33 Q324.879 1459.58 327.934 1455 Q331.013 1450.39 336.823 1450.39 Z" fill="#000000" fill-rule="nonzero" fill-opacity="1" /><path clip-path="url(#clip980)" d="M963.916 1481.64 L971.555 1481.64 L971.555 1455.28 L963.245 1456.95 L963.245 1452.69 L971.509 1451.02 L976.185 1451.02 L976.185 1481.64 L983.824 1481.64 L983.824 1485.58 L963.916 1485.58 L963.916 1481.64 Z" fill="#000000" fill-rule="nonzero" fill-opacity="1" /><path clip-path="url(#clip980)" d="M1003.27 1454.1 Q999.657 1454.1 997.828 1457.66 Q996.023 1461.2 996.023 1468.33 Q996.023 1475.44 997.828 1479.01 Q999.657 1482.55 1003.27 1482.55 Q1006.9 1482.55 1008.71 1479.01 Q1010.54 1475.44 1010.54 1468.33 Q1010.54 1461.2 1008.71 1457.66 Q1006.9 1454.1 1003.27 1454.1 M1003.27 1450.39 Q1009.08 1450.39 1012.13 1455 Q1015.21 1459.58 1015.21 1468.33 Q1015.21 1477.06 1012.13 1481.67 Q1009.08 1486.25 1003.27 1486.25 Q997.458 1486.25 994.379 1481.67 Q991.323 1477.06 991.323 1468.33 Q991.323 1459.58 994.379 1455 Q997.458 1450.39 1003.27 1450.39 Z" fill="#000000" fill-rule="nonzero" fill-opacity="1" /><path clip-path="url(#clip980)" d="M1620.41 1481.64 L1636.73 1481.64 L1636.73 1485.58 L1614.78 1485.58 L1614.78 1481.64 Q1617.44 1478.89 1622.03 1474.26 Q1626.63 1469.61 1627.81 1468.27 Q1630.06 1465.74 1630.94 1464.01 Q1631.84 1462.25 1631.84 1460.56 Q1631.84 1457.8 1629.9 1456.07 Q1627.98 1454.33 1624.87 1454.33 Q1622.68 1454.33 1620.22 1455.09 Q1617.79 1455.86 1615.01 1457.41 L1615.01 1452.69 Q1617.84 1451.55 1620.29 1450.97 Q1622.75 1450.39 1624.78 1450.39 Q1630.15 1450.39 1633.35 1453.08 Q1636.54 1455.77 1636.54 1460.26 Q1636.54 1462.39 1635.73 1464.31 Q1634.94 1466.2 1632.84 1468.8 Q1632.26 1469.47 1629.16 1472.69 Q1626.06 1475.88 1620.41 1481.64 Z" fill="#000000" fill-rule="nonzero" fill-opacity="1" /><path clip-path="url(#clip980)" d="M1656.54 1454.1 Q1652.93 1454.1 1651.1 1457.66 Q1649.3 1461.2 1649.3 1468.33 Q1649.3 1475.44 1651.1 1479.01 Q1652.93 1482.55 1656.54 1482.55 Q1660.18 1482.55 1661.98 1479.01 Q1663.81 1475.44 1663.81 1468.33 Q1663.81 1461.2 1661.98 1457.66 Q1660.18 1454.1 1656.54 1454.1 M1656.54 1450.39 Q1662.35 1450.39 1665.41 1455 Q1668.49 1459.58 1668.49 1468.33 Q1668.49 1477.06 1665.41 1481.67 Q1662.35 1486.25 1656.54 1486.25 Q1650.73 1486.25 1647.65 1481.67 Q1644.6 1477.06 1644.6 1468.33 Q1644.6 1459.58 1647.65 1455 Q1650.73 1450.39 1656.54 1450.39 Z" fill="#000000" fill-rule="nonzero" fill-opacity="1" /><path clip-path="url(#clip980)" d="M2282.88 1466.95 Q2286.24 1467.66 2288.11 1469.93 Q2290.01 1472.2 2290.01 1475.53 Q2290.01 1480.65 2286.49 1483.45 Q2282.97 1486.25 2276.49 1486.25 Q2274.32 1486.25 2272 1485.81 Q2269.71 1485.39 2267.26 1484.54 L2267.26 1480.02 Q2269.2 1481.16 2271.52 1481.74 Q2273.83 1482.32 2276.35 1482.32 Q2280.75 1482.32 2283.04 1480.58 Q2285.36 1478.84 2285.36 1475.53 Q2285.36 1472.48 2283.21 1470.77 Q2281.08 1469.03 2277.26 1469.03 L2273.23 1469.03 L2273.23 1465.19 L2277.44 1465.19 Q2280.89 1465.19 2282.72 1463.82 Q2284.55 1462.43 2284.55 1459.84 Q2284.55 1457.18 2282.65 1455.77 Q2280.78 1454.33 2277.26 1454.33 Q2275.34 1454.33 2273.14 1454.75 Q2270.94 1455.16 2268.3 1456.04 L2268.3 1451.88 Q2270.96 1451.14 2273.28 1450.77 Q2275.61 1450.39 2277.67 1450.39 Q2283 1450.39 2286.1 1452.83 Q2289.2 1455.23 2289.2 1459.35 Q2289.2 1462.22 2287.56 1464.21 Q2285.91 1466.18 2282.88 1466.95 Z" fill="#000000" fill-rule="nonzero" fill-opacity="1" /><path clip-path="url(#clip980)" d="M2308.88 1454.1 Q2305.27 1454.1 2303.44 1457.66 Q2301.63 1461.2 2301.63 1468.33 Q2301.63 1475.44 2303.44 1479.01 Q2305.27 1482.55 2308.88 1482.55 Q2312.51 1482.55 2314.32 1479.01 Q2316.15 1475.44 2316.15 1468.33 Q2316.15 1461.2 2314.32 1457.66 Q2312.51 1454.1 2308.88 1454.1 M2308.88 1450.39 Q2314.69 1450.39 2317.74 1455 Q2320.82 1459.58 2320.82 1468.33 Q2320.82 1477.06 2317.74 1481.67 Q2314.69 1486.25 2308.88 1486.25 Q2303.07 1486.25 2299.99 1481.67 Q2296.93 1477.06 2296.93 1468.33 Q2296.93 1459.58 2299.99 1455 Q2303.07 1450.39 2308.88 1450.39 Z" fill="#000000" fill-rule="nonzero" fill-opacity="1" /><path clip-path="url(#clip980)" d="M1254.59 1522.27 L1254.59 1532.4 L1266.65 1532.4 L1266.65 1536.95 L1254.59 1536.95 L1254.59 1556.3 Q1254.59 1560.66 1255.77 1561.9 Q1256.98 1563.14 1260.64 1563.14 L1266.65 1563.14 L1266.65 1568.04 L1260.64 1568.04 Q1253.86 1568.04 1251.28 1565.53 Q1248.7 1562.98 1248.7 1556.3 L1248.7 1536.95 L1244.41 1536.95 L1244.41 1532.4 L1248.7 1532.4 L1248.7 1522.27 L1254.59 1522.27 Z" fill="#000000" fill-rule="nonzero" fill-opacity="1" /><path clip-path="url(#clip980)" d="M1274.36 1532.4 L1280.21 1532.4 L1280.21 1568.04 L1274.36 1568.04 L1274.36 1532.4 M1274.36 1518.52 L1280.21 1518.52 L1280.21 1525.93 L1274.36 1525.93 L1274.36 1518.52 Z" fill="#000000" fill-rule="nonzero" fill-opacity="1" /><path clip-path="url(#clip980)" d="M1320.22 1539.24 Q1322.42 1535.29 1325.47 1533.41 Q1328.53 1531.54 1332.67 1531.54 Q1338.24 1531.54 1341.26 1535.45 Q1344.28 1539.33 1344.28 1546.53 L1344.28 1568.04 L1338.4 1568.04 L1338.4 1546.72 Q1338.4 1541.59 1336.58 1539.11 Q1334.77 1536.63 1331.04 1536.63 Q1326.49 1536.63 1323.85 1539.65 Q1321.21 1542.68 1321.21 1547.9 L1321.21 1568.04 L1315.32 1568.04 L1315.32 1546.72 Q1315.32 1541.56 1313.51 1539.11 Q1311.69 1536.63 1307.9 1536.63 Q1303.42 1536.63 1300.77 1539.68 Q1298.13 1542.71 1298.13 1547.9 L1298.13 1568.04 L1292.24 1568.04 L1292.24 1532.4 L1298.13 1532.4 L1298.13 1537.93 Q1300.14 1534.66 1302.94 1533.1 Q1305.74 1531.54 1309.59 1531.54 Q1313.47 1531.54 1316.18 1533.51 Q1318.92 1535.48 1320.22 1539.24 Z" fill="#000000" fill-rule="nonzero" fill-opacity="1" /><path clip-path="url(#clip980)" d="M1386.46 1548.76 L1386.46 1551.62 L1359.53 1551.62 Q1359.91 1557.67 1363.16 1560.85 Q1366.44 1564 1372.26 1564 Q1375.63 1564 1378.79 1563.17 Q1381.97 1562.35 1385.09 1560.69 L1385.09 1566.23 Q1381.94 1567.57 1378.63 1568.27 Q1375.32 1568.97 1371.91 1568.97 Q1363.38 1568.97 1358.38 1564 Q1353.42 1559.04 1353.42 1550.57 Q1353.42 1541.82 1358.13 1536.69 Q1362.87 1531.54 1370.89 1531.54 Q1378.09 1531.54 1382.26 1536.18 Q1386.46 1540.8 1386.46 1548.76 M1380.6 1547.04 Q1380.54 1542.23 1377.89 1539.37 Q1375.28 1536.5 1370.96 1536.5 Q1366.05 1536.5 1363.09 1539.27 Q1360.17 1542.04 1359.72 1547.07 L1380.6 1547.04 Z" fill="#000000" fill-rule="nonzero" fill-opacity="1" /><polyline clip-path="url(#clip980)" style="stroke:#000000; stroke-linecap:round; stroke-linejoin:round; stroke-width:4; stroke-opacity:1; fill:none" points="278.107,1423.18 278.107,47.2441 "/>
<polyline clip-path="url(#clip980)" style="stroke:#000000; stroke-linecap:round; stroke-linejoin:round; stroke-width:4; stroke-opacity:1; fill:none" points="278.107,1272.35 297.004,1272.35 "/>
<polyline clip-path="url(#clip980)" style="stroke:#000000; stroke-linecap:round; stroke-linejoin:round; stroke-width:4; stroke-opacity:1; fill:none" points="278.107,975.808 297.004,975.808 "/>
<polyline clip-path="url(#clip980)" style="stroke:#000000; stroke-linecap:round; stroke-linejoin:round; stroke-width:4; stroke-opacity:1; fill:none" points="278.107,679.268 297.004,679.268 "/>
<polyline clip-path="url(#clip980)" style="stroke:#000000; stroke-linecap:round; stroke-linejoin:round; stroke-width:4; stroke-opacity:1; fill:none" points="278.107,382.727 297.004,382.727 "/>
<polyline clip-path="url(#clip980)" style="stroke:#000000; stroke-linecap:round; stroke-linejoin:round; stroke-width:4; stroke-opacity:1; fill:none" points="278.107,86.1857 297.004,86.1857 "/>
<path clip-path="url(#clip980)" d="M117.015 1285.69 L124.654 1285.69 L124.654 1259.33 L116.343 1261 L116.343 1256.74 L124.607 1255.07 L129.283 1255.07 L129.283 1285.69 L136.922 1285.69 L136.922 1289.63 L117.015 1289.63 L117.015 1285.69 Z" fill="#000000" fill-rule="nonzero" fill-opacity="1" /><path clip-path="url(#clip980)" d="M146.366 1283.75 L151.251 1283.75 L151.251 1289.63 L146.366 1289.63 L146.366 1283.75 Z" fill="#000000" fill-rule="nonzero" fill-opacity="1" /><path clip-path="url(#clip980)" d="M171.436 1258.15 Q167.825 1258.15 165.996 1261.71 Q164.19 1265.25 164.19 1272.38 Q164.19 1279.49 165.996 1283.06 Q167.825 1286.6 171.436 1286.6 Q175.07 1286.6 176.876 1283.06 Q178.704 1279.49 178.704 1272.38 Q178.704 1265.25 176.876 1261.71 Q175.07 1258.15 171.436 1258.15 M171.436 1254.44 Q177.246 1254.44 180.301 1259.05 Q183.38 1263.63 183.38 1272.38 Q183.38 1281.11 180.301 1285.72 Q177.246 1290.3 171.436 1290.3 Q165.626 1290.3 162.547 1285.72 Q159.491 1281.11 159.491 1272.38 Q159.491 1263.63 162.547 1259.05 Q165.626 1254.44 171.436 1254.44 Z" fill="#000000" fill-rule="nonzero" fill-opacity="1" /><path clip-path="url(#clip980)" d="M205.764 1271 Q209.121 1271.71 210.996 1273.98 Q212.894 1276.25 212.894 1279.58 Q212.894 1284.7 209.375 1287.5 Q205.857 1290.3 199.375 1290.3 Q197.2 1290.3 194.885 1289.86 Q192.593 1289.44 190.139 1288.59 L190.139 1284.07 Q192.084 1285.21 194.399 1285.79 Q196.713 1286.37 199.237 1286.37 Q203.635 1286.37 205.926 1284.63 Q208.241 1282.89 208.241 1279.58 Q208.241 1276.53 206.088 1274.81 Q203.959 1273.08 200.139 1273.08 L196.112 1273.08 L196.112 1269.24 L200.325 1269.24 Q203.774 1269.24 205.602 1267.87 Q207.431 1266.48 207.431 1263.89 Q207.431 1261.23 205.533 1259.81 Q203.658 1258.38 200.139 1258.38 Q198.218 1258.38 196.019 1258.8 Q193.82 1259.21 191.181 1260.09 L191.181 1255.93 Q193.843 1255.19 196.158 1254.81 Q198.496 1254.44 200.556 1254.44 Q205.88 1254.44 208.982 1256.87 Q212.084 1259.28 212.084 1263.4 Q212.084 1266.27 210.44 1268.26 Q208.797 1270.23 205.764 1271 Z" fill="#000000" fill-rule="nonzero" fill-opacity="1" /><path clip-path="url(#clip980)" d="M225.787 1285.69 L242.107 1285.69 L242.107 1289.63 L220.162 1289.63 L220.162 1285.69 Q222.824 1282.94 227.408 1278.31 Q232.014 1273.66 233.195 1272.31 Q235.44 1269.79 236.32 1268.06 Q237.222 1266.3 237.222 1264.61 Q237.222 1261.85 235.278 1260.12 Q233.357 1258.38 230.255 1258.38 Q228.056 1258.38 225.602 1259.14 Q223.172 1259.91 220.394 1261.46 L220.394 1256.74 Q223.218 1255.6 225.672 1255.02 Q228.125 1254.44 230.162 1254.44 Q235.533 1254.44 238.727 1257.13 Q241.922 1259.81 241.922 1264.31 Q241.922 1266.44 241.111 1268.36 Q240.324 1270.25 238.218 1272.85 Q237.639 1273.52 234.537 1276.74 Q231.435 1279.93 225.787 1285.69 Z" fill="#000000" fill-rule="nonzero" fill-opacity="1" /><path clip-path="url(#clip980)" d="M114.931 989.153 L122.57 989.153 L122.57 962.788 L114.26 964.454 L114.26 960.195 L122.524 958.528 L127.2 958.528 L127.2 989.153 L134.839 989.153 L134.839 993.088 L114.931 993.088 L114.931 989.153 Z" fill="#000000" fill-rule="nonzero" fill-opacity="1" /><path clip-path="url(#clip980)" d="M144.283 987.209 L149.167 987.209 L149.167 993.088 L144.283 993.088 L144.283 987.209 Z" fill="#000000" fill-rule="nonzero" fill-opacity="1" /><path clip-path="url(#clip980)" d="M169.352 961.607 Q165.741 961.607 163.913 965.172 Q162.107 968.714 162.107 975.843 Q162.107 982.95 163.913 986.514 Q165.741 990.056 169.352 990.056 Q172.987 990.056 174.792 986.514 Q176.621 982.95 176.621 975.843 Q176.621 968.714 174.792 965.172 Q172.987 961.607 169.352 961.607 M169.352 957.903 Q175.163 957.903 178.218 962.51 Q181.297 967.093 181.297 975.843 Q181.297 984.57 178.218 989.176 Q175.163 993.76 169.352 993.76 Q163.542 993.76 160.464 989.176 Q157.408 984.57 157.408 975.843 Q157.408 967.093 160.464 962.51 Q163.542 957.903 169.352 957.903 Z" fill="#000000" fill-rule="nonzero" fill-opacity="1" /><path clip-path="url(#clip980)" d="M203.681 974.454 Q207.037 975.172 208.912 977.44 Q210.811 979.709 210.811 983.042 Q210.811 988.158 207.292 990.959 Q203.774 993.76 197.292 993.76 Q195.116 993.76 192.801 993.32 Q190.51 992.903 188.056 992.047 L188.056 987.533 Q190 988.667 192.315 989.246 Q194.63 989.825 197.153 989.825 Q201.551 989.825 203.843 988.088 Q206.158 986.352 206.158 983.042 Q206.158 979.987 204.005 978.274 Q201.875 976.538 198.056 976.538 L194.028 976.538 L194.028 972.695 L198.241 972.695 Q201.69 972.695 203.519 971.329 Q205.348 969.94 205.348 967.348 Q205.348 964.686 203.449 963.274 Q201.575 961.839 198.056 961.839 Q196.135 961.839 193.936 962.255 Q191.737 962.672 189.098 963.552 L189.098 959.385 Q191.76 958.644 194.075 958.274 Q196.412 957.903 198.473 957.903 Q203.797 957.903 206.899 960.334 Q210 962.741 210 966.862 Q210 969.732 208.357 971.723 Q206.713 973.69 203.681 974.454 Z" fill="#000000" fill-rule="nonzero" fill-opacity="1" /><path clip-path="url(#clip980)" d="M232.523 962.603 L220.718 981.051 L232.523 981.051 L232.523 962.603 M231.297 958.528 L237.176 958.528 L237.176 981.051 L242.107 981.051 L242.107 984.94 L237.176 984.94 L237.176 993.088 L232.523 993.088 L232.523 984.94 L216.922 984.94 L216.922 980.426 L231.297 958.528 Z" fill="#000000" fill-rule="nonzero" fill-opacity="1" /><path clip-path="url(#clip980)" d="M115.256 692.612 L122.894 692.612 L122.894 666.247 L114.584 667.913 L114.584 663.654 L122.848 661.988 L127.524 661.988 L127.524 692.612 L135.163 692.612 L135.163 696.548 L115.256 696.548 L115.256 692.612 Z" fill="#000000" fill-rule="nonzero" fill-opacity="1" /><path clip-path="url(#clip980)" d="M144.607 690.668 L149.491 690.668 L149.491 696.548 L144.607 696.548 L144.607 690.668 Z" fill="#000000" fill-rule="nonzero" fill-opacity="1" /><path clip-path="url(#clip980)" d="M169.677 665.066 Q166.065 665.066 164.237 668.631 Q162.431 672.173 162.431 679.302 Q162.431 686.409 164.237 689.973 Q166.065 693.515 169.677 693.515 Q173.311 693.515 175.116 689.973 Q176.945 686.409 176.945 679.302 Q176.945 672.173 175.116 668.631 Q173.311 665.066 169.677 665.066 M169.677 661.363 Q175.487 661.363 178.542 665.969 Q181.621 670.552 181.621 679.302 Q181.621 688.029 178.542 692.636 Q175.487 697.219 169.677 697.219 Q163.866 697.219 160.788 692.636 Q157.732 688.029 157.732 679.302 Q157.732 670.552 160.788 665.969 Q163.866 661.363 169.677 661.363 Z" fill="#000000" fill-rule="nonzero" fill-opacity="1" /><path clip-path="url(#clip980)" d="M204.005 677.913 Q207.362 678.631 209.237 680.899 Q211.135 683.168 211.135 686.501 Q211.135 691.617 207.616 694.418 Q204.098 697.219 197.616 697.219 Q195.44 697.219 193.125 696.779 Q190.834 696.362 188.38 695.506 L188.38 690.992 Q190.325 692.126 192.639 692.705 Q194.954 693.284 197.477 693.284 Q201.875 693.284 204.167 691.548 Q206.482 689.811 206.482 686.501 Q206.482 683.446 204.329 681.733 Q202.2 679.997 198.38 679.997 L194.352 679.997 L194.352 676.154 L198.565 676.154 Q202.014 676.154 203.843 674.788 Q205.672 673.4 205.672 670.807 Q205.672 668.145 203.774 666.733 Q201.899 665.298 198.38 665.298 Q196.459 665.298 194.26 665.714 Q192.061 666.131 189.422 667.011 L189.422 662.844 Q192.084 662.103 194.399 661.733 Q196.737 661.363 198.797 661.363 Q204.121 661.363 207.223 663.793 Q210.324 666.2 210.324 670.321 Q210.324 673.191 208.681 675.182 Q207.037 677.149 204.005 677.913 Z" fill="#000000" fill-rule="nonzero" fill-opacity="1" /><path clip-path="url(#clip980)" d="M230.579 677.404 Q227.431 677.404 225.579 679.557 Q223.75 681.71 223.75 685.46 Q223.75 689.186 225.579 691.362 Q227.431 693.515 230.579 693.515 Q233.727 693.515 235.556 691.362 Q237.408 689.186 237.408 685.46 Q237.408 681.71 235.556 679.557 Q233.727 677.404 230.579 677.404 M239.861 662.751 L239.861 667.011 Q238.102 666.177 236.297 665.738 Q234.514 665.298 232.755 665.298 Q228.125 665.298 225.672 668.423 Q223.241 671.548 222.894 677.867 Q224.26 675.853 226.32 674.788 Q228.38 673.7 230.857 673.7 Q236.065 673.7 239.074 676.872 Q242.107 680.02 242.107 685.46 Q242.107 690.784 238.959 694.001 Q235.81 697.219 230.579 697.219 Q224.584 697.219 221.412 692.636 Q218.241 688.029 218.241 679.302 Q218.241 671.108 222.13 666.247 Q226.019 661.363 232.57 661.363 Q234.329 661.363 236.111 661.71 Q237.917 662.057 239.861 662.751 Z" fill="#000000" fill-rule="nonzero" fill-opacity="1" /><path clip-path="url(#clip980)" d="M115.51 396.071 L123.149 396.071 L123.149 369.706 L114.839 371.372 L114.839 367.113 L123.103 365.447 L127.779 365.447 L127.779 396.071 L135.417 396.071 L135.417 400.007 L115.51 400.007 L115.51 396.071 Z" fill="#000000" fill-rule="nonzero" fill-opacity="1" /><path clip-path="url(#clip980)" d="M144.862 394.127 L149.746 394.127 L149.746 400.007 L144.862 400.007 L144.862 394.127 Z" fill="#000000" fill-rule="nonzero" fill-opacity="1" /><path clip-path="url(#clip980)" d="M169.931 368.525 Q166.32 368.525 164.491 372.09 Q162.686 375.632 162.686 382.761 Q162.686 389.868 164.491 393.433 Q166.32 396.974 169.931 396.974 Q173.565 396.974 175.371 393.433 Q177.2 389.868 177.2 382.761 Q177.2 375.632 175.371 372.09 Q173.565 368.525 169.931 368.525 M169.931 364.822 Q175.741 364.822 178.797 369.428 Q181.876 374.011 181.876 382.761 Q181.876 391.488 178.797 396.095 Q175.741 400.678 169.931 400.678 Q164.121 400.678 161.042 396.095 Q157.987 391.488 157.987 382.761 Q157.987 374.011 161.042 369.428 Q164.121 364.822 169.931 364.822 Z" fill="#000000" fill-rule="nonzero" fill-opacity="1" /><path clip-path="url(#clip980)" d="M204.26 381.372 Q207.616 382.09 209.491 384.359 Q211.389 386.627 211.389 389.96 Q211.389 395.076 207.871 397.877 Q204.352 400.678 197.871 400.678 Q195.695 400.678 193.38 400.238 Q191.088 399.821 188.635 398.965 L188.635 394.451 Q190.579 395.585 192.894 396.164 Q195.209 396.743 197.732 396.743 Q202.13 396.743 204.422 395.007 Q206.737 393.271 206.737 389.96 Q206.737 386.905 204.584 385.192 Q202.454 383.456 198.635 383.456 L194.607 383.456 L194.607 379.613 L198.82 379.613 Q202.269 379.613 204.098 378.247 Q205.926 376.859 205.926 374.266 Q205.926 371.604 204.028 370.192 Q202.153 368.757 198.635 368.757 Q196.713 368.757 194.514 369.173 Q192.315 369.59 189.676 370.47 L189.676 366.303 Q192.338 365.562 194.653 365.192 Q196.991 364.822 199.051 364.822 Q204.375 364.822 207.477 367.252 Q210.579 369.66 210.579 373.78 Q210.579 376.65 208.936 378.641 Q207.292 380.609 204.26 381.372 Z" fill="#000000" fill-rule="nonzero" fill-opacity="1" /><path clip-path="url(#clip980)" d="M230.255 383.595 Q226.922 383.595 225 385.377 Q223.102 387.159 223.102 390.284 Q223.102 393.409 225 395.192 Q226.922 396.974 230.255 396.974 Q233.588 396.974 235.51 395.192 Q237.431 393.386 237.431 390.284 Q237.431 387.159 235.51 385.377 Q233.611 383.595 230.255 383.595 M225.579 381.604 Q222.57 380.863 220.88 378.803 Q219.213 376.743 219.213 373.78 Q219.213 369.636 222.153 367.229 Q225.116 364.822 230.255 364.822 Q235.417 364.822 238.357 367.229 Q241.297 369.636 241.297 373.78 Q241.297 376.743 239.607 378.803 Q237.94 380.863 234.954 381.604 Q238.334 382.391 240.209 384.683 Q242.107 386.974 242.107 390.284 Q242.107 395.308 239.028 397.993 Q235.972 400.678 230.255 400.678 Q224.537 400.678 221.459 397.993 Q218.403 395.308 218.403 390.284 Q218.403 386.974 220.301 384.683 Q222.199 382.391 225.579 381.604 M223.866 374.22 Q223.866 376.905 225.533 378.409 Q227.223 379.914 230.255 379.914 Q233.264 379.914 234.954 378.409 Q236.667 376.905 236.667 374.22 Q236.667 371.535 234.954 370.03 Q233.264 368.525 230.255 368.525 Q227.223 368.525 225.533 370.03 Q223.866 371.535 223.866 374.22 Z" fill="#000000" fill-rule="nonzero" fill-opacity="1" /><path clip-path="url(#clip980)" d="M115.418 99.5305 L123.056 99.5305 L123.056 73.1649 L114.746 74.8316 L114.746 70.5723 L123.01 68.9057 L127.686 68.9057 L127.686 99.5305 L135.325 99.5305 L135.325 103.466 L115.418 103.466 L115.418 99.5305 Z" fill="#000000" fill-rule="nonzero" fill-opacity="1" /><path clip-path="url(#clip980)" d="M144.769 97.5861 L149.653 97.5861 L149.653 103.466 L144.769 103.466 L144.769 97.5861 Z" fill="#000000" fill-rule="nonzero" fill-opacity="1" /><path clip-path="url(#clip980)" d="M169.839 71.9844 Q166.227 71.9844 164.399 75.5492 Q162.593 79.0908 162.593 86.2204 Q162.593 93.3268 164.399 96.8916 Q166.227 100.433 169.839 100.433 Q173.473 100.433 175.278 96.8916 Q177.107 93.3268 177.107 86.2204 Q177.107 79.0908 175.278 75.5492 Q173.473 71.9844 169.839 71.9844 M169.839 68.2807 Q175.649 68.2807 178.704 72.8871 Q181.783 77.4704 181.783 86.2204 Q181.783 94.9472 178.704 99.5537 Q175.649 104.137 169.839 104.137 Q164.028 104.137 160.95 99.5537 Q157.894 94.9472 157.894 86.2204 Q157.894 77.4704 160.95 72.8871 Q164.028 68.2807 169.839 68.2807 Z" fill="#000000" fill-rule="nonzero" fill-opacity="1" /><path clip-path="url(#clip980)" d="M202.848 72.9797 L191.042 91.4287 L202.848 91.4287 L202.848 72.9797 M201.621 68.9057 L207.5 68.9057 L207.5 91.4287 L212.431 91.4287 L212.431 95.3176 L207.5 95.3176 L207.5 103.466 L202.848 103.466 L202.848 95.3176 L187.246 95.3176 L187.246 90.8037 L201.621 68.9057 Z" fill="#000000" fill-rule="nonzero" fill-opacity="1" /><path clip-path="url(#clip980)" d="M230.162 71.9844 Q226.551 71.9844 224.723 75.5492 Q222.917 79.0908 222.917 86.2204 Q222.917 93.3268 224.723 96.8916 Q226.551 100.433 230.162 100.433 Q233.797 100.433 235.602 96.8916 Q237.431 93.3268 237.431 86.2204 Q237.431 79.0908 235.602 75.5492 Q233.797 71.9844 230.162 71.9844 M230.162 68.2807 Q235.972 68.2807 239.028 72.8871 Q242.107 77.4704 242.107 86.2204 Q242.107 94.9472 239.028 99.5537 Q235.972 104.137 230.162 104.137 Q224.352 104.137 221.273 99.5537 Q218.218 94.9472 218.218 86.2204 Q218.218 77.4704 221.273 72.8871 Q224.352 68.2807 230.162 68.2807 Z" fill="#000000" fill-rule="nonzero" fill-opacity="1" /><path clip-path="url(#clip980)" d="M64.0042 913.404 L16.4842 931.546 L16.4842 924.83 L56.4926 909.776 L16.4842 894.689 L16.4842 888.005 L64.0042 906.115 L64.0042 913.404 Z" fill="#000000" fill-rule="nonzero" fill-opacity="1" /><path clip-path="url(#clip980)" d="M32.4621 872.568 Q32.4621 877.279 36.1542 880.016 Q39.8145 882.753 46.212 882.753 Q52.6095 882.753 56.3017 880.048 Q59.9619 877.31 59.9619 872.568 Q59.9619 867.889 56.2698 865.152 Q52.5777 862.415 46.212 862.415 Q39.8781 862.415 36.186 865.152 Q32.4621 867.889 32.4621 872.568 M27.4968 872.568 Q27.4968 864.929 32.4621 860.569 Q37.4273 856.208 46.212 856.208 Q54.9649 856.208 59.9619 860.569 Q64.9272 864.929 64.9272 872.568 Q64.9272 880.239 59.9619 884.599 Q54.9649 888.928 46.212 888.928 Q37.4273 888.928 32.4621 884.599 Q27.4968 880.239 27.4968 872.568 Z" fill="#000000" fill-rule="nonzero" fill-opacity="1" /><path clip-path="url(#clip980)" d="M14.479 846.5 L14.479 840.644 L64.0042 840.644 L64.0042 846.5 L14.479 846.5 Z" fill="#000000" fill-rule="nonzero" fill-opacity="1" /><path clip-path="url(#clip980)" d="M18.2347 822.597 L28.3562 822.597 L28.3562 810.534 L32.9077 810.534 L32.9077 822.597 L52.2594 822.597 Q56.6199 822.597 57.8613 821.42 Q59.1026 820.21 59.1026 816.55 L59.1026 810.534 L64.0042 810.534 L64.0042 816.55 Q64.0042 823.329 61.4897 825.907 Q58.9434 828.485 52.2594 828.485 L32.9077 828.485 L32.9077 832.782 L28.3562 832.782 L28.3562 828.485 L18.2347 828.485 L18.2347 822.597 Z" fill="#000000" fill-rule="nonzero" fill-opacity="1" /><path clip-path="url(#clip980)" d="M46.0847 786.631 Q46.0847 793.729 47.7079 796.466 Q49.3312 799.203 53.2461 799.203 Q56.3653 799.203 58.2114 797.166 Q60.0256 795.097 60.0256 791.564 Q60.0256 786.695 56.5881 783.766 Q53.1188 780.806 47.3897 780.806 L46.0847 780.806 L46.0847 786.631 M43.6657 774.95 L64.0042 774.95 L64.0042 780.806 L58.5933 780.806 Q61.8398 782.812 63.3994 785.803 Q64.9272 788.795 64.9272 793.124 Q64.9272 798.598 61.8716 801.845 Q58.7843 805.06 53.6281 805.06 Q47.6125 805.06 44.5569 801.049 Q41.5014 797.007 41.5014 789.018 L41.5014 780.806 L40.9285 780.806 Q36.8862 780.806 34.6901 783.48 Q32.4621 786.122 32.4621 790.928 Q32.4621 793.983 33.1941 796.88 Q33.9262 799.776 35.3903 802.45 L29.9795 802.45 Q28.7381 799.235 28.1334 796.211 Q27.4968 793.188 27.4968 790.323 Q27.4968 782.589 31.5072 778.769 Q35.5176 774.95 43.6657 774.95 Z" fill="#000000" fill-rule="nonzero" fill-opacity="1" /><path clip-path="url(#clip980)" d="M45.7664 739.429 Q39.4007 739.429 35.8996 742.071 Q32.3984 744.681 32.3984 749.423 Q32.3984 754.134 35.8996 756.776 Q39.4007 759.386 45.7664 759.386 Q52.1003 759.386 55.6014 756.776 Q59.1026 754.134 59.1026 749.423 Q59.1026 744.681 55.6014 742.071 Q52.1003 739.429 45.7664 739.429 M59.58 733.573 Q68.683 733.573 73.1071 737.615 Q77.5631 741.657 77.5631 749.996 Q77.5631 753.084 77.0857 755.821 Q76.6401 758.558 75.6852 761.136 L69.9879 761.136 Q71.3884 758.558 72.0568 756.044 Q72.7252 753.529 72.7252 750.919 Q72.7252 745.158 69.7015 742.294 Q66.7096 739.429 60.6303 739.429 L57.7339 739.429 Q60.885 741.243 62.4446 744.076 Q64.0042 746.909 64.0042 750.856 Q64.0042 757.412 59.0071 761.423 Q54.01 765.433 45.7664 765.433 Q37.491 765.433 32.4939 761.423 Q27.4968 757.412 27.4968 750.856 Q27.4968 746.909 29.0564 744.076 Q30.616 741.243 33.7671 739.429 L28.3562 739.429 L28.3562 733.573 L59.58 733.573 Z" fill="#000000" fill-rule="nonzero" fill-opacity="1" /><path clip-path="url(#clip980)" d="M44.7161 691.018 L47.5806 691.018 L47.5806 717.945 Q53.6281 717.563 56.8109 714.317 Q59.9619 711.038 59.9619 705.214 Q59.9619 701.84 59.1344 698.689 Q58.3069 695.506 56.6518 692.387 L62.1899 692.387 Q63.5267 695.538 64.227 698.848 Q64.9272 702.158 64.9272 705.564 Q64.9272 714.094 59.9619 719.091 Q54.9967 724.056 46.5303 724.056 Q37.7774 724.056 32.6531 719.345 Q27.4968 714.603 27.4968 706.582 Q27.4968 699.389 32.1438 695.219 Q36.7589 691.018 44.7161 691.018 M42.9973 696.875 Q38.1912 696.938 35.3266 699.58 Q32.4621 702.19 32.4621 706.519 Q32.4621 711.42 35.2312 714.38 Q38.0002 717.308 43.0292 717.754 L42.9973 696.875 Z" fill="#000000" fill-rule="nonzero" fill-opacity="1" /><path clip-path="url(#clip980)" d="M14.479 661.227 L14.479 647.731 L19.0304 647.731 L19.0304 655.37 L68.0464 655.37 L68.0464 647.731 L72.5979 647.731 L72.5979 661.227 L14.479 661.227 Z" fill="#000000" fill-rule="nonzero" fill-opacity="1" /><path clip-path="url(#clip980)" d="M58.657 629.589 L77.5631 629.589 L77.5631 635.477 L28.3562 635.477 L28.3562 629.589 L33.7671 629.589 Q30.5842 627.743 29.0564 624.942 Q27.4968 622.109 27.4968 618.194 Q27.4968 611.701 32.6531 607.659 Q37.8093 603.585 46.212 603.585 Q54.6147 603.585 59.771 607.659 Q64.9272 611.701 64.9272 618.194 Q64.9272 622.109 63.3994 624.942 Q61.8398 627.743 58.657 629.589 M46.212 609.664 Q39.7508 609.664 36.0905 612.338 Q32.3984 614.98 32.3984 619.627 Q32.3984 624.274 36.0905 626.947 Q39.7508 629.589 46.212 629.589 Q52.6732 629.589 56.3653 626.947 Q60.0256 624.274 60.0256 619.627 Q60.0256 614.98 56.3653 612.338 Q52.6732 609.664 46.212 609.664 Z" fill="#000000" fill-rule="nonzero" fill-opacity="1" /><path clip-path="url(#clip980)" d="M49.9359 594.482 L28.3562 594.482 L28.3562 588.626 L49.7131 588.626 Q54.7739 588.626 57.3202 586.652 Q59.8346 584.679 59.8346 580.732 Q59.8346 575.99 56.8109 573.252 Q53.7872 570.483 48.5673 570.483 L28.3562 570.483 L28.3562 564.627 L64.0042 564.627 L64.0042 570.483 L58.5296 570.483 Q61.7762 572.616 63.3676 575.449 Q64.9272 578.25 64.9272 581.973 Q64.9272 588.116 61.1078 591.299 Q57.2883 594.482 49.9359 594.482 M27.4968 579.745 L27.4968 579.745 Z" fill="#000000" fill-rule="nonzero" fill-opacity="1" /><path clip-path="url(#clip980)" d="M14.479 538.878 L72.5979 538.878 L72.5979 552.373 L68.0464 552.373 L68.0464 544.766 L19.0304 544.766 L19.0304 552.373 L14.479 552.373 L14.479 538.878 Z" fill="#000000" fill-rule="nonzero" fill-opacity="1" /><polyline clip-path="url(#clip981)" style="stroke:#009af9; stroke-linecap:round; stroke-linejoin:round; stroke-width:4; stroke-opacity:1; fill:none" points="336.823,86.1857 336.888,86.1857 336.954,86.1857 337.084,86.1857 337.345,86.1857 337.867,86.1857 338.911,86.1857 340.216,86.1857 341.521,86.1857 342.825,86.1857 344.13,86.1857 345.435,86.1857 346.74,86.1857 348.045,86.1857 349.349,86.1857 350.654,86.1857 351.959,86.1857 353.264,86.1857 354.569,86.1857 355.873,86.1857 357.178,86.1857 358.483,86.1857 359.788,86.1857 361.093,86.1857 362.397,86.1857 363.702,86.1857 365.007,86.1857 366.312,86.1857 367.617,86.1857 368.922,86.1857 370.226,86.1857 371.531,86.1857 372.836,86.1857 374.141,86.1857 375.446,86.1857 376.75,86.1857 378.055,86.1857 379.36,86.1857 380.665,86.1857 381.97,86.1857 383.274,86.1857 384.579,86.1857 385.884,86.1857 387.189,86.1857 388.494,86.1857 389.799,86.1857 391.103,86.1857 392.408,86.1857 393.713,86.1857 395.018,86.1857 396.323,86.1857 397.627,86.1857 398.932,86.1857 400.237,86.1857 401.542,86.1857 402.064,86.1857 402.065,1143.83 402.065,1143.83 402.065,1143.83 402.065,1143.83 402.065,1143.83 402.066,1143.83 402.066,1143.83 402.068,1143.83 402.071,1143.83 402.078,1143.83 402.091,1143.84 402.118,1143.84 402.17,1143.87 402.276,1143.96 402.488,1144.33 402.91,1145.8 403.333,1147.98 403.756,1150.86 404.601,1158.23 405.447,1168.03 406.292,1180.33 407.597,1203.33 408.902,1230.49 410.207,1260.41 411.512,1291.38 412.816,1319.68 413.82,1339.21 414.724,1354.34 415.537,1365.62 416.269,1373.69 417.001,1379.8 417.66,1382.7 418.319,1384.24 418.978,1383.65 420.283,1377.93 421.587,1366.65 422.892,1349.22 424.197,1327.5 425.502,1302.75 426.807,1276.33 428.111,1250.02 429.416,1225.54 430.721,1204.12 432.026,1186.79 433.331,1174.53 434.635,1167.85 435.94,1166.93 437.245,1171.8 438.55,1182.38 439.855,1198.02 441.159,1217.8 442.464,1240.95 443.769,1266.35 445.074,1291.93 446.379,1316.44 447.684,1338.43 448.988,1356.12 450.293,1368.21 451.598,1374.02 452.903,1372.92 454.208,1364.89 455.512,1351.01 456.817,1332.33 458.122,1309.64 459.427,1284.95 460.732,1260.69 462.036,1236.88 463.341,1213.63 464.646,1197.24 465.951,1186.77 467.256,1175.69 468.561,1169.73 469.865,1177.69 471.17,1188.38 472.475,1196.74 473.78,1212.32 475.085,1235.55 476.389,1258.4 477.694,1280.55 478.999,1304.59 480.304,1327.11 481.609,1344.55 482.913,1357.75 484.218,1366.52 485.523,1367.25 486.828,1360.3 488.133,1350.64 489.437,1336.87 490.742,1314.21 492.047,1289.5 493.352,1270.23 494.657,1246.76 495.962,1219.94 497.266,1206.35 498.571,1200.61 499.876,1182.45 501.181,1169.1 502.486,1179.9 503.79,1190.38 505.095,1193.94 506.4,1207.97 507.705,1230.99 509.01,1250.95 510.314,1271.35 511.619,1297.2 512.924,1318.61 514.229,1329.92 515.534,1344.8 516.839,1363.2 518.143,1360.41 519.448,1353.06 520.753,1350.34 522.058,1338.84 523.363,1317.67 524.667,1297.63 525.972,1277.89 527.277,1253.93 528.582,1232.07 529.887,1218.83 531.191,1205.09 532.496,1187.26 533.801,1185.06 535.106,1187.38 536.411,1187.03 537.715,1193.75 539.02,1208.98 540.325,1225.15 541.63,1242.61 542.935,1264.73 544.24,1287.06 545.544,1304.05 546.849,1321.17 548.154,1341.02 549.459,1348.86 550.764,1351.53 552.068,1353.93 553.373,1349.35 554.678,1336.78 555.983,1321.8 557.288,1304.78 558.592,1283.84 559.897,1262.32 561.202,1244.62 562.507,1227.47 563.812,1208.82 565.117,1198.86 566.421,1193.13 567.726,1188.37 569.031,1189.21 570.336,1196.58 571.641,1206.39 572.945,1220.14 574.25,1236.72 575.555,1255.24 576.86,1274.76 578.165,1294.24 579.469,1312.34 580.774,1327.78 582.079,1339.56 583.384,1346.86 584.689,1349.05 585.993,1345.98 587.298,1338.05 588.603,1325.84 589.908,1310.04 591.213,1291.88 592.518,1272.84 593.822,1253.84 595.127,1235.88 596.432,1220.25 597.737,1207.78 599.042,1198.88 600.346,1194 601.651,1193.56 602.956,1197.48 604.261,1205.39 605.566,1217.04 606.87,1231.99 608.175,1249.08 609.48,1267.19 610.785,1285.87 612.09,1303.94 613.395,1318.67 614.699,1329.78 616.004,1340.16 617.309,1345.78 618.614,1338.52 619.919,1335.3 621.223,1326.38 622.528,1311.59 623.833,1296.06 625.138,1279.71 626.443,1261.36 627.747,1243.6 629.052,1228.57 630.357,1215.84 631.662,1205.77 632.967,1199.81 634.271,1198.36 635.576,1200.17 636.881,1205.56 638.186,1215.96 639.491,1229.6 640.796,1243.57 642.1,1259.68 643.405,1278.66 644.71,1295.1 646.015,1308.13 647.32,1322.56 648.624,1334.75 649.929,1336.31 651.234,1333.88 652.539,1333.95 653.844,1327.77 655.148,1313.85 656.453,1299.51 657.758,1285.26 659.063,1268.14 660.368,1251.01 661.673,1237.09 662.977,1224.07 664.282,1211.28 665.587,1204.81 666.892,1205.04 668.197,1203.33 669.501,1205.9 670.806,1215.76 672.111,1227.32 673.416,1239.37 674.721,1255.16 676.025,1273.15 677.33,1287.39 678.635,1300 679.94,1316.24 681.245,1328.3 682.549,1329.99 683.854,1333.1 685.159,1337.39 686.464,1325.72 687.769,1312.5 689.074,1304.46 690.378,1291.07 691.683,1272.43 692.988,1257 694.293,1243.57 695.598,1228.5 696.902,1217 698.207,1213.35 699.512,1209.37 700.817,1202.78 702.122,1209 703.426,1218.17 704.731,1224.22 706.036,1234.97 707.341,1251.13 708.646,1266.12 709.951,1280.17 711.255,1295.96 712.56,1309.75 713.865,1317.3 715.17,1323.72 716.475,1331.48 717.779,1328.92 719.084,1322.55 720.389,1317.06 721.694,1307.25 722.999,1292.68 724.303,1278.26 725.608,1264.28 726.913,1249.08 728.218,1235.28 729.523,1226.14 730.827,1218.44 732.132,1210.21 733.437,1208.27 734.742,1212.22 736.047,1215.85 737.352,1221 738.656,1234.63 739.961,1250.17 741.266,1258.2 742.571,1270.01 743.876,1290.74 745.18,1301.63 746.485,1303.31 747.79,1319.34 749.095,1329.05 750.4,1323.83 751.704,1319.81 753.009,1318.21 754.314,1307.62 755.619,1296.33 756.924,1283.58 758.229,1270.09 759.533,1256.61 760.838,1243.88 762.143,1232.65 763.448,1223.63 764.753,1217.28 766.057,1213.92 767.362,1213.74 768.667,1216.78 769.972,1222.8 771.277,1231.44 772.581,1242.29 773.886,1254.75 775.191,1267.95 776.496,1281.14 777.801,1293.65 779.105,1304.55 780.41,1313.1 781.715,1318.84 783.02,1321.4 784.325,1320.52 785.63,1316.25 786.934,1308.99 788.239,1299.27 789.544,1287.61 790.849,1274.86 792.154,1261.99 793.458,1249.57 794.763,1238.39 796.068,1229.13 797.373,1222.21 798.678,1217.96 799.982,1216.7 801.287,1218.47 802.592,1223.09 803.897,1230.32 805.202,1239.88 806.507,1251.12 807.811,1263.23 809.116,1275.71 810.421,1287.89 811.726,1298.62 813.031,1307.42 814.335,1313.89 815.64,1317.41 816.945,1317.71 818.25,1314.93 819.555,1309.22 820.859,1300.78 822.164,1290.35 823.469,1278.92 824.774,1266.87 826.079,1254.68 827.383,1243.83 828.688,1234.55 829.993,1227.05 831.298,1222.05 832.603,1219.91 833.908,1220.48 835.212,1223.72 836.517,1229.81 837.822,1238.22 839.127,1247.98 840.432,1258.97 841.736,1271.1 843.041,1282.47 844.346,1292.89 845.651,1302.14 846.956,1309.16 848.26,1313.33 849.565,1314.79 850.87,1313.41 852.175,1308.77 853.48,1301.49 854.785,1292.8 856.089,1282.56 857.394,1270.66 858.699,1259.58 860.004,1249.2 861.309,1239.45 862.613,1231.6 863.918,1226.29 865.223,1223.23 866.528,1222.75 867.833,1225.15 869.137,1229.97 870.442,1236.66 871.747,1245.46 873.052,1255.87 874.357,1266.31 875.661,1276.76 876.966,1287.86 878.271,1297.54 879.576,1303.58 880.881,1308.13 882.186,1312.3 883.49,1311.66 884.795,1306.87 886.1,1301.91 887.405,1295.7 888.71,1284.31 890.014,1272.24 891.319,1265.26 892.624,1256.36 893.929,1242.97 895.234,1236.34 896.538,1235.76 897.843,1227.34 899.148,1219.09 900.453,1227.04 901.758,1234.35 903.063,1235.21 904.367,1242.01 905.672,1254.44 906.977,1263.86 908.282,1272.62 909.587,1284.83 910.891,1294.32 912.196,1296.97 913.501,1302.47 914.806,1312.1 916.111,1308.45 917.415,1302.99 918.72,1302.3 920.025,1296.99 921.33,1286.07 922.635,1276.77 923.939,1268.23 925.244,1256.95 926.549,1246.87 927.854,1242.32 929.159,1236.86 930.464,1227.66 931.768,1228.27 933.073,1231.04 934.378,1230.94 935.683,1234.59 936.988,1243.05 938.292,1251.16 939.597,1259.25 940.902,1269.81 942.207,1280.1 943.512,1286.6 944.816,1293.39 946.121,1302.65 947.426,1304.65 948.731,1304.28 950.036,1305.05 951.341,1302.44 952.645,1295.69 953.95,1288.44 955.255,1280.68 956.56,1270.86 957.865,1260.94 959.169,1253.57 960.474,1246.24 961.779,1237.38 963.084,1233.76 964.389,1232.2 965.693,1230.42 966.998,1231.5 968.303,1236.04 969.608,1241.63 970.913,1248.27 972.217,1256.96 973.522,1266.29 974.827,1274.3 976.132,1282.47 977.437,1291.62 978.742,1297.01 980.046,1300.49 981.351,1303.43 982.656,1303.68 983.961,1300.77 985.266,1296.6 986.57,1290.48 987.875,1283.08 989.18,1274.84 990.485,1266.22 991.79,1257.68 993.094,1249.77 994.399,1242.98 995.704,1237.69 997.009,1234.18 998.314,1232.7 999.619,1233.32 1000.92,1235.9 1002.23,1240.32 1003.53,1246.44 1004.84,1253.75 1006.14,1261.69 1007.45,1270.23 1008.75,1278.91 1010.06,1286.05 1011.36,1292.33 1012.67,1297.79 1013.97,1300.41 1015.28,1300.17 1016.58,1299.6 1017.89,1297.62 1019.19,1291.04 1020.5,1283.18 1021.8,1277.32 1023.11,1270.02 1024.41,1260.85 1025.71,1253.12 1027.02,1247.11 1028.32,1241.47 1029.63,1237.12 1030.93,1235.33 1032.24,1235.51 1033.54,1236.57 1034.85,1239.82 1036.15,1246.1 1037.46,1252.6 1038.76,1258.92 1040.07,1267.15 1041.37,1276.11 1042.68,1282.16 1043.98,1287.19 1045.29,1294.56 1046.59,1299.11 1047.9,1297.73 1049.2,1297.95 1050.51,1299.39 1051.81,1291.75 1053.12,1283.92 1054.42,1279.9 1055.73,1273.14 1057.03,1263.64 1058.34,1256.42 1059.64,1250.59 1060.94,1243.78 1062.25,1239.1 1063.55,1239.03 1064.86,1238.4 1066.16,1235.81 1067.47,1240.62 1068.77,1246.72 1070.08,1250.32 1071.38,1256.22 1072.69,1264.85 1073.99,1272.24 1075.3,1278.63 1076.6,1285.78 1077.91,1291.58 1079.21,1293.63 1080.52,1295.25 1081.82,1298.12 1083.13,1295.2 1084.43,1290.6 1085.74,1287.21 1087.04,1281.81 1088.35,1274.05 1089.65,1266.87 1090.96,1260.31 1092.26,1253.22 1093.56,1247.07 1094.87,1243.75 1096.17,1241.13 1097.48,1237.93 1098.78,1239.1 1100.09,1241.94 1101.39,1244.49 1102.7,1248.93 1104,1255.5 1105.31,1262.15 1106.61,1268.73 1107.92,1275.9 1109.22,1282.52 1110.53,1287.12 1111.83,1290.93 1113.14,1294.72 1114.44,1295.62 1115.75,1293.71 1117.05,1291.64 1118.36,1288.76 1119.66,1282.17 1120.97,1274.71 1122.27,1270.5 1123.58,1264.89 1124.88,1255.61 1126.19,1250.67 1127.49,1249.86 1128.79,1243 1130.1,1238.89 1131.4,1241.23 1132.71,1243.08 1134.01,1243.93 1135.32,1248.69 1136.62,1253.8 1137.93,1259.66 1139.23,1265.94 1140.54,1272.3 1141.84,1278.4 1143.15,1283.84 1144.45,1288.23 1145.76,1291.32 1147.06,1292.92 1148.37,1292.89 1149.67,1291.24 1150.98,1288.12 1152.28,1283.75 1153.59,1278.36 1154.89,1272.31 1156.2,1266.07 1157.5,1259.96 1158.81,1254.26 1160.11,1249.42 1161.42,1245.71 1162.72,1243.28 1164.02,1242.25 1165.33,1242.75 1166.63,1244.73 1167.94,1248.01 1169.24,1252.43 1170.55,1257.8 1171.85,1263.69 1173.16,1269.69 1174.46,1275.63 1175.77,1281.03 1177.07,1285.5 1178.38,1288.85 1179.68,1290.9 1180.99,1291.44 1182.29,1290.44 1183.6,1288.02 1184.9,1284.31 1186.21,1279.54 1187.51,1274.08 1188.82,1268.28 1190.12,1262.41 1191.43,1256.87 1192.73,1252.19 1194.04,1248.39 1195.34,1245.52 1196.64,1244.03 1197.95,1244.22 1199.25,1245.57 1200.56,1247.87 1201.86,1251.77 1203.17,1256.92 1204.47,1261.89 1205.78,1266.97 1207.08,1273.25 1208.39,1278.32 1209.69,1282.49 1211,1286.3 1212.3,1288.83 1213.61,1289.62 1214.91,1289.25 1216.22,1287.79 1217.52,1284.51 1218.83,1279.96 1220.13,1275.58 1221.44,1270.73 1222.74,1264.36 1224.05,1259.37 1225.35,1255.05 1226.66,1250.66 1227.96,1247.46 1229.27,1245.96 1230.57,1245.38 1231.87,1245.75 1233.18,1248.16 1234.48,1251.94 1235.79,1255.37 1237.09,1259.56 1238.4,1265.99 1239.7,1270.85 1241.01,1275.29 1242.31,1280.35 1243.62,1284.33 1244.92,1286.54 1246.23,1287.9 1247.53,1288.26 1248.84,1286.89 1250.14,1284.22 1251.45,1281.18 1252.75,1277.14 1254.06,1271.53 1255.36,1266.25 1256.67,1261.68 1257.97,1257.1 1259.28,1252.82 1260.58,1249.7 1261.89,1247.73 1263.19,1246.68 1264.5,1246.84 1265.8,1248.58 1267.1,1251.31 1268.41,1254.48 1269.71,1258.75 1271.02,1264.13 1272.32,1268.75 1273.63,1273.3 1274.93,1278.07 1276.24,1281.96 1277.54,1284.57 1278.85,1286.34 1280.15,1287.03 1281.46,1286.23 1282.76,1284.26 1284.07,1281.63 1285.37,1277.91 1286.68,1273.05 1287.98,1268.33 1289.29,1263.74 1290.59,1259.18 1291.9,1255.05 1293.2,1251.8 1294.51,1249.46 1295.81,1248.11 1297.12,1247.93 1298.42,1249.01 1299.73,1251.08 1301.03,1254 1302.33,1257.87 1303.64,1262.39 1304.94,1266.89 1306.25,1271.43 1307.55,1275.88 1308.86,1279.71 1310.16,1282.66 1311.47,1284.74 1312.77,1285.69 1314.08,1285.37 1315.38,1284.05 1316.69,1281.8 1317.99,1278.43 1319.3,1274.3 1320.6,1270.13 1321.91,1265.85 1323.21,1260.8 1324.52,1257.1 1325.82,1254.77 1327.13,1251.37 1328.43,1248.44 1329.74,1249.16 1331.04,1250.41 1332.35,1251.06 1333.65,1253.41 1334.95,1257.36 1336.26,1261.17 1337.56,1265.15 1338.87,1269.95 1340.17,1274.27 1341.48,1277.15 1342.78,1280.27 1344.09,1283.76 1345.39,1284.25 1346.7,1283.81 1348,1283.65 1349.31,1282.02 1350.61,1278.75 1351.92,1275.28 1353.22,1271.57 1354.53,1267.07 1355.83,1262.69 1357.14,1259.38 1358.44,1256.12 1359.75,1252.49 1361.05,1251.13 1362.36,1250.72 1363.66,1250.35 1364.97,1251.27 1366.27,1253.67 1367.58,1256.53 1368.88,1259.83 1370.18,1263.93 1371.49,1268.19 1372.79,1271.81 1374.1,1275.39 1375.4,1279.21 1376.71,1281.33 1378.01,1282.56 1379.32,1283.47 1380.62,1283.18 1381.93,1281.52 1383.23,1279.33 1384.54,1276.33 1385.84,1272.82 1387.15,1269 1388.45,1265.08 1389.76,1261.28 1391.06,1257.83 1392.37,1254.95 1393.67,1252.82 1394.98,1251.54 1396.28,1251.22 1397.59,1251.87 1398.89,1253.41 1400.2,1255.75 1401.5,1258.8 1402.81,1262.32 1404.11,1266.02 1405.41,1269.89 1406.72,1273.72 1408.02,1276.76 1409.33,1279.32 1410.63,1281.45 1411.94,1282.28 1413.24,1281.81 1414.55,1281.19 1415.85,1279.98 1417.16,1276.78 1418.46,1273.03 1419.77,1270.25 1421.07,1266.91 1422.38,1262.79 1423.68,1259.39 1424.99,1256.83 1426.29,1254.5 1427.6,1252.81 1428.9,1252.31 1430.21,1252.74 1431.51,1253.57 1432.82,1255.36 1434.12,1258.48 1435.43,1261.65 1436.73,1264.65 1438.03,1268.41 1439.34,1272.41 1440.64,1275 1441.95,1277.03 1443.25,1280.08 1444.56,1281.82 1445.86,1280.84 1447.17,1280.6 1448.47,1280.98 1449.78,1277.24 1451.08,1273.48 1452.39,1271.55 1453.69,1268.43 1455,1264.11 1456.3,1260.92 1457.61,1258.41 1458.91,1255.52 1460.22,1253.64 1461.52,1253.91 1462.83,1253.94 1464.13,1253.07 1465.44,1255.58 1466.74,1258.63 1468.05,1260.48 1469.35,1263.3 1470.66,1267.29 1471.96,1270.62 1473.26,1273.39 1474.57,1276.45 1475.87,1278.82 1477.18,1279.43 1478.48,1279.84 1479.79,1280.84 1481.09,1279.21 1482.4,1276.86 1483.7,1275.12 1485.01,1272.53 1486.31,1268.92 1487.62,1265.65 1488.92,1262.72 1490.23,1259.61 1491.53,1256.99 1492.84,1255.71 1494.14,1254.79 1495.45,1253.62 1496.75,1254.08 1498.06,1255.98 1499.36,1257.53 1500.67,1259.23 1501.97,1262.99 1503.28,1266.93 1504.58,1268.46 1505.89,1270.79 1507.19,1275.37 1508.49,1277.06 1509.8,1276.16 1511.1,1279.29 1512.41,1280.81 1513.71,1278.42 1515.02,1276.65 1516.32,1275.87 1517.63,1272.92 1518.93,1270.1 1520.24,1267.13 1521.54,1264.18 1522.85,1261.56 1524.15,1259.29 1525.46,1257.57 1526.76,1256.39 1528.07,1255.79 1529.37,1255.85 1530.68,1256.55 1531.98,1257.85 1533.29,1259.69 1534.59,1261.96 1535.9,1264.53 1537.2,1267.24 1538.51,1269.93 1539.81,1272.44 1541.12,1274.61 1542.42,1276.3 1543.72,1277.42 1545.03,1277.88 1546.33,1277.67 1547.64,1276.8 1548.94,1275.34 1550.25,1273.38 1551.55,1271.03 1552.86,1268.46 1554.16,1265.85 1555.47,1263.28 1556.77,1260.93 1558.08,1259.1 1559.38,1257.74 1560.69,1256.77 1561.99,1256.47 1563.3,1257.03 1564.6,1258.05 1565.91,1259.34 1567.21,1261.39 1568.52,1264.06 1569.82,1266.31 1571.13,1268.65 1572.43,1271.27 1573.74,1273.47 1575.04,1275.06 1576.34,1276.31 1577.65,1277.05 1578.95,1277 1580.26,1276.37 1581.56,1275.4 1582.87,1273.76 1584.17,1271.41 1585.48,1269.14 1586.78,1266.9 1588.09,1264.36 1589.39,1261.93 1590.7,1260.28 1592,1258.95 1593.31,1257.46 1594.61,1256.94 1595.92,1257.6 1597.22,1258.17 1598.53,1258.85 1599.83,1261.17 1601.14,1263.99 1602.44,1265.17 1603.75,1266.83 1605.05,1270.61 1606.36,1272.39 1607.66,1272.11 1608.97,1275.27 1610.27,1277.26 1611.57,1276.09 1612.88,1275.42 1614.18,1275.54 1615.49,1273.8 1616.79,1272.03 1618.1,1269.99 1619.4,1267.78 1620.71,1265.54 1622.01,1263.37 1623.32,1261.43 1624.62,1259.83 1625.93,1258.67 1627.23,1258.01 1628.54,1257.91 1629.84,1258.36 1631.15,1259.32 1632.45,1260.74 1633.76,1262.55 1635.06,1264.61 1636.37,1266.76 1637.67,1268.93 1638.98,1271.04 1640.28,1272.81 1641.59,1274.13 1642.89,1275.27 1644.2,1275.97 1645.5,1275.38 1646.8,1274.4 1648.11,1273.96 1649.41,1272.44 1650.72,1270.35 1652.02,1268.52 1653.33,1266.57 1654.63,1264.33 1655.94,1262.37 1657.24,1260.86 1658.55,1259.61 1659.85,1258.76 1661.16,1258.53 1662.46,1258.8 1663.77,1259.37 1665.07,1260.51 1666.38,1262.28 1667.68,1264.11 1668.99,1265.94 1670.29,1268.08 1671.6,1270.24 1672.9,1271.79 1674.21,1273.07 1675.51,1274.55 1676.82,1275.31 1678.12,1274.97 1679.42,1274.72 1680.73,1274.43 1682.03,1272.63 1683.34,1270.68 1684.64,1269.25 1685.95,1267.37 1687.25,1265.12 1688.56,1263.29 1689.86,1261.78 1691.17,1260.3 1692.47,1259.34 1693.78,1259.27 1695.08,1259.33 1696.39,1259.3 1697.69,1260.42 1699,1262.49 1700.3,1263.58 1701.61,1265.02 1702.91,1267.39 1704.22,1269.4 1705.52,1270.83 1706.83,1272.35 1708.13,1273.66 1709.44,1274.22 1710.74,1274.42 1712.05,1274.65 1713.35,1274.06 1714.65,1272.4 1715.96,1271.34 1717.26,1269.98 1718.57,1267.83 1719.87,1265.85 1721.18,1264.29 1722.48,1262.67 1723.79,1261.2 1725.09,1260.33 1726.4,1259.84 1727.7,1259.41 1729.01,1259.65 1730.31,1260.83 1731.62,1261.92 1732.92,1263.01 1734.23,1264.84 1735.53,1266.97 1736.84,1268.3 1738.14,1269.62 1739.45,1271.93 1740.75,1273.41 1742.06,1273.34 1743.36,1274.03 1744.67,1275.16 1745.97,1273.65 1747.28,1272.14 1748.58,1271.75 1749.88,1270.46 1751.19,1268.23 1752.49,1266.55 1753.8,1265.09 1755.1,1263.14 1756.41,1261.64 1757.71,1261.35 1759.02,1260.71 1760.32,1259.35 1761.63,1260.13 1762.93,1261.23 1764.24,1261.55 1765.54,1262.58 1766.85,1264.5 1768.15,1266.14 1769.46,1267.62 1770.76,1269.49 1772.07,1271.14 1773.37,1271.86 1774.68,1272.65 1775.98,1273.99 1777.29,1273.73 1778.59,1273.06 1779.9,1272.82 1781.2,1271.98 1782.51,1270.38 1783.81,1268.86 1785.11,1267.4 1786.42,1265.61 1787.72,1263.93 1789.03,1262.92 1790.33,1261.93 1791.64,1260.6 1792.94,1260.46 1794.25,1260.72 1795.55,1260.81 1796.86,1261.43 1798.16,1262.7 1799.47,1264.03 1800.77,1265.42 1802.08,1267.11 1803.38,1268.78 1804.69,1270 1805.99,1271.18 1807.3,1272.54 1808.6,1273.02 1809.91,1273.12 1811.21,1273.21 1812.52,1272.81 1813.82,1271.85 1815.13,1270.71 1816.43,1269.43 1817.73,1267.87 1819.04,1266.25 1820.34,1264.91 1821.65,1263.61 1822.95,1262.22 1824.26,1261.48 1825.56,1261.08 1826.87,1260.79 1828.17,1260.95 1829.48,1261.61 1830.78,1262.46 1832.09,1263.6 1833.39,1264.93 1834.7,1266.37 1836,1267.85 1837.31,1269.27 1838.61,1270.56 1839.92,1271.62 1841.22,1272.39 1842.53,1272.83 1843.83,1272.91 1845.14,1272.61 1846.44,1271.97 1847.75,1271.04 1849.05,1269.84 1850.36,1268.48 1851.66,1267.08 1852.96,1265.65 1854.27,1264.23 1855.57,1263.11 1856.88,1262.29 1858.18,1261.55 1859.49,1261.11 1860.79,1261.36 1862.1,1261.87 1863.4,1262.39 1864.71,1263.29 1866.01,1264.59 1867.32,1265.92 1868.62,1267.23 1869.93,1268.64 1871.23,1269.98 1872.54,1270.94 1873.84,1271.68 1875.15,1272.39 1876.45,1272.64 1877.76,1272.28 1879.06,1271.86 1880.37,1271.35 1881.67,1270.07 1882.98,1268.51 1884.28,1267.66 1885.59,1266.66 1886.89,1264.71 1888.19,1263.68 1889.5,1263.65 1890.8,1262.12 1892.11,1261.18 1893.41,1261.74 1894.72,1262.14 1896.02,1262.23 1897.33,1263.21 1898.63,1264.24 1899.94,1265.42 1901.24,1266.68 1902.55,1267.96 1903.85,1269.18 1905.16,1270.26 1906.46,1271.14 1907.77,1271.76 1909.07,1272.09 1910.38,1272.1 1911.68,1271.78 1912.99,1271.18 1914.29,1270.33 1915.6,1269.26 1916.9,1268.06 1918.21,1266.83 1919.51,1265.6 1920.81,1264.39 1922.12,1263.45 1923.42,1262.79 1924.73,1262.19 1926.03,1261.86 1927.34,1262.13 1928.64,1262.63 1929.95,1263.12 1931.25,1263.94 1932.56,1265.1 1933.86,1266.27 1935.17,1267.41 1936.47,1268.62 1937.78,1269.76 1939.08,1270.56 1940.39,1271.15 1941.69,1271.72 1943,1271.89 1944.3,1271.52 1945.61,1271.11 1946.91,1270.63 1948.22,1269.48 1949.52,1268.1 1950.83,1267.36 1952.13,1266.49 1953.44,1264.81 1954.74,1263.94 1956.04,1263.97 1957.35,1262.67 1958.65,1261.9 1959.96,1262.45 1961.26,1262.84 1962.57,1262.96 1963.87,1263.85 1965.18,1264.78 1966.48,1265.82 1967.79,1266.92 1969.09,1268.02 1970.4,1269.06 1971.7,1269.98 1973.01,1270.7 1974.31,1271.2 1975.62,1271.44 1976.92,1271.39 1978.23,1271.07 1979.53,1270.5 1980.84,1269.73 1982.14,1268.78 1983.45,1267.72 1984.75,1266.65 1986.06,1265.59 1987.36,1264.56 1988.67,1263.77 1989.97,1263.24 1991.27,1262.76 1992.58,1262.52 1993.88,1262.8 1995.19,1263.28 1996.49,1263.75 1997.8,1264.49 1999.1,1265.52 2000.41,1266.54 2001.71,1267.53 2003.02,1268.59 2004.32,1269.49 2005.63,1270.13 2006.93,1270.73 2008.24,1271.19 2009.54,1271.12 2010.85,1270.73 2012.15,1270.47 2013.46,1269.91 2014.76,1268.95 2016.07,1267.99 2017.37,1267.07 2018.68,1266.05 2019.98,1265.06 2021.29,1264.29 2022.59,1263.64 2023.9,1263.06 2025.2,1262.85 2026.5,1263.05 2027.81,1263.25 2029.11,1263.65 2030.42,1264.42 2031.72,1265.32 2033.03,1266.11 2034.33,1267.07 2035.64,1268.28 2036.94,1269.11 2038.25,1269.69 2039.55,1270.36 2040.86,1270.88 2042.16,1270.77 2043.47,1270.52 2044.77,1270.41 2046.08,1269.95 2047.38,1269.1 2048.69,1268.25 2049.99,1267.41 2051.3,1266.44 2052.6,1265.5 2053.91,1264.75 2055.21,1264.07 2056.52,1263.43 2057.82,1263.18 2059.12,1263.31 2060.43,1263.35 2061.73,1263.64 2063.04,1264.33 2064.34,1265.1 2065.65,1265.87 2066.95,1266.81 2068.26,1267.74 2069.56,1268.52 2070.87,1269.3 2072.17,1270.06 2073.48,1270.41 2074.78,1270.43 2076.09,1270.57 2077.39,1270.43 2078.7,1269.87 2080,1269.23 2081.31,1268.56 2082.61,1267.67 2083.92,1266.76 2085.22,1265.99 2086.53,1265.15 2087.83,1264.29 2089.14,1263.85 2090.44,1263.72 2091.75,1263.41 2093.05,1263.38 2094.35,1263.81 2095.66,1264.32 2096.96,1264.86 2098.27,1265.63 2099.57,1266.52 2100.88,1267.32 2102.18,1268.13 2103.49,1269.02 2104.79,1269.65 2106.1,1269.93 2107.4,1270.31 2108.71,1270.47 2110.01,1270.22 2111.32,1269.84 2112.62,1269.4 2113.93,1268.71 2115.23,1267.92 2116.54,1267.16 2117.84,1266.32 2119.15,1265.4 2120.45,1264.75 2121.76,1264.36 2123.06,1263.84 2124.37,1263.55 2125.67,1263.66 2126.98,1263.89 2128.28,1264.2 2129.58,1264.77 2130.89,1265.44 2132.19,1266.19 2133.5,1266.99 2134.8,1267.77 2136.11,1268.51 2137.41,1269.16 2138.72,1269.67 2140.02,1270.01 2141.33,1270.17 2142.63,1270.12 2143.94,1269.87 2145.24,1269.46 2146.55,1268.89 2147.85,1268.2 2149.16,1267.44 2150.46,1266.67 2151.77,1265.92 2153.07,1265.18 2154.38,1264.63 2155.68,1264.26 2156.99,1263.93 2158.29,1263.77 2159.6,1263.99 2160.9,1264.34 2162.2,1264.69 2163.51,1265.23 2164.81,1265.97 2166.12,1266.71 2167.42,1267.42 2168.73,1268.18 2170.03,1268.81 2171.34,1269.26 2172.64,1269.68 2173.95,1270 2175.25,1269.93 2176.56,1269.64 2177.86,1269.44 2179.17,1269.03 2180.47,1268.33 2181.78,1267.64 2183.08,1266.98 2184.39,1266.25 2185.69,1265.54 2187,1265 2188.3,1264.54 2189.61,1264.14 2190.91,1264 2192.22,1264.16 2193.52,1264.32 2194.83,1264.61 2196.13,1265.17 2197.43,1265.83 2198.74,1266.4 2200.04,1267.09 2201.35,1267.95 2202.65,1268.54 2203.96,1268.95 2205.26,1269.42 2206.57,1269.78 2207.87,1269.69 2209.18,1269.49 2210.48,1269.4 2211.79,1269.06 2213.09,1268.44 2214.4,1267.83 2215.7,1267.23 2217.01,1266.53 2218.31,1265.86 2219.62,1265.33 2220.92,1264.85 2222.23,1264.4 2223.53,1264.23 2224.84,1264.34 2226.14,1264.38 2227.45,1264.6 2228.75,1265.11 2230.06,1265.67 2231.36,1266.22 2232.66,1266.9 2233.97,1267.57 2235.27,1268.12 2236.58,1268.67 2237.88,1269.2 2239.19,1269.45 2240.49,1269.44 2241.8,1269.53 2243.1,1269.43 2244.41,1269.01 2245.71,1268.54 2247.02,1268.06 2248.32,1267.41 2249.63,1266.77 2250.93,1266.22 2252.24,1265.62 2253.54,1265 2254.85,1264.7 2256.15,1264.62 2257.46,1264.4 2258.76,1264.39 2260.07,1264.71 2261.37,1265.09 2262.68,1265.49 2263.98,1266.05 2265.29,1266.68 2266.59,1267.26 2267.89,1267.84 2269.2,1268.47 2270.5,1268.91 2271.81,1269.1 2273.11,1269.36 2274.42,1269.47 2275.72,1269.28 2277.03,1269 2278.33,1268.67 2279.64,1268.17 2280.94,1267.54 2282.25,1267.01 2283.55,1266.43 2284.86,1265.76 2286.16,1265.31 2287.47,1265.1 2288.77,1264.74 2290.08,1264.56 2291.38,1264.61 2292.69,1264.75 2293.99,1265 2294.04,1265.03 "/>
<path clip-path="url(#clip980)" d="M1994.96 196.789 L2283.6 196.789 L2283.6 93.1086 L1994.96 93.1086  Z" fill="#ffffff" fill-rule="evenodd" fill-opacity="1"/>
<polyline clip-path="url(#clip980)" style="stroke:#000000; stroke-linecap:round; stroke-linejoin:round; stroke-width:4; stroke-opacity:1; fill:none" points="1994.96,196.789 2283.6,196.789 2283.6,93.1086 1994.96,93.1086 1994.96,196.789 "/>
<polyline clip-path="url(#clip980)" style="stroke:#009af9; stroke-linecap:round; stroke-linejoin:round; stroke-width:4; stroke-opacity:1; fill:none" points="2018.01,144.949 2156.32,144.949 "/>
<path clip-path="url(#clip980)" d="M2192.56 162.229 L2179.37 127.669 L2184.25 127.669 L2195.2 156.766 L2206.17 127.669 L2211.04 127.669 L2197.86 162.229 L2192.56 162.229 Z" fill="#000000" fill-rule="nonzero" fill-opacity="1" /><path clip-path="url(#clip980)" d="M2235.6 170.099 L2235.6 173.409 L2210.97 173.409 L2210.97 170.099 L2235.6 170.099 Z" fill="#000000" fill-rule="nonzero" fill-opacity="1" /><path clip-path="url(#clip980)" d="M2244.23 158.293 L2260.55 158.293 L2260.55 162.229 L2238.6 162.229 L2238.6 158.293 Q2241.27 155.539 2245.85 150.909 Q2250.46 146.256 2251.64 144.914 Q2253.88 142.391 2254.76 140.655 Q2255.67 138.895 2255.67 137.206 Q2255.67 134.451 2253.72 132.715 Q2251.8 130.979 2248.7 130.979 Q2246.5 130.979 2244.04 131.743 Q2241.61 132.507 2238.84 134.057 L2238.84 129.335 Q2241.66 128.201 2244.11 127.622 Q2246.57 127.044 2248.6 127.044 Q2253.98 127.044 2257.17 129.729 Q2260.36 132.414 2260.36 136.905 Q2260.36 139.034 2259.55 140.956 Q2258.77 142.854 2256.66 145.446 Q2256.08 146.118 2252.98 149.335 Q2249.88 152.53 2244.23 158.293 Z" fill="#000000" fill-rule="nonzero" fill-opacity="1" /></svg>
