<?xml version="1.0" encoding="utf-8"?>
<svg xmlns="http://www.w3.org/2000/svg" xmlns:xlink="http://www.w3.org/1999/xlink" width="600" height="400" viewBox="0 0 2400 1600">
<defs>
  <clipPath id="clip160">
    <rect x="0" y="0" width="2400" height="1600"/>
  </clipPath>
</defs>
<path clip-path="url(#clip160)" d="M0 1600 L2400 1600 L2400 0 L0 0  Z" fill="#ffffff" fill-rule="evenodd" fill-opacity="1"/>
<defs>
  <clipPath id="clip161">
    <rect x="250" y="47" width="2104" height="1377"/>
  </clipPath>
</defs>
<path clip-path="url(#clip160)" d="M250.028 1423.18 L2352.76 1423.18 L2352.76 47.2441 L250.028 47.2441  Z" fill="#ffffff" fill-rule="evenodd" fill-opacity="1"/>
<polyline clip-path="url(#clip161)" style="stroke:#000000; stroke-linecap:round; stroke-linejoin:round; stroke-width:2; stroke-opacity:0.1; fill:none" points="309.539,1423.18 309.539,47.2441 "/>
<polyline clip-path="url(#clip161)" style="stroke:#000000; stroke-linecap:round; stroke-linejoin:round; stroke-width:2; stroke-opacity:0.1; fill:none" points="970.774,1423.18 970.774,47.2441 "/>
<polyline clip-path="url(#clip161)" style="stroke:#000000; stroke-linecap:round; stroke-linejoin:round; stroke-width:2; stroke-opacity:0.1; fill:none" points="1632.01,1423.18 1632.01,47.2441 "/>
<polyline clip-path="url(#clip161)" style="stroke:#000000; stroke-linecap:round; stroke-linejoin:round; stroke-width:2; stroke-opacity:0.1; fill:none" points="2293.24,1423.18 2293.24,47.2441 "/>
<polyline clip-path="url(#clip161)" style="stroke:#000000; stroke-linecap:round; stroke-linejoin:round; stroke-width:2; stroke-opacity:0.1; fill:none" points="250.028,1323.53 2352.76,1323.53 "/>
<polyline clip-path="url(#clip161)" style="stroke:#000000; stroke-linecap:round; stroke-linejoin:round; stroke-width:2; stroke-opacity:0.1; fill:none" points="250.028,1027.51 2352.76,1027.51 "/>
<polyline clip-path="url(#clip161)" style="stroke:#000000; stroke-linecap:round; stroke-linejoin:round; stroke-width:2; stroke-opacity:0.1; fill:none" points="250.028,731.484 2352.76,731.484 "/>
<polyline clip-path="url(#clip161)" style="stroke:#000000; stroke-linecap:round; stroke-linejoin:round; stroke-width:2; stroke-opacity:0.1; fill:none" points="250.028,435.46 2352.76,435.46 "/>
<polyline clip-path="url(#clip161)" style="stroke:#000000; stroke-linecap:round; stroke-linejoin:round; stroke-width:2; stroke-opacity:0.1; fill:none" points="250.028,139.437 2352.76,139.437 "/>
<polyline clip-path="url(#clip160)" style="stroke:#000000; stroke-linecap:round; stroke-linejoin:round; stroke-width:4; stroke-opacity:1; fill:none" points="250.028,1423.18 2352.76,1423.18 "/>
<polyline clip-path="url(#clip160)" style="stroke:#000000; stroke-linecap:round; stroke-linejoin:round; stroke-width:4; stroke-opacity:1; fill:none" points="309.539,1423.18 309.539,1404.28 "/>
<polyline clip-path="url(#clip160)" style="stroke:#000000; stroke-linecap:round; stroke-linejoin:round; stroke-width:4; stroke-opacity:1; fill:none" points="970.774,1423.18 970.774,1404.28 "/>
<polyline clip-path="url(#clip160)" style="stroke:#000000; stroke-linecap:round; stroke-linejoin:round; stroke-width:4; stroke-opacity:1; fill:none" points="1632.01,1423.18 1632.01,1404.28 "/>
<polyline clip-path="url(#clip160)" style="stroke:#000000; stroke-linecap:round; stroke-linejoin:round; stroke-width:4; stroke-opacity:1; fill:none" points="2293.24,1423.18 2293.24,1404.28 "/>
<path clip-path="url(#clip160)" d="M309.539 1454.1 Q305.928 1454.1 304.1 1457.66 Q302.294 1461.2 302.294 1468.33 Q302.294 1475.44 304.1 1479.01 Q305.928 1482.55 309.539 1482.55 Q313.174 1482.55 314.979 1479.01 Q316.808 1475.44 316.808 1468.33 Q316.808 1461.2 314.979 1457.66 Q313.174 1454.1 309.539 1454.1 M309.539 1450.39 Q315.349 1450.39 318.405 1455 Q321.484 1459.58 321.484 1468.33 Q321.484 1477.06 318.405 1481.67 Q315.349 1486.25 309.539 1486.25 Q303.729 1486.25 300.65 1481.67 Q297.595 1477.06 297.595 1468.33 Q297.595 1459.58 300.65 1455 Q303.729 1450.39 309.539 1450.39 Z" fill="#000000" fill-rule="nonzero" fill-opacity="1" /><path clip-path="url(#clip160)" d="M945.462 1481.64 L953.101 1481.64 L953.101 1455.28 L944.791 1456.95 L944.791 1452.69 L953.055 1451.02 L957.731 1451.02 L957.731 1481.64 L965.369 1481.64 L965.369 1485.58 L945.462 1485.58 L945.462 1481.64 Z" fill="#000000" fill-rule="nonzero" fill-opacity="1" /><path clip-path="url(#clip160)" d="M984.814 1454.1 Q981.203 1454.1 979.374 1457.66 Q977.568 1461.2 977.568 1468.33 Q977.568 1475.44 979.374 1479.01 Q981.203 1482.55 984.814 1482.55 Q988.448 1482.55 990.254 1479.01 Q992.082 1475.44 992.082 1468.33 Q992.082 1461.2 990.254 1457.66 Q988.448 1454.1 984.814 1454.1 M984.814 1450.39 Q990.624 1450.39 993.679 1455 Q996.758 1459.58 996.758 1468.33 Q996.758 1477.06 993.679 1481.67 Q990.624 1486.25 984.814 1486.25 Q979.004 1486.25 975.925 1481.67 Q972.869 1477.06 972.869 1468.33 Q972.869 1459.58 975.925 1455 Q979.004 1450.39 984.814 1450.39 Z" fill="#000000" fill-rule="nonzero" fill-opacity="1" /><path clip-path="url(#clip160)" d="M1610.78 1481.64 L1627.1 1481.64 L1627.1 1485.58 L1605.16 1485.58 L1605.16 1481.64 Q1607.82 1478.89 1612.4 1474.26 Q1617.01 1469.61 1618.19 1468.27 Q1620.44 1465.74 1621.32 1464.01 Q1622.22 1462.25 1622.22 1460.56 Q1622.22 1457.8 1620.27 1456.07 Q1618.35 1454.33 1615.25 1454.33 Q1613.05 1454.33 1610.6 1455.09 Q1608.17 1455.86 1605.39 1457.41 L1605.39 1452.69 Q1608.21 1451.55 1610.67 1450.97 Q1613.12 1450.39 1615.16 1450.39 Q1620.53 1450.39 1623.72 1453.08 Q1626.92 1455.77 1626.92 1460.26 Q1626.92 1462.39 1626.11 1464.31 Q1625.32 1466.2 1623.21 1468.8 Q1622.63 1469.47 1619.53 1472.69 Q1616.43 1475.88 1610.78 1481.64 Z" fill="#000000" fill-rule="nonzero" fill-opacity="1" /><path clip-path="url(#clip160)" d="M1646.92 1454.1 Q1643.31 1454.1 1641.48 1457.66 Q1639.67 1461.2 1639.67 1468.33 Q1639.67 1475.44 1641.48 1479.01 Q1643.31 1482.55 1646.92 1482.55 Q1650.55 1482.55 1652.36 1479.01 Q1654.19 1475.44 1654.19 1468.33 Q1654.19 1461.2 1652.36 1457.66 Q1650.55 1454.1 1646.92 1454.1 M1646.92 1450.39 Q1652.73 1450.39 1655.78 1455 Q1658.86 1459.58 1658.86 1468.33 Q1658.86 1477.06 1655.78 1481.67 Q1652.73 1486.25 1646.92 1486.25 Q1641.11 1486.25 1638.03 1481.67 Q1634.97 1477.06 1634.97 1468.33 Q1634.97 1459.58 1638.03 1455 Q1641.11 1450.39 1646.92 1450.39 Z" fill="#000000" fill-rule="nonzero" fill-opacity="1" /><path clip-path="url(#clip160)" d="M2282.09 1466.95 Q2285.44 1467.66 2287.32 1469.93 Q2289.22 1472.2 2289.22 1475.53 Q2289.22 1480.65 2285.7 1483.45 Q2282.18 1486.25 2275.7 1486.25 Q2273.52 1486.25 2271.21 1485.81 Q2268.92 1485.39 2266.46 1484.54 L2266.46 1480.02 Q2268.41 1481.16 2270.72 1481.74 Q2273.04 1482.32 2275.56 1482.32 Q2279.96 1482.32 2282.25 1480.58 Q2284.56 1478.84 2284.56 1475.53 Q2284.56 1472.48 2282.41 1470.77 Q2280.28 1469.03 2276.46 1469.03 L2272.43 1469.03 L2272.43 1465.19 L2276.65 1465.19 Q2280.1 1465.19 2281.93 1463.82 Q2283.75 1462.43 2283.75 1459.84 Q2283.75 1457.18 2281.86 1455.77 Q2279.98 1454.33 2276.46 1454.33 Q2274.54 1454.33 2272.34 1454.75 Q2270.14 1455.16 2267.5 1456.04 L2267.5 1451.88 Q2270.17 1451.14 2272.48 1450.77 Q2274.82 1450.39 2276.88 1450.39 Q2282.2 1450.39 2285.3 1452.83 Q2288.41 1455.23 2288.41 1459.35 Q2288.41 1462.22 2286.76 1464.21 Q2285.12 1466.18 2282.09 1466.95 Z" fill="#000000" fill-rule="nonzero" fill-opacity="1" /><path clip-path="url(#clip160)" d="M2308.08 1454.1 Q2304.47 1454.1 2302.64 1457.66 Q2300.84 1461.2 2300.84 1468.33 Q2300.84 1475.44 2302.64 1479.01 Q2304.47 1482.55 2308.08 1482.55 Q2311.72 1482.55 2313.52 1479.01 Q2315.35 1475.44 2315.35 1468.33 Q2315.35 1461.2 2313.52 1457.66 Q2311.72 1454.1 2308.08 1454.1 M2308.08 1450.39 Q2313.89 1450.39 2316.95 1455 Q2320.03 1459.58 2320.03 1468.33 Q2320.03 1477.06 2316.95 1481.67 Q2313.89 1486.25 2308.08 1486.25 Q2302.27 1486.25 2299.19 1481.67 Q2296.14 1477.06 2296.14 1468.33 Q2296.14 1459.58 2299.19 1455 Q2302.27 1450.39 2308.08 1450.39 Z" fill="#000000" fill-rule="nonzero" fill-opacity="1" /><path clip-path="url(#clip160)" d="M1171.56 1520.52 L1211.76 1520.52 L1211.76 1525.93 L1194.89 1525.93 L1194.89 1568.04 L1188.43 1568.04 L1188.43 1525.93 L1171.56 1525.93 L1171.56 1520.52 Z" fill="#000000" fill-rule="nonzero" fill-opacity="1" /><path clip-path="url(#clip160)" d="M1215.71 1532.4 L1221.57 1532.4 L1221.57 1568.04 L1215.71 1568.04 L1215.71 1532.4 M1215.71 1518.52 L1221.57 1518.52 L1221.57 1525.93 L1215.71 1525.93 L1215.71 1518.52 Z" fill="#000000" fill-rule="nonzero" fill-opacity="1" /><path clip-path="url(#clip160)" d="M1261.57 1539.24 Q1263.77 1535.29 1266.83 1533.41 Q1269.88 1531.54 1274.02 1531.54 Q1279.59 1531.54 1282.61 1535.45 Q1285.64 1539.33 1285.64 1546.53 L1285.64 1568.04 L1279.75 1568.04 L1279.75 1546.72 Q1279.75 1541.59 1277.93 1539.11 Q1276.12 1536.63 1272.4 1536.63 Q1267.84 1536.63 1265.2 1539.65 Q1262.56 1542.68 1262.56 1547.9 L1262.56 1568.04 L1256.67 1568.04 L1256.67 1546.72 Q1256.67 1541.56 1254.86 1539.11 Q1253.04 1536.63 1249.26 1536.63 Q1244.77 1536.63 1242.13 1539.68 Q1239.49 1542.71 1239.49 1547.9 L1239.49 1568.04 L1233.6 1568.04 L1233.6 1532.4 L1239.49 1532.4 L1239.49 1537.93 Q1241.49 1534.66 1244.29 1533.1 Q1247.09 1531.54 1250.94 1531.54 Q1254.83 1531.54 1257.53 1533.51 Q1260.27 1535.48 1261.57 1539.24 Z" fill="#000000" fill-rule="nonzero" fill-opacity="1" /><path clip-path="url(#clip160)" d="M1327.81 1548.76 L1327.81 1551.62 L1300.88 1551.62 Q1301.26 1557.67 1304.51 1560.85 Q1307.79 1564 1313.61 1564 Q1316.99 1564 1320.14 1563.17 Q1323.32 1562.35 1326.44 1560.69 L1326.44 1566.23 Q1323.29 1567.57 1319.98 1568.27 Q1316.67 1568.97 1313.26 1568.97 Q1304.73 1568.97 1299.74 1564 Q1294.77 1559.04 1294.77 1550.57 Q1294.77 1541.82 1299.48 1536.69 Q1304.22 1531.54 1312.25 1531.54 Q1319.44 1531.54 1323.61 1536.18 Q1327.81 1540.8 1327.81 1548.76 M1321.95 1547.04 Q1321.89 1542.23 1319.25 1539.37 Q1316.64 1536.5 1312.31 1536.5 Q1307.41 1536.5 1304.45 1539.27 Q1301.52 1542.04 1301.07 1547.07 L1321.95 1547.04 Z" fill="#000000" fill-rule="nonzero" fill-opacity="1" /><path clip-path="url(#clip160)" d="M1357.6 1518.52 L1371.1 1518.52 L1371.1 1523.07 L1363.46 1523.07 L1363.46 1572.09 L1371.1 1572.09 L1371.1 1576.64 L1357.6 1576.64 L1357.6 1518.52 Z" fill="#000000" fill-rule="nonzero" fill-opacity="1" /><path clip-path="url(#clip160)" d="M1406.3 1533.45 L1406.3 1538.98 Q1403.82 1537.71 1401.14 1537.07 Q1398.47 1536.44 1395.6 1536.44 Q1391.24 1536.44 1389.05 1537.77 Q1386.88 1539.11 1386.88 1541.79 Q1386.88 1543.82 1388.44 1545 Q1390 1546.15 1394.71 1547.2 L1396.72 1547.64 Q1402.96 1548.98 1405.57 1551.43 Q1408.21 1553.85 1408.21 1558.21 Q1408.21 1563.17 1404.26 1566.07 Q1400.35 1568.97 1393.47 1568.97 Q1390.61 1568.97 1387.49 1568.39 Q1384.4 1567.85 1380.96 1566.74 L1380.96 1560.69 Q1384.21 1562.38 1387.36 1563.24 Q1390.51 1564.07 1393.6 1564.07 Q1397.74 1564.07 1399.96 1562.66 Q1402.19 1561.23 1402.19 1558.65 Q1402.19 1556.27 1400.57 1554.99 Q1398.98 1553.72 1393.54 1552.54 L1391.5 1552.07 Q1386.06 1550.92 1383.64 1548.56 Q1381.22 1546.18 1381.22 1542.04 Q1381.22 1537.01 1384.78 1534.27 Q1388.35 1531.54 1394.9 1531.54 Q1398.15 1531.54 1401.02 1532.01 Q1403.88 1532.49 1406.3 1533.45 Z" fill="#000000" fill-rule="nonzero" fill-opacity="1" /><path clip-path="url(#clip160)" d="M1431.22 1518.52 L1431.22 1576.64 L1417.73 1576.64 L1417.73 1572.09 L1425.33 1572.09 L1425.33 1523.07 L1417.73 1523.07 L1417.73 1518.52 L1431.22 1518.52 Z" fill="#000000" fill-rule="nonzero" fill-opacity="1" /><polyline clip-path="url(#clip160)" style="stroke:#000000; stroke-linecap:round; stroke-linejoin:round; stroke-width:4; stroke-opacity:1; fill:none" points="250.028,1423.18 250.028,47.2441 "/>
<polyline clip-path="url(#clip160)" style="stroke:#000000; stroke-linecap:round; stroke-linejoin:round; stroke-width:4; stroke-opacity:1; fill:none" points="250.028,1323.53 268.926,1323.53 "/>
<polyline clip-path="url(#clip160)" style="stroke:#000000; stroke-linecap:round; stroke-linejoin:round; stroke-width:4; stroke-opacity:1; fill:none" points="250.028,1027.51 268.926,1027.51 "/>
<polyline clip-path="url(#clip160)" style="stroke:#000000; stroke-linecap:round; stroke-linejoin:round; stroke-width:4; stroke-opacity:1; fill:none" points="250.028,731.484 268.926,731.484 "/>
<polyline clip-path="url(#clip160)" style="stroke:#000000; stroke-linecap:round; stroke-linejoin:round; stroke-width:4; stroke-opacity:1; fill:none" points="250.028,435.46 268.926,435.46 "/>
<polyline clip-path="url(#clip160)" style="stroke:#000000; stroke-linecap:round; stroke-linejoin:round; stroke-width:4; stroke-opacity:1; fill:none" points="250.028,139.437 268.926,139.437 "/>
<path clip-path="url(#clip160)" d="M126.205 1309.33 Q122.593 1309.33 120.765 1312.89 Q118.959 1316.44 118.959 1323.57 Q118.959 1330.67 120.765 1334.24 Q122.593 1337.78 126.205 1337.78 Q129.839 1337.78 131.644 1334.24 Q133.473 1330.67 133.473 1323.57 Q133.473 1316.44 131.644 1312.89 Q129.839 1309.33 126.205 1309.33 M126.205 1305.63 Q132.015 1305.63 135.07 1310.23 Q138.149 1314.82 138.149 1323.57 Q138.149 1332.29 135.07 1336.9 Q132.015 1341.48 126.205 1341.48 Q120.394 1341.48 117.316 1336.9 Q114.26 1332.29 114.26 1323.57 Q114.26 1314.82 117.316 1310.23 Q120.394 1305.63 126.205 1305.63 Z" fill="#000000" fill-rule="nonzero" fill-opacity="1" /><path clip-path="url(#clip160)" d="M146.366 1334.93 L151.251 1334.93 L151.251 1340.81 L146.366 1340.81 L146.366 1334.93 Z" fill="#000000" fill-rule="nonzero" fill-opacity="1" /><path clip-path="url(#clip160)" d="M161.575 1340.09 L161.575 1335.83 Q163.334 1336.67 165.14 1337.11 Q166.945 1337.55 168.681 1337.55 Q173.311 1337.55 175.741 1334.44 Q178.195 1331.32 178.542 1324.98 Q177.2 1326.97 175.139 1328.03 Q173.079 1329.1 170.579 1329.1 Q165.394 1329.1 162.362 1325.97 Q159.353 1322.82 159.353 1317.38 Q159.353 1312.06 162.501 1308.84 Q165.649 1305.63 170.88 1305.63 Q176.876 1305.63 180.024 1310.23 Q183.195 1314.82 183.195 1323.57 Q183.195 1331.74 179.306 1336.62 Q175.44 1341.48 168.889 1341.48 Q167.13 1341.48 165.325 1341.13 Q163.519 1340.79 161.575 1340.09 M170.88 1325.44 Q174.028 1325.44 175.857 1323.29 Q177.709 1321.13 177.709 1317.38 Q177.709 1313.66 175.857 1311.51 Q174.028 1309.33 170.88 1309.33 Q167.732 1309.33 165.88 1311.51 Q164.052 1313.66 164.052 1317.38 Q164.052 1321.13 165.88 1323.29 Q167.732 1325.44 170.88 1325.44 Z" fill="#000000" fill-rule="nonzero" fill-opacity="1" /><path clip-path="url(#clip160)" d="M204.445 1310.32 L192.639 1328.77 L204.445 1328.77 L204.445 1310.32 M203.218 1306.25 L209.098 1306.25 L209.098 1328.77 L214.028 1328.77 L214.028 1332.66 L209.098 1332.66 L209.098 1340.81 L204.445 1340.81 L204.445 1332.66 L188.843 1332.66 L188.843 1328.15 L203.218 1306.25 Z" fill="#000000" fill-rule="nonzero" fill-opacity="1" /><path clip-path="url(#clip160)" d="M126.529 1013.31 Q122.918 1013.31 121.089 1016.87 Q119.283 1020.41 119.283 1027.54 Q119.283 1034.65 121.089 1038.21 Q122.918 1041.75 126.529 1041.75 Q130.163 1041.75 131.968 1038.21 Q133.797 1034.65 133.797 1027.54 Q133.797 1020.41 131.968 1016.87 Q130.163 1013.31 126.529 1013.31 M126.529 1009.6 Q132.339 1009.6 135.394 1014.21 Q138.473 1018.79 138.473 1027.54 Q138.473 1036.27 135.394 1040.88 Q132.339 1045.46 126.529 1045.46 Q120.718 1045.46 117.64 1040.88 Q114.584 1036.27 114.584 1027.54 Q114.584 1018.79 117.64 1014.21 Q120.718 1009.6 126.529 1009.6 Z" fill="#000000" fill-rule="nonzero" fill-opacity="1" /><path clip-path="url(#clip160)" d="M146.691 1038.91 L151.575 1038.91 L151.575 1044.79 L146.691 1044.79 L146.691 1038.91 Z" fill="#000000" fill-rule="nonzero" fill-opacity="1" /><path clip-path="url(#clip160)" d="M161.899 1044.07 L161.899 1039.81 Q163.658 1040.64 165.464 1041.08 Q167.269 1041.52 169.005 1041.52 Q173.635 1041.52 176.065 1038.42 Q178.519 1035.3 178.866 1028.95 Q177.524 1030.94 175.464 1032.01 Q173.403 1033.07 170.903 1033.07 Q165.718 1033.07 162.686 1029.95 Q159.677 1026.8 159.677 1021.36 Q159.677 1016.04 162.825 1012.82 Q165.973 1009.6 171.204 1009.6 Q177.2 1009.6 180.348 1014.21 Q183.519 1018.79 183.519 1027.54 Q183.519 1035.71 179.63 1040.6 Q175.764 1045.46 169.214 1045.46 Q167.454 1045.46 165.649 1045.11 Q163.843 1044.76 161.899 1044.07 M171.204 1029.42 Q174.352 1029.42 176.181 1027.26 Q178.033 1025.11 178.033 1021.36 Q178.033 1017.63 176.181 1015.48 Q174.352 1013.31 171.204 1013.31 Q168.056 1013.31 166.204 1015.48 Q164.376 1017.63 164.376 1021.36 Q164.376 1025.11 166.204 1027.26 Q168.056 1029.42 171.204 1029.42 Z" fill="#000000" fill-rule="nonzero" fill-opacity="1" /><path clip-path="url(#clip160)" d="M202.5 1025.64 Q199.352 1025.64 197.5 1027.8 Q195.672 1029.95 195.672 1033.7 Q195.672 1037.43 197.5 1039.6 Q199.352 1041.75 202.5 1041.75 Q205.649 1041.75 207.477 1039.6 Q209.329 1037.43 209.329 1033.7 Q209.329 1029.95 207.477 1027.8 Q205.649 1025.64 202.5 1025.64 M211.783 1010.99 L211.783 1015.25 Q210.024 1014.42 208.218 1013.98 Q206.436 1013.54 204.676 1013.54 Q200.047 1013.54 197.593 1016.66 Q195.163 1019.79 194.815 1026.11 Q196.181 1024.09 198.241 1023.03 Q200.301 1021.94 202.778 1021.94 Q207.987 1021.94 210.996 1025.11 Q214.028 1028.26 214.028 1033.7 Q214.028 1039.02 210.88 1042.24 Q207.732 1045.46 202.5 1045.46 Q196.505 1045.46 193.334 1040.88 Q190.163 1036.27 190.163 1027.54 Q190.163 1019.35 194.051 1014.49 Q197.94 1009.6 204.491 1009.6 Q206.25 1009.6 208.033 1009.95 Q209.838 1010.3 211.783 1010.99 Z" fill="#000000" fill-rule="nonzero" fill-opacity="1" /><path clip-path="url(#clip160)" d="M126.783 717.282 Q123.172 717.282 121.343 720.847 Q119.538 724.389 119.538 731.518 Q119.538 738.625 121.343 742.19 Q123.172 745.731 126.783 745.731 Q130.417 745.731 132.223 742.19 Q134.052 738.625 134.052 731.518 Q134.052 724.389 132.223 720.847 Q130.417 717.282 126.783 717.282 M126.783 713.579 Q132.593 713.579 135.649 718.185 Q138.728 722.768 138.728 731.518 Q138.728 740.245 135.649 744.852 Q132.593 749.435 126.783 749.435 Q120.973 749.435 117.894 744.852 Q114.839 740.245 114.839 731.518 Q114.839 722.768 117.894 718.185 Q120.973 713.579 126.783 713.579 Z" fill="#000000" fill-rule="nonzero" fill-opacity="1" /><path clip-path="url(#clip160)" d="M146.945 742.884 L151.829 742.884 L151.829 748.764 L146.945 748.764 L146.945 742.884 Z" fill="#000000" fill-rule="nonzero" fill-opacity="1" /><path clip-path="url(#clip160)" d="M162.153 748.046 L162.153 743.787 Q163.913 744.62 165.718 745.06 Q167.524 745.5 169.26 745.5 Q173.889 745.5 176.32 742.398 Q178.774 739.273 179.121 732.93 Q177.778 734.921 175.718 735.986 Q173.658 737.051 171.158 737.051 Q165.973 737.051 162.94 733.926 Q159.931 730.778 159.931 725.338 Q159.931 720.014 163.079 716.796 Q166.227 713.579 171.459 713.579 Q177.454 713.579 180.602 718.185 Q183.774 722.768 183.774 731.518 Q183.774 739.69 179.885 744.574 Q176.019 749.435 169.468 749.435 Q167.709 749.435 165.903 749.088 Q164.098 748.741 162.153 748.046 M171.459 733.393 Q174.607 733.393 176.436 731.241 Q178.288 729.088 178.288 725.338 Q178.288 721.611 176.436 719.458 Q174.607 717.282 171.459 717.282 Q168.311 717.282 166.459 719.458 Q164.63 721.611 164.63 725.338 Q164.63 729.088 166.459 731.241 Q168.311 733.393 171.459 733.393 Z" fill="#000000" fill-rule="nonzero" fill-opacity="1" /><path clip-path="url(#clip160)" d="M202.176 732.352 Q198.843 732.352 196.922 734.134 Q195.024 735.917 195.024 739.042 Q195.024 742.167 196.922 743.949 Q198.843 745.731 202.176 745.731 Q205.51 745.731 207.431 743.949 Q209.352 742.143 209.352 739.042 Q209.352 735.917 207.431 734.134 Q205.533 732.352 202.176 732.352 M197.5 730.361 Q194.491 729.62 192.801 727.56 Q191.135 725.5 191.135 722.537 Q191.135 718.394 194.075 715.986 Q197.037 713.579 202.176 713.579 Q207.338 713.579 210.278 715.986 Q213.218 718.394 213.218 722.537 Q213.218 725.5 211.528 727.56 Q209.861 729.62 206.875 730.361 Q210.255 731.148 212.13 733.44 Q214.028 735.731 214.028 739.042 Q214.028 744.065 210.949 746.75 Q207.894 749.435 202.176 749.435 Q196.459 749.435 193.38 746.75 Q190.325 744.065 190.325 739.042 Q190.325 735.731 192.223 733.44 Q194.121 731.148 197.5 730.361 M195.787 722.977 Q195.787 725.662 197.454 727.167 Q199.144 728.671 202.176 728.671 Q205.186 728.671 206.875 727.167 Q208.588 725.662 208.588 722.977 Q208.588 720.292 206.875 718.787 Q205.186 717.282 202.176 717.282 Q199.144 717.282 197.454 718.787 Q195.787 720.292 195.787 722.977 Z" fill="#000000" fill-rule="nonzero" fill-opacity="1" /><path clip-path="url(#clip160)" d="M117.501 448.805 L125.14 448.805 L125.14 422.44 L116.83 424.106 L116.83 419.847 L125.093 418.18 L129.769 418.18 L129.769 448.805 L137.408 448.805 L137.408 452.74 L117.501 452.74 L117.501 448.805 Z" fill="#000000" fill-rule="nonzero" fill-opacity="1" /><path clip-path="url(#clip160)" d="M146.853 446.861 L151.737 446.861 L151.737 452.74 L146.853 452.74 L146.853 446.861 Z" fill="#000000" fill-rule="nonzero" fill-opacity="1" /><path clip-path="url(#clip160)" d="M171.922 421.259 Q168.311 421.259 166.482 424.824 Q164.677 428.365 164.677 435.495 Q164.677 442.601 166.482 446.166 Q168.311 449.708 171.922 449.708 Q175.556 449.708 177.362 446.166 Q179.19 442.601 179.19 435.495 Q179.19 428.365 177.362 424.824 Q175.556 421.259 171.922 421.259 M171.922 417.555 Q177.732 417.555 180.788 422.162 Q183.866 426.745 183.866 435.495 Q183.866 444.222 180.788 448.828 Q177.732 453.412 171.922 453.412 Q166.112 453.412 163.033 448.828 Q159.978 444.222 159.978 435.495 Q159.978 426.745 163.033 422.162 Q166.112 417.555 171.922 417.555 Z" fill="#000000" fill-rule="nonzero" fill-opacity="1" /><path clip-path="url(#clip160)" d="M202.084 421.259 Q198.473 421.259 196.644 424.824 Q194.838 428.365 194.838 435.495 Q194.838 442.601 196.644 446.166 Q198.473 449.708 202.084 449.708 Q205.718 449.708 207.524 446.166 Q209.352 442.601 209.352 435.495 Q209.352 428.365 207.524 424.824 Q205.718 421.259 202.084 421.259 M202.084 417.555 Q207.894 417.555 210.949 422.162 Q214.028 426.745 214.028 435.495 Q214.028 444.222 210.949 448.828 Q207.894 453.412 202.084 453.412 Q196.274 453.412 193.195 448.828 Q190.139 444.222 190.139 435.495 Q190.139 426.745 193.195 422.162 Q196.274 417.555 202.084 417.555 Z" fill="#000000" fill-rule="nonzero" fill-opacity="1" /><path clip-path="url(#clip160)" d="M119.098 152.782 L126.737 152.782 L126.737 126.416 L118.427 128.083 L118.427 123.824 L126.691 122.157 L131.367 122.157 L131.367 152.782 L139.005 152.782 L139.005 156.717 L119.098 156.717 L119.098 152.782 Z" fill="#000000" fill-rule="nonzero" fill-opacity="1" /><path clip-path="url(#clip160)" d="M148.45 150.837 L153.334 150.837 L153.334 156.717 L148.45 156.717 L148.45 150.837 Z" fill="#000000" fill-rule="nonzero" fill-opacity="1" /><path clip-path="url(#clip160)" d="M173.519 125.236 Q169.908 125.236 168.079 128.8 Q166.274 132.342 166.274 139.472 Q166.274 146.578 168.079 150.143 Q169.908 153.685 173.519 153.685 Q177.153 153.685 178.959 150.143 Q180.788 146.578 180.788 139.472 Q180.788 132.342 178.959 128.8 Q177.153 125.236 173.519 125.236 M173.519 121.532 Q179.329 121.532 182.385 126.138 Q185.463 130.722 185.463 139.472 Q185.463 148.198 182.385 152.805 Q179.329 157.388 173.519 157.388 Q167.709 157.388 164.63 152.805 Q161.575 148.198 161.575 139.472 Q161.575 130.722 164.63 126.138 Q167.709 121.532 173.519 121.532 Z" fill="#000000" fill-rule="nonzero" fill-opacity="1" /><path clip-path="url(#clip160)" d="M197.709 152.782 L214.028 152.782 L214.028 156.717 L192.084 156.717 L192.084 152.782 Q194.746 150.027 199.329 145.398 Q203.936 140.745 205.116 139.402 Q207.362 136.879 208.241 135.143 Q209.144 133.384 209.144 131.694 Q209.144 128.939 207.199 127.203 Q205.278 125.467 202.176 125.467 Q199.977 125.467 197.524 126.231 Q195.093 126.995 192.315 128.546 L192.315 123.824 Q195.139 122.689 197.593 122.111 Q200.047 121.532 202.084 121.532 Q207.454 121.532 210.649 124.217 Q213.843 126.902 213.843 131.393 Q213.843 133.523 213.033 135.444 Q212.246 137.342 210.139 139.935 Q209.561 140.606 206.459 143.823 Q203.357 147.018 197.709 152.782 Z" fill="#000000" fill-rule="nonzero" fill-opacity="1" /><path clip-path="url(#clip160)" d="M64.0042 913.404 L16.4842 931.546 L16.4842 924.83 L56.4926 909.776 L16.4842 894.689 L16.4842 888.005 L64.0042 906.115 L64.0042 913.404 Z" fill="#000000" fill-rule="nonzero" fill-opacity="1" /><path clip-path="url(#clip160)" d="M32.4621 872.568 Q32.4621 877.279 36.1542 880.016 Q39.8145 882.753 46.212 882.753 Q52.6095 882.753 56.3017 880.048 Q59.9619 877.31 59.9619 872.568 Q59.9619 867.889 56.2698 865.152 Q52.5777 862.415 46.212 862.415 Q39.8781 862.415 36.186 865.152 Q32.4621 867.889 32.4621 872.568 M27.4968 872.568 Q27.4968 864.929 32.4621 860.569 Q37.4273 856.208 46.212 856.208 Q54.9649 856.208 59.9619 860.569 Q64.9272 864.929 64.9272 872.568 Q64.9272 880.239 59.9619 884.599 Q54.9649 888.928 46.212 888.928 Q37.4273 888.928 32.4621 884.599 Q27.4968 880.239 27.4968 872.568 Z" fill="#000000" fill-rule="nonzero" fill-opacity="1" /><path clip-path="url(#clip160)" d="M14.479 846.5 L14.479 840.644 L64.0042 840.644 L64.0042 846.5 L14.479 846.5 Z" fill="#000000" fill-rule="nonzero" fill-opacity="1" /><path clip-path="url(#clip160)" d="M18.2347 822.597 L28.3562 822.597 L28.3562 810.534 L32.9077 810.534 L32.9077 822.597 L52.2594 822.597 Q56.6199 822.597 57.8613 821.42 Q59.1026 820.21 59.1026 816.55 L59.1026 810.534 L64.0042 810.534 L64.0042 816.55 Q64.0042 823.329 61.4897 825.907 Q58.9434 828.485 52.2594 828.485 L32.9077 828.485 L32.9077 832.782 L28.3562 832.782 L28.3562 828.485 L18.2347 828.485 L18.2347 822.597 Z" fill="#000000" fill-rule="nonzero" fill-opacity="1" /><path clip-path="url(#clip160)" d="M46.0847 786.631 Q46.0847 793.729 47.7079 796.466 Q49.3312 799.203 53.2461 799.203 Q56.3653 799.203 58.2114 797.166 Q60.0256 795.097 60.0256 791.564 Q60.0256 786.695 56.5881 783.766 Q53.1188 780.806 47.3897 780.806 L46.0847 780.806 L46.0847 786.631 M43.6657 774.95 L64.0042 774.95 L64.0042 780.806 L58.5933 780.806 Q61.8398 782.812 63.3994 785.803 Q64.9272 788.795 64.9272 793.124 Q64.9272 798.598 61.8716 801.845 Q58.7843 805.06 53.6281 805.06 Q47.6125 805.06 44.5569 801.049 Q41.5014 797.007 41.5014 789.018 L41.5014 780.806 L40.9285 780.806 Q36.8862 780.806 34.6901 783.48 Q32.4621 786.122 32.4621 790.928 Q32.4621 793.983 33.1941 796.88 Q33.9262 799.776 35.3903 802.45 L29.9795 802.45 Q28.7381 799.235 28.1334 796.211 Q27.4968 793.188 27.4968 790.323 Q27.4968 782.589 31.5072 778.769 Q35.5176 774.95 43.6657 774.95 Z" fill="#000000" fill-rule="nonzero" fill-opacity="1" /><path clip-path="url(#clip160)" d="M45.7664 739.429 Q39.4007 739.429 35.8996 742.071 Q32.3984 744.681 32.3984 749.423 Q32.3984 754.134 35.8996 756.776 Q39.4007 759.386 45.7664 759.386 Q52.1003 759.386 55.6014 756.776 Q59.1026 754.134 59.1026 749.423 Q59.1026 744.681 55.6014 742.071 Q52.1003 739.429 45.7664 739.429 M59.58 733.573 Q68.683 733.573 73.1071 737.615 Q77.5631 741.657 77.5631 749.996 Q77.5631 753.084 77.0857 755.821 Q76.6401 758.558 75.6852 761.136 L69.9879 761.136 Q71.3884 758.558 72.0568 756.044 Q72.7252 753.529 72.7252 750.919 Q72.7252 745.158 69.7015 742.294 Q66.7096 739.429 60.6303 739.429 L57.7339 739.429 Q60.885 741.243 62.4446 744.076 Q64.0042 746.909 64.0042 750.856 Q64.0042 757.412 59.0071 761.423 Q54.01 765.433 45.7664 765.433 Q37.491 765.433 32.4939 761.423 Q27.4968 757.412 27.4968 750.856 Q27.4968 746.909 29.0564 744.076 Q30.616 741.243 33.7671 739.429 L28.3562 739.429 L28.3562 733.573 L59.58 733.573 Z" fill="#000000" fill-rule="nonzero" fill-opacity="1" /><path clip-path="url(#clip160)" d="M44.7161 691.018 L47.5806 691.018 L47.5806 717.945 Q53.6281 717.563 56.8109 714.317 Q59.9619 711.038 59.9619 705.214 Q59.9619 701.84 59.1344 698.689 Q58.3069 695.506 56.6518 692.387 L62.1899 692.387 Q63.5267 695.538 64.227 698.848 Q64.9272 702.158 64.9272 705.564 Q64.9272 714.094 59.9619 719.091 Q54.9967 724.056 46.5303 724.056 Q37.7774 724.056 32.6531 719.345 Q27.4968 714.603 27.4968 706.582 Q27.4968 699.389 32.1438 695.219 Q36.7589 691.018 44.7161 691.018 M42.9973 696.875 Q38.1912 696.938 35.3266 699.58 Q32.4621 702.19 32.4621 706.519 Q32.4621 711.42 35.2312 714.38 Q38.0002 717.308 43.0292 717.754 L42.9973 696.875 Z" fill="#000000" fill-rule="nonzero" fill-opacity="1" /><path clip-path="url(#clip160)" d="M14.479 661.227 L14.479 647.731 L19.0304 647.731 L19.0304 655.37 L68.0464 655.37 L68.0464 647.731 L72.5979 647.731 L72.5979 661.227 L14.479 661.227 Z" fill="#000000" fill-rule="nonzero" fill-opacity="1" /><path clip-path="url(#clip160)" d="M58.657 629.589 L77.5631 629.589 L77.5631 635.477 L28.3562 635.477 L28.3562 629.589 L33.7671 629.589 Q30.5842 627.743 29.0564 624.942 Q27.4968 622.109 27.4968 618.194 Q27.4968 611.701 32.6531 607.659 Q37.8093 603.585 46.212 603.585 Q54.6147 603.585 59.771 607.659 Q64.9272 611.701 64.9272 618.194 Q64.9272 622.109 63.3994 624.942 Q61.8398 627.743 58.657 629.589 M46.212 609.664 Q39.7508 609.664 36.0905 612.338 Q32.3984 614.98 32.3984 619.627 Q32.3984 624.274 36.0905 626.947 Q39.7508 629.589 46.212 629.589 Q52.6732 629.589 56.3653 626.947 Q60.0256 624.274 60.0256 619.627 Q60.0256 614.98 56.3653 612.338 Q52.6732 609.664 46.212 609.664 Z" fill="#000000" fill-rule="nonzero" fill-opacity="1" /><path clip-path="url(#clip160)" d="M49.9359 594.482 L28.3562 594.482 L28.3562 588.626 L49.7131 588.626 Q54.7739 588.626 57.3202 586.652 Q59.8346 584.679 59.8346 580.732 Q59.8346 575.99 56.8109 573.252 Q53.7872 570.483 48.5673 570.483 L28.3562 570.483 L28.3562 564.627 L64.0042 564.627 L64.0042 570.483 L58.5296 570.483 Q61.7762 572.616 63.3676 575.449 Q64.9272 578.25 64.9272 581.973 Q64.9272 588.116 61.1078 591.299 Q57.2883 594.482 49.9359 594.482 M27.4968 579.745 L27.4968 579.745 Z" fill="#000000" fill-rule="nonzero" fill-opacity="1" /><path clip-path="url(#clip160)" d="M14.479 538.878 L72.5979 538.878 L72.5979 552.373 L68.0464 552.373 L68.0464 544.766 L19.0304 544.766 L19.0304 552.373 L14.479 552.373 L14.479 538.878 Z" fill="#000000" fill-rule="nonzero" fill-opacity="1" /><polyline clip-path="url(#clip161)" style="stroke:#009af9; stroke-linecap:round; stroke-linejoin:round; stroke-width:4; stroke-opacity:1; fill:none" points="309.539,225.284 309.605,225.284 309.672,225.284 309.804,225.284 310.068,225.284 310.597,225.284 311.655,225.284 312.978,225.284 314.3,225.284 315.623,225.284 316.945,225.284 318.268,225.284 319.59,225.284 320.913,225.284 322.235,225.284 323.557,225.284 324.88,225.284 326.202,225.284 327.525,225.284 328.847,225.284 330.17,225.284 331.492,225.284 332.815,225.284 334.137,225.284 335.46,225.284 336.782,225.284 338.105,225.284 339.427,225.284 340.75,225.284 342.072,225.284 343.395,225.284 344.717,225.284 346.039,225.284 347.362,225.284 348.684,225.284 350.007,225.284 351.329,225.284 352.652,225.284 353.974,225.284 355.297,225.284 356.619,225.284 357.942,225.284 359.264,225.284 360.587,225.284 361.909,225.284 363.232,225.284 364.554,225.284 365.877,225.284 367.199,225.284 368.521,225.284 369.844,225.284 371.166,225.284 372.489,225.284 373.811,225.284 375.134,225.284 375.663,225.284 375.667,775.943 375.667,809.669 375.668,849.907 375.668,888.579 375.668,926.127 375.668,962.987 375.669,998.744 375.669,1066.17 375.67,1127.86 375.671,1232.21 375.672,1303.48 375.674,1352.49 375.675,1379.2 375.676,1384.24 375.678,1334.74 375.68,1218.96 375.683,1058.87 375.685,880.131 375.687,707.051 375.689,558.256 375.692,446.255 375.694,377.761 375.696,354.357 375.699,373.056 375.702,454.971 375.705,578.3 375.708,712.137 375.711,827.411 375.714,902.714 375.717,928.34 375.721,907.807 375.724,854.415 375.727,788.357 375.73,725.98 375.733,682.003 375.736,659.254 375.739,657.79 375.742,676.025 375.746,707.978 375.749,745.65 375.753,793.883 375.758,817.865 375.762,812.828 375.767,787.952 375.772,759.514 375.776,741.964 375.781,741.704 375.785,755.872 375.79,775.125 375.795,790.984 375.799,798.1 375.804,795.685 375.808,787.014 375.813,777.302 375.817,771.195 375.827,775.789 375.835,790.459 375.843,800.416 375.851,797.995 375.858,791.057 375.865,785.707 375.872,785.231 375.879,788.686 375.886,793.331 375.894,796.095 375.901,795.516 375.908,792.421 375.922,786.59 375.934,786.058 375.944,786.282 375.954,784.746 375.964,781.222 375.975,776.662 375.985,772.03 375.995,767.998 376.005,764.501 376.026,756.456 376.046,746.628 376.065,738.169 376.081,730.925 376.098,723.57 376.114,716.215 376.131,709.339 376.148,702.916 376.164,696.803 376.181,691.2 376.197,686.43 376.214,682.41 376.23,678.872 376.247,675.935 376.264,673.897 376.28,672.648 376.297,671.764 376.313,671.307 376.33,671.883 376.346,673.404 376.363,674.807 376.38,676.106 376.396,678.591 376.413,682.151 376.429,685.231 376.446,687.771 376.462,691.317 376.479,695.726 376.496,699.566 376.512,702.922 376.529,706.908 376.545,711.138 376.562,714.797 376.578,718.125 376.595,721.886 376.612,725.76 376.645,732.333 376.678,737.133 376.711,742.094 376.744,745.9 376.777,748.553 376.81,750.877 376.844,751.945 376.877,752.399 376.91,752.418 376.943,751.576 376.976,750.196 377.042,746.474 377.102,742.408 377.161,737.549 377.22,732.617 377.279,728.198 377.338,724.159 377.397,720.85 377.456,718.961 377.515,718.363 377.574,718.468 377.634,719.982 377.693,723.273 377.752,726.134 377.811,729.115 377.87,733.172 377.929,736.768 377.988,739.02 378.047,741.088 378.107,743.017 378.166,743.364 378.225,743.113 378.284,742.826 378.343,741.82 378.402,740.136 378.461,738.866 378.52,738.009 378.579,736.712 378.639,735.685 378.698,736.437 378.757,736.949 378.816,735.614 378.875,737.139 378.934,739.958 378.993,740.507 379.052,741.799 379.112,744.069 379.171,745.416 379.23,746.727 379.289,747.949 379.348,748.863 379.407,749.565 379.466,750.058 379.525,750.376 379.584,750.574 379.644,750.692 379.762,750.928 379.862,751.357 379.939,751.949 380.015,752.805 380.092,753.903 380.169,755.213 380.246,756.669 380.323,758.198 380.399,759.723 380.476,761.173 380.553,762.505 380.63,763.705 380.707,764.782 380.783,765.766 380.937,767.623 381.091,769.621 381.227,771.702 381.363,774.086 381.485,776.401 381.608,778.775 381.73,781.125 381.853,783.413 381.975,785.646 382.098,787.869 382.22,790.138 382.343,792.48 382.465,794.898 382.588,797.397 382.71,799.96 382.955,805.191 383.2,810.496 383.445,815.885 383.69,821.366 383.935,826.92 384.18,832.556 384.67,843.995 385.16,855.572 385.65,867.153 386.14,878.609 386.63,889.805 387.12,900.621 388.1,920.61 388.982,936.128 389.864,948.775 390.746,958.21 391.628,964.254 392.51,966.891 393.392,966.251 394.274,962.618 395.156,956.357 396.038,947.927 396.92,937.821 397.802,926.504 398.684,914.418 399.566,901.985 400.447,889.578 401.329,877.443 402.211,865.811 403.093,854.988 403.975,845.051 404.857,836.12 405.739,828.444 406.621,822.17 407.503,817.418 408.826,813.528 410.148,813.686 411.471,818.347 412.793,826.922 414.116,839.239 415.438,853.527 416.761,868.758 417.951,881.459 419.141,892.54 420.331,900.903 421.521,905.998 422.712,907.215 423.902,904.81 425.092,898.708 426.282,889.798 427.473,878.405 428.525,867.002 429.577,854.923 430.629,842.248 431.681,829.711 432.733,817.247 433.786,805.729 434.838,795.135 435.89,785.909 436.942,778.118 437.994,772.043 439.046,767.822 440.099,765.389 441.151,764.959 442.203,766.329 443.255,769.584 444.307,774.116 445.36,779.801 446.412,786.025 447.734,793.995 449.057,801.107 450.379,806.584 451.702,809.494 453.024,809.611 454.347,806.414 455.669,800.399 456.991,791.652 458.314,781.158 459.636,768.714 460.959,756.117 462.281,742.301 463.604,729.778 464.926,717.454 466.249,707.732 467.571,697.717 468.894,692.45 470.216,686.553 471.406,683.89 472.478,683.065 473.549,683.176 474.871,684.819 476.194,687.353 477.516,690.673 478.839,693.479 480.161,695.901 481.484,696.825 482.806,696.027 484.129,693.037 485.451,688.386 486.773,681.585 488.096,673.495 489.418,663.534 490.741,653.754 492.063,642.733 493.386,632.303 494.708,621.071 496.031,612.524 497.353,602.253 498.676,595.652 499.866,590.689 501.056,586.228 502.246,583.291 503.437,580.79 504.627,579.906 505.817,579.201 506.888,578.858 507.959,578.448 509.031,577.786 510.102,576.853 511.173,575.523 512.244,573.713 513.567,570.632 514.889,566.539 516.212,561.44 517.534,555.391 518.857,548.482 520.179,540.873 521.502,532.734 522.824,524.335 524.146,515.908 525.469,507.688 526.791,499.863 528.114,492.659 529.436,486.198 530.759,480.553 532.081,475.733 533.404,471.689 534.726,468.319 536.049,465.471 537.371,462.96 538.694,460.577 540.016,458.114 541.339,455.375 542.661,452.196 543.984,448.456 545.306,444.085 546.628,439.071 547.951,433.449 549.273,427.3 550.596,420.745 551.918,413.92 553.241,406.978 554.563,400.073 555.886,393.348 557.208,386.93 558.531,380.919 559.853,375.384 561.176,370.358 562.498,365.837 563.821,361.783 565.143,358.126 566.466,354.769 567.788,351.598 569.11,348.49 570.433,345.327 571.755,342 573.078,338.422 574.4,334.533 575.723,330.299 577.045,325.719 578.368,320.822 579.69,315.659 581.013,310.3 582.335,304.831 583.658,299.34 584.98,293.917 586.303,288.644 587.625,283.591 588.948,278.81 590.27,274.336 591.592,270.179 592.915,266.329 594.237,262.756 595.56,259.419 596.882,256.256 598.205,253.203 599.527,250.189 600.85,247.154 602.172,244.03 603.495,240.779 604.817,237.367 606.14,233.786 607.462,230.037 608.785,226.143 610.107,222.137 611.43,218.061 612.752,213.968 614.074,209.905 615.397,205.926 616.719,202.072 618.042,198.38 619.364,194.875 620.687,191.572 622.009,188.471 623.332,185.562 624.654,182.825 625.977,180.23 627.299,177.742 628.622,175.324 629.944,172.937 631.267,170.546 632.589,168.123 633.912,165.647 635.234,163.105 636.556,160.493 637.879,157.82 639.201,155.095 640.524,152.342 641.846,149.586 643.169,146.855 644.491,144.177 645.814,141.579 647.136,139.084 648.459,136.709 649.781,134.464 651.104,132.355 652.426,130.377 653.749,128.523 655.071,126.778 656.394,125.125 657.716,123.543 659.038,122.01 660.361,120.507 661.683,119.016 663.006,117.522 664.328,116.016 665.651,114.494 666.973,112.955 668.296,111.406 669.618,109.854 670.941,108.314 672.263,106.799 673.586,105.323 674.908,103.903 676.231,102.549 677.553,101.276 678.876,100.087 680.198,98.9907 681.52,97.9846 682.843,97.0671 684.165,96.2302 685.488,95.4659 686.81,94.7622 688.133,94.1076 689.455,93.4913 690.778,92.9022 692.1,92.3317 693.423,91.7725 694.745,91.2193 696.068,90.6717 697.39,90.1303 698.713,89.5995 700.035,89.0843 701.358,88.5924 702.68,88.1318 704.002,87.7101 705.325,87.335 706.647,87.0126 707.97,86.7477 709.292,86.5433 710.615,86.4003 711.937,86.3177 713.26,86.2924 714.582,86.3199 715.905,86.3939 717.227,86.5091 718.55,86.658 719.872,86.8352 721.195,87.0343 722.517,87.2504 723.84,87.4804 725.162,87.7226 726.484,87.9764 727.807,88.2432 729.129,88.5252 730.452,88.8256 731.774,89.1483 733.097,89.4976 734.419,89.8773 735.742,90.291 737.064,90.7415 738.387,91.2305 739.709,91.7591 741.032,92.3268 742.354,92.9325 743.677,93.5738 744.999,94.2478 746.321,94.9506 747.644,95.6791 748.966,96.4288 750.289,97.1972 751.611,97.98 752.934,98.7762 754.256,99.5826 755.579,100.4 756.901,101.226 758.224,102.064 759.546,102.914 760.869,103.778 762.191,104.658 763.514,105.556 764.836,106.473 766.159,107.412 767.481,108.372 768.803,109.357 770.126,110.364 771.448,111.394 772.771,112.445 774.093,113.517 775.416,114.605 776.738,115.711 778.061,116.828 779.383,117.959 780.706,119.097 782.028,120.245 783.351,121.398 784.673,122.558 785.996,123.722 787.318,124.892 788.641,126.066 789.963,127.248 791.285,128.437 792.608,129.634 793.93,130.839 795.253,132.056 796.575,133.281 797.898,134.52 799.22,135.767 800.543,137.028 801.865,138.296 803.188,139.576 804.51,140.863 805.833,142.159 807.155,143.459 808.478,144.765 809.8,146.073 811.123,147.385 812.445,148.697 813.767,150.011 815.09,151.323 816.412,152.638 817.735,153.949 819.057,155.264 820.38,156.576 821.702,157.893 823.025,159.206 824.347,160.527 825.67,161.843 826.992,163.17 828.315,164.49 829.637,165.822 830.96,167.145 832.282,168.484 833.605,169.807 834.927,171.15 836.249,172.471 837.572,173.807 838.894,175.135 840.217,176.468 841.539,177.787 842.862,179.115 844.184,180.423 845.507,181.745 846.829,183.042 848.152,184.359 849.474,185.649 850.797,186.943 852.119,188.233 853.442,189.52 854.764,190.803 856.087,192.084 857.409,193.36 858.731,194.634 860.054,195.903 861.376,197.169 862.699,198.431 864.021,199.688 865.344,200.941 866.666,202.189 867.989,203.432 869.311,204.668 870.634,205.899 871.956,207.123 873.279,208.34 874.601,209.55 875.924,210.752 877.246,211.948 878.569,213.136 879.891,214.316 881.213,215.49 882.536,216.656 883.858,217.814 885.181,218.966 886.503,220.111 887.826,221.249 889.148,222.38 890.471,223.503 891.793,224.62 893.116,225.729 894.438,226.831 895.761,227.926 897.083,229.012 898.406,230.09 899.728,231.16 901.051,232.221 902.373,233.274 903.695,234.318 905.018,235.352 906.34,236.378 907.663,237.395 908.985,238.402 910.308,239.401 911.63,240.39 912.953,241.37 914.275,242.342 915.598,243.305 916.92,244.258 918.243,245.203 919.565,246.14 920.888,247.067 922.21,247.986 923.533,248.895 924.855,249.796 926.177,250.687 927.5,251.57 928.822,252.442 930.145,253.306 931.467,254.16 932.79,255.004 934.112,255.839 935.435,256.664 936.757,257.479 938.08,258.284 939.402,259.08 940.725,259.866 942.047,260.642 943.37,261.409 944.692,262.167 946.015,262.915 947.337,263.653 948.659,264.382 949.982,265.102 951.304,265.812 952.627,266.513 953.949,267.205 955.272,267.887 956.594,268.56 957.917,269.224 959.239,269.877 960.562,270.522 961.884,271.156 963.207,271.782 964.529,272.397 965.852,273.003 967.174,273.6 968.497,274.187 969.819,274.764 971.141,275.332 972.464,275.891 973.786,276.44 975.109,276.981 976.431,277.511 977.754,278.033 979.076,278.546 980.399,279.05 981.721,279.544 983.044,280.03 984.366,280.507 985.689,280.974 987.011,281.433 988.334,281.883 989.656,282.324 990.979,282.756 992.301,283.179 993.623,283.593 994.946,283.999 996.268,284.395 997.591,284.783 998.913,285.162 1000.24,285.533 1001.56,285.895 1002.88,286.248 1004.2,286.593 1005.53,286.929 1006.85,287.258 1008.17,287.577 1009.49,287.889 1010.82,288.193 1012.14,288.488 1013.46,288.776 1014.78,289.055 1016.11,289.326 1017.43,289.59 1018.75,289.845 1020.07,290.093 1021.4,290.333 1022.72,290.565 1024.04,290.79 1025.36,291.006 1026.69,291.215 1028.01,291.417 1029.33,291.611 1030.65,291.798 1031.98,291.977 1033.3,292.149 1034.62,292.314 1035.94,292.471 1037.26,292.622 1038.59,292.765 1039.91,292.902 1041.23,293.032 1042.55,293.155 1043.88,293.271 1045.2,293.38 1046.52,293.483 1047.84,293.579 1049.17,293.668 1050.49,293.751 1051.81,293.828 1053.13,293.898 1054.46,293.962 1055.78,294.02 1057.1,294.072 1058.42,294.117 1059.75,294.156 1061.07,294.19 1062.39,294.217 1063.71,294.239 1065.04,294.254 1066.36,294.264 1067.68,294.269 1069,294.268 1070.33,294.261 1071.65,294.249 1072.97,294.232 1074.29,294.209 1075.62,294.181 1076.94,294.148 1078.26,294.11 1079.58,294.067 1080.91,294.019 1082.23,293.965 1083.55,293.907 1084.87,293.845 1086.2,293.777 1087.52,293.705 1088.84,293.628 1090.16,293.547 1091.49,293.461 1092.81,293.371 1094.13,293.276 1095.45,293.178 1096.78,293.075 1098.1,292.968 1099.42,292.857 1100.74,292.741 1102.07,292.623 1103.39,292.5 1104.71,292.373 1106.03,292.243 1107.36,292.109 1108.68,291.971 1110,291.83 1111.32,291.686 1112.65,291.538 1113.97,291.386 1115.29,291.232 1116.61,291.074 1117.94,290.913 1119.26,290.749 1120.58,290.582 1121.9,290.412 1123.23,290.239 1124.55,290.063 1125.87,289.885 1127.19,289.703 1128.52,289.519 1129.84,289.333 1131.16,289.144 1132.48,288.953 1133.81,288.759 1135.13,288.563 1136.45,288.364 1137.77,288.163 1139.1,287.961 1140.42,287.756 1141.74,287.549 1143.06,287.34 1144.39,287.129 1145.71,286.916 1147.03,286.702 1148.35,286.485 1149.67,286.267 1151,286.048 1152.32,285.826 1153.64,285.604 1154.96,285.379 1156.29,285.154 1157.61,284.927 1158.93,284.698 1160.25,284.469 1161.58,284.238 1162.9,284.006 1164.22,283.773 1165.54,283.539 1166.87,283.304 1168.19,283.068 1169.51,282.831 1170.83,282.593 1172.16,282.355 1173.48,282.115 1174.8,281.876 1176.12,281.635 1177.45,281.394 1178.77,281.152 1180.09,280.91 1181.41,280.667 1182.74,280.424 1184.06,280.181 1185.38,279.937 1186.7,279.693 1188.03,279.448 1189.35,279.204 1190.67,278.96 1191.99,278.715 1193.32,278.47 1194.64,278.225 1195.96,277.981 1197.28,277.736 1198.61,277.492 1199.93,277.247 1201.25,277.003 1202.57,276.759 1203.9,276.516 1205.22,276.273 1206.54,276.03 1207.86,275.787 1209.19,275.545 1210.51,275.303 1211.83,275.062 1213.15,274.822 1214.48,274.582 1215.8,274.342 1217.12,274.103 1218.44,273.865 1219.77,273.628 1221.09,273.391 1222.41,273.155 1223.73,272.92 1225.06,272.686 1226.38,272.453 1227.7,272.22 1229.02,271.988 1230.35,271.758 1231.67,271.528 1232.99,271.3 1234.31,271.072 1235.64,270.846 1236.96,270.62 1238.28,270.396 1239.6,270.173 1240.93,269.951 1242.25,269.73 1243.57,269.51 1244.89,269.292 1246.22,269.075 1247.54,268.859 1248.86,268.645 1250.18,268.431 1251.51,268.22 1252.83,268.009 1254.15,267.8 1255.47,267.593 1256.8,267.386 1258.12,267.182 1259.44,266.979 1260.76,266.777 1262.08,266.577 1263.41,266.378 1264.73,266.181 1266.05,265.985 1267.37,265.791 1268.7,265.598 1270.02,265.408 1271.34,265.218 1272.66,265.031 1273.99,264.845 1275.31,264.66 1276.63,264.478 1277.95,264.297 1279.28,264.118 1280.6,263.94 1281.92,263.764 1283.24,263.59 1284.57,263.418 1285.89,263.247 1287.21,263.078 1288.53,262.911 1289.86,262.746 1291.18,262.582 1292.5,262.42 1293.82,262.26 1295.15,262.102 1296.47,261.946 1297.79,261.791 1299.11,261.638 1300.44,261.487 1301.76,261.338 1303.08,261.191 1304.4,261.046 1305.73,260.902 1307.05,260.76 1308.37,260.62 1309.69,260.482 1311.02,260.346 1312.34,260.212 1313.66,260.079 1314.98,259.949 1316.31,259.82 1317.63,259.693 1318.95,259.568 1320.27,259.445 1321.6,259.323 1322.92,259.204 1324.24,259.086 1325.56,258.97 1326.89,258.856 1328.21,258.744 1329.53,258.634 1330.85,258.526 1332.18,258.419 1333.5,258.314 1334.82,258.212 1336.14,258.11 1337.47,258.011 1338.79,257.914 1340.11,257.818 1341.43,257.724 1342.76,257.633 1344.08,257.542 1345.4,257.454 1346.72,257.367 1348.05,257.283 1349.37,257.2 1350.69,257.118 1352.01,257.039 1353.34,256.961 1354.66,256.885 1355.98,256.811 1357.3,256.738 1358.63,256.668 1359.95,256.599 1361.27,256.531 1362.59,256.466 1363.92,256.402 1365.24,256.339 1366.56,256.279 1367.88,256.22 1369.21,256.162 1370.53,256.107 1371.85,256.053 1373.17,256 1374.49,255.95 1375.82,255.901 1377.14,255.853 1378.46,255.807 1379.78,255.763 1381.11,255.72 1382.43,255.678 1383.75,255.639 1385.07,255.6 1386.4,255.564 1387.72,255.528 1389.04,255.495 1390.36,255.462 1391.69,255.432 1393.01,255.402 1394.33,255.374 1395.65,255.348 1396.98,255.323 1398.3,255.299 1399.62,255.277 1400.94,255.256 1402.27,255.237 1403.59,255.219 1404.91,255.202 1406.23,255.186 1407.56,255.172 1408.88,255.159 1410.2,255.148 1411.52,255.138 1412.85,255.129 1414.17,255.121 1415.49,255.114 1416.81,255.109 1418.14,255.105 1419.46,255.102 1420.78,255.1 1422.1,255.099 1423.43,255.1 1424.75,255.102 1426.07,255.105 1427.39,255.108 1428.72,255.113 1430.04,255.12 1431.36,255.127 1432.68,255.135 1434.01,255.144 1435.33,255.155 1436.65,255.166 1437.97,255.178 1439.3,255.191 1440.62,255.206 1441.94,255.221 1443.26,255.237 1444.59,255.254 1445.91,255.272 1447.23,255.291 1448.55,255.311 1449.88,255.331 1451.2,255.353 1452.52,255.375 1453.84,255.398 1455.17,255.422 1456.49,255.447 1457.81,255.472 1459.13,255.499 1460.46,255.526 1461.78,255.554 1463.1,255.582 1464.42,255.611 1465.75,255.641 1467.07,255.672 1468.39,255.703 1469.71,255.735 1471.04,255.768 1472.36,255.801 1473.68,255.835 1475,255.869 1476.33,255.905 1477.65,255.94 1478.97,255.976 1480.29,256.013 1481.61,256.051 1482.94,256.088 1484.26,256.127 1485.58,256.166 1486.9,256.205 1488.23,256.245 1489.55,256.285 1490.87,256.326 1492.19,256.367 1493.52,256.409 1494.84,256.451 1496.16,256.493 1497.48,256.536 1498.81,256.579 1500.13,256.623 1501.45,256.667 1502.77,256.711 1504.1,256.755 1505.42,256.8 1506.74,256.845 1508.06,256.891 1509.39,256.937 1510.71,256.983 1512.03,257.029 1513.35,257.076 1514.68,257.122 1516,257.169 1517.32,257.217 1518.64,257.264 1519.97,257.312 1521.29,257.36 1522.61,257.408 1523.93,257.456 1525.26,257.504 1526.58,257.552 1527.9,257.601 1529.22,257.65 1530.55,257.699 1531.87,257.747 1533.19,257.796 1534.51,257.846 1535.84,257.895 1537.16,257.944 1538.48,257.993 1539.8,258.043 1541.13,258.092 1542.45,258.141 1543.77,258.191 1545.09,258.24 1546.42,258.29 1547.74,258.339 1549.06,258.388 1550.38,258.438 1551.71,258.487 1553.03,258.536 1554.35,258.586 1555.67,258.635 1557,258.684 1558.32,258.733 1559.64,258.782 1560.96,258.831 1562.29,258.88 1563.61,258.928 1564.93,258.977 1566.25,259.025 1567.58,259.074 1568.9,259.122 1570.22,259.17 1571.54,259.218 1572.87,259.266 1574.19,259.313 1575.51,259.361 1576.83,259.408 1578.16,259.455 1579.48,259.502 1580.8,259.549 1582.12,259.595 1583.45,259.642 1584.77,259.688 1586.09,259.734 1587.41,259.779 1588.74,259.825 1590.06,259.87 1591.38,259.915 1592.7,259.96 1594.02,260.004 1595.35,260.049 1596.67,260.093 1597.99,260.137 1599.31,260.18 1600.64,260.223 1601.96,260.266 1603.28,260.309 1604.6,260.351 1605.93,260.394 1607.25,260.436 1608.57,260.477 1609.89,260.518 1611.22,260.559 1612.54,260.6 1613.86,260.64 1615.18,260.681 1616.51,260.72 1617.83,260.76 1619.15,260.799 1620.47,260.838 1621.8,260.876 1623.12,260.914 1624.44,260.952 1625.76,260.99 1627.09,261.027 1628.41,261.064 1629.73,261.1 1631.05,261.137 1632.38,261.172 1633.7,261.208 1635.02,261.243 1636.34,261.278 1637.67,261.312 1638.99,261.346 1640.31,261.38 1641.63,261.414 1642.96,261.447 1644.28,261.479 1645.6,261.512 1646.92,261.544 1648.25,261.575 1649.57,261.606 1650.89,261.637 1652.21,261.668 1653.54,261.698 1654.86,261.728 1656.18,261.757 1657.5,261.786 1658.83,261.815 1660.15,261.843 1661.47,261.871 1662.79,261.899 1664.12,261.926 1665.44,261.953 1666.76,261.979 1668.08,262.005 1669.41,262.031 1670.73,262.056 1672.05,262.081 1673.37,262.106 1674.7,262.13 1676.02,262.154 1677.34,262.177 1678.66,262.2 1679.99,262.223 1681.31,262.246 1682.63,262.268 1683.95,262.289 1685.28,262.31 1686.6,262.331 1687.92,262.352 1689.24,262.372 1690.57,262.392 1691.89,262.411 1693.21,262.43 1694.53,262.449 1695.86,262.468 1697.18,262.486 1698.5,262.503 1699.82,262.521 1701.15,262.538 1702.47,262.554 1703.79,262.57 1705.11,262.586 1706.43,262.602 1707.76,262.617 1709.08,262.632 1710.4,262.646 1711.72,262.661 1713.05,262.674 1714.37,262.688 1715.69,262.701 1717.01,262.714 1718.34,262.726 1719.66,262.738 1720.98,262.75 1722.3,262.762 1723.63,262.773 1724.95,262.784 1726.27,262.794 1727.59,262.804 1728.92,262.814 1730.24,262.824 1731.56,262.833 1732.88,262.842 1734.21,262.851 1735.53,262.859 1736.85,262.867 1738.17,262.875 1739.5,262.882 1740.82,262.889 1742.14,262.896 1743.46,262.903 1744.79,262.909 1746.11,262.915 1747.43,262.92 1748.75,262.926 1750.08,262.931 1751.4,262.936 1752.72,262.94 1754.04,262.945 1755.37,262.949 1756.69,262.952 1758.01,262.956 1759.33,262.959 1760.66,262.962 1761.98,262.964 1763.3,262.967 1764.62,262.969 1765.95,262.971 1767.27,262.973 1768.59,262.974 1769.91,262.975 1771.24,262.976 1772.56,262.977 1773.88,262.977 1775.2,262.978 1776.53,262.978 1777.85,262.977 1779.17,262.977 1780.49,262.976 1781.82,262.975 1783.14,262.974 1784.46,262.973 1785.78,262.972 1787.11,262.97 1788.43,262.968 1789.75,262.966 1791.07,262.963 1792.4,262.961 1793.72,262.958 1795.04,262.955 1796.36,262.952 1797.69,262.949 1799.01,262.945 1800.33,262.942 1801.65,262.938 1802.98,262.934 1804.3,262.93 1805.62,262.926 1806.94,262.921 1808.27,262.916 1809.59,262.912 1810.91,262.907 1812.23,262.902 1813.56,262.896 1814.88,262.891 1816.2,262.885 1817.52,262.88 1818.84,262.874 1820.17,262.868 1821.49,262.862 1822.81,262.855 1824.13,262.849 1825.46,262.842 1826.78,262.836 1828.1,262.829 1829.42,262.822 1830.75,262.815 1832.07,262.808 1833.39,262.801 1834.71,262.794 1836.04,262.786 1837.36,262.779 1838.68,262.771 1840,262.763 1841.33,262.755 1842.65,262.747 1843.97,262.739 1845.29,262.731 1846.62,262.723 1847.94,262.715 1849.26,262.706 1850.58,262.698 1851.91,262.69 1853.23,262.681 1854.55,262.672 1855.87,262.664 1857.2,262.655 1858.52,262.646 1859.84,262.637 1861.16,262.628 1862.49,262.619 1863.81,262.61 1865.13,262.601 1866.45,262.592 1867.78,262.582 1869.1,262.573 1870.42,262.564 1871.74,262.554 1873.07,262.545 1874.39,262.535 1875.71,262.526 1877.03,262.516 1878.36,262.507 1879.68,262.497 1881,262.488 1882.32,262.478 1883.65,262.468 1884.97,262.459 1886.29,262.449 1887.61,262.439 1888.94,262.429 1890.26,262.42 1891.58,262.41 1892.9,262.4 1894.23,262.39 1895.55,262.38 1896.87,262.371 1898.19,262.361 1899.52,262.351 1900.84,262.341 1902.16,262.331 1903.48,262.322 1904.81,262.312 1906.13,262.302 1907.45,262.292 1908.77,262.283 1910.1,262.273 1911.42,262.263 1912.74,262.253 1914.06,262.244 1915.39,262.234 1916.71,262.224 1918.03,262.215 1919.35,262.205 1920.68,262.195 1922,262.186 1923.32,262.176 1924.64,262.167 1925.96,262.157 1927.29,262.148 1928.61,262.138 1929.93,262.129 1931.25,262.119 1932.58,262.11 1933.9,262.101 1935.22,262.091 1936.54,262.082 1937.87,262.073 1939.19,262.064 1940.51,262.055 1941.83,262.046 1943.16,262.037 1944.48,262.028 1945.8,262.019 1947.12,262.01 1948.45,262.001 1949.77,261.992 1951.09,261.984 1952.41,261.975 1953.74,261.966 1955.06,261.958 1956.38,261.949 1957.7,261.941 1959.03,261.932 1960.35,261.924 1961.67,261.916 1962.99,261.907 1964.32,261.899 1965.64,261.891 1966.96,261.883 1968.28,261.875 1969.61,261.867 1970.93,261.859 1972.25,261.851 1973.57,261.843 1974.9,261.836 1976.22,261.828 1977.54,261.821 1978.86,261.813 1980.19,261.806 1981.51,261.798 1982.83,261.791 1984.15,261.784 1985.48,261.776 1986.8,261.769 1988.12,261.762 1989.44,261.755 1990.77,261.748 1992.09,261.742 1993.41,261.735 1994.73,261.728 1996.06,261.722 1997.38,261.715 1998.7,261.709 2000.02,261.702 2001.35,261.696 2002.67,261.69 2003.99,261.683 2005.31,261.677 2006.64,261.671 2007.96,261.665 2009.28,261.659 2010.6,261.654 2011.93,261.648 2013.25,261.642 2014.57,261.636 2015.89,261.631 2017.22,261.625 2018.54,261.62 2019.86,261.615 2021.18,261.61 2022.51,261.604 2023.83,261.599 2025.15,261.594 2026.47,261.589 2027.8,261.584 2029.12,261.58 2030.44,261.575 2031.76,261.57 2033.09,261.566 2034.41,261.561 2035.73,261.557 2037.05,261.552 2038.37,261.548 2039.7,261.544 2041.02,261.54 2042.34,261.536 2043.66,261.532 2044.99,261.528 2046.31,261.524 2047.63,261.52 2048.95,261.517 2050.28,261.513 2051.6,261.509 2052.92,261.506 2054.24,261.502 2055.57,261.499 2056.89,261.496 2058.21,261.493 2059.53,261.489 2060.86,261.486 2062.18,261.483 2063.5,261.48 2064.82,261.478 2066.15,261.475 2067.47,261.472 2068.79,261.469 2070.11,261.467 2071.44,261.464 2072.76,261.462 2074.08,261.459 2075.4,261.457 2076.73,261.455 2078.05,261.453 2079.37,261.451 2080.69,261.448 2082.02,261.446 2083.34,261.445 2084.66,261.443 2085.98,261.441 2087.31,261.439 2088.63,261.437 2089.95,261.436 2091.27,261.434 2092.6,261.433 2093.92,261.431 2095.24,261.43 2096.56,261.428 2097.89,261.427 2099.21,261.426 2100.53,261.425 2101.85,261.424 2103.18,261.423 2104.5,261.422 2105.82,261.421 2107.14,261.42 2108.47,261.419 2109.79,261.418 2111.11,261.418 2112.43,261.417 2113.76,261.416 2115.08,261.416 2116.4,261.415 2117.72,261.415 2119.05,261.414 2120.37,261.414 2121.69,261.414 2123.01,261.413 2124.34,261.413 2125.66,261.413 2126.98,261.413 2128.3,261.413 2129.63,261.413 2130.95,261.413 2132.27,261.413 2133.59,261.413 2134.92,261.413 2136.24,261.413 2137.56,261.414 2138.88,261.414 2140.21,261.414 2141.53,261.415 2142.85,261.415 2144.17,261.415 2145.5,261.416 2146.82,261.416 2148.14,261.417 2149.46,261.418 2150.78,261.418 2152.11,261.419 2153.43,261.42 2154.75,261.42 2156.07,261.421 2157.4,261.422 2158.72,261.423 2160.04,261.424 2161.36,261.424 2162.69,261.425 2164.01,261.426 2165.33,261.427 2166.65,261.428 2167.98,261.429 2169.3,261.431 2170.62,261.432 2171.94,261.433 2173.27,261.434 2174.59,261.435 2175.91,261.436 2177.23,261.438 2178.56,261.439 2179.88,261.44 2181.2,261.442 2182.52,261.443 2183.85,261.444 2185.17,261.446 2186.49,261.447 2187.81,261.449 2189.14,261.45 2190.46,261.452 2191.78,261.453 2193.1,261.455 2194.43,261.456 2195.75,261.458 2197.07,261.459 2198.39,261.461 2199.72,261.463 2201.04,261.464 2202.36,261.466 2203.68,261.468 2205.01,261.469 2206.33,261.471 2207.65,261.473 2208.97,261.474 2210.3,261.476 2211.62,261.478 2212.94,261.48 2214.26,261.481 2215.59,261.483 2216.91,261.485 2218.23,261.487 2219.55,261.489 2220.88,261.491 2222.2,261.492 2223.52,261.494 2224.84,261.496 2226.17,261.498 2227.49,261.5 2228.81,261.502 2230.13,261.504 2231.46,261.506 2232.78,261.507 2234.1,261.509 2235.42,261.511 2236.75,261.513 2238.07,261.515 2239.39,261.517 2240.71,261.519 2242.04,261.521 2243.36,261.523 2244.68,261.525 2246,261.527 2247.33,261.529 2248.65,261.531 2249.97,261.533 2251.29,261.535 2252.62,261.537 2253.94,261.538 2255.26,261.54 2256.58,261.542 2257.91,261.544 2259.23,261.546 2260.55,261.548 2261.87,261.55 2263.19,261.552 2264.52,261.554 2265.84,261.556 2267.16,261.558 2268.48,261.56 2269.81,261.562 2271.13,261.564 2272.45,261.566 2273.77,261.568 2275.1,261.569 2276.42,261.571 2277.74,261.573 2279.06,261.575 2280.39,261.577 2281.71,261.579 2283.03,261.581 2284.35,261.583 2285.68,261.585 2287,261.586 2288.32,261.588 2289.64,261.59 2290.97,261.592 2292.29,261.594 2293.24,261.595 "/>
<polyline clip-path="url(#clip161)" style="stroke:#e26f46; stroke-linecap:round; stroke-linejoin:round; stroke-width:4; stroke-opacity:1; fill:none" points="309.539,225.284 309.605,225.284 309.672,225.284 309.804,225.284 310.068,225.284 310.597,225.284 311.655,225.284 312.978,225.284 314.3,225.284 315.623,225.284 316.945,225.284 318.268,225.284 319.59,225.284 320.913,225.284 322.235,225.284 323.557,225.284 324.88,225.284 326.202,225.284 327.525,225.284 328.847,225.284 330.17,225.284 331.492,225.284 332.815,225.284 334.137,225.284 335.46,225.284 336.782,225.284 338.105,225.284 339.427,225.284 340.75,225.284 342.072,225.284 343.395,225.284 344.717,225.284 346.039,225.284 347.362,225.284 348.684,225.284 350.007,225.284 351.329,225.284 352.652,225.284 353.974,225.284 355.297,225.284 356.619,225.284 357.942,225.284 359.264,225.284 360.587,225.284 361.909,225.284 363.232,225.284 364.554,225.284 365.877,225.284 367.199,225.284 368.521,225.284 369.844,225.284 371.166,225.284 372.489,225.284 373.811,225.284 375.134,225.284 375.663,225.284 375.664,755.592 375.664,755.585 375.664,755.578 375.664,755.563 375.664,755.533 375.665,755.473 375.665,755.345 375.667,755.065 375.669,754.765 375.67,754.446 375.674,753.769 375.677,753.041 375.68,752.272 375.683,751.476 375.688,750.328 375.693,749.172 375.697,748.022 375.702,746.881 375.706,745.748 375.711,744.616 375.716,743.478 375.72,742.33 375.729,740.022 375.739,737.751 375.748,735.586 375.757,733.569 375.766,731.689 375.775,729.902 375.784,728.18 375.794,726.544 375.803,725.011 375.821,722.246 375.84,719.845 375.858,717.764 375.876,715.975 375.895,714.465 375.913,713.22 375.95,711.463 375.987,710.573 376.023,710.422 376.06,710.895 376.097,711.863 376.134,713.202 376.17,714.803 376.207,716.555 376.244,718.367 376.281,720.171 376.317,721.875 376.354,723.438 376.391,724.859 376.428,726.074 376.464,727.071 376.501,727.879 376.538,728.463 376.575,728.859 376.611,729.14 376.648,729.268 376.681,729.276 376.714,729.214 376.747,729.097 376.78,728.941 376.847,728.563 376.905,728.232 376.963,727.971 377.021,727.812 377.079,727.775 377.137,727.857 377.195,728.045 377.254,728.328 377.312,728.679 377.37,729.079 377.428,729.51 377.486,729.95 377.544,730.393 377.646,731.137 377.748,731.844 377.85,732.517 377.941,733.106 378.033,733.694 378.106,734.179 378.179,734.682 378.253,735.206 378.399,736.307 378.531,737.364 378.662,738.482 378.794,739.657 378.954,741.163 379.113,742.755 379.272,744.418 379.591,748.02 379.91,751.903 380.196,755.68 380.454,759.287 380.687,762.703 380.919,766.275 381.122,769.55 381.326,772.932 381.503,775.983 381.68,779.115 381.857,782.336 382.034,785.642 382.21,789.008 382.387,792.454 382.741,799.576 383.449,814.614 384.157,830.519 384.865,846.973 385.573,863.605 386.281,880.043 386.989,895.952 387.697,910.917 388.405,924.555 389.112,936.58 389.82,946.764 391.143,960.183 392.321,965.718 393.5,965.379 394.679,959.844 395.857,949.936 397.036,936.879 398.215,921.563 399.393,905.372 400.572,888.654 401.75,872.767 402.929,857.842 404.108,844.528 405.286,832.778 406.465,823.815 407.644,816.869 408.822,814.019 410.001,812.862 411.179,816.566 412.358,822.512 413.537,833.571 414.715,843.347 415.894,859.641 417.073,871.492 418.133,881.929 419.194,891.874 420.255,899.173 421.316,904.69 422.376,906.635 423.437,905.977 424.498,901.739 425.559,895.846 426.619,886.591 427.68,877.038 428.741,864.339 429.802,853.194 430.862,839.973 431.923,827.66 433.246,812.261 434.568,798.684 435.891,786.886 437.213,777.274 438.536,770.176 439.858,765.91 441.181,764.676 442.503,766.433 443.825,770.837 445.148,777.3 446.47,785.036 447.793,793.084 449.115,800.326 450.438,805.847 451.76,808.997 453.083,809.232 454.405,806.279 455.728,800.447 457.05,792.215 458.373,781.444 459.695,769.022 461.018,756.417 462.34,743.507 463.663,729.957 464.985,717.72 466.307,707.495 467.63,698.567 468.952,691.186 470.275,686.199 471.597,683.487 472.92,682.596 474.242,683.473 475.565,685.858 476.887,689.007 478.21,692.179 479.532,694.973 480.855,696.835 482.177,696.879 483.5,695.038 484.822,691.331 486.145,685.618 487.467,678.062 488.789,669.085 490.112,659.139 491.434,648.474 492.757,637.687 494.079,627.074 495.402,616.954 496.724,607.643 498.047,599.42 499.369,592.521 500.692,587.062 502.014,583.056 503.337,580.434 504.659,579.008 505.982,578.437 507.304,578.346 508.626,578.382 509.949,578.13 511.271,577.148 512.594,575.185 513.916,572.168 515.239,567.774 516.561,562.072 517.884,555.447 519.206,547.898 520.529,539.327 521.851,530.404 523.174,521.576 524.496,512.792 525.819,504.25 527.141,496.374 528.464,489.303 529.786,483.058 531.108,477.829 532.431,473.435 533.753,469.865 535.076,466.927 536.398,464.573 537.721,462.535 539.043,460.547 540.366,458.393 541.688,455.886 543.011,452.784 544.333,448.961 545.656,444.414 546.978,439.143 548.301,433.123 549.623,426.531 550.946,419.601 552.268,412.361 553.59,405.069 554.913,397.904 556.235,390.983 557.558,384.446 558.88,378.417 560.203,372.978 561.525,368.132 562.848,363.865 564.17,360.139 565.493,356.843 566.815,353.828 568.138,350.962 569.46,348.133 570.783,345.184 572.105,341.994 573.428,338.482 574.75,334.561 576.072,330.2 577.395,325.433 578.717,320.312 580.04,314.868 581.362,309.228 582.685,303.51 584.007,297.794 585.33,292.198 586.652,286.82 587.975,281.711 589.297,276.935 590.62,272.531 591.942,268.501 593.265,264.824 594.587,261.464 595.91,258.365 597.232,255.436 598.554,252.587 599.877,249.75 601.199,246.851 602.522,243.796 603.844,240.555 605.167,237.121 606.489,233.471 607.812,229.61 609.134,225.575 610.457,221.428 611.779,217.19 613.102,212.97 614.424,208.795 615.747,204.723 617.069,200.803 618.392,197.073 619.714,193.565 621.036,190.297 622.359,187.267 623.681,184.461 625.004,181.855 626.326,179.404 627.649,177.055 628.971,174.769 630.294,172.502 631.616,170.199 632.939,167.829 634.261,165.379 635.584,162.835 636.906,160.184 638.229,157.446 639.551,154.652 640.874,151.822 642.196,148.981 643.518,146.169 644.841,143.425 646.163,140.775 647.486,138.241 648.808,135.856 650.131,133.63 651.453,131.554 652.776,129.631 654.098,127.85 655.421,126.19 656.743,124.625 658.066,123.132 659.388,121.686 660.711,120.255 662.033,118.816 663.356,117.358 664.678,115.871 666,114.34 667.323,112.774 668.645,111.19 669.968,109.595 671.29,108.001 672.613,106.437 673.935,104.921 675.258,103.469 676.58,102.096 677.903,100.813 679.225,99.6211 680.548,98.5384 681.87,97.5575 683.193,96.6748 684.515,95.8828 685.838,95.1722 687.16,94.5248 688.482,93.9254 689.805,93.3606 691.127,92.8168 692.45,92.2778 693.772,91.7401 695.095,91.198 696.417,90.6516 697.74,90.1025 699.062,89.5558 700.385,89.018 701.707,88.5013 703.03,88.0152 704.352,87.5692 705.675,87.175 706.997,86.8441 708.32,86.5751 709.642,86.3756 710.964,86.2467 712.287,86.1857 713.609,86.1865 714.932,86.2449 716.254,86.3561 717.577,86.5067 718.899,86.6881 720.222,86.8958 721.544,87.1209 722.867,87.3564 724.189,87.5991 725.512,87.8479 726.834,88.1021 728.157,88.3624 729.479,88.6335 730.802,88.9208 732.124,89.2289 733.446,89.5627 734.769,89.9305 736.091,90.3371 737.414,90.7833 738.736,91.2734 740.059,91.8088 741.381,92.3878 742.704,93.0085 744.026,93.6683 745.349,94.3634 746.671,95.0886 747.994,95.8395 749.316,96.6102 750.639,97.3956 751.961,98.1935 753.284,99.0001 754.606,99.8135 755.928,100.633 757.251,101.459 758.573,102.292 759.896,103.135 761.218,103.99 762.541,104.861 763.863,105.751 765.186,106.662 766.508,107.597 767.831,108.558 769.153,109.544 770.476,110.556 771.798,111.594 773.121,112.655 774.443,113.738 775.765,114.841 777.088,115.959 778.41,117.09 779.733,118.232 781.055,119.381 782.378,120.535 783.7,121.694 785.023,122.855 786.345,124.019 787.668,125.187 788.99,126.359 790.313,127.536 791.635,128.719 792.958,129.911 794.28,131.113 795.603,132.325 796.925,133.55 798.247,134.787 799.57,136.037 800.892,137.298 802.215,138.572 803.537,139.856 804.86,141.15 806.182,142.451 807.505,143.76 808.827,145.072 810.15,146.386 811.472,147.703 812.795,149.019 814.117,150.334 815.44,151.648 816.762,152.96 818.085,154.272 819.407,155.582 820.729,156.892 822.052,158.203 823.374,159.515 824.697,160.83 826.019,162.147 827.342,163.467 828.664,164.791 829.987,166.118 831.309,167.448 832.632,168.781 833.954,170.115 835.277,171.451 836.599,172.787 837.922,174.122 839.244,175.454 840.567,176.784 841.889,178.109 843.211,179.431 844.534,180.748 845.856,182.059 847.179,183.365 848.501,184.666 849.824,185.962 851.146,187.254 852.469,188.542 853.791,189.826 855.114,191.107 856.436,192.384 857.759,193.659 859.081,194.931 860.404,196.2 861.726,197.466 863.049,198.728 864.371,199.987 865.693,201.242 867.016,202.491 868.338,203.735 869.661,204.973 870.983,206.204 872.306,207.428 873.628,208.644 874.951,209.853 876.273,211.054 877.596,212.247 878.918,213.432 880.241,214.61 881.563,215.779 882.886,216.942 884.208,218.098 885.531,219.247 886.853,220.389 888.175,221.524 889.498,222.653 890.82,223.776 892.143,224.892 893.465,226 894.788,227.102 896.11,228.196 897.433,229.282 898.755,230.359 900.078,231.428 901.4,232.489 902.723,233.54 904.045,234.583 905.368,235.616 906.69,236.639 908.013,237.653 909.335,238.658 910.657,239.653 911.98,240.64 913.302,241.617 914.625,242.585 915.947,243.545 917.27,244.496 918.592,245.439 919.915,246.373 921.237,247.298 922.56,248.215 923.882,249.123 925.205,250.022 926.527,250.912 927.85,251.793 929.172,252.665 930.495,253.527 931.817,254.379 933.139,255.222 934.462,256.054 935.784,256.877 937.107,257.69 938.429,258.493 939.752,259.285 941.074,260.069 942.397,260.842 943.719,261.606 945.042,262.361 946.364,263.106 947.687,263.842 949.009,264.568 950.332,265.286 951.654,265.994 952.977,266.693 954.299,267.383 955.621,268.063 956.944,268.734 958.266,269.396 959.589,270.048 960.911,270.69 962.234,271.323 963.556,271.946 964.879,272.56 966.201,273.163 967.524,273.758 968.846,274.342 970.169,274.917 971.491,275.482 972.814,276.038 974.136,276.585 975.459,277.123 976.781,277.651 978.103,278.17 979.426,278.681 980.748,279.182 982.071,279.675 983.393,280.158 984.716,280.633 986.038,281.099 987.361,281.556 988.683,282.004 990.006,282.443 991.328,282.873 992.651,283.294 993.973,283.706 995.296,284.109 996.618,284.504 997.941,284.889 999.263,285.266 1000.59,285.634 1001.91,285.994 1003.23,286.345 1004.55,286.687 1005.88,287.022 1007.2,287.348 1008.52,287.665 1009.84,287.975 1011.17,288.276 1012.49,288.57 1013.81,288.855 1015.13,289.133 1016.46,289.402 1017.78,289.664 1019.1,289.918 1020.42,290.164 1021.74,290.402 1023.07,290.632 1024.39,290.855 1025.71,291.07 1027.03,291.277 1028.36,291.476 1029.68,291.668 1031,291.853 1032.32,292.03 1033.65,292.2 1034.97,292.363 1036.29,292.519 1037.61,292.668 1038.94,292.809 1040.26,292.944 1041.58,293.072 1042.9,293.193 1044.23,293.307 1045.55,293.415 1046.87,293.516 1048.19,293.611 1049.52,293.699 1050.84,293.78 1052.16,293.855 1053.48,293.924 1054.81,293.987 1056.13,294.043 1057.45,294.093 1058.77,294.136 1060.1,294.174 1061.42,294.206 1062.74,294.232 1064.06,294.252 1065.39,294.266 1066.71,294.274 1068.03,294.277 1069.35,294.275 1070.68,294.267 1072,294.253 1073.32,294.235 1074.64,294.211 1075.97,294.181 1077.29,294.147 1078.61,294.108 1079.93,294.063 1081.26,294.014 1082.58,293.959 1083.9,293.9 1085.22,293.836 1086.55,293.767 1087.87,293.694 1089.19,293.616 1090.51,293.533 1091.84,293.446 1093.16,293.355 1094.48,293.259 1095.8,293.159 1097.13,293.055 1098.45,292.947 1099.77,292.835 1101.09,292.719 1102.42,292.599 1103.74,292.475 1105.06,292.347 1106.38,292.216 1107.71,292.081 1109.03,291.943 1110.35,291.801 1111.67,291.655 1113,291.507 1114.32,291.354 1115.64,291.199 1116.96,291.04 1118.29,290.878 1119.61,290.713 1120.93,290.546 1122.25,290.375 1123.58,290.201 1124.9,290.024 1126.22,289.845 1127.54,289.663 1128.87,289.478 1130.19,289.291 1131.51,289.102 1132.83,288.91 1134.15,288.715 1135.48,288.518 1136.8,288.319 1138.12,288.118 1139.44,287.915 1140.77,287.709 1142.09,287.502 1143.41,287.292 1144.73,287.081 1146.06,286.867 1147.38,286.652 1148.7,286.436 1150.02,286.217 1151.35,285.997 1152.67,285.775 1153.99,285.552 1155.31,285.327 1156.64,285.101 1157.96,284.874 1159.28,284.645 1160.6,284.415 1161.93,284.184 1163.25,283.952 1164.57,283.718 1165.89,283.484 1167.22,283.249 1168.54,283.012 1169.86,282.775 1171.18,282.537 1172.51,282.298 1173.83,282.059 1175.15,281.819 1176.47,281.578 1177.8,281.337 1179.12,281.095 1180.44,280.852 1181.76,280.609 1183.09,280.366 1184.41,280.122 1185.73,279.879 1187.05,279.634 1188.38,279.39 1189.7,279.146 1191.02,278.901 1192.34,278.656 1193.67,278.411 1194.99,278.167 1196.31,277.922 1197.63,277.677 1198.96,277.433 1200.28,277.189 1201.6,276.944 1202.92,276.701 1204.25,276.457 1205.57,276.214 1206.89,275.971 1208.21,275.729 1209.54,275.486 1210.86,275.245 1212.18,275.004 1213.5,274.763 1214.83,274.523 1216.15,274.284 1217.47,274.045 1218.79,273.807 1220.12,273.57 1221.44,273.334 1222.76,273.098 1224.08,272.863 1225.41,272.629 1226.73,272.396 1228.05,272.163 1229.37,271.932 1230.7,271.702 1232.02,271.472 1233.34,271.244 1234.66,271.016 1235.99,270.79 1237.31,270.565 1238.63,270.341 1239.95,270.118 1241.28,269.896 1242.6,269.676 1243.92,269.456 1245.24,269.238 1246.56,269.022 1247.89,268.806 1249.21,268.592 1250.53,268.379 1251.85,268.168 1253.18,267.957 1254.5,267.749 1255.82,267.541 1257.14,267.336 1258.47,267.131 1259.79,266.928 1261.11,266.727 1262.43,266.527 1263.76,266.329 1265.08,266.132 1266.4,265.937 1267.72,265.743 1269.05,265.551 1270.37,265.36 1271.69,265.171 1273.01,264.984 1274.34,264.799 1275.66,264.615 1276.98,264.432 1278.3,264.252 1279.63,264.073 1280.95,263.896 1282.27,263.72 1283.59,263.547 1284.92,263.375 1286.24,263.205 1287.56,263.036 1288.88,262.869 1290.21,262.704 1291.53,262.541 1292.85,262.38 1294.17,262.22 1295.5,262.063 1296.82,261.907 1298.14,261.752 1299.46,261.6 1300.79,261.45 1302.11,261.301 1303.43,261.154 1304.75,261.009 1306.08,260.866 1307.4,260.725 1308.72,260.585 1310.04,260.448 1311.37,260.312 1312.69,260.178 1314.01,260.046 1315.33,259.916 1316.66,259.787 1317.98,259.661 1319.3,259.536 1320.62,259.414 1321.95,259.293 1323.27,259.174 1324.59,259.056 1325.91,258.941 1327.24,258.828 1328.56,258.716 1329.88,258.606 1331.2,258.498 1332.53,258.392 1333.85,258.288 1335.17,258.185 1336.49,258.085 1337.82,257.986 1339.14,257.889 1340.46,257.794 1341.78,257.701 1343.11,257.609 1344.43,257.519 1345.75,257.431 1347.07,257.345 1348.4,257.261 1349.72,257.178 1351.04,257.098 1352.36,257.018 1353.69,256.941 1355.01,256.866 1356.33,256.792 1357.65,256.72 1358.97,256.649 1360.3,256.581 1361.62,256.514 1362.94,256.449 1364.26,256.385 1365.59,256.323 1366.91,256.263 1368.23,256.205 1369.55,256.148 1370.88,256.092 1372.2,256.039 1373.52,255.987 1374.84,255.936 1376.17,255.888 1377.49,255.841 1378.81,255.795 1380.13,255.751 1381.46,255.708 1382.78,255.668 1384.1,255.628 1385.42,255.59 1386.75,255.554 1388.07,255.519 1389.39,255.486 1390.71,255.454 1392.04,255.423 1393.36,255.394 1394.68,255.367 1396,255.341 1397.33,255.316 1398.65,255.293 1399.97,255.271 1401.29,255.25 1402.62,255.231 1403.94,255.214 1405.26,255.197 1406.58,255.182 1407.91,255.168 1409.23,255.156 1410.55,255.144 1411.87,255.134 1413.2,255.126 1414.52,255.118 1415.84,255.112 1417.16,255.107 1418.49,255.103 1419.81,255.1 1421.13,255.099 1422.45,255.099 1423.78,255.1 1425.1,255.102 1426.42,255.105 1427.74,255.109 1429.07,255.114 1430.39,255.121 1431.71,255.128 1433.03,255.136 1434.36,255.146 1435.68,255.157 1437,255.168 1438.32,255.181 1439.65,255.194 1440.97,255.209 1442.29,255.224 1443.61,255.24 1444.94,255.258 1446.26,255.276 1447.58,255.295 1448.9,255.315 1450.23,255.336 1451.55,255.357 1452.87,255.38 1454.19,255.403 1455.52,255.428 1456.84,255.452 1458.16,255.478 1459.48,255.505 1460.81,255.532 1462.13,255.56 1463.45,255.589 1464.77,255.618 1466.09,255.648 1467.42,255.679 1468.74,255.711 1470.06,255.743 1471.38,255.775 1472.71,255.809 1474.03,255.843 1475.35,255.878 1476.67,255.913 1478,255.949 1479.32,255.985 1480.64,256.022 1481.96,256.059 1483.29,256.097 1484.61,256.136 1485.93,256.175 1487.25,256.214 1488.58,256.254 1489.9,256.295 1491.22,256.336 1492.54,256.377 1493.87,256.419 1495.19,256.461 1496.51,256.503 1497.83,256.546 1499.16,256.589 1500.48,256.633 1501.8,256.677 1503.12,256.721 1504.45,256.766 1505.77,256.811 1507.09,256.856 1508.41,256.902 1509.74,256.948 1511.06,256.994 1512.38,257.04 1513.7,257.087 1515.03,257.134 1516.35,257.181 1517.67,257.228 1518.99,257.275 1520.32,257.323 1521.64,257.371 1522.96,257.419 1524.28,257.467 1525.61,257.516 1526.93,257.564 1528.25,257.613 1529.57,257.661 1530.9,257.71 1532.22,257.759 1533.54,257.808 1534.86,257.857 1536.19,257.907 1537.51,257.956 1538.83,258.005 1540.15,258.054 1541.48,258.104 1542.8,258.153 1544.12,258.203 1545.44,258.252 1546.77,258.301 1548.09,258.351 1549.41,258.4 1550.73,258.45 1552.06,258.499 1553.38,258.548 1554.7,258.597 1556.02,258.647 1557.35,258.696 1558.67,258.745 1559.99,258.794 1561.31,258.843 1562.64,258.891 1563.96,258.94 1565.28,258.989 1566.6,259.037 1567.93,259.085 1569.25,259.133 1570.57,259.182 1571.89,259.229 1573.22,259.277 1574.54,259.325 1575.86,259.372 1577.18,259.419 1578.5,259.466 1579.83,259.513 1581.15,259.56 1582.47,259.606 1583.79,259.653 1585.12,259.699 1586.44,259.745 1587.76,259.79 1589.08,259.836 1590.41,259.881 1591.73,259.926 1593.05,259.971 1594.37,260.015 1595.7,260.059 1597.02,260.103 1598.34,260.147 1599.66,260.191 1600.99,260.234 1602.31,260.277 1603.63,260.319 1604.95,260.362 1606.28,260.404 1607.6,260.446 1608.92,260.487 1610.24,260.528 1611.57,260.569 1612.89,260.61 1614.21,260.65 1615.53,260.69 1616.86,260.73 1618.18,260.769 1619.5,260.808 1620.82,260.847 1622.15,260.886 1623.47,260.924 1624.79,260.962 1626.11,260.999 1627.44,261.036 1628.76,261.073 1630.08,261.109 1631.4,261.145 1632.73,261.181 1634.05,261.217 1635.37,261.252 1636.69,261.286 1638.02,261.321 1639.34,261.355 1640.66,261.388 1641.98,261.422 1643.31,261.455 1644.63,261.487 1645.95,261.519 1647.27,261.551 1648.6,261.583 1649.92,261.614 1651.24,261.645 1652.56,261.675 1653.89,261.705 1655.21,261.735 1656.53,261.764 1657.85,261.793 1659.18,261.822 1660.5,261.85 1661.82,261.878 1663.14,261.905 1664.47,261.932 1665.79,261.959 1667.11,261.985 1668.43,262.011 1669.76,262.037 1671.08,262.062 1672.4,262.087 1673.72,262.112 1675.05,262.136 1676.37,262.16 1677.69,262.183 1679.01,262.206 1680.34,262.229 1681.66,262.251 1682.98,262.273 1684.3,262.294 1685.63,262.316 1686.95,262.336 1688.27,262.357 1689.59,262.377 1690.91,262.397 1692.24,262.416 1693.56,262.435 1694.88,262.454 1696.2,262.472 1697.53,262.49 1698.85,262.507 1700.17,262.525 1701.49,262.542 1702.82,262.558 1704.14,262.574 1705.46,262.59 1706.78,262.605 1708.11,262.621 1709.43,262.635 1710.75,262.65 1712.07,262.664 1713.4,262.678 1714.72,262.691 1716.04,262.704 1717.36,262.717 1718.69,262.729 1720.01,262.741 1721.33,262.753 1722.65,262.764 1723.98,262.776 1725.3,262.786 1726.62,262.797 1727.94,262.807 1729.27,262.817 1730.59,262.826 1731.91,262.835 1733.23,262.844 1734.56,262.853 1735.88,262.861 1737.2,262.869 1738.52,262.877 1739.85,262.884 1741.17,262.891 1742.49,262.898 1743.81,262.904 1745.14,262.91 1746.46,262.916 1747.78,262.922 1749.1,262.927 1750.43,262.932 1751.75,262.937 1753.07,262.941 1754.39,262.945 1755.72,262.949 1757.04,262.953 1758.36,262.956 1759.68,262.96 1761.01,262.962 1762.33,262.965 1763.65,262.967 1764.97,262.969 1766.3,262.971 1767.62,262.973 1768.94,262.974 1770.26,262.975 1771.59,262.976 1772.91,262.977 1774.23,262.977 1775.55,262.978 1776.88,262.978 1778.2,262.977 1779.52,262.977 1780.84,262.976 1782.17,262.975 1783.49,262.974 1784.81,262.973 1786.13,262.971 1787.46,262.969 1788.78,262.967 1790.1,262.965 1791.42,262.963 1792.75,262.96 1794.07,262.957 1795.39,262.954 1796.71,262.951 1798.04,262.948 1799.36,262.945 1800.68,262.941 1802,262.937 1803.32,262.933 1804.65,262.929 1805.97,262.924 1807.29,262.92 1808.61,262.915 1809.94,262.91 1811.26,262.905 1812.58,262.9 1813.9,262.895 1815.23,262.889 1816.55,262.884 1817.87,262.878 1819.19,262.872 1820.52,262.866 1821.84,262.86 1823.16,262.854 1824.48,262.847 1825.81,262.841 1827.13,262.834 1828.45,262.827 1829.77,262.82 1831.1,262.813 1832.42,262.806 1833.74,262.799 1835.06,262.792 1836.39,262.784 1837.71,262.777 1839.03,262.769 1840.35,262.761 1841.68,262.753 1843,262.745 1844.32,262.737 1845.64,262.729 1846.97,262.721 1848.29,262.713 1849.61,262.704 1850.93,262.696 1852.26,262.687 1853.58,262.679 1854.9,262.67 1856.22,262.661 1857.55,262.653 1858.87,262.644 1860.19,262.635 1861.51,262.626 1862.84,262.617 1864.16,262.608 1865.48,262.598 1866.8,262.589 1868.13,262.58 1869.45,262.571 1870.77,262.561 1872.09,262.552 1873.42,262.542 1874.74,262.533 1876.06,262.523 1877.38,262.514 1878.71,262.504 1880.03,262.495 1881.35,262.485 1882.67,262.476 1884,262.466 1885.32,262.456 1886.64,262.446 1887.96,262.437 1889.29,262.427 1890.61,262.417 1891.93,262.407 1893.25,262.398 1894.58,262.388 1895.9,262.378 1897.22,262.368 1898.54,262.358 1899.87,262.349 1901.19,262.339 1902.51,262.329 1903.83,262.319 1905.16,262.309 1906.48,262.3 1907.8,262.29 1909.12,262.28 1910.45,262.27 1911.77,262.261 1913.09,262.251 1914.41,262.241 1915.73,262.231 1917.06,262.222 1918.38,262.212 1919.7,262.202 1921.02,262.193 1922.35,262.183 1923.67,262.174 1924.99,262.164 1926.31,262.155 1927.64,262.145 1928.96,262.136 1930.28,262.126 1931.6,262.117 1932.93,262.108 1934.25,262.098 1935.57,262.089 1936.89,262.08 1938.22,262.071 1939.54,262.062 1940.86,262.052 1942.18,262.043 1943.51,262.034 1944.83,262.025 1946.15,262.017 1947.47,262.008 1948.8,261.999 1950.12,261.99 1951.44,261.981 1952.76,261.973 1954.09,261.964 1955.41,261.955 1956.73,261.947 1958.05,261.939 1959.38,261.93 1960.7,261.922 1962.02,261.913 1963.34,261.905 1964.67,261.897 1965.99,261.889 1967.31,261.881 1968.63,261.873 1969.96,261.865 1971.28,261.857 1972.6,261.849 1973.92,261.842 1975.25,261.834 1976.57,261.826 1977.89,261.819 1979.21,261.811 1980.54,261.804 1981.86,261.796 1983.18,261.789 1984.5,261.782 1985.83,261.775 1987.15,261.768 1988.47,261.761 1989.79,261.754 1991.12,261.747 1992.44,261.74 1993.76,261.733 1995.08,261.727 1996.41,261.72 1997.73,261.713 1999.05,261.707 2000.37,261.701 2001.7,261.694 2003.02,261.688 2004.34,261.682 2005.66,261.676 2006.99,261.67 2008.31,261.664 2009.63,261.658 2010.95,261.652 2012.28,261.646 2013.6,261.641 2014.92,261.635 2016.24,261.63 2017.57,261.624 2018.89,261.619 2020.21,261.614 2021.53,261.608 2022.85,261.603 2024.18,261.598 2025.5,261.593 2026.82,261.588 2028.14,261.583 2029.47,261.579 2030.79,261.574 2032.11,261.569 2033.43,261.565 2034.76,261.56 2036.08,261.556 2037.4,261.551 2038.72,261.547 2040.05,261.543 2041.37,261.539 2042.69,261.535 2044.01,261.531 2045.34,261.527 2046.66,261.523 2047.98,261.519 2049.3,261.516 2050.63,261.512 2051.95,261.508 2053.27,261.505 2054.59,261.502 2055.92,261.498 2057.24,261.495 2058.56,261.492 2059.88,261.489 2061.21,261.486 2062.53,261.483 2063.85,261.48 2065.17,261.477 2066.5,261.474 2067.82,261.471 2069.14,261.469 2070.46,261.466 2071.79,261.464 2073.11,261.461 2074.43,261.459 2075.75,261.457 2077.08,261.454 2078.4,261.452 2079.72,261.45 2081.04,261.448 2082.37,261.446 2083.69,261.444 2085.01,261.442 2086.33,261.44 2087.66,261.439 2088.98,261.437 2090.3,261.435 2091.62,261.434 2092.95,261.432 2094.27,261.431 2095.59,261.43 2096.91,261.428 2098.24,261.427 2099.56,261.426 2100.88,261.425 2102.2,261.423 2103.53,261.422 2104.85,261.421 2106.17,261.421 2107.49,261.42 2108.82,261.419 2110.14,261.418 2111.46,261.417 2112.78,261.417 2114.11,261.416 2115.43,261.416 2116.75,261.415 2118.07,261.415 2119.4,261.414 2120.72,261.414 2122.04,261.414 2123.36,261.413 2124.69,261.413 2126.01,261.413 2127.33,261.413 2128.65,261.413 2129.98,261.413 2131.3,261.413 2132.62,261.413 2133.94,261.413 2135.26,261.413 2136.59,261.413 2137.91,261.414 2139.23,261.414 2140.55,261.414 2141.88,261.415 2143.2,261.415 2144.52,261.415 2145.84,261.416 2147.17,261.417 2148.49,261.417 2149.81,261.418 2151.13,261.418 2152.46,261.419 2153.78,261.42 2155.1,261.42 2156.42,261.421 2157.75,261.422 2159.07,261.423 2160.39,261.424 2161.71,261.425 2163.04,261.426 2164.36,261.427 2165.68,261.428 2167,261.429 2168.33,261.43 2169.65,261.431 2170.97,261.432 2172.29,261.433 2173.62,261.434 2174.94,261.436 2176.26,261.437 2177.58,261.438 2178.91,261.439 2180.23,261.441 2181.55,261.442 2182.87,261.443 2184.2,261.445 2185.52,261.446 2186.84,261.448 2188.16,261.449 2189.49,261.45 2190.81,261.452 2192.13,261.453 2193.45,261.455 2194.78,261.457 2196.1,261.458 2197.42,261.46 2198.74,261.461 2200.07,261.463 2201.39,261.465 2202.71,261.466 2204.03,261.468 2205.36,261.47 2206.68,261.471 2208,261.473 2209.32,261.475 2210.65,261.477 2211.97,261.478 2213.29,261.48 2214.61,261.482 2215.94,261.484 2217.26,261.485 2218.58,261.487 2219.9,261.489 2221.23,261.491 2222.55,261.493 2223.87,261.495 2225.19,261.497 2226.52,261.498 2227.84,261.5 2229.16,261.502 2230.48,261.504 2231.81,261.506 2233.13,261.508 2234.45,261.51 2235.77,261.512 2237.1,261.514 2238.42,261.516 2239.74,261.518 2241.06,261.519 2242.39,261.521 2243.71,261.523 2245.03,261.525 2246.35,261.527 2247.67,261.529 2249,261.531 2250.32,261.533 2251.64,261.535 2252.96,261.537 2254.29,261.539 2255.61,261.541 2256.93,261.543 2258.25,261.545 2259.58,261.547 2260.9,261.549 2262.22,261.551 2263.54,261.553 2264.87,261.555 2266.19,261.556 2267.51,261.558 2268.83,261.56 2270.16,261.562 2271.48,261.564 2272.8,261.566 2274.12,261.568 2275.45,261.57 2276.77,261.572 2278.09,261.574 2279.41,261.576 2280.74,261.578 2282.06,261.579 2283.38,261.581 2284.7,261.583 2286.03,261.585 2287.35,261.587 2288.67,261.589 2289.99,261.591 2291.32,261.592 2292.64,261.594 2293.24,261.595 "/>
<path clip-path="url(#clip160)" d="M1819.45 1377.32 L2282.66 1377.32 L2282.66 1221.8 L1819.45 1221.8  Z" fill="#ffffff" fill-rule="evenodd" fill-opacity="1"/>
<polyline clip-path="url(#clip160)" style="stroke:#000000; stroke-linecap:round; stroke-linejoin:round; stroke-width:4; stroke-opacity:1; fill:none" points="1819.45,1377.32 2282.66,1377.32 2282.66,1221.8 1819.45,1221.8 1819.45,1377.32 "/>
<polyline clip-path="url(#clip160)" style="stroke:#009af9; stroke-linecap:round; stroke-linejoin:round; stroke-width:4; stroke-opacity:1; fill:none" points="1842.82,1273.64 1983,1273.64 "/>
<path clip-path="url(#clip160)" d="M2019.56 1290.92 L2006.36 1256.36 L2011.25 1256.36 L2022.2 1285.45 L2033.17 1256.36 L2038.03 1256.36 L2024.86 1290.92 L2019.56 1290.92 Z" fill="#000000" fill-rule="nonzero" fill-opacity="1" /><path clip-path="url(#clip160)" d="M2062.59 1298.79 L2062.59 1302.1 L2037.96 1302.1 L2037.96 1298.79 L2062.59 1298.79 Z" fill="#000000" fill-rule="nonzero" fill-opacity="1" /><path clip-path="url(#clip160)" d="M2083.65 1277.65 Q2083.65 1273.02 2081.73 1270.48 Q2079.83 1267.93 2076.39 1267.93 Q2072.96 1267.93 2071.04 1270.48 Q2069.14 1273.02 2069.14 1277.65 Q2069.14 1282.26 2071.04 1284.8 Q2072.96 1287.35 2076.39 1287.35 Q2079.83 1287.35 2081.73 1284.8 Q2083.65 1282.26 2083.65 1277.65 M2087.91 1287.7 Q2087.91 1294.32 2084.97 1297.54 Q2082.03 1300.78 2075.97 1300.78 Q2073.72 1300.78 2071.73 1300.43 Q2069.74 1300.11 2067.87 1299.41 L2067.87 1295.27 Q2069.74 1296.29 2071.57 1296.77 Q2073.4 1297.26 2075.3 1297.26 Q2079.49 1297.26 2081.57 1295.06 Q2083.65 1292.88 2083.65 1288.46 L2083.65 1286.36 Q2082.33 1288.65 2080.27 1289.78 Q2078.21 1290.92 2075.34 1290.92 Q2070.58 1290.92 2067.66 1287.28 Q2064.74 1283.65 2064.74 1277.65 Q2064.74 1271.63 2067.66 1268 Q2070.58 1264.36 2075.34 1264.36 Q2078.21 1264.36 2080.27 1265.5 Q2082.33 1266.63 2083.65 1268.92 L2083.65 1264.99 L2087.91 1264.99 L2087.91 1287.7 Z" fill="#000000" fill-rule="nonzero" fill-opacity="1" /><path clip-path="url(#clip160)" d="M2118.86 1276.89 L2118.86 1278.97 L2099.28 1278.97 Q2099.56 1283.37 2101.92 1285.68 Q2104.3 1287.98 2108.54 1287.98 Q2110.99 1287.98 2113.28 1287.37 Q2115.6 1286.77 2117.87 1285.57 L2117.87 1289.6 Q2115.58 1290.57 2113.17 1291.08 Q2110.76 1291.59 2108.28 1291.59 Q2102.08 1291.59 2098.45 1287.98 Q2094.83 1284.36 2094.83 1278.21 Q2094.83 1271.84 2098.26 1268.11 Q2101.71 1264.36 2107.54 1264.36 Q2112.77 1264.36 2115.81 1267.74 Q2118.86 1271.1 2118.86 1276.89 M2114.6 1275.64 Q2114.56 1272.14 2112.64 1270.06 Q2110.74 1267.98 2107.59 1267.98 Q2104.02 1267.98 2101.87 1269.99 Q2099.74 1272 2099.42 1275.66 L2114.6 1275.64 Z" fill="#000000" fill-rule="nonzero" fill-opacity="1" /><path clip-path="url(#clip160)" d="M2147.4 1275.27 L2147.4 1290.92 L2143.14 1290.92 L2143.14 1275.41 Q2143.14 1271.73 2141.71 1269.9 Q2140.27 1268.07 2137.4 1268.07 Q2133.95 1268.07 2131.96 1270.27 Q2129.97 1272.47 2129.97 1276.26 L2129.97 1290.92 L2125.69 1290.92 L2125.69 1264.99 L2129.97 1264.99 L2129.97 1269.02 Q2131.5 1266.68 2133.56 1265.52 Q2135.64 1264.36 2138.35 1264.36 Q2142.82 1264.36 2145.11 1267.14 Q2147.4 1269.9 2147.4 1275.27 Z" fill="#000000" fill-rule="nonzero" fill-opacity="1" /><path clip-path="url(#clip160)" d="M2175.6 1298.79 L2175.6 1302.1 L2150.97 1302.1 L2150.97 1298.79 L2175.6 1298.79 Z" fill="#000000" fill-rule="nonzero" fill-opacity="1" /><path clip-path="url(#clip160)" d="M2196.66 1268.92 L2196.66 1254.9 L2200.92 1254.9 L2200.92 1290.92 L2196.66 1290.92 L2196.66 1287.03 Q2195.32 1289.34 2193.26 1290.48 Q2191.22 1291.59 2188.35 1291.59 Q2183.65 1291.59 2180.69 1287.84 Q2177.75 1284.09 2177.75 1277.98 Q2177.75 1271.86 2180.69 1268.11 Q2183.65 1264.36 2188.35 1264.36 Q2191.22 1264.36 2193.26 1265.5 Q2195.32 1266.61 2196.66 1268.92 M2182.15 1277.98 Q2182.15 1282.67 2184.07 1285.36 Q2186.01 1288.02 2189.39 1288.02 Q2192.77 1288.02 2194.72 1285.36 Q2196.66 1282.67 2196.66 1277.98 Q2196.66 1273.28 2194.72 1270.61 Q2192.77 1267.93 2189.39 1267.93 Q2186.01 1267.93 2184.07 1270.61 Q2182.15 1273.28 2182.15 1277.98 Z" fill="#000000" fill-rule="nonzero" fill-opacity="1" /><path clip-path="url(#clip160)" d="M2220.48 1293.32 Q2218.68 1297.95 2216.96 1299.36 Q2215.25 1300.78 2212.38 1300.78 L2208.98 1300.78 L2208.98 1297.21 L2211.48 1297.21 Q2213.24 1297.21 2214.21 1296.38 Q2215.18 1295.54 2216.36 1292.44 L2217.13 1290.5 L2206.64 1264.99 L2211.15 1264.99 L2219.26 1285.27 L2227.36 1264.99 L2231.87 1264.99 L2220.48 1293.32 Z" fill="#000000" fill-rule="nonzero" fill-opacity="1" /><path clip-path="url(#clip160)" d="M2259.3 1275.27 L2259.3 1290.92 L2255.04 1290.92 L2255.04 1275.41 Q2255.04 1271.73 2253.61 1269.9 Q2252.17 1268.07 2249.3 1268.07 Q2245.85 1268.07 2243.86 1270.27 Q2241.87 1272.47 2241.87 1276.26 L2241.87 1290.92 L2237.59 1290.92 L2237.59 1264.99 L2241.87 1264.99 L2241.87 1269.02 Q2243.4 1266.68 2245.46 1265.52 Q2247.54 1264.36 2250.25 1264.36 Q2254.72 1264.36 2257.01 1267.14 Q2259.3 1269.9 2259.3 1275.27 Z" fill="#000000" fill-rule="nonzero" fill-opacity="1" /><polyline clip-path="url(#clip160)" style="stroke:#e26f46; stroke-linecap:round; stroke-linejoin:round; stroke-width:4; stroke-opacity:1; fill:none" points="1842.82,1325.48 1983,1325.48 "/>
<path clip-path="url(#clip160)" d="M2019.56 1342.76 L2006.36 1308.2 L2011.25 1308.2 L2022.2 1337.29 L2033.17 1308.2 L2038.03 1308.2 L2024.86 1342.76 L2019.56 1342.76 Z" fill="#000000" fill-rule="nonzero" fill-opacity="1" /><path clip-path="url(#clip160)" d="M2062.59 1350.63 L2062.59 1353.94 L2037.96 1353.94 L2037.96 1350.63 L2062.59 1350.63 Z" fill="#000000" fill-rule="nonzero" fill-opacity="1" /><path clip-path="url(#clip160)" d="M2083.65 1329.49 Q2083.65 1324.86 2081.73 1322.32 Q2079.83 1319.77 2076.39 1319.77 Q2072.96 1319.77 2071.04 1322.32 Q2069.14 1324.86 2069.14 1329.49 Q2069.14 1334.1 2071.04 1336.64 Q2072.96 1339.19 2076.39 1339.19 Q2079.83 1339.19 2081.73 1336.64 Q2083.65 1334.1 2083.65 1329.49 M2087.91 1339.54 Q2087.91 1346.16 2084.97 1349.38 Q2082.03 1352.62 2075.97 1352.62 Q2073.72 1352.62 2071.73 1352.27 Q2069.74 1351.95 2067.87 1351.25 L2067.87 1347.11 Q2069.74 1348.13 2071.57 1348.61 Q2073.4 1349.1 2075.3 1349.1 Q2079.49 1349.1 2081.57 1346.9 Q2083.65 1344.72 2083.65 1340.3 L2083.65 1338.2 Q2082.33 1340.49 2080.27 1341.62 Q2078.21 1342.76 2075.34 1342.76 Q2070.58 1342.76 2067.66 1339.12 Q2064.74 1335.49 2064.74 1329.49 Q2064.74 1323.47 2067.66 1319.84 Q2070.58 1316.2 2075.34 1316.2 Q2078.21 1316.2 2080.27 1317.34 Q2082.33 1318.47 2083.65 1320.76 L2083.65 1316.83 L2087.91 1316.83 L2087.91 1339.54 Z" fill="#000000" fill-rule="nonzero" fill-opacity="1" /><path clip-path="url(#clip160)" d="M2118.86 1328.73 L2118.86 1330.81 L2099.28 1330.81 Q2099.56 1335.21 2101.92 1337.52 Q2104.3 1339.82 2108.54 1339.82 Q2110.99 1339.82 2113.28 1339.21 Q2115.6 1338.61 2117.87 1337.41 L2117.87 1341.44 Q2115.58 1342.41 2113.17 1342.92 Q2110.76 1343.43 2108.28 1343.43 Q2102.08 1343.43 2098.45 1339.82 Q2094.83 1336.2 2094.83 1330.05 Q2094.83 1323.68 2098.26 1319.95 Q2101.71 1316.2 2107.54 1316.2 Q2112.77 1316.2 2115.81 1319.58 Q2118.86 1322.94 2118.86 1328.73 M2114.6 1327.48 Q2114.56 1323.98 2112.64 1321.9 Q2110.74 1319.82 2107.59 1319.82 Q2104.02 1319.82 2101.87 1321.83 Q2099.74 1323.84 2099.42 1327.5 L2114.6 1327.48 Z" fill="#000000" fill-rule="nonzero" fill-opacity="1" /><path clip-path="url(#clip160)" d="M2147.4 1327.11 L2147.4 1342.76 L2143.14 1342.76 L2143.14 1327.25 Q2143.14 1323.57 2141.71 1321.74 Q2140.27 1319.91 2137.4 1319.91 Q2133.95 1319.91 2131.96 1322.11 Q2129.97 1324.31 2129.97 1328.1 L2129.97 1342.76 L2125.69 1342.76 L2125.69 1316.83 L2129.97 1316.83 L2129.97 1320.86 Q2131.5 1318.52 2133.56 1317.36 Q2135.64 1316.2 2138.35 1316.2 Q2142.82 1316.2 2145.11 1318.98 Q2147.4 1321.74 2147.4 1327.11 Z" fill="#000000" fill-rule="nonzero" fill-opacity="1" /><path clip-path="url(#clip160)" d="M2175.6 1350.63 L2175.6 1353.94 L2150.97 1353.94 L2150.97 1350.63 L2175.6 1350.63 Z" fill="#000000" fill-rule="nonzero" fill-opacity="1" /><path clip-path="url(#clip160)" d="M2196.13 1317.59 L2196.13 1321.62 Q2194.32 1320.7 2192.38 1320.23 Q2190.44 1319.77 2188.35 1319.77 Q2185.18 1319.77 2183.58 1320.74 Q2182.01 1321.71 2182.01 1323.66 Q2182.01 1325.14 2183.14 1326 Q2184.28 1326.83 2187.7 1327.59 L2189.16 1327.92 Q2193.7 1328.89 2195.6 1330.67 Q2197.52 1332.43 2197.52 1335.6 Q2197.52 1339.21 2194.65 1341.32 Q2191.8 1343.43 2186.8 1343.43 Q2184.72 1343.43 2182.45 1343.01 Q2180.2 1342.62 2177.7 1341.81 L2177.7 1337.41 Q2180.07 1338.63 2182.36 1339.26 Q2184.65 1339.86 2186.89 1339.86 Q2189.9 1339.86 2191.52 1338.84 Q2193.14 1337.8 2193.14 1335.93 Q2193.14 1334.19 2191.96 1333.26 Q2190.81 1332.34 2186.85 1331.48 L2185.37 1331.14 Q2181.41 1330.3 2179.65 1328.59 Q2177.89 1326.85 2177.89 1323.84 Q2177.89 1320.19 2180.48 1318.2 Q2183.07 1316.2 2187.84 1316.2 Q2190.2 1316.2 2192.29 1316.55 Q2194.37 1316.9 2196.13 1317.59 Z" fill="#000000" fill-rule="nonzero" fill-opacity="1" /><path clip-path="url(#clip160)" d="M2208.51 1309.47 L2208.51 1316.83 L2217.29 1316.83 L2217.29 1320.14 L2208.51 1320.14 L2208.51 1334.21 Q2208.51 1337.38 2209.37 1338.29 Q2210.25 1339.19 2212.91 1339.19 L2217.29 1339.19 L2217.29 1342.76 L2212.91 1342.76 Q2207.98 1342.76 2206.11 1340.93 Q2204.23 1339.07 2204.23 1334.21 L2204.23 1320.14 L2201.11 1320.14 L2201.11 1316.83 L2204.23 1316.83 L2204.23 1309.47 L2208.51 1309.47 Z" fill="#000000" fill-rule="nonzero" fill-opacity="1" /></svg>
