<?xml version="1.0" encoding="utf-8"?>
<svg xmlns="http://www.w3.org/2000/svg" xmlns:xlink="http://www.w3.org/1999/xlink" width="600" height="400" viewBox="0 0 2400 1600">
<defs>
  <clipPath id="clip360">
    <rect x="0" y="0" width="2400" height="1600"/>
  </clipPath>
</defs>
<path clip-path="url(#clip360)" d="M0 1600 L2400 1600 L2400 0 L0 0  Z" fill="#ffffff" fill-rule="evenodd" fill-opacity="1"/>
<defs>
  <clipPath id="clip361">
    <rect x="250" y="47" width="2104" height="1377"/>
  </clipPath>
</defs>
<path clip-path="url(#clip360)" d="M250.028 1423.18 L2352.76 1423.18 L2352.76 47.2441 L250.028 47.2441  Z" fill="#ffffff" fill-rule="evenodd" fill-opacity="1"/>
<polyline clip-path="url(#clip361)" style="stroke:#000000; stroke-linecap:round; stroke-linejoin:round; stroke-width:2; stroke-opacity:0.1; fill:none" points="566.784,1423.18 566.784,47.2441 "/>
<polyline clip-path="url(#clip361)" style="stroke:#000000; stroke-linecap:round; stroke-linejoin:round; stroke-width:2; stroke-opacity:0.1; fill:none" points="1151.43,1423.18 1151.43,47.2441 "/>
<polyline clip-path="url(#clip361)" style="stroke:#000000; stroke-linecap:round; stroke-linejoin:round; stroke-width:2; stroke-opacity:0.1; fill:none" points="1736.08,1423.18 1736.08,47.2441 "/>
<polyline clip-path="url(#clip361)" style="stroke:#000000; stroke-linecap:round; stroke-linejoin:round; stroke-width:2; stroke-opacity:0.1; fill:none" points="2320.73,1423.18 2320.73,47.2441 "/>
<polyline clip-path="url(#clip361)" style="stroke:#000000; stroke-linecap:round; stroke-linejoin:round; stroke-width:2; stroke-opacity:0.1; fill:none" points="250.028,1316.24 2352.76,1316.24 "/>
<polyline clip-path="url(#clip361)" style="stroke:#000000; stroke-linecap:round; stroke-linejoin:round; stroke-width:2; stroke-opacity:0.1; fill:none" points="250.028,984.692 2352.76,984.692 "/>
<polyline clip-path="url(#clip361)" style="stroke:#000000; stroke-linecap:round; stroke-linejoin:round; stroke-width:2; stroke-opacity:0.1; fill:none" points="250.028,653.14 2352.76,653.14 "/>
<polyline clip-path="url(#clip361)" style="stroke:#000000; stroke-linecap:round; stroke-linejoin:round; stroke-width:2; stroke-opacity:0.1; fill:none" points="250.028,321.588 2352.76,321.588 "/>
<polyline clip-path="url(#clip360)" style="stroke:#000000; stroke-linecap:round; stroke-linejoin:round; stroke-width:4; stroke-opacity:1; fill:none" points="250.028,1423.18 2352.76,1423.18 "/>
<polyline clip-path="url(#clip360)" style="stroke:#000000; stroke-linecap:round; stroke-linejoin:round; stroke-width:4; stroke-opacity:1; fill:none" points="566.784,1423.18 566.784,1404.28 "/>
<polyline clip-path="url(#clip360)" style="stroke:#000000; stroke-linecap:round; stroke-linejoin:round; stroke-width:4; stroke-opacity:1; fill:none" points="1151.43,1423.18 1151.43,1404.28 "/>
<polyline clip-path="url(#clip360)" style="stroke:#000000; stroke-linecap:round; stroke-linejoin:round; stroke-width:4; stroke-opacity:1; fill:none" points="1736.08,1423.18 1736.08,1404.28 "/>
<polyline clip-path="url(#clip360)" style="stroke:#000000; stroke-linecap:round; stroke-linejoin:round; stroke-width:4; stroke-opacity:1; fill:none" points="2320.73,1423.18 2320.73,1404.28 "/>
<path clip-path="url(#clip360)" d="M533.937 1481.64 L541.576 1481.64 L541.576 1455.28 L533.266 1456.95 L533.266 1452.69 L541.53 1451.02 L546.206 1451.02 L546.206 1481.64 L553.844 1481.64 L553.844 1485.58 L533.937 1485.58 L533.937 1481.64 Z" fill="#000000" fill-rule="nonzero" fill-opacity="1" /><path clip-path="url(#clip360)" d="M563.289 1479.7 L568.173 1479.7 L568.173 1485.58 L563.289 1485.58 L563.289 1479.7 Z" fill="#000000" fill-rule="nonzero" fill-opacity="1" /><path clip-path="url(#clip360)" d="M588.358 1454.1 Q584.747 1454.1 582.918 1457.66 Q581.113 1461.2 581.113 1468.33 Q581.113 1475.44 582.918 1479.01 Q584.747 1482.55 588.358 1482.55 Q591.992 1482.55 593.798 1479.01 Q595.627 1475.44 595.627 1468.33 Q595.627 1461.2 593.798 1457.66 Q591.992 1454.1 588.358 1454.1 M588.358 1450.39 Q594.168 1450.39 597.224 1455 Q600.302 1459.58 600.302 1468.33 Q600.302 1477.06 597.224 1481.67 Q594.168 1486.25 588.358 1486.25 Q582.548 1486.25 579.469 1481.67 Q576.414 1477.06 576.414 1468.33 Q576.414 1459.58 579.469 1455 Q582.548 1450.39 588.358 1450.39 Z" fill="#000000" fill-rule="nonzero" fill-opacity="1" /><path clip-path="url(#clip360)" d="M1119.38 1481.64 L1127.02 1481.64 L1127.02 1455.28 L1118.71 1456.95 L1118.71 1452.69 L1126.98 1451.02 L1131.65 1451.02 L1131.65 1481.64 L1139.29 1481.64 L1139.29 1485.58 L1119.38 1485.58 L1119.38 1481.64 Z" fill="#000000" fill-rule="nonzero" fill-opacity="1" /><path clip-path="url(#clip360)" d="M1148.73 1479.7 L1153.62 1479.7 L1153.62 1485.58 L1148.73 1485.58 L1148.73 1479.7 Z" fill="#000000" fill-rule="nonzero" fill-opacity="1" /><path clip-path="url(#clip360)" d="M1167.83 1481.64 L1184.15 1481.64 L1184.15 1485.58 L1162.21 1485.58 L1162.21 1481.64 Q1164.87 1478.89 1169.45 1474.26 Q1174.06 1469.61 1175.24 1468.27 Q1177.48 1465.74 1178.36 1464.01 Q1179.27 1462.25 1179.27 1460.56 Q1179.27 1457.8 1177.32 1456.07 Q1175.4 1454.33 1172.3 1454.33 Q1170.1 1454.33 1167.65 1455.09 Q1165.22 1455.86 1162.44 1457.41 L1162.44 1452.69 Q1165.26 1451.55 1167.72 1450.97 Q1170.17 1450.39 1172.21 1450.39 Q1177.58 1450.39 1180.77 1453.08 Q1183.97 1455.77 1183.97 1460.26 Q1183.97 1462.39 1183.16 1464.31 Q1182.37 1466.2 1180.26 1468.8 Q1179.68 1469.47 1176.58 1472.69 Q1173.48 1475.88 1167.83 1481.64 Z" fill="#000000" fill-rule="nonzero" fill-opacity="1" /><path clip-path="url(#clip360)" d="M1702.99 1481.64 L1710.63 1481.64 L1710.63 1455.28 L1702.32 1456.95 L1702.32 1452.69 L1710.58 1451.02 L1715.26 1451.02 L1715.26 1481.64 L1722.9 1481.64 L1722.9 1485.58 L1702.99 1485.58 L1702.99 1481.64 Z" fill="#000000" fill-rule="nonzero" fill-opacity="1" /><path clip-path="url(#clip360)" d="M1732.34 1479.7 L1737.22 1479.7 L1737.22 1485.58 L1732.34 1485.58 L1732.34 1479.7 Z" fill="#000000" fill-rule="nonzero" fill-opacity="1" /><path clip-path="url(#clip360)" d="M1760.26 1455.09 L1748.45 1473.54 L1760.26 1473.54 L1760.26 1455.09 M1759.03 1451.02 L1764.91 1451.02 L1764.91 1473.54 L1769.84 1473.54 L1769.84 1477.43 L1764.91 1477.43 L1764.91 1485.58 L1760.26 1485.58 L1760.26 1477.43 L1744.66 1477.43 L1744.66 1472.92 L1759.03 1451.02 Z" fill="#000000" fill-rule="nonzero" fill-opacity="1" /><path clip-path="url(#clip360)" d="M2287.8 1481.64 L2295.44 1481.64 L2295.44 1455.28 L2287.13 1456.95 L2287.13 1452.69 L2295.39 1451.02 L2300.07 1451.02 L2300.07 1481.64 L2307.71 1481.64 L2307.71 1485.58 L2287.8 1485.58 L2287.8 1481.64 Z" fill="#000000" fill-rule="nonzero" fill-opacity="1" /><path clip-path="url(#clip360)" d="M2317.15 1479.7 L2322.03 1479.7 L2322.03 1485.58 L2317.15 1485.58 L2317.15 1479.7 Z" fill="#000000" fill-rule="nonzero" fill-opacity="1" /><path clip-path="url(#clip360)" d="M2342.8 1466.44 Q2339.65 1466.44 2337.8 1468.59 Q2335.97 1470.74 2335.97 1474.49 Q2335.97 1478.22 2337.8 1480.39 Q2339.65 1482.55 2342.8 1482.55 Q2345.95 1482.55 2347.77 1480.39 Q2349.63 1478.22 2349.63 1474.49 Q2349.63 1470.74 2347.77 1468.59 Q2345.95 1466.44 2342.8 1466.44 M2352.08 1451.78 L2352.08 1456.04 Q2350.32 1455.21 2348.52 1454.77 Q2346.73 1454.33 2344.97 1454.33 Q2340.34 1454.33 2337.89 1457.45 Q2335.46 1460.58 2335.11 1466.9 Q2336.48 1464.89 2338.54 1463.82 Q2340.6 1462.73 2343.08 1462.73 Q2348.28 1462.73 2351.29 1465.9 Q2354.33 1469.05 2354.33 1474.49 Q2354.33 1479.82 2351.18 1483.03 Q2348.03 1486.25 2342.8 1486.25 Q2336.8 1486.25 2333.63 1481.67 Q2330.46 1477.06 2330.46 1468.33 Q2330.46 1460.14 2334.35 1455.28 Q2338.24 1450.39 2344.79 1450.39 Q2346.55 1450.39 2348.33 1450.74 Q2350.14 1451.09 2352.08 1451.78 Z" fill="#000000" fill-rule="nonzero" fill-opacity="1" /><path clip-path="url(#clip360)" d="M1171.56 1520.52 L1211.76 1520.52 L1211.76 1525.93 L1194.89 1525.93 L1194.89 1568.04 L1188.43 1568.04 L1188.43 1525.93 L1171.56 1525.93 L1171.56 1520.52 Z" fill="#000000" fill-rule="nonzero" fill-opacity="1" /><path clip-path="url(#clip360)" d="M1215.71 1532.4 L1221.57 1532.4 L1221.57 1568.04 L1215.71 1568.04 L1215.71 1532.4 M1215.71 1518.52 L1221.57 1518.52 L1221.57 1525.93 L1215.71 1525.93 L1215.71 1518.52 Z" fill="#000000" fill-rule="nonzero" fill-opacity="1" /><path clip-path="url(#clip360)" d="M1261.57 1539.24 Q1263.77 1535.29 1266.83 1533.41 Q1269.88 1531.54 1274.02 1531.54 Q1279.59 1531.54 1282.61 1535.45 Q1285.64 1539.33 1285.64 1546.53 L1285.64 1568.04 L1279.75 1568.04 L1279.75 1546.72 Q1279.75 1541.59 1277.93 1539.11 Q1276.12 1536.63 1272.4 1536.63 Q1267.84 1536.63 1265.2 1539.65 Q1262.56 1542.68 1262.56 1547.9 L1262.56 1568.04 L1256.67 1568.04 L1256.67 1546.72 Q1256.67 1541.56 1254.86 1539.11 Q1253.04 1536.63 1249.26 1536.63 Q1244.77 1536.63 1242.13 1539.68 Q1239.49 1542.71 1239.49 1547.9 L1239.49 1568.04 L1233.6 1568.04 L1233.6 1532.4 L1239.49 1532.4 L1239.49 1537.93 Q1241.49 1534.66 1244.29 1533.1 Q1247.09 1531.54 1250.94 1531.54 Q1254.83 1531.54 1257.53 1533.51 Q1260.27 1535.48 1261.57 1539.24 Z" fill="#000000" fill-rule="nonzero" fill-opacity="1" /><path clip-path="url(#clip360)" d="M1327.81 1548.76 L1327.81 1551.62 L1300.88 1551.62 Q1301.26 1557.67 1304.51 1560.85 Q1307.79 1564 1313.61 1564 Q1316.99 1564 1320.14 1563.17 Q1323.32 1562.35 1326.44 1560.69 L1326.44 1566.23 Q1323.29 1567.57 1319.98 1568.27 Q1316.67 1568.97 1313.26 1568.97 Q1304.73 1568.97 1299.74 1564 Q1294.77 1559.04 1294.77 1550.57 Q1294.77 1541.82 1299.48 1536.69 Q1304.22 1531.54 1312.25 1531.54 Q1319.44 1531.54 1323.61 1536.18 Q1327.81 1540.8 1327.81 1548.76 M1321.95 1547.04 Q1321.89 1542.23 1319.25 1539.37 Q1316.64 1536.5 1312.31 1536.5 Q1307.41 1536.5 1304.45 1539.27 Q1301.52 1542.04 1301.07 1547.07 L1321.95 1547.04 Z" fill="#000000" fill-rule="nonzero" fill-opacity="1" /><path clip-path="url(#clip360)" d="M1357.6 1518.52 L1371.1 1518.52 L1371.1 1523.07 L1363.46 1523.07 L1363.46 1572.09 L1371.1 1572.09 L1371.1 1576.64 L1357.6 1576.64 L1357.6 1518.52 Z" fill="#000000" fill-rule="nonzero" fill-opacity="1" /><path clip-path="url(#clip360)" d="M1406.3 1533.45 L1406.3 1538.98 Q1403.82 1537.71 1401.14 1537.07 Q1398.47 1536.44 1395.6 1536.44 Q1391.24 1536.44 1389.05 1537.77 Q1386.88 1539.11 1386.88 1541.79 Q1386.88 1543.82 1388.44 1545 Q1390 1546.15 1394.71 1547.2 L1396.72 1547.64 Q1402.96 1548.98 1405.57 1551.43 Q1408.21 1553.85 1408.21 1558.21 Q1408.21 1563.17 1404.26 1566.07 Q1400.35 1568.97 1393.47 1568.97 Q1390.61 1568.97 1387.49 1568.39 Q1384.4 1567.85 1380.96 1566.74 L1380.96 1560.69 Q1384.21 1562.38 1387.36 1563.24 Q1390.51 1564.07 1393.6 1564.07 Q1397.74 1564.07 1399.96 1562.66 Q1402.19 1561.23 1402.19 1558.65 Q1402.19 1556.27 1400.57 1554.99 Q1398.98 1553.72 1393.54 1552.54 L1391.5 1552.07 Q1386.06 1550.92 1383.64 1548.56 Q1381.22 1546.18 1381.22 1542.04 Q1381.22 1537.01 1384.78 1534.27 Q1388.35 1531.54 1394.9 1531.54 Q1398.15 1531.54 1401.02 1532.01 Q1403.88 1532.49 1406.3 1533.45 Z" fill="#000000" fill-rule="nonzero" fill-opacity="1" /><path clip-path="url(#clip360)" d="M1431.22 1518.52 L1431.22 1576.64 L1417.73 1576.64 L1417.73 1572.09 L1425.33 1572.09 L1425.33 1523.07 L1417.73 1523.07 L1417.73 1518.52 L1431.22 1518.52 Z" fill="#000000" fill-rule="nonzero" fill-opacity="1" /><polyline clip-path="url(#clip360)" style="stroke:#000000; stroke-linecap:round; stroke-linejoin:round; stroke-width:4; stroke-opacity:1; fill:none" points="250.028,1423.18 250.028,47.2441 "/>
<polyline clip-path="url(#clip360)" style="stroke:#000000; stroke-linecap:round; stroke-linejoin:round; stroke-width:4; stroke-opacity:1; fill:none" points="250.028,1316.24 268.926,1316.24 "/>
<polyline clip-path="url(#clip360)" style="stroke:#000000; stroke-linecap:round; stroke-linejoin:round; stroke-width:4; stroke-opacity:1; fill:none" points="250.028,984.692 268.926,984.692 "/>
<polyline clip-path="url(#clip360)" style="stroke:#000000; stroke-linecap:round; stroke-linejoin:round; stroke-width:4; stroke-opacity:1; fill:none" points="250.028,653.14 268.926,653.14 "/>
<polyline clip-path="url(#clip360)" style="stroke:#000000; stroke-linecap:round; stroke-linejoin:round; stroke-width:4; stroke-opacity:1; fill:none" points="250.028,321.588 268.926,321.588 "/>
<path clip-path="url(#clip360)" d="M126.205 1302.04 Q122.593 1302.04 120.765 1305.61 Q118.959 1309.15 118.959 1316.28 Q118.959 1323.39 120.765 1326.95 Q122.593 1330.49 126.205 1330.49 Q129.839 1330.49 131.644 1326.95 Q133.473 1323.39 133.473 1316.28 Q133.473 1309.15 131.644 1305.61 Q129.839 1302.04 126.205 1302.04 M126.205 1298.34 Q132.015 1298.34 135.07 1302.95 Q138.149 1307.53 138.149 1316.28 Q138.149 1325.01 135.07 1329.61 Q132.015 1334.2 126.205 1334.2 Q120.394 1334.2 117.316 1329.61 Q114.26 1325.01 114.26 1316.28 Q114.26 1307.53 117.316 1302.95 Q120.394 1298.34 126.205 1298.34 Z" fill="#000000" fill-rule="nonzero" fill-opacity="1" /><path clip-path="url(#clip360)" d="M146.366 1327.64 L151.251 1327.64 L151.251 1333.52 L146.366 1333.52 L146.366 1327.64 Z" fill="#000000" fill-rule="nonzero" fill-opacity="1" /><path clip-path="url(#clip360)" d="M161.575 1332.81 L161.575 1328.55 Q163.334 1329.38 165.14 1329.82 Q166.945 1330.26 168.681 1330.26 Q173.311 1330.26 175.741 1327.16 Q178.195 1324.03 178.542 1317.69 Q177.2 1319.68 175.139 1320.75 Q173.079 1321.81 170.579 1321.81 Q165.394 1321.81 162.362 1318.69 Q159.353 1315.54 159.353 1310.1 Q159.353 1304.77 162.501 1301.56 Q165.649 1298.34 170.88 1298.34 Q176.876 1298.34 180.024 1302.95 Q183.195 1307.53 183.195 1316.28 Q183.195 1324.45 179.306 1329.33 Q175.44 1334.2 168.889 1334.2 Q167.13 1334.2 165.325 1333.85 Q163.519 1333.5 161.575 1332.81 M170.88 1318.15 Q174.028 1318.15 175.857 1316 Q177.709 1313.85 177.709 1310.1 Q177.709 1306.37 175.857 1304.22 Q174.028 1302.04 170.88 1302.04 Q167.732 1302.04 165.88 1304.22 Q164.052 1306.37 164.052 1310.1 Q164.052 1313.85 165.88 1316 Q167.732 1318.15 170.88 1318.15 Z" fill="#000000" fill-rule="nonzero" fill-opacity="1" /><path clip-path="url(#clip360)" d="M204.445 1303.04 L192.639 1321.49 L204.445 1321.49 L204.445 1303.04 M203.218 1298.96 L209.098 1298.96 L209.098 1321.49 L214.028 1321.49 L214.028 1325.38 L209.098 1325.38 L209.098 1333.52 L204.445 1333.52 L204.445 1325.38 L188.843 1325.38 L188.843 1320.86 L203.218 1298.96 Z" fill="#000000" fill-rule="nonzero" fill-opacity="1" /><path clip-path="url(#clip360)" d="M126.529 970.491 Q122.918 970.491 121.089 974.056 Q119.283 977.597 119.283 984.727 Q119.283 991.833 121.089 995.398 Q122.918 998.94 126.529 998.94 Q130.163 998.94 131.968 995.398 Q133.797 991.833 133.797 984.727 Q133.797 977.597 131.968 974.056 Q130.163 970.491 126.529 970.491 M126.529 966.787 Q132.339 966.787 135.394 971.394 Q138.473 975.977 138.473 984.727 Q138.473 993.454 135.394 998.06 Q132.339 1002.64 126.529 1002.64 Q120.718 1002.64 117.64 998.06 Q114.584 993.454 114.584 984.727 Q114.584 975.977 117.64 971.394 Q120.718 966.787 126.529 966.787 Z" fill="#000000" fill-rule="nonzero" fill-opacity="1" /><path clip-path="url(#clip360)" d="M146.691 996.093 L151.575 996.093 L151.575 1001.97 L146.691 1001.97 L146.691 996.093 Z" fill="#000000" fill-rule="nonzero" fill-opacity="1" /><path clip-path="url(#clip360)" d="M161.899 1001.25 L161.899 996.995 Q163.658 997.829 165.464 998.268 Q167.269 998.708 169.005 998.708 Q173.635 998.708 176.065 995.606 Q178.519 992.481 178.866 986.139 Q177.524 988.13 175.464 989.194 Q173.403 990.259 170.903 990.259 Q165.718 990.259 162.686 987.134 Q159.677 983.986 159.677 978.546 Q159.677 973.222 162.825 970.005 Q165.973 966.787 171.204 966.787 Q177.2 966.787 180.348 971.394 Q183.519 975.977 183.519 984.727 Q183.519 992.898 179.63 997.782 Q175.764 1002.64 169.214 1002.64 Q167.454 1002.64 165.649 1002.3 Q163.843 1001.95 161.899 1001.25 M171.204 986.602 Q174.352 986.602 176.181 984.449 Q178.033 982.296 178.033 978.546 Q178.033 974.82 176.181 972.667 Q174.352 970.491 171.204 970.491 Q168.056 970.491 166.204 972.667 Q164.376 974.82 164.376 978.546 Q164.376 982.296 166.204 984.449 Q168.056 986.602 171.204 986.602 Z" fill="#000000" fill-rule="nonzero" fill-opacity="1" /><path clip-path="url(#clip360)" d="M202.5 982.829 Q199.352 982.829 197.5 984.981 Q195.672 987.134 195.672 990.884 Q195.672 994.611 197.5 996.787 Q199.352 998.94 202.5 998.94 Q205.649 998.94 207.477 996.787 Q209.329 994.611 209.329 990.884 Q209.329 987.134 207.477 984.981 Q205.649 982.829 202.5 982.829 M211.783 968.176 L211.783 972.435 Q210.024 971.602 208.218 971.162 Q206.436 970.722 204.676 970.722 Q200.047 970.722 197.593 973.847 Q195.163 976.972 194.815 983.292 Q196.181 981.278 198.241 980.213 Q200.301 979.125 202.778 979.125 Q207.987 979.125 210.996 982.296 Q214.028 985.444 214.028 990.884 Q214.028 996.208 210.88 999.426 Q207.732 1002.64 202.5 1002.64 Q196.505 1002.64 193.334 998.06 Q190.163 993.454 190.163 984.727 Q190.163 976.532 194.051 971.671 Q197.94 966.787 204.491 966.787 Q206.25 966.787 208.033 967.134 Q209.838 967.482 211.783 968.176 Z" fill="#000000" fill-rule="nonzero" fill-opacity="1" /><path clip-path="url(#clip360)" d="M126.783 638.939 Q123.172 638.939 121.343 642.503 Q119.538 646.045 119.538 653.175 Q119.538 660.281 121.343 663.846 Q123.172 667.388 126.783 667.388 Q130.417 667.388 132.223 663.846 Q134.052 660.281 134.052 653.175 Q134.052 646.045 132.223 642.503 Q130.417 638.939 126.783 638.939 M126.783 635.235 Q132.593 635.235 135.649 639.841 Q138.728 644.425 138.728 653.175 Q138.728 661.901 135.649 666.508 Q132.593 671.091 126.783 671.091 Q120.973 671.091 117.894 666.508 Q114.839 661.901 114.839 653.175 Q114.839 644.425 117.894 639.841 Q120.973 635.235 126.783 635.235 Z" fill="#000000" fill-rule="nonzero" fill-opacity="1" /><path clip-path="url(#clip360)" d="M146.945 664.54 L151.829 664.54 L151.829 670.42 L146.945 670.42 L146.945 664.54 Z" fill="#000000" fill-rule="nonzero" fill-opacity="1" /><path clip-path="url(#clip360)" d="M162.153 669.702 L162.153 665.443 Q163.913 666.276 165.718 666.716 Q167.524 667.156 169.26 667.156 Q173.889 667.156 176.32 664.054 Q178.774 660.929 179.121 654.587 Q177.778 656.577 175.718 657.642 Q173.658 658.707 171.158 658.707 Q165.973 658.707 162.94 655.582 Q159.931 652.434 159.931 646.994 Q159.931 641.67 163.079 638.453 Q166.227 635.235 171.459 635.235 Q177.454 635.235 180.602 639.841 Q183.774 644.425 183.774 653.175 Q183.774 661.346 179.885 666.23 Q176.019 671.091 169.468 671.091 Q167.709 671.091 165.903 670.744 Q164.098 670.397 162.153 669.702 M171.459 655.05 Q174.607 655.05 176.436 652.897 Q178.288 650.744 178.288 646.994 Q178.288 643.267 176.436 641.115 Q174.607 638.939 171.459 638.939 Q168.311 638.939 166.459 641.115 Q164.63 643.267 164.63 646.994 Q164.63 650.744 166.459 652.897 Q168.311 655.05 171.459 655.05 Z" fill="#000000" fill-rule="nonzero" fill-opacity="1" /><path clip-path="url(#clip360)" d="M202.176 654.008 Q198.843 654.008 196.922 655.79 Q195.024 657.573 195.024 660.698 Q195.024 663.823 196.922 665.605 Q198.843 667.388 202.176 667.388 Q205.51 667.388 207.431 665.605 Q209.352 663.8 209.352 660.698 Q209.352 657.573 207.431 655.79 Q205.533 654.008 202.176 654.008 M197.5 652.017 Q194.491 651.277 192.801 649.216 Q191.135 647.156 191.135 644.193 Q191.135 640.05 194.075 637.642 Q197.037 635.235 202.176 635.235 Q207.338 635.235 210.278 637.642 Q213.218 640.05 213.218 644.193 Q213.218 647.156 211.528 649.216 Q209.861 651.277 206.875 652.017 Q210.255 652.804 212.13 655.096 Q214.028 657.388 214.028 660.698 Q214.028 665.721 210.949 668.406 Q207.894 671.091 202.176 671.091 Q196.459 671.091 193.38 668.406 Q190.325 665.721 190.325 660.698 Q190.325 657.388 192.223 655.096 Q194.121 652.804 197.5 652.017 M195.787 644.633 Q195.787 647.318 197.454 648.823 Q199.144 650.327 202.176 650.327 Q205.186 650.327 206.875 648.823 Q208.588 647.318 208.588 644.633 Q208.588 641.948 206.875 640.443 Q205.186 638.939 202.176 638.939 Q199.144 638.939 197.454 640.443 Q195.787 641.948 195.787 644.633 Z" fill="#000000" fill-rule="nonzero" fill-opacity="1" /><path clip-path="url(#clip360)" d="M117.501 334.933 L125.14 334.933 L125.14 308.567 L116.83 310.234 L116.83 305.974 L125.093 304.308 L129.769 304.308 L129.769 334.933 L137.408 334.933 L137.408 338.868 L117.501 338.868 L117.501 334.933 Z" fill="#000000" fill-rule="nonzero" fill-opacity="1" /><path clip-path="url(#clip360)" d="M146.853 332.988 L151.737 332.988 L151.737 338.868 L146.853 338.868 L146.853 332.988 Z" fill="#000000" fill-rule="nonzero" fill-opacity="1" /><path clip-path="url(#clip360)" d="M171.922 307.386 Q168.311 307.386 166.482 310.951 Q164.677 314.493 164.677 321.622 Q164.677 328.729 166.482 332.294 Q168.311 335.835 171.922 335.835 Q175.556 335.835 177.362 332.294 Q179.19 328.729 179.19 321.622 Q179.19 314.493 177.362 310.951 Q175.556 307.386 171.922 307.386 M171.922 303.683 Q177.732 303.683 180.788 308.289 Q183.866 312.873 183.866 321.622 Q183.866 330.349 180.788 334.956 Q177.732 339.539 171.922 339.539 Q166.112 339.539 163.033 334.956 Q159.978 330.349 159.978 321.622 Q159.978 312.873 163.033 308.289 Q166.112 303.683 171.922 303.683 Z" fill="#000000" fill-rule="nonzero" fill-opacity="1" /><path clip-path="url(#clip360)" d="M202.084 307.386 Q198.473 307.386 196.644 310.951 Q194.838 314.493 194.838 321.622 Q194.838 328.729 196.644 332.294 Q198.473 335.835 202.084 335.835 Q205.718 335.835 207.524 332.294 Q209.352 328.729 209.352 321.622 Q209.352 314.493 207.524 310.951 Q205.718 307.386 202.084 307.386 M202.084 303.683 Q207.894 303.683 210.949 308.289 Q214.028 312.873 214.028 321.622 Q214.028 330.349 210.949 334.956 Q207.894 339.539 202.084 339.539 Q196.274 339.539 193.195 334.956 Q190.139 330.349 190.139 321.622 Q190.139 312.873 193.195 308.289 Q196.274 303.683 202.084 303.683 Z" fill="#000000" fill-rule="nonzero" fill-opacity="1" /><path clip-path="url(#clip360)" d="M64.0042 913.404 L16.4842 931.546 L16.4842 924.83 L56.4926 909.776 L16.4842 894.689 L16.4842 888.005 L64.0042 906.115 L64.0042 913.404 Z" fill="#000000" fill-rule="nonzero" fill-opacity="1" /><path clip-path="url(#clip360)" d="M32.4621 872.568 Q32.4621 877.279 36.1542 880.016 Q39.8145 882.753 46.212 882.753 Q52.6095 882.753 56.3017 880.048 Q59.9619 877.31 59.9619 872.568 Q59.9619 867.889 56.2698 865.152 Q52.5777 862.415 46.212 862.415 Q39.8781 862.415 36.186 865.152 Q32.4621 867.889 32.4621 872.568 M27.4968 872.568 Q27.4968 864.929 32.4621 860.569 Q37.4273 856.208 46.212 856.208 Q54.9649 856.208 59.9619 860.569 Q64.9272 864.929 64.9272 872.568 Q64.9272 880.239 59.9619 884.599 Q54.9649 888.928 46.212 888.928 Q37.4273 888.928 32.4621 884.599 Q27.4968 880.239 27.4968 872.568 Z" fill="#000000" fill-rule="nonzero" fill-opacity="1" /><path clip-path="url(#clip360)" d="M14.479 846.5 L14.479 840.644 L64.0042 840.644 L64.0042 846.5 L14.479 846.5 Z" fill="#000000" fill-rule="nonzero" fill-opacity="1" /><path clip-path="url(#clip360)" d="M18.2347 822.597 L28.3562 822.597 L28.3562 810.534 L32.9077 810.534 L32.9077 822.597 L52.2594 822.597 Q56.6199 822.597 57.8613 821.42 Q59.1026 820.21 59.1026 816.55 L59.1026 810.534 L64.0042 810.534 L64.0042 816.55 Q64.0042 823.329 61.4897 825.907 Q58.9434 828.485 52.2594 828.485 L32.9077 828.485 L32.9077 832.782 L28.3562 832.782 L28.3562 828.485 L18.2347 828.485 L18.2347 822.597 Z" fill="#000000" fill-rule="nonzero" fill-opacity="1" /><path clip-path="url(#clip360)" d="M46.0847 786.631 Q46.0847 793.729 47.7079 796.466 Q49.3312 799.203 53.2461 799.203 Q56.3653 799.203 58.2114 797.166 Q60.0256 795.097 60.0256 791.564 Q60.0256 786.695 56.5881 783.766 Q53.1188 780.806 47.3897 780.806 L46.0847 780.806 L46.0847 786.631 M43.6657 774.95 L64.0042 774.95 L64.0042 780.806 L58.5933 780.806 Q61.8398 782.812 63.3994 785.803 Q64.9272 788.795 64.9272 793.124 Q64.9272 798.598 61.8716 801.845 Q58.7843 805.06 53.6281 805.06 Q47.6125 805.06 44.5569 801.049 Q41.5014 797.007 41.5014 789.018 L41.5014 780.806 L40.9285 780.806 Q36.8862 780.806 34.6901 783.48 Q32.4621 786.122 32.4621 790.928 Q32.4621 793.983 33.1941 796.88 Q33.9262 799.776 35.3903 802.45 L29.9795 802.45 Q28.7381 799.235 28.1334 796.211 Q27.4968 793.188 27.4968 790.323 Q27.4968 782.589 31.5072 778.769 Q35.5176 774.95 43.6657 774.95 Z" fill="#000000" fill-rule="nonzero" fill-opacity="1" /><path clip-path="url(#clip360)" d="M45.7664 739.429 Q39.4007 739.429 35.8996 742.071 Q32.3984 744.681 32.3984 749.423 Q32.3984 754.134 35.8996 756.776 Q39.4007 759.386 45.7664 759.386 Q52.1003 759.386 55.6014 756.776 Q59.1026 754.134 59.1026 749.423 Q59.1026 744.681 55.6014 742.071 Q52.1003 739.429 45.7664 739.429 M59.58 733.573 Q68.683 733.573 73.1071 737.615 Q77.5631 741.657 77.5631 749.996 Q77.5631 753.084 77.0857 755.821 Q76.6401 758.558 75.6852 761.136 L69.9879 761.136 Q71.3884 758.558 72.0568 756.044 Q72.7252 753.529 72.7252 750.919 Q72.7252 745.158 69.7015 742.294 Q66.7096 739.429 60.6303 739.429 L57.7339 739.429 Q60.885 741.243 62.4446 744.076 Q64.0042 746.909 64.0042 750.856 Q64.0042 757.412 59.0071 761.423 Q54.01 765.433 45.7664 765.433 Q37.491 765.433 32.4939 761.423 Q27.4968 757.412 27.4968 750.856 Q27.4968 746.909 29.0564 744.076 Q30.616 741.243 33.7671 739.429 L28.3562 739.429 L28.3562 733.573 L59.58 733.573 Z" fill="#000000" fill-rule="nonzero" fill-opacity="1" /><path clip-path="url(#clip360)" d="M44.7161 691.018 L47.5806 691.018 L47.5806 717.945 Q53.6281 717.563 56.8109 714.317 Q59.9619 711.038 59.9619 705.214 Q59.9619 701.84 59.1344 698.689 Q58.3069 695.506 56.6518 692.387 L62.1899 692.387 Q63.5267 695.538 64.227 698.848 Q64.9272 702.158 64.9272 705.564 Q64.9272 714.094 59.9619 719.091 Q54.9967 724.056 46.5303 724.056 Q37.7774 724.056 32.6531 719.345 Q27.4968 714.603 27.4968 706.582 Q27.4968 699.389 32.1438 695.219 Q36.7589 691.018 44.7161 691.018 M42.9973 696.875 Q38.1912 696.938 35.3266 699.58 Q32.4621 702.19 32.4621 706.519 Q32.4621 711.42 35.2312 714.38 Q38.0002 717.308 43.0292 717.754 L42.9973 696.875 Z" fill="#000000" fill-rule="nonzero" fill-opacity="1" /><path clip-path="url(#clip360)" d="M14.479 661.227 L14.479 647.731 L19.0304 647.731 L19.0304 655.37 L68.0464 655.37 L68.0464 647.731 L72.5979 647.731 L72.5979 661.227 L14.479 661.227 Z" fill="#000000" fill-rule="nonzero" fill-opacity="1" /><path clip-path="url(#clip360)" d="M58.657 629.589 L77.5631 629.589 L77.5631 635.477 L28.3562 635.477 L28.3562 629.589 L33.7671 629.589 Q30.5842 627.743 29.0564 624.942 Q27.4968 622.109 27.4968 618.194 Q27.4968 611.701 32.6531 607.659 Q37.8093 603.585 46.212 603.585 Q54.6147 603.585 59.771 607.659 Q64.9272 611.701 64.9272 618.194 Q64.9272 622.109 63.3994 624.942 Q61.8398 627.743 58.657 629.589 M46.212 609.664 Q39.7508 609.664 36.0905 612.338 Q32.3984 614.98 32.3984 619.627 Q32.3984 624.274 36.0905 626.947 Q39.7508 629.589 46.212 629.589 Q52.6732 629.589 56.3653 626.947 Q60.0256 624.274 60.0256 619.627 Q60.0256 614.98 56.3653 612.338 Q52.6732 609.664 46.212 609.664 Z" fill="#000000" fill-rule="nonzero" fill-opacity="1" /><path clip-path="url(#clip360)" d="M49.9359 594.482 L28.3562 594.482 L28.3562 588.626 L49.7131 588.626 Q54.7739 588.626 57.3202 586.652 Q59.8346 584.679 59.8346 580.732 Q59.8346 575.99 56.8109 573.252 Q53.7872 570.483 48.5673 570.483 L28.3562 570.483 L28.3562 564.627 L64.0042 564.627 L64.0042 570.483 L58.5296 570.483 Q61.7762 572.616 63.3676 575.449 Q64.9272 578.25 64.9272 581.973 Q64.9272 588.116 61.1078 591.299 Q57.2883 594.482 49.9359 594.482 M27.4968 579.745 L27.4968 579.745 Z" fill="#000000" fill-rule="nonzero" fill-opacity="1" /><path clip-path="url(#clip360)" d="M14.479 538.878 L72.5979 538.878 L72.5979 552.373 L68.0464 552.373 L68.0464 544.766 L19.0304 544.766 L19.0304 552.373 L14.479 552.373 L14.479 538.878 Z" fill="#000000" fill-rule="nonzero" fill-opacity="1" /><polyline clip-path="url(#clip361)" style="stroke:#009af9; stroke-linecap:round; stroke-linejoin:round; stroke-width:4; stroke-opacity:1; fill:none" points="309.539,86.1857 368.004,86.1857 426.469,86.1857 484.934,86.1857 543.398,86.1857 566.784,86.1857 566.967,702.936 566.978,740.709 566.992,785.776 567.006,829.089 567.02,871.144 567.034,912.429 567.048,952.477 567.076,1027.99 567.104,1097.09 567.16,1213.96 567.21,1293.79 567.26,1348.68 567.31,1378.59 567.361,1384.24 567.461,1328.8 567.562,1199.12 567.662,1019.82 567.763,819.628 567.863,625.775 567.964,459.121 568.064,333.678 568.165,256.963 568.265,230.75 568.366,251.693 568.504,343.44 568.643,481.571 568.781,631.472 568.92,760.581 569.059,844.922 569.197,873.623 569.336,850.626 569.475,790.825 569.613,716.839 569.752,646.976 569.891,597.721 570.029,572.241 570.168,570.601 570.306,591.025 570.445,626.813 570.584,669.006 570.786,723.029 570.988,749.889 571.191,744.247 571.393,716.386 571.595,684.535 571.798,664.878 572,664.586 572.202,680.455 572.405,702.019 572.607,719.781 572.809,727.752 573.012,725.047 573.214,715.334 573.416,704.457 573.619,697.617 574.023,702.763 574.376,719.194 574.729,730.345 575.082,727.634 575.4,719.863 575.718,713.871 576.036,713.337 576.353,717.207 576.671,722.41 576.989,725.506 577.306,724.857 577.624,721.391 578.26,714.86 578.762,714.264 579.214,714.515 579.667,712.794 580.119,708.848 580.571,703.74 581.023,698.553 581.475,694.037 581.928,690.12 582.832,681.11 583.737,670.102 584.551,660.628 585.283,652.514 586.016,644.276 586.749,636.039 587.481,628.337 588.214,621.144 588.946,614.297 589.679,608.021 590.412,602.679 591.144,598.176 591.877,594.214 592.609,590.925 593.342,588.642 594.075,587.243 594.807,586.253 595.54,585.741 596.273,586.385 597.005,588.089 597.738,589.661 598.47,591.116 599.203,593.899 599.936,597.886 600.668,601.336 601.401,604.181 602.133,608.152 602.866,613.09 603.599,617.391 604.331,621.15 605.064,625.614 605.797,630.353 606.529,634.451 607.262,638.178 607.994,642.391 608.727,646.729 610.192,654.091 611.657,659.467 613.123,665.023 614.588,669.287 616.053,672.258 617.518,674.861 618.984,676.057 620.449,676.565 621.914,676.587 623.379,675.644 624.845,674.098 627.775,669.93 630.388,665.376 633.002,659.933 635.615,654.409 638.229,649.46 640.842,644.937 643.456,641.23 646.069,639.115 648.683,638.444 651.296,638.562 653.91,640.258 656.523,643.944 659.137,647.149 661.75,650.487 664.364,655.031 666.977,659.059 669.59,661.581 672.204,663.897 674.817,666.058 677.431,666.446 680.044,666.165 682.658,665.843 685.271,664.716 687.885,662.831 690.498,661.408 693.112,660.448 695.725,658.996 698.339,657.845 700.952,658.688 703.566,659.262 706.179,657.766 708.792,659.474 711.406,662.631 714.019,663.246 716.633,664.694 719.246,667.235 721.86,668.745 724.473,670.212 727.087,671.582 729.7,672.605 732.314,673.391 734.927,673.943 737.541,674.3 740.154,674.521 742.767,674.654 747.994,674.918 752.421,675.398 755.816,676.062 759.211,677.02 762.605,678.25 766,679.717 769.395,681.348 772.79,683.061 776.185,684.768 779.579,686.392 782.974,687.884 786.369,689.228 789.764,690.435 793.158,691.537 799.948,693.616 806.738,695.855 812.755,698.185 818.772,700.855 824.187,703.449 829.602,706.107 835.018,708.739 840.433,711.302 845.848,713.803 851.264,716.293 856.679,718.834 862.095,721.457 867.51,724.165 872.925,726.964 878.341,729.835 889.171,735.694 900.002,741.635 910.833,747.671 921.663,753.81 932.494,760.031 943.325,766.343 964.986,779.155 986.648,792.121 1008.31,805.093 1029.97,817.924 1051.63,830.463 1073.29,842.577 1116.62,864.965 1155.61,882.346 1194.6,896.511 1233.59,907.078 1272.58,913.847 1311.57,916.801 1350.56,916.084 1389.55,912.015 1428.54,905.002 1467.53,895.561 1506.52,884.242 1545.51,871.566 1584.5,858.031 1623.49,844.105 1662.48,830.208 1701.47,816.617 1740.46,803.589 1779.45,791.467 1818.45,780.338 1857.44,770.334 1896.43,761.738 1935.42,754.71 1974.41,749.388 2032.87,745.032 2091.34,745.209 2149.8,750.429 2208.27,760.033 2266.73,773.828 "/>
<polyline clip-path="url(#clip361)" style="stroke:#e26f46; stroke-linecap:round; stroke-linejoin:round; stroke-width:4; stroke-opacity:1; fill:none" points="309.539,86.1857 368.004,86.1857 426.469,86.1857 484.934,86.1857 543.398,86.1857 566.784,86.1857 566.83,680.142 566.832,680.134 566.834,680.126 566.839,680.109 566.848,680.076 566.866,680.008 566.902,679.865 566.974,679.552 567.046,679.215 567.118,678.858 567.262,678.1 567.406,677.285 567.55,676.424 567.695,675.531 567.898,674.246 568.101,672.951 568.304,671.663 568.507,670.386 568.71,669.116 568.913,667.848 569.116,666.574 569.319,665.289 569.725,662.703 570.131,660.159 570.538,657.735 570.944,655.475 571.35,653.369 571.756,651.368 572.162,649.439 572.568,647.608 572.975,645.89 573.787,642.794 574.599,640.105 575.411,637.774 576.224,635.77 577.036,634.079 577.848,632.684 579.473,630.716 581.098,629.719 582.722,629.551 584.347,630.081 585.971,631.165 587.596,632.665 589.221,634.457 590.845,636.42 592.47,638.449 594.094,640.47 595.719,642.378 597.344,644.128 598.968,645.72 600.593,647.08 602.217,648.197 603.842,649.102 605.467,649.757 607.091,650.2 608.716,650.515 610.34,650.658 611.802,650.667 613.265,650.597 614.727,650.467 616.189,650.292 619.113,649.869 621.684,649.498 624.255,649.205 626.825,649.028 629.396,648.986 631.967,649.077 634.537,649.289 637.108,649.605 639.679,649.999 642.25,650.447 644.82,650.929 647.391,651.423 649.962,651.918 654.462,652.752 658.963,653.544 663.464,654.297 667.514,654.957 671.565,655.616 674.801,656.158 678.037,656.722 681.274,657.309 687.746,658.542 693.571,659.726 699.396,660.979 705.221,662.294 712.265,663.981 719.309,665.764 726.352,667.626 740.44,671.661 754.528,676.01 767.207,680.24 778.618,684.28 788.887,688.106 799.157,692.107 808.143,695.775 817.129,699.563 824.953,702.98 832.777,706.488 840.601,710.095 848.424,713.798 856.248,717.569 864.072,721.428 879.719,729.405 911.014,746.248 942.309,764.061 973.605,782.49 1004.9,801.119 1036.19,819.529 1067.49,837.348 1098.78,854.109 1130.08,869.384 1161.37,882.852 1192.67,894.258 1251.13,909.288 1303.24,915.487 1355.35,915.107 1407.45,908.908 1459.56,897.811 1511.66,883.187 1563.77,866.033 1615.87,847.899 1667.98,829.174 1720.08,811.38 1772.19,794.663 1824.3,779.752 1876.4,766.591 1928.51,756.553 1980.61,748.773 2032.72,745.581 2084.82,744.285 2136.93,748.434 2189.03,755.093 2241.14,767.48 2293.24,778.429 "/>
<path clip-path="url(#clip360)" d="M1819.45 248.629 L2282.66 248.629 L2282.66 93.1086 L1819.45 93.1086  Z" fill="#ffffff" fill-rule="evenodd" fill-opacity="1"/>
<polyline clip-path="url(#clip360)" style="stroke:#000000; stroke-linecap:round; stroke-linejoin:round; stroke-width:4; stroke-opacity:1; fill:none" points="1819.45,248.629 2282.66,248.629 2282.66,93.1086 1819.45,93.1086 1819.45,248.629 "/>
<polyline clip-path="url(#clip360)" style="stroke:#009af9; stroke-linecap:round; stroke-linejoin:round; stroke-width:4; stroke-opacity:1; fill:none" points="1842.82,144.949 1983,144.949 "/>
<path clip-path="url(#clip360)" d="M2019.56 162.229 L2006.36 127.669 L2011.25 127.669 L2022.2 156.766 L2033.17 127.669 L2038.03 127.669 L2024.86 162.229 L2019.56 162.229 Z" fill="#000000" fill-rule="nonzero" fill-opacity="1" /><path clip-path="url(#clip360)" d="M2062.59 170.099 L2062.59 173.409 L2037.96 173.409 L2037.96 170.099 L2062.59 170.099 Z" fill="#000000" fill-rule="nonzero" fill-opacity="1" /><path clip-path="url(#clip360)" d="M2083.65 148.965 Q2083.65 144.335 2081.73 141.789 Q2079.83 139.243 2076.39 139.243 Q2072.96 139.243 2071.04 141.789 Q2069.14 144.335 2069.14 148.965 Q2069.14 153.571 2071.04 156.118 Q2072.96 158.664 2076.39 158.664 Q2079.83 158.664 2081.73 156.118 Q2083.65 153.571 2083.65 148.965 M2087.91 159.011 Q2087.91 165.631 2084.97 168.849 Q2082.03 172.09 2075.97 172.09 Q2073.72 172.09 2071.73 171.742 Q2069.74 171.418 2067.87 170.724 L2067.87 166.58 Q2069.74 167.599 2071.57 168.085 Q2073.4 168.571 2075.3 168.571 Q2079.49 168.571 2081.57 166.372 Q2083.65 164.196 2083.65 159.775 L2083.65 157.668 Q2082.33 159.96 2080.27 161.094 Q2078.21 162.229 2075.34 162.229 Q2070.58 162.229 2067.66 158.594 Q2064.74 154.96 2064.74 148.965 Q2064.74 142.946 2067.66 139.312 Q2070.58 135.678 2075.34 135.678 Q2078.21 135.678 2080.27 136.812 Q2082.33 137.946 2083.65 140.238 L2083.65 136.303 L2087.91 136.303 L2087.91 159.011 Z" fill="#000000" fill-rule="nonzero" fill-opacity="1" /><path clip-path="url(#clip360)" d="M2118.86 148.201 L2118.86 150.284 L2099.28 150.284 Q2099.56 154.682 2101.92 156.997 Q2104.3 159.289 2108.54 159.289 Q2110.99 159.289 2113.28 158.687 Q2115.6 158.085 2117.87 156.881 L2117.87 160.909 Q2115.58 161.881 2113.17 162.391 Q2110.76 162.9 2108.28 162.9 Q2102.08 162.9 2098.45 159.289 Q2094.83 155.678 2094.83 149.52 Q2094.83 143.155 2098.26 139.428 Q2101.71 135.678 2107.54 135.678 Q2112.77 135.678 2115.81 139.057 Q2118.86 142.414 2118.86 148.201 M2114.6 146.951 Q2114.56 143.456 2112.64 141.372 Q2110.74 139.289 2107.59 139.289 Q2104.02 139.289 2101.87 141.303 Q2099.74 143.317 2099.42 146.974 L2114.6 146.951 Z" fill="#000000" fill-rule="nonzero" fill-opacity="1" /><path clip-path="url(#clip360)" d="M2147.4 146.581 L2147.4 162.229 L2143.14 162.229 L2143.14 146.719 Q2143.14 143.039 2141.71 141.21 Q2140.27 139.382 2137.4 139.382 Q2133.95 139.382 2131.96 141.581 Q2129.97 143.78 2129.97 147.576 L2129.97 162.229 L2125.69 162.229 L2125.69 136.303 L2129.97 136.303 L2129.97 140.331 Q2131.5 137.993 2133.56 136.835 Q2135.64 135.678 2138.35 135.678 Q2142.82 135.678 2145.11 138.456 Q2147.4 141.21 2147.4 146.581 Z" fill="#000000" fill-rule="nonzero" fill-opacity="1" /><path clip-path="url(#clip360)" d="M2175.6 170.099 L2175.6 173.409 L2150.97 173.409 L2150.97 170.099 L2175.6 170.099 Z" fill="#000000" fill-rule="nonzero" fill-opacity="1" /><path clip-path="url(#clip360)" d="M2196.66 140.238 L2196.66 126.21 L2200.92 126.21 L2200.92 162.229 L2196.66 162.229 L2196.66 158.34 Q2195.32 160.655 2193.26 161.789 Q2191.22 162.9 2188.35 162.9 Q2183.65 162.9 2180.69 159.15 Q2177.75 155.4 2177.75 149.289 Q2177.75 143.178 2180.69 139.428 Q2183.65 135.678 2188.35 135.678 Q2191.22 135.678 2193.26 136.812 Q2195.32 137.923 2196.66 140.238 M2182.15 149.289 Q2182.15 153.988 2184.07 156.673 Q2186.01 159.335 2189.39 159.335 Q2192.77 159.335 2194.72 156.673 Q2196.66 153.988 2196.66 149.289 Q2196.66 144.59 2194.72 141.928 Q2192.77 139.243 2189.39 139.243 Q2186.01 139.243 2184.07 141.928 Q2182.15 144.59 2182.15 149.289 Z" fill="#000000" fill-rule="nonzero" fill-opacity="1" /><path clip-path="url(#clip360)" d="M2220.48 164.636 Q2218.68 169.266 2216.96 170.678 Q2215.25 172.09 2212.38 172.09 L2208.98 172.09 L2208.98 168.525 L2211.48 168.525 Q2213.24 168.525 2214.21 167.692 Q2215.18 166.858 2216.36 163.756 L2217.13 161.812 L2206.64 136.303 L2211.15 136.303 L2219.26 156.581 L2227.36 136.303 L2231.87 136.303 L2220.48 164.636 Z" fill="#000000" fill-rule="nonzero" fill-opacity="1" /><path clip-path="url(#clip360)" d="M2259.3 146.581 L2259.3 162.229 L2255.04 162.229 L2255.04 146.719 Q2255.04 143.039 2253.61 141.21 Q2252.17 139.382 2249.3 139.382 Q2245.85 139.382 2243.86 141.581 Q2241.87 143.78 2241.87 147.576 L2241.87 162.229 L2237.59 162.229 L2237.59 136.303 L2241.87 136.303 L2241.87 140.331 Q2243.4 137.993 2245.46 136.835 Q2247.54 135.678 2250.25 135.678 Q2254.72 135.678 2257.01 138.456 Q2259.3 141.21 2259.3 146.581 Z" fill="#000000" fill-rule="nonzero" fill-opacity="1" /><polyline clip-path="url(#clip360)" style="stroke:#e26f46; stroke-linecap:round; stroke-linejoin:round; stroke-width:4; stroke-opacity:1; fill:none" points="1842.82,196.789 1983,196.789 "/>
<path clip-path="url(#clip360)" d="M2019.56 214.069 L2006.36 179.509 L2011.25 179.509 L2022.2 208.606 L2033.17 179.509 L2038.03 179.509 L2024.86 214.069 L2019.56 214.069 Z" fill="#000000" fill-rule="nonzero" fill-opacity="1" /><path clip-path="url(#clip360)" d="M2062.59 221.939 L2062.59 225.249 L2037.96 225.249 L2037.96 221.939 L2062.59 221.939 Z" fill="#000000" fill-rule="nonzero" fill-opacity="1" /><path clip-path="url(#clip360)" d="M2083.65 200.805 Q2083.65 196.175 2081.73 193.629 Q2079.83 191.083 2076.39 191.083 Q2072.96 191.083 2071.04 193.629 Q2069.14 196.175 2069.14 200.805 Q2069.14 205.411 2071.04 207.958 Q2072.96 210.504 2076.39 210.504 Q2079.83 210.504 2081.73 207.958 Q2083.65 205.411 2083.65 200.805 M2087.91 210.851 Q2087.91 217.471 2084.97 220.689 Q2082.03 223.93 2075.97 223.93 Q2073.72 223.93 2071.73 223.582 Q2069.74 223.258 2067.87 222.564 L2067.87 218.42 Q2069.74 219.439 2071.57 219.925 Q2073.4 220.411 2075.3 220.411 Q2079.49 220.411 2081.57 218.212 Q2083.65 216.036 2083.65 211.615 L2083.65 209.508 Q2082.33 211.8 2080.27 212.934 Q2078.21 214.069 2075.34 214.069 Q2070.58 214.069 2067.66 210.434 Q2064.74 206.8 2064.74 200.805 Q2064.74 194.786 2067.66 191.152 Q2070.58 187.518 2075.34 187.518 Q2078.21 187.518 2080.27 188.652 Q2082.33 189.786 2083.65 192.078 L2083.65 188.143 L2087.91 188.143 L2087.91 210.851 Z" fill="#000000" fill-rule="nonzero" fill-opacity="1" /><path clip-path="url(#clip360)" d="M2118.86 200.041 L2118.86 202.124 L2099.28 202.124 Q2099.56 206.522 2101.92 208.837 Q2104.3 211.129 2108.54 211.129 Q2110.99 211.129 2113.28 210.527 Q2115.6 209.925 2117.87 208.721 L2117.87 212.749 Q2115.58 213.721 2113.17 214.231 Q2110.76 214.74 2108.28 214.74 Q2102.08 214.74 2098.45 211.129 Q2094.83 207.518 2094.83 201.36 Q2094.83 194.995 2098.26 191.268 Q2101.71 187.518 2107.54 187.518 Q2112.77 187.518 2115.81 190.897 Q2118.86 194.254 2118.86 200.041 M2114.6 198.791 Q2114.56 195.296 2112.64 193.212 Q2110.74 191.129 2107.59 191.129 Q2104.02 191.129 2101.87 193.143 Q2099.74 195.157 2099.42 198.814 L2114.6 198.791 Z" fill="#000000" fill-rule="nonzero" fill-opacity="1" /><path clip-path="url(#clip360)" d="M2147.4 198.421 L2147.4 214.069 L2143.14 214.069 L2143.14 198.559 Q2143.14 194.879 2141.71 193.05 Q2140.27 191.222 2137.4 191.222 Q2133.95 191.222 2131.96 193.421 Q2129.97 195.62 2129.97 199.416 L2129.97 214.069 L2125.69 214.069 L2125.69 188.143 L2129.97 188.143 L2129.97 192.171 Q2131.5 189.833 2133.56 188.675 Q2135.64 187.518 2138.35 187.518 Q2142.82 187.518 2145.11 190.296 Q2147.4 193.05 2147.4 198.421 Z" fill="#000000" fill-rule="nonzero" fill-opacity="1" /><path clip-path="url(#clip360)" d="M2175.6 221.939 L2175.6 225.249 L2150.97 225.249 L2150.97 221.939 L2175.6 221.939 Z" fill="#000000" fill-rule="nonzero" fill-opacity="1" /><path clip-path="url(#clip360)" d="M2196.13 188.907 L2196.13 192.934 Q2194.32 192.009 2192.38 191.546 Q2190.44 191.083 2188.35 191.083 Q2185.18 191.083 2183.58 192.055 Q2182.01 193.027 2182.01 194.971 Q2182.01 196.453 2183.14 197.309 Q2184.28 198.143 2187.7 198.907 L2189.16 199.231 Q2193.7 200.203 2195.6 201.985 Q2197.52 203.745 2197.52 206.916 Q2197.52 210.527 2194.65 212.633 Q2191.8 214.74 2186.8 214.74 Q2184.72 214.74 2182.45 214.323 Q2180.2 213.93 2177.7 213.12 L2177.7 208.721 Q2180.07 209.948 2182.36 210.573 Q2184.65 211.175 2186.89 211.175 Q2189.9 211.175 2191.52 210.157 Q2193.14 209.115 2193.14 207.24 Q2193.14 205.504 2191.96 204.578 Q2190.81 203.652 2186.85 202.796 L2185.37 202.448 Q2181.41 201.615 2179.65 199.902 Q2177.89 198.166 2177.89 195.157 Q2177.89 191.499 2180.48 189.509 Q2183.07 187.518 2187.84 187.518 Q2190.2 187.518 2192.29 187.865 Q2194.37 188.212 2196.13 188.907 Z" fill="#000000" fill-rule="nonzero" fill-opacity="1" /><path clip-path="url(#clip360)" d="M2208.51 180.782 L2208.51 188.143 L2217.29 188.143 L2217.29 191.453 L2208.51 191.453 L2208.51 205.527 Q2208.51 208.698 2209.37 209.601 Q2210.25 210.504 2212.91 210.504 L2217.29 210.504 L2217.29 214.069 L2212.91 214.069 Q2207.98 214.069 2206.11 212.24 Q2204.23 210.388 2204.23 205.527 L2204.23 191.453 L2201.11 191.453 L2201.11 188.143 L2204.23 188.143 L2204.23 180.782 L2208.51 180.782 Z" fill="#000000" fill-rule="nonzero" fill-opacity="1" /></svg>
