<?xml version="1.0" encoding="utf-8"?>
<svg xmlns="http://www.w3.org/2000/svg" xmlns:xlink="http://www.w3.org/1999/xlink" width="600" height="400" viewBox="0 0 2400 1600">
<defs>
  <clipPath id="clip250">
    <rect x="0" y="0" width="2400" height="1600"/>
  </clipPath>
</defs>
<path clip-path="url(#clip250)" d="M0 1600 L2400 1600 L2400 0 L0 0  Z" fill="#ffffff" fill-rule="evenodd" fill-opacity="1"/>
<defs>
  <clipPath id="clip251">
    <rect x="340" y="47" width="2014" height="1377"/>
  </clipPath>
</defs>
<path clip-path="url(#clip250)" d="M340.028 1423.18 L2352.76 1423.18 L2352.76 47.2441 L340.028 47.2441  Z" fill="#ffffff" fill-rule="evenodd" fill-opacity="1"/>
<polyline clip-path="url(#clip251)" style="stroke:#000000; stroke-linecap:round; stroke-linejoin:round; stroke-width:2; stroke-opacity:0.1; fill:none" points="396.992,1423.18 396.992,47.2441 "/>
<polyline clip-path="url(#clip251)" style="stroke:#000000; stroke-linecap:round; stroke-linejoin:round; stroke-width:2; stroke-opacity:0.1; fill:none" points="871.692,1423.18 871.692,47.2441 "/>
<polyline clip-path="url(#clip251)" style="stroke:#000000; stroke-linecap:round; stroke-linejoin:round; stroke-width:2; stroke-opacity:0.1; fill:none" points="1346.39,1423.18 1346.39,47.2441 "/>
<polyline clip-path="url(#clip251)" style="stroke:#000000; stroke-linecap:round; stroke-linejoin:round; stroke-width:2; stroke-opacity:0.1; fill:none" points="1821.09,1423.18 1821.09,47.2441 "/>
<polyline clip-path="url(#clip251)" style="stroke:#000000; stroke-linecap:round; stroke-linejoin:round; stroke-width:2; stroke-opacity:0.1; fill:none" points="2295.79,1423.18 2295.79,47.2441 "/>
<polyline clip-path="url(#clip251)" style="stroke:#000000; stroke-linecap:round; stroke-linejoin:round; stroke-width:2; stroke-opacity:0.1; fill:none" points="340.028,1187.26 2352.76,1187.26 "/>
<polyline clip-path="url(#clip251)" style="stroke:#000000; stroke-linecap:round; stroke-linejoin:round; stroke-width:2; stroke-opacity:0.1; fill:none" points="340.028,882.913 2352.76,882.913 "/>
<polyline clip-path="url(#clip251)" style="stroke:#000000; stroke-linecap:round; stroke-linejoin:round; stroke-width:2; stroke-opacity:0.1; fill:none" points="340.028,578.561 2352.76,578.561 "/>
<polyline clip-path="url(#clip251)" style="stroke:#000000; stroke-linecap:round; stroke-linejoin:round; stroke-width:2; stroke-opacity:0.1; fill:none" points="340.028,274.209 2352.76,274.209 "/>
<polyline clip-path="url(#clip250)" style="stroke:#000000; stroke-linecap:round; stroke-linejoin:round; stroke-width:4; stroke-opacity:1; fill:none" points="340.028,1423.18 2352.76,1423.18 "/>
<polyline clip-path="url(#clip250)" style="stroke:#000000; stroke-linecap:round; stroke-linejoin:round; stroke-width:4; stroke-opacity:1; fill:none" points="396.992,1423.18 396.992,1404.28 "/>
<polyline clip-path="url(#clip250)" style="stroke:#000000; stroke-linecap:round; stroke-linejoin:round; stroke-width:4; stroke-opacity:1; fill:none" points="871.692,1423.18 871.692,1404.28 "/>
<polyline clip-path="url(#clip250)" style="stroke:#000000; stroke-linecap:round; stroke-linejoin:round; stroke-width:4; stroke-opacity:1; fill:none" points="1346.39,1423.18 1346.39,1404.28 "/>
<polyline clip-path="url(#clip250)" style="stroke:#000000; stroke-linecap:round; stroke-linejoin:round; stroke-width:4; stroke-opacity:1; fill:none" points="1821.09,1423.18 1821.09,1404.28 "/>
<polyline clip-path="url(#clip250)" style="stroke:#000000; stroke-linecap:round; stroke-linejoin:round; stroke-width:4; stroke-opacity:1; fill:none" points="2295.79,1423.18 2295.79,1404.28 "/>
<path clip-path="url(#clip250)" d="M396.992 1454.1 Q393.381 1454.1 391.552 1457.66 Q389.746 1461.2 389.746 1468.33 Q389.746 1475.44 391.552 1479.01 Q393.381 1482.55 396.992 1482.55 Q400.626 1482.55 402.431 1479.01 Q404.26 1475.44 404.26 1468.33 Q404.26 1461.2 402.431 1457.66 Q400.626 1454.1 396.992 1454.1 M396.992 1450.39 Q402.802 1450.39 405.857 1455 Q408.936 1459.58 408.936 1468.33 Q408.936 1477.06 405.857 1481.67 Q402.802 1486.25 396.992 1486.25 Q391.182 1486.25 388.103 1481.67 Q385.047 1477.06 385.047 1468.33 Q385.047 1459.58 388.103 1455 Q391.182 1450.39 396.992 1450.39 Z" fill="#000000" fill-rule="nonzero" fill-opacity="1" /><path clip-path="url(#clip250)" d="M861.97 1451.02 L880.326 1451.02 L880.326 1454.96 L866.252 1454.96 L866.252 1463.43 Q867.27 1463.08 868.289 1462.92 Q869.307 1462.73 870.326 1462.73 Q876.113 1462.73 879.493 1465.9 Q882.872 1469.08 882.872 1474.49 Q882.872 1480.07 879.4 1483.17 Q875.928 1486.25 869.608 1486.25 Q867.432 1486.25 865.164 1485.88 Q862.919 1485.51 860.511 1484.77 L860.511 1480.07 Q862.595 1481.2 864.817 1481.76 Q867.039 1482.32 869.516 1482.32 Q873.52 1482.32 875.858 1480.21 Q878.196 1478.1 878.196 1474.49 Q878.196 1470.88 875.858 1468.77 Q873.52 1466.67 869.516 1466.67 Q867.641 1466.67 865.766 1467.08 Q863.914 1467.5 861.97 1468.38 L861.97 1451.02 Z" fill="#000000" fill-rule="nonzero" fill-opacity="1" /><path clip-path="url(#clip250)" d="M1321.08 1481.64 L1328.72 1481.64 L1328.72 1455.28 L1320.41 1456.95 L1320.41 1452.69 L1328.67 1451.02 L1333.35 1451.02 L1333.35 1481.64 L1340.99 1481.64 L1340.99 1485.58 L1321.08 1485.58 L1321.08 1481.64 Z" fill="#000000" fill-rule="nonzero" fill-opacity="1" /><path clip-path="url(#clip250)" d="M1360.43 1454.1 Q1356.82 1454.1 1354.99 1457.66 Q1353.19 1461.2 1353.19 1468.33 Q1353.19 1475.44 1354.99 1479.01 Q1356.82 1482.55 1360.43 1482.55 Q1364.07 1482.55 1365.87 1479.01 Q1367.7 1475.44 1367.7 1468.33 Q1367.7 1461.2 1365.87 1457.66 Q1364.07 1454.1 1360.43 1454.1 M1360.43 1450.39 Q1366.24 1450.39 1369.3 1455 Q1372.38 1459.58 1372.38 1468.33 Q1372.38 1477.06 1369.3 1481.67 Q1366.24 1486.25 1360.43 1486.25 Q1354.62 1486.25 1351.54 1481.67 Q1348.49 1477.06 1348.49 1468.33 Q1348.49 1459.58 1351.54 1455 Q1354.62 1450.39 1360.43 1450.39 Z" fill="#000000" fill-rule="nonzero" fill-opacity="1" /><path clip-path="url(#clip250)" d="M1796.28 1481.64 L1803.92 1481.64 L1803.92 1455.28 L1795.61 1456.95 L1795.61 1452.69 L1803.87 1451.02 L1808.55 1451.02 L1808.55 1481.64 L1816.18 1481.64 L1816.18 1485.58 L1796.28 1485.58 L1796.28 1481.64 Z" fill="#000000" fill-rule="nonzero" fill-opacity="1" /><path clip-path="url(#clip250)" d="M1825.68 1451.02 L1844.03 1451.02 L1844.03 1454.96 L1829.96 1454.96 L1829.96 1463.43 Q1830.98 1463.08 1831.99 1462.92 Q1833.01 1462.73 1834.03 1462.73 Q1839.82 1462.73 1843.2 1465.9 Q1846.58 1469.08 1846.58 1474.49 Q1846.58 1480.07 1843.11 1483.17 Q1839.63 1486.25 1833.31 1486.25 Q1831.14 1486.25 1828.87 1485.88 Q1826.62 1485.51 1824.22 1484.77 L1824.22 1480.07 Q1826.3 1481.2 1828.52 1481.76 Q1830.74 1482.32 1833.22 1482.32 Q1837.23 1482.32 1839.56 1480.21 Q1841.9 1478.1 1841.9 1474.49 Q1841.9 1470.88 1839.56 1468.77 Q1837.23 1466.67 1833.22 1466.67 Q1831.35 1466.67 1829.47 1467.08 Q1827.62 1467.5 1825.68 1468.38 L1825.68 1451.02 Z" fill="#000000" fill-rule="nonzero" fill-opacity="1" /><path clip-path="url(#clip250)" d="M2274.57 1481.64 L2290.88 1481.64 L2290.88 1485.58 L2268.94 1485.58 L2268.94 1481.64 Q2271.6 1478.89 2276.19 1474.26 Q2280.79 1469.61 2281.97 1468.27 Q2284.22 1465.74 2285.1 1464.01 Q2286 1462.25 2286 1460.56 Q2286 1457.8 2284.06 1456.07 Q2282.13 1454.33 2279.03 1454.33 Q2276.83 1454.33 2274.38 1455.09 Q2271.95 1455.86 2269.17 1457.41 L2269.17 1452.69 Q2272 1451.55 2274.45 1450.97 Q2276.9 1450.39 2278.94 1450.39 Q2284.31 1450.39 2287.5 1453.08 Q2290.7 1455.77 2290.7 1460.26 Q2290.7 1462.39 2289.89 1464.31 Q2289.1 1466.2 2287 1468.8 Q2286.42 1469.47 2283.32 1472.69 Q2280.21 1475.88 2274.57 1481.64 Z" fill="#000000" fill-rule="nonzero" fill-opacity="1" /><path clip-path="url(#clip250)" d="M2310.7 1454.1 Q2307.09 1454.1 2305.26 1457.66 Q2303.45 1461.2 2303.45 1468.33 Q2303.45 1475.44 2305.26 1479.01 Q2307.09 1482.55 2310.7 1482.55 Q2314.33 1482.55 2316.14 1479.01 Q2317.97 1475.44 2317.97 1468.33 Q2317.97 1461.2 2316.14 1457.66 Q2314.33 1454.1 2310.7 1454.1 M2310.7 1450.39 Q2316.51 1450.39 2319.56 1455 Q2322.64 1459.58 2322.64 1468.33 Q2322.64 1477.06 2319.56 1481.67 Q2316.51 1486.25 2310.7 1486.25 Q2304.89 1486.25 2301.81 1481.67 Q2298.75 1477.06 2298.75 1468.33 Q2298.75 1459.58 2301.81 1455 Q2304.89 1450.39 2310.7 1450.39 Z" fill="#000000" fill-rule="nonzero" fill-opacity="1" /><path clip-path="url(#clip250)" d="M1268.27 1520.52 L1308.47 1520.52 L1308.47 1525.93 L1291.6 1525.93 L1291.6 1568.04 L1285.14 1568.04 L1285.14 1525.93 L1268.27 1525.93 L1268.27 1520.52 Z" fill="#000000" fill-rule="nonzero" fill-opacity="1" /><path clip-path="url(#clip250)" d="M1312.41 1532.4 L1318.27 1532.4 L1318.27 1568.04 L1312.41 1568.04 L1312.41 1532.4 M1312.41 1518.52 L1318.27 1518.52 L1318.27 1525.93 L1312.41 1525.93 L1312.41 1518.52 Z" fill="#000000" fill-rule="nonzero" fill-opacity="1" /><path clip-path="url(#clip250)" d="M1358.28 1539.24 Q1360.48 1535.29 1363.53 1533.41 Q1366.59 1531.54 1370.72 1531.54 Q1376.29 1531.54 1379.32 1535.45 Q1382.34 1539.33 1382.34 1546.53 L1382.34 1568.04 L1376.45 1568.04 L1376.45 1546.72 Q1376.45 1541.59 1374.64 1539.11 Q1372.83 1536.63 1369.1 1536.63 Q1364.55 1536.63 1361.91 1539.65 Q1359.27 1542.68 1359.27 1547.9 L1359.27 1568.04 L1353.38 1568.04 L1353.38 1546.72 Q1353.38 1541.56 1351.56 1539.11 Q1349.75 1536.63 1345.96 1536.63 Q1341.47 1536.63 1338.83 1539.68 Q1336.19 1542.71 1336.19 1547.9 L1336.19 1568.04 L1330.3 1568.04 L1330.3 1532.4 L1336.19 1532.4 L1336.19 1537.93 Q1338.2 1534.66 1341 1533.1 Q1343.8 1531.54 1347.65 1531.54 Q1351.53 1531.54 1354.24 1533.51 Q1356.97 1535.48 1358.28 1539.24 Z" fill="#000000" fill-rule="nonzero" fill-opacity="1" /><path clip-path="url(#clip250)" d="M1424.51 1548.76 L1424.51 1551.62 L1397.59 1551.62 Q1397.97 1557.67 1401.22 1560.85 Q1404.49 1564 1410.32 1564 Q1413.69 1564 1416.84 1563.17 Q1420.03 1562.35 1423.15 1560.69 L1423.15 1566.23 Q1420 1567.57 1416.69 1568.27 Q1413.37 1568.97 1409.97 1568.97 Q1401.44 1568.97 1396.44 1564 Q1391.48 1559.04 1391.48 1550.57 Q1391.48 1541.82 1396.19 1536.69 Q1400.93 1531.54 1408.95 1531.54 Q1416.14 1531.54 1420.31 1536.18 Q1424.51 1540.8 1424.51 1548.76 M1418.66 1547.04 Q1418.59 1542.23 1415.95 1539.37 Q1413.34 1536.5 1409.01 1536.5 Q1404.11 1536.5 1401.15 1539.27 Q1398.22 1542.04 1397.78 1547.07 L1418.66 1547.04 Z" fill="#000000" fill-rule="nonzero" fill-opacity="1" /><polyline clip-path="url(#clip250)" style="stroke:#000000; stroke-linecap:round; stroke-linejoin:round; stroke-width:4; stroke-opacity:1; fill:none" points="340.028,1423.18 340.028,47.2441 "/>
<polyline clip-path="url(#clip250)" style="stroke:#000000; stroke-linecap:round; stroke-linejoin:round; stroke-width:4; stroke-opacity:1; fill:none" points="340.028,1187.26 358.925,1187.26 "/>
<polyline clip-path="url(#clip250)" style="stroke:#000000; stroke-linecap:round; stroke-linejoin:round; stroke-width:4; stroke-opacity:1; fill:none" points="340.028,882.913 358.925,882.913 "/>
<polyline clip-path="url(#clip250)" style="stroke:#000000; stroke-linecap:round; stroke-linejoin:round; stroke-width:4; stroke-opacity:1; fill:none" points="340.028,578.561 358.925,578.561 "/>
<polyline clip-path="url(#clip250)" style="stroke:#000000; stroke-linecap:round; stroke-linejoin:round; stroke-width:4; stroke-opacity:1; fill:none" points="340.028,274.209 358.925,274.209 "/>
<path clip-path="url(#clip250)" d="M126.205 1173.06 Q122.593 1173.06 120.765 1176.63 Q118.959 1180.17 118.959 1187.3 Q118.959 1194.41 120.765 1197.97 Q122.593 1201.51 126.205 1201.51 Q129.839 1201.51 131.644 1197.97 Q133.473 1194.41 133.473 1187.3 Q133.473 1180.17 131.644 1176.63 Q129.839 1173.06 126.205 1173.06 M126.205 1169.36 Q132.015 1169.36 135.07 1173.97 Q138.149 1178.55 138.149 1187.3 Q138.149 1196.03 135.07 1200.63 Q132.015 1205.22 126.205 1205.22 Q120.394 1205.22 117.316 1200.63 Q114.26 1196.03 114.26 1187.3 Q114.26 1178.55 117.316 1173.97 Q120.394 1169.36 126.205 1169.36 Z" fill="#000000" fill-rule="nonzero" fill-opacity="1" /><path clip-path="url(#clip250)" d="M146.366 1198.66 L151.251 1198.66 L151.251 1204.54 L146.366 1204.54 L146.366 1198.66 Z" fill="#000000" fill-rule="nonzero" fill-opacity="1" /><path clip-path="url(#clip250)" d="M161.575 1203.83 L161.575 1199.57 Q163.334 1200.4 165.14 1200.84 Q166.945 1201.28 168.681 1201.28 Q173.311 1201.28 175.741 1198.18 Q178.195 1195.05 178.542 1188.71 Q177.2 1190.7 175.139 1191.77 Q173.079 1192.83 170.579 1192.83 Q165.394 1192.83 162.362 1189.71 Q159.353 1186.56 159.353 1181.12 Q159.353 1175.79 162.501 1172.58 Q165.649 1169.36 170.88 1169.36 Q176.876 1169.36 180.024 1173.97 Q183.195 1178.55 183.195 1187.3 Q183.195 1195.47 179.306 1200.35 Q175.44 1205.22 168.889 1205.22 Q167.13 1205.22 165.325 1204.87 Q163.519 1204.52 161.575 1203.83 M170.88 1189.17 Q174.028 1189.17 175.857 1187.02 Q177.709 1184.87 177.709 1181.12 Q177.709 1177.39 175.857 1175.24 Q174.028 1173.06 170.88 1173.06 Q167.732 1173.06 165.88 1175.24 Q164.052 1177.39 164.052 1181.12 Q164.052 1184.87 165.88 1187.02 Q167.732 1189.17 170.88 1189.17 Z" fill="#000000" fill-rule="nonzero" fill-opacity="1" /><path clip-path="url(#clip250)" d="M191.737 1203.83 L191.737 1199.57 Q193.496 1200.4 195.301 1200.84 Q197.107 1201.28 198.843 1201.28 Q203.473 1201.28 205.903 1198.18 Q208.357 1195.05 208.704 1188.71 Q207.362 1190.7 205.301 1191.77 Q203.241 1192.83 200.741 1192.83 Q195.556 1192.83 192.524 1189.71 Q189.514 1186.56 189.514 1181.12 Q189.514 1175.79 192.663 1172.58 Q195.811 1169.36 201.042 1169.36 Q207.037 1169.36 210.186 1173.97 Q213.357 1178.55 213.357 1187.3 Q213.357 1195.47 209.468 1200.35 Q205.602 1205.22 199.051 1205.22 Q197.292 1205.22 195.487 1204.87 Q193.681 1204.52 191.737 1203.83 M201.042 1189.17 Q204.19 1189.17 206.019 1187.02 Q207.871 1184.87 207.871 1181.12 Q207.871 1177.39 206.019 1175.24 Q204.19 1173.06 201.042 1173.06 Q197.894 1173.06 196.042 1175.24 Q194.213 1177.39 194.213 1181.12 Q194.213 1184.87 196.042 1187.02 Q197.894 1189.17 201.042 1189.17 Z" fill="#000000" fill-rule="nonzero" fill-opacity="1" /><path clip-path="url(#clip250)" d="M221.898 1203.83 L221.898 1199.57 Q223.658 1200.4 225.463 1200.84 Q227.269 1201.28 229.005 1201.28 Q233.635 1201.28 236.065 1198.18 Q238.519 1195.05 238.866 1188.71 Q237.523 1190.7 235.463 1191.77 Q233.403 1192.83 230.903 1192.83 Q225.718 1192.83 222.686 1189.71 Q219.676 1186.56 219.676 1181.12 Q219.676 1175.79 222.824 1172.58 Q225.973 1169.36 231.204 1169.36 Q237.199 1169.36 240.347 1173.97 Q243.519 1178.55 243.519 1187.3 Q243.519 1195.47 239.63 1200.35 Q235.764 1205.22 229.213 1205.22 Q227.454 1205.22 225.648 1204.87 Q223.843 1204.52 221.898 1203.83 M231.204 1189.17 Q234.352 1189.17 236.181 1187.02 Q238.033 1184.87 238.033 1181.12 Q238.033 1177.39 236.181 1175.24 Q234.352 1173.06 231.204 1173.06 Q228.056 1173.06 226.204 1175.24 Q224.375 1177.39 224.375 1181.12 Q224.375 1184.87 226.204 1187.02 Q228.056 1189.17 231.204 1189.17 Z" fill="#000000" fill-rule="nonzero" fill-opacity="1" /><path clip-path="url(#clip250)" d="M251.968 1169.98 L270.324 1169.98 L270.324 1173.92 L256.25 1173.92 L256.25 1182.39 Q257.269 1182.04 258.287 1181.88 Q259.306 1181.7 260.324 1181.7 Q266.111 1181.7 269.491 1184.87 Q272.87 1188.04 272.87 1193.46 Q272.87 1199.04 269.398 1202.14 Q265.926 1205.22 259.607 1205.22 Q257.431 1205.22 255.162 1204.85 Q252.917 1204.48 250.509 1203.73 L250.509 1199.04 Q252.593 1200.17 254.815 1200.73 Q257.037 1201.28 259.514 1201.28 Q263.519 1201.28 265.857 1199.17 Q268.195 1197.07 268.195 1193.46 Q268.195 1189.85 265.857 1187.74 Q263.519 1185.63 259.514 1185.63 Q257.639 1185.63 255.764 1186.05 Q253.912 1186.47 251.968 1187.35 L251.968 1169.98 Z" fill="#000000" fill-rule="nonzero" fill-opacity="1" /><path clip-path="url(#clip250)" d="M292.083 1173.06 Q288.472 1173.06 286.643 1176.63 Q284.838 1180.17 284.838 1187.3 Q284.838 1194.41 286.643 1197.97 Q288.472 1201.51 292.083 1201.51 Q295.718 1201.51 297.523 1197.97 Q299.352 1194.41 299.352 1187.3 Q299.352 1180.17 297.523 1176.63 Q295.718 1173.06 292.083 1173.06 M292.083 1169.36 Q297.893 1169.36 300.949 1173.97 Q304.028 1178.55 304.028 1187.3 Q304.028 1196.03 300.949 1200.63 Q297.893 1205.22 292.083 1205.22 Q286.273 1205.22 283.194 1200.63 Q280.139 1196.03 280.139 1187.3 Q280.139 1178.55 283.194 1173.97 Q286.273 1169.36 292.083 1169.36 Z" fill="#000000" fill-rule="nonzero" fill-opacity="1" /><path clip-path="url(#clip250)" d="M127.2 868.711 Q123.589 868.711 121.76 872.276 Q119.955 875.818 119.955 882.948 Q119.955 890.054 121.76 893.619 Q123.589 897.16 127.2 897.16 Q130.834 897.16 132.64 893.619 Q134.468 890.054 134.468 882.948 Q134.468 875.818 132.64 872.276 Q130.834 868.711 127.2 868.711 M127.2 865.008 Q133.01 865.008 136.066 869.614 Q139.144 874.198 139.144 882.948 Q139.144 891.674 136.066 896.281 Q133.01 900.864 127.2 900.864 Q121.39 900.864 118.311 896.281 Q115.256 891.674 115.256 882.948 Q115.256 874.198 118.311 869.614 Q121.39 865.008 127.2 865.008 Z" fill="#000000" fill-rule="nonzero" fill-opacity="1" /><path clip-path="url(#clip250)" d="M147.362 894.313 L152.246 894.313 L152.246 900.193 L147.362 900.193 L147.362 894.313 Z" fill="#000000" fill-rule="nonzero" fill-opacity="1" /><path clip-path="url(#clip250)" d="M162.57 899.475 L162.57 895.216 Q164.329 896.049 166.135 896.489 Q167.94 896.929 169.677 896.929 Q174.306 896.929 176.737 893.827 Q179.19 890.702 179.538 884.36 Q178.195 886.35 176.135 887.415 Q174.075 888.48 171.575 888.48 Q166.39 888.48 163.357 885.355 Q160.348 882.207 160.348 876.767 Q160.348 871.443 163.496 868.225 Q166.644 865.008 171.876 865.008 Q177.871 865.008 181.019 869.614 Q184.19 874.198 184.19 882.948 Q184.19 891.119 180.301 896.003 Q176.436 900.864 169.885 900.864 Q168.126 900.864 166.32 900.517 Q164.515 900.17 162.57 899.475 M171.876 884.823 Q175.024 884.823 176.852 882.67 Q178.704 880.517 178.704 876.767 Q178.704 873.04 176.852 870.887 Q175.024 868.711 171.876 868.711 Q168.727 868.711 166.876 870.887 Q165.047 873.04 165.047 876.767 Q165.047 880.517 166.876 882.67 Q168.727 884.823 171.876 884.823 Z" fill="#000000" fill-rule="nonzero" fill-opacity="1" /><path clip-path="url(#clip250)" d="M192.732 899.475 L192.732 895.216 Q194.491 896.049 196.297 896.489 Q198.102 896.929 199.838 896.929 Q204.468 896.929 206.899 893.827 Q209.352 890.702 209.699 884.36 Q208.357 886.35 206.297 887.415 Q204.237 888.48 201.737 888.48 Q196.551 888.48 193.519 885.355 Q190.51 882.207 190.51 876.767 Q190.51 871.443 193.658 868.225 Q196.806 865.008 202.037 865.008 Q208.033 865.008 211.181 869.614 Q214.352 874.198 214.352 882.948 Q214.352 891.119 210.463 896.003 Q206.598 900.864 200.047 900.864 Q198.287 900.864 196.482 900.517 Q194.676 900.17 192.732 899.475 M202.037 884.823 Q205.186 884.823 207.014 882.67 Q208.866 880.517 208.866 876.767 Q208.866 873.04 207.014 870.887 Q205.186 868.711 202.037 868.711 Q198.889 868.711 197.037 870.887 Q195.209 873.04 195.209 876.767 Q195.209 880.517 197.037 882.67 Q198.889 884.823 202.037 884.823 Z" fill="#000000" fill-rule="nonzero" fill-opacity="1" /><path clip-path="url(#clip250)" d="M222.894 899.475 L222.894 895.216 Q224.653 896.049 226.459 896.489 Q228.264 896.929 230 896.929 Q234.63 896.929 237.06 893.827 Q239.514 890.702 239.861 884.36 Q238.519 886.35 236.459 887.415 Q234.398 888.48 231.898 888.48 Q226.713 888.48 223.681 885.355 Q220.672 882.207 220.672 876.767 Q220.672 871.443 223.82 868.225 Q226.968 865.008 232.199 865.008 Q238.195 865.008 241.343 869.614 Q244.514 874.198 244.514 882.948 Q244.514 891.119 240.625 896.003 Q236.76 900.864 230.209 900.864 Q228.449 900.864 226.644 900.517 Q224.838 900.17 222.894 899.475 M232.199 884.823 Q235.347 884.823 237.176 882.67 Q239.028 880.517 239.028 876.767 Q239.028 873.04 237.176 870.887 Q235.347 868.711 232.199 868.711 Q229.051 868.711 227.199 870.887 Q225.371 873.04 225.371 876.767 Q225.371 880.517 227.199 882.67 Q229.051 884.823 232.199 884.823 Z" fill="#000000" fill-rule="nonzero" fill-opacity="1" /><path clip-path="url(#clip250)" d="M251.736 865.633 L273.958 865.633 L273.958 867.624 L261.412 900.193 L256.528 900.193 L268.333 869.568 L251.736 869.568 L251.736 865.633 Z" fill="#000000" fill-rule="nonzero" fill-opacity="1" /><path clip-path="url(#clip250)" d="M283.125 865.633 L301.481 865.633 L301.481 869.568 L287.407 869.568 L287.407 878.04 Q288.426 877.693 289.444 877.531 Q290.463 877.346 291.481 877.346 Q297.268 877.346 300.648 880.517 Q304.028 883.688 304.028 889.105 Q304.028 894.684 300.555 897.785 Q297.083 900.864 290.764 900.864 Q288.588 900.864 286.319 900.494 Q284.074 900.123 281.667 899.383 L281.667 894.684 Q283.75 895.818 285.972 896.373 Q288.194 896.929 290.671 896.929 Q294.676 896.929 297.014 894.822 Q299.352 892.716 299.352 889.105 Q299.352 885.494 297.014 883.387 Q294.676 881.281 290.671 881.281 Q288.796 881.281 286.921 881.698 Q285.069 882.114 283.125 882.994 L283.125 865.633 Z" fill="#000000" fill-rule="nonzero" fill-opacity="1" /><path clip-path="url(#clip250)" d="M117.015 591.906 L124.654 591.906 L124.654 565.54 L116.343 567.207 L116.343 562.948 L124.607 561.281 L129.283 561.281 L129.283 591.906 L136.922 591.906 L136.922 595.841 L117.015 595.841 L117.015 591.906 Z" fill="#000000" fill-rule="nonzero" fill-opacity="1" /><path clip-path="url(#clip250)" d="M146.366 589.961 L151.251 589.961 L151.251 595.841 L146.366 595.841 L146.366 589.961 Z" fill="#000000" fill-rule="nonzero" fill-opacity="1" /><path clip-path="url(#clip250)" d="M171.436 564.36 Q167.825 564.36 165.996 567.925 Q164.19 571.466 164.19 578.596 Q164.19 585.702 165.996 589.267 Q167.825 592.809 171.436 592.809 Q175.07 592.809 176.876 589.267 Q178.704 585.702 178.704 578.596 Q178.704 571.466 176.876 567.925 Q175.07 564.36 171.436 564.36 M171.436 560.656 Q177.246 560.656 180.301 565.262 Q183.38 569.846 183.38 578.596 Q183.38 587.323 180.301 591.929 Q177.246 596.512 171.436 596.512 Q165.626 596.512 162.547 591.929 Q159.491 587.323 159.491 578.596 Q159.491 569.846 162.547 565.262 Q165.626 560.656 171.436 560.656 Z" fill="#000000" fill-rule="nonzero" fill-opacity="1" /><path clip-path="url(#clip250)" d="M201.598 564.36 Q197.987 564.36 196.158 567.925 Q194.352 571.466 194.352 578.596 Q194.352 585.702 196.158 589.267 Q197.987 592.809 201.598 592.809 Q205.232 592.809 207.037 589.267 Q208.866 585.702 208.866 578.596 Q208.866 571.466 207.037 567.925 Q205.232 564.36 201.598 564.36 M201.598 560.656 Q207.408 560.656 210.463 565.262 Q213.542 569.846 213.542 578.596 Q213.542 587.323 210.463 591.929 Q207.408 596.512 201.598 596.512 Q195.787 596.512 192.709 591.929 Q189.653 587.323 189.653 578.596 Q189.653 569.846 192.709 565.262 Q195.787 560.656 201.598 560.656 Z" fill="#000000" fill-rule="nonzero" fill-opacity="1" /><path clip-path="url(#clip250)" d="M231.76 564.36 Q228.148 564.36 226.32 567.925 Q224.514 571.466 224.514 578.596 Q224.514 585.702 226.32 589.267 Q228.148 592.809 231.76 592.809 Q235.394 592.809 237.199 589.267 Q239.028 585.702 239.028 578.596 Q239.028 571.466 237.199 567.925 Q235.394 564.36 231.76 564.36 M231.76 560.656 Q237.57 560.656 240.625 565.262 Q243.704 569.846 243.704 578.596 Q243.704 587.323 240.625 591.929 Q237.57 596.512 231.76 596.512 Q225.949 596.512 222.871 591.929 Q219.815 587.323 219.815 578.596 Q219.815 569.846 222.871 565.262 Q225.949 560.656 231.76 560.656 Z" fill="#000000" fill-rule="nonzero" fill-opacity="1" /><path clip-path="url(#clip250)" d="M261.921 564.36 Q258.31 564.36 256.482 567.925 Q254.676 571.466 254.676 578.596 Q254.676 585.702 256.482 589.267 Q258.31 592.809 261.921 592.809 Q265.556 592.809 267.361 589.267 Q269.19 585.702 269.19 578.596 Q269.19 571.466 267.361 567.925 Q265.556 564.36 261.921 564.36 M261.921 560.656 Q267.732 560.656 270.787 565.262 Q273.866 569.846 273.866 578.596 Q273.866 587.323 270.787 591.929 Q267.732 596.512 261.921 596.512 Q256.111 596.512 253.033 591.929 Q249.977 587.323 249.977 578.596 Q249.977 569.846 253.033 565.262 Q256.111 560.656 261.921 560.656 Z" fill="#000000" fill-rule="nonzero" fill-opacity="1" /><path clip-path="url(#clip250)" d="M292.083 564.36 Q288.472 564.36 286.643 567.925 Q284.838 571.466 284.838 578.596 Q284.838 585.702 286.643 589.267 Q288.472 592.809 292.083 592.809 Q295.718 592.809 297.523 589.267 Q299.352 585.702 299.352 578.596 Q299.352 571.466 297.523 567.925 Q295.718 564.36 292.083 564.36 M292.083 560.656 Q297.893 560.656 300.949 565.262 Q304.028 569.846 304.028 578.596 Q304.028 587.323 300.949 591.929 Q297.893 596.512 292.083 596.512 Q286.273 596.512 283.194 591.929 Q280.139 587.323 280.139 578.596 Q280.139 569.846 283.194 565.262 Q286.273 560.656 292.083 560.656 Z" fill="#000000" fill-rule="nonzero" fill-opacity="1" /><path clip-path="url(#clip250)" d="M118.01 287.554 L125.649 287.554 L125.649 261.189 L117.339 262.855 L117.339 258.596 L125.603 256.929 L130.279 256.929 L130.279 287.554 L137.917 287.554 L137.917 291.489 L118.01 291.489 L118.01 287.554 Z" fill="#000000" fill-rule="nonzero" fill-opacity="1" /><path clip-path="url(#clip250)" d="M147.362 285.61 L152.246 285.61 L152.246 291.489 L147.362 291.489 L147.362 285.61 Z" fill="#000000" fill-rule="nonzero" fill-opacity="1" /><path clip-path="url(#clip250)" d="M172.431 260.008 Q168.82 260.008 166.991 263.573 Q165.186 267.114 165.186 274.244 Q165.186 281.35 166.991 284.915 Q168.82 288.457 172.431 288.457 Q176.065 288.457 177.871 284.915 Q179.7 281.35 179.7 274.244 Q179.7 267.114 177.871 263.573 Q176.065 260.008 172.431 260.008 M172.431 256.304 Q178.241 256.304 181.297 260.911 Q184.376 265.494 184.376 274.244 Q184.376 282.971 181.297 287.577 Q178.241 292.161 172.431 292.161 Q166.621 292.161 163.542 287.577 Q160.487 282.971 160.487 274.244 Q160.487 265.494 163.542 260.911 Q166.621 256.304 172.431 256.304 Z" fill="#000000" fill-rule="nonzero" fill-opacity="1" /><path clip-path="url(#clip250)" d="M202.593 260.008 Q198.982 260.008 197.153 263.573 Q195.348 267.114 195.348 274.244 Q195.348 281.35 197.153 284.915 Q198.982 288.457 202.593 288.457 Q206.227 288.457 208.033 284.915 Q209.861 281.35 209.861 274.244 Q209.861 267.114 208.033 263.573 Q206.227 260.008 202.593 260.008 M202.593 256.304 Q208.403 256.304 211.459 260.911 Q214.537 265.494 214.537 274.244 Q214.537 282.971 211.459 287.577 Q208.403 292.161 202.593 292.161 Q196.783 292.161 193.704 287.577 Q190.649 282.971 190.649 274.244 Q190.649 265.494 193.704 260.911 Q196.783 256.304 202.593 256.304 Z" fill="#000000" fill-rule="nonzero" fill-opacity="1" /><path clip-path="url(#clip250)" d="M232.755 260.008 Q229.144 260.008 227.315 263.573 Q225.51 267.114 225.51 274.244 Q225.51 281.35 227.315 284.915 Q229.144 288.457 232.755 288.457 Q236.389 288.457 238.195 284.915 Q240.023 281.35 240.023 274.244 Q240.023 267.114 238.195 263.573 Q236.389 260.008 232.755 260.008 M232.755 256.304 Q238.565 256.304 241.621 260.911 Q244.699 265.494 244.699 274.244 Q244.699 282.971 241.621 287.577 Q238.565 292.161 232.755 292.161 Q226.945 292.161 223.866 287.577 Q220.811 282.971 220.811 274.244 Q220.811 265.494 223.866 260.911 Q226.945 256.304 232.755 256.304 Z" fill="#000000" fill-rule="nonzero" fill-opacity="1" /><path clip-path="url(#clip250)" d="M256.945 287.554 L273.264 287.554 L273.264 291.489 L251.32 291.489 L251.32 287.554 Q253.982 284.8 258.565 280.17 Q263.171 275.517 264.352 274.175 Q266.597 271.651 267.477 269.915 Q268.38 268.156 268.38 266.466 Q268.38 263.712 266.435 261.976 Q264.514 260.239 261.412 260.239 Q259.213 260.239 256.759 261.003 Q254.329 261.767 251.551 263.318 L251.551 258.596 Q254.375 257.462 256.829 256.883 Q259.283 256.304 261.32 256.304 Q266.69 256.304 269.884 258.989 Q273.079 261.675 273.079 266.165 Q273.079 268.295 272.269 270.216 Q271.482 272.114 269.375 274.707 Q268.796 275.378 265.695 278.596 Q262.593 281.79 256.945 287.554 Z" fill="#000000" fill-rule="nonzero" fill-opacity="1" /><path clip-path="url(#clip250)" d="M283.125 256.929 L301.481 256.929 L301.481 260.864 L287.407 260.864 L287.407 269.337 Q288.426 268.989 289.444 268.827 Q290.463 268.642 291.481 268.642 Q297.268 268.642 300.648 271.813 Q304.028 274.985 304.028 280.401 Q304.028 285.98 300.555 289.082 Q297.083 292.161 290.764 292.161 Q288.588 292.161 286.319 291.79 Q284.074 291.42 281.667 290.679 L281.667 285.98 Q283.75 287.114 285.972 287.67 Q288.194 288.225 290.671 288.225 Q294.676 288.225 297.014 286.119 Q299.352 284.012 299.352 280.401 Q299.352 276.79 297.014 274.684 Q294.676 272.577 290.671 272.577 Q288.796 272.577 286.921 272.994 Q285.069 273.411 283.125 274.29 L283.125 256.929 Z" fill="#000000" fill-rule="nonzero" fill-opacity="1" /><path clip-path="url(#clip250)" d="M18.0438 878.981 L24.314 878.981 Q22.5634 882.642 21.704 885.888 Q20.8447 889.135 20.8447 892.158 Q20.8447 897.41 22.8817 900.275 Q24.9187 903.107 28.6745 903.107 Q31.8255 903.107 33.4488 901.23 Q35.0402 899.32 36.0269 894.036 L36.8226 890.153 Q38.1912 882.96 41.6605 879.554 Q45.098 876.117 50.8908 876.117 Q57.7976 876.117 61.3624 880.764 Q64.9272 885.379 64.9272 894.323 Q64.9272 897.697 64.1633 901.516 Q63.3994 905.304 61.9035 909.378 L55.2831 909.378 Q57.4793 905.463 58.5933 901.707 Q59.7073 897.951 59.7073 894.323 Q59.7073 888.816 57.543 885.825 Q55.3786 882.833 51.3682 882.833 Q47.8671 882.833 45.8937 884.997 Q43.9204 887.13 42.9337 892.031 L42.1698 895.946 Q40.7375 903.139 37.682 906.354 Q34.6264 909.569 29.1837 909.569 Q22.8817 909.569 19.2532 905.145 Q15.6248 900.689 15.6248 892.891 Q15.6248 889.549 16.2295 886.079 Q16.8343 882.61 18.0438 878.981 Z" fill="#000000" fill-rule="nonzero" fill-opacity="1" /><path clip-path="url(#clip250)" d="M58.657 860.68 L77.5631 860.68 L77.5631 866.568 L28.3562 866.568 L28.3562 860.68 L33.7671 860.68 Q30.5842 858.834 29.0564 856.033 Q27.4968 853.2 27.4968 849.285 Q27.4968 842.792 32.6531 838.75 Q37.8093 834.676 46.212 834.676 Q54.6147 834.676 59.771 838.75 Q64.9272 842.792 64.9272 849.285 Q64.9272 853.2 63.3994 856.033 Q61.8398 858.834 58.657 860.68 M46.212 840.755 Q39.7508 840.755 36.0905 843.429 Q32.3984 846.071 32.3984 850.718 Q32.3984 855.365 36.0905 858.038 Q39.7508 860.68 46.212 860.68 Q52.6732 860.68 56.3653 858.038 Q60.0256 855.365 60.0256 850.718 Q60.0256 846.071 56.3653 843.429 Q52.6732 840.755 46.212 840.755 Z" fill="#000000" fill-rule="nonzero" fill-opacity="1" /><path clip-path="url(#clip250)" d="M44.7161 794.477 L47.5806 794.477 L47.5806 821.404 Q53.6281 821.022 56.8109 817.775 Q59.9619 814.497 59.9619 808.672 Q59.9619 805.298 59.1344 802.147 Q58.3069 798.965 56.6518 795.845 L62.1899 795.845 Q63.5267 798.996 64.227 802.307 Q64.9272 805.617 64.9272 809.022 Q64.9272 817.552 59.9619 822.549 Q54.9967 827.515 46.5303 827.515 Q37.7774 827.515 32.6531 822.804 Q27.4968 818.062 27.4968 810.041 Q27.4968 802.848 32.1438 798.678 Q36.7589 794.477 44.7161 794.477 M42.9973 800.333 Q38.1912 800.397 35.3266 803.039 Q32.4621 805.649 32.4621 809.977 Q32.4621 814.879 35.2312 817.839 Q38.0002 820.767 43.0292 821.213 L42.9973 800.333 Z" fill="#000000" fill-rule="nonzero" fill-opacity="1" /><path clip-path="url(#clip250)" d="M44.7161 754.373 L47.5806 754.373 L47.5806 781.3 Q53.6281 780.918 56.8109 777.671 Q59.9619 774.393 59.9619 768.568 Q59.9619 765.194 59.1344 762.043 Q58.3069 758.861 56.6518 755.741 L62.1899 755.741 Q63.5267 758.892 64.227 762.203 Q64.9272 765.513 64.9272 768.918 Q64.9272 777.448 59.9619 782.446 Q54.9967 787.411 46.5303 787.411 Q37.7774 787.411 32.6531 782.7 Q27.4968 777.958 27.4968 769.937 Q27.4968 762.744 32.1438 758.574 Q36.7589 754.373 44.7161 754.373 M42.9973 760.229 Q38.1912 760.293 35.3266 762.935 Q32.4621 765.545 32.4621 769.873 Q32.4621 774.775 35.2312 777.735 Q38.0002 780.663 43.0292 781.109 L42.9973 760.229 Z" fill="#000000" fill-rule="nonzero" fill-opacity="1" /><path clip-path="url(#clip250)" d="M33.7671 721.303 L14.479 721.303 L14.479 715.446 L64.0042 715.446 L64.0042 721.303 L58.657 721.303 Q61.8398 723.149 63.3994 725.982 Q64.9272 728.783 64.9272 732.729 Q64.9272 739.191 59.771 743.265 Q54.6147 747.307 46.212 747.307 Q37.8093 747.307 32.6531 743.265 Q27.4968 739.191 27.4968 732.729 Q27.4968 728.783 29.0564 725.982 Q30.5842 723.149 33.7671 721.303 M46.212 741.259 Q52.6732 741.259 56.3653 738.618 Q60.0256 735.944 60.0256 731.297 Q60.0256 726.65 56.3653 723.976 Q52.6732 721.303 46.212 721.303 Q39.7508 721.303 36.0905 723.976 Q32.3984 726.65 32.3984 731.297 Q32.3984 735.944 36.0905 738.618 Q39.7508 741.259 46.212 741.259 Z" fill="#000000" fill-rule="nonzero" fill-opacity="1" /><path clip-path="url(#clip250)" d="M14.479 683.204 L14.479 669.709 L19.0304 669.709 L19.0304 677.348 L68.0464 677.348 L68.0464 669.709 L72.5979 669.709 L72.5979 683.204 L14.479 683.204 Z" fill="#000000" fill-rule="nonzero" fill-opacity="1" /><path clip-path="url(#clip250)" d="M58.657 651.567 L77.5631 651.567 L77.5631 657.455 L28.3562 657.455 L28.3562 651.567 L33.7671 651.567 Q30.5842 649.721 29.0564 646.92 Q27.4968 644.087 27.4968 640.172 Q27.4968 633.679 32.6531 629.637 Q37.8093 625.563 46.212 625.563 Q54.6147 625.563 59.771 629.637 Q64.9272 633.679 64.9272 640.172 Q64.9272 644.087 63.3994 646.92 Q61.8398 649.721 58.657 651.567 M46.212 631.642 Q39.7508 631.642 36.0905 634.316 Q32.3984 636.957 32.3984 641.604 Q32.3984 646.251 36.0905 648.925 Q39.7508 651.567 46.212 651.567 Q52.6732 651.567 56.3653 648.925 Q60.0256 646.251 60.0256 641.604 Q60.0256 636.957 56.3653 634.316 Q52.6732 631.642 46.212 631.642 Z" fill="#000000" fill-rule="nonzero" fill-opacity="1" /><path clip-path="url(#clip250)" d="M49.9359 616.46 L28.3562 616.46 L28.3562 610.603 L49.7131 610.603 Q54.7739 610.603 57.3202 608.63 Q59.8346 606.657 59.8346 602.71 Q59.8346 597.967 56.8109 595.23 Q53.7872 592.461 48.5673 592.461 L28.3562 592.461 L28.3562 586.605 L64.0042 586.605 L64.0042 592.461 L58.5296 592.461 Q61.7762 594.594 63.3676 597.426 Q64.9272 600.227 64.9272 603.951 Q64.9272 610.094 61.1078 613.277 Q57.2883 616.46 49.9359 616.46 M27.4968 601.723 L27.4968 601.723 Z" fill="#000000" fill-rule="nonzero" fill-opacity="1" /><path clip-path="url(#clip250)" d="M14.479 560.855 L72.5979 560.855 L72.5979 574.351 L68.0464 574.351 L68.0464 566.744 L19.0304 566.744 L19.0304 574.351 L14.479 574.351 L14.479 560.855 Z" fill="#000000" fill-rule="nonzero" fill-opacity="1" /><polyline clip-path="url(#clip251)" style="stroke:#009af9; stroke-linecap:round; stroke-linejoin:round; stroke-width:4; stroke-opacity:1; fill:none" points="396.992,578.561 397.087,578.561 397.182,578.561 397.371,578.561 397.751,578.561 398.511,578.561 400.03,578.561 403.068,578.561 409.144,578.561 421.296,578.561 445.601,578.561 491.932,578.561 491.933,578.633 491.933,578.637 491.933,578.641 491.933,578.648 491.934,578.663 491.934,578.692 491.935,578.75 491.938,578.867 491.942,579.1 491.951,579.567 491.97,580.496 492.006,582.343 492.08,585.991 492.153,589.595 492.299,596.628 492.446,603.493 492.592,610.195 492.885,623.229 493.178,635.7 493.763,658.957 494.349,680.127 494.935,699.379 495.521,716.863 496.692,746.947 497.863,771.204 499.035,790.249 500.206,804.466 501.378,814.118 502.549,819.454 503.72,820.758 504.892,818.325 506.063,812.424 507.235,803.296 509.343,779.605 511.452,747.973 513.56,710.11 515.669,667.761 517.777,622.658 521.994,530.74 526.211,446.405 530.428,379.067 534.645,334.639 538.863,315.189 543.08,319.129 547.297,341.781 551.514,376.432 555.731,415.536 559.948,451.982 564.165,480.16 568.382,496.666 572.599,500.562 576.816,493.195 581.033,477.673 585.25,458.115 589.467,438.847 593.684,423.653 597.901,415.207 602.118,414.754 606.335,422.057 610.553,435.592 614.77,452.948 618.987,471.336 623.204,488.103 627.421,501.181 631.638,509.374 635.855,512.462 640.072,511.12 644.289,506.695 648.506,500.889 652.723,495.423 656.94,491.75 661.157,490.828 665.374,493.018 669.591,498.082 673.808,505.275 678.025,513.516 682.243,521.609 686.46,528.446 690.677,533.193 694.894,535.426 699.111,535.165 703.328,532.834 707.545,529.174 711.762,525.083 715.979,521.45 720.196,519.019 724.413,518.273 728.63,519.367 732.847,522.146 737.064,526.19 741.281,530.882 745.498,535.521 749.715,539.428 753.933,542.057 758.15,543.069 762.367,542.392 766.584,540.217 770.801,536.952 775.018,533.146 779.235,529.398 783.452,526.274 787.669,524.221 791.886,523.512 796.103,524.212 800.32,526.179 808.754,532.6 817.188,539.195 825.623,542.519 833.213,541.5 840.804,537.46 848.395,532.491 855.985,528.901 863.576,528.166 871.167,530.369 878.757,534.351 886.348,538.385 893.939,540.978 901.53,541.422 909.12,539.922 916.711,537.346 924.302,534.806 931.892,533.25 939.483,533.186 947.074,534.586 954.664,536.932 962.255,539.415 969.846,541.207 977.437,541.743 985.027,540.92 992.618,539.133 1000.21,537.122 1007.8,535.693 1015.39,535.409 1022.98,536.374 1030.57,538.207 1038.16,540.201 1045.75,541.619 1053.34,541.976 1060.93,541.219 1068.53,539.714 1076.12,538.084 1083.71,536.961 1091.3,536.755 1098.89,537.515 1106.48,538.931 1114.07,540.46 1121.66,541.539 1129.25,541.792 1136.84,541.171 1144.43,539.957 1152.02,538.647 1159.61,537.75 1167.2,537.597 1174.79,538.217 1182.39,539.349 1189.98,540.551 1197.57,541.373 1205.16,541.534 1212.75,541.012 1220.34,540.037 1227.93,539.004 1235.52,538.311 1243.11,538.203 1250.7,538.702 1258.29,539.6 1265.88,540.539 1273.47,541.17 1281.06,541.277 1288.66,540.842 1296.25,540.058 1303.84,539.246 1311.43,538.707 1319.02,538.621 1326.61,539.016 1334.2,539.73 1341.79,540.503 1349.38,541.049 1356.97,541.167 1364.56,540.812 1372.15,540.124 1379.74,539.38 1387.33,538.871 1394.93,538.787 1402.52,539.142 1410.11,539.782 1417.7,540.45 1425.29,540.893 1432.88,540.957 1440.47,540.636 1448.06,540.07 1455.65,539.485 1463.24,539.101 1470.83,539.053 1478.42,539.345 1486.01,539.851 1493.6,540.372 1501.2,540.711 1508.79,540.75 1516.38,540.487 1523.97,540.036 1531.56,539.577 1539.15,539.279 1546.74,539.249 1554.33,539.487 1561.92,539.889 1569.51,540.3 1577.1,540.574 1584.69,540.611 1592.28,540.402 1599.87,540.028 1607.47,539.628 1615.06,539.356 1622.65,539.316 1630.24,539.519 1637.83,539.88 1645.42,540.255 1653.01,540.498 1660.6,540.523 1668.19,540.33 1675.78,540.003 1683.37,539.673 1690.96,539.462 1698.55,539.444 1706.14,539.616 1713.74,539.904 1721.33,540.195 1728.92,540.379 1736.51,540.392 1744.1,540.236 1751.69,539.977 1759.28,539.718 1766.87,539.555 1774.46,539.546 1782.05,539.687 1789.64,539.916 1797.23,540.143 1804.82,540.285 1812.41,540.29 1820,540.163 1827.6,539.959 1835.19,539.755 1842.78,539.629 1850.37,539.625 1857.96,539.739 1865.55,539.92 1873.14,540.101 1880.73,540.21 1888.32,540.213 1895.91,540.113 1903.5,539.947 1911.09,539.777 1918.68,539.667 1926.27,539.657 1933.87,539.75 1941.46,539.91 1949.05,540.074 1956.64,540.178 1971.82,540.064 1987,539.695 2002.18,539.511 2017.36,539.759 2029.38,540.048 2040.19,540.139 2049.92,540.107 2059.65,540.027 2079.11,539.91 2096.62,539.889 2114.14,539.907 2149.17,539.922 2184.2,539.92 2254.25,539.915 2295.79,539.914 "/>
<polyline clip-path="url(#clip251)" style="stroke:#e26f46; stroke-linecap:round; stroke-linejoin:round; stroke-width:4; stroke-opacity:1; fill:none" points="396.992,578.561 397.087,578.561 397.182,578.561 397.371,578.561 397.751,578.561 398.511,578.561 400.03,578.561 403.068,578.561 409.144,578.561 421.296,578.561 445.601,578.561 491.932,578.561 491.933,578.807 491.933,578.819 491.933,578.831 491.933,578.856 491.934,578.906 491.934,579.005 491.935,579.204 491.938,579.601 491.942,580.395 491.951,581.981 491.97,585.145 492.006,591.442 492.08,603.915 492.153,616.268 492.299,640.499 492.446,664.259 492.592,687.555 492.885,733.072 493.178,776.925 493.763,859.349 494.349,934.977 494.935,1004.01 495.521,1066.66 496.692,1173.47 497.863,1256.86 499.035,1318.24 500.206,1359 501.378,1380.5 502.549,1384.24 503.72,1371.81 504.892,1344.84 506.063,1305.01 507.235,1254.03 509.343,1139.65 511.452,1004.62 513.56,858.482 515.669,710.004 517.777,566.926 521.994,321.509 526.211,157.26 530.428,86.1857 534.645,99.959 538.863,175.998 543.08,285.125 547.297,398.179 551.514,492.656 555.731,555.475 559.948,582.773 564.165,577.948 568.382,549.202 572.599,507.089 576.816,462.267 581.033,423.64 585.25,397.16 589.467,385.405 593.684,387.881 597.901,401.799 602.118,423.037 606.335,447.086 610.553,469.849 614.77,488.229 618.987,500.46 623.204,506.164 627.421,506.162 631.638,502.109 635.855,496.058 640.072,490.043 644.289,485.747 648.506,484.284 652.723,486.112 656.94,491.039 661.157,498.34 665.374,506.932 669.591,515.583 673.808,523.124 678.025,528.635 682.243,531.578 686.46,531.854 690.677,529.796 694.894,526.094 699.111,521.657 703.328,517.458 707.545,514.384 711.762,513.089 715.979,513.908 720.196,516.821 724.413,521.472 728.63,527.234 732.847,533.327 737.064,538.927 741.281,543.285 745.498,545.832 749.715,546.267 753.933,544.597 758.15,541.129 762.367,536.42 766.584,531.188 770.801,526.2 775.018,522.161 779.235,519.62 783.452,518.902 787.669,520.076 791.886,522.947 796.103,527.103 800.32,531.968 808.754,541.272 817.188,546.242 825.623,544.667 833.213,538.696 840.804,531.253 848.395,525.588 855.985,523.97 863.576,526.797 871.167,532.606 878.757,538.895 886.348,543.264 893.939,544.338 901.53,542.137 909.12,537.867 916.711,533.343 924.302,530.28 931.892,529.728 939.483,531.77 947.074,535.576 954.664,539.742 962.255,542.81 969.846,543.772 977.437,542.414 985.027,539.372 992.618,535.88 1000.21,533.308 1007.8,532.634 1015.39,534.082 1022.98,537.052 1030.57,540.382 1038.16,542.822 1045.75,543.52 1053.34,542.326 1060.93,539.812 1068.53,537.009 1076.12,534.998 1083.71,534.508 1091.3,535.67 1098.89,537.992 1106.48,540.574 1114.07,542.451 1121.66,542.96 1129.25,541.979 1136.84,539.958 1144.43,537.722 1152.02,536.138 1159.61,535.783 1167.2,536.74 1174.79,538.594 1182.39,540.617 1189.98,542.059 1197.57,542.413 1205.16,541.603 1212.75,539.993 1220.34,538.226 1227.93,536.988 1235.52,536.736 1243.11,537.519 1250.7,538.998 1258.29,540.592 1265.88,541.699 1273.47,541.936 1281.06,541.269 1288.66,539.986 1296.25,538.595 1303.84,537.641 1311.43,537.461 1319.02,538.078 1326.61,539.257 1334.2,540.548 1341.79,541.482 1349.38,541.722 1356.97,541.186 1364.56,540.082 1372.15,538.84 1379.74,537.948 1387.33,537.748 1394.93,538.297 1402.52,539.355 1410.11,540.496 1417.7,541.285 1425.29,541.443 1432.88,540.946 1440.47,540.015 1448.06,539.023 1455.65,538.347 1463.24,538.229 1470.83,538.686 1478.42,539.523 1486.01,540.411 1493.6,541.016 1501.2,541.124 1508.79,540.721 1516.38,539.98 1523.97,539.198 1531.56,538.674 1539.15,538.593 1546.74,538.966 1554.33,539.635 1561.92,540.334 1569.51,540.809 1577.1,540.901 1584.69,540.582 1592.28,539.978 1599.87,539.316 1607.47,538.844 1615.06,538.746 1622.65,539.059 1630.24,539.653 1637.83,540.292 1645.42,540.729 1653.01,540.804 1660.6,540.508 1668.19,539.971 1675.78,539.41 1683.37,539.037 1690.96,538.985 1698.55,539.257 1706.14,539.736 1713.74,540.233 1721.33,540.562 1728.92,540.608 1736.51,540.367 1744.1,539.944 1751.69,539.505 1759.28,539.218 1766.87,539.183 1774.46,539.403 1782.05,539.785 1789.64,540.177 1797.23,540.432 1804.82,540.46 1812.41,540.263 1820,539.925 1827.6,539.581 1835.19,539.36 1842.78,539.338 1850.37,539.518 1857.96,539.821 1865.55,540.128 1873.14,540.327 1880.73,540.345 1888.32,540.186 1895.91,539.917 1903.5,539.635 1911.09,539.446 1918.68,539.419 1926.27,539.563 1933.87,539.825 1941.46,540.102 1949.05,540.286 1956.64,540.31 1971.82,539.862 1987,539.326 2002.18,539.397 2017.36,540.043 2029.38,540.327 2040.19,540.281 2049.92,540.108 2059.65,539.938 2079.11,539.81 2096.62,539.83 2114.14,539.884 2149.17,539.901 2184.2,539.895 2254.25,539.894 2295.79,539.895 "/>
<polyline clip-path="url(#clip251)" style="stroke:#3da44d; stroke-linecap:round; stroke-linejoin:round; stroke-width:4; stroke-opacity:1; fill:none" points="396.992,578.561 397.087,578.561 397.182,578.561 397.371,578.561 397.751,578.561 398.511,578.561 400.03,578.561 403.068,578.561 409.144,578.561 421.296,578.561 445.601,578.561 491.932,578.561 491.933,578.542 491.933,578.541 491.933,578.54 491.933,578.538 491.934,578.534 491.934,578.526 491.935,578.511 491.938,578.48 491.942,578.418 491.951,578.294 491.97,578.046 492.006,577.554 492.08,576.575 492.153,575.605 492.299,573.691 492.446,571.803 492.592,569.941 492.885,566.27 493.178,562.681 493.763,555.727 494.349,549.038 494.935,542.576 495.521,536.312 496.692,524.309 497.863,512.916 499.035,502.087 500.206,491.841 501.378,482.22 502.549,473.255 503.72,464.961 504.892,457.352 506.063,450.442 507.235,444.248 509.343,434.881 511.452,427.758 513.56,422.749 515.669,419.661 517.777,418.245 521.994,419.315 526.211,423.524 530.428,428.547 534.645,432.594 538.863,434.664 543.08,434.577 547.297,432.843 551.514,430.363 555.731,428.108 559.948,426.83 564.165,426.903 568.382,428.295 572.599,430.642 576.816,433.384 581.033,435.92 585.25,437.769 589.467,438.692 593.684,438.762 597.901,438.356 602.118,438.076 606.335,438.627 610.553,440.666 614.77,444.662 618.987,450.799 623.204,458.913 627.421,468.508 631.638,478.819 635.855,488.926 640.072,497.899 644.289,504.937 648.506,509.491 652.723,511.346 656.94,510.645 661.157,507.874 665.374,503.78 669.591,499.273 673.808,495.291 678.025,492.674 682.243,492.051 686.46,493.753 690.677,497.781 694.894,503.807 699.111,511.23 703.328,519.264 707.545,527.048 711.762,533.765 715.979,538.743 720.196,541.542 724.413,541.998 728.63,540.233 732.847,536.631 737.064,531.772 741.281,526.368 745.498,521.167 749.715,516.863 753.933,514.015 758.15,512.979 762.367,513.871 766.584,516.556 770.801,520.686 775.018,525.754 779.235,531.162 783.452,536.29 787.669,540.575 791.886,543.572 796.103,545.005 800.32,544.787 808.754,539.948 817.188,531.748 825.623,524.233 833.213,521 840.804,522.312 848.395,527.513 855.985,534.543 863.576,540.79 871.167,544.095 878.757,543.524 886.348,539.624 893.939,534.118 901.53,529.211 909.12,526.764 916.711,527.649 924.302,531.483 931.892,536.813 939.483,541.685 947.074,544.381 954.664,544.054 962.255,541.025 969.846,536.615 977.437,532.61 985.027,530.566 992.618,531.225 1000.21,534.27 1007.8,538.498 1015.39,542.308 1022.98,544.329 1030.57,543.926 1038.16,541.403 1045.75,537.844 1053.34,534.665 1060.93,533.07 1068.53,533.612 1076.12,536.017 1083.71,539.323 1091.3,542.27 1098.89,543.788 1106.48,543.391 1114.07,541.337 1121.66,538.493 1129.25,535.98 1136.84,534.745 1144.43,535.205 1152.02,537.126 1159.61,539.732 1167.2,542.025 1174.79,543.17 1182.39,542.801 1189.98,541.138 1197.57,538.877 1205.16,536.904 1212.75,535.957 1220.34,536.353 1227.93,537.889 1235.52,539.945 1243.11,541.732 1250.7,542.598 1258.29,542.267 1265.88,540.925 1273.47,539.129 1281.06,537.581 1288.66,536.857 1296.25,537.196 1303.84,538.426 1311.43,540.051 1319.02,541.463 1326.61,542.164 1334.2,541.919 1341.79,540.835 1349.38,539.326 1356.97,537.958 1364.56,537.265 1372.15,537.512 1379.74,538.588 1387.33,540.057 1394.93,541.34 1402.52,541.955 1410.11,541.701 1417.7,540.72 1425.29,539.425 1432.88,538.319 1440.47,537.811 1448.06,538.063 1455.65,538.945 1463.24,540.1 1470.83,541.084 1478.42,541.538 1486.01,541.317 1493.6,540.536 1501.2,539.515 1508.79,538.651 1516.38,538.262 1523.97,538.475 1531.56,539.182 1539.15,540.097 1546.74,540.867 1554.33,541.211 1561.92,541.019 1569.51,540.394 1577.1,539.578 1584.69,538.87 1592.28,538.53 1599.87,538.682 1607.47,539.268 1615.06,540.065 1622.65,540.765 1630.24,541.097 1637.83,540.943 1645.42,540.379 1653.01,539.64 1660.6,539.018 1668.19,538.744 1675.78,538.904 1683.37,539.416 1690.96,540.07 1698.55,540.615 1706.14,540.853 1713.74,540.71 1721.33,540.257 1728.92,539.678 1736.51,539.198 1744.1,538.992 1751.69,539.126 1759.28,539.534 1766.87,540.051 1774.46,540.478 1782.05,540.658 1789.64,540.537 1797.23,540.173 1804.82,539.714 1812.41,539.338 1820,539.183 1827.6,539.297 1835.19,539.625 1842.78,540.034 1850.37,540.368 1857.96,540.503 1865.55,540.4 1873.14,540.107 1880.73,539.744 1888.32,539.446 1895.91,539.32 1903.5,539.406 1911.09,539.672 1918.68,540.017 1926.27,540.312 1933.87,540.443 1941.46,540.361 1949.05,540.102 1956.64,539.772 1971.82,539.373 1987,539.726 2002.18,540.51 2017.36,540.777 2029.38,540.246 2040.19,539.834 2049.92,539.636 2059.65,539.614 2079.11,539.799 2096.62,539.904 2114.14,539.936 2149.17,539.903 2184.2,539.894 2254.25,539.898 2295.79,539.899 "/>
<polyline clip-path="url(#clip251)" style="stroke:#c271d2; stroke-linecap:round; stroke-linejoin:round; stroke-width:4; stroke-opacity:1; fill:none" points="396.992,578.561 397.087,578.561 397.182,578.561 397.371,578.561 397.751,578.561 398.511,578.561 400.03,578.561 403.068,578.561 409.144,578.561 421.296,578.561 445.601,578.561 491.932,578.561 491.933,578.434 491.933,578.428 491.933,578.421 491.933,578.409 491.934,578.383 491.934,578.332 491.935,578.229 491.938,578.024 491.942,577.614 491.951,576.794 491.97,575.158 492.006,571.901 492.08,565.441 492.153,559.036 492.299,546.453 492.446,534.097 492.592,521.973 492.885,498.272 493.178,475.436 493.763,432.644 494.349,393.655 494.935,358.464 495.521,327.022 496.692,275.035 497.863,236.833 499.035,211.248 500.206,196.91 501.378,192.414 502.549,196.431 503.72,207.692 504.892,224.943 506.063,246.933 507.235,272.468 509.343,324.095 511.452,378.175 513.56,429.929 515.669,475.63 517.777,512.615 521.994,554.515 526.211,553.325 530.428,518.316 534.645,465.09 538.863,410.158 543.08,366.675 547.297,342.222 551.514,337.945 555.731,349.871 559.948,371.391 564.165,395.555 568.382,416.586 572.599,430.691 576.816,436.387 581.033,434.427 585.25,427.291 589.467,418.351 593.684,410.932 597.901,407.552 602.118,409.498 606.335,416.75 610.553,428.175 614.77,441.897 618.987,455.749 623.204,467.731 627.421,476.389 631.638,481.042 635.855,481.839 640.072,479.629 644.289,475.735 648.506,471.651 652.723,468.767 656.94,468.132 661.157,470.312 665.374,475.333 669.591,482.715 673.808,491.592 678.025,500.877 682.243,509.453 686.46,516.351 690.677,520.902 694.894,522.815 699.111,522.202 703.328,519.532 707.545,515.527 711.762,511.039 715.979,506.91 720.196,503.851 724.413,502.357 728.63,502.658 732.847,504.711 737.064,508.236 741.281,512.775 745.498,517.748 749.715,522.55 753.933,526.628 758.15,529.553 762.367,531.073 766.584,531.142 770.801,529.897 775.018,527.63 779.235,524.735 783.452,521.651 787.669,518.804 791.886,516.554 796.103,515.156 800.32,514.738 808.754,516.782 817.188,521.477 825.623,526.63 833.213,529.924 840.804,531.044 848.395,530.008 855.985,527.557 863.576,524.816 871.167,522.87 878.757,522.424 886.348,523.635 893.939,526.125 901.53,529.135 909.12,531.772 916.711,533.279 924.302,533.278 931.892,531.908 939.483,529.807 947.074,527.89 954.664,527.012 962.255,527.621 969.846,529.571 977.437,532.183 985.027,534.529 992.618,535.817 1000.21,535.704 1007.8,534.397 1015.39,532.541 1022.98,530.936 1030.57,530.239 1038.16,530.737 1045.75,532.264 1053.34,534.282 1060.93,536.085 1068.53,537.065 1076.12,536.944 1083.71,535.87 1091.3,534.349 1098.89,533.03 1106.48,532.451 1114.07,532.843 1121.66,534.06 1129.25,535.657 1136.84,537.067 1144.43,537.816 1152.02,537.694 1159.61,536.824 1167.2,535.605 1174.79,534.551 1182.39,534.09 1189.98,534.405 1197.57,535.378 1205.16,536.645 1212.75,537.754 1220.34,538.33 1227.93,538.214 1235.52,537.512 1243.11,536.544 1250.7,535.709 1258.29,535.346 1265.88,535.599 1273.47,536.371 1281.06,537.378 1288.66,538.256 1296.25,538.702 1303.84,538.595 1311.43,538.026 1319.02,537.248 1326.61,536.573 1334.2,536.262 1341.79,536.44 1349.38,537.062 1356.97,537.917 1364.56,538.696 1372.15,539.116 1379.74,539.039 1387.33,538.525 1394.93,537.807 1402.52,537.188 1410.11,536.915 1417.7,537.091 1425.29,537.642 1432.88,538.359 1440.47,538.98 1448.06,539.293 1455.65,539.209 1463.24,538.792 1470.83,538.228 1478.42,537.749 1486.01,537.542 1493.6,537.687 1501.2,538.125 1508.79,538.691 1516.38,539.179 1523.97,539.421 1531.56,539.349 1539.15,539.014 1546.74,538.565 1554.33,538.187 1561.92,538.029 1569.51,538.144 1577.1,538.494 1584.69,538.955 1592.28,539.364 1599.87,539.578 1607.47,539.527 1615.06,539.242 1622.65,538.841 1630.24,538.491 1637.83,538.335 1645.42,538.433 1653.01,538.747 1660.6,539.155 1668.19,539.505 1675.78,539.674 1683.37,539.614 1690.96,539.366 1698.55,539.041 1706.14,538.769 1713.74,538.658 1721.33,538.746 1728.92,538.996 1736.51,539.314 1744.1,539.584 1751.69,539.714 1759.28,539.666 1766.87,539.471 1774.46,539.214 1782.05,538.999 1789.64,538.911 1797.23,538.984 1804.82,539.187 1812.41,539.442 1820,539.654 1827.6,539.752 1835.19,539.709 1842.78,539.552 1850.37,539.348 1857.96,539.182 1865.55,539.116 1873.14,539.176 1880.73,539.338 1888.32,539.542 1895.91,539.715 1903.5,539.798 1911.09,539.765 1918.68,539.632 1926.27,539.455 1933.87,539.305 1941.46,539.243 1949.05,539.294 1956.64,539.437 1971.82,539.799 1987,539.871 2002.18,539.519 2017.36,539.164 2029.38,539.294 2040.19,539.501 2049.92,539.664 2059.65,539.748 2079.11,539.731 2096.62,539.69 2114.14,539.667 2149.17,539.697 2184.2,539.723 2254.25,539.754 2295.79,539.77 "/>
<polyline clip-path="url(#clip251)" style="stroke:#ac8d18; stroke-linecap:round; stroke-linejoin:round; stroke-width:4; stroke-opacity:1; fill:none" points="396.992,578.561 397.087,578.561 397.182,578.561 397.371,578.561 397.751,578.561 398.511,578.561 400.03,578.561 403.068,578.561 409.144,578.561 421.296,578.561 445.601,578.561 491.932,578.561 491.933,578.788 491.933,578.799 491.933,578.811 491.933,578.834 491.934,578.88 491.934,578.971 491.935,579.155 491.938,579.522 491.942,580.255 491.951,581.719 491.97,584.638 492.006,590.439 492.08,601.896 492.153,613.21 492.299,635.278 492.446,656.797 492.592,677.778 492.885,718.514 493.178,757.36 493.763,829.232 494.349,893.769 494.935,951.399 495.521,1002.53 496.692,1086.6 497.863,1148.65 499.035,1191.04 500.206,1215.74 501.378,1224.48 502.549,1218.93 503.72,1200.79 504.892,1171.78 506.063,1133.54 507.235,1087.6 509.343,990.128 511.452,880.66 513.56,766.686 515.669,654.71 517.777,550.124 521.994,379.052 526.211,273.425 530.428,235.956 534.645,255.935 538.863,314.532 543.08,390.344 547.297,463.656 551.514,520.365 555.731,553.221 559.948,561.182 564.165,547.881 568.382,519.935 572.599,485.292 576.816,451.692 581.033,425.373 585.25,410.253 589.467,407.674 593.684,416.634 597.901,434.363 602.118,457.043 606.335,480.581 610.553,501.299 614.77,516.491 618.987,524.752 623.204,526.041 627.421,521.497 631.638,513.09 635.855,503.174 640.072,494.06 644.289,487.663 648.506,485.251 652.723,487.327 656.94,493.633 661.157,503.256 665.374,514.816 669.591,526.718 673.808,537.391 678.025,545.534 682.243,550.296 686.46,551.371 690.677,549.012 694.894,543.971 699.111,537.333 703.328,530.335 707.545,524.181 711.762,519.857 715.979,517.993 720.196,518.829 724.413,522.186 728.63,527.521 732.847,534.06 737.064,540.893 741.281,547.094 745.498,551.87 749.715,554.652 753.933,555.167 758.15,553.46 762.367,549.882 766.584,545.021 770.801,539.607 775.018,534.393 779.235,530.061 783.452,527.132 787.669,525.914 791.886,526.469 796.103,528.622 800.32,532.004 808.754,540.41 817.188,547.309 825.623,549.486 833.213,546.92 840.804,541.503 848.395,535.665 855.985,531.733 863.576,531.011 871.167,533.403 878.757,537.654 886.348,542.005 893.939,544.917 901.53,545.569 909.12,544.014 916.711,541.015 924.302,537.722 931.892,535.29 939.483,534.539 947.074,535.704 954.664,538.355 962.255,541.515 969.846,544.01 977.437,544.924 985.027,543.968 992.618,541.593 1000.21,538.786 1007.8,536.646 1015.39,535.956 1022.98,536.908 1030.57,539.07 1038.16,541.586 1045.75,543.506 1053.34,544.135 1060.93,543.29 1068.53,541.353 1076.12,539.107 1083.71,537.421 1091.3,536.903 1098.89,537.685 1106.48,539.402 1114.07,541.368 1121.66,542.839 1129.25,543.288 1136.84,542.587 1144.43,541.041 1152.02,539.261 1159.61,537.935 1167.2,537.547 1174.79,538.196 1182.39,539.583 1189.98,541.144 1197.57,542.274 1205.16,542.579 1212.75,541.988 1220.34,540.754 1227.93,539.366 1235.52,538.351 1243.11,538.062 1250.7,538.582 1258.29,539.689 1265.88,540.921 1273.47,541.803 1281.06,542.028 1288.66,541.528 1296.25,540.526 1303.84,539.446 1311.43,538.666 1319.02,538.444 1326.61,538.86 1334.2,539.729 1341.79,540.736 1349.38,541.507 1356.97,541.747 1364.56,541.356 1372.15,540.489 1379.74,539.492 1387.33,538.758 1394.93,538.556 1402.52,538.938 1410.11,539.729 1417.7,540.609 1425.29,541.237 1432.88,541.389 1440.47,541.028 1448.06,540.314 1455.65,539.531 1463.24,538.976 1470.83,538.844 1478.42,539.163 1486.01,539.793 1493.6,540.477 1501.2,540.959 1508.79,541.067 1516.38,540.772 1523.97,540.205 1531.56,539.592 1539.15,539.16 1546.74,539.063 1554.33,539.328 1561.92,539.829 1569.51,540.372 1577.1,540.764 1584.69,540.857 1592.28,540.625 1599.87,540.158 1607.47,539.628 1615.06,539.236 1622.65,539.133 1630.24,539.354 1637.83,539.805 1645.42,540.304 1653.01,540.653 1660.6,540.725 1668.19,540.507 1675.78,540.096 1683.37,539.657 1690.96,539.354 1698.55,539.293 1706.14,539.484 1713.74,539.843 1721.33,540.228 1728.92,540.494 1736.51,540.545 1744.1,540.369 1751.69,540.044 1759.28,539.699 1766.87,539.463 1774.46,539.421 1782.05,539.579 1789.64,539.865 1797.23,540.167 1804.82,540.373 1812.41,540.407 1820,540.264 1827.6,540.007 1835.19,539.735 1842.78,539.55 1850.37,539.522 1857.96,539.651 1865.55,539.878 1873.14,540.12 1880.73,540.279 1888.32,540.303 1895.91,540.193 1903.5,539.984 1911.09,539.757 1918.68,539.597 1926.27,539.563 1933.87,539.667 1941.46,539.869 1949.05,540.087 1956.64,540.237 1971.82,540.128 1987,539.654 2002.18,539.372 2017.36,539.654 2029.38,540.045 2040.19,540.186 2049.92,540.161 2059.65,540.066 2079.11,539.91 2096.62,539.878 2114.14,539.897 2149.17,539.919 2184.2,539.917 2254.25,539.912 2295.79,539.911 "/>
<path clip-path="url(#clip250)" d="M1677.7 404.149 L2285.66 404.149 L2285.66 93.1086 L1677.7 93.1086  Z" fill="#ffffff" fill-rule="evenodd" fill-opacity="1"/>
<polyline clip-path="url(#clip250)" style="stroke:#000000; stroke-linecap:round; stroke-linejoin:round; stroke-width:4; stroke-opacity:1; fill:none" points="1677.7,404.149 2285.66,404.149 2285.66,93.1086 1677.7,93.1086 1677.7,404.149 "/>
<polyline clip-path="url(#clip250)" style="stroke:#009af9; stroke-linecap:round; stroke-linejoin:round; stroke-width:4; stroke-opacity:1; fill:none" points="1700.07,144.949 1834.25,144.949 "/>
<path clip-path="url(#clip250)" d="M1875.53 148.965 Q1875.53 144.335 1873.6 141.789 Q1871.71 139.243 1868.26 139.243 Q1864.83 139.243 1862.91 141.789 Q1861.01 144.335 1861.01 148.965 Q1861.01 153.571 1862.91 156.118 Q1864.83 158.664 1868.26 158.664 Q1871.71 158.664 1873.6 156.118 Q1875.53 153.571 1875.53 148.965 M1879.78 159.011 Q1879.78 165.631 1876.85 168.849 Q1873.91 172.09 1867.84 172.09 Q1865.6 172.09 1863.6 171.742 Q1861.61 171.418 1859.74 170.724 L1859.74 166.58 Q1861.61 167.599 1863.44 168.085 Q1865.27 168.571 1867.17 168.571 Q1871.36 168.571 1873.44 166.372 Q1875.53 164.196 1875.53 159.775 L1875.53 157.668 Q1874.21 159.96 1872.15 161.094 Q1870.09 162.229 1867.22 162.229 Q1862.45 162.229 1859.53 158.594 Q1856.61 154.96 1856.61 148.965 Q1856.61 142.946 1859.53 139.312 Q1862.45 135.678 1867.22 135.678 Q1870.09 135.678 1872.15 136.812 Q1874.21 137.946 1875.53 140.238 L1875.53 136.303 L1879.78 136.303 L1879.78 159.011 Z" fill="#000000" fill-rule="nonzero" fill-opacity="1" /><path clip-path="url(#clip250)" d="M1910.73 148.201 L1910.73 150.284 L1891.15 150.284 Q1891.43 154.682 1893.79 156.997 Q1896.17 159.289 1900.41 159.289 Q1902.86 159.289 1905.16 158.687 Q1907.47 158.085 1909.74 156.881 L1909.74 160.909 Q1907.45 161.881 1905.04 162.391 Q1902.63 162.9 1900.16 162.9 Q1893.95 162.9 1890.32 159.289 Q1886.71 155.678 1886.71 149.52 Q1886.71 143.155 1890.13 139.428 Q1893.58 135.678 1899.41 135.678 Q1904.65 135.678 1907.68 139.057 Q1910.73 142.414 1910.73 148.201 M1906.47 146.951 Q1906.43 143.456 1904.51 141.372 Q1902.61 139.289 1899.46 139.289 Q1895.9 139.289 1893.74 141.303 Q1891.61 143.317 1891.29 146.974 L1906.47 146.951 Z" fill="#000000" fill-rule="nonzero" fill-opacity="1" /><path clip-path="url(#clip250)" d="M1939.28 146.581 L1939.28 162.229 L1935.02 162.229 L1935.02 146.719 Q1935.02 143.039 1933.58 141.21 Q1932.15 139.382 1929.28 139.382 Q1925.83 139.382 1923.84 141.581 Q1921.84 143.78 1921.84 147.576 L1921.84 162.229 L1917.56 162.229 L1917.56 136.303 L1921.84 136.303 L1921.84 140.331 Q1923.37 137.993 1925.43 136.835 Q1927.52 135.678 1930.22 135.678 Q1934.69 135.678 1936.98 138.456 Q1939.28 141.21 1939.28 146.581 Z" fill="#000000" fill-rule="nonzero" fill-opacity="1" /><path clip-path="url(#clip250)" d="M1969.95 148.201 L1969.95 150.284 L1950.36 150.284 Q1950.64 154.682 1953 156.997 Q1955.39 159.289 1959.62 159.289 Q1962.08 159.289 1964.37 158.687 Q1966.68 158.085 1968.95 156.881 L1968.95 160.909 Q1966.66 161.881 1964.25 162.391 Q1961.84 162.9 1959.37 162.9 Q1953.16 162.9 1949.53 159.289 Q1945.92 155.678 1945.92 149.52 Q1945.92 143.155 1949.34 139.428 Q1952.79 135.678 1958.63 135.678 Q1963.86 135.678 1966.89 139.057 Q1969.95 142.414 1969.95 148.201 M1965.69 146.951 Q1965.64 143.456 1963.72 141.372 Q1961.82 139.289 1958.67 139.289 Q1955.11 139.289 1952.96 141.303 Q1950.83 143.317 1950.5 146.974 L1965.69 146.951 Z" fill="#000000" fill-rule="nonzero" fill-opacity="1" /><path clip-path="url(#clip250)" d="M1991.96 140.284 Q1991.24 139.868 1990.39 139.682 Q1989.55 139.474 1988.53 139.474 Q1984.92 139.474 1982.98 141.835 Q1981.06 144.173 1981.06 148.571 L1981.06 162.229 L1976.78 162.229 L1976.78 136.303 L1981.06 136.303 L1981.06 140.331 Q1982.4 137.969 1984.55 136.835 Q1986.71 135.678 1989.78 135.678 Q1990.22 135.678 1990.76 135.747 Q1991.29 135.794 1991.94 135.909 L1991.96 140.284 Z" fill="#000000" fill-rule="nonzero" fill-opacity="1" /><path clip-path="url(#clip250)" d="M2008.21 149.196 Q2003.05 149.196 2001.06 150.377 Q1999.07 151.557 1999.07 154.405 Q1999.07 156.673 2000.55 158.016 Q2002.05 159.335 2004.62 159.335 Q2008.16 159.335 2010.29 156.835 Q2012.45 154.312 2012.45 150.145 L2012.45 149.196 L2008.21 149.196 M2016.71 147.437 L2016.71 162.229 L2012.45 162.229 L2012.45 158.293 Q2010.99 160.655 2008.81 161.789 Q2006.64 162.9 2003.49 162.9 Q1999.51 162.9 1997.15 160.678 Q1994.81 158.432 1994.81 154.682 Q1994.81 150.307 1997.72 148.085 Q2000.66 145.863 2006.47 145.863 L2012.45 145.863 L2012.45 145.446 Q2012.45 142.507 2010.5 140.909 Q2008.58 139.289 2005.09 139.289 Q2002.86 139.289 2000.76 139.821 Q1998.65 140.354 1996.71 141.419 L1996.71 137.483 Q1999.04 136.581 2001.24 136.141 Q2003.44 135.678 2005.52 135.678 Q2011.15 135.678 2013.93 138.594 Q2016.71 141.511 2016.71 147.437 Z" fill="#000000" fill-rule="nonzero" fill-opacity="1" /><path clip-path="url(#clip250)" d="M2029.69 128.942 L2029.69 136.303 L2038.46 136.303 L2038.46 139.613 L2029.69 139.613 L2029.69 153.687 Q2029.69 156.858 2030.55 157.761 Q2031.43 158.664 2034.09 158.664 L2038.46 158.664 L2038.46 162.229 L2034.09 162.229 Q2029.16 162.229 2027.28 160.4 Q2025.41 158.548 2025.41 153.687 L2025.41 139.613 L2022.28 139.613 L2022.28 136.303 L2025.41 136.303 L2025.41 128.942 L2029.69 128.942 Z" fill="#000000" fill-rule="nonzero" fill-opacity="1" /><path clip-path="url(#clip250)" d="M2054.11 139.289 Q2050.69 139.289 2048.7 141.974 Q2046.71 144.636 2046.71 149.289 Q2046.71 153.942 2048.67 156.627 Q2050.66 159.289 2054.11 159.289 Q2057.52 159.289 2059.51 156.604 Q2061.5 153.918 2061.5 149.289 Q2061.5 144.682 2059.51 141.997 Q2057.52 139.289 2054.11 139.289 M2054.11 135.678 Q2059.67 135.678 2062.84 139.289 Q2066.01 142.9 2066.01 149.289 Q2066.01 155.655 2062.84 159.289 Q2059.67 162.9 2054.11 162.9 Q2048.53 162.9 2045.36 159.289 Q2042.21 155.655 2042.21 149.289 Q2042.21 142.9 2045.36 139.289 Q2048.53 135.678 2054.11 135.678 Z" fill="#000000" fill-rule="nonzero" fill-opacity="1" /><path clip-path="url(#clip250)" d="M2088.09 140.284 Q2087.38 139.868 2086.52 139.682 Q2085.69 139.474 2084.67 139.474 Q2081.06 139.474 2079.11 141.835 Q2077.19 144.173 2077.19 148.571 L2077.19 162.229 L2072.91 162.229 L2072.91 136.303 L2077.19 136.303 L2077.19 140.331 Q2078.53 137.969 2080.69 136.835 Q2082.84 135.678 2085.92 135.678 Q2086.36 135.678 2086.89 135.747 Q2087.42 135.794 2088.07 135.909 L2088.09 140.284 Z" fill="#000000" fill-rule="nonzero" fill-opacity="1" /><path clip-path="url(#clip250)" d="M2087.38 147.344 L2099.85 147.344 L2099.85 151.141 L2087.38 151.141 L2087.38 147.344 Z" fill="#000000" fill-rule="nonzero" fill-opacity="1" /><path clip-path="url(#clip250)" d="M2121.4 143.594 Q2124.76 144.312 2126.64 146.581 Q2128.53 148.849 2128.53 152.182 Q2128.53 157.298 2125.02 160.099 Q2121.5 162.9 2115.02 162.9 Q2112.84 162.9 2110.52 162.46 Q2108.23 162.043 2105.78 161.187 L2105.78 156.673 Q2107.72 157.807 2110.04 158.386 Q2112.35 158.965 2114.88 158.965 Q2119.27 158.965 2121.57 157.229 Q2123.88 155.493 2123.88 152.182 Q2123.88 149.127 2121.73 147.414 Q2119.6 145.678 2115.78 145.678 L2111.75 145.678 L2111.75 141.835 L2115.96 141.835 Q2119.41 141.835 2121.24 140.469 Q2123.07 139.081 2123.07 136.488 Q2123.07 133.826 2121.17 132.414 Q2119.3 130.979 2115.78 130.979 Q2113.86 130.979 2111.66 131.395 Q2109.46 131.812 2106.82 132.692 L2106.82 128.525 Q2109.48 127.784 2111.8 127.414 Q2114.14 127.044 2116.2 127.044 Q2121.52 127.044 2124.62 129.474 Q2127.72 131.882 2127.72 136.002 Q2127.72 138.872 2126.08 140.863 Q2124.44 142.831 2121.4 143.594 Z" fill="#000000" fill-rule="nonzero" fill-opacity="1" /><path clip-path="url(#clip250)" d="M2134.64 147.344 L2147.12 147.344 L2147.12 151.141 L2134.64 151.141 L2134.64 147.344 Z" fill="#000000" fill-rule="nonzero" fill-opacity="1" /><path clip-path="url(#clip250)" d="M2155.32 158.293 L2162.95 158.293 L2162.95 131.928 L2154.64 133.595 L2154.64 129.335 L2162.91 127.669 L2167.58 127.669 L2167.58 158.293 L2175.22 158.293 L2175.22 162.229 L2155.32 162.229 L2155.32 158.293 Z" fill="#000000" fill-rule="nonzero" fill-opacity="1" /><path clip-path="url(#clip250)" d="M2196.98 147.344 L2209.46 147.344 L2209.46 151.141 L2196.98 151.141 L2196.98 147.344 Z" fill="#000000" fill-rule="nonzero" fill-opacity="1" /><path clip-path="url(#clip250)" d="M2239.57 162.9 Q2229.97 162.9 2229.97 149.15 Q2229.97 143.71 2233.56 136.303 L2238.14 136.303 Q2234.83 143.71 2234.83 149.266 Q2234.83 159.289 2239.97 159.289 Q2244.67 159.289 2244.67 146.835 L2248.6 146.835 Q2248.6 159.289 2253.3 159.289 Q2258.44 159.289 2258.44 149.266 Q2258.44 143.71 2255.13 136.303 L2259.71 136.303 Q2263.3 143.71 2263.3 149.15 Q2263.3 162.9 2253.69 162.9 Q2247.4 162.9 2246.63 155.979 Q2245.69 162.9 2239.57 162.9 Z" fill="#000000" fill-rule="nonzero" fill-opacity="1" /><polyline clip-path="url(#clip250)" style="stroke:#e26f46; stroke-linecap:round; stroke-linejoin:round; stroke-width:4; stroke-opacity:1; fill:none" points="1700.07,196.789 1834.25,196.789 "/>
<path clip-path="url(#clip250)" d="M1875.53 200.805 Q1875.53 196.175 1873.6 193.629 Q1871.71 191.083 1868.26 191.083 Q1864.83 191.083 1862.91 193.629 Q1861.01 196.175 1861.01 200.805 Q1861.01 205.411 1862.91 207.958 Q1864.83 210.504 1868.26 210.504 Q1871.71 210.504 1873.6 207.958 Q1875.53 205.411 1875.53 200.805 M1879.78 210.851 Q1879.78 217.471 1876.85 220.689 Q1873.91 223.93 1867.84 223.93 Q1865.6 223.93 1863.6 223.582 Q1861.61 223.258 1859.74 222.564 L1859.74 218.42 Q1861.61 219.439 1863.44 219.925 Q1865.27 220.411 1867.17 220.411 Q1871.36 220.411 1873.44 218.212 Q1875.53 216.036 1875.53 211.615 L1875.53 209.508 Q1874.21 211.8 1872.15 212.934 Q1870.09 214.069 1867.22 214.069 Q1862.45 214.069 1859.53 210.434 Q1856.61 206.8 1856.61 200.805 Q1856.61 194.786 1859.53 191.152 Q1862.45 187.518 1867.22 187.518 Q1870.09 187.518 1872.15 188.652 Q1874.21 189.786 1875.53 192.078 L1875.53 188.143 L1879.78 188.143 L1879.78 210.851 Z" fill="#000000" fill-rule="nonzero" fill-opacity="1" /><path clip-path="url(#clip250)" d="M1910.73 200.041 L1910.73 202.124 L1891.15 202.124 Q1891.43 206.522 1893.79 208.837 Q1896.17 211.129 1900.41 211.129 Q1902.86 211.129 1905.16 210.527 Q1907.47 209.925 1909.74 208.721 L1909.74 212.749 Q1907.45 213.721 1905.04 214.231 Q1902.63 214.74 1900.16 214.74 Q1893.95 214.74 1890.32 211.129 Q1886.71 207.518 1886.71 201.36 Q1886.71 194.995 1890.13 191.268 Q1893.58 187.518 1899.41 187.518 Q1904.65 187.518 1907.68 190.897 Q1910.73 194.254 1910.73 200.041 M1906.47 198.791 Q1906.43 195.296 1904.51 193.212 Q1902.61 191.129 1899.46 191.129 Q1895.9 191.129 1893.74 193.143 Q1891.61 195.157 1891.29 198.814 L1906.47 198.791 Z" fill="#000000" fill-rule="nonzero" fill-opacity="1" /><path clip-path="url(#clip250)" d="M1939.28 198.421 L1939.28 214.069 L1935.02 214.069 L1935.02 198.559 Q1935.02 194.879 1933.58 193.05 Q1932.15 191.222 1929.28 191.222 Q1925.83 191.222 1923.84 193.421 Q1921.84 195.62 1921.84 199.416 L1921.84 214.069 L1917.56 214.069 L1917.56 188.143 L1921.84 188.143 L1921.84 192.171 Q1923.37 189.833 1925.43 188.675 Q1927.52 187.518 1930.22 187.518 Q1934.69 187.518 1936.98 190.296 Q1939.28 193.05 1939.28 198.421 Z" fill="#000000" fill-rule="nonzero" fill-opacity="1" /><path clip-path="url(#clip250)" d="M1969.95 200.041 L1969.95 202.124 L1950.36 202.124 Q1950.64 206.522 1953 208.837 Q1955.39 211.129 1959.62 211.129 Q1962.08 211.129 1964.37 210.527 Q1966.68 209.925 1968.95 208.721 L1968.95 212.749 Q1966.66 213.721 1964.25 214.231 Q1961.84 214.74 1959.37 214.74 Q1953.16 214.74 1949.53 211.129 Q1945.92 207.518 1945.92 201.36 Q1945.92 194.995 1949.34 191.268 Q1952.79 187.518 1958.63 187.518 Q1963.86 187.518 1966.89 190.897 Q1969.95 194.254 1969.95 200.041 M1965.69 198.791 Q1965.64 195.296 1963.72 193.212 Q1961.82 191.129 1958.67 191.129 Q1955.11 191.129 1952.96 193.143 Q1950.83 195.157 1950.5 198.814 L1965.69 198.791 Z" fill="#000000" fill-rule="nonzero" fill-opacity="1" /><path clip-path="url(#clip250)" d="M1991.96 192.124 Q1991.24 191.708 1990.39 191.522 Q1989.55 191.314 1988.53 191.314 Q1984.92 191.314 1982.98 193.675 Q1981.06 196.013 1981.06 200.411 L1981.06 214.069 L1976.78 214.069 L1976.78 188.143 L1981.06 188.143 L1981.06 192.171 Q1982.4 189.809 1984.55 188.675 Q1986.71 187.518 1989.78 187.518 Q1990.22 187.518 1990.76 187.587 Q1991.29 187.634 1991.94 187.749 L1991.96 192.124 Z" fill="#000000" fill-rule="nonzero" fill-opacity="1" /><path clip-path="url(#clip250)" d="M2008.21 201.036 Q2003.05 201.036 2001.06 202.217 Q1999.07 203.397 1999.07 206.245 Q1999.07 208.513 2000.55 209.856 Q2002.05 211.175 2004.62 211.175 Q2008.16 211.175 2010.29 208.675 Q2012.45 206.152 2012.45 201.985 L2012.45 201.036 L2008.21 201.036 M2016.71 199.277 L2016.71 214.069 L2012.45 214.069 L2012.45 210.133 Q2010.99 212.495 2008.81 213.629 Q2006.64 214.74 2003.49 214.74 Q1999.51 214.74 1997.15 212.518 Q1994.81 210.272 1994.81 206.522 Q1994.81 202.147 1997.72 199.925 Q2000.66 197.703 2006.47 197.703 L2012.45 197.703 L2012.45 197.286 Q2012.45 194.347 2010.5 192.749 Q2008.58 191.129 2005.09 191.129 Q2002.86 191.129 2000.76 191.661 Q1998.65 192.194 1996.71 193.259 L1996.71 189.323 Q1999.04 188.421 2001.24 187.981 Q2003.44 187.518 2005.52 187.518 Q2011.15 187.518 2013.93 190.434 Q2016.71 193.351 2016.71 199.277 Z" fill="#000000" fill-rule="nonzero" fill-opacity="1" /><path clip-path="url(#clip250)" d="M2029.69 180.782 L2029.69 188.143 L2038.46 188.143 L2038.46 191.453 L2029.69 191.453 L2029.69 205.527 Q2029.69 208.698 2030.55 209.601 Q2031.43 210.504 2034.09 210.504 L2038.46 210.504 L2038.46 214.069 L2034.09 214.069 Q2029.16 214.069 2027.28 212.24 Q2025.41 210.388 2025.41 205.527 L2025.41 191.453 L2022.28 191.453 L2022.28 188.143 L2025.41 188.143 L2025.41 180.782 L2029.69 180.782 Z" fill="#000000" fill-rule="nonzero" fill-opacity="1" /><path clip-path="url(#clip250)" d="M2054.11 191.129 Q2050.69 191.129 2048.7 193.814 Q2046.71 196.476 2046.71 201.129 Q2046.71 205.782 2048.67 208.467 Q2050.66 211.129 2054.11 211.129 Q2057.52 211.129 2059.51 208.444 Q2061.5 205.758 2061.5 201.129 Q2061.5 196.522 2059.51 193.837 Q2057.52 191.129 2054.11 191.129 M2054.11 187.518 Q2059.67 187.518 2062.84 191.129 Q2066.01 194.74 2066.01 201.129 Q2066.01 207.495 2062.84 211.129 Q2059.67 214.74 2054.11 214.74 Q2048.53 214.74 2045.36 211.129 Q2042.21 207.495 2042.21 201.129 Q2042.21 194.74 2045.36 191.129 Q2048.53 187.518 2054.11 187.518 Z" fill="#000000" fill-rule="nonzero" fill-opacity="1" /><path clip-path="url(#clip250)" d="M2088.09 192.124 Q2087.38 191.708 2086.52 191.522 Q2085.69 191.314 2084.67 191.314 Q2081.06 191.314 2079.11 193.675 Q2077.19 196.013 2077.19 200.411 L2077.19 214.069 L2072.91 214.069 L2072.91 188.143 L2077.19 188.143 L2077.19 192.171 Q2078.53 189.809 2080.69 188.675 Q2082.84 187.518 2085.92 187.518 Q2086.36 187.518 2086.89 187.587 Q2087.42 187.634 2088.07 187.749 L2088.09 192.124 Z" fill="#000000" fill-rule="nonzero" fill-opacity="1" /><path clip-path="url(#clip250)" d="M2087.38 199.184 L2099.85 199.184 L2099.85 202.981 L2087.38 202.981 L2087.38 199.184 Z" fill="#000000" fill-rule="nonzero" fill-opacity="1" /><path clip-path="url(#clip250)" d="M2117.24 197.657 Q2113.9 197.657 2111.98 199.439 Q2110.08 201.221 2110.08 204.346 Q2110.08 207.471 2111.98 209.254 Q2113.9 211.036 2117.24 211.036 Q2120.57 211.036 2122.49 209.254 Q2124.41 207.448 2124.41 204.346 Q2124.41 201.221 2122.49 199.439 Q2120.59 197.657 2117.24 197.657 M2112.56 195.666 Q2109.55 194.925 2107.86 192.865 Q2106.2 190.805 2106.2 187.842 Q2106.2 183.698 2109.14 181.291 Q2112.1 178.884 2117.24 178.884 Q2122.4 178.884 2125.34 181.291 Q2128.28 183.698 2128.28 187.842 Q2128.28 190.805 2126.59 192.865 Q2124.92 194.925 2121.94 195.666 Q2125.32 196.453 2127.19 198.745 Q2129.09 201.036 2129.09 204.346 Q2129.09 209.37 2126.01 212.055 Q2122.95 214.74 2117.24 214.74 Q2111.52 214.74 2108.44 212.055 Q2105.39 209.37 2105.39 204.346 Q2105.39 201.036 2107.28 198.745 Q2109.18 196.453 2112.56 195.666 M2110.85 188.282 Q2110.85 190.967 2112.52 192.472 Q2114.2 193.976 2117.24 193.976 Q2120.25 193.976 2121.94 192.472 Q2123.65 190.967 2123.65 188.282 Q2123.65 185.597 2121.94 184.092 Q2120.25 182.587 2117.24 182.587 Q2114.2 182.587 2112.52 184.092 Q2110.85 185.597 2110.85 188.282 Z" fill="#000000" fill-rule="nonzero" fill-opacity="1" /><path clip-path="url(#clip250)" d="M2134.64 199.184 L2147.12 199.184 L2147.12 202.981 L2134.64 202.981 L2134.64 199.184 Z" fill="#000000" fill-rule="nonzero" fill-opacity="1" /><path clip-path="url(#clip250)" d="M2155.32 210.133 L2162.95 210.133 L2162.95 183.768 L2154.64 185.435 L2154.64 181.175 L2162.91 179.509 L2167.58 179.509 L2167.58 210.133 L2175.22 210.133 L2175.22 214.069 L2155.32 214.069 L2155.32 210.133 Z" fill="#000000" fill-rule="nonzero" fill-opacity="1" /><path clip-path="url(#clip250)" d="M2196.98 199.184 L2209.46 199.184 L2209.46 202.981 L2196.98 202.981 L2196.98 199.184 Z" fill="#000000" fill-rule="nonzero" fill-opacity="1" /><path clip-path="url(#clip250)" d="M2239.57 214.74 Q2229.97 214.74 2229.97 200.99 Q2229.97 195.55 2233.56 188.143 L2238.14 188.143 Q2234.83 195.55 2234.83 201.106 Q2234.83 211.129 2239.97 211.129 Q2244.67 211.129 2244.67 198.675 L2248.6 198.675 Q2248.6 211.129 2253.3 211.129 Q2258.44 211.129 2258.44 201.106 Q2258.44 195.55 2255.13 188.143 L2259.71 188.143 Q2263.3 195.55 2263.3 200.99 Q2263.3 214.74 2253.69 214.74 Q2247.4 214.74 2246.63 207.819 Q2245.69 214.74 2239.57 214.74 Z" fill="#000000" fill-rule="nonzero" fill-opacity="1" /><polyline clip-path="url(#clip250)" style="stroke:#3da44d; stroke-linecap:round; stroke-linejoin:round; stroke-width:4; stroke-opacity:1; fill:none" points="1700.07,248.629 1834.25,248.629 "/>
<path clip-path="url(#clip250)" d="M1875.53 252.645 Q1875.53 248.015 1873.6 245.469 Q1871.71 242.923 1868.26 242.923 Q1864.83 242.923 1862.91 245.469 Q1861.01 248.015 1861.01 252.645 Q1861.01 257.251 1862.91 259.798 Q1864.83 262.344 1868.26 262.344 Q1871.71 262.344 1873.6 259.798 Q1875.53 257.251 1875.53 252.645 M1879.78 262.691 Q1879.78 269.311 1876.85 272.529 Q1873.91 275.77 1867.84 275.77 Q1865.6 275.77 1863.6 275.422 Q1861.61 275.098 1859.74 274.404 L1859.74 270.26 Q1861.61 271.279 1863.44 271.765 Q1865.27 272.251 1867.17 272.251 Q1871.36 272.251 1873.44 270.052 Q1875.53 267.876 1875.53 263.455 L1875.53 261.348 Q1874.21 263.64 1872.15 264.774 Q1870.09 265.909 1867.22 265.909 Q1862.45 265.909 1859.53 262.274 Q1856.61 258.64 1856.61 252.645 Q1856.61 246.626 1859.53 242.992 Q1862.45 239.358 1867.22 239.358 Q1870.09 239.358 1872.15 240.492 Q1874.21 241.626 1875.53 243.918 L1875.53 239.983 L1879.78 239.983 L1879.78 262.691 Z" fill="#000000" fill-rule="nonzero" fill-opacity="1" /><path clip-path="url(#clip250)" d="M1910.73 251.881 L1910.73 253.964 L1891.15 253.964 Q1891.43 258.362 1893.79 260.677 Q1896.17 262.969 1900.41 262.969 Q1902.86 262.969 1905.16 262.367 Q1907.47 261.765 1909.74 260.561 L1909.74 264.589 Q1907.45 265.561 1905.04 266.071 Q1902.63 266.58 1900.16 266.58 Q1893.95 266.58 1890.32 262.969 Q1886.71 259.358 1886.71 253.2 Q1886.71 246.835 1890.13 243.108 Q1893.58 239.358 1899.41 239.358 Q1904.65 239.358 1907.68 242.737 Q1910.73 246.094 1910.73 251.881 M1906.47 250.631 Q1906.43 247.136 1904.51 245.052 Q1902.61 242.969 1899.46 242.969 Q1895.9 242.969 1893.74 244.983 Q1891.61 246.997 1891.29 250.654 L1906.47 250.631 Z" fill="#000000" fill-rule="nonzero" fill-opacity="1" /><path clip-path="url(#clip250)" d="M1939.28 250.261 L1939.28 265.909 L1935.02 265.909 L1935.02 250.399 Q1935.02 246.719 1933.58 244.89 Q1932.15 243.062 1929.28 243.062 Q1925.83 243.062 1923.84 245.261 Q1921.84 247.46 1921.84 251.256 L1921.84 265.909 L1917.56 265.909 L1917.56 239.983 L1921.84 239.983 L1921.84 244.011 Q1923.37 241.673 1925.43 240.515 Q1927.52 239.358 1930.22 239.358 Q1934.69 239.358 1936.98 242.136 Q1939.28 244.89 1939.28 250.261 Z" fill="#000000" fill-rule="nonzero" fill-opacity="1" /><path clip-path="url(#clip250)" d="M1969.95 251.881 L1969.95 253.964 L1950.36 253.964 Q1950.64 258.362 1953 260.677 Q1955.39 262.969 1959.62 262.969 Q1962.08 262.969 1964.37 262.367 Q1966.68 261.765 1968.95 260.561 L1968.95 264.589 Q1966.66 265.561 1964.25 266.071 Q1961.84 266.58 1959.37 266.58 Q1953.16 266.58 1949.53 262.969 Q1945.92 259.358 1945.92 253.2 Q1945.92 246.835 1949.34 243.108 Q1952.79 239.358 1958.63 239.358 Q1963.86 239.358 1966.89 242.737 Q1969.95 246.094 1969.95 251.881 M1965.69 250.631 Q1965.64 247.136 1963.72 245.052 Q1961.82 242.969 1958.67 242.969 Q1955.11 242.969 1952.96 244.983 Q1950.83 246.997 1950.5 250.654 L1965.69 250.631 Z" fill="#000000" fill-rule="nonzero" fill-opacity="1" /><path clip-path="url(#clip250)" d="M1991.96 243.964 Q1991.24 243.548 1990.39 243.362 Q1989.55 243.154 1988.53 243.154 Q1984.92 243.154 1982.98 245.515 Q1981.06 247.853 1981.06 252.251 L1981.06 265.909 L1976.78 265.909 L1976.78 239.983 L1981.06 239.983 L1981.06 244.011 Q1982.4 241.649 1984.55 240.515 Q1986.71 239.358 1989.78 239.358 Q1990.22 239.358 1990.76 239.427 Q1991.29 239.474 1991.94 239.589 L1991.96 243.964 Z" fill="#000000" fill-rule="nonzero" fill-opacity="1" /><path clip-path="url(#clip250)" d="M2008.21 252.876 Q2003.05 252.876 2001.06 254.057 Q1999.07 255.237 1999.07 258.085 Q1999.07 260.353 2000.55 261.696 Q2002.05 263.015 2004.62 263.015 Q2008.16 263.015 2010.29 260.515 Q2012.45 257.992 2012.45 253.825 L2012.45 252.876 L2008.21 252.876 M2016.71 251.117 L2016.71 265.909 L2012.45 265.909 L2012.45 261.973 Q2010.99 264.335 2008.81 265.469 Q2006.64 266.58 2003.49 266.58 Q1999.51 266.58 1997.15 264.358 Q1994.81 262.112 1994.81 258.362 Q1994.81 253.987 1997.72 251.765 Q2000.66 249.543 2006.47 249.543 L2012.45 249.543 L2012.45 249.126 Q2012.45 246.187 2010.5 244.589 Q2008.58 242.969 2005.09 242.969 Q2002.86 242.969 2000.76 243.501 Q1998.65 244.034 1996.71 245.099 L1996.71 241.163 Q1999.04 240.261 2001.24 239.821 Q2003.44 239.358 2005.52 239.358 Q2011.15 239.358 2013.93 242.274 Q2016.71 245.191 2016.71 251.117 Z" fill="#000000" fill-rule="nonzero" fill-opacity="1" /><path clip-path="url(#clip250)" d="M2029.69 232.622 L2029.69 239.983 L2038.46 239.983 L2038.46 243.293 L2029.69 243.293 L2029.69 257.367 Q2029.69 260.538 2030.55 261.441 Q2031.43 262.344 2034.09 262.344 L2038.46 262.344 L2038.46 265.909 L2034.09 265.909 Q2029.16 265.909 2027.28 264.08 Q2025.41 262.228 2025.41 257.367 L2025.41 243.293 L2022.28 243.293 L2022.28 239.983 L2025.41 239.983 L2025.41 232.622 L2029.69 232.622 Z" fill="#000000" fill-rule="nonzero" fill-opacity="1" /><path clip-path="url(#clip250)" d="M2054.11 242.969 Q2050.69 242.969 2048.7 245.654 Q2046.71 248.316 2046.71 252.969 Q2046.71 257.622 2048.67 260.307 Q2050.66 262.969 2054.11 262.969 Q2057.52 262.969 2059.51 260.284 Q2061.5 257.598 2061.5 252.969 Q2061.5 248.362 2059.51 245.677 Q2057.52 242.969 2054.11 242.969 M2054.11 239.358 Q2059.67 239.358 2062.84 242.969 Q2066.01 246.58 2066.01 252.969 Q2066.01 259.335 2062.84 262.969 Q2059.67 266.58 2054.11 266.58 Q2048.53 266.58 2045.36 262.969 Q2042.21 259.335 2042.21 252.969 Q2042.21 246.58 2045.36 242.969 Q2048.53 239.358 2054.11 239.358 Z" fill="#000000" fill-rule="nonzero" fill-opacity="1" /><path clip-path="url(#clip250)" d="M2088.09 243.964 Q2087.38 243.548 2086.52 243.362 Q2085.69 243.154 2084.67 243.154 Q2081.06 243.154 2079.11 245.515 Q2077.19 247.853 2077.19 252.251 L2077.19 265.909 L2072.91 265.909 L2072.91 239.983 L2077.19 239.983 L2077.19 244.011 Q2078.53 241.649 2080.69 240.515 Q2082.84 239.358 2085.92 239.358 Q2086.36 239.358 2086.89 239.427 Q2087.42 239.474 2088.07 239.589 L2088.09 243.964 Z" fill="#000000" fill-rule="nonzero" fill-opacity="1" /><path clip-path="url(#clip250)" d="M2087.38 251.024 L2099.85 251.024 L2099.85 254.821 L2087.38 254.821 L2087.38 251.024 Z" fill="#000000" fill-rule="nonzero" fill-opacity="1" /><path clip-path="url(#clip250)" d="M2108.05 261.973 L2115.69 261.973 L2115.69 235.608 L2107.38 237.275 L2107.38 233.015 L2115.64 231.349 L2120.32 231.349 L2120.32 261.973 L2127.95 261.973 L2127.95 265.909 L2108.05 265.909 L2108.05 261.973 Z" fill="#000000" fill-rule="nonzero" fill-opacity="1" /><path clip-path="url(#clip250)" d="M2134.64 251.024 L2147.12 251.024 L2147.12 254.821 L2134.64 254.821 L2134.64 251.024 Z" fill="#000000" fill-rule="nonzero" fill-opacity="1" /><path clip-path="url(#clip250)" d="M2155.32 261.973 L2162.95 261.973 L2162.95 235.608 L2154.64 237.275 L2154.64 233.015 L2162.91 231.349 L2167.58 231.349 L2167.58 261.973 L2175.22 261.973 L2175.22 265.909 L2155.32 265.909 L2155.32 261.973 Z" fill="#000000" fill-rule="nonzero" fill-opacity="1" /><path clip-path="url(#clip250)" d="M2196.98 251.024 L2209.46 251.024 L2209.46 254.821 L2196.98 254.821 L2196.98 251.024 Z" fill="#000000" fill-rule="nonzero" fill-opacity="1" /><path clip-path="url(#clip250)" d="M2239.57 266.58 Q2229.97 266.58 2229.97 252.83 Q2229.97 247.39 2233.56 239.983 L2238.14 239.983 Q2234.83 247.39 2234.83 252.946 Q2234.83 262.969 2239.97 262.969 Q2244.67 262.969 2244.67 250.515 L2248.6 250.515 Q2248.6 262.969 2253.3 262.969 Q2258.44 262.969 2258.44 252.946 Q2258.44 247.39 2255.13 239.983 L2259.71 239.983 Q2263.3 247.39 2263.3 252.83 Q2263.3 266.58 2253.69 266.58 Q2247.4 266.58 2246.63 259.659 Q2245.69 266.58 2239.57 266.58 Z" fill="#000000" fill-rule="nonzero" fill-opacity="1" /><polyline clip-path="url(#clip250)" style="stroke:#c271d2; stroke-linecap:round; stroke-linejoin:round; stroke-width:4; stroke-opacity:1; fill:none" points="1700.07,300.469 1834.25,300.469 "/>
<path clip-path="url(#clip250)" d="M1875.53 304.485 Q1875.53 299.855 1873.6 297.309 Q1871.71 294.763 1868.26 294.763 Q1864.83 294.763 1862.91 297.309 Q1861.01 299.855 1861.01 304.485 Q1861.01 309.091 1862.91 311.638 Q1864.83 314.184 1868.26 314.184 Q1871.71 314.184 1873.6 311.638 Q1875.53 309.091 1875.53 304.485 M1879.78 314.531 Q1879.78 321.151 1876.85 324.369 Q1873.91 327.61 1867.84 327.61 Q1865.6 327.61 1863.6 327.262 Q1861.61 326.938 1859.74 326.244 L1859.74 322.1 Q1861.61 323.119 1863.44 323.605 Q1865.27 324.091 1867.17 324.091 Q1871.36 324.091 1873.44 321.892 Q1875.53 319.716 1875.53 315.295 L1875.53 313.188 Q1874.21 315.48 1872.15 316.614 Q1870.09 317.749 1867.22 317.749 Q1862.45 317.749 1859.53 314.114 Q1856.61 310.48 1856.61 304.485 Q1856.61 298.466 1859.53 294.832 Q1862.45 291.198 1867.22 291.198 Q1870.09 291.198 1872.15 292.332 Q1874.21 293.466 1875.53 295.758 L1875.53 291.823 L1879.78 291.823 L1879.78 314.531 Z" fill="#000000" fill-rule="nonzero" fill-opacity="1" /><path clip-path="url(#clip250)" d="M1910.73 303.721 L1910.73 305.804 L1891.15 305.804 Q1891.43 310.202 1893.79 312.517 Q1896.17 314.809 1900.41 314.809 Q1902.86 314.809 1905.16 314.207 Q1907.47 313.605 1909.74 312.401 L1909.74 316.429 Q1907.45 317.401 1905.04 317.911 Q1902.63 318.42 1900.16 318.42 Q1893.95 318.42 1890.32 314.809 Q1886.71 311.198 1886.71 305.04 Q1886.71 298.675 1890.13 294.948 Q1893.58 291.198 1899.41 291.198 Q1904.65 291.198 1907.68 294.577 Q1910.73 297.934 1910.73 303.721 M1906.47 302.471 Q1906.43 298.976 1904.51 296.892 Q1902.61 294.809 1899.46 294.809 Q1895.9 294.809 1893.74 296.823 Q1891.61 298.837 1891.29 302.494 L1906.47 302.471 Z" fill="#000000" fill-rule="nonzero" fill-opacity="1" /><path clip-path="url(#clip250)" d="M1939.28 302.101 L1939.28 317.749 L1935.02 317.749 L1935.02 302.239 Q1935.02 298.559 1933.58 296.73 Q1932.15 294.902 1929.28 294.902 Q1925.83 294.902 1923.84 297.101 Q1921.84 299.3 1921.84 303.096 L1921.84 317.749 L1917.56 317.749 L1917.56 291.823 L1921.84 291.823 L1921.84 295.851 Q1923.37 293.513 1925.43 292.355 Q1927.52 291.198 1930.22 291.198 Q1934.69 291.198 1936.98 293.976 Q1939.28 296.73 1939.28 302.101 Z" fill="#000000" fill-rule="nonzero" fill-opacity="1" /><path clip-path="url(#clip250)" d="M1969.95 303.721 L1969.95 305.804 L1950.36 305.804 Q1950.64 310.202 1953 312.517 Q1955.39 314.809 1959.62 314.809 Q1962.08 314.809 1964.37 314.207 Q1966.68 313.605 1968.95 312.401 L1968.95 316.429 Q1966.66 317.401 1964.25 317.911 Q1961.84 318.42 1959.37 318.42 Q1953.16 318.42 1949.53 314.809 Q1945.92 311.198 1945.92 305.04 Q1945.92 298.675 1949.34 294.948 Q1952.79 291.198 1958.63 291.198 Q1963.86 291.198 1966.89 294.577 Q1969.95 297.934 1969.95 303.721 M1965.69 302.471 Q1965.64 298.976 1963.72 296.892 Q1961.82 294.809 1958.67 294.809 Q1955.11 294.809 1952.96 296.823 Q1950.83 298.837 1950.5 302.494 L1965.69 302.471 Z" fill="#000000" fill-rule="nonzero" fill-opacity="1" /><path clip-path="url(#clip250)" d="M1991.96 295.804 Q1991.24 295.388 1990.39 295.202 Q1989.55 294.994 1988.53 294.994 Q1984.92 294.994 1982.98 297.355 Q1981.06 299.693 1981.06 304.091 L1981.06 317.749 L1976.78 317.749 L1976.78 291.823 L1981.06 291.823 L1981.06 295.851 Q1982.4 293.489 1984.55 292.355 Q1986.71 291.198 1989.78 291.198 Q1990.22 291.198 1990.76 291.267 Q1991.29 291.314 1991.94 291.429 L1991.96 295.804 Z" fill="#000000" fill-rule="nonzero" fill-opacity="1" /><path clip-path="url(#clip250)" d="M2008.21 304.716 Q2003.05 304.716 2001.06 305.897 Q1999.07 307.077 1999.07 309.925 Q1999.07 312.193 2000.55 313.536 Q2002.05 314.855 2004.62 314.855 Q2008.16 314.855 2010.29 312.355 Q2012.45 309.832 2012.45 305.665 L2012.45 304.716 L2008.21 304.716 M2016.71 302.957 L2016.71 317.749 L2012.45 317.749 L2012.45 313.813 Q2010.99 316.175 2008.81 317.309 Q2006.64 318.42 2003.49 318.42 Q1999.51 318.42 1997.15 316.198 Q1994.81 313.952 1994.81 310.202 Q1994.81 305.827 1997.72 303.605 Q2000.66 301.383 2006.47 301.383 L2012.45 301.383 L2012.45 300.966 Q2012.45 298.027 2010.5 296.429 Q2008.58 294.809 2005.09 294.809 Q2002.86 294.809 2000.76 295.341 Q1998.65 295.874 1996.71 296.939 L1996.71 293.003 Q1999.04 292.101 2001.24 291.661 Q2003.44 291.198 2005.52 291.198 Q2011.15 291.198 2013.93 294.114 Q2016.71 297.031 2016.71 302.957 Z" fill="#000000" fill-rule="nonzero" fill-opacity="1" /><path clip-path="url(#clip250)" d="M2029.69 284.462 L2029.69 291.823 L2038.46 291.823 L2038.46 295.133 L2029.69 295.133 L2029.69 309.207 Q2029.69 312.378 2030.55 313.281 Q2031.43 314.184 2034.09 314.184 L2038.46 314.184 L2038.46 317.749 L2034.09 317.749 Q2029.16 317.749 2027.28 315.92 Q2025.41 314.068 2025.41 309.207 L2025.41 295.133 L2022.28 295.133 L2022.28 291.823 L2025.41 291.823 L2025.41 284.462 L2029.69 284.462 Z" fill="#000000" fill-rule="nonzero" fill-opacity="1" /><path clip-path="url(#clip250)" d="M2054.11 294.809 Q2050.69 294.809 2048.7 297.494 Q2046.71 300.156 2046.71 304.809 Q2046.71 309.462 2048.67 312.147 Q2050.66 314.809 2054.11 314.809 Q2057.52 314.809 2059.51 312.124 Q2061.5 309.438 2061.5 304.809 Q2061.5 300.202 2059.51 297.517 Q2057.52 294.809 2054.11 294.809 M2054.11 291.198 Q2059.67 291.198 2062.84 294.809 Q2066.01 298.42 2066.01 304.809 Q2066.01 311.175 2062.84 314.809 Q2059.67 318.42 2054.11 318.42 Q2048.53 318.42 2045.36 314.809 Q2042.21 311.175 2042.21 304.809 Q2042.21 298.42 2045.36 294.809 Q2048.53 291.198 2054.11 291.198 Z" fill="#000000" fill-rule="nonzero" fill-opacity="1" /><path clip-path="url(#clip250)" d="M2088.09 295.804 Q2087.38 295.388 2086.52 295.202 Q2085.69 294.994 2084.67 294.994 Q2081.06 294.994 2079.11 297.355 Q2077.19 299.693 2077.19 304.091 L2077.19 317.749 L2072.91 317.749 L2072.91 291.823 L2077.19 291.823 L2077.19 295.851 Q2078.53 293.489 2080.69 292.355 Q2082.84 291.198 2085.92 291.198 Q2086.36 291.198 2086.89 291.267 Q2087.42 291.314 2088.07 291.429 L2088.09 295.804 Z" fill="#000000" fill-rule="nonzero" fill-opacity="1" /><path clip-path="url(#clip250)" d="M2087.38 302.864 L2099.85 302.864 L2099.85 306.661 L2087.38 306.661 L2087.38 302.864 Z" fill="#000000" fill-rule="nonzero" fill-opacity="1" /><path clip-path="url(#clip250)" d="M2111.27 313.813 L2127.58 313.813 L2127.58 317.749 L2105.64 317.749 L2105.64 313.813 Q2108.3 311.059 2112.89 306.429 Q2117.49 301.776 2118.67 300.434 Q2120.92 297.911 2121.8 296.175 Q2122.7 294.415 2122.7 292.726 Q2122.7 289.971 2120.76 288.235 Q2118.83 286.499 2115.73 286.499 Q2113.53 286.499 2111.08 287.263 Q2108.65 288.027 2105.87 289.577 L2105.87 284.855 Q2108.7 283.721 2111.15 283.142 Q2113.6 282.564 2115.64 282.564 Q2121.01 282.564 2124.2 285.249 Q2127.4 287.934 2127.4 292.425 Q2127.4 294.554 2126.59 296.476 Q2125.8 298.374 2123.7 300.966 Q2123.12 301.638 2120.02 304.855 Q2116.91 308.05 2111.27 313.813 Z" fill="#000000" fill-rule="nonzero" fill-opacity="1" /><path clip-path="url(#clip250)" d="M2134.64 302.864 L2147.12 302.864 L2147.12 306.661 L2134.64 306.661 L2134.64 302.864 Z" fill="#000000" fill-rule="nonzero" fill-opacity="1" /><path clip-path="url(#clip250)" d="M2155.32 313.813 L2162.95 313.813 L2162.95 287.448 L2154.64 289.115 L2154.64 284.855 L2162.91 283.189 L2167.58 283.189 L2167.58 313.813 L2175.22 313.813 L2175.22 317.749 L2155.32 317.749 L2155.32 313.813 Z" fill="#000000" fill-rule="nonzero" fill-opacity="1" /><path clip-path="url(#clip250)" d="M2196.98 302.864 L2209.46 302.864 L2209.46 306.661 L2196.98 306.661 L2196.98 302.864 Z" fill="#000000" fill-rule="nonzero" fill-opacity="1" /><path clip-path="url(#clip250)" d="M2239.57 318.42 Q2229.97 318.42 2229.97 304.67 Q2229.97 299.23 2233.56 291.823 L2238.14 291.823 Q2234.83 299.23 2234.83 304.786 Q2234.83 314.809 2239.97 314.809 Q2244.67 314.809 2244.67 302.355 L2248.6 302.355 Q2248.6 314.809 2253.3 314.809 Q2258.44 314.809 2258.44 304.786 Q2258.44 299.23 2255.13 291.823 L2259.71 291.823 Q2263.3 299.23 2263.3 304.67 Q2263.3 318.42 2253.69 318.42 Q2247.4 318.42 2246.63 311.499 Q2245.69 318.42 2239.57 318.42 Z" fill="#000000" fill-rule="nonzero" fill-opacity="1" /><polyline clip-path="url(#clip250)" style="stroke:#ac8d18; stroke-linecap:round; stroke-linejoin:round; stroke-width:4; stroke-opacity:1; fill:none" points="1700.07,352.309 1834.25,352.309 "/>
<path clip-path="url(#clip250)" d="M1875.53 356.325 Q1875.53 351.695 1873.6 349.149 Q1871.71 346.603 1868.26 346.603 Q1864.83 346.603 1862.91 349.149 Q1861.01 351.695 1861.01 356.325 Q1861.01 360.931 1862.91 363.478 Q1864.83 366.024 1868.26 366.024 Q1871.71 366.024 1873.6 363.478 Q1875.53 360.931 1875.53 356.325 M1879.78 366.371 Q1879.78 372.991 1876.85 376.209 Q1873.91 379.45 1867.84 379.45 Q1865.6 379.45 1863.6 379.102 Q1861.61 378.778 1859.74 378.084 L1859.74 373.94 Q1861.61 374.959 1863.44 375.445 Q1865.27 375.931 1867.17 375.931 Q1871.36 375.931 1873.44 373.732 Q1875.53 371.556 1875.53 367.135 L1875.53 365.028 Q1874.21 367.32 1872.15 368.454 Q1870.09 369.589 1867.22 369.589 Q1862.45 369.589 1859.53 365.954 Q1856.61 362.32 1856.61 356.325 Q1856.61 350.306 1859.53 346.672 Q1862.45 343.038 1867.22 343.038 Q1870.09 343.038 1872.15 344.172 Q1874.21 345.306 1875.53 347.598 L1875.53 343.663 L1879.78 343.663 L1879.78 366.371 Z" fill="#000000" fill-rule="nonzero" fill-opacity="1" /><path clip-path="url(#clip250)" d="M1910.73 355.561 L1910.73 357.644 L1891.15 357.644 Q1891.43 362.042 1893.79 364.357 Q1896.17 366.649 1900.41 366.649 Q1902.86 366.649 1905.16 366.047 Q1907.47 365.445 1909.74 364.241 L1909.74 368.269 Q1907.45 369.241 1905.04 369.751 Q1902.63 370.26 1900.16 370.26 Q1893.95 370.26 1890.32 366.649 Q1886.71 363.038 1886.71 356.88 Q1886.71 350.515 1890.13 346.788 Q1893.58 343.038 1899.41 343.038 Q1904.65 343.038 1907.68 346.417 Q1910.73 349.774 1910.73 355.561 M1906.47 354.311 Q1906.43 350.816 1904.51 348.732 Q1902.61 346.649 1899.46 346.649 Q1895.9 346.649 1893.74 348.663 Q1891.61 350.677 1891.29 354.334 L1906.47 354.311 Z" fill="#000000" fill-rule="nonzero" fill-opacity="1" /><path clip-path="url(#clip250)" d="M1939.28 353.941 L1939.28 369.589 L1935.02 369.589 L1935.02 354.079 Q1935.02 350.399 1933.58 348.57 Q1932.15 346.742 1929.28 346.742 Q1925.83 346.742 1923.84 348.941 Q1921.84 351.14 1921.84 354.936 L1921.84 369.589 L1917.56 369.589 L1917.56 343.663 L1921.84 343.663 L1921.84 347.691 Q1923.37 345.353 1925.43 344.195 Q1927.52 343.038 1930.22 343.038 Q1934.69 343.038 1936.98 345.816 Q1939.28 348.57 1939.28 353.941 Z" fill="#000000" fill-rule="nonzero" fill-opacity="1" /><path clip-path="url(#clip250)" d="M1969.95 355.561 L1969.95 357.644 L1950.36 357.644 Q1950.64 362.042 1953 364.357 Q1955.39 366.649 1959.62 366.649 Q1962.08 366.649 1964.37 366.047 Q1966.68 365.445 1968.95 364.241 L1968.95 368.269 Q1966.66 369.241 1964.25 369.751 Q1961.84 370.26 1959.37 370.26 Q1953.16 370.26 1949.53 366.649 Q1945.92 363.038 1945.92 356.88 Q1945.92 350.515 1949.34 346.788 Q1952.79 343.038 1958.63 343.038 Q1963.86 343.038 1966.89 346.417 Q1969.95 349.774 1969.95 355.561 M1965.69 354.311 Q1965.64 350.816 1963.72 348.732 Q1961.82 346.649 1958.67 346.649 Q1955.11 346.649 1952.96 348.663 Q1950.83 350.677 1950.5 354.334 L1965.69 354.311 Z" fill="#000000" fill-rule="nonzero" fill-opacity="1" /><path clip-path="url(#clip250)" d="M1991.96 347.644 Q1991.24 347.228 1990.39 347.042 Q1989.55 346.834 1988.53 346.834 Q1984.92 346.834 1982.98 349.195 Q1981.06 351.533 1981.06 355.931 L1981.06 369.589 L1976.78 369.589 L1976.78 343.663 L1981.06 343.663 L1981.06 347.691 Q1982.4 345.329 1984.55 344.195 Q1986.71 343.038 1989.78 343.038 Q1990.22 343.038 1990.76 343.107 Q1991.29 343.154 1991.94 343.269 L1991.96 347.644 Z" fill="#000000" fill-rule="nonzero" fill-opacity="1" /><path clip-path="url(#clip250)" d="M2008.21 356.556 Q2003.05 356.556 2001.06 357.737 Q1999.07 358.917 1999.07 361.765 Q1999.07 364.033 2000.55 365.376 Q2002.05 366.695 2004.62 366.695 Q2008.16 366.695 2010.29 364.195 Q2012.45 361.672 2012.45 357.505 L2012.45 356.556 L2008.21 356.556 M2016.71 354.797 L2016.71 369.589 L2012.45 369.589 L2012.45 365.653 Q2010.99 368.015 2008.81 369.149 Q2006.64 370.26 2003.49 370.26 Q1999.51 370.26 1997.15 368.038 Q1994.81 365.792 1994.81 362.042 Q1994.81 357.667 1997.72 355.445 Q2000.66 353.223 2006.47 353.223 L2012.45 353.223 L2012.45 352.806 Q2012.45 349.867 2010.5 348.269 Q2008.58 346.649 2005.09 346.649 Q2002.86 346.649 2000.76 347.181 Q1998.65 347.714 1996.71 348.779 L1996.71 344.843 Q1999.04 343.941 2001.24 343.501 Q2003.44 343.038 2005.52 343.038 Q2011.15 343.038 2013.93 345.954 Q2016.71 348.871 2016.71 354.797 Z" fill="#000000" fill-rule="nonzero" fill-opacity="1" /><path clip-path="url(#clip250)" d="M2029.69 336.302 L2029.69 343.663 L2038.46 343.663 L2038.46 346.973 L2029.69 346.973 L2029.69 361.047 Q2029.69 364.218 2030.55 365.121 Q2031.43 366.024 2034.09 366.024 L2038.46 366.024 L2038.46 369.589 L2034.09 369.589 Q2029.16 369.589 2027.28 367.76 Q2025.41 365.908 2025.41 361.047 L2025.41 346.973 L2022.28 346.973 L2022.28 343.663 L2025.41 343.663 L2025.41 336.302 L2029.69 336.302 Z" fill="#000000" fill-rule="nonzero" fill-opacity="1" /><path clip-path="url(#clip250)" d="M2054.11 346.649 Q2050.69 346.649 2048.7 349.334 Q2046.71 351.996 2046.71 356.649 Q2046.71 361.302 2048.67 363.987 Q2050.66 366.649 2054.11 366.649 Q2057.52 366.649 2059.51 363.964 Q2061.5 361.278 2061.5 356.649 Q2061.5 352.042 2059.51 349.357 Q2057.52 346.649 2054.11 346.649 M2054.11 343.038 Q2059.67 343.038 2062.84 346.649 Q2066.01 350.26 2066.01 356.649 Q2066.01 363.015 2062.84 366.649 Q2059.67 370.26 2054.11 370.26 Q2048.53 370.26 2045.36 366.649 Q2042.21 363.015 2042.21 356.649 Q2042.21 350.26 2045.36 346.649 Q2048.53 343.038 2054.11 343.038 Z" fill="#000000" fill-rule="nonzero" fill-opacity="1" /><path clip-path="url(#clip250)" d="M2088.09 347.644 Q2087.38 347.228 2086.52 347.042 Q2085.69 346.834 2084.67 346.834 Q2081.06 346.834 2079.11 349.195 Q2077.19 351.533 2077.19 355.931 L2077.19 369.589 L2072.91 369.589 L2072.91 343.663 L2077.19 343.663 L2077.19 347.691 Q2078.53 345.329 2080.69 344.195 Q2082.84 343.038 2085.92 343.038 Q2086.36 343.038 2086.89 343.107 Q2087.42 343.154 2088.07 343.269 L2088.09 347.644 Z" fill="#000000" fill-rule="nonzero" fill-opacity="1" /><path clip-path="url(#clip250)" d="M2087.38 354.704 L2099.85 354.704 L2099.85 358.501 L2087.38 358.501 L2087.38 354.704 Z" fill="#000000" fill-rule="nonzero" fill-opacity="1" /><path clip-path="url(#clip250)" d="M2117.82 350.445 Q2114.67 350.445 2112.82 352.598 Q2110.99 354.751 2110.99 358.501 Q2110.99 362.228 2112.82 364.403 Q2114.67 366.556 2117.82 366.556 Q2120.96 366.556 2122.79 364.403 Q2124.64 362.228 2124.64 358.501 Q2124.64 354.751 2122.79 352.598 Q2120.96 350.445 2117.82 350.445 M2127.1 335.793 L2127.1 340.052 Q2125.34 339.218 2123.53 338.779 Q2121.75 338.339 2119.99 338.339 Q2115.36 338.339 2112.91 341.464 Q2110.48 344.589 2110.13 350.908 Q2111.5 348.894 2113.56 347.829 Q2115.62 346.742 2118.09 346.742 Q2123.3 346.742 2126.31 349.913 Q2129.34 353.061 2129.34 358.501 Q2129.34 363.825 2126.2 367.042 Q2123.05 370.26 2117.82 370.26 Q2111.82 370.26 2108.65 365.677 Q2105.48 361.07 2105.48 352.343 Q2105.48 344.149 2109.37 339.288 Q2113.26 334.404 2119.81 334.404 Q2121.57 334.404 2123.35 334.751 Q2125.15 335.098 2127.1 335.793 Z" fill="#000000" fill-rule="nonzero" fill-opacity="1" /><path clip-path="url(#clip250)" d="M2134.64 354.704 L2147.12 354.704 L2147.12 358.501 L2134.64 358.501 L2134.64 354.704 Z" fill="#000000" fill-rule="nonzero" fill-opacity="1" /><path clip-path="url(#clip250)" d="M2155.32 365.653 L2162.95 365.653 L2162.95 339.288 L2154.64 340.955 L2154.64 336.695 L2162.91 335.029 L2167.58 335.029 L2167.58 365.653 L2175.22 365.653 L2175.22 369.589 L2155.32 369.589 L2155.32 365.653 Z" fill="#000000" fill-rule="nonzero" fill-opacity="1" /><path clip-path="url(#clip250)" d="M2196.98 354.704 L2209.46 354.704 L2209.46 358.501 L2196.98 358.501 L2196.98 354.704 Z" fill="#000000" fill-rule="nonzero" fill-opacity="1" /><path clip-path="url(#clip250)" d="M2239.57 370.26 Q2229.97 370.26 2229.97 356.51 Q2229.97 351.07 2233.56 343.663 L2238.14 343.663 Q2234.83 351.07 2234.83 356.626 Q2234.83 366.649 2239.97 366.649 Q2244.67 366.649 2244.67 354.195 L2248.6 354.195 Q2248.6 366.649 2253.3 366.649 Q2258.44 366.649 2258.44 356.626 Q2258.44 351.07 2255.13 343.663 L2259.71 343.663 Q2263.3 351.07 2263.3 356.51 Q2263.3 370.26 2253.69 370.26 Q2247.4 370.26 2246.63 363.339 Q2245.69 370.26 2239.57 370.26 Z" fill="#000000" fill-rule="nonzero" fill-opacity="1" /></svg>
